<?xml version="1.0" encoding="UTF-8"?>
<svg version="1.1" viewBox="0 0 1600 1600" width="1280" height="1280" xmlns="http://www.w3.org/2000/svg">
<path transform="translate(67,300)" d="m0 0h1466v1e3h-1466z" fill="#F4F6F7"/>
<path transform="translate(781,500)" d="m0 0h38l28 3 29 6 26 8 24 10 20 10 18 11 17 12 17 14 15 14 8 8 7 8 13 16 14 21 12 21 10 21 10 27 7 27 4 23 2 21v38l-3 28-6 29-7 23-11 27-13 25-12 19-13 17-9 11-14 15-8 8-11 9-12 10-17 12-22 13-27 13-25 9-27 7-23 4-21 2h-38l-28-3-29-6-20-6-28-11-20-10-20-12-17-12-13-11-8-7-10-9-8-8-7-8-14-17-14-21-11-19-11-23-9-24-6-21-5-25-3-28v-38l3-28 6-29 8-26 11-26 13-25 14-21 10-13 9-11 14-15 8-8 8-7 16-13 21-14 21-12 21-10 24-9 21-6 25-5z" fill="#D50000"/>
</svg>
