<?xml version="1.0" encoding="UTF-8"?>
<svg version="1.1" viewBox="0 0 1600 1600" width="1280" height="1280" xmlns="http://www.w3.org/2000/svg">
<path transform="translate(67,333)" d="m0 0h1466v1e3h-1466z" fill="#F9F9F9"/>
<path transform="translate(798,566)" d="m0 0 25 1 23 3 23 5 30 10 24 11 22 13 14 10 10 8 14 12 15 15 9 11 11 14 11 17 10 18 10 22 8 24 6 25 3 21 1 23v12l-2 26-4 23-7 26-8 21-12 25-13 21-9 12-9 11-9 10-18 18-11 9-15 11-21 13-22 11-21 8-20 6-24 5-27 3h-30l-27-3-24-5-20-6-21-8-24-12-19-12-12-9-10-8-12-11-17-17-11-14-11-15-9-15-12-23-10-26-7-26-4-23-2-25v-23l2-21 4-22 6-23 9-24 11-23 11-18 12-17 11-13 11-12 11-11 11-9 17-13 21-13 16-8 15-7 30-10 29-6 17-2z" fill="#F34336"/>
<path transform="translate(921,700)" d="m0 0h25l18 3 16 5 16 7 16 10 14 12 8 8 12 16 11 21 6 18 4 21v20l-2 26-4 23-7 26-8 21-12 25-13 21-9 12-9 11-9 10-18 18-11 9-15 11-21 13-22 11-21 8-20 6-24 5-27 3h-30l-27-3-24-5-20-6-21-8-24-12-19-12-12-9-10-8-12-11-17-17-11-14-11-15-9-15-12-23-10-26-7-26-4-23v-10h1l5 19 8 19 8 13 10 13 14 14 14 10 16 9 16 6 17 4 19 2 20-1 20-4 19-7 15-8 14-10 13-12 11-14 8-13 8-17 5-17 3-20 1-22 3-18 5-17 9-19 8-12 9-11 13-13 17-12 17-9 18-6 14-3z" fill="#3948A9"/>
<path transform="translate(406,413)" d="m0 0 5 2 17 11-1 4-16 25-10 15-15 23-49 75-32 49-17 26-7 10-12-7-10-7 2-5 21-32 32-49 32-49 49-75 10-15z" fill="#263239"/>
<path transform="translate(1144,444)" d="m0 0 4 5 19 29 120 184 4 6-1 4-18 12-4-1-17-26-32-49-90-138-7-11 5-4z" fill="#263239"/>
<path transform="translate(280,1018)" d="m0 0 4 1 16 25 15 23 22 34 13 20 44 68 13 20 11 17 9 14-4 4-17 11h-2l-16-25-15-23-11-17-13-20-33-51-13-20-33-51-10-15v-2l17-11z" fill="#263239"/>
<path transform="translate(380,950)" d="m0 0 3 1 14 22 17 26 11 17 13 20 22 34 13 20 22 34 13 20 11 17 7 11v2l-18 12-5-5-10-16-17-26-11-17-13-20-22-34-13-20-33-51-13-20-9-14 4-4z" fill="#263239"/>
<path transform="translate(456,448)" d="m0 0 5 2 15 10-4 8-10 15-13 20-11 17-13 20-11 17-26 40-11 17-26 40-11 17-8 12h-3l-16-10-1-3 16-25 17-26 13-20 11-17 13-20 11-17 26-40 11-17 13-20z" fill="#263239"/>
<path transform="translate(508,481)" d="m0 0 5 1 15 10-2 5-12 19-17 26-13 20-11 17-26 40-11 17-26 40-11 17-13 20-2 3-5-2-15-10 6-11 10-15 11-17 26-40 11-17 13-20 11-17 26-40 11-17 13-20z" fill="#263239"/>
<path transform="translate(1184,1105)" d="m0 0 5 2 15 10 3 3-16 25-22 34-16 25-11 17-1 2-5-2-15-10-3-3 11-18 10-15 16-25 11-17 16-25z" fill="#263239"/>
<path transform="translate(333,982)" d="m0 0h2l10 16 11 17 16 25 11 17 16 25 1 4-10 7-12 7-16-25-11-17-16-25-11-17-12-19 5-5z" fill="#263239"/>
<path transform="translate(1265,984)" d="m0 0 5 2 17 11-1 4-14 22-10 15-13 20-15 23-13 20-5-2-18-12 5-9 10-15 45-69z" fill="#263239"/>
<path transform="translate(1134,1070)" d="m0 0 5 2 16 11v4l-10 16-10 15-45 69-5-2-17-11v-3l10-16 18-27 10-16 10-15 13-20z" fill="#263239"/>
<path transform="translate(1089,481)" d="m0 0 4 1 13 20 38 58 14 21-1 4-17 11-4-4-11-17-38-58-15-23v-2z" fill="#26323A"/>
<path transform="translate(1315,1019)" d="m0 0 5 2 15 10-5 9-39 60-22 34-4-1-16-10 1-4 16-25 18-27 10-16 15-23z" fill="#26323A"/>
<path transform="translate(1167,601)" d="m0 0 3 3 13 20 11 17 13 20 22 34 6 10-18 12-4-2-10-16-17-26-11-17-13-20-11-17-2-3 1-4 16-10z" fill="#263239"/>
<path transform="translate(407,1105)" d="m0 0 4 5 18 27 10 16 18 27 10 16 7 11-1 3-17 11-4-4-26-40-15-23-13-20-10-15v-2z" fill="#263239"/>
<path transform="translate(1212,952)" d="m0 0 4 1 16 10-2 5-14 22-17 26-13 20-11 17-9 14-5-2-15-10 2-5 18-27 10-16 15-23 13-20z" fill="#263239"/>
<path transform="translate(1271,535)" d="m0 0 4 5 14 21 38 58 12 18-5 5-14 9-4-5-10-15-36-55-18-27v-2l16-10z" fill="#263239"/>
<path transform="translate(1236,1138)" d="m0 0 5 2 15 9-2 5-10 16-16 25-11 17-14 22-11 17-3 3-18-12 1-4 11-18 15-23 32-50z" fill="#263239"/>
<path transform="translate(1194,414)" d="m0 0h2l13 20 21 32 19 29 13 20-2 4-16 10-5-5-14-22-14-21-21-32-14-21 2-4z" fill="#263239"/>
</svg>
