<?xml version="1.0" encoding="UTF-8"?>
<svg version="1.1" viewBox="0 0 1600 1600" width="1280" height="1280" xmlns="http://www.w3.org/2000/svg">
<path transform="translate(66,300)" d="m0 0h1467v1e3h-1467z" fill="#FE3C00"/>
<path transform="translate(66,300)" d="m0 0h601v236h8v-3h6l1 5 17 1 24 4 26 7 5 2-3 1-18-5-18-4-18-3-10-1-5-1v5h12l26 4 26 7 19 7 25 12 20 12 16 12 13 11 14 13 7 8 11 13v2l7 2-10-13-11-12-7-8-5-4-2-4 4 2 15 15 9 11 11 14v2l5 2 5 4-1 2-5-4-18-8-23-7v-2l10 2 13 4-12-14-10-11-8-7-14-12-17-12-15-9-15-8-27-11-25-7-21-4-18-2-4-1v15h11l25 4 19 5 15 5 23 10 18 10 16 11 11 9 1 2-4-2-13-10-18-11-19-10-23-9-21-6-20-4-18-2-3-1 1 4 26 3 25 6 20 7 20 9 5 3-2 1-19-9-22-8-25-6-29-4v52h84v1h-256l1 215 2 19 5 21 8 20 8 15 10 14 11 12 10 10 13 10 15 9 19 9 20 6 18 3h33l14-2h5v2l4-1 38-3 33-4 43-8 12-3 3-4-37 8-39 6-8 1h-9l2-2 38-5 36-7 21-5h2l2-4 6-5-2 4-12 13-11 11-2-1 6-6-26 5-36 6-39 4-34 2h-11v47l24-3 23-5 21-7 23-10 18-10 17-12 5-4 2 1-11 9-19 12-21 11-23 9-22 6-23 4-14 1v4l33-5 24-6 26-10 20-10 16-10 16-12 14-12 15-15 7-8v3l-14 15-12 12-14 11-15 11-21 12-17 8-22 8-24 6-19 3-13 1v14l26-3 24-5 33-11 25-12 18-11 15-11 10-8 13-12 12-12 7-8v3l-14 15-13 13-11 9-16 12-20 12-16 8-16 7-24 8-22 5-22 3h-9v4l20-2 18-3 18-5 11-3 9-3 3 1-27 9-24 5-26 3h-2l-1 5h-6l-1-3-7-1v237h-601z" fill="#2E7C32"/>
<path transform="translate(682,545)" d="m0 0 22 2 25 5 21 6 22 9 16 8 16 9 17 12 11 9 10 9 8 7 7 8 9 10 3 5-11-3-13-4v2l7 1 21 7 16 8 5 4 3 5v2h-2l4 7v2l4 2 5 7v2l-2 1 3 9 8 21 6 21 4 19 3 26 3 4v9l-2 1v10l2 2v9l-4 2-1 16-5 26-7 24-9 22-3 6v11l-5 7-4 1-10 16-3 5-3 9-3 4-7 1-11 12-18 18-6 5-7 3-4 2v2l-5 3h-2v2l-3 2h-3v2l-7 4-12 7-16 8-12 5-24 8-17 4-10 2-13 2-17 1v-4l31-4 25-6 24-8 22-10 19-11 12-8 13-10 14-12 17-17 6-8-15 16-12 12-11 9-13 10-19 12-23 12-21 8-23 7-20 4-15 2h-11v-14l2-1 25-3 25-6 21-7 20-9 18-10 12-8 16-12 15-14 11-11 6-8-15 16-11 11-11 9-15 11-13 8-23 12-21 8-16 5-24 5-16 2h-6v-4l33-5 23-6 21-8 21-10 18-11 16-12-9 6-11 8-21 12-23 10-21 7-23 5-14 2h-10v-47l57-4 34-4 35-6 18-4 3 1-6 6 7-6 12-12 6-8-7 8-10 3-37 8-41 6-9 1 15-1 39-6 37-8 2 1-5 5-27 6-35 6-36 4-32 2v-2l-19 3h-33l-22-4-21-7-23-12-11-8-11-9-16-16-11-15-9-16-8-19-5-18-2-13-1-12v-215l172-1v-52h9l25 4 23 6 21 8 18 8-19-9-25-9-25-6-26-3h-1v-5l21 2 24 5 20 6 24 10 19 10 15 10 13 10v-1l-13-10-19-12-17-9-22-9-25-7-21-4-19-2z" fill="#F20702"/>
<path transform="translate(682,545)" d="m0 0 22 2 25 5 21 6 22 9 16 8 16 9 17 12 11 9 10 9 8 7 7 8 9 10 3 5-11-3-13-4v2l7 1 21 7 16 8 5 4 3 5v2h-2l4 7v2l4 2 5 7v2l-2 1 3 9 8 21 6 21 4 19 3 26 3 4v9l-2 1v10l2 2v9l-4 2-1 16-5 26-7 24-9 22-3 6v11l-5 7-4 1-10 16-3 5-3 9-3 4-7 1-11 12-18 18-6 5-7 3-4 2v2l-5 3h-2v2l-3 2h-3v2l-7 4-12 7-16 8-12 5-24 8-17 4-10 2-13 2-17 1v-4l31-4 25-6 24-8 22-10 19-11 12-8 13-10 14-12 17-17 6-8-15 16-12 12-11 9-13 10-19 12-23 12-21 8-23 7-20 4-15 2h-11v-14l2-1 25-3 25-6 21-7 20-9 18-10 12-8 16-12 15-14 11-11 6-8-15 16-11 11-11 9-15 11-13 8-23 12-21 8-16 5-24 5-16 2h-6v-4l33-5 23-6 21-8 21-10 18-11 16-12-9 6-11 8-21 12-23 10-21 7-23 5-14 2h-10v-47l57-4 34-4 35-6 18-4 3 1-6 6 7-6 12-12 6-8-7 8-10 3-37 8-41 6-9 1 15-1 39-6 37-8 2 1-5 5-27 6-35 6-36 4-32 2v-2l-19 3h-33l-22-4-21-7-23-12-11-8-11-9-16-16-11-15-9-16-8-19-5-18-2-13-1-12v-215l172-1v-52h9l25 4 23 6 21 8 18 8-19-9-25-9-25-6-26-3h-1v-5l21 2 24 5 20 6 24 10 19 10 15 10 13 10v-1l-13-10-19-12-17-9-22-9-25-7-21-4-19-2zm-167 80-1 113v93l2 23 5 20 6 16 9 17 10 14 9 10 5 6 8 7 13 10 19 11 20 8 21 5 17 2h16l24-3 21-6 18-8 15-9 13-10 14-13 11-14 9-14 8-16 7-21 3-14 1-9v-218z" fill="#317B31"/>
<path transform="translate(577,687)" d="m0 0h71l108 1v149l-3 17-5 13-6 11-7 9-6 7-10 8-13 8-13 5-13 3h-27l-16-4-16-8-10-7-10-9-10-13-8-16-4-12-2-14z" fill="#fff"/>
<path transform="translate(510,620)" d="m0 0h256l57 1v224l-3 18h2l1-9 4 2 19 14 16 13 14 12 15 15 7 11v5l-4 7-2 5-10 16-3 9-3 4-7 1-11 12-18 18-6 5-7 3-4 2v2l-5 3h-2v2l-3 2h-3v2l-7 4-12 7-16 8-12 5-24 8-17 4-10 2-13 2-17 1v-4l31-4 25-6 24-8 22-10 19-11 12-8 13-10 14-12 17-17 6-8-15 16-12 12-11 9-13 10-19 12-23 12-21 8-23 7-20 4-15 2h-11v-14l2-1 25-3 25-6 21-7 20-9 18-10 12-8 16-12 15-14 11-11 6-8-15 16-11 11-11 9-15 11-13 8-23 12-21 8-16 5-24 5-16 2h-6v-4l33-5 23-6 21-8 21-10 18-11 16-12-9 6-11 8-21 12-23 10-21 7-23 5-14 2h-10v-47l57-4 34-4 35-6 18-4 3 1-6 6 7-6 12-12 6-8-7 8-10 3-37 8-41 6-9 1 15-1 39-6 37-8 2 1-5 5-27 6-35 6-36 4-32 2v-2l-19 3h-33l-22-4-21-7-23-12-11-8-11-9-16-16-11-15-9-16-8-19-5-18-2-13-1-12zm5 5-1 113v93l2 23 5 20 6 16 9 17 10 14 9 10 5 6 8 7 13 10 19 11 20 8 21 5 17 2h16l24-3 21-6 18-8 15-9 13-10 14-13 11-14 9-14 8-16 7-21 3-14 1-9v-218z" fill="#317E31"/>
<path transform="translate(829,639)" d="m0 0 12 2 28 8 17 7 5 2 3 1 3 5v2h-2l4 7v2l4 2 5 7v2l-2 1 3 9 8 21 6 21 4 19 3 26 3 4v9l-2 1v10l2 2v9l-4 2-1 16-5 26-7 24-9 22-3 6v8l-2-3-4-8-11-13-7-7-8-7-13-11-30-23 1-2 13 10 14 11 11 9 10 9 5 3 1-5 9-27 4-18 2-8-18 5-38 8-15 2 1-2 37-7 32-8 1-4-30 8-35 7h-5l1-2 40-8 26-7 3-1 1-11 1-2-38 9-27 5h-5l1-2 45-9 23-6 1-4-30 8-34 7-10 1 1-2 37-7 31-8 5-1-1-2-24-8-32-8-16-3v-2l14 2 36 9 24 8 19 9 11 8-2-5-10-7-19-9-25-8-29-7-20-4v-2l10 1 31 7 27 8 19 8 11 6 3 2v-12l-10-7-17-8-24-8-28-7-20-4v-2l10 1 30 7 29 9 18 8 11 7 4 3-1-4-9-7-19-9-28-9-34-8-11-2v-2l13 2 34 8 22 7-5-26-6-20-8-19-2-4-10 2-30 7-8 1 1-2 39-9 7-1-1-4-32 8-10 2-4-1 5-2 31-7 7-2-2-5-3-5v-2l-36 8-4-1 5-2 27-6 5-2-1-2-10 2-22 5-3-1 5-2 25-6h3v-2l-19-4-14-3v-2l25 5 29 8 21 8-5-5-19-7-34-9-14-3v-2l9 1 32 8 21 7h2l-6-10-12-6-27-9-21-5z" fill="#2E7C31"/>
<path transform="translate(510,620)" d="m0 0h256l57 1v224l-3 18-6 20-8 18-9 15-11 14-10 11-8 7-13 10-21 12-21 8-16 4-14 2h-33l-22-4-21-7-23-12-11-8-11-9-16-16-11-15-9-16-8-19-5-18-2-13-1-12zm5 5-1 113v93l2 23 5 20 6 16 9 17 10 14 9 10 5 6 8 7 13 10 19 11 20 8 21 5 17 2h16l24-3 21-6 18-8 15-9 13-10 14-13 11-14 9-14 8-16 7-21 3-14 1-9v-218z" fill="#fff"/>
<path transform="translate(426,689)" d="m0 0h12l19 5 25 9 25 11 1 5-6-2v2l6 2v28l-4 1 4 1v4l-38 8-31 9-20 8-12 7-5 3 1-5 9-7 18-8 27-9 20-5h5l-5-5-14-10-10-8-9-7-5 16-5 25-5 2v-6l-2 7-15 7-1-5-2 7-3 1v-9l4-25 6-23 7-20 4-9-3-1z" fill="#2E7C32"/>
<path transform="translate(826,967)" d="m0 0 3 1-12 13-5 2-15 11-15 9-15 8-28 11-22 6-25 4h-10v-47l57-4 34-4 35-6z" fill="#FE3B00"/>
<path transform="translate(682,567)" d="m0 0h9l25 4 23 6 21 8 17 8 8 3 14 9 12 9 3 5h-132z" fill="#FC3B00"/>
<path transform="translate(823,854)" d="m0 0 4 2 19 14 16 13 14 12 15 15 7 11v5l-15 23-4 4-6-9-14-14-11-9-16-13-19-14-1-3 6-16z" fill="#ff0"/>
<path transform="translate(874,697)" d="m0 0 4 1 7 15 8 24 6 29-1 2-26-8-30-7-16-3-1-1v-40l16-4 30-7z" fill="#FF3A00"/>
<path transform="translate(464,933)" d="m0 0h3l10 14 12 14 19 19 14 11 14 10 19 11 21 10 27 9 22 5 25 3 2 1v14h-12l-26-4-26-7-24-9-16-8-15-8-16-11-13-10-11-10-8-7-7-7-18-22-7-10 1-3z" fill="#ff0"/>
<path transform="translate(860,943)" d="m0 0 4 2 7 8-6 9-15 16-12 12-11 9-13 10-19 12-23 12-21 8-23 7-20 4-15 2h-11v-14l2-1 25-3 25-6 21-7 20-9 18-10 12-8 16-12 15-14 11-11 9-11z" fill="#ff0"/>
<path transform="translate(648,545)" d="m0 0h4v15l-26 3-22 5-19 6-15 6-17 8-21 13-11 8-10 8-3 1v2l-8 7-10 10-21 6-4 1 2-4 12-14 17-17 14-11 12-9 16-10 23-12 20-8 23-7 25-5z" fill="#ff0"/>
<path transform="translate(682,545)" d="m0 0 22 2 25 5 21 6 22 9 16 8 16 9 17 12 11 9 10 9 8 7 7 8 9 10 3 5-11-3-14-4-15-15-11-9-13-10-19-12-17-9-22-9-25-7-21-4-19-2z" fill="#ff0"/>
<path transform="translate(448,655)" d="m0 0 14 1 21 6 24 9 1 1v41l-40-16-22-7-16-3 2-6 12-22z" fill="#ff0"/>
<path transform="translate(659,630)" d="m0 0h10v2h2v-2h4v7l9 1h5v7h-2v9l4 1-2 7v8l1 7 2 4-2 2h-46l-2-4 2-2 1-6v-9l-2-7 4-1v-9h-2v-7h4v2h2v-2l9-1-1-1z" fill="#668A24"/>
<path transform="translate(538,752)" d="m0 0h4v2h2v-2h10v6l-1 1 3 1v2h2v-2h9l1 1-1 7-1 8 3 1-1 7-1 2 2 14 1 5h-48l-1-4 3-1v-15l-2-5 1-4h3l-1-8-1-1v-7l5 1 5-1 4-1z" fill="#8AB51B"/>
<path transform="translate(780,752)" d="m0 0h15v7l3 1v2h2v-2h9v8h-2l1 8 3 1-1 7-1 4 2 12 1 5h-48l-1-4 2-3 1-13-2-5 1-4h3v-8h-2v-8l5 1 5-1 4-1z" fill="#629D25"/>
<path transform="translate(538,630)" d="m0 0 5 1 5-1h6v6l-3 1 5 1v2h2v-2h10v6l-1 1-1 9h3l-1 8v16h2l-1 5h-47l-1-4 2-2 1-15-2-4 1-4h3l-1-8-1-1v-7h15v7l-1 5 1 3 1-16h-2z" fill="#42882D"/>
<path transform="translate(780,630)" d="m0 0h15v7h-2l1 17h2l-1-8-1-1v-7h4v2h2v-2h9v7l-1 5v4h3l-1 8h-2l2 16h2l-1 5h-47l-1-5h2l2-16h-2l-1-7 3-2v-7l-1-1v-7h15v7l-1 1v7l1-2 1-14h-2z" fill="#2E7C32"/>
<path transform="translate(756,877)" d="m0 0 4 2v2l4 2v2l3 1 1 2h3l6 6 6-3-2 4-3 2 2 3v1l4 2v2l3 1-1 4-2 2-5 2-3 4v4l-8 4-7 9-2 5-4-1-31-31 1-4 7-3 7-6 3-7h6l4-5 2-4z" fill="#2E7C32"/>
<path transform="translate(897,832)" d="m0 0h2l-3 18-6 21-7 19-5-2-7-7-14-11-16-13-13-9 3-2 42-8z" fill="#FF3A00"/>
<path transform="translate(576,877)" d="m0 0 5 4v4l6 3 5 1 3 7 9 7 5 1-1 5-21 21-8 7-2 3-4-1-1-7-8-7-7-3v-5l-4-4-5-3h3l7-6 2-4-1-4h-6l-3-3 2-4h2l2-4h2l2-4 4 2 2 4 4-2 2-4h2z" fill="#496B2B"/>
<path transform="translate(455,700)" d="m0 0 18 6 31 13 4 2v28l-16 3-5-1-19-14-16-13-5-5z" fill="#ff0"/>
<path transform="translate(593,778)" d="m0 0h39v32l-3 8-8 7-5 2h-8l-8-4-5-6-2-4-1-6v-21z" fill="#003497"/>
<path transform="translate(648,709)" d="m0 0h39v33l-5 10-5 4-4 2h-11l-7-4-5-6-2-5z" fill="#003398"/>
<path transform="translate(648,846)" d="m0 0h39v33l-5 10-7 5-3 1h-10l-8-5-4-5-2-5z" fill="#003398"/>
<path transform="translate(703,778)" d="m0 0h39v33l-5 10-7 5-3 1h-9l-8-4-6-8-1-3z" fill="#003398"/>
<path transform="translate(648,778)" d="m0 0h39v33l-5 10-7 5-4 1h-8l-8-4-6-8-1-3z" fill="#003398"/>
<path transform="translate(825,779)" d="m0 0 14 2 30 7 26 8 6 3v2l-16 5-30 7-28 5h-2z" fill="#FF3900"/>
<path transform="translate(422,802)" d="m0 0h4l1 20 4 27 6 22 7 20 6 13v2l-11 6-3-1-7-15-10-30-5-22-3-24v-12z" fill="#ff0"/>
<path transform="translate(872,672)" d="m0 0 19 6 5 8 9 19 9 27 5 22 3 21-1 3-15-8-4-23-7-25-9-22-12-23z" fill="#ff0"/>
<path transform="translate(503,757)" d="m0 0h5v14l-13 3-27 6-28 8-25 10-11 6v-13l8-6 16-8 27-9 28-7z" fill="#ff0"/>
<path transform="translate(825,757)" d="m0 0 10 1 30 7 25 7 20 8 13 7 6 5v13l-11-6-15-7-24-8-28-7-25-5-1-1z" fill="#ff0"/>
<path transform="translate(908,802)" d="m0 0 14 7v15l-4 27-5 20-7 21-7 16-11-11 11-33 5-22 3-23z" fill="#ff0"/>
<path transform="translate(847,942)" d="m0 0h4l-2 4-8 10-10 3-37 8-41 6-19 2h-7l3-2 19-10 9-6 11-2 47-7z" fill="#ff0"/>
<path transform="translate(482,941)" d="m0 0 13 2 38 7 42 6 14 9 16 8v1l-18-1-42-6-36-7-16-4-11-13z" fill="#ff0"/>
<path transform="translate(517,893)" d="m0 0h6l6 13-6 2-32 8-24 8-16 8-8 5-7-11 1-4 11-7 19-8 18-6z" fill="#ff0"/>
<path transform="translate(808,900)" d="m0 0 4 2 16 12 16 13 7 6v1l-35 7-9-3-17-8v-3l9-12z" fill="#ff0"/>
<path transform="translate(433,695)" d="m0 0 10 1 5 2-6 16-8 24-5 24-1 7-16 8 1-15 6-29 9-27z" fill="#ff0"/>
<path transform="translate(901,806)" d="m0 0 2 2-2 22-4 22-6 22-6 16 1 4 4-9 8-24 5-23 2-16 1-15 2-1v13l-3 23-5 22-11 33 9 10 5-10 7-19 6-22 4-23 1-9 2-1-1 16-5 24-8 26-8 19v5h2l3-9 8-20 7-24 5-28 1-10 2-1-1 15-5 26-7 24-9 22-3 6v8l-2-3-4-8-11-13-7-7-8-7-13-11-30-23 1-2 13 10 14 11 11 9 10 9 5 3 1-5 9-27 4-18 2-8-18 5-38 8-15 2 1-2 37-7 32-8 1-4-30 8-35 7h-5l1-2 40-8 26-7 3-1 1-11 1-2-38 9-27 5h-5l1-2 45-9 23-6z" fill="#2E7C32"/>
<path transform="translate(660,538)" d="m0 0h14v80h-14z" fill="#ff0"/>
<path transform="translate(896,810)" d="m0 0h5l-1 13-10 4-34 8-27 5h-4v-15l38-7 29-7z" fill="#ff0"/>
<path transform="translate(433,808)" d="m0 0 44 11 28 5 3 1 1 15-28-5-31-7-16-5z" fill="#ff0"/>
<path transform="translate(444,725)" d="m0 0 1 2 4 2 15 12 18 13v2l-28 7-27 9-11 5-2-1 4-3 9-4 2-7h1v6l3-1 5-25 5-16z" fill="#2E7C32"/>
<path transform="translate(660,986)" d="m0 0h14v76h-14z" fill="#ff0"/>
<path transform="translate(450,941)" d="m0 0 3 1 10 14 11 13 12 13 14 13 17 13 15 10 18 10 19 9 20 7 17 5 21 4 25 3v4l-17-1-24-4-23-6-22-8-25-12-17-10-14-10-16-13-12-11-9-9-18-22-7-11z" fill="#ff0"/>
<path transform="translate(682,539)" d="m0 0 15 1 24 4 20 5 21 7 20 9 19 10 18 12 7 5v2l5 2 5 4 10 10 9 8 7 8 9 10 8 11-2 1-6-3-7-9-9-10-8-9-8-7-10-9-19-14-15-9-23-12-20-8-24-7-19-4-27-3z" fill="#fe0"/>
<path transform="translate(567,782)" d="m0 0v3l2 15 1 5h-48l-1-4 3-1v-15l-1-2z" fill="#2E7C32"/>
<path transform="translate(640,540)" d="m0 0h12l-1 4-27 3-27 6-24 8-24 11-16 9-15 10-13 10-14 12-16 16-9 11-5 6-4 2-3-1 13-16 9-10 17-17 11-9 15-11 18-11 21-11 23-9 20-6 24-5z" fill="#ff0"/>
<path transform="translate(871,955)" d="m0 0 3 3-2 4-12 14-19 19-7 6h-2v2l-7 5h-2v2l-5 3h-2v2l-3 2h-3v2l-7 4-12 7-16 8-12 5-24 8-17 4-10 2-13 2-17 1v-4l31-4 25-6 24-8 22-10 19-11 12-8 13-10 14-12 17-17 9-11z" fill="#FFF600"/>
<path transform="translate(471,930)" d="m0 0 4 5 13 16 11 12v2l4 2 9 9 14 11 21 14 25 13 24 9 23 6 33 5v4l-15-1-23-4-25-7-20-8-16-8-14-8-16-11-11-9-12-11-14-14-11-14-7-10v-2z" fill="#ff0"/>
<path transform="translate(856,939)" d="m0 0 4 2-6 8-9 11-18 18-11 9-15 11-13 8-23 12-21 8-16 5-24 5-16 2h-6v-4l33-5 23-6 21-8 21-10 18-11 16-12 14-12 14-14 9-11z" fill="#ff0"/>
<path transform="translate(825,640)" d="m0 0 8 1 20 5 24 8 12 6 7 11-1 2-13-5-29-8-27-6-1-1z" fill="#ff0"/>
<path transform="translate(768,663)" d="m0 0h15l-5 7v2l4-6 4-3 5 1 5 5-3-6h14l1 12h2v3h2l-1 5h-47l-1-5h2z" fill="#669F24"/>
<path transform="translate(805,903)" d="m0 0 1 2-10 16-6 8 7 4v2l6 2 7 3v2h-9l-4-2 1 1 2 1v2l-25 4 40-6 35-7 5 1v3l-16 4-34 6-35 5h-7l6-7 11-11 9-11 9-12 6-9z" fill="#307A31"/>
<path transform="translate(592,896)" d="m0 0 6 4 5 2 6 2-1 5-21 21-8 7-2 3-4-1-1-7-7-8 6-7 5-4 3-4 9-1 6 2-4-2-8-1 6-7z" fill="#2E7C32"/>
<path transform="translate(648,663)" d="m0 0h14l-5 8v3l4-8 4-3 5 1 5 5 2 4-2-6-3-4h14l1 1 2 12 3 3-2 4h-46l-2-3 3-3 2-12z" fill="#68A024"/>
<path transform="translate(471,928)" d="m0 0m-2 1h2v2h-3l7 11 9 11 11 12 13 13 11 9 17 12 15 9 16 8 14 6 21 7 22 5 22 3 3 2h-10l-24-4-22-6-19-7-25-12-19-12-13-10-13-11-20-20-11-14-6-8v-2l-13 6 2 5 13 17 9 10 7 8 15 14 17 13 18 12 16 9 20 9 27 9 21 5 21 3 2 2h-8l-23-4-19-5-20-7-18-8-19-10-18-12-14-11-14-12-12-12-7-8-12-15-6-9-2-2 6-5z" fill="#2E7C32"/>
<path transform="translate(756,877)" d="m0 0 4 2v2l4 2v2l3 1 1 2h3l6 6 6-3-2 4-3 2 2 3v1l4 2v2l3 1-1 4-2 2-5 2-3 4v4l-2-1-2-4-28-28 4-1 4-5 2-4z" fill="#3C732E"/>
<path transform="translate(526,663)" d="m0 0h15l-4 5v2l5-6 5-1 7 6 2 6-1-5-3-5-2-2h15l2 12 1 3h2l-1 3h-47l3-9z" fill="#82B01D"/>
<path transform="translate(538,630)" d="m0 0 5 1 5-1h6v6l-3 1 1 6 2-4 1 3h4v-3h2v3l3-1 2-2v5h-12v10l-3-1h-11v-16h-2zm-14 8h15v7l-1 5 1 4 29 1v2h-46l1-3h3l-1-8-1-1z" fill="#9CC117"/>
<path transform="translate(862,678)" d="m0 0h5l6 10-1 3-24 6-19 4h-4v-14l6-2 27-6z" fill="#ff0"/>
<path transform="translate(682,561)" d="m0 0 21 2 24 5 20 6 24 10 19 10 15 10 13 10 4 3v2l-7-1-13-10-19-12-17-9-23-9-20-6-20-4-21-2z" fill="#FFFE00"/>
<path transform="translate(648,561)" d="m0 0h4v4l-32 5-23 6-20 7-23 11-21 13-13 10-1 1h-7l5-5 13-10 18-11 19-10 20-8 19-6 25-5z" fill="#ff0"/>
<path transform="translate(794,638)" d="m0 0h4v2h2v-2h9v7l-1 5v4h3l-1 8h-2l1 4v9h-1l-1-12-13 1 4 6-1 3-4-7-3-2-6 1-4 5-3 3 1-5 4-4-14-1-1 12h-1v-8l1-5h-2l-1-7 1 2h45v-2h-15v-9l-1-1z" fill="#2E7C32"/>
<path transform="translate(835,959)" d="m0 0 2 1-5 5-27 6-35 6-36 4-13 1h-15l4-2 10-3 39-4 39-6z" fill="#ff0"/>
<path transform="translate(686,544)" d="m0 0 16 1 22 4 25 7 21 8 22 11 21 13 13 10 13 11 14 13 7 8 11 13v2l7 2-10-13-11-12-7-8-5-4-2-4 4 2 15 15 9 11 11 14v2l5 2 5 4-1 2-5-4-18-8-23-7v-2l10 2 13 4-12-14-10-11-8-7-14-12-17-12-15-9-15-8-27-11-25-7-21-4-18-2z" fill="#2E7C32"/>
<path transform="translate(496,958)" d="m0 0 19 4 31 6 34 5 30 3 18 5v1l-21-1-44-5-35-6-27-6z" fill="#ff0"/>
<path transform="translate(824,847)" d="m0 0 5 2 18 14 14 11 14 12 13 12 9 10 5 8 1 8h-3l-5-10-12-14-13-12-11-9-15-12-19-14-1-1z" fill="#ff0"/>
<path transform="translate(825,751)" d="m0 0 10 1 31 7 24 7 19 7 15 8 8 7-1 4-13-9-15-7-27-9-32-8-19-4z" fill="#ff0"/>
<path transform="translate(825,773)" d="m0 0 22 4 36 9 23 8 19 10 6 5 1 5-4-2-11-7-15-7-27-9-38-9-11-2z" fill="#ff0"/>
<path transform="translate(502,751)" d="m0 0h6v4l-38 8-31 9-20 8-12 7-5 3 1-5 9-7 18-8 27-9 34-8z" fill="#ff0"/>
<path transform="translate(848,947)" d="m0 0v3l-14 15-10 10-2-1 6-6-26 5-36 6-39 4-34 2h-10l1-2 13-2h5v2l4-1 38-3 33-4 43-8 12-3 3-4-37 8-39 6-8 1h-9l2-2 38-5 36-7 21-5h2l2-4z" fill="#2E7C32"/>
<path transform="translate(505,773)" d="m0 0h3v4l-43 10-24 7-21 8-11 6-7 5 1-6 10-7 18-8 28-9 34-8z" fill="#ff0"/>
<path transform="translate(639,544)" d="m0 0h10l-1 2-25 3-23 5-30 10-29 14-16 10-14 10-11 9-12 11-12 12-9 11-2 3 11-4 14-4 16-16v3l-11 11 2 1v2l-25 7-11 4-2-1 12-14 11-12 13-13 11-9 16-12 18-11 19-10 20-8 18-6 27-6z" fill="#2E7C32"/>
<path transform="translate(430,799)" d="m0 0h1l3 33 5 26 10 30 6 13v3l-3 1-8-16-9-27-5-23-2-14-1-13v-12z" fill="#ff0"/>
<path transform="translate(864,670)" d="m0 0 6 2 12 21 10 23 8 26 4 19 1 9-5-2-5-26-10-30-7-16-12-21z" fill="#ff0"/>
<path transform="translate(408,810)" d="m0 0h1l4 32 5 23 6 20 10 24 2 5-4 2-8-17-8-22-6-24-4-25-1-15z" fill="#ff0"/>
<path transform="translate(895,680)" d="m0 0 6 3 9 19 10 30 5 23 3 23-1 4-4-4-3-23-6-26-9-26-10-21z" fill="#ff0"/>
<path transform="translate(672,652)" d="m0 0 1 2 2-1 12-1v2l4 1-2 7v14l-2-3-1-9h-13l4 5 1 6-2-2-4-7-3-2-6 1-4 6-2 5h-1l1-7 4-5-13-1-1 11-2 3v-15l-2-6 2-1v2h44v-2h-29l1-2z" fill="#43892C"/>
<path transform="translate(924,811)" d="m0 0 4 2v9l-3 23-5 22-7 23-10 23h-2l-1-5 10-25 7-24 4-20z" fill="#ff0"/>
<path transform="translate(430,797)" d="m0 0m-3 1h3v2h-3l3 33 5 25 7 23 9 21 2 5-11 5-2-1 8-5h2l-9-20-8-25-5-23-2-16v-20l-15 6 3 30 5 24 6 20 6 16-1 3-4-8-8-24-5-21-3-20-2-19 6-5z" fill="#2E7C32"/>
<path transform="translate(810,895)" d="m0 0 4 1 12 9 13 10 11 9 15 13 7 7 7 10v6l-3 2-3-8-9-10-12-12-11-9-16-13-16-12z" fill="#ff0"/>
<path transform="translate(517,887)" d="m0 0h3l1 4-32 8-30 10-16 8-8 6-3 1-1-4 9-8 20-9 28-9 24-6z" fill="#ff0"/>
<path transform="translate(476,933)" d="m0 0 26 5 38 7 26 4 5 5-20-2-37-6-34-7-4-4z" fill="#ff0"/>
<path transform="translate(527,908)" d="m0 0 4 1 1 3-44 11-22 8-15 8-5 5h-2l-1-4 8-7 16-8 20-7 26-7z" fill="#ff0"/>
<path transform="translate(850,935)" d="m0 0 5 1v3l-16 4-34 6-35 5h-7l4-4 8-2 40-6z" fill="#ff0"/>
<path transform="translate(780,752)" d="m0 0h15v15l1 1v8h-2v-6h-2v-10l-8 1-1 12-2 3h-12l-1-1v-7h-2v-8l5 1 5-1 4-1z" fill="#2E7C32"/>
<path transform="translate(903,800)" d="m0 0 4 2-1 20-4 27-6 22-8 22-2 2-2-2 1-6 7-19 6-25 3-21 1-18z" fill="#ff0"/>
<path transform="translate(426,689)" d="m0 0h12l19 5 25 9 25 11 1 5-9-3-24-10-20-7-19-5-12-1z" fill="#ff0"/>
<path transform="translate(538,752)" d="m0 0h4v2h2v-2h10v6l-1 1-1 7h-2v-6h-8l-1 15-3 1v-3h-2v3h-9l-1-1-1-7-1-1v-7l5 1 5-1 4-1z" fill="#2E7C32"/>
<path transform="translate(825,661)" d="m0 0 12 2 22 5 2 1v2l-28 7-8 1z" fill="#FF3400"/>
<path transform="translate(505,640)" d="m0 0h3v13l-17 4-11-3-10-3 1-2 26-7z" fill="#ff0"/>
<path transform="translate(427,694)" d="m0 0h4l-1 6-6 15-7 23-5 26-2 14-4 2v-9l4-25 6-23 7-20z" fill="#ff0"/>
<path transform="translate(676,535)" d="m0 0h4v83h-4z" fill="#ff0"/>
<path transform="translate(654,535)" d="m0 0h4v83h-4z" fill="#ff0"/>
<path transform="translate(433,802)" d="m0 0 41 10 31 6 3 1v4l-16-2-33-7-25-7z" fill="#ff0"/>
<path transform="translate(434,825)" d="m0 0 47 11 27 5 1 5-30-5-30-7-14-4z" fill="#ff0"/>
<path transform="translate(898,803)" d="m0 0h3l-1 5-32 8-37 7h-6v-4l33-6z" fill="#ff0"/>
<path transform="translate(676,986)" d="m0 0h4v79h-4z" fill="#ff0"/>
<path transform="translate(654,986)" d="m0 0h4v79h-4z" fill="#ff0"/>
<path transform="translate(825,656)" d="m0 0 11 1 40 10 20 7 6 4 2 4-9-3-16-6-30-8-23-5z" fill="#ff0"/>
<path transform="translate(896,826)" d="m0 0h3l-1 5-32 8-38 7-3-1v-3l25-5 27-6z" fill="#ff0"/>
<path transform="translate(590,888)" d="m0 0 3 3 2 5 6 5h-3l-6-4-9 9 10 2 2 3-7-2-9 1-2 8-2-4-9 9 3 4-1 2-4-4-7-3 1-3v2l8-7 23-23z" fill="#6DA322"/>
<path transform="translate(449,699)" d="m0 0h4l-1 6-8 20-6 21-4 21-5 2 3-19 6-23 8-21z" fill="#ff0"/>
<path transform="translate(766,638)" d="m0 0h15v7l-3 8h-10l-1-7-1-1zm1 15m-2 1 45 1v2h-45z" fill="#98BE18"/>
<path transform="translate(820,863)" d="m0 0h1l-1 8-6 18-1 4 21 16 14 11 15 13 12 12 5 7 12-18 2-1-2 5-10 16-1 5h-2l-2-7-9-11-7-7-11-9-13-11-24-18-3-1v2h-2l11-33z" fill="#2E7C32"/>
<path transform="translate(448,650)" d="m0 0h13l23 6 24 9v5l-17-6-21-7-9-2-17-1 1-3z" fill="#ff0"/>
<path transform="translate(825,634)" d="m0 0 8 1 26 7 21 8 9 5 2 4-25-10-29-8-12-3z" fill="#ff0"/>
<path transform="translate(742,888)" d="m0 0 4 2 29 29-2 5-3-1-7-8-20-20-3-1z" fill="#8DB71B"/>
<path transform="translate(768,890)" d="m0 0 4 1 3 3-2 4-3 4 2-1v4l4 2 3 3-2 4-3 2-6-7v-1l-2 1v-3l-4-2-4-5z" fill="#E8D305"/>
<path transform="translate(538,630)" d="m0 0 5 1 5-1h6v6l-3 1 1 6 2-4 1 3h4v-3h2v3l3-1 2-2v5h-12v10h-2l-2-3v-13l-8 1-1 13h-1v-15h-2z" fill="#4C6A2A"/>
<path transform="translate(871,692)" d="m0 0h4l1 4-32 8-15 3h-4v-4l43-10z" fill="#ff0"/>
<path transform="translate(552,638)" d="m0 0h4v2h2v-2h10v6l-1 1-1 9h3l-1 2-29-1 1-2 12-1v2h2v-10h12l-1-3-4 1v-3h-2v3h-4l-1-2-2 3z" fill="#2E7C32"/>
<path transform="translate(446,722)" d="m0 0 4 2 17 14 18 13 1 2-5 1-14-10-13-10-9-7z" fill="#ff0"/>
<path transform="translate(768,660)" d="m0 0h42v2h-2l1 4v9h-1l-1-12-13 1 4 6-1 3-4-7-3-2-6 1-4 5-3 3 1-5 4-4-14-1-1 12h-1v-8z" fill="#2E7C32"/>
<path transform="translate(794,760)" d="m0 0h4v2h2v-2h9v8h-2l-1 8h-9l-1-1-1-7-1-1z" fill="#2E7C32"/>
<path transform="translate(780,752)" d="m0 0h15v15l1 1v8h-2v-6h-2v-10l-8 1-1 12-2 3h-2v-8h2z" fill="#2E7C32"/>
<path transform="translate(505,634)" d="m0 0h3v4l-15 4-25 7h-9l2-2 24-8z" fill="#ff0"/>
<path transform="translate(538,752)" d="m0 0h4v2h2v-2h10v6l-1 1-1 7h-2v-6h-8l-1 15-3 1-1-8h2z" fill="#40712D"/>
<path transform="translate(860,672)" d="m0 0 4 1 1 3-19 5-21 4 1-5 27-6z" fill="#ff0"/>
<path transform="translate(783,935)" d="m0 0 6 2 11 5v2l-21 3h-7l6-7z" fill="#FF3100"/>
<path transform="translate(797,933)" d="m0 0 12 5 7 2 30-6h4v2l-35 7-40 6-3-1 7-2 15-2h6v-2l-4-1 1-2 4 2 9 1v-2l-9-3-4-2z" fill="#2E7C32"/>
<path transform="translate(740,896)" d="m0 0 4 2 8 8v1l-9 1-6 3-4-2-3-3 1-3z" fill="#ff0"/>
<path transform="translate(768,785)" d="m0 0h16l-5 6-3 9h-9v-8z" fill="#ff0"/>
<path transform="translate(550,785)" d="m0 0h15l2 14-1 1h-8l-4-10z" fill="#ff0"/>
<path transform="translate(526,785)" d="m0 0h15l-5 8-2 7h-9z" fill="#ff0"/>
<path transform="translate(792,785)" d="m0 0h15l1 6v9h-9l-3-10z" fill="#ff0"/>
<path transform="translate(758,913)" d="m0 0 7 6 3 3-2 5-6 7-4-2-3-3 2-5z" fill="#ff0"/>
<path transform="translate(592,896)" d="m0 0 6 4 5 4-2 4-3 3-5-2-11-2 6-7z" fill="#ff0"/>
<path transform="translate(575,913)" d="m0 0h1l2 10 3 5-6 6h-2l-8-10 6-7z" fill="#ff0"/>
<path transform="translate(550,663)" d="m0 0h15l2 12v2h-10l-3-9z" fill="#ff0"/>
<path transform="translate(768,663)" d="m0 0h15l-5 7-2 7h-9v-8z" fill="#ff0"/>
<path transform="translate(526,663)" d="m0 0h15l-4 5-3 9h-9z" fill="#ff0"/>
<path transform="translate(672,663)" d="m0 0h14l1 1 1 13h-9l-4-10z" fill="#ff0"/>
<path transform="translate(648,663)" d="m0 0h14l-5 8-1 6h-10l1-12z" fill="#ff0"/>
<path transform="translate(740,894)" d="m0 0 4 1 26 26 1 3-5 3 1-5-8-8-3 10h-3l2-4v-8l-1-2-9-1-5 1 3-3 8-1-9-9-6 2z" fill="#2E7C32"/>
<path transform="translate(793,663)" d="m0 0h14l1 6v8h-9l-4-11z" fill="#ff0"/>
<path transform="translate(764,655)" d="m0 0 1 2 46-1-2 5h-41l-3 1z" fill="#6EA422"/>
<path transform="translate(542,760)" d="m0 0h8l1 16h-10v-14z" fill="#EAF204"/>
<path transform="translate(784,760)" d="m0 0h8v16h-9v-15z" fill="#E9F105"/>
<path transform="translate(563,890)" d="m0 0 4 1 8 8-2 4-3 3-4-2-8-8z" fill="#EDF304"/>
<path transform="translate(523,801)" d="m0 0h46v3h-46z" fill="#ff0"/>
<path transform="translate(765,801)" d="m0 0h45l1 3h-46z" fill="#ff0"/>
<path transform="translate(663,638)" d="m0 0h8l1 6v9h-10v-8z" fill="#ECF304"/>
<path transform="translate(542,638)" d="m0 0h8l1 15h-10v-14z" fill="#E9F105"/>
<path transform="translate(783,638)" d="m0 0h9v15h-9z" fill="#E6EF05"/>
<path transform="translate(592,894)" d="m0 0 8 6 1 2-4-2-5-3-9 9 10 2 2 3-7-2-9 1-2 8-2-4-9 9 3 4-1 2-5-6z" fill="#2E7C32"/>
<path transform="translate(552,760)" d="m0 0h4v2h2v-2h4v3l3 1 1-2v5h-12l-2-1zm-2 6 4 2v8l-3-1-1-2z" fill="#675A24"/>
<path transform="translate(606,905)" d="m0 0h2l-2 4-19 19-7 8-3 3-3-1 6-7z" fill="#ff0"/>
<path transform="translate(560,881)" d="m0 0 4 2 1 4-9 9-4-1-2-4 4-2 2-4h2z" fill="#317931"/>
<path transform="translate(545,785)" d="m0 0 5 2 4 5 2 5v3h-3l-5-10-5 1-3 5-1 4h-3l1-8 4-5z" fill="#ff0"/>
<path transform="translate(582,908)" d="m0 0 9 1 5 3-1 3-5-2-9-1 1 9 2 5h-3l-4-8 1-8z" fill="#ff0"/>
<path transform="translate(787,785)" d="m0 0 5 2 4 5 1 2v6l-3-1-3-8-5-1-4 5-1 5h-3v-6l4-6z" fill="#ff0"/>
<path transform="translate(665,663)" d="m0 0 5 1 5 5 2 4v4h-3l-4-8-4-2-4 4-2 6h-3l1-6 4-6z" fill="#ff0"/>
<path transform="translate(745,908)" d="m0 0 9 1 2 3v8l-4 7-3-3 3-5v-6l-1-1-8 1-4 2-2-3z" fill="#ff0"/>
<path transform="translate(726,905)" d="m0 0 7 6 26 26v2l-4-2-30-30z" fill="#ff0"/>
<path transform="translate(787,931)" d="m0 0 5 1 18 8v2h-9l-16-8z" fill="#ff0"/>
<path transform="translate(786,663)" d="m0 0 5 1 5 5 1 8h-3l-2-7-3-3-5 2-3 8h-3l1-7 5-6z" fill="#ff0"/>
<path transform="translate(544,663)" d="m0 0 5 1 6 7 1 6-4-1-3-7-4-2-4 4-2 6h-3l1-7 5-6z" fill="#ff0"/>
<path transform="translate(743,889)" d="m0 0 4 2 28 28v2l-4-2-28-28z" fill="#ff0"/>
<path transform="translate(588,889)" d="m0 0h2l-2 4-28 28h-2l2-4z" fill="#ff0"/>
<path transform="translate(727,972)" d="m0 0m-3 1h3v2l7-1h8v2l-22 2-10 3h-4v2h-4l1-3z" fill="#2E7C32"/>
<path transform="translate(524,638)" d="m0 0h15v5l-1 1h-14z" fill="#2E7C32"/>
<path transform="translate(872,962)" d="m0 0v3l-2-1zm-3 3m-1 1v3l-9 10-19 19-6 5h-2v-2l11-9 19-19z" fill="#2E7C32"/>
<path transform="translate(545,790)" d="m0 0 4 2 2 4v4h-10l1-7z" fill="#ff0"/>
<path transform="translate(787,790)" d="m0 0 3 1 3 6v3h-10l-1-2 3-6z" fill="#ff0"/>
<path transform="translate(559,905)" d="m0 0 4 2 2 4-5 5-4-2-2-4z" fill="#E4EE06"/>
<path transform="translate(579,885)" d="m0 0 4 2 2 4-5 5-4-2-2-4z" fill="#E4EE06"/>
<path transform="translate(798,768)" d="m0 0h8v8h-9v-7z" fill="#DEEA07"/>
<path transform="translate(770,768)" d="m0 0h8v8h-9v-7z" fill="#DBE808"/>
<path transform="translate(556,768)" d="m0 0h8v8h-9v-7z" fill="#E7F005"/>
<path transform="translate(528,768)" d="m0 0h8v8h-9v-7z" fill="#DBE808"/>
<path transform="translate(786,668)" d="m0 0 4 1 3 6v2h-11l2-7z" fill="#ff0"/>
<path transform="translate(825,621)" d="m0 0 5 3 10 10-3 1-5-2-7-7z" fill="#ff0"/>
<path transform="translate(745,913)" d="m0 0h6v7l-2 3-4-2-4-4v-2z" fill="#ff0"/>
<path transform="translate(582,913)" d="m0 0h7l3 2-2 4-4 4h-2l-2-4z" fill="#ff0"/>
<path transform="translate(906,777)" d="m0 0 6 2 11 6 9 6h1v5l-4 1-2-6-11-7-10-5z" fill="#317D31"/>
<path transform="translate(666,668)" d="m0 0 4 2 2 3v4h-10l1-6z" fill="#ff0"/>
<path transform="translate(544,668)" d="m0 0 4 1 3 5v3h-10l1-6z" fill="#ff0"/>
<path transform="translate(792,648)" d="m0 0h2l1 7h-28l1-2 11-1h2l2-1v2h9z" fill="#2E7C32"/>
<path transform="translate(507,621)" d="m0 0h1v6l-7 7-7 1 6-7z" fill="#ff0"/>
<path transform="translate(805,903)" d="m0 0 1 2-10 16-6 7h-2l2-4 10-14 4-6z" fill="#2E7C32"/>
<path transform="translate(772,905)" d="m0 0 4 2 3 3-2 4-3 2-6-7z" fill="#E2EC06"/>
<path transform="translate(797,646)" d="m0 0h9v7h-9z" fill="#DAE808"/>
<path transform="translate(769,646)" d="m0 0h9v7h-9z" fill="#DAE808"/>
<path transform="translate(649,646)" d="m0 0h8l1 7h-10v-6z" fill="#DDEA07"/>
<path transform="translate(555,646)" d="m0 0h9v7h-9z" fill="#DDEA07"/>
<path transform="translate(527,646)" d="m0 0h9v7h-9z" fill="#D7E609"/>
<path transform="translate(677,646)" d="m0 0h8l1 7h-10z" fill="#C3D90E"/>
<path transform="translate(753,885)" d="m0 0 6 5-2 4-3 2-6-7z" fill="#D5E509"/>
<path transform="translate(900,675)" d="m0 0 5 4 3 5v2l-2 1v5l-3-3-3-6-4-2v-2l7 2-3-4z" fill="#348030"/>
<path transform="translate(655,874)" d="m0 0 5 1 1 4-2 3h-5l-2-5z" fill="#fff"/>
<path transform="translate(665,863)" d="m0 0h5l2 5-2 3-6-1-1-4z" fill="#fff"/>
<path transform="translate(677,874)" d="m0 0 5 1 1 4-2 3-6-1-1-4z" fill="#fff"/>
<path transform="translate(709,806)" d="m0 0h5l2 5-3 3-5-1-1-4z" fill="#fff"/>
<path transform="translate(676,806)" d="m0 0h5l2 5-3 3-5-1-1-4z" fill="#fff"/>
<path transform="translate(654,806)" d="m0 0h5l2 5-3 3-5-1-1-4z" fill="#fff"/>
<path transform="translate(665,795)" d="m0 0h5l2 5-3 3-5-1-1-4z" fill="#fff"/>
<path transform="translate(677,737)" d="m0 0 5 1 1 4-2 3h-5l-2-5z" fill="#fff"/>
<path transform="translate(655,737)" d="m0 0 5 1 1 4-2 3h-5l-2-5z" fill="#fff"/>
<path transform="translate(666,726)" d="m0 0 5 1 1 4-2 3h-5l-2-5z" fill="#fff"/>
<path transform="translate(677,852)" d="m0 0 4 1 2 2-1 4-4 2-4-4z" fill="#fff"/>
<path transform="translate(599,806)" d="m0 0h5l1 1v5l-2 2-5-1-1-5z" fill="#fff"/>
<path transform="translate(720,795)" d="m0 0h5l2 5-3 3-4-1-2-4z" fill="#fff"/>
<path transform="translate(677,784)" d="m0 0 5 1 1 5-2 2h-5l-2-4z" fill="#fff"/>
<path transform="translate(655,784)" d="m0 0 5 1 1 4-2 3h-5l-2-5z" fill="#fff"/>
<path transform="translate(622,784)" d="m0 0 4 1 2 4-2 3h-5l-2-2 1-5z" fill="#fff"/>
<path transform="translate(678,715)" d="m0 0 5 3-1 4-2 2-4-1-2-4z" fill="#fff"/>
<path transform="translate(656,715)" d="m0 0 5 3-1 4-2 2-4-1-2-4z" fill="#fff"/>
<path transform="translate(655,852)" d="m0 0 4 1 2 4-4 4-4-2-1-3z" fill="#fff"/>
<path transform="translate(731,806)" d="m0 0h5l2 5-3 3-4-1-2-4z" fill="#fff"/>
<path transform="translate(621,806)" d="m0 0h5l2 4-3 4-5-1-1-4z" fill="#fff"/>
<path transform="translate(610,795)" d="m0 0h5l1 1v5l-2 2-5-1-1-5z" fill="#fff"/>
<path transform="translate(732,784)" d="m0 0 5 1 1 5-2 2h-5l-1-1v-5z" fill="#fff"/>
<path transform="translate(710,784)" d="m0 0 5 1 1 4-2 3h-5l-2-4z" fill="#fff"/>
<path transform="translate(600,784)" d="m0 0 4 1 1 1v5l-1 1h-5l-2-2 1-5z" fill="#fff"/>
<path transform="translate(772,883)" d="m0 0 2 1v3l4 1v3l4 1-3 3-4-2-6-7z" fill="#ff0"/>
<path transform="translate(560,883)" d="m0 0 4 2-2 4-6 6-4-2v-2l4-1v-3l4-1z" fill="#ff0"/>
<path transform="translate(795,762)" d="m0 0h2v2h4v-2h2v2h3v-2h2v5h-12z" fill="#ff0"/>
<path transform="translate(767,762)" d="m0 0h2v2h4l1-2v2h4v-2h2v5h-13z" fill="#ff0"/>
<path transform="translate(525,762)" d="m0 0h2v2h4l1-2 4 2v-2h2v5h-12z" fill="#ff0"/>
<path transform="translate(661,631)" d="m0 0 1 2h4v-2h2v2h4v-2h2v5h-13z" fill="#ff0"/>
<path transform="translate(781,631)" d="m0 0h2v2h4l1-2v2h4v-2h2v5h-13z" fill="#ff0"/>
<path transform="translate(539,631)" d="m0 0h2v2h4v-2h2v2h4l1-2v5h-13z" fill="#ff0"/>
<path transform="translate(556,899)" d="m0 0 4 2-2 4-7 6-3-2v-2l4-1v-3l4-1z" fill="#ff0"/>
<path transform="translate(553,762)" d="m0 0h2v2h4v-2h2v2h4l1-2v5h-12z" fill="#ff0"/>
<path transform="translate(505,655)" d="m0 0h3v4l-8 2-6-2 1-2z" fill="#ff0"/>
<path transform="translate(769,888)" d="m0 0 4 2 4 4 6-3-2 4-5 1-2 4-6 4 2-4 4-4-2-4-4-3z" fill="#3F712D"/>
<path transform="translate(818,586)" d="m0 0 5 2 17 14 3 4-4-2-3-2v-2l-4-2-6-4v-2l-4-2z" fill="#2E7C32"/>
<path transform="translate(576,879)" d="m0 0 4 4-8 8-4-2v-2l4-1 1-3 3-1z" fill="#ff0"/>
<path transform="translate(756,879)" d="m0 0 2 1 1 3 3 1 1 3 3 1-4 3-8-8z" fill="#ff0"/>
<path transform="translate(780,752)" d="m0 0h15v5l-2-3-1 2-5-1-4 1v-3h-2v5h-1z" fill="#2E7C32"/>
<path transform="translate(795,639)" d="m0 0h2v3l3-1 2-2 1 3h3l1-3h1v5h-13z" fill="#ff0"/>
<path transform="translate(767,639)" d="m0 0h2v3l3-1 2-2 1 2 3 1v-3h2v5h-13z" fill="#ff0"/>
<path transform="translate(781,753)" d="m0 0h2v3l3-1 2-2 1 2 3 1 1-3h1v5h-13z" fill="#ff0"/>
<path transform="translate(539,753)" d="m0 0h2v3h4v-3h2v3l3-1 2-2v5h-13z" fill="#ff0"/>
<path transform="translate(525,639)" d="m0 0h2v3l3-1 2-2 1 2 3 1 1-3h1v5h-13z" fill="#ff0"/>
<path transform="translate(776,899)" d="m0 0 2 1v3l4 1v3l4 1-4 3-8-8z" fill="#ff0"/>
<path transform="translate(554,639)" d="m0 0 1 3h4v-3h2v3l3-1 2-2v5h-13z" fill="#ff0"/>
<path transform="translate(675,639)" d="m0 0 5 3v-3h2v3l3-1 2-2v5h-12z" fill="#ff0"/>
<path transform="translate(647,639)" d="m0 0 5 3v-3h2v3l3-1 2-2v5h-12z" fill="#ff0"/>
<path transform="translate(538,752)" d="m0 0h4v2h2v-2h8l-2 4h-3v-3h-2v3h-4v-3h-2v5h-1z" fill="#2E7C32"/>
<path transform="translate(556,897)" d="m0 0 2 2h-2l1 3-3 2-2-1 1 3-3 2-2-1-1 2v-3l3-1 2-4h2z" fill="#337830"/>
<path transform="translate(781,760)" d="m0 0h1v13l-1 3h-2v-8h2z" fill="#f00"/>
<path transform="translate(539,760)" d="m0 0h1v16h-2l-1-8h2z" fill="#f00"/>
<path transform="translate(713,977)" d="m0 0m-4 1h4v2l-7 1v2h-4l1-3z" fill="#4C8F2A"/>
<path transform="translate(793,760)" d="m0 0h1l1 7 1 1v8h-2l-1-6z" fill="#f00"/>
<path transform="translate(682,646)" d="m0 0h3l1 7h-5z" fill="#ff0"/>
</svg>
