<?xml version="1.0" encoding="UTF-8"?>
<svg version="1.1" viewBox="0 0 1600 1600" width="1280" height="1280" xmlns="http://www.w3.org/2000/svg">
<path transform="translate(67,300)" d="m0 0h1466l1 267v466l-1 267h-1466l-1-267v-466z" fill="#FDBF07"/>
<path transform="translate(67,1033)" d="m0 0h1466v267h-1466z" fill="#DC2C00"/>
<path transform="translate(67,300)" d="m0 0h1466v267h-1466z" fill="#DC2C00"/>
<path transform="translate(499,705)" d="m0 0 8 5h10l6-3 5 4 9 1 9-4 4 5 4 2h9l4-1 4 5 5 1-1 5-6 1 2 5-4 2 1 8-7 3-9 2 55 1v70l13-3 9-1h11v-37h1v37h10l14 2v-39h1v40h3v-40h1v41l7 1 12 5 9 6 2 3-1 7-7 16-6 4-12 2v-21l-3-1-1 39 6 1 11 5 9 6 1 4-3 16-6 5-3 7-4-4-1-7 3-9-21-8-22-10v-2l-5-2-9-7-1-1v-11l2-10 10-4h3v-13l-20 2-12 3-1 105-4 13-6 10-6 7-10 7-18 8-3-1-17-1-15-5-10-7-6-5-7-10-5-12-5 13-8 10-9 8-10 5-11 3-13 1h-8l-15-6-11-8-7-7-6-10-3-9-1-6-1-103-13-3-19-2v13l7 1 6 3 2 13v8l-8 7-5 3h-2l-1 3-4 1-2 2h-2l-2 2-9 3-13 5-9 4h-2l3 5 1 7-3 7-2 1-3-7-6-5-3-16 1-4 9-6 35-15 1-35-13 3-10 3v21l-13-2-5-4-8-19 1-5 5-5 14-7 10-3 11-2h8v-38h1v37h3v-37h1v37h5v-37h1v37h11l19 3 3 1v-69l1-1 53-1-14-4-1-5 1-5-4-1 1-5-6-2-1-4 7-2 4-4 3 1h8l6-4 4-3 4 3 9 1 8-4 4 1 2 1h10l6-4z" fill="#AE1818"/>
<path transform="translate(501,749)" d="m0 0h105v116h-71l-2-12-6-12-6-7-12-6-8-2z" fill="#CBC5C5"/>
<path transform="translate(490,647)" d="m0 0h1v13l-1 10 6 6-1 2-3-1 3 10 7-1 2 1 3-10-4 1v-3l6-5-1-8v-10h1v6l13 1 27 8-3 5 2 4 2 1-1-6 3-2v4 2h4l-3-4h3l1-2 3-1h13l14 4 11 6v4l1 4 3 4 1-4 2 1 1 6 3 1h-2l-1 2v-2h-8l-5 1-1 2v6l4 1-1 5-2 2-5 1v-3l-10 7h-7l-2-2v-4l-6 3h-8l-4-2-3-6v-4l-2-1-3 6-3 3-8 1-6-3-3-5-7 6h-7l-6-4-2-5v-3h-3l-1 7-4 4-9 1-6-4-1-4v-4h-2l-1 4h2l-1 5-5 4-7 1-6-3-3-6-3-1v7l-4 5-2 1h-8l-6-3-2 5-1 1h-6l-10-6-5 1-3-3v-4h4l-1-10-4 1-8-2 1-2h2l2-5 1-4-2-4 15-7 11-3 14-1 1 2h3v2l3 1-3 3h4v-4-3l3 3-1 5 2 1 2-6-3-2v-2l15-5 11-3 6-1h8z" fill="#AD171A"/>
<path transform="translate(496,600)" d="m0 0h7v4l5 1v5h-5v7l4 2 2 3v7l-2 3 3 1-1 4-1-3-2-1v4l3 1 4-2v-3l3 1 1-3v4l10-1 5-4 2 4h7v2l4 1-2 1 7 2 1 3 2-2v3l3 1h4l5-4h2l1 2h2l2-2v4l13 2 4-2v3l3-2 2-1-1 4-2 1 4 2 1-4 2 3 2-3-1 5-1 1 2 1 1-2 1 2h2l2-2v8l4-1v2l3 2-3 2 3 2 2 3h-4l3 4h-3l-1 2 2 1-1 3 4-1v2h-3v2h-3l-1 3-1-1-2 2h-2l-1 3-3-3-2-3 1-6-14-7-11-3h-13l-5 3 1 3h-4v-2l-2-1v2 3l-3-1-2-5 3-3-22-7-17-3 1 12-5 5h-2v3l4-1-1 6-2 4h-9l-3-10 3-1-6-6 1-12-18 3-9 3-11 3h-2l4 5-3 5-3-1 1-5h-1l1 2h-2v2h-4v-4l-5-3-18 2-15 6-3 2h-3l3 4-1 4-3 5-2 1 7 2 2-1 3 3v8l-5 1-5-5-6-1v-4l-3-1 1-2 3 1v-3l-6-1-1-2h3l1-3h-3v-2l-4-1 1-3 1 2 3 1v-6l-4-1 3-1 1-2h2v-3l-4-1 3-2 1-4h3l1-3v2h2l2-6h3l2-6 1 4 4-2-1-2 9-1 5-1h23l-1-2h3l1-2 1-1 3-1 1-3v3l9-5 3-3 4-1 4 2 1-3 3 1 3 3h-6l11 1 3-2 5-1-2-3v-7l4-5h2v-6l-5-1v-5l5-1z" fill="#C8A618"/>
<path transform="translate(534,876)" d="m0 0h7v3h7v-2l2-1h6l2 2h6l1-2h10l1 3 7-1 2-2h6l3 3v5l-4 2v9l4 1v10l-3 1v8l3 3v5l-4 2v6l4 1-1 10-3 1-1 9-1 6-8 3-3 3-1 5-5 3-8-1-4 1-4 4-6-1-2-3-8-1-4 1-6-3-2-6-3-3-6-2-1-1v-9l-2-5-3-1v-10l2-1 1-6-3-1-1-5 3-4 1-9h-3v-4l4-1v3l2-1 1-5 4-2v10l-3 1v8l3 3h6l1-3h11l1 3 5 1-4-6-5-4-5-1-4-5v-5l-3-4 2-4 5 5 6 2 5 6v4l6 7 1-12-4-1v-10l3-1-1-4-2-2h-5l-2 3h-9l-1-2 3-4v2h5v-3h-5z" fill="#C7A501"/>
<path transform="translate(640,776)" d="m0 0h1v37h10l14 2v-39h1v40h3v-40h1v41l7 1 12 5 9 6 2 3-1 7-7 16-6 4-12 2v-21l-3-1-1 39 6 1 11 5 9 6 1 4-3 16-6 5-3 7-4-4-1-7 3-9-21-8-22-10v-2l-5-2-9-7-1-1v-11l2-10 10-4h3v-13l-20 2-14 3v-22l14-3 9-1h11z" fill="#B01717"/>
<path transform="translate(499,705)" d="m0 0 8 5h10l6-3 5 4 9 1 9-4 4 5 4 2h9l4-1 4 5 5 1-1 5-6 1 2 5-4 2 1 8-7 3-9 2 55 1v1h-213v-1l53-1-14-4-1-5 1-5-4-1 1-5-6-2-1-4 7-2 4-4 3 1h8l6-4 4-3 4 3 9 1 8-4 4 1 2 1h10l6-4z" fill="#C38B0C"/>
<path transform="translate(636,955)" d="m0 0h44l2 1 1 12 8 2v26h-7l-5-2h-10l-5 2h-12l-6-2h-10l-5 2h-7v-26l9-1v-13z" fill="#AD1519"/>
<path transform="translate(320,955)" d="m0 0h44l3 1v13l9 1v26h-7l-5-2h-10l-6 2h-12l-5-2h-10l-5 2h-7v-26l8-2 1-12z" fill="#AD1519"/>
<path transform="translate(500,946)" d="m0 0 2 4 4 10 8 11 12 9 13 5 4 1 19 1-2 2-21 6-17 3-10 1h-23l-22-3-20-5-9-3v-1h12l15-3 9-4 6-4 9-8 6-9z" fill="#CBCACA"/>
<path transform="translate(422,787)" d="m0 0h5v6l1-1v-5h38v9l-1 2-3 1-1 3h-6v-3l-4-2-1 1 4 1v3l5 1 4-1v-3h10v3h-4v4h-4l-3 1 3 3 1 8h3v8l-1 4 1 3h-3l1 5v-4h6l-1 5 2 1-3 5h-13v-3l5-1v-3l-1 3-4-1 1-2v-4l-4-1-1-2-1 5-2 1-2-2-4-1v2h-4l-1 3h-4v-3l-1 4 2 1h-4v-3h-4v-4l4-1v-2l-4-1v-3l3-1h-6v-4l2-1 1-11h-3v-11l-3-1h5v-3h-5l-1-5z" fill="#B3391A"/>
<path transform="translate(531,630)" d="m0 0 3 2v2h7v2l4 1-2 1 7 2 1 3 2-2v3l3 1h4l5-4h2l1 2h2l2-2v4l13 2 4-2v3l3-2 2-1-1 4-2 1 4 2 1-4 2 3 2-3-1 5-1 1 2 1 1-2 1 2h2l2-2v8l4-1v2l3 2-3 2 3 2 2 3h-4l3 4h-3l-1 2 2 1-1 3 4-1v2h-3v2h-3l-1 3-1-1-2 2h-2l-1 3-3-3-2-3 1-6-14-7-11-3h-13l-5 3 1 3h-4v-2l-2-1v2 3l-3-1-2-5 3-3-2-2h4l1-10-2-6-4-5-10-4h-18l-8 3-2 4v-9l6-3v-3l3 1 1-3v4l10-1z" fill="#C38905"/>
<path transform="translate(640,884)" d="m0 0 5 1 17 8 13 5v47h-35z" fill="#ccc"/>
<path transform="translate(357,884)" d="m0 0 3 1v60h-35v-46l5-3 17-7 6-2z" fill="#ccc"/>
<path transform="translate(640,835)" d="m0 0h1v29l5 2 19 9v-37h1v38h2l1-37h1v39l6 1 11 5 9 6 1 4-3 16-6 5-3 7-4-4-1-7 3-9-21-8-22-10v-2l-5-2-9-7-1-1v-11l2-10 10-4h3z" fill="#AD1518"/>
<path transform="translate(349,835)" d="m0 0h1v33l2-1 1-32h1v31l5-2v-29h1v12l7 1 6 3 2 13v8l-8 7-5 3h-2l-1 3-4 1-2 2h-2l-2 2-9 3-13 5-9 4h-2l3 5 1 7-3 7-2 1-3-7-6-5-3-16 1-4 9-6 35-15z" fill="#AD1518"/>
<path transform="translate(341,716)" d="m0 0 4 1v4 2l9 2 1 2-5 4-4 4-3-1v-3h-2l1 4-3-1-1 2-8-9h-3l2 4 2 1-1 2h5v3l-2 2 6-1 4 2 2-2 6 2-2-6 4-2 1 1 2-4 4-3 5 4 1 7-5 5h-2l-2 7 9 1v13h-4v3l-3 1-33-1v4l34-1 1 2-37 1v2h-2l1-4h2v-4l-3-1v-2h-4v-13h11l-1-1-2-3-2-6-4-1-2-2v-6l4-4 3-2 14-2z" fill="#B12815"/>
<path transform="translate(655,719)" d="m0 0 3 1 2-1-1 4 2 1-1 2 2 1-1 2h9v2l3-1 7 1 2 6h-2l-1 3-4 3-2 6-1-2-1 3h11v13h-4l-1 3h-2v4l3 1v3l-2-1v-1l-37-1 2-2 33 1v-4l-34 1-2-1v-3h-4v-13h10v-2l3-2-2-1v-2l-4 1v-2l-4-2-2-2-1-5 9-3 12-2z" fill="#B32D13"/>
<path transform="translate(324,771)" d="m0 0h38v3h-2l-1 39h-9l-1 1-19 3-6 1v-42l-1-4z" fill="#ccc"/>
<path transform="translate(638,771)" d="m0 0h38l1 4-1 1v42l-10-2-1-1-14-1-10-1-1-37-2-2z" fill="#ccc"/>
<path transform="translate(441,867)" d="m0 0h12v119h-12z" fill="#C8B100"/>
<path transform="translate(418,867)" d="m0 0h11v116l-10-4-1-1z" fill="#C8B100"/>
<path transform="translate(485,732)" d="m0 0h29l23 2 22 4 4 2-30 5-9 1h-48l-23-3-16-3 3-2 22-4z" fill="#AE1518"/>
<path transform="translate(465,870)" d="m0 0h1l3 12 6 10 1 1v85l-10 5h-1z" fill="#C8B100"/>
<path transform="translate(480,729)" d="m0 0h39l26 3 18 4 5 2-1 4-15 4 55 1v1h-213v-1l53-1-14-4-1-5 22-5zm5 3-23 2-22 4-3 2 29 5 10 1h48l22-3 17-3-4-2-22-4-23-2z" fill="#C6A801"/>
<path transform="translate(395,867)" d="m0 0h10v98l-4-4-5-12-1-4z" fill="#C8B100"/>
<path transform="translate(347,834)" d="m0 0h2v35l-14 7-10 3v-39l7-3z" fill="#ccc"/>
<path transform="translate(641,834)" d="m0 0h12l11 2 1 1v38l-9-3-15-8z" fill="#ccc"/>
<path transform="translate(517,640)" d="m0 0h18l10 4 6 7 1 7-2 8h-8l-20-6-13-2v-15z" fill="#FCBF06"/>
<path transform="translate(463,640)" d="m0 0h19l8 4v14l-18 3-15 5h-8l-2-5 1-10 5-6z" fill="#FCBF06"/>
<path transform="translate(475,695)" d="m0 0 3 1v6l4 4 2 1 9-1 4-5 1-5h3l4 9 4 2h7l5-4 2-2 4 6 5 2 8-1 4-5 2-4 3 2 1 7 1 3 4 1h8l3-2h3l2 5h7l8-6h2l1 4-7 6-6 2-6-2-3-3v-2l-4 2h-9l-6-4-3-3-8 4-9-1-6-4-5 3h-10l-6-4h-3l-6 4h-10l-3-2-5 1-6 3-9-1-5-3-7 6-2 1h-8l-4-1-5 5-6 1-8-5-3-3 1-4 10 6h6l3-5 4 1 2 1h8l5-5 1-7 4 1 3 6 5 2 7-1 5-5 1-3h-2z" fill="#C8AD06"/>
<path transform="translate(559,651)" d="m0 0h21l11 4 5 3 5 8v9l-2 4-15-7-11-3h-13-4l1-3 3-1-2-4 3-1 1-6-3-1z" fill="#FABF0D"/>
<path transform="translate(428,787)" d="m0 0h38v9l-1 2-3 1-1 3h-6v-3l-4-2-1 1 4 1v3l4 1-4 8h2v11l-2 4h-6l-1-3 1-2h-4v-3l3-1-1-3v3h-6v-10h7l-3-1v-3l-4-1v-3l4-2-1 1h-14z" fill="#C28A05"/>
<path transform="translate(419,651)" d="m0 0h21l1 5-3 1v3l3 1-1 3-1 1-1 3-18 2-15 6-3 2h-3l-1-4v-7l3-6 7-6z" fill="#FABF0D"/>
<path transform="translate(416,647)" d="m0 0h22l-1 4-18 1-11 4-7 6-2 5 1 13 2 2-1 4-3 5-2 1 7 2 2-1 3 3v8l-5 1-5-5-6-1v-4l-3-1 1-2 3 1v-3l-6-1-1-2h3l1-3h-3v-2l-4-1 1-3 1 2 3 1v-6l-4-1 3-1 1-2h2v-3l-4-1 3-2 1-4h3l1-3v2h2l2-6h3l2-6 1 4 4-2-1-2z" fill="#C18107"/>
<path transform="translate(357,884)" d="m0 0 3 1v60h-35v-1h24v-54l2-3 4-2z" fill="#AD1519"/>
<path transform="translate(500,964)" d="m0 0 7 1-1 3 4 2 3 4-1 7-4 4-5 2 1 2 6-4 4-1h8l5 2-1 2-2-1h-13l-5 3 12 1v1h-15l-1 4-4 1 1-5-8 1-9-3-6-5v-1l8-1 8 2 7 4v-2l-6-3-4-5v-6l5-6v-2h5z" fill="#AD1519"/>
<path transform="translate(581,795)" d="m0 0 2 3 3 8-1 9-4 3-7 3-1 7 5 5 1 4-3 5-1 7-3 1v-3h-2v2l-3-1 2-3h-2l-1-3 5-1-1-5-1-3h-2l-1 2-2-1-1 2-2-3v-6l2-4v-5l-8-5-8-7 1-3 6-5 3 1v3h2l1-4h2l3 9 6 7 2 1h6l3-2v-10z" fill="#ccc"/>
<path transform="translate(640,884)" d="m0 0h1v60h24v-49l10 3v47h-35z" fill="#AD1519"/>
<path transform="translate(472,630)" d="m0 0 4 1 3 3h-6l12 1v2l7 2v5l-5-1-5-2h-19l-10 5-4 5-1 10 1 5 3 1h-2l4 5-3 5-3-1 1-5h-1l1 2h-2v2h-4v-4l-4-2v-4h-2l1-2h2v-2l-2-1v-3l3-3-4-1h3v-2l-3-1 1-3h-17v-1h23l-1-2h3l1-2 1-1 3-1 1-3v3l9-5 3-3 4-1 4 2z" fill="#C38206"/>
<path transform="translate(638,771)" d="m0 0h38l1 4-1 1v42l-10-2v-40h-26l-2-2z" fill="#CA9A00"/>
<path transform="translate(482,712)" d="m0 0h35l30 3 20 4 7 2v3l-9-1-22-4-19-2h-49l-26 3-18 4h-6l1-3 20-5 23-3z" fill="#C8B100"/>
<path transform="translate(489,903)" d="m0 0 10 2v40l-4 12-5 8h-1z" fill="#C8B100"/>
<path transform="translate(324,771)" d="m0 0h38v3h-2l-1 39h-9v-37l-24 1-1 41h-1v-42l-1-4z" fill="#CA9900"/>
<path transform="translate(557,765)" d="m0 0 5 1 7 6v8l-1-2v3l2 7-2 1-1 3-3-2 1 8-3-2v-2h-2l-1 4-3-3-4 3v-5l-5 3h-2v-6l-1-1-6-1 3-2 8-1v-4l3-2 2-1v-5l-5-2v-3l7-2z" fill="#CBC7C7"/>
<path transform="translate(634,957)" d="m0 0h47v11h-47z" fill="#C8B100"/>
<path transform="translate(319,957)" d="m0 0h47v11h-47z" fill="#C8B100"/>
<path transform="translate(531,630)" d="m0 0 3 2v2h7v2l4 1-2 1 7 2 1 3 2-2v3l3 1-1 1 2 2v6l1 3 4-1-1 4-2 1v2l2 2-2 2h-2l-2 5 1 3h-4v-2l-2-1v2 3l-3-1-2-5 3-3-2-2h4l1-10-2-6-4-5-10-4h-18l-8 3-2 4v-9l6-3v-3l3 1 1-3v4l10-1z" fill="#C38106"/>
<path transform="translate(635,751)" d="m0 0h46v11h-46z" fill="#C8B100"/>
<path transform="translate(319,751)" d="m0 0h46v11h-46z" fill="#C8B100"/>
<path transform="translate(550,926)" d="m0 0h1v16l-3 1v9l3 1v12l-3 3-6-1 1-4-6-2-4-1h-3l-2-2v-8l6-6 5-1 4-4v-6z" fill="#B01617"/>
<path transform="translate(441,822)" d="m0 0h5v4l5 1 4-1 1-3h5 2l6-1-1 8 1 3h-3l1 5v-4h6l-1 5 2 1-3 5h-13v-3l5-1v-3l-1 3-4-1 1-2v-4l-4-1-1-2-1 5-2 1-2-2-4-1v2h-4l-1 3h-4v-3l-1 4 2 1h-4v-3h-4v-4l4-1v-2h7l-3-1v-3l3-1z" fill="#C28306"/>
<path transform="translate(636,955)" d="m0 0h44l2 1 1 12 8 2v9l-1-3-7-1-10-2-10 3h-10l-10-3-10 2-8 1-1 4v-10l9-1v-13zm-2 2v11h47v-11z" fill="#AE1817"/>
<path transform="translate(320,955)" d="m0 0h44l3 1v13l9 1v9l-1-3-8-1-10-2-10 3h-10l-10-3-10 2-7 1-1 4v-10l8-2 1-12zm-1 2v11h47v-11z" fill="#AE1817"/>
<path transform="translate(555,926)" d="m0 0 5 4 3 5-1 3 5 6h5l6 7v7l-2 2h-6l-6 3-1 4-5 1-3-3v-12l4-1-1-9-3-1z" fill="#B01617"/>
<path transform="translate(548,767)" d="m0 0h7v1l-5 1v2l5 2v5l-5 3v4l-1 1-8 1 6 2-2 7 5-3h2l1 4 3-3 3 3 1-3h2l2 4 1 6 4 6-1 2-5-7-1-7h-2l-1 4h-2l-1-3-4 2-6 5v-2l-5 4-4 1-3 2-1-2h-4l-1 5-1 3-3-1-1-5h-6l1-4 3-2-3-4 1-1h5l1 2-2 1 2 4h-3v2h3v3h3v-4l9-2 3-2h2l6-3h2l-1-4-7 1v-3l-6 4-5-5-6-2 1-3-4-1 2-2v-3l3 3v3l3 1-1 1 6 3h4l4-1v-2h-7l1-6 11-1-1-5 1-1-7-2-6-5 3-2 5 1 6 4-2-3z" fill="#B31917"/>
<path transform="translate(499,705)" d="m0 0 8 5h10l6-3 5 4 9 1 9-4 4 5 4 2h9l4-1 4 5 5 1-1 5-6 1-9-3v-1l9 1 5 1v-3l-7-1-20-4-30-3h-35l-30 3-23 5-3 1-2 2-1-4 7-2 4-4 3 1h8l6-4 4-3 4 3 9 1 8-4 4 1 2 1h10l6-4z" fill="#AF1617"/>
<path transform="translate(636,987)" d="m0 0h11l5 2h11l6-2h11l5 2h6v7h-7l-5-2h-10l-5 2h-12l-6-2h-10l-5 2h-7v-6l9-2z" fill="#AD1518"/>
<path transform="translate(320,987)" d="m0 0h11l6 2h11l5-2h11l5 2h7v7h-7l-5-2h-10l-6 2h-12l-5-2h-10l-5 2h-7v-6l9-2z" fill="#AD1518"/>
<path transform="translate(639,946)" d="m0 0h38l1 3-1 5 2 1-1 1h-41l1-9z" fill="#C7AD00"/>
<path transform="translate(323,946)" d="m0 0h38l1 4 1 6h-41v-9z" fill="#C7AD00"/>
<path transform="translate(585,887)" d="m0 0h1v8l-4 1 1 9 3 1v9l-3 3h-7l-1-2h-10l-1 3h-5v-3l7-8h5l4-5v-5l9-10z" fill="#B01617"/>
<path transform="translate(327,741)" d="m0 0 13 1v1l5 1v-2h7l-1 3-13 1v1l-6 1-1 2 2 1h-14v11h47l-4 1v3l-3 1-33-1v4l34-1 1 2-37 1v2h-2l1-4h2v-4l-3-1v-2h-4v-13h11l-1-1-2-3z" fill="#B54211"/>
<path transform="translate(558,883)" d="m0 0h6l1 4 10-1 1-3h7l-6 8-5 5-5-1-2 4-2 2v6l-7 8h-1v-13l2-1 1-10h-3v-5h2z" fill="#B11716"/>
<path transform="translate(523,922)" d="m0 0h6l1 4h11l1-4h5l-2 5-5 5h-5l-4 5v5l-6 7-4-1-1-6h3l-1-10-3-1v-5z" fill="#B31815"/>
<path transform="translate(559,922)" d="m0 0h5l1 3 10 1 1-4h7l3 3v6l-3 1v9l2 1-1 6-3 1-7-7 1-5-5-5h-5l-7-8z" fill="#B21716"/>
<path transform="translate(357,884)" d="m0 0h2v60h-5v-58z" fill="#ccc"/>
<path transform="translate(496,600)" d="m0 0h7v4l5 1v5h-5l-1 14h6v4h-17v-4h6l-1-13-5-1v-5l5-1z" fill="#C8A800"/>
<path transform="translate(500,964)" d="m0 0 7 1-1 3 4 2 3 4-1 7-5 3-5 1 2-6-1-7-1-2-3 1-1 2v7l2 5-9-3-2-3v-6l5-6v-2h5z" fill="#E39709"/>
<path transform="translate(640,972)" d="m0 0 10 2 3 1h10l10-3 10 2 7 2v4l-7-1-3-1h-12l-5 2h-10l-6-2h-12l-5 2h-5v-4z" fill="#ccc"/>
<path transform="translate(324,972)" d="m0 0 11 2 2 1h10l10-3 10 2 8 2v4l-8-1-2-1h-12l-6 2h-10l-5-2h-12l-6 2h-4v-4z" fill="#ccc"/>
<path transform="translate(636,983)" d="m0 0h11l5 2h11l5-2h12l10 3v4l-8-1-2-1h-11l-6 2h-11l-5-2h-11l-5 2h-6v-4z" fill="#ccc"/>
<path transform="translate(320,983)" d="m0 0h12l5 2h11l5-2h11l11 3v4h-6l-5-2h-11l-5 2h-11l-6-2h-11l-5 2h-5v-4z" fill="#ccc"/>
<path transform="translate(548,817)" d="m0 0h12l3 3-2 5h-7l1 13h-12l-3 1v-3h-4v-2h3l-1-4h3l3 2 5-1v-5l-4-3 1-5z" fill="#ccc"/>
<path transform="translate(672,750)" d="m0 0h10v13h-4l-1 3h-2v4l3 1v3l-2-1v-1l-37-1 2-2 33 1v-4l-34 1-2-1v-3l-4-1h47v-11h-9z" fill="#B54710"/>
<path transform="translate(670,897)" d="m0 0 5 1v46h-5z" fill="#ccc"/>
<path transform="translate(463,799)" d="m0 0h10v3h-4v4h-4l-3 1 3 3 1 8h3v3l-3 2h-3l-1 2-1-1h-7l1-3v-9l-2-2 4-5h2v-2l4-1z" fill="#B23122"/>
<path transform="translate(558,756)" d="m0 0h2v2h6l1 3h4v4h4v5h4v2l-7 1v10l-2 1 3 5-1 3-1-1-3 4-1-1-1 6-2-2v-8l3 1v-3l2-1-3-9h2v-6l-8-6-5 1 1-3h3z" fill="#C07419"/>
<path transform="translate(428,787)" d="m0 0h23v8l-1 1h-7v2h-14z" fill="#BE7509"/>
<path transform="translate(341,716)" d="m0 0 4 1v4 2l9 2 1 2-5 4-4 4-3-1v-3h-2l1 4-3-1-1 2-8-9-2-2 11-2z" fill="#AE1518"/>
<path transform="translate(325,725)" d="m0 0 3 1v2l1 3 2 1-1 2h5v3l-2 2 6-1 6 3v3h-6v-1l-12-1h-3v-2l-4-1-2-2v-6l4-4z" fill="#B01F16"/>
<path transform="translate(527,890)" d="m0 0 6 5 6 2 5 6v4l7 8-4 4-4-6-5-4-5-1-4-5v-5l-3-4z" fill="#C7A301"/>
<path transform="translate(670,776)" d="m0 0 5 1v40h-5z" fill="#ccc"/>
<path transform="translate(524,772)" d="m0 0h3v6l3 3 7 4v5h7l-1 3-5 3-10-5-3-6-2-2-4-1-1-3h3l-2-4 2-2 3 2z" fill="#ccc"/>
<path transform="translate(496,616)" d="m0 0h1v8h-6v4h17v-4h-6v-8l5 3 2 3v7l-2 3 3 1-1 4-1-3-2-1-1 4-3-2h-7l-5-6v-7l4-5z" fill="#B02216"/>
<path transform="translate(354,776)" d="m0 0h5v37h-5z" fill="#ccc"/>
<path transform="translate(446,642)" d="m0 0h3l2 1-5 6-2 6 1 9 3 7 1 2h-2v2h-4v-4l-4-2v-4h-2l1-2h2v-2l-2-1v-3l3-3-4-1h3v-2l-3-1 1-3h-17v-1h23l-1-2h3z" fill="#C4843A"/>
<path transform="translate(670,838)" d="m0 0 5 2v39l-5-1z" fill="#ccc"/>
<path transform="translate(542,794)" d="m0 0 1 3 7-1v5l-8 4-4 1-7 2h-3v4h-3v-3h-3v-2h3l-3-4 3-1h7z" fill="#ccc"/>
<path transform="translate(441,822)" d="m0 0h5v4l4 1v4l-1 3h-4v2h-4l-1 3h-4v-3l-1 4 2 1h-4v-3h-4v-4l4-1v-2h7l-3-1v-3l3-1z" fill="#C49A05"/>
<path transform="translate(609,660)" d="m0 0 1 2 3 2-3 2 3 2 2 3h-4l3 4h-3l-1 2 2 1-1 3 4-1v2h-3v2h-3l-1 3-1-1-2 2-3-2v-2l-2-1 2-3h2l2-16-1-3z" fill="#C58607"/>
<path transform="translate(355,725)" d="m0 0h4l-4 8-2 3v-4l-3 2v2l2 2-1 2-7-1v2l-4-1-2-1-5 1-2-2 2-2-3-2-2-5-2-3 5 1 7 8 3-2v-2h2v3l5-1 5-6h2z" fill="#C49403"/>
<path transform="translate(351,887)" d="m0 0h2v57h-3v-56z" fill="#ccc"/>
<path transform="translate(639,946)" d="m0 0h38l1 3-1 2-37-1-1 3-1-6z" fill="#BA5E0C"/>
<path transform="translate(323,946)" d="m0 0h38l1 4-2 3v-3l-36 1-2-4z" fill="#B95E0D"/>
<path transform="translate(670,741)" d="m0 0m-3 1h3v3l-2 1 4 4v1h-37v11h-1v-12h10v-2l2-1h8v-2l9-1 3 1z" fill="#B21716"/>
<path transform="translate(354,834)" d="m0 0h5v30l-5 2z" fill="#ccc"/>
<path transform="translate(547,806)" d="m0 0 8 6 8 5 1 1-1 7-2 2-6-1 2 12-1 1h-9l-3-1v3l-4 3-2-4v-2l-5-1-2 1v-4l8-3v3h-3v2h4v3l3-2h7l5 1-1-5v-8l7-1 1-6h-16l1-2 9-1-6-4-3-3z" fill="#B41815"/>
<path transform="translate(347,744)" d="m0 0 3 2h6v-2h2l-1 5 9 1v12h-1v-11h-32l-2-1 1-3 3-2z" fill="#B41815"/>
<path transform="translate(392,667)" d="m0 0h1l2 13 3 1-1 5-3 2v2l-7-1-1-2h3l1-3h-3v-2l-4-1 1-3 1 2 3 1v-6l-4-1 3-1 1-2h2v-3z" fill="#C98D06"/>
<path transform="translate(666,895)" d="m0 0 3 1v48h-3z" fill="#ccc"/>
<path transform="translate(494,965)" d="m0 0 7 1-3 7v7l2 5-9-3-2-3v-6l5-6z" fill="#E69B09"/>
<path transform="translate(326,766)" d="m0 0h33v4h-33z" fill="#C7AE00"/>
<path transform="translate(641,766)" d="m0 0h33v4h-33z" fill="#C7AE00"/>
<path transform="translate(459,834)" d="m0 0h6v4h2v-4h6l-1 5 2 1-3 5h-13v-3l5-1v-3l-1 3-4-1 1-2z" fill="#C48105"/>
<path transform="translate(500,969)" d="m0 0 3 1 2 5-1 7-2 3 7-2-1 2-5 2-1 6-2 2v-6l-3-3-5-3h3l4 1-2-4v-7z" fill="#AE2022"/>
<path transform="translate(510,685)" d="m0 0h4v3l5 1 2 1-1 3-6 1v3l-7-1-3-3v-5z" fill="#C8B100"/>
<path transform="translate(485,685)" d="m0 0 7 1 3 2v6l-5 3h-5v-2l-7-3 4-4 3-1z" fill="#C8B100"/>
<path transform="translate(649,723)" d="m0 0h6l1 7-2-1-16 3-3 2 1 4-3-1-1-4 1-4h3l-1-2h3v-2l8 1v-2z" fill="#D7A407"/>
<path transform="translate(504,645)" d="m0 0h1l1 15 1 9-4 6-2-4 1-2h-5l-2 4-3-3v-5h2l2-3 2 4 4-1-1-4-3-1v-2l3-1 2-3z" fill="#B8490F"/>
<path transform="translate(450,810)" d="m0 0 6 1v11l-2 4h-6l-1-3 1-2h-4v-3l3-1 1-3h2z" fill="#BD7509"/>
<path transform="translate(594,693)" d="m0 0 1 2 3-2h6l2 1v2h2v3l-7 1-4 4h-5l-1-1v-6z" fill="#C59C02"/>
<path transform="translate(666,776)" d="m0 0h3v40h-3z" fill="#ccc"/>
<path transform="translate(395,693)" d="m0 0h6 3l3 1 1 2v8l-5 1-5-5-6-1v-4z" fill="#C49D02"/>
<path transform="translate(666,837)" d="m0 0 3 1v39l-3-1z" fill="#ccc"/>
<path transform="translate(548,767)" d="m0 0h7v1l-5 1v2l5 2v5l-3 2-4-1 1-1-7-1-7-6 3-2 5 1 6 4-2-3z" fill="#AD1518"/>
<path transform="translate(661,723)" d="m0 0 8 1 5 1h3v2h3v2h2l1 6h-2l-2-3-9-1-2-1-7-1-1-5z" fill="#DFB309"/>
<path transform="translate(511,847)" d="m0 0 3 3v6l5 1-1 4-5 2-4-1-5-2 1-4 4-1 1-7z" fill="#C8B100"/>
<path transform="translate(548,778)" d="m0 0m-1 1 4 3-2 4-8 1 6 2-3 7-2-1-6 4-5-5-6-2 1-3-4-1 2-2v-3l3 3v3l3 1-1 1 6 3h4l4-1v-2h-7l1-6 11-1z" fill="#B21716"/>
<path transform="translate(350,776)" d="m0 0h3v37h-3z" fill="#ccc"/>
<path transform="translate(492,719)" d="m0 0h16l1 5-1 1h-16l-2-1v-4z" fill="#AE1518"/>
<path transform="translate(582,697)" d="m0 0 5 2 4 4-3 4-6 1-5-1 1-3-4-4 2-1h6z" fill="#C8B100"/>
<path transform="translate(551,677)" d="m0 0 2 2 1 5 3 1-4 7-8-1-1-2v-7h3z" fill="#C8B100"/>
<path transform="translate(416,697)" d="m0 0h2v2h6v3l-3 3 1 2-8 1-5-4 2-4z" fill="#C8B100"/>
<path transform="translate(447,678)" d="m0 0h3l2 5 4-1-1 8-7 2-4-4-1-4h2z" fill="#C8B100"/>
<path transform="translate(500,866)" d="m0 0 3 4-1 6 4-1 2 3-1 2-5 2h-4v-2h-5l1-5 4 1v-7z" fill="#C8B100"/>
<path transform="translate(488,847)" d="m0 0h2l1 2v7l5 1v4h-5v2h-4v-2h-5v-5h4z" fill="#C8B100"/>
<path transform="translate(550,793)" d="m0 0h2l1 4 3-3 3 3 1-3h2l2 4 1 6 4 6-1 2-5-7-1-7h-2l-1 4h-2l-1-3-4 2-6 5v-2l-3-1 7-2-1-4-7 1 3-3z" fill="#BA1B11"/>
<path transform="translate(350,834)" d="m0 0h3v33l-3 1z" fill="#ccc"/>
<path transform="translate(536,688)" d="m0 0 5 1 3 2-1 7-9 1v-3l-5-3 1-2 6-1z" fill="#C8B100"/>
<path transform="translate(426,799)" d="m0 0h6v3l5 1h6v3h-7v2l-7 2h-3z" fill="#C38F04"/>
<path transform="translate(551,915)" d="m0 0 6 1 2 5-2 4-6 1-4-4 2-6z" fill="#ccc"/>
<path transform="translate(555,692)" d="m0 0h7l-1 3 4 1 2 3-7 1-1 3-6-3-1-3 1-4z" fill="#C8B100"/>
<path transform="translate(438,692)" d="m0 0 9 1 1 6-8 4v-3l-7-1v-2l5-3z" fill="#C8B100"/>
<path transform="translate(461,688)" d="m0 0h2v2l6 1v3l-4 3v2l-8-1-1-4 1-4z" fill="#C8B100"/>
<path transform="translate(663,820)" d="m0 0h4l-1 6h3l1-4-2-1 5 1 1 3-1 2-3 2 2 6-4-1-2-5-2 4-4-1z" fill="#C8B100"/>
<path transform="translate(422,787)" d="m0 0h5v6h2v3h5l2 2 1-2v2h2v4l-9 1 2-1v-3h-9v-1h5v-3h-5l-1-5z" fill="#B54311"/>
<path transform="translate(440,807)" d="m0 0h14v3h-4v4h-4v3h-6z" fill="#C59503"/>
<path transform="translate(578,837)" d="m0 0 1 2-2 4v8l-1 4-4-2v-2l-4 1-2 2-1-5v-3h-4l1-4 9-1-4 2v2h2l-1 3 2 1v-2h2v3l2-1 2-9z" fill="#B21716"/>
<path transform="translate(320,823)" d="m0 0h7l1 5-4 3v6h-3l-4-10v-2z" fill="#C66206"/>
<path transform="translate(589,767)" d="m0 0h2l-3 6 2 2-5 8-4 2v-10l2-5h3z" fill="#ccc"/>
<path transform="translate(565,768)" d="m0 0 4 2 3 3v10l-2 1 3 5-1 3-1-1-3 4-1-1-1 6-2-2v-8l3 1v-3l2-1-3-9h2v-6z" fill="#B7211B"/>
<path transform="translate(595,648)" d="m0 0 3 3 2-3-1 5-1 1 2 1 1-2 1 2h2l2-2v9l1 4-2 12-1-4v-7l-3-7-1-3-4-2-1-1z" fill="#C2640C"/>
<path transform="translate(685,828)" d="m0 0h4l-1 14-4-1v-4l-5-2-5 1 5-4z" fill="#C59903"/>
<path transform="translate(446,642)" d="m0 0h3l2 1-5 6-1 2h-2v3h-6l3-1v-2l-3-1 1-3h-17v-1h23l-1-2h3z" fill="#BB442D"/>
<path transform="translate(327,741)" d="m0 0 13 1v1l5 1v-2h7l-1 3-13 1v1h-7l-3-1-2-4z" fill="#C8AC11"/>
<path transform="translate(455,774)" d="m0 0h3v2h3v-2h3v2h3v-2h2l-1 4 1 3h-14z" fill="#C8B100"/>
<path transform="translate(345,724)" d="m0 0 9 1 1 2-5 4-4 4-3-1v-3l-2-1h2l1-4z" fill="#AD1518"/>
<path transform="translate(499,705)" d="m0 0 8 5 10 1v1h-34v-1l9-1 6-4z" fill="#AD1518"/>
<path transform="translate(426,774)" d="m0 0h2v2h3v-2h3v2h3v-2h2v7h-13z" fill="#C8B100"/>
<path transform="translate(433,831)" d="m0 0h6l2 4-1 4h-4v-3l-1 4 2 1h-4v-3h-4v-4l4-1z" fill="#C07D07"/>
<path transform="translate(565,714)" d="m0 0h2l4 5 5 1-1 5-6 1-9-3v-1l9 1 5 1v-3l-7-1-14-3 1-2h9z" fill="#B01617"/>
<path transform="translate(511,986)" d="m0 0h14l-3 3-4 2h-13l4-4z" fill="#ccc"/>
<path transform="translate(368,817)" d="m0 0h5l2 3-7-1v3l5 2 2 4-4 4-6-1-1-2 7 1v-4l-5-2-1-4z" fill="#CC9400"/>
<path transform="translate(458,787)" d="m0 0h8v9h-7l-1-2z" fill="#C8B100"/>
<path transform="translate(443,787)" d="m0 0h8v8l-1 1h-6l-1-1z" fill="#C8B100"/>
<path transform="translate(479,985)" d="m0 0h10l9 5v1h-11l-7-4z" fill="#ccc"/>
<path transform="translate(428,787)" d="m0 0h8v9h-7z" fill="#C8B100"/>
<path transform="translate(427,641)" d="m0 0 4 2 2-2 2 1v2h4v-2l4 1v2l2 1-3 1-18-1-3-2 5-1z" fill="#DA9209"/>
<path transform="translate(398,654)" d="m0 0 2 3-4 6-2 12h-1l-1-7h-6l3-3 1-4h3l1-3v2h2z" fill="#BF4D10"/>
<path transform="translate(420,838)" d="m0 0 4 1v2h2v-2h6v2h-4v4h-10v-6z" fill="#C39104"/>
<path transform="translate(629,818)" d="m0 0h2l-3 11-3 3-8-11 1-2 4 2 4 6z" fill="#C8B100"/>
<path transform="translate(341,716)" d="m0 0 4 1v4 8l-5 2-1-10z" fill="#BE550B"/>
<path transform="translate(463,799)" d="m0 0h10v3h-4v4h-4-6v-3l4-1z" fill="#C69E02"/>
<path transform="translate(457,788)" d="m0 0h1l2 8 5 1v1h-7l-1-3-4-1 1-4h3zm0 10 5 1-1 3h-6v-3z" fill="#BC6C0A"/>
<path transform="translate(452,787)" d="m0 0h5v3h-3v4l3 1 1 3h-7v-10zm-2 8m-2 1h2v2h-6z" fill="#C18D05"/>
<path transform="translate(636,818)" d="m0 0h4v12l5-1v2h-7l-2-1z" fill="#C8B100"/>
<path transform="translate(355,725)" d="m0 0h4l-4 8-2 3v-4l-3 2v2l2 2-1 2-3-1-1-5 6-7h2z" fill="#C6A301"/>
<path transform="translate(564,641)" d="m0 0h3l1 2h2l2-2v4l6 1v1l-18 1-3-2 6-3z" fill="#C0540F"/>
<path transform="translate(345,818)" d="m0 0h5l4 8 3-3-1 5-1 3-4-2z" fill="#C8B100"/>
<path transform="translate(538,769)" d="m0 0 5 1 4 3 7 1v1l-11 1-7-4-1-2z" fill="#C53321"/>
<path transform="translate(515,771)" d="m0 0 7 1-1 2v3 2l-2 1v2l4 1-9 1 1-4 3-3-1-3-3-1z" fill="#B41815"/>
<path transform="translate(552,641)" d="m0 0 1 3 3 1-1 1 2 2v6l1 3-3 9-1-3 1-6-2-8-5-7 3 1z" fill="#B21F15"/>
<path transform="translate(568,726)" d="m0 0 3 4-4 3v5l-7-2 4-1 1-4-5-2 2-2z" fill="#AD1518"/>
<path transform="translate(333,820)" d="m0 0h3l2 7v4l6-1v2l-9 1-2-9z" fill="#C8B100"/>
<path transform="translate(647,818)" d="m0 0h10l-2 2-1 11h-4l1-12z" fill="#C8B100"/>
<path transform="translate(591,703)" d="m0 0 5 1-1 5-2 2-5 1-1-5z" fill="#AD1519"/>
<path transform="translate(547,806)" d="m0 0 8 6 8 5v3l-1-2h-16l1-2 9-1-6-4-3-3z" fill="#B81A13"/>
<path transform="translate(607,684)" d="m0 0h5l1 4-3 1v4h-4l-1-5z" fill="#E2B26F"/>
<path transform="translate(522,707)" d="m0 0 6 4 3 1-1 2-13-1 2-4z" fill="#B21716"/>
<path transform="translate(561,656)" d="m0 0 1 2-3 3v2l2 2-2 2h-2l-2 2-2-1v-2h2l2-9z" fill="#BC6D0A"/>
<path transform="translate(609,660)" d="m0 0 1 2 3 2-3 2 3 2 2 3h-6v-3h-2l-2-7z" fill="#D1770C"/>
<path transform="translate(439,822)" d="m0 0 1 4 3 1h-6v3h5l-3 2-10-2v-3l10-1z" fill="#BA5E0C"/>
<path transform="translate(319,824)" d="m0 0 2 2 3 8v3h-3l-4-10v-2z" fill="#C8B100"/>
<path transform="translate(440,762)" d="m0 0h3v2h3v-2h2v2l6-2v4h-14z" fill="#C8B100"/>
<path transform="translate(496,616)" d="m0 0h1v8h-6l-1 4v-6l4-5z" fill="#AD1519"/>
<path transform="translate(338,738)" d="m0 0 7 3v3h-6v-1l-9-2 1-2z" fill="#AF1617"/>
<path transform="translate(528,722)" d="m0 0h9l5 2-1 2h-7l-6-2z" fill="#ccc"/>
<path transform="translate(463,722)" d="m0 0h8v3l-5 1h-8v-3z" fill="#ccc"/>
<path transform="translate(557,647)" d="m0 0 4 1 1 3h-3l3 3-1 3h-3l-2-2v-7z" fill="#D6A186"/>
<path transform="translate(502,616)" d="m0 0 5 3 2 3-1 4v-2h-6z" fill="#AE1518"/>
<path transform="translate(327,741)" d="m0 0h6l2 4 3 2h-7l-3-1-2-4z" fill="#BC640B"/>
<path transform="translate(476,708)" d="m0 0 4 1 3 3-1 1h-11z" fill="#B11716"/>
<path transform="translate(571,787)" d="m0 0 2 2-1 3-1-1-3 4-1-1-1 6-2-2v-8l3 1v-3z" fill="#AF1617"/>
<path transform="translate(648,742)" d="m0 0h7v2l5-1v-1h7l-1 3h-17z" fill="#C8AB0D"/>
<path transform="translate(431,727)" d="m0 0h7v3l-5 4v-2l-4-1z" fill="#AE1518"/>
<path transform="translate(497,660)" d="m0 0 5 1 1 4-2 2-4-1-1-5z" fill="#F7F7F7"/>
<path transform="translate(569,761)" d="m0 0h2v4h4v4l-3 1v-2l-4-1v-2l-2-1z" fill="#B02726"/>
<path transform="translate(513,631)" d="m0 0h3v3l-3 1 1 2-7 2-1-6 4 1z" fill="#EED785"/>
<path transform="translate(450,810)" d="m0 0 4 1v6h-7l1-3h2z" fill="#C67B05"/>
<path transform="translate(525,766)" d="m0 0 3 1 1 6-2 5-1-4 1-2h-3v3l-2-1z" fill="#B31815"/>
<path transform="translate(497,637)" d="m0 0h5v2h2v5l-3-1-2-2-2 2h-2l1-4z" fill="#BB590C"/>
<path transform="translate(429,834)" d="m0 0h7l-1 6 2 1h-4v-3h-4z" fill="#C8B100"/>
<path transform="translate(422,787)" d="m0 0h5l1 7h-6z" fill="#C68A03"/>
<path transform="translate(600,657)" d="m0 0 6 5 1 4-2 12-1-4v-7l-3-7z" fill="#AE1E17"/>
<path transform="translate(486,633)" d="m0 0h6l1 4h-2l-1 2-5-2z" fill="#E1AD55"/>
<path transform="translate(459,834)" d="m0 0h6v4l-3 1v2l-4-1 1-2z" fill="#C8B100"/>
<path transform="translate(544,820)" d="m0 0 6 5v6l-6-4z" fill="#B41815"/>
<path transform="translate(560,794)" d="m0 0h2l2 4 1 6 4 6-1 2-5-7-1-7-3-1z" fill="#B11716"/>
<path transform="translate(467,834)" d="m0 0h6l-1 5 2 1-4 1v-2l-3-1z" fill="#C8B100"/>
<path transform="translate(450,828)" d="m0 0 2 1v2h2l-1 5-2 1-2-2v-4l-4-2z" fill="#BB6219"/>
<path transform="translate(444,772)" d="m0 0h2v3l1-3h3v6h-6z" fill="#CD8A00"/>
<path transform="translate(642,742)" d="m0 0 3 1v2l8 1v1l-9 1-1 2-2-5z" fill="#C18D05"/>
<path transform="translate(667,739)" d="m0 0m-4 0 4 1v2l-6 1v1h-6v-2l-2-1h10z" fill="#AD1519"/>
<path transform="translate(344,738)" d="m0 0 7 2 1-2 4 3-1 1h-10l-2-3z" fill="#B82811"/>
<path transform="translate(565,841)" d="m0 0h6l-4 2v2h2l-1 3-1-2h-6l1-4z" fill="#B61914"/>
<path transform="translate(567,767)" d="m0 0 5 1v2h7v2h-9l-3-3z" fill="#BF7808"/>
<path transform="translate(341,731)" d="m0 0h2v3l5 1 1 4-5-1-3-3z" fill="#C17907"/>
<path transform="translate(676,725)" d="m0 0 1 2h3v2h2l1 6h-2l-1-4-5-2z" fill="#CFA500"/>
<path transform="translate(495,662)" d="m0 0h1l1 7-2 4-3-3v-5h2z" fill="#BB5A0C"/>
<path transform="translate(672,742)" d="m0 0h2l-1 7-1-2h-10v-1l8-1v-2z" fill="#BF7608"/>
<path transform="translate(649,723)" d="m0 0h6l1 7-2-2-6-1z" fill="#CC9F00"/>
<path transform="translate(523,783)" d="m0 0 4 3v3l3 1-1 3-4-2 1-2-4-1 2-2z" fill="#B51914"/>
<path transform="translate(558,756)" d="m0 0h2v2h6l1 4h-6l-2-1z" fill="#B33322"/>
<path transform="translate(496,883)" d="m0 0h8l-1 4h-2l-1 2-4-4z" fill="#C8B100"/>
<path transform="translate(454,840)" d="m0 0h3v9h-3z" fill="#C8B100"/>
<path transform="translate(438,840)" d="m0 0 3 1v8h-3z" fill="#C9B93E"/>
<path transform="translate(538,831)" d="m0 0 1 3h-3l1 3-6 1v-4z" fill="#B41815"/>
<path transform="translate(535,826)" d="m0 0 6 1 3 5-5-2-2 1-3-4z" fill="#B41815"/>
<path transform="translate(448,822)" d="m0 0h6v4h-6z" fill="#C8B100"/>
<path transform="translate(661,723)" d="m0 0 8 1-2 3-7-1z" fill="#D09300"/>
<path transform="translate(655,719)" d="m0 0 3 1 2-1-1 4 2 1-3 3-3-1z" fill="#B01617"/>
<path transform="translate(554,667)" d="m0 0 2 4v4h-4v-2l-2-1z" fill="#D0BD57"/>
</svg>
