<?xml version="1.0" encoding="UTF-8"?>
<svg version="1.1" viewBox="0 0 1600 1600" width="1280" height="1280" xmlns="http://www.w3.org/2000/svg">
<path transform="translate(67,300)" d="m0 0h1466v1e3h-1466z" fill="#FF3C00"/>
<path transform="translate(490,534)" d="m0 0h27l22 2 22 4 23 6 24 9 25 12 8 5-3 1-20-4-16-2h-40l-23 3-28 7-21 8-21 10-18 11-12 9-10 8-13 12-8 8-9 11-13 18-9 15-8 16-6 14-7 21-5 23-3 26v28l3 26 6 26 8 23 12 25 11 18 9 12 11 13 12 13 8 7 15 12 18 12 27 14 21 8 26 7 19 3 10 1h35l24-3 14-3 4 1-29 15-23 9-20 6-25 5-17 2h-46l-23-3-23-5-22-7-22-9-23-12-21-14-14-11-12-11-7-6-7-8-10-11-12-16-11-17-14-27-9-23-7-24-4-20-2-16-1-15v-22l2-24 4-23 6-22 7-20 11-24 13-22 10-14 8-10 12-14 12-12 8-7 15-12 21-14 22-12 24-10 18-6 26-6 21-3z" fill="#fff"/>
<path transform="translate(693,683)" d="m0 0 5 5 12 17 28 38 8 11 9-2 76-25v3l-39 54-10 14-1 4 42 57 9 13-3 1-50-16-32-10-12 16-10 14-26 36-4 6h-1l-1-13v-77l-11-3-68-22-7-2 2-2 82-27h2z" fill="#fff"/>
</svg>
