<?xml version="1.0" encoding="UTF-8"?>
<svg version="1.1" viewBox="0 0 1600 1600" width="1280" height="1280" xmlns="http://www.w3.org/2000/svg">
<path transform="translate(67,300)" d="m0 0h1466v1e3h-1466z" fill="#D32D2D"/>
<path transform="translate(799,541)" d="m0 0h2l17 52 16 50 23 70 6 19 203 1-5 5-18 13-19 14-54 39-19 14-36 26-12 9 3 11 23 71 17 52 16 50 2 9-11-7-13-10-14-10-18-13-19-14-14-10-18-13-19-14-36-26h-4l-19 14-54 39-19 14-36 26-19 14-14 10-1-3 17-52 16-50 22-67 6-19-2-4-14-10-18-13-19-14-54-39-19-14-36-26-1-2 203-1 18-55 16-50 23-70z" fill="#FFEB3B"/>
</svg>
