<?xml version="1.0" encoding="UTF-8"?>
<svg version="1.1" viewBox="0 0 2048 1110" width="1280" height="1280" xmlns="http://www.w3.org/2000/svg">
<path transform="translate(969,31)" d="m0 0 13 1 17 5 25 12 20 12 22 15 18 13 14 11 13 10 17 14 11 9 28 24 10 9 8 7 10 9 8 7 13 12 10 9 33 31 11 11 8 7 96 96 7 8 47 47v2h2l7 8 47 47 7 8 43 43 7 8 37 37 7 8 36 36 7 8 32 32 7 8 20 20 7 8 4 7v3l-6-1-9-5-18-13-17-12-36-26-16-11-40-28-21-14-19-12-29-17-28-16-28-15-32-16-27-11-18-5-7-1h-19l-21 3-20 5-21 7-23 10-20 10-24 16h-2l7 8 18 18 7 8 23 23 7 8 23 23 7 8 23 23 7 8 14 14 1 7-1 1-7-1-16-10-20-14-24-16-11-8-19-13-69-48-16-11-8 4-26 16-24 15-25 16-22 14-19 13-20 14-18 13-14 11-6 5-5-1-21-14-51-36-40-28-15-10-29-19-15-9-6-4-5 2-44 29-33 22-44 29-43 29-12 7-7 1-1-5 4-6 11-12 13-13 7-8 20-20 7-8 16-16 7-8 23-23 7-8 21-21v-2l-22-13-22-12-23-11-19-7-18-4-8-1h-34l-24 4-24 7-24 10-19 9-23 13-20 12-22 14-19 12-32 21-39 26-28 19-34 23-36 24-6 3-5-1 1-5 303-303h2v-2l8-7 45-45 8-7 31-31 8-7 20-20 8-7 17-17 8-7 11-11 8-7 8-8 8-7 16-15 10-9 8-7 10-9 11-9 11-10 22-18 15-12 13-10 19-14 16-11 19-12 16-9 23-11 19-6zm-9 105-20 4-36 12-25 11-25 12-27 14-24 14-2 2 19 10 25 14 22 14 22 15 19 14 13 10 16 13 11 9 10 9 10 8 6-1 22-22 8-7 15-13 17-13 16-12 20-13 24-14 25-12 16-6-4-4-23-12-19-10-30-15-31-14-26-10-20-6-5-1zm-187 175-19 5-22 8-25 11-29 14-34 17-23 13-5 3 4 4 27 12 20 11 30 20 13 10 11 9 13 11 10 8 16 13 17 13 8 5 17-16 13-13 8-7 17-17 8-7 17-17 8-7 17-17 8-7 18-18 7-6-1-3-29-15-19-10-22-11-25-10-19-5-6-1zm361 0-21 5-22 8-26 12-27 14-23 14 6 7 57 57h2v2l8 7 60 60 5 3 12-12 8-7 15-13 13-11 17-13 19-14 20-13 19-11 16-8 14-6 13-4-2-4-19-13-15-9-22-12-31-15-28-11-21-7-21-5-6-1zm-178 178-21 3-21 6-19 7-20 9-27 14-19 12 6 7 52 52 1 2h2l2 4 64 64 7 8 4 1 8-7 12-11 48-48v-2h2l7-8 40-40 7-8 10-10 2-4-10-7-18-10-29-14-28-10-23-6-19-3-11-1z" fill="#E9242A"/>
<path transform="translate(1210,893)" d="m0 0h170l16 4 11 7 6 8 4 10 1 6v27l-4 11-5 6-12 6-5 1v1l16 4 8 6 6 8 3 11v37l-4 11-6 8-9 6-12 5-10 2h-174zm26 20-1 1v58l1 1h131l12-2 8-5 4-5 2-8v-23l-3-8-8-6-12-3zm-1 80v65h141l12-3 6-4 4-5 2-8v-25l-3-9-5-6-10-4-7-1z" fill="#030101"/>
<path transform="translate(500,893)" d="m0 0h164l14 2 12 4 9 6 6 7 4 11 1 5 1 14v22l-2 11-4 8-4 5-10 5-7 2h-6v2l8 1 12 6 6 7 4 10v57h-23l-1-46-2-11-5-8-8-5-11-2-133-1v73h-25zm26 20-1 1v71h126l15-2 10-4 5-4 3-5 2-11v-18l-2-13-4-6-5-4-8-3-22-2z" fill="#040101"/>
<path transform="translate(142,893)" d="m0 0h32l11 19 17 28 12 21 15 25 29 49 15 25 10 17v1h-29l-9-16-10-17-3-5h-149l-13 23-9 15h-29l6-11 16-27 38-64 17-28 9-16 15-25 8-13zm15 21-9 15-26 44-16 27-10 17v2h123l-2-6-17-29-15-25-17-29-10-16z" fill="#040202"/>
<path transform="translate(1749,893)" d="m0 0h32l17 29 17 28 12 21 15 25 16 27 15 25 16 27 1 3h-28l-6-9-15-26-2-3-149-1-2 5-15 26-5 8h-29l8-14 17-29 17-28 15-26 15-25 32-54zm15 21-15 25-34 58-12 20v2h123l-1-4-9-16-9-15-17-29-9-15-13-22z" fill="#040202"/>
<path transform="translate(945,893)" d="m0 0h25v185h-25z" fill="#040000"/>
<path transform="translate(1963,886)" d="m0 0h12l11 3 10 5 9 8 7 11 4 13v15l-4 13-6 9-5 6-11 7-10 4-6 1h-11l-12-3-11-6-9-9-6-10-3-9-1-14 2-10 4-10 7-9 9-8 11-5zm0 9-11 3-11 8-6 8-4 10-1 6v8l4 13 6 9 11 8 7 3 5 1h11l13-4 8-6 7-8 4-9 1-4v-15l-4-11-6-8-7-6-8-4-7-2z" fill="#130808"/>
<path transform="translate(1951,906)" d="m0 0 28 1 7 3 4 6 1 9-3 7-6 4h-5l8 14 6 10h-11l-12-21-1-1-7-1v23h-10v-53zm9 8-1 15 1 1h14l6-2 2-4-1-7-6-3z" fill="#171212"/>
</svg>
