<?xml version="1.0" encoding="UTF-8"?>
<svg version="1.1" viewBox="0 0 1800 1800" width="1280" height="1280" xmlns="http://www.w3.org/2000/svg">
<path transform="translate(0)" d="m0 0h1800v1800h-1800z" fill="#FDFDFD"/>
<path transform="translate(319,77)" d="m0 0h43l18 1 1 1 1 40 43 6 25 5 24 7 20 8 17 9 16 10 11 9 4 3v2h2v2h2v2h2v2h2l7 8 10 13 9 15 8 16 6 14 6 21v5l-10 2-17 3-34 5-67 11-26 4h-7l-10-23-8-14-9-10-9-8-14-9h-3v124l7 1 28 8 14 5 17 5 19 7 17 6 33 15 12 7 11 6 12 9 3 2v2l4 2 3 2v2l4 2 12 13 14 20 9 17 7 19 6 25 2 16v35l-3 19-5 19-8 21-12 22-11 16-3 4h-2l-2 4-6 8h-2l-2 4-9 9h-2v2l-14 11-12 9-19 11-21 10-19 6-26 6-26 4-30 3-1 81h-63l-1-28-1-53-57-10-26-6-23-8-20-9-18-10-18-13-5-4v-2l-4-2-9-8-7-8-9-11-11-15-12-23-8-20-9-30-2-8v-8l38-5 43-5 39-4 37-5 18-1 2 6 6 26 7 18 8 14 10 11 10 8 14 8 8 4-1-14v-136l-2-3-31-9-28-9-27-9-20-8-18-8-12-7-13-9-13-12-9-9-9-12-8-11-8-14-6-14-6-21-4-24v-36l3-21 6-23 5-13 10-19 12-17 9-10 7-8 11-10 14-10 13-8 21-10 30-10 17-4 25-4 16-2 14-1 1-1v-40z" fill="#ACE32C"/>
<path transform="translate(942,1081)" d="m0 0h2l-1 5-10 19-13 23-14 26-12 21-8 15-9 16-15 27-12 22-15 27-12 22-13 24-12 21-3 6 73 1h53l1 1v94l-1 1h-151l-30 1v51l182 1v96l-181 1-1 1-1 115h-180l-1-72v-43l-28-1-155-1-1-1v-95l185-1-1-51-61-1h-122l-1-1v-95h132l-12-21-16-29-10-17-14-25-12-21-13-23-14-24-13-24-11-19-32-56-7-12v-3h197l10 22 16 36 9 19 12 26 14 30 15 33 14 30 8 17 3 1 3-9 13-29 19-42 16-35 28-62 16-36 1-1z" fill="#EE8426"/>
<path transform="translate(1439,1054)" d="m0 0h55l34 3 31 5 24 7 19 8 17 9 14 10 14 12 13 13 11 14 10 15 14 27 7 19 7 22 2 10-5 2-70 11-45 7-37 6-17 2-3-7-9-26-8-16-7-11-8-8-14-8-17-4-15 1-16 5-10 6-8 8-6 10-4 8-2 9-1 9v22l2 18 7 27 9 29 7 20 136 1 1 2v105l-2 2-119 1-6 38-5 19-7 18-9 17-12 17-5 6-1 2 17-4 18-2h13l24 3 31 6 33 7 20 3 12 1h34l20-2 21-6 26-10 4-2h4l25 55 13 28 16 36 7 14v3l-30 14-29 11-29 8-27 5-26 2h-21l-24-2-24-4-33-7-35-10-35-9-17-4-15-3-18-2h-29l-21 3-22 5-20 7-21 9-24 12-5 3-5-1-10-23-16-35-8-18-16-35-6-13 1-5 9-7 14-11 14-12 16-16 7-8 13-18 12-22 6-21 2-11v-29l-92-1-3-1v-106l1-2h67l-13-44-7-28-2-15v-37l4-24 6-21 9-21 9-16 10-14 9-11 13-13 14-11 14-9 15-8 18-7 24-7 36-6 19-2z" fill="#F62FAC"/>
<path transform="translate(1249,137)" d="m0 0h33l28 3 31 6 26 7 25 9 26 11 16 7 2 2-2 11-33 133-3 12-4-2-12-10-14-10-13-8-17-9-24-8-19-4-8-1h-28l-18 3-20 6-17 9-10 8-8 7-11 14-6 10-6 12-2 6h156l-6 26-12 50-2 2-4 1-147 1v46l160 1-4 18-14 59-1 2-16 1h-113l1 7 8 18 9 14 9 11 9 8 11 7 12 6 17 5 17 3h35l36-5 18-4 16-5 24-9 24-12 21-13 16-11h2v160l-7 6-19 11-19 9-21 8-23 6-31 6-16 2h-64l-36-4-36-6-17-4-30-10-28-13-21-13-12-9-15-13-14-14-7-8-11-13-9-12-14-21-12-22-9-21-5-14-8-29v-2h-67l-12-1 1-7 7-24 8-30 5-17 1-1 35-1h11v-47h-55l-2-1 2-10 10-36 8-29 3-3 44-1 12-36 6-16 7-16 10-19 14-22 13-16 7-8 6-7 8-7 13-12 18-13 20-12 23-11 24-9 25-7 41-8 29-3z" fill="#12ABEA"/>
<path transform="translate(1249,137)" d="m0 0h33l28 3 31 6 26 7 25 9 26 11 16 7 2 2-2 11-33 133-3 12-4-2-12-10-14-10-13-8-17-9-24-8-19-4-8-1h-28l-18 3-20 6-17 9-10 8-8 7-11 14-6 10-6 12-3 8h12l20 1 8 1 34 1h60l11-1 3 2 1 6-5 17-3 7-2 8-3 9-1 5h-2l-1 6-4 4-6 1-31-1h-89l-15 1-6 2-3 11-1 14-4 18-4 1-6-4-5-5-5-4-5-2-1-2h2v-2h-2l-3-3v-2h-8l-3-1-4 1-1 2h-3l-3-4-2 1-7 1-5 2h-3l-2 5-6 5-4 3h-3l-1 2-3 3h-3l-9-1-6-2-5 2-1 1-18 2h-6l-10-5-5-1-2-7-4 2-2 3-4 1-2-2-2-11-3-8-1-3-3-3-5-6v-2l-14-2h-36v-2h-2v-5h2l2-9 1-1 1-12 2-6v-15l4-10 9-3 16-1v-2l19-2 2-4-1-3 13-40 10-23 10-19 14-22 13-16 7-8 6-7 8-7 13-12 18-13 20-12 23-11 24-9 25-7 41-8 29-3z" fill="#2BB9F9"/>
<path transform="translate(1393,1451)" d="m0 0h2l1 3-1 4h3l2-2 6 2 2 4 1 3 4 1 6-1 1 4h2l1 5h4l-2 10 2 1-1 2 2 2h-2l1 9-2 9 2 1v2h-3v2l2 1 2 5-1 1 3 1 1-2 1-4h2l1-6 1-3h2l1-9 2-4 3-1-1 11-6 20-7 16-9 16-10 14-5 6-1 2 17-4 18-2h13l24 3 31 6 33 7 20 3 12 1h34l20-2 21-6 26-10 4-2h4l25 55 13 28 16 36 7 14v3l-30 14-29 11-29 8-27 5-26 2h-21l-24-2-24-4-33-7-35-10-35-9-17-4-15-3-18-2h-29l-21 3-22 5-20 7-21 9-24 12-5 3-5-1-10-23-16-35-8-18-5-11 1-4 2 4v3h2l2 9h2l9 22 5 9v4l3 1 1-1 4 4-1 6h2l1-4v-3l-1-4-3-2 1-4-2-4-1-6-2-4-2-5-2-4-2-6-3-5v-2l-2-2v-3l-2-1h2l-6-12 1-2h-2l-3-5v-5h-2v-2h2v-2h-2v-6h2l2-4h2v-3l3-2v-2h2v-2l-4 1 1-4h3l1-4 8-1h3l-2-4 5-1v-2l4-1-1-3h3v2l5-2v-2l-5-1 2-2 4 1 1-4 5-1 3-4 4-4v-2l4-2v-3h3l-2-4h2v-3l2 1 1-1h2l1-4 2-1 1-4h3l2-3 4-2 1-6 3-2 2-4h3l2-12 1 2 1-2h3v-2l-2-1 3-1 2-5 3-3h2v2l2-1-1-5h2l-1-3 5-1-2 2 3 2-1 2 3 1-2 2h-3v2l6 2 4-2v-6l4 1v2l1 3h2l-1-3h2l1-4h3l1 4v-2h2v-4-6l2-1v2l3-1 3 2 2-4h2v3l3-4-2-1-1-4 1-2h3v2h3l1 2 2-5 5-2 2 2 2-2 2 1-1-3 4 1v-2h-2v-2h-2l-1 2-3 1-4-2 1-5 11-1 1-3h3l1 2 3-2 1-2 6 1v-1l-6-2 2-1-2-1v-2h3v-3h2l2 3h3l3-5 2 1 1 2 3-1z" fill="#DA0C94"/>
<path transform="translate(1359,1226)" d="m0 0 4 2v3h9l3 1v3h2v5l4 4-5 1-1 10 2 5v3l3 6-1 5 3 1 2-5h-2l1-4h3v2l3 1v3l2 6v3l2 1h-2l2 2h2v8l3 2 2 5-1 8h3l3 3-1 2-2 3h2l1 4-1 4h3v6h2l1 8h2l5 5v4h2l4 4 2 7 4 1v-2l3-2-3-2 2-2 139-1 1 2v105l-2 2-119 1-5 33h-4v5l-2 4 1 2h-2l-2 7-2 4h-2l1 5-4 2-3-2v-3l-2-6h3v-2l-3-1 2-11-1-4v-4-4l-1-4 2-2-1-2h2v-2h-4l-1 2v-7h-2l-3-3-5 1-4-2-2-6-6-2-2 2-4-1 1-7-3 3-1 5-3-1-1 2-3-4-2 5-4 1-2-4h-2v3h-3l2 1-1 3 6 2-1 2-6-1v2h-3l-1 2-4-2-1 2-11 2-1 4 5 1 3-2h2v2h2v2h-3v2h-2l-2 2-4-2-3 1-1 5h-3l1-2h-3v-2h-3l-1 5 2 1v4l-4 2 2-4-4 4-7-2-1 6 2 1-2 3h-2v2l-2-1v-2h-2l-2 6h-2l-3-4 1-1-3-1 1 6-4 1-1 2-6-3v-2l2-2v-3l-4-3v5h-2v2l2 1-3 1v-2l-5 4-2 4-2 1 1 3-4 2-1 7-2 3-3 1-2 4-2 2-2 5-5 5-4 1v4l-3 1-1 3h-2v2l-2-1-1-1-1 4 1 3h-3l1 4h-2l-1 2-2-1 1 3-3 1v3l-3 1-2 3-2-1-1 2-2-1-1 4h-5l4 2v2l-5 2v-2l-2 1v2l-3 2-1 2-4 1 1 3-7 1h-4l-1 4h-3l1 3h2v2h-2l1 3-4 1v3l-4 4h-2l1 3-1 3h2v2h-2v2h2l2 6 1 4h2l1 4 4 8 1 6 3 3v3l3 5 1 4 4 9 3 7 2 8v4h2l1 5v3l-2 1v3h-2v-6h-3l-4-4-3-8-5-10-6-14v-3h-2l-2-5v-4h-2l-2-5h-2l-11-24-5-11 1-5 9-7 14-11 14-12 16-16 7-8 13-18 12-22 6-21 2-11v-29l-92-1-3-1v-106l1-2h67l-4-13v-4h2l4 13 1 7h3v2h3l1-2h4v-2l4-1v2h7l1-4 7-1 5 1 1-3 6 1-1-3-1 2-3-6-1 3-3-3v-4l5-1 3 1 2-5 1 2-1 5 3 1-2 1v7l3 2v-2l3-3-1-5h-2l1-5 11-1v-2h2l2-5 1 2h2v-4l-5-1-1 2-3-1-3-5h2v-2l12 1v-3l5-2v3h2l1-5-4 1-4-4-1-6 6 1 3-1-1-3 1-5 3 1 3 4 1-4-1-2h-5l-1-4 1-3h6l2-2 2-5h2l-2-10 1-4 6 1-1-2h2l-1-4 1-7h-2l-1-4v2l-2-1 1-3 6 2v-2l2-1-1-5 1-2-3-1h2v-2l4-2 7 2v-2h3l-1-4z" fill="#EB22A3"/>
<path transform="translate(557,1600)" d="m0 0 7 1 2 5 1 9 1 6 1 14 2 4v6l3 2 1-2h2v-2l5-3 2-2h3l2-4 6-4 8-2-1 3 3-3v-2l11-4 10-1 6 1 4-1 10-1 6-2 5 1h9l4 1 5-1 4 2 2-3 7 2 4 1 5 2 3 4 1-2h2v2h2l1 3 6 2 7 8v2l3-1 1-2h2l1-6 3-9 1-11 2-9 6-4 2 1-1 117h-180l-1-72v-38l1-7z" fill="#DC690A"/>
<path transform="translate(343,1025)" d="m0 0h195l15 1 6 4 10 8 10 9 10 14 8 16 17 38 17 36 8 17 1 1 5-12 16-35 15-33 16-35 8-13 6-7 10-6 11-2 21-1h183l18 1 6 4 13 10 11 11 8 13 1 6-3-4-7-11-10-11-10-5-4-1h-213l-11 2-9 5-8 8-8 13-18 41-30 65-8 19h-2l-10-22-8-16-17-36-15-33-10-21-10-14-10-8-6-2-7-1h-205l-14 2-8 4-10 9-6 9-4 9-1 5v8l2 10 7 16 16 28 28 50 14 24 15 27 10 17 10 18 8 14 14 22v2l-16 1-51 1-10 3-6 4-8 8-7 11-2 7v117l5 10 1 1v7l-5 9-1 4v103l1 15 3 9 6 8 12 9 5 3-2 1-10-6-12-11-8-9-7-10-1-7v-119l2-7 4-5-1-7-5-7v-120l2-8 7-11 9-9 10-5 9-2 13-1h51l-44-77-15-27-24-42-14-25-13-22-9-15-5-10-1-6v-10l3-12 6-10 4-5 9-7 9-4z" fill="#BFBFC2"/>
<path transform="translate(1250,80)" d="m0 0 36 1 23 3 36 7 31 9 28 11 28 13 15 8 10 7 12 11 9 12 3 6v2h-2l-6-11-6-7v-2l-4-2-9-7-17-9-20-8-28-10-32-9-25-5-30-4-14-1h-51l-40 4-30 5-26 6-33 11-23 10-19 10-21 13-12 9-10 8-10 9-8 7-7 7-7 8-11 13-13 18-8 13-9 16-13 27-11 28-1 1-26 1-14 7-7 7-7 12-6 21-14 55-3 14v15l4 10 7 9v8l-11 40-10 40-1 6v13l4 11 6 8 10 9h-3l-9-7-10-11-7-10-4-8-1-4v-12l4-18 17-63 1-13-10-16-2-7v-8l6-25 9-34 9-33 4-10 7-9 10-8 8-3 7-1 19-1 4-9 10-24 11-23 10-17 8-12 10-14 9-11 9-10 11-12 8-7 10-9 16-12 15-10 22-12 21-10 27-10 32-9 33-6 24-3 23-2z" fill="#BFBFC2"/>
<path transform="translate(1347,1745)" d="m0 0h21l29 4 15 4v2l9 1 42 11 28 7 40 8 19 3 20 1h39l3-3 1-5 8 2 3 2h15l8-2 10-2 3-3h10l7-1h8l18-6 8-1 12-2 10-4 2 1-2 4-20 7-9 4-4-1h-2l-5 1-2 5-28 7-5-1 1-2-11 2-1 5-3 1-30 2-1-4-10-1-1 9h-379l-4-2-21-6-5-2-1-4 9 3 8 3 11 2h11l6-3 5-1h3v-3h2v-2l8-2 2-3 13-4 5-4 13-6 7-1 4-6 3-2h8l19-4 8-5 7-2z" fill="#FDFDFD"/>
<path transform="translate(1434,997)" d="m0 0h43l33 2 37 5 19 4 20 6 16 6 21 10 14 9 13 10 9 7 11 9 17 17 9 11 13 17 12 19 14 27 8 20 7 22 4 17 1 8v14h-1l-2-19-9-35-8-21-9-19-12-21-12-17-8-10-11-13-12-12-11-9-15-11-22-12-25-10-21-6-25-5-35-4-21-1h-63l-31 2-34 5-29 7-23 8-27 13-18 12-14 11-16 15-7 8-13 16-10 15-10 18-7 15-8 24-4 18-3 27v33l2 23 3 16 1 6-17 2-12 4-9 6-8 9-5 11-1 10v101l1 21 2 7 6 10 9 8 16 8-8-1-8-4-12-11-11-15-6-11-1-7v-118l2-12 6-11 10-10 14-7 16-3h4l-4-24-1-11v-45l3-24 6-24 7-19 10-22 10-17 10-14 11-13 7-8 9-9 11-9 15-11 19-11 17-8 28-10 24-6 36-6 21-2z" fill="#BFBFC2"/>
<path transform="translate(188,507)" d="m0 0 10 3 23 9v1l-35 4-64 8-48 5-13 3-11 6-10 12-5 11-1 5v8l4 20 7 29 7 21 9 21 10 18 10 14 13 16 24 24 11 9 13 10 13 8 18 10 20 9 21 7 44 11 15 3 1 8 1 36 1 13 4 10 7 7 12 8 10 3 8 1h28l-2-9-5 2h-4v-4l2-4-5-6v-3l-3-2v-2l2-2-7-1v-2l-4 1-5-5h-2v-4h-2l2-8-1-3v-16l-2-18v-14l-2-9-5-2h-8l-7-2-2-3 7-2-1-3-10-1-3-2-16-2-15-3-8-3-13-3-9-1-3-2-8-1-2 1h-6l5 2v1l-11-1-21-10h-6l-5 1-6-4-1-2-12-4 4-5 4 2 12 3 16 8h2v-3h2l-3-3-7-3-11-6-5-5-7-5-1-6-5-2-13-12v-2l-4-2-9-10-4-7v-2h-2l-7-13-8-16-4-12-2-7-2-11 1-4 8 22 12 24 10 14 11 14 12 12 8 7 5 5 18 13 22 12 24 10 15 5 26 6 57 10 1 1 1 53v28h63l-2 6 6-1 2-2-1 4-8 3 1 2-5 2h10l2 3 6 3 6 12 1 8 11-7 10-11 7-15 3-12 1-14v-2l4 1v8l-3 16-4 9-4 7-4 8-8 8-13 9-4 1-3-1-5 1v3l-4 2-12 1h-36l-1-3 34-1-1-3h-43l-17-2-11-4-10-7-7-6-9-11-7-11-2-7-1-40-9-3-33-8-27-9-24-11-14-8-16-11-14-11-12-11-8-7-10-10-9-11-8-9-12-17-9-15-12-23-5-11-9-27-7-28-1-5v-18l5-13 8-11 9-7 13-5 22-3 106-12h4z" fill="#ECF3F4"/>
<path transform="translate(998,661)" d="m0 0 4 2 6 9 8 11 10 9 2 6 3 1 5 5 2 4h2v2h2v2h2v2h2v2h2v2l5 1 8 6v2l6 2v2l5 2 10 7 3 1v2l4 1 14 7 24 9 14 4 14 2 6 2 13 1 5 2h12l1-5 3-3 2 1 1-4 6-1 7-1 5-1h2l1 5 4-3h10l9-2 10 1h18l5-2h10l1-1 9-1h4l3 1 9-3 5 2 8-2h10l8-3h7l12-2 9-1 3 1 7-2 3-3 7-2 1 6v5l2-1 9-1 3-1 4 1v2l8-1 12-3 8-7 3-7h2v16l-9 7-18 10-17 8-21 8-23 6-31 6-16 2h-64l-36-4-36-6-17-4-30-10-28-13-21-13-12-9-15-13-14-14-7-8-11-13-9-12-9-13z" fill="#059FDE"/>
<path transform="translate(304,21)" d="m0 0h77l7 3 12 9 15 14 8 13 3 6v4l19 4 26 7 21 8 23 11 21 13 17 12 12 11 8 7 9 9 7 8 8 9 12 17 13 24 8 17 8 26 3 13-1 4-8-28-8-22-11-22-11-18-11-14-12-13-16-16-14-11-15-10-12-7-19-8-24-8-28-7-26-5-1-13-8-15-9-10-10-7-4-1h-84l-10 3-9 6-7 7-6 10-2 7-1 11-7 3-39 9-24 8-23 10-18 10-12 8-13 10-12 11-13 13-11 14-12 18-9 16-8 19-6 19-5 25-2 14v40l4 29 5 22 8 23 9 17 8 12 10 13 9 10 7 8 10 10 10 8 1 2-4-2-11-9-21-21-9-11-10-13-10-16-12-23-6-12-6-21-4-21-2-17v-32l4-29 6-26 8-22 8-17 11-18 8-11 11-13 20-20 14-11 17-11 23-12 20-8 25-8 30-7 9-1 2-12 5-12 6-9 9-8 9-4z" fill="#BFBFC2"/>
<path transform="translate(867,609)" d="m0 0 55 1 3 2 11 29 10 22 10 17 13 19 14 18 9 10 3 4 5 3v2h2v2h2l7 8 5 6 8 7 9 8 13 10 15 10 11 6 22 11 17 7 9 3 16 5v2l10 2 18 2 9 2 11 2 1-4v-7l-3-5-3-3 5-2 4-1 1-2 5-4 14 1 21 4 7 1 50 1 19 1 4-2h12l11-1 4 2 2 4 7 1 5 3 3 3-12 6h-3v2h17l7-1 6 1h14l28-10 26-12 19-11 14-10 10-9 4-4-1 6-9 9-14 10-8 3-9 7-24 12-7 1-10 6-23 8h-8l-7 3-2 2-29 6-4-1-1-2-7 2-2 3-27 2h-6l-1-4-9-1-2 1v4h-37l-4-2 2-2h15v-2l-27-2-36-5-3-1v-2l-13-1-25-5-16-5-12-3-21-8-17-8-16-9v-2l-5-2-4-2-5-3v-2l-5-2-14-11-11-10-8-7-10-10v-3l-4-2-9-9-7-8-11-13-14-19-11-17-14-25-7-14-7-18-1-1-32-1-13-1z" fill="#EFF6F7"/>
<path transform="translate(382,521)" d="m0 0 5 1 18 8 17 9 14 11 10 14 5 13 1 6v17l-4 15-7 11-11 12-12 9-15 7-15 5h-7v-136z" fill="#FCFCFD"/>
<path transform="translate(188,507)" d="m0 0 10 3 23 9v1l-35 4-64 8-48 5-13 3-11 6-10 12-5 11-1 5v8l4 20 7 29 7 21 9 21 10 18 10 14 13 16 24 24 11 9 13 10 13 8 18 10 20 9 21 7 44 11 15 3 1 8 1 36 1 13 4 10 7 7 12 8 10 3 8 1 34 1v1h-39l-12-3-12-7-9-8-9-11-7-11-2-7-1-40-9-3-33-8-27-9-24-11-14-8-16-11-14-11-12-11-8-7-10-10-9-11-8-9-12-17-9-15-12-23-5-11-9-27-7-28-1-5v-18l5-13 8-11 9-7 13-5 22-3 106-12h4z" fill="#BFBFC2"/>
<path transform="translate(313,233)" d="m0 0h4l1 22v89l-6-1-21-11-10-9-6-8-4-8-2-8v-21l3-12 7-11 7-7 16-10z" fill="#FBFBFB"/>
<path transform="translate(1461,1220)" d="m0 0h11l5 5 6 12 13 36 7 11 6 7 16 8 5 1 17-1 50-8h6v1l-18 4-2 1 3 3 6 4 12 12 9 14 2 8v42h-1l-1-40-2-9-8-11-4-5-10-7-9-3h-112l-4-2-8-25-4-20-1-9v-12l2-8 4-7z" fill="#FDFDFD"/>
<path transform="translate(1485,1512)" d="m0 0h1v8l21 3 42 8 16 2h35l16-3 25-9 16-6 8-2h17l11 4 8 6 9 9 10 15 8 16 16 35 12 26 9 20 11 24 7 16 4 12 1 6v10l-2 4-1-18-6-17-17-37-15-33-16-35-9-20-6-11-8-10-7-5-6-2-7-1h-10l-14 3-16 6-22 8-22 4h-27l-27-4-26-5-41-9-2-4z" fill="#BFBFC2"/>
<path transform="translate(1167,1501)" d="m0 0h55l1 2-9 17-8 10-11 13-14 14-11 9-16 13-8 7-8 9-4 8-1 4v15l3 12 16 36 6 12 16 36 11 24 11 23 9 11 13 9-3 1-10-7-7-7-10-14-11-23-13-29-16-35-17-37-8-18-2-9v-9l4-13 7-10 7-7 13-10 10-8 10-9 13-12 12-14 8-11-32-1-6-1z" fill="#BFBFC2"/>
<path transform="translate(1349,503)" d="m0 0 5 2-3 11-3 14-3 8-3 3-1 5 1 5 7-1 12-6h3l-1 3-16 8-9 3-5 16v3l26-11 22-12 18-12 13-8 11-3h18l13 5 14 12 9 10 8 13-1 3-7-12-12-12-7-4-5-1h-17l-9 2-12 6-11 8-19 12-24 12-21 8-18 5-3-1 5-6 6-16 8-27 2-8 2-5 3-17 3-14z" fill="#BFBFC2"/>
<path transform="translate(581,1747)" d="m0 0 12 1 8 3 6 1-2 3 1 1h15l12 2 14-1h20l9 2 14-1 6 1 6-1h12l5 1h12l9 4-1 2h-9l-3 1h-86l-4 1v3l-2 1h-32v-4h-9l-2 3-12 1h-22l-2-4-15-6-9-6-2-3 14 3 10 1 7-2 3 1h9l-1-5z" fill="#EFF5F6"/>
<path transform="translate(1176,1351)" d="m0 0h1l1 84 1-7-1-28v-36l1-7 9-3h3v3h2v-2h5v2l9-2v2h8v-2h7l13 4v5h-3v2l-4-1-2-4-2 1-2 3-1 3-6-3-2 2-5 1-7 1h-4l-3 16h-2l2 10-2 7v3l1 5-2 5-1 12 3 9 2 4h2v4l6 1 3 1h3 2l1 3-9 3h-6l-1 3 2 1h69l4 2h-92l-3-1z" fill="#F62FAC"/>
<path transform="translate(1378,1749)" d="m0 0h11l36 8 41 11 21 5 34 7 29 5 20 1h39l3-3 1-5 8 2 3 2h15l8-2 10-2 3-3h10l7-1h8l18-6 8-1 12-2 10-4 2 1-2 4-20 7-9 4-4-1h-2l-5 1-2 5-28 7-5-1 1-2-11 2-1 5-3 1-30 2-1-4-10-1-1 9h-34v-6l1-3-17-3-30-5-35-7-42-11-44-11-13-3-10-1z" fill="#EFF6F7"/>
<path transform="translate(1419,241)" d="m0 0h2l-1 9-22 88-4-2-12-10-14-10-13-8-17-9-24-8-19-4-8-1h-28l-18 3-20 6-17 9-10 8-8 7-11 14-6 10-6 12-3 4-2-1v-10l5-11h2l2-5 6-9h2v-2h2l1-4 6-7 4-1 1-3 10-6 5-4 5-2 8-4 9-4 27-6 15 1 10-1h9l14 2 10 2 13 4 7 2 10 4 14 7 3 2 5 2 9 5 7 5 2 1v3l4 1 1 3h8l4-2 3-15 1-1 4-20 3-11 2-7 3-9 3-15z" fill="#14ACEB"/>
<path transform="translate(1249,137)" d="m0 0h33l28 3 31 6 26 7 25 9 26 11 16 7 2 2-1 5h-3v-4l-5-2-11-5-8-4-32-12-10-3-8-3-26-6-19-3-15-2-19-2h-27l-32 2-18 3-31 6-11 3-16 4-18 6h-4v2l-16 6-4 3-7 3-5 1v2l-14 8-5 4-11 8-11 9-10 9-7 6-2 3h-2l-2 5h-2l-2 5-4 6-5 5-7 11h-2l-1 6-6 8-7 13-6 13-1 4h-2l-1 6-1 5h-2l-2 9-2 3-2 11-2 1-3 9-3 6h-1v-7l12-35 9-21 10-19 14-22 13-16 7-8 6-7 8-7 13-12 18-13 20-12 23-11 24-9 25-7 41-8 29-3z" fill="#16ADEC"/>
<path transform="translate(1461,1220)" d="m0 0h11l5 5 6 12 13 36 7 11 6 7 16 8 5 1 17-1 50-8h6v1l-18 4-2 1 3 3 6 4 12 12 9 14 2 8v42h-1l-1-40-2-9-8-11-4-5-10-7-9-3h-112l-4-2-8-25-4-20-1-9v-12l2-8 4-7zm1 1-5 3-4 9v19l3 17 4 16 2 6 4 1 40-1-4-6-8-10-8-16-6-20-8-16-3-2z" fill="#BFBFC2"/>
<path transform="translate(439,1645)" d="m0 0h76l1 67 1 17 2 9 6 8 5 6-4-2-10-10-10-14-4-10v-68l-16 1v18h-3v-12h-18l-1-6-10-1v6l-1 1h-32l-1-5 19-1-3-2z" fill="#BFBFC2"/>
<path transform="translate(559,1718)" d="m0 0h180v1l-8 1 1 4h2v4l-2 1h-45l-19-1h-43l-27 1h-26v-2l-4 1-4-1 3-2h5l-1-3 1-1h-5v-2h-8z" fill="#E9F0F1"/>
<path transform="translate(1170,1619)" d="m0 0h2v2h7l13 28 9 20 19 42 13 29-1 5-5 1-11-8-5-7-10-26-3-7-9-25-5-11-3-10-5-11v-2h-2l-5-13z" fill="#ECF3F4"/>
<path transform="translate(1684,1730)" d="m0 0 9 1 5-1 2 2-6 3h-6-2l-8 3 7-1 1-1 9-1 9-2-1 2-8 4-7 3-5 2-17 3-9 2-8 2h-10l-5 3-7 1h-20l-30-1-6 2h-11l-7-3-4-2-2-2-4 2-7-2-2-3h3l1-3 11-1 16 2 16 1h21l26-2 27-5z" fill="#EDF4F5"/>
<path transform="translate(558,1453)" d="m0 0h1l1 51-1 1h-185l1 95 155 1 28 1 1 1v115h-3l-2-8v-2h-2v-2h-3l-1-8 1-9 2-2 1 6 1 9h2l2-17-1-63h-3l-1 2h-2l-1 3-2-5-3 2-4-5 2-4 3 3-2-4-6-2-4-5h4l-14-3-11-1-138-1-1-1v-97h185z" fill="#D5D8DA"/>
<path transform="translate(879,1292)" d="m0 0 1 2-2 4 33 1 16 2 9 5 11 11 8 7 9 12 2 6 1 9 1 98 1 5 3 1v-32l3-1v33l-3 2-6 1-1-64v-25l-1-26-5-10-11-12-5-4-8-3-58-1-8-1 1-4z" fill="#BFBFC2"/>
<path transform="translate(513,740)" d="m0 0 2 1-2 4-7 6h-3v2l-10 6h-5l-2-2-9 6v-2l-12 5-9 3-6 3h-9l-8 2-2 4-4 2h-9v3l-12 2-10 2-4 7-3 7h-1v-5h-2l-1-5h-2l-1 65h-1v-81l1-1 37-4 24-4 28-7 16-6 23-11z" fill="#E9EFF1"/>
<path transform="translate(262,788)" d="m0 0 7 1 9 1 8 1h4v2h5l2-3h4l3 12 1 11v6l-2-2-2-7-4 2-2 2-2-1-1 4-1 19-5 4-2-10 1-7 1-5-5-9-1-1-2 3-3-5-1-3h-3v-2l-7 1h-8l-7-4-1-2-3-1 1-3z" fill="#EFF6F7"/>
<path transform="translate(663,594)" d="m0 0h3l-1 9-5 20-5 11-2 10-7 17-7 12-5 11-8 14-8 10-4 4-6 10-12 13-7 7-7 5-7 8-16 13-13 7-5 5-18 10-7 4-8 2-10 6-19 7-9 1-5 1-8 4-22 6-1 2-3-1-1-3 8-3 43-12 31-12 22-12 17-11 16-12 14-12 6-5 3-4h2l2-4 11-12 8-10 10-15 10-17 8-15 8-20 7-20 4-23 2-4z" fill="#BFBFC2"/>
<path transform="translate(1558,1353)" d="m0 0 1 2 3-1 2 4-2 6 1 2-6 2h-3l-1-2h-3l-9-2h-15l-4 1-4-1-9 1-3-1h-7l1-2 2-1-3-1-6 1v2l4-1 1 2h-16l3-2 2 1v-2h-3v-2h-2l-1 5h-24l-2 1-2-2-4-1v-3l1-2h3v-2l5 1 4-1h11l4-1v2l3-1 1 1h12l2-1 2 1 14-1 3 1 2-1v2h5v-2h7 1l12-1 4 1 4-1h8z" fill="#F62FAC"/>
<path transform="translate(814,1645)" d="m0 0h39l7 1 1 6-1 3h-33l-2-7-7 1-3 6h-22l-1 7-3 1-1-13-2 1-1 7v14l-1 27v11l-2 1v-65z" fill="#EFF6F7"/>
<path transform="translate(528,331)" d="m0 0h7v1l-16 3-23 4-7 2 5 3 16 6 16 8 26 14 17 12 14 11 22 22 16 20 10 15 10 18 8 19 5 18 3 18v7h-1l-6-29-5-17-9-20-11-19-12-16-11-13-11-12-11-10-15-11-16-10-14-8-29-13-24-9-11-3 1-2 17-2 25-5z" fill="#BFBFC2"/>
<path transform="translate(1334,1753)" d="m0 0h3l-2 5-21 6-8 3-7-1-5 3h-2l-2 4-25 12-12 4-2 5-17 4h-3v2h-8l-4-2-21-6-5-2-1-4 9 3 8 3 11 2h11l6-3 5-1h3v-3h2v-2l8-2 2-3 13-4 5-4 13-6 7-1 4-6 3-2h8l10-2 3 1z" fill="#EEF5F6"/>
<path transform="translate(740,1504)" d="m0 0h183v98l-127 1-3 1h-13l-12 3-13-1-6-2-3 4-4 1-1 3-1 106h-1v-115l2-2h181v-96h-182z" fill="#BFBFC2"/>
<path transform="translate(993,1050)" d="m0 0 4 8 1 6v10l-3 12-5 12-4 10-9 16-8 12-4 10-12 21-5 7-5 12-9 16-5 7h-2l-3 10-8 16-8 13-4 5-4 11-7 12-1 4 4 2-8 1h-2l-2 4-1-2 6-9 10-19 10-18 7-12 6-12 10-17 6-11 9-17 9-16 13-23 6-12 12-22 5-12 2-12v-8l-1-7z" fill="#BFBFC2"/>
<path transform="translate(867,609)" d="m0 0 55 1 3 2 11 29 10 22 10 17 13 19 14 18 9 10 9 11h-3l-10-10-7-8-11-13-14-19-11-17-14-25-7-14-7-18-1-1-32-1-13-1z" fill="#BFBFC2"/>
<path transform="translate(1486,172)" d="m0 0h4l-2 11-6 20-2 6-2 15-7 24-2 6-2 14-6 22-4 9-1 5h2l-2 9-6 22-4 6-1 7 1 4-8 14-8 9-5 3-3-1h2v-2l5-4 8-11 5-9 1-9 5-17 7-30 7-27 17-68 6-23z" fill="#BFBFC2"/>
<path transform="translate(1485,576)" d="m0 0 2 1v11l1 7v158l1 1 2-9 1-14h3v10l-2 14-4 9-6 5 1-61v-39z" fill="#EAF0F1"/>
<path transform="translate(1603,1490)" d="m0 0 1 3-5 5-9 6-10 3h-8l-1-3h-8l-2 8-4 1h-1l3 2v3l-8-1-25-5-1-4 2-1-1-2h-39v-3l6-1 62 1h27l16-8z" fill="#DDE1E3"/>
<path transform="translate(814,1602)" d="m0 0h96l1 4-9 3-1 1-11 1h-16l-20-3-20-2h-7l-6-1-7 1-10-1v-1z" fill="#F1F7F8"/>
<path transform="translate(1469,1724)" d="m0 0 10 2 26 7 23 5-4 2-4 1v3l5 1-3 1-1 2-12-1-9-3-13-3-8-2-8-4v-1h12l-5-1-6-1-4-4-1-3z" fill="#F7F8F9"/>
<path transform="translate(439,1645)" d="m0 0h76v1l-14 1v1l-15 1v18h-3v-12h-18l-1-6-10-1v6l-1 1h-32l-1-5 19-1-3-2z" fill="#EFF6F7"/>
<path transform="translate(1264,1521)" d="m0 0h4l1 5-4 1v-3h-2v5 3l-2 1-2-1v4l2 3v3h-2l-3 6-4 2-3 6-4 5-4 1-1 3-4-1-2 4-3 7-10 9-4 2v2h-2l-1 3-1 2h-2l-1 2h-2l-3 3h-2l1 3-5 2-2 3h-2l-1 4h-3v2l-4 1-2-1v2l-3 2h-3l2 7h-2l-2-4 1-5 9-7 14-11 14-12 16-16 7-8 13-18 11-20z" fill="#DC0F96"/>
<path transform="translate(1405,1708)" d="m0 0 14 2 41 11 8 2-2 1-1 3-2 1h-7l-9-3 8 4-4 1-13-3-6-2-2-2h-7l-12-3-9-1-1-5h3v2l9 2 1-2 9-1-13-1-10-4v-1z" fill="#FAFAFA"/>
<path transform="translate(996,732)" d="m0 0 4 2v2h2v2h2l7 8 5 6 8 7 9 8 13 10 15 10 11 6 22 11 17 7 9 3 16 5v1l-13-1-6-1-21-8-17-8-16-9v-2l-5-2-4-2-5-3v-2l-5-2-14-11-11-10-8-7-10-10-3-7z" fill="#EFF6F7"/>
<path transform="translate(1351,1704)" d="m0 0h29l18 2-3 4h-18l2 3 5 2v1l-25-1v-6l-5-1-13 1-5 2-8 3h-3v-2l-5 2h-5v-4l27-5z" fill="#ECF2F3"/>
<path transform="translate(1675,1278)" d="m0 0h7l-1 2-6 1-2 5-3 2-21 3-11 1-1-4-9 2-1 4-13 2v3l5 7v3l-4-1-7-11v-3l10-3-1-2 15-4z" fill="#EBF2F3"/>
<path transform="translate(1176,1457)" d="m0 0 95 1 1 1v29l-1 6h-1v-20l-5 4-4-2-3-5-2-1v-3h-2l-4-4v-2l-6-1h-67z" fill="#EAF0F1"/>
<path transform="translate(377,1602)" d="m0 0h104l2 3-18 1h-46l-18 1h-6l-8-2-9-1z" fill="#F0F6F7"/>
<path transform="translate(1482,771)" d="m0 0 1 4-7 8-11 9-6 4-8 3-9 7-24 12-7 1-10 6-23 8-10-1 4-2 27-9 20-8 17-8 19-11 14-10 10-9z" fill="#BFBFC2"/>
<path transform="translate(1683,1574)" d="m0 0 3 4 2 7-3 3h-3l1 3h-6l-1-3-10 2-3 2h-3l-1 3-3 1h-10l-1-3h2l2-2v2l2-1 2-3 5-1h-1-4l1-2 2 1v-2l7-1 4-1h3v2h2v-3h-5v-1l5-1 2-5h8z" fill="#EA22A2"/>
<path transform="translate(825,1645)" d="m0 0h28l7 1 1 6-1 3h-33l-2-7-2-2z" fill="#EFF6F7"/>
<path transform="translate(849,308)" d="m0 0h3l-2 6-8 16-5 15-3 15-7 25-3 12-6 31h-4l1-8 5-21 7-28 8-27 2-11 8-18z" fill="#BFBFC2"/>
<path transform="translate(1378,1749)" d="m0 0h11l36 8 41 11 21 5 34 7 35 6 10 1 2 2-16-1-30-5-35-7-42-11-44-11-13-3-10-1z" fill="#BFBFC2"/>
<path transform="translate(741,1601)" d="m0 0 55 1-3 2h-13l-12 3-13-1-6-2-3 4-4 1-1 3-1 106h-1v-115z" fill="#D8DCDE"/>
<path transform="translate(1394,617)" d="m0 0h3v2l-9 5-15 7-16 6-16 5-20 4-13 2-7 1h-8l1-3 33-5 16-4 16-5 21-8z" fill="#08A2E1"/>
<path transform="translate(309,500)" d="m0 0 7 2 2 4v135h-1l-1-61-1-13-1-39-1-18z" fill="#DDE1E3"/>
<path transform="translate(1347,1745)" d="m0 0h21l29 4 15 4-4 1-19-4h-11l-9 1-1 1h-7l2-1v-2l-19 3-7 3v-2l-16 4 1-2 8-3 7-4 7-2z" fill="#EFF6F7"/>
<path transform="translate(1471,1734)" d="m0 0h10l5 2 11 1 5 3 16 2-6-4 3-2 13 2-4 2-4 1v3l5 1-3 1-1 2-12-1-9-3-13-3-8-2-8-4z" fill="#EDF4F5"/>
<path transform="translate(996,732)" d="m0 0 4 2v2h2v2h2l7 8 5 6 8 7 9 8 13 10 15 10 4 5-10-4-6-4v-2l-5-2-14-11-11-10-8-7-10-10-3-7z" fill="#EDF4F5"/>
<path transform="translate(1485,576)" d="m0 0 2 1v11l1 7v73l-2 1-1-3z" fill="#DBE0E1"/>
<path transform="translate(1543,1507)" d="m0 0h19l-1 5-4 1h-1l3 2v3l-8-1-25-5-1-4z" fill="#BFBFC2"/>
<path transform="translate(971,1602)" d="m0 0 3 1-3 9-8 16-16 15-12 6-13 4h-4v-4l17-4 11-6 10-9 7-10 5-11z" fill="#BFBFC2"/>
<path transform="translate(444,781)" d="m0 0h6l-1 4 1 3-5 1 5 2 3 3v2h-20v-2l9-1v-3h-5-3l-7 1-2-5 4-3z" fill="#EFF6F7"/>
<path transform="translate(1360,367)" d="m0 0 4 2 13 8 11 4 20 2v1h-16l-10-2-10-5-11-7-2 12-1 2 11 2 5 3-2 2-10-3-2 10-3 9-5 2 1-6h2v-7l2-10 1-10z" fill="#BFBFC2"/>
<path transform="translate(298)" d="m0 0h34v7h-32l-2-1z" fill="#BFBFC2"/>
<path transform="translate(1684,1730)" d="m0 0 9 1 5-1 2 2-6 3h-6-2l-13 5-5 2-14 1v2l-7 1-2-1v-2l8-2 2-3z" fill="#F4F6F7"/>
<path transform="translate(1576,1793)" d="m0 0h26v7h-34v-6z" fill="#BFBFC2"/>
<path transform="translate(1195,628)" d="m0 0 5 2 10 6 16 6 25 5 40 1-4 2h-41l-16-3-15-5-8-4-10-6v-2h-2z" fill="#0EA6E5"/>
<path transform="translate(1405,1708)" d="m0 0 14 2 15 4-1 4-5 2 2 2-7 1-12-3-9-1-1-5h3v2l9 2 1-2 9-1-13-1-10-4v-1z" fill="#EDF4F5"/>
<path transform="translate(431,835)" d="m0 0 4 1v8l-3 16-4 9-4 7-4 8-8 8-13 9-4 1 1-4 11-7 9-8 6-9 6-14 3-16z" fill="#BFBFC2"/>
<path transform="translate(1739,1712)" d="m0 0 4 2-1 3-10 5-7 2-9 2 1 2-10-1v-3l-2-2 17-7 2 1 1 2 3-2 7-2z" fill="#EFF6F7"/>
<path transform="translate(787,1718)" d="m0 0 3 1-1 7-5 12-7 10-9 7-8 7-11 5-8 3h-5v-3l15-5 13-7 11-10 8-14 3-10z" fill="#BFBFC2"/>
<path transform="translate(344)" d="m0 0h33l1 1v5l-8 1h-16l-10-1z" fill="#BFBFC2"/>
<path transform="translate(1229,1715)" d="m0 0 5 1-2 1 4 5-1 2-2 1 5 1 1 3h2v3l3 2-3 5-2 2-5-1-5-12-4-8 1-3 2 1z" fill="#EA22A2"/>
<path transform="translate(1371,155)" d="m0 0 10 3 21 8 20 9 13 6 1 4-3 3-1-5-5-2-11-5-8-4-32-12-6-2z" fill="#16ADEC"/>
<path transform="translate(1192,1786)" d="m0 0 9 3 8 3 11 2h11l14-3 6-3h3l-3 6-17 4h-3v2h-8l-4-2-21-6-5-2z" fill="#BFBFC2"/>
<path transform="translate(198,564)" d="m0 0h13v1l-23 3-38 4-34 4-22 3h-6l3-3 18-2 17-1 12-2 15-2 3-1 39-3z" fill="#E0E4E6"/>
<path transform="translate(1351,416)" d="m0 0 4 1-2 9-3 11 1 13-2-1-2-6-2 1-3 9v7l5 8 2 5-1 3-7-13-3-5 3-11 5-13 4-15z" fill="#BFBFC2"/>
<path transform="translate(513,740)" d="m0 0 2 1-2 4-7 6h-3v2l-10 6h-5l-4-3 3-3 23-11z" fill="#EDF2F3"/>
<path transform="translate(1024,698)" d="m0 0 5 5 15 16 8 8 11 9 2 3-4-2-11-6v-2l-4-2-14-14v-2h-2v-2h-2l-4-8z" fill="#EBF2F3"/>
<path transform="translate(657,532)" d="m0 0h1l2 12 1 33 2 17v5l-2 1-1 5-2-1z" fill="#E5EBEC"/>
<path transform="translate(1385,778)" d="m0 0 2 1-2 3 3 3-12 4h-9l-2 2h-10l3-2-4-2 23-6z" fill="#EBF1F2"/>
<path transform="translate(573,692)" d="m0 0 1 3-4 7-3 3h-2l-2 4-7 6-10 7-2-1 2-5 3-1v-2l8-7 5-6h2l1 2 4-6z" fill="#EFF5F6"/>
<path transform="translate(827,1650)" d="m0 0h33v5h-33l-1-4z" fill="#BFBFC2"/>
<path transform="translate(1351,1704)" d="m0 0h12v1l-8 1-1 2-13 1-5 2-8 3h-3v-2l-5 2h-5v-4l27-5z" fill="#ECF1F2"/>
<path transform="translate(873,1650)" d="m0 0h33l-1 5h-33z" fill="#BFBFC2"/>
<path transform="translate(420,1650)" d="m0 0h33l1 4-1 1h-32z" fill="#BFBFC2"/>
<path transform="translate(1102,1346)" d="m0 0h5v15l-1 19-5-1z" fill="#BFBFC2"/>
<path transform="translate(385,903)" d="m0 0 3 1-5 3-12 1h-36l-1-3 43-1z" fill="#BFBFC2"/>
<path transform="translate(1469,1724)" d="m0 0 10 2 14 4v5l-6 1-5-3h-8l-5-3-2-5z" fill="#EBF1F2"/>
<path transform="translate(1359,832)" d="m0 0h7l-5 6-29 6-4-1 1-3 24-5z" fill="#BFBFC2"/>
<path transform="translate(1334,1753)" d="m0 0h3l-2 5-21 6-8 3-5-1-1-2 27-9z" fill="#BFBFC2"/>
<path transform="translate(557,1686)" d="m0 0h1v32h-2l-2-8v-2h-2v-2h-3l-1-8 1-9 2-2 1 6 1 9h2z" fill="#EFF6F7"/>
<path transform="translate(1446,1718)" d="m0 0 10 2 12 3-2 1-1 3-2 1h-7l-6-2-8-3 1-4z" fill="#EDF2F3"/>
<path transform="translate(1102,1391)" d="m0 0h4v35l-4-1z" fill="#BFBFC2"/>
<path transform="translate(905,635)" d="m0 0 4 2 10 19 5 10v4l-4-2-11-21-4-9z" fill="#BFBFC2"/>
<path transform="translate(1123,818)" d="m0 0 8 1 23 6 25 5 18 3v2l-14-2-29-5-23-6-8-3z" fill="#BFBFC2"/>
<path transform="translate(953,714)" d="m0 0 4 1 9 10 9 11 3 3v3l-5-2-13-14-7-8z" fill="#BFBFC2"/>
<path transform="translate(1426,978)" d="m0 0h34l-1 4h-33z" fill="#BFBFC2"/>
<path transform="translate(374,1650)" d="m0 0h35l-1 4h-33z" fill="#BFBFC2"/>
<path transform="translate(1471,978)" d="m0 0h17l15 1 3 3-1 1h-17l-16-1z" fill="#BFBFC2"/>
<path transform="translate(1353,460)" d="m0 0 5 1 1 8v16l-2 8-6 3v-8l-1-7 2 3 2 5 1-5v-12z" fill="#BFBFC2"/>
<path transform="translate(1720,1273)" d="m0 0 3 1-8 5-17 4-15 2-1-3 12-3 24-5z" fill="#BFBFC2"/>
<path transform="translate(298,1475)" d="m0 0h5l-1 4-1 29-4 1v-23z" fill="#BFBFC2"/>
<path transform="translate(1621,1288)" d="m0 0h7v5l-1 1-13 2v3l5 7v3l-4-1-7-11v-3l10-3-1-2z" fill="#BFBFC2"/>
<path transform="translate(927,677)" d="m0 0 4 2 11 15 7 11v3l-4-2-9-12-9-14z" fill="#BFBFC2"/>
<path transform="translate(789,1674)" d="m0 0h4v15l-1 19-4 1z" fill="#BFBFC2"/>
<path transform="translate(1144,1709)" d="m0 0 4 1 7 14 7 16v4l-3-1-14-29z" fill="#BFBFC2"/>
<path transform="translate(1102,1436)" d="m0 0 4 1 1 16 4 17-5-1-3-12-1-7z" fill="#BFBFC2"/>
<path transform="translate(298,1339)" d="m0 0h3v24l-1 11h-4l1-34z" fill="#BFBFC2"/>
<path transform="translate(790,1651)" d="m0 0h25v4h-22l-1 7-3 1v-11z" fill="#BFBFC2"/>
<path transform="translate(1125,1668)" d="m0 0 4 1 15 30v3l-4-1-11-23z" fill="#BFBFC2"/>
<path transform="translate(1761,1208)" d="m0 0h4l1 2v12l-4 17-3 4-6 2 1-3h3l3-9 1-6z" fill="#BFBFC2"/>
<path transform="translate(1017,778)" d="m0 0 5 1 15 10 11 7v3l-5-1-11-7-14-10z" fill="#BFBFC2"/>
<path transform="translate(1233,844)" d="m0 0 40 1v3h-37l-4-2z" fill="#BFBFC2"/>
<path transform="translate(1056,802)" d="m0 0 6 1 19 9 8 4-1 3-9-3-20-9-3-3z" fill="#BFBFC2"/>
<path transform="translate(816,438)" d="m0 0 3 1 6 15 4 8-1 9-3 1-2-11-6-15z" fill="#BFBFC2"/>
<path transform="translate(1153,1187)" d="m0 0h2l-1 13-2 18-2 5h-2l1-21 2-14z" fill="#BFBFC2"/>
<path transform="translate(1099,820)" d="m0 0 10 2 22 7 2 3-4 1-20-6-10-4z" fill="#BFBFC2"/>
<path transform="translate(641,235)" d="m0 0 4 2 4 15 1 5v12l-3 1-4-24-3-10z" fill="#BFBFC2"/>
<path transform="translate(347 1e3)" d="m0 0h33v4h-34z" fill="#BFBFC2"/>
<path transform="translate(1346,1753)" d="m0 0h11l20 2 4 1-1 3-34-2z" fill="#BFBFC2"/>
<path transform="translate(1143,833)" d="m0 0h7l26 5v4l-10-1-23-5z" fill="#BFBFC2"/>
<path transform="translate(422,806)" d="m0 0h4l1 4-5 5-6 3v3l5-2 3 1-3 5-5-1-1-4-3-1 4-9z" fill="#EFF6F7"/>
<path transform="translate(1108,1626)" d="m0 0 4 4 10 21 3 8-1 3-4-5-11-23z" fill="#BFBFC2"/>
<path transform="translate(1603,1490)" d="m0 0 1 3-5 5-9 6-10 3h-8l1-3 12-3 13-7z" fill="#BFBFC2"/>
<path transform="translate(484 1e3)" d="m0 0h32v4h-33l-1-3z" fill="#BFBFC2"/>
<path transform="translate(984,748)" d="m0 0 5 2 13 13 8 7v4l-6-4-4-3v-2l-4-2-9-8-3-4z" fill="#BFBFC2"/>
<path transform="translate(382,521)" d="m0 0 5 1 12 5-4 2-3 4-5-1-4-3-1 10h-1v-16z" fill="#E3E8E9"/>
<path transform="translate(1107,1583)" d="m0 0h2l-2 13v23h-2l-3-9v-10l3-15z" fill="#BFBFC2"/>
<path transform="translate(297,1431)" d="m0 0 4 1 1 18 2 10 1 4h-4l-3-10-1-9z" fill="#BFBFC2"/>
<path transform="translate(243,834)" d="m0 0h2l1 3v10l2 15 2 5v3l-4-2-2-6-2-10-1-17z" fill="#BFBFC2"/>
<path transform="translate(1399,786)" d="m0 0h7l5 1 4-1 5 3 1 1v5l-3 2-8-3v-3l-3-1-14-1 3-2z" fill="#EFF6F7"/>
<path transform="translate(806,569)" d="m0 0h3l3 10 7 11 6 8v3l-4-2-8-10-6-12z" fill="#BFBFC2"/>
<path transform="translate(1292,1767)" d="m0 0 3 1-3 1-2 4-25 12-5 1v-3z" fill="#BFBFC2"/>
<path transform="translate(465,1651)" d="m0 0h21v16h-3v-12h-18z" fill="#BFBFC2"/>
<path transform="translate(1148,1233)" d="m0 0h3l2 28v7l-4-1-1-15z" fill="#BFBFC2"/>
<path transform="translate(1623,1454)" d="m0 0h3l-1 7-5 13-7 10-6 4-2-1 7-8v-3l3-1 5-11z" fill="#BFBFC2"/>
<path transform="translate(1411,979)" d="m0 0h4v4l-34 3v-4z" fill="#BFBFC2"/>
<path transform="translate(1246,61)" d="m0 0 3 1-1 4h-33v-3z" fill="#BFBFC2"/>
<path transform="translate(485,1722)" d="m0 0 4 2 8 16 10 13-2 1-6-5-8-11-6-12z" fill="#BFBFC2"/>
<path transform="translate(1187,841)" d="m0 0h12l22 3v3l-22-1-12-2z" fill="#BFBFC2"/>
<path transform="translate(37,679)" d="m0 0 4 2 18 27-1 3-5-5-11-16-5-8z" fill="#BFBFC2"/>
<path transform="translate(1332,640)" d="m0 0 4 1-1 2-14 3-13 2-7 1h-8l1-3 33-5z" fill="#0CA5E4"/>
<path transform="translate(5,551)" d="m0 0h2l-1 34-2 1-2-9v-18z" fill="#BFBFC2"/>
<path transform="translate(28,328)" d="m0 0 4 1 5 25 1 8-3-1-4-14-3-15z" fill="#BFBFC2"/>
<path transform="translate(1113,1301)" d="m0 0 3 1-5 12-4 15-2 7-3-1 2-12 5-16z" fill="#BFBFC2"/>
<path transform="translate(411 1e3)" d="m0 0h14v4h-34v-3z" fill="#BFBFC2"/>
<path transform="translate(297,1385)" d="m0 0 3 1 1 33-4 1z" fill="#BFBFC2"/>
<path transform="translate(625,191)" d="m0 0 5 4 11 27 1 5h-3l-12-29-2-4z" fill="#BFBFC2"/>
<path transform="translate(1747,1576)" d="m0 0 4 1 8 16 6 13-1 4-4-5-13-28z" fill="#BFBFC2"/>
<path transform="translate(1620,1318)" d="m0 0 5 1 1 7v26h-3l-2-29z" fill="#BFBFC2"/>
<path transform="translate(1671,1283)" d="m0 0h2l-1 4-13 3-21 2v-3z" fill="#BFBFC2"/>
<path transform="translate(309,1147)" d="m0 0 4 1 13 23 4 8h-3l-4-5-12-22z" fill="#BFBFC2"/>
<path transform="translate(19,638)" d="m0 0 4 4 11 25 2 5-5-1-13-30z" fill="#BFBFC2"/>
<path transform="translate(1733,1761)" d="m0 0 2 1-2 4-20 7-9 4h-3v-3l19-8z" fill="#BFBFC2"/>
<path transform="translate(1684,1730)" d="m0 0 9 1 5-1 2 2-6 3h-6-2l-10 3h-7v-2l-2-1z" fill="#E9EEEF"/>
<path transform="translate(297,1565)" d="m0 0h3l1 35-4-1z" fill="#BFBFC2"/>
<path transform="translate(1729,1534)" d="m0 0 4 2 4 9 9 19v4l-3-1-12-25-2-4z" fill="#BFBFC2"/>
<path transform="translate(331,1186)" d="m0 0 5 2 12 22 4 6-1 3-5-5-11-19-4-7z" fill="#BFBFC2"/>
<path transform="translate(1733,1122)" d="m0 0 4 2 7 14 6 15v3h-3l-9-21-5-10z" fill="#BFBFC2"/>
<path transform="translate(287,1106)" d="m0 0 5 5 12 21 3 5-1 3-5-5-13-24z" fill="#BFBFC2"/>
<path transform="translate(1709,1084)" d="m0 0 4 1 7 9 11 18 1 5-5-4-11-18-7-10z" fill="#BFBFC2"/>
<path transform="translate(624,419)" d="m0 0 5 1 12 20 4 9-1 4-14-24-6-9z" fill="#BFBFC2"/>
<path transform="translate(56,412)" d="m0 0 4 2 7 10 11 16v2h-3l-9-12-10-15z" fill="#BFBFC2"/>
<path transform="translate(1692,1775)" d="m0 0 4 1-3 1-2 5-28 7-5-1 1-2 26-7h5z" fill="#BFBFC2"/>
<path transform="translate(1390,1758)" d="m0 0 8 1 25 6 2 4-8-1-24-6-3-2z" fill="#BFBFC2"/>
<path transform="translate(1163,1751)" d="m0 0 4 1 8 15 9 12v3l-4-2-9-12-8-15z" fill="#BFBFC2"/>
<path transform="translate(301,1608)" d="m0 0 4 4 5 10 8 10 6 8-5-2-5-5-7-8-6-12-1-4z" fill="#BFBFC2"/>
<path transform="translate(297,1519)" d="m0 0 4 1v33l-4 1z" fill="#BFBFC2"/>
<path transform="translate(1112,1479)" d="m0 0 5 1 7 9 10 8 6 4 1 3-5-1-11-8-9-9z" fill="#BFBFC2"/>
<path transform="translate(438 1e3)" d="m0 0h33v4h-33l-1-3z" fill="#BFBFC2"/>
<path transform="translate(217,809)" d="m0 0 25 6 3 1 1 7-4-1-2-3-23-6z" fill="#BFBFC2"/>
<path transform="translate(84,448)" d="m0 0 5 4 7 8 12 12 1 4-5-2-5-6-8-7-7-8-1-4z" fill="#BFBFC2"/>
<path transform="translate(574,327)" d="m0 0h4l-1 3-20 4-14 2v-3l11-3z" fill="#BFBFC2"/>
<path transform="translate(1260,62)" d="m0 0h22l11 1v4l-33-2z" fill="#BFBFC2"/>
<path transform="translate(1434,1769)" d="m0 0 10 2 23 6 2 1v3l-7-1-26-7-2-1z" fill="#BFBFC2"/>
<path transform="translate(596,1051)" d="m0 0 4 1 11 24 3 9h-3l-9-19-6-13z" fill="#BFBFC2"/>
<path transform="translate(647,459)" d="m0 0 4 2 9 27 1 8-3-3-10-30z" fill="#BFBFC2"/>
<path transform="translate(1773,1740)" d="m0 0h3l-2 4-17 10-9 4h-5l2-3 16-8z" fill="#BFBFC2"/>
<path transform="translate(1700,1500)" d="m0 0 5 2 9 7 9 9 5 10-1 3-9-13-7-7-10-8z" fill="#BFBFC2"/>
<path transform="translate(1750,1164)" d="m0 0 4 1 5 16 4 17h-3l-3-8-5-19z" fill="#BFBFC2"/>
<path transform="translate(1368,984)" d="m0 0 3 1-1 3-32 6h-2l1-4z" fill="#BFBFC2"/>
<path transform="translate(1316,842)" d="m0 0 3 1-1 3-27 2h-6l-1-3 4-1z" fill="#BFBFC2"/>
<path transform="translate(174,796)" d="m0 0 10 3 23 8v3l-6-1-21-7-6-3z" fill="#BFBFC2"/>
<path transform="translate(643,278)" d="m0 0 3 3-1 7-7 14-8 8-5 2 12-16 4-9z" fill="#BFBFC2"/>
<path transform="translate(948,1292)" d="m0 0 4 2 8 8 9 14 2 4v3l-3-1-9-15-10-11z" fill="#BFBFC2"/>
<path transform="translate(354,1226)" d="m0 0h3l6 10 9 16 2 3v3l-4-2-13-23-3-5z" fill="#BFBFC2"/>
<path transform="translate(1165,1143)" d="m0 0 2 1-7 22-3 12-3 1 1-9 6-21 2-5z" fill="#BFBFC2"/>
<path transform="translate(274,1066)" d="m0 0h4v8l3 15 3 8-1 3-4-5-4-13-1-5z" fill="#BFBFC2"/>
<path transform="translate(1681,1049)" d="m0 0 7 6 7 7 9 11 1 5-5-4-7-8-6-6v-2h-2l-5-6z" fill="#BFBFC2"/>
<path transform="translate(252,876)" d="m0 0 7 6 4 4v2l4 2 8 6 6 4v2l-5-1-11-8-9-8-4-6z" fill="#BFBFC2"/>
<path transform="translate(6,595)" d="m0 0 4 2 4 16 4 13v4l-3-1-6-19-4-14z" fill="#BFBFC2"/>
<path transform="translate(118,497)" d="m0 0 4 1v2l-9 2-19 2h-8l1-3z" fill="#BFBFC2"/>
<path transform="translate(38,370)" d="m0 0 4 2 3 9 7 17 2 3v3h-3l-7-14-6-16z" fill="#BFBFC2"/>
<path transform="translate(915,252)" d="m0 0 1 3-13 31-4 2 3-10 8-19z" fill="#BFBFC2"/>
<path transform="translate(573,120)" d="m0 0 5 1 9 9 7 8 5 7 1 5-5-5-11-12-1-3h-2l-7-8z" fill="#BFBFC2"/>
<path transform="translate(1786,1659)" d="m0 0 4 1 4 10 4 15v7l-4-2-3-16-4-11z" fill="#BFBFC2"/>
<path transform="translate(966,1466)" d="m0 0 5 3 3 10 1 12v10h-3l-2-22-4-9-2-2z" fill="#BFBFC2"/>
<path transform="translate(970,1332)" d="m0 0 5 1v34h-3l-1-32z" fill="#BFBFC2"/>
<path transform="translate(1751,1251)" d="m0 0 3 1-2 4-7 8-10 8-6 3-4-2 3-2 10-6 10-9z" fill="#BFBFC2"/>
<path transform="translate(882 1e3)" d="m0 0h32v4h-33z" fill="#BFBFC2"/>
<path transform="translate(1493,730)" d="m0 0 2 1v10l-2 14-4 9-6 5 2-6 3-5 3-13 1-14z" fill="#BFBFC2"/>
<path transform="translate(936,214)" d="m0 0h2l-2 5-12 21-6 9-1-3 8-16 8-13z" fill="#BFBFC2"/>
<path transform="translate(603,154)" d="m0 0 5 2 11 18 5 9v3h-2l-14-23-5-7z" fill="#BFBFC2"/>
<path transform="translate(1471,128)" d="m0 0 4 1 7 10 5 13 2 9h-3l-7-19-8-13z" fill="#BFBFC2"/>
<path transform="translate(483,1678)" d="m0 0 3 1 1 33h-4l-1-33z" fill="#BFBFC2"/>
<path transform="translate(1517,981)" d="m0 0 17 2 15 2 3 2v2l-11-1-24-4z" fill="#BFBFC2"/>
<path transform="translate(832,605)" d="m0 0 18 8 15 4v2h-8l-14-4-9-5-2-2z" fill="#BFBFC2"/>
<path transform="translate(27,282)" d="m0 0h3l1 34h-4l-1-33z" fill="#BFBFC2"/>
<path transform="translate(34,236)" d="m0 0 3 1-6 33-3 1 1-14 3-15z" fill="#BFBFC2"/>
<path transform="translate(963,177)" d="m0 0h2l-2 6-11 13-9 11-2 1 1-5 13-16z" fill="#BFBFC2"/>
<path transform="translate(1766,1616)" d="m0 0 4 2 11 23 3 6-1 3-4-4-12-26z" fill="#BFBFC2"/>
<path transform="translate(1171,1518)" d="m0 0 1 3-7 7-8 7-11 8h-2l2-4 13-11 5-4 5-5z" fill="#BFBFC2"/>
<path transform="translate(746 1e3)" d="m0 0h32l-1 4h-32l-1-3z" fill="#BFBFC2"/>
<path transform="translate(64,718)" d="m0 0 4 1 16 17 6 7-2 1-8-7-16-16z" fill="#BFBFC2"/>
<path transform="translate(995,145)" d="m0 0 1 4-7 7-8 7-9 9-3 1 2-4 7-8 12-12z" fill="#BFBFC2"/>
<path transform="translate(96,749)" d="m0 0 4 2 14 11 11 8-1 3-5-3-16-12-7-6z" fill="#BFBFC2"/>
<path transform="translate(1486,548)" d="m0 0 4 2 3 7 2 18v8h-3l-2-20-4-13z" fill="#BFBFC2"/>
<path transform="translate(596,384)" d="m0 0 5 2 2 4h2l9 11 7 8-1 4-12-13-5-6v-2h-2l-5-6z" fill="#BFBFC2"/>
<path transform="translate(512,1757)" d="m0 0 6 2 11 5 16 5 1 2h-7l-13-4-12-6z" fill="#BFBFC2"/>
<path transform="translate(1134,1548)" d="m0 0 3 1-5 5-10 9-9 11h-3l5-8 9-10z" fill="#BFBFC2"/>
<path transform="translate(865 1e3)" d="m0 0 4 1-1 3h-33v-3z" fill="#BFBFC2"/>
<path transform="translate(1492,594)" d="m0 0 3 1v34h-3z" fill="#BFBFC2"/>
<path transform="translate(887,285)" d="m0 0h4v3l-20 7-10 7h-3l2-4 8-5 16-7z" fill="#BFBFC2"/>
<path transform="translate(1202,64)" d="m0 0 2 1v2l-30 4h-5v-3l20-3z" fill="#BFBFC2"/>
<path transform="translate(328,1642)" d="m0 0 16 6 17 3 2 1v3l-9-1-21-6-5-4z" fill="#BFBFC2"/>
<path transform="translate(972,1512)" d="m0 0h3v34h-3z" fill="#BFBFC2"/>
<path transform="translate(972,1377)" d="m0 0h3v34h-3z" fill="#BFBFC2"/>
<path transform="translate(570,1015)" d="m0 0 6 3 11 11 6 9 2 7-5-5-8-11-8-8-2-1v-2h-2z" fill="#BFBFC2"/>
<path transform="translate(1492,640)" d="m0 0 3 1v33l-3 1z" fill="#BFBFC2"/>
<path transform="translate(619,315)" d="m0 0h2l-2 4-10 5-21 6v-4l21-6z" fill="#BFBFC2"/>
<path transform="translate(1623,1363)" d="m0 0 4 2-1 32h-3z" fill="#BFBFC2"/>
<path transform="translate(1211,1065)" d="m0 0h2l-2 6-11 13-8 10-3 2 2-5 4-6 11-14z" fill="#BFBFC2"/>
<path transform="translate(791 1e3)" d="m0 0h31v4h-32z" fill="#BFBFC2"/>
<path transform="translate(528 1e3)" d="m0 0 17 1 15 3 2 4-11-2-20-2-4-1z" fill="#BFBFC2"/>
<path transform="translate(132,776)" d="m0 0 5 1 20 11 7 3v3l-5-1-23-12-4-4z" fill="#BFBFC2"/>
<path transform="translate(665,548)" d="m0 0h3l1 3-1 30-3 1z" fill="#BFBFC2"/>
<path transform="translate(562,356)" d="m0 0 4 1 13 10 10 8 1 4-5-2-1-3-4-2-15-11-4-4z" fill="#BFBFC2"/>
<path transform="translate(72,154)" d="m0 0h2l-2 5-8 13-7 11-4 3 1-5 11-18z" fill="#BFBFC2"/>
<path transform="translate(1194,1652)" d="m0 0 3 4v3h2l2 9h2l9 22 5 9v6l-2-3-11-24-10-22z" fill="#E2169B"/>
<path transform="translate(1645,1499)" d="m0 0h3l-1 3-30 12h-4l1-3z" fill="#BFBFC2"/>
<path transform="translate(377,1265)" d="m0 0 5 4 6 11-1 3h-17l-1-3h15l-7-12z" fill="#BFBFC2"/>
<path transform="translate(1184,1102)" d="m0 0h2l-2 6-13 25-3 2 1-6 8-16 6-10z" fill="#BFBFC2"/>
<path transform="translate(968,1016)" d="m0 0 4 2 5 4 7 8 6 9 3 8-1 3-6-11-8-10-7-8-3-3z" fill="#BFBFC2"/>
<path transform="translate(1325,994)" d="m0 0h2l-2 4-31 10h-2l1-3 28-10z" fill="#BFBFC2"/>
<path transform="translate(875,617)" d="m0 0h25l2 1 3 8v5l-3-3-4-7-23-2z" fill="#BFBFC2"/>
<path transform="translate(1420,378)" d="m0 0 2 1-8 7-11 4-17 2-1-3 15-2 9-3 9-5z" fill="#BFBFC2"/>
<path transform="translate(50,192)" d="m0 0 1 4-9 23-3 8-2 1 1-8 8-23z" fill="#BFBFC2"/>
<path transform="translate(1112,81)" d="m0 0h4l-2 4-27 9-4 1-1-3z" fill="#BFBFC2"/>
<path transform="translate(1157,70)" d="m0 0 3 1-2 3-29 6h-5v-2l16-4z" fill="#BFBFC2"/>
<path transform="translate(1149,1505)" d="m0 0 23 2 9 1v3l-3 1-3-1-19-1-7-2z" fill="#BFBFC2"/>
<path transform="translate(616,1093)" d="m0 0 4 2 11 25 1 6h-2l-11-23-3-7z" fill="#BFBFC2"/>
<path transform="translate(1604 1e3)" d="m0 0 6 1 16 8 11 6v3l-5-2-19-9-8-4z" fill="#BFBFC2"/>
<path transform="translate(1492,686)" d="m0 0h3v33h-3z" fill="#BFBFC2"/>
<path transform="translate(811,523)" d="m0 0h1l-1 10-4 26h-3l1-16 4-17z" fill="#BFBFC2"/>
<path transform="translate(1306,65)" d="m0 0 12 1 21 4v3l-10-1-23-4z" fill="#BFBFC2"/>
<path transform="translate(1479,1781)" d="m0 0 11 2 22 5v3l-12-2-19-4-2-1z" fill="#BFBFC2"/>
<path transform="translate(972,1557)" d="m0 0h3v34l-3 1z" fill="#BFBFC2"/>
<path transform="translate(316,1299)" d="m0 0h2l-2 5-7 10-8 16-2-1 3-9 8-15 4-5z" fill="#BFBFC2"/>
<path transform="translate(1243,1035)" d="m0 0h2v3l-11 9-11 11-6 3 2-4 13-13 8-7z" fill="#BFBFC2"/>
<path transform="translate(823,480)" d="m0 0 1 4-6 23-4 10h-2l2-10 8-26z" fill="#BFBFC2"/>
<path transform="translate(101,120)" d="m0 0 3 1-9 10-11 12-5 5-1-3 10-11 7-8z" fill="#BFBFC2"/>
<path transform="translate(498,71)" d="m0 0 5 1 21 10 6 4 1 3-6-2-15-8-12-5z" fill="#BFBFC2"/>
<path transform="translate(694,1768)" d="m0 0h33l-1 3h-32z" fill="#BFBFC2"/>
<path transform="translate(649,1768)" d="m0 0h33l-1 3h-32z" fill="#BFBFC2"/>
<path transform="translate(1600,1514)" d="m0 0h4l-1 4-11 1h-22v-3l24-1z" fill="#BFBFC2"/>
<path transform="translate(1666,1493)" d="m0 0h12l11 2 2 1v3l-11-2h-23v-3z" fill="#BFBFC2"/>
<path transform="translate(669,1060)" d="m0 0 2 1-13 30-4 6-1-3 10-23 5-10z" fill="#BFBFC2"/>
<path transform="translate(988,647)" d="m0 0 4 5 7 12 7 10-1 2-8-7-2-7-4-2-5-12z" fill="#EBF0F1"/>
<path transform="translate(217,57)" d="m0 0h5l-1 3-31 9h-3l1-3z" fill="#BFBFC2"/>
<path transform="translate(1462,1250)" d="m0 0 4 1 7 23v2l-4-1-7-21z" fill="#BFBFC2"/>
<path transform="translate(651,1102)" d="m0 0 1 3-11 24-3 6-3 1 1-4 11-25z" fill="#BFBFC2"/>
<path transform="translate(294,1024)" d="m0 0 1 3-8 11-9 18h-2l1-6 8-16z" fill="#BFBFC2"/>
<path transform="translate(1281,1011)" d="m0 0h3l-1 3-28 16-3-1 5-4 15-9z" fill="#BFBFC2"/>
<path transform="translate(331,1006)" d="m0 0h4l-1 4-16 3-11 4-5 2 2-4 11-5z" fill="#BFBFC2"/>
<path transform="translate(1455,517)" d="m0 0 5 1 11 7 11 11 2 3-1 3-15-15-12-8z" fill="#BFBFC2"/>
<path transform="translate(1392,87)" d="m0 0 7 1 25 10 2 4-5-1-24-10-5-2z" fill="#BFBFC2"/>
<path transform="translate(252,32)" d="m0 0h2l-1 4-5 12-3 7-14 1v-2l2-1 10-1 4-12 3-6z" fill="#BFBFC2"/>
<path transform="translate(1795,1703)" d="m0 0h2l-2 10-5 12-6 9-4-1 8-12 4-9 1-7z" fill="#BFBFC2"/>
<path transform="translate(354,1280)" d="m0 0h5l-1 3-20 5-12 5-2 1 2-4 10-5 12-4z" fill="#BFBFC2"/>
<path transform="translate(1644,1022)" d="m0 0 5 1 11 8 14 11v2l-4-1-17-13-9-7z" fill="#BFBFC2"/>
<path transform="translate(286,4)" d="m0 0h2l-2 4-13 7-9 7-3 3h-3l1-4 11-8 14-8z" fill="#BFBFC2"/>
<path transform="translate(1645,1789)" d="m0 0h3l-1 4-3 1-30 2v-3l28-3z" fill="#BFBFC2"/>
<path transform="translate(1570,1456)" d="m0 0 2 1-1 3-23 1-22-1 1-2 42-1z" fill="#DDE1E3"/>
<path transform="translate(1147,1275)" d="m0 0h4v2l-19 10-10 7h-2l2-4 13-9z" fill="#BFBFC2"/>
<path transform="translate(71,503)" d="m0 0h6l-1 3-27 4h-7l1-2 13-3z" fill="#BFBFC2"/>
<path transform="translate(661,502)" d="m0 0 3 2 4 29v5l-3-1-4-28-1-6z" fill="#BFBFC2"/>
<path transform="translate(538,92)" d="m0 0 5 1 13 10 9 7 3 5-5-2-8-7-14-10z" fill="#BFBFC2"/>
<path transform="translate(389,5)" d="m0 0 5 1 11 6 11 9 2 5-4-2-11-9-14-8z" fill="#BFBFC2"/>
<path transform="translate(1405,1708)" d="m0 0 14 2 9 3-2 4h-2l-1-2-13-1-10-4v-1z" fill="#ECF0F1"/>
<path transform="translate(289,904)" d="m0 0 36 1v2l-3 1h-18l-13-1z" fill="#BFBFC2"/>
<path transform="translate(30,515)" d="m0 0h3l-2 4-8 7-9 11-5 5 1-5 6-8 8-9h2v-2z" fill="#BFBFC2"/>
<path transform="translate(1349,73)" d="m0 0 16 4 17 5 2 3-2 1-15-5-18-5z" fill="#BFBFC2"/>
<path transform="translate(422,33)" d="m0 0 4 2 5 11 1 6 12 2 1 3-11-2-5-3-7-17z" fill="#BFBFC2"/>
<path transform="translate(604,1768)" d="m0 0h32l-1 3h-31z" fill="#BFBFC2"/>
<path transform="translate(905,1280)" d="m0 0h10l16 3 9 4-1 3-11-4-8-2-12-1-3-1z" fill="#BFBFC2"/>
<path transform="translate(1427,511)" d="m0 0 16 1 4 1v2h-23l-13 1 1-3z" fill="#BFBFC2"/>
<path transform="translate(1434,104)" d="m0 0 5 1 23 12 5 5-1 2-15-9-15-8z" fill="#BFBFC2"/>
<path transform="translate(690,1023)" d="m0 0h2l-2 5-9 13-7 13-2 1 1-6 8-15z" fill="#BFBFC2"/>
<path transform="translate(730 1e3)" d="m0 0h3v4l-20 4-11 4-2 1v-3l8-4z" fill="#BFBFC2"/>
<path transform="translate(926 1e3)" d="m0 0 20 2 13 4 1 3-12-3-23-3z" fill="#BFBFC2"/>
<path transform="translate(1562,988)" d="m0 0 21 5 12 4v2l-3 1-19-6-10-3z" fill="#BFBFC2"/>
<path transform="translate(176,71)" d="m0 0 4 1-3 3-10 4-18 9-3-1 5-4z" fill="#BFBFC2"/>
<path transform="translate(1176,1457)" d="m0 0 68 1v1l-47 1h-20z" fill="#EFF6F7"/>
<path transform="translate(1177,1400)" d="m0 0h2v10l1 21-1 6-1 14h-1z" fill="#EB23A3"/>
<path transform="translate(1402,518)" d="m0 0 2 1-10 8-17 11-5 1 5-5 12-8 11-7z" fill="#BFBFC2"/>
<path transform="translate(1030,119)" d="m0 0h3l-2 4-11 7-12 9-5 1 5-5 16-12z" fill="#BFBFC2"/>
<path transform="translate(1071,97)" d="m0 0h2l-2 4-16 8-11 6h-3v-2l16-9z" fill="#BFBFC2"/>
<path transform="translate(137,92)" d="m0 0h2l-2 4-13 9-12 9h-2l2-4 13-10 10-7z" fill="#BFBFC2"/>
<path transform="translate(454,57)" d="m0 0 7 1 19 6 8 2 1 3-2 1-21-7-10-3z" fill="#BFBFC2"/>
<path transform="translate(558,1768)" d="m0 0h34v2l-12 1h-22z" fill="#BFBFC2"/>
<path transform="translate(1624,1409)" d="m0 0 3 1-1 33h-3v-19z" fill="#BFBFC2"/>
<path transform="translate(528,335)" d="m0 0 4 1 1 3 20 10v3l-4-1-14-8-8-4-1-3z" fill="#BFBFC2"/>
<path transform="translate(1523,1790)" d="m0 0 14 2 20 2-1 3-32-3z" fill="#BFBFC2"/>
<path transform="translate(978,623)" d="m0 0 2 1 8 17 2 2 2 5 3 5-1 3-4-5-10-19-2-5z" fill="#0EA6E5"/>
<path transform="translate(117,480)" d="m0 0 9 6 12 9 1 4-5-1-4-5-14-10z" fill="#BFBFC2"/>
<path transform="translate(1371,155)" d="m0 0 10 3 16 6v3l-5-1-16-6-6-2z" fill="#12AAE9"/>
<path transform="translate(964,1490)" d="m0 0 2 2 1 8v20h-1l-1 11h-1z" fill="#EFF6F7"/>
<path transform="translate(1290,1329)" d="m0 0 1 2-1 5 3 1-2 1-1 5-2-1-1 2-3-6-1 3-3-3v-4l5-1 3 1z" fill="#EB23A3"/>
<path transform="translate(1722,1715)" d="m0 0 2 1v3l-12 6-5-1-2-2z" fill="#F4F5F5"/>
<path transform="translate(1222,642)" d="m0 0 8 1 21 4v1l-5 1h-7l-15-4-2-1z" fill="#0DA5E4"/>
<path transform="translate(1432,192)" d="m0 0h1l-1 9-5 18h-2l1-9 4-16z" fill="#17AEED"/>
<path transform="translate(1288,1766)" d="m0 0h7l-3 2-20 10-2-1 7-6z" fill="#EFF6F7"/>
<path transform="translate(741,1601)" d="m0 0h13v1l-6 1-2 5-4 1-2 3v-10z" fill="#E4E9EA"/>
<path transform="translate(1486,746)" d="m0 0h1l2 12-4 8h-1v-19z" fill="#EFF6F7"/>
<path transform="translate(1430,1722)" d="m0 0h7l2 1v2l10 1 6 3-4 1-13-3-6-2z" fill="#EFF6F7"/>
<path transform="translate(796,1350)" d="m0 0 1 2h2v2h46v1h-49z" fill="#EDF4F5"/>
<path transform="translate(1332,640)" d="m0 0 4 1-1 2-14 3h-6l1-3z" fill="#0BA4E3"/>
<path transform="translate(1560,1502)" d="m0 0h13l6 1v1h-16l-1 3-7 1v-4l5-1z" fill="#E9F0F1"/>
<path transform="translate(1394,617)" d="m0 0h3v2l-9 5-6 3-3-1 3-3z" fill="#0BA3E3"/>
<path transform="translate(227,560)" d="m0 0h19v1l-26 3h-7l2-2z" fill="#E1E6E8"/>
<path transform="translate(1050,780)" d="m0 0 11 7 4 5-10-4-6-4-1-3z" fill="#DEE3E4"/>
<path transform="translate(1279,1728)" d="m0 0 3 1-10 6-9 3-5 1 1-2h3v-2l11-4z" fill="#EFF6F7"/>
<path transform="translate(141,480)" d="m0 0 5 2 11 8 12 7-2 1-14-8-11-8z" fill="#BFBFC2"/>
<path transform="translate(1254,1739)" d="m0 0 4 1-6 1-2 4 1 2-6 2-3-3 5-4h2v-2z" fill="#EFF6F7"/>
<path transform="translate(313,233)" d="m0 0h4v21h-1v-14l-5-2v-4z" fill="#ECF3F4"/>
<path transform="translate(1216,1784)" d="m0 0 4 1 16 5v2l-7-1-13-4z" fill="#EFF6F7"/>
<path transform="translate(814,1602)" d="m0 0h12l-2 2-6 2-14-1v-1z" fill="#F1F7F8"/>
<path transform="translate(513,740)" d="m0 0 2 1-2 4-7 6-3-1 2-4h2l1-3z" fill="#F0F5F5"/>
<path transform="translate(0,562)" d="m0 0h2l1 17-1 5h-2z" fill="#DEE2E4"/>
<path transform="translate(1194,1652)" d="m0 0 3 4v3h2l2 9h2l2 7h-2l-9-19z" fill="#E01499"/>
<path transform="translate(1272,1492)" d="m0 0h2l1 5v3h-4l-1 7h-1v-8l2-6z" fill="#DE1197"/>
<path transform="translate(1223,1270)" d="m0 0h1l3 15-1 4v-2h-2l-2-5v-9z" fill="#E1E5E6"/>
<path transform="translate(1587,1755)" d="m0 0 19 1-3 2-5 1h-2l-8-1-5-1z" fill="#EFF6F7"/>
<path transform="translate(997,662)" d="m0 0 4 5 5 7-1 2-8-7-2-6z" fill="#E9EEEF"/>
<path transform="translate(1686,1732)" d="m0 0 2 2h6l3-1v2l-2 1-9 1-4 2h-7l3-2 4-2h4z" fill="#FEFEFE"/>
<path transform="translate(1351,1704)" d="m0 0h12v1l-8 1-1 2-10 1v-2l-2-2z" fill="#DBDFE0"/>
<path transform="translate(1349,788)" d="m0 0 4 1-6 3h-2v2h-5l-6-2v-1z" fill="#E3E9EA"/>
<path transform="translate(304,779)" d="m0 0h5l1 7-8-2-3-3z" fill="#FEFEFE"/>
<path transform="translate(1612,1465)" d="m0 0 6 3-1 5-2 3-3-1z" fill="#F5F9F9"/>
<path transform="translate(1654,1739)" d="m0 0h2v2l3 1-5 1v2l-7 1-2-1v-2l8-2z" fill="#FEFEFE"/>
<path transform="translate(1224,1720)" d="m0 0h2l5 10 2 6-1 4-8-18z" fill="#E1159A"/>
<path transform="translate(961,1471)" d="m0 0h2v13l-3-1-2-5z" fill="#ECF3F4"/>
<path transform="translate(1176,1457)" d="m0 0 20 1-1 2h-18z" fill="#DADEE0"/>
<path transform="translate(300,818)" d="m0 0 2 2v6l-1 2h-3l-1-2v-6z" fill="#EFF6F7"/>
<path transform="translate(1411,767)" d="m0 0 2 1-4 4-5 1-1 3-4 1-1-4z" fill="#E8EDEF"/>
<path transform="translate(1490,1359)" d="m0 0h3v4l4-1 1 2h-16l3-2 2 1 1-3z" fill="#F22BA9"/>
<path transform="translate(1696,1730)" d="m0 0 4 2-6 3h-6l-2-4h7z" fill="#EFF6F7"/>
<path transform="translate(430,813)" d="m0 0h14v2l-12 2-5-1v-2z" fill="#EFF6F7"/>
<path transform="translate(1320,1709)" d="m0 0h5l-2 4-8 1v-4z" fill="#E9EEEF"/>
<path transform="translate(1425,1521)" d="m0 0 2 4v7l-3-3h-2v-7z" fill="#E81FA0"/>
<path transform="translate(1559,1442)" d="m0 0 1 3h4v3l-4 1h-4l-1-4z" fill="#F730AD"/>
<path transform="translate(382,235)" d="m0 0 10 5 2 3-13-3z" fill="#DADEE0"/>
<path transform="translate(1371,155)" d="m0 0 10 3v3l-9-2-2-1z" fill="#13ABEA"/>
<path transform="translate(1615,1288)" d="m0 0h6l-3 2 1 2-7-1h-9l3-2z" fill="#E7EDEF"/>
<path transform="translate(417,779)" d="m0 0 13 1-2 2-9 2-2-2z" fill="#F6FAFA"/>
<path transform="translate(1544,1743)" d="m0 0h13l1 2h-5l-1 2-8-2z" fill="#F5F5F6"/>
<path transform="translate(1334,810)" d="m0 0 1 3v4l-3 1-4-6v-1z" fill="#FEFEFE"/>
<path transform="translate(900,498)" d="m0 0 1 2-3 11-2 1 1-10 1-3z" fill="#0EA6E5"/>
<path transform="translate(1236,646)" d="m0 0h9l6 1v1l-5 1h-7l-3-1z" fill="#0EA6E5"/>
<path transform="translate(1732,1758)" d="m0 0 3 1 4-1-1 3-10 2v-3z" fill="#EBF2F3"/>
<path transform="translate(1785,1714)" d="m0 0 3 4h-2v8l-4-1z" fill="#EFF6F7"/>
<path transform="translate(1240,1332)" d="m0 0h2l3 11-1 3-2-3-2-7z" fill="#EE26A5"/>
<path transform="translate(1326,1290)" d="m0 0 4 1 1 4-3 3-3-5z" fill="#F730AD"/>
<path transform="translate(965,1599)" d="m0 0 2 3 3 1-1 6-4-1z" fill="#F3F8F8"/>
<path transform="translate(857,605)" d="m0 0 6 1 9 2v1l-9 1-6-4z" fill="#EBF2F3"/>
<path transform="translate(1451,1713)" d="m0 0h8v4h-6z" fill="#E921A1"/>
<path transform="translate(585,671)" d="m0 0 2 3-4 6h-3l2-5z" fill="#E9F0F1"/>
<path transform="translate(1195,628)" d="m0 0 5 2 7 4-1 2-6-2-3-2v-2h-2z" fill="#0DA5E4"/>
<path transform="translate(1439,589)" d="m0 0h3v5l-8 1 1-3z" fill="#0AA3E2"/>
<path transform="translate(1428,207)" d="m0 0h1l-1 10-1 2h-2l1-9z" fill="#15ADEC"/>
<path transform="translate(1234,1316)" d="m0 0 2 3 1 7h-3l-1-4z" fill="#E0E5E7"/>
<path transform="translate(1230,1309)" d="m0 0h3l1 6-3 1-2-1z" fill="#E8EDEF"/>
</svg>
