<?xml version="1.0" encoding="UTF-8"?>
<svg version="1.1" viewBox="0 0 2048 634" width="1280" height="1280" xmlns="http://www.w3.org/2000/svg">
<path transform="translate(0)" d="m0 0h2048v634h-2048z" fill="#FEFEFE"/>
<path transform="translate(733,8)" d="m0 0h3l4 16 3 16 1 8v16l-3 11-4 6-10 5-4 8-5-2-2 1-8 1v3l6 2h18l4 4-1 5-4 4-6 2h-12l-4 2-1-4-5-1-5 4-3 5 11-1 5-2 1 2 11 2 4 2 1 5-5 5-14 1-8 3-4-1-4-3-8-1-4 1 1 3 8 3 13 1 10 4 2 3v7l-5 4-7 3h-17l-22-7h-7l-2 2 1 4 20 7 15 10 3 5v6l-4 3-10 2-16-1-12-4-10-6-3-4v-2l-7 4-9 6-1 4 23 3 9 4 10 7 6 5v6l-4 2-7 1h-26l-17-3-5-4-6-7-7-1-10 5-1 2 16 6 10 4 11 7 8 7 5 7-1 5-2 1h-25l-17-4-13-7-12-10h-8l-6 3v2l25 14 13 10 9 11 4 6-1 5-1 1-7 1-23 1-15-2-13-4-14-9-5-5-6-7-4-1-15 6-3 3 24 9 12 7 13 10 11 11 4 6 2 7-4 2h-26l-21-5-11-4-12-8-12-11-9-8h-7l-6 4-1 2 5 2 20 11 10 9 5 5 10 12 11 19 1 6-6 1-19-3-20-6-13-6-16-9-15-11-10-9-5-1-12 5-4 1 1 2 16 6 15 9 16 13 8 8 9 14 8 14v6l-10 2h-8l-24-5-13-5-16-9-11-9-10-9-8-9-7-10-7 1-7 5-1 2 6 2 16 8 13 9 13 13 13 17 12 20 5 11v2l-6 1h-9l-13-2-13-4-16-7-18-10-14-11-14-12-7-7-7-8-9 1-6 3h-2l5 5 19 13 14 11 14 12 13 13 9 13 9 16 3 7-1 5h-16l-19-3-17-5-23-11-18-12-14-11-18-18-5-6h-6l-10 8-5 2v2l6 1 16 8 18 11 19 14 14 12 12 12 13 18 7 12 5 12-9 4-3 1h-24l-16-4-15-5-16-8-18-11-12-9-10-8-12-11-8-10-6-10-1-5-10 5-11 8-11 7-1 2 10 3 20 9 18 10 19 12 15 11 13 10 14 13 7 8 9 11 13 21 6 12v2l-13 1h-45l-19-3-27-8-16-8-9-5-13-10-15-15-10-13-9-15-5-12v-2l-7 4-28 28-9 11-7 8-13 18-12 18-13 23-16 32-4 12h-6v-85l5-4 9-12 11-12 12-13 18-18 8-7 15-13 13-10 16-13 11-8 17-12 20-13 13-8 28-17 19-11 46-24 30-15 58-27 61-27 61-28 18-8 17-8 19-10 35-18 19-12 17-9 16-12 12-8 16-12 9-8 5-5-5 1-9-7-7-11-2-3h-5l-8 10 1 10 6 19-10 7-7 2-6-29v-2l-10 2-9 3-1 18 2 19v8l-6 3-8 1-4-30-4-10v-3l-8 3-4 4h-2l-1 3h-2v48l-9 4-3-1-2-13-2-20-4-8-3-3-2-6-8 1-2 3v7l-1 2h-2v2h-3l-1 17-1 5v21l1 8-9 4-5 3h-3v-12l2-3v-11l-2-21-3-4-3-12v-3l-13 4-4 4-5 15-1 5-1 38h-1l-1-10v-31l-2 12v25l3 11-1 3h2v3l-13 5h-2l-1-49-2-16-1-4-4-2-6-9h-5l-11 16-4 15-1 11v19l1 19v14l-12 6-5 1-1-66-2-14-5-10-5-5h-7l-6 8-8 16-4 13-1 8v17l3 20 6 27-4 3-17 7h-2l2-22 1-32-2-21-3-12-8-16-5-8-4-2h-7l-3 4-9 20-5 16-4 25-1 11v14l2 16 5 16 2 9-9 6-16 7h-3l3-13 2-25v-28l-2-27-4-18-5-12-6-10-5-5-5 1-7 6-11 16-7 14-5 15-2 13v23l2 18 8 32 5 12 2 5-24 13-8 5-4-1 4-34v-40l-3-22-5-19-8-16-7-10-8-9-3-2h-5l-9 10-10 15-5 11-6 18-3 14-1 8v25l4 26 6 29 5 15 5 9-9 7-15 10-5 4h-2l2-16v-14l-3-30-6-38-5-20-7-16-7-11-5-6-10-7-6-1-6 7-9 16-6 16-4 19-1 9v31l4 27 6 25 9 26 7 14v6l-2 2-10 2-4-4-9-21-8-21-6-25-5-28-1-9v-29l3-22 5-22 6-20 4-8 22-12 26-13 23-10 30-11 25-8 45-11 34-6 38-5 36-3 79-4 65-5 37-5 34-6 25-7 24-8 29-14 19-12 17-12 13-11 12-11 24-24 7-8 14-19 11-14z" fill="#040404"/>
<path transform="translate(1944,264)" d="m0 0h41l19 1 14 3 9 5 10 9 10 15 1 2v70l-7 16-7 9-9 7-8 4-8 2-9 1h-57v-143z" fill="#040404"/>
<path transform="translate(955,258)" d="m0 0 19 4 10 5 6 7 5 14 8 34 4 19 2 4 4-6 5-16 8-27 7-24 4-10 4-2h9l7 2 3 4 6 18 12 46 5 16 2 1 2-10 16-62 4-13 1-1h28v8l-7 28-18 67-9 30-5 9-3 2-11 1-6-2-4-6-9-29-6-20-7-23-1-2h-2l-7 21-14 45-6 14-3 2-20-2-3-4-21-83-12-41-5-13z" fill="#040404"/>
<path transform="translate(1809,258)" d="m0 0h14l7 3 10 14 30 48 10 15 5 6v-29l-1-48-2-8 8 1 10 3 9 6 4 8v119l-1 10h-23l-5-5-10-15-39-63-3-4-1 85-1 1h-26l-1-1v-145z" fill="#040404"/>
<path transform="translate(703,261)" d="m0 0h21l6 3 8 11 15 24 11 17 12 19 8 11 1 1 1-86h27v145l-1 1h-17l-7-1-5-5-24-38-13-21-15-21-2-1 1 2v85h-14l-13-1-1-38v-106z" fill="#040404"/>
<path transform="translate(844,261)" d="m0 0h95l1 1v27l-65 1-1 1v28h33l22 1v27l-56 1 3 21 2 8 6 1 55 1v27h-76l-9-2-5-6-3-8-1-7-1-41z" fill="#040404"/>
<path transform="translate(1317,262)" d="m0 0h77v14l-1 13-64 1-1 29h53l2 1-1 27-26 1h-28v30h60l5 1v26l-1 1h-93l-1-26v-98l3-9 7-7 5-3z" fill="#040404"/>
<path transform="translate(1717,259)" d="m0 0 9 2 9 8 7 15 15 41 13 36 11 31 4 12v2h-30l-3-3-4-21-50-1-7 19-2 6h-30l3-11 16-45 13-34 13-35 8-18z" fill="#040404"/>
<path transform="translate(1469,259)" d="m0 0 9 2 6 4 6 9 6 15 20 54 17 49 2 8v6l-8 1-21-1-2-6-3-16-1-2-51-1-3 10-3 14-1 1h-29l1-9 13-38 17-45 10-26 6-16 6-11z" fill="#040404"/>
<path transform="translate(1541,454)" d="m0 0h22l14 4 11 7 7 7 5 10 2 9 1 11v20l-2 15-4 12-6 8-9 8-11 5-16 2-14-3-11-7-5-4-7-11-3-10-1-8v-36l2-15 5-10 9-9 8-4z" fill="#040404"/>
<path transform="translate(766,452)" d="m0 0 9 1 6 5 9 16 16 34 3 4 3-1 9-20 11-22 11-16 2-1h14l3 2 1 31v41l-1 46h-22l-1-1v-61l-4 4-10 20-9 14-7 2h-5l-4-5-17-34-3-3-1 64h-22l-1-1-1-9v-98l1-10z" fill="#040404"/>
<path transform="translate(895,452)" d="m0 0h8l5 3 6 9 15 31 6 15 3 3 20-40 10-18 6-2 6-1h9l2 7v112l-7 1h-17v-53l1-10-4 4-8 14-9 17-5 6h-9l-6-7-16-32-3-4v64l-1 1h-20l-1-17v-93l1-8z" fill="#040404"/>
<path transform="translate(1183,259)" d="m0 0h86l9 1-1 9-4 15-8 17-15 24-19 29-15 23-1 2h62l-1 27-59 1h-28l-8-1 1-23 6-12 12-18 15-24 8-12 16-25 2-3h-58z" fill="#040404"/>
<path transform="translate(1168,453)" d="m0 0h49l11 2 9 5 9 10 4 10 1 3v14l-3 8-7 8-8 6 4 10 16 33 5 9-14 1h-14l-2-1-3-12-16-33-5-3h-7l-5 1-1 47-6 1h-17l-1-2v-116z" fill="#040404"/>
<path transform="translate(1625,452)" d="m0 0h11l7 3 13 20 14 22 11 17 4 6v2h2v-58l1-11h24v119h-19l-4-4-9-14-10-15-12-19-10-15-2-2v52l-1 16-3 1h-16l-5-1-1-7v-102l1-9z" fill="#040404"/>
<path transform="translate(1311,450)" d="m0 0 8 1 5 5 8 17 13 36 10 28 11 30 1 4-5 1h-16l-5-1-3-19-46-1-2 18-2 3h-16l-6-1 2-10 15-44 12-33 10-27 4-6z" fill="#040404"/>
<path transform="translate(837)" d="m0 0h26l10 3 9 7 5 4 7 10 4 11v17l-4 10-7 9-9 8-12 6-8 2h-11l-13-5-10-8-8-9-5-10-2-12 2-12 4-9 6-8 10-10z" fill="#FCFCFC"/>
<path transform="translate(1548,259)" d="m0 0h7l17 4 6 4 5 10 1 12 1 89 65 1-1 16-1 9-1 2h-91l-1-125-2-16z" fill="#040404"/>
<path transform="translate(1098,451)" d="m0 0h18l10 3 10 6 4 6-2 5-7 7-4 2h-6l-14-9-6 1-9 6-4 5-3 15v28l3 12 4 6 6 5 3 1h9l6-4 5-6 3-7v-6l-3-1h-17l-1-4v-12l1-6h22l19 1 1 5v25l-4 13-7 9-9 8-10 5-9 2-11-1-12-6-10-9-6-9-3-7-2-13v-34l3-15 6-10 5-6 10-7z" fill="#040404"/>
<path transform="translate(1362,453)" d="m0 0h83v20l-1 1h-26l-1 11-1 86-1 1h-21l-1-1-1-10-1-85-1-1-27-1-1-1z" fill="#040404"/>
<path transform="translate(1971,289)" d="m0 0h19l17 2 6 4 3 5 2 10 1 10v36l-2 9-5 8-3 3-7 2-8 1h-21l-2-2z" fill="#FEFEFE"/>
<path transform="translate(1016,450)" d="m0 0 11 3 9 6 6 9 1 26-1 77-4 1h-21l-1-1-1-16-1-104z" fill="#040404"/>
<path transform="translate(1466,451)" d="m0 0h7l10 3 6 4 4 7 1 5v27l-1 74-1 1h-23l-1-1z" fill="#040404"/>
<path transform="translate(1551,472)" d="m0 0h13l8 4 5 6 2 6 1 8v29l-2 10-4 8-8 7-4 1h-7l-7-3-6-7-3-6-1-6v-30l4-16 6-8z" fill="#FEFEFE"/>
<path transform="translate(710,451)" d="m0 0 9 1 13 5 4 4 1 7v29l-1 74-4 1h-19l-1-96-1-19-1-1z" fill="#040404"/>
<path transform="translate(837)" d="m0 0h26l10 3 9 7 5 4 7 10 4 11v17l-4 10-7 9-9 8-12 6-8 2h-11l-13-5-10-8-8-9-5-10-2-12 2-12 4-9 6-8 10-10zm13 7-10 4-9 7-7 10-4 9v12l5 10 7 9 10 7 5 2 11 1 10-2 10-6 9-11 4-8 1-3v-15l-6-12-9-9-11-5z" fill="#040404"/>
<path transform="translate(676,84)" d="m0 0 4 1 9 7 8 8 1 4-4 5-9 7h-2l-5 10-12 12-10 8h-1l1-9-10-21 1-5 8-7 4-2 7 10 5 5 3 2 6-1-1-6-3-8-1-18z" fill="#FDFDFD"/>
<path transform="translate(1190,473)" d="m0 0h23l9 3 5 8v9l-3 5-7 3-4 1h-22l-2-2-1-9 1-17z" fill="#FEFEFE"/>
<path transform="translate(1722,310)" d="m0 0h2l4 10 8 27 3 9h-33l2-9 10-29z" fill="#FEFEFE"/>
<path transform="translate(1476,310)" d="m0 0 4 4 8 25 5 14v3h-33l3-11 11-33z" fill="#FEFEFE"/>
<path transform="translate(1316,490)" d="m0 0 4 5 8 20 3 10-1 5h-22l-6-1 1-5 7-15 5-18z" fill="#FEFEFE"/>
<path transform="translate(845,30)" d="m0 0h8l10 5 2 5 4 3 1-10 2-2h6l3 3v14l-2 6-9-2-6-3-5-4-1 4-4 3-3-1 3-2 1-6-3-1-3 9h-1v-6h-2l2-4v-4l-5 1-5 5-2 6-3-4v-7l4-5z" fill="#060606"/>
<path transform="translate(699,63)" d="m0 0 5 2 6 9-1 8-6 9-4-1-4-8-1-4v-9l3-5z" fill="#FEFEFE"/>
</svg>
