<?xml version="1.0" encoding="UTF-8"?>
<svg version="1.1" viewBox="0 0 1600 355" width="1280" height="1280" xmlns="http://www.w3.org/2000/svg">
<path transform="translate(0)" d="m0 0h1600v355h-1600z" fill="#FCFCFC"/>
<path transform="translate(1427,52)" d="m0 0h48l25 4 15 4 16 8 10 8 10 9 11 14 12 24 5 15 3 15 1 9v51l-3 25-3 12-7 16-7 11-8 10-7 7-12 9-21 10-10 3-33 6-8 1h-17l-26-4-23-6-16-7-11-7-15-13-10-10-10-16-9-22-4-20-1-11v-37l3-23 4-15 8-20 6-11 8-10 8-8 11-9 15-10 16-7 18-4z" fill="#A1252E"/>
<path transform="translate(941,52)" d="m0 0h31l21 2 17 4 16 7 14 9 13 11 10 12 7 12 7 19 5 19 2 14 1 26v22l-2 19-5 19-7 16-8 15-9 11-9 9-11 7-19 8-23 6-14 3-9 1h-11l-30-3-21-6-22-8-11-6-14-11-12-12-9-14-6-14-6-18-2-11-1-13v-42l3-20 5-19 11-23 7-10 9-10 16-12 17-9 19-6 19-3z" fill="#A2262E"/>
<path transform="translate(151,9)" d="m0 0h38l16 2 23 6 9 3 5 1 1 3 18 10 12 9 15 15 6 8 5 10 1 6-4 2-4-3h-5l-3-3v3l1 4 1 18-4 10-7 8-7 12-8 16-15 25-5 7-6 11-6 10-12 22-8 14-5 8-10 18-8 14-6 11-1 7 3 6 5 4 6 2h12l9-2 5-3 3-1 2-5 9-13 24-42 10-18 8-12 4 2-1 7-6 16-6 12-4 7-8 16-3 4-1 4v3l-3 7-2 5h-2l-1 7-5 5-8 6-7 4-1 2h-3l-1 4h-3v2l-9 1-1 2-6 2h-6l-4-3v-3l-4-2-10-11-11-14-9-15-19-32-11-20-16-27-10-17-13-23-12-22-10-17-8-10-4-3-6 2-9 7-6 10-1 3v13l12 23 12 19 15 27 13 21 10 18 13 23 8 14 12 17 4 5 6 4 8 3 13 2 18 1 8 2 1 2-18 1-14 5h-11l-20-4-14-5-17-10-11-6-17-12-15-13-10-12-12-18-7-15-8-24-4-15-1-8-2 3v-58h2l2-5 3-8 6-21 10-19 13-19 9-10 5-5 5-4 9-7 14-11 16-10 5-4 8-1h8l22-2z" fill="#A2262E"/>
<path transform="translate(0)" d="m0 0h205l5 2-1 8 13 2 11 3 12 5 20 11 13 11 13 13 11 14 13 20 8 16 6 18 6 27 1 7v18l-3 21-8 32-5 12-9 16-10 14-8 10-11 11-7 8-10 8-13 8-19 9-18 6-37 8h-20l-17-3-12-3v-1l9 1h11l7-3 7-2 17-1-8-2-27-2-9-3-6-3-6-5-12-17-20-35-14-25-13-21-15-27-12-19-11-21v-13l6-12 9-8 6-3 5 2 8 9 9 15 14 25 13 24 10 16 15 26 9 16 12 21 12 20 10 16 13 15 7 8 2 1 2 4 2 1h6l10-4h6v-2h3l1-4h3l1-3 9-5 9-7 3-9 4-6 2-6v-3l3-7 7-12 4-9 5-8 6-15 4-11-1-5h-2l-11 18-13 24-20 34-8 11-5 5-6 3-7 1h-12l-9-4-5-6-1-4 2-8 8-14 6-12 5-8 4-7 7-11 18-33 4-7 4-6 5-9 13-21 12-21 7-14 7-9 5-8 1-7-1-15-2-9h2l3 4h5l4 3 3-1-2-8-6-11-12-13-6-5-4-4-13-9-16-9v-2l-5-1-25-7-9-2-12-1h-38l-29 2-7 1h-12l-7 3-8 6-14 9-13 11-10 7-4 2-2 4-9 10-10 15-8 14-5 11-7 24-4 7h-2z" fill="#A3262F"/>
<path transform="translate(720,54)" d="m0 0h85l1 2v47l-23 1h-34l-6-1h-15l-28 2-12 3-16 10-7 7-5 10-2 8v17l1 3 2 1h135l8 1-1 44-3 2-10 1h-129l-4-1 2 19 4 13 5 8 10 8 9 6 11 3 9 1 30 1 81 1 7 2 6 9 11 12 8 7 3 2v2h3v2h3v2l5 2 10 5 2 4-1 1-139-1-27-1-42-4-12-6-14-6-13-11-10-11-8-13-8-16-6-21-3-18-1-14v-30l2-23 4-14 11-21 7-11 6-7 8-7 13-13 13-9 10-5 12-3 10-1z" fill="#A2262F"/>
<path transform="translate(1306,54)" d="m0 0h10l2 5v41l2 1-1 1-22 1-71 1-20 3-13 5-9 6-6 5-6 9-4 14-3 22v30l4 31 5 14 6 9 9 8 12 6 16 3 11 1 94 1 7 9 9 11 12 11 17 9 8 4 5 5h-174l-19-3-21-6-11-5-7-3-12-8-10-10-7-10-9-19-4-15-4-29-1-13v-20l2-23 4-25 4-13 10-19 12-14 7-8 9-7 17-8 17-4 13-2 12-1z" fill="#A2262F"/>
<path transform="translate(359,52)" d="m0 0 21 1-3 2h56l207-1-5 5-9 8-7 8-4 5-8 7-10 11-5 6h-92v44l-1 170-13 2h-22l-17-1-1-1-2-87v-106l1-23-12 1-46 1-17 1-9 1-1-2z" fill="#A2262F"/>
<path transform="translate(1452,98)" d="m0 0h11l16 3 14 7 10 9 6 7 6 12 4 15 2 12v46l-3 20-5 15-7 11-7 7-12 7-15 4-7 1h-25l-15-4-10-4-10-7-8-10-7-15-5-19-1-19v-27l5-25 8-16 7-11 7-7 8-5 13-4z" fill="#FCFCFC"/>
<path transform="translate(956,98)" d="m0 0 16 1 10 3 14 7 9 8 5 8 8 22 3 17 1 14v30l-3 18-8 20-8 15-5 4-12 5-17 4-7 1h-21l-13-3-12-6-11-9-7-10-6-13-5-23-1-13v-27l2-13 5-21 8-16 9-10 16-8 19-4z" fill="#FCFCFC"/>
<path transform="translate(151,9)" d="m0 0h38l16 2 23 6 9 3 5 1 1 3 18 10 12 9 15 15 6 8 5 10 1 6-4 2-4-3h-5l-3-3v3l1 4 1 18-4 10-7 8-7 12-8 16-15 25-5 7-6 11-6 10-12 22-8 14-5 8-10 18-2 2-2-4 3-13 8-13 4-9 9-16 10-17 6-11 13-22 6-10 9-20 1-6h-2l-1-5-3-3-16-3-4-1v-2l-21 1-16-1h-19l-50-1-26-1-12 1h-22l-2 1h-5l-2-4 4-1 41-1 14-2 3-2h85l57 2h7l4-4 3-12v-11l-2-7-9-6-12-3h-119l-45-1v-3l12-2-1-2-10-3-6-1 1-7h3l4-2v-2l-3-2h-5-3l-2-2 1-1h-2v2h-3v2h-2v2h-2v2l-7 4h-4v2l-4 3-2-1 5-5 13-11 24-16 4-3 8-1h8l22-2z" fill="#A2262F"/>
<path transform="translate(1,189)" d="m0 0 2 2 2 12 7 24 8 20 6 11 13 18 9 10 11 9 18 13 11 6 16 9 14 5 32 8 8 1h20l13-3 4 1-3 1 1 7-2 12h-191v-161z" fill="#FCFCFC"/>
<path transform="translate(48,110)" d="m0 0 5 2 8 9 9 15 14 25 13 24 10 16 15 26 9 16 12 21 12 20 10 16 13 15 8 9v3l-6-1-8-2-27-2-9-3-6-3-6-5-12-17-20-35-14-25-13-21-15-27-12-19-11-21v-13l6-12 9-8z" fill="#FCFCFC"/>
<path transform="translate(282,76)" d="m0 0h2l17 17 9 14 3 9v18l-7 16-15 26-14 24-28 50-10 17-12 21-10 14-7 5-6 2h-12l-9-4-5-6-1-4 2-8 8-14 6-12 5-8 4-7 7-11 18-33 4-7 4-6 5-9 13-21 12-21 7-14 7-9 5-8 1-7-1-15z" fill="#FCFBFB"/>
<path transform="translate(74,59)" d="m0 0h178l12 3 9 6 2 3 1 5v11l-3 12-4 2h-223l-17 2-5 1 2-5 8-8 10-13 9-10 9-6z" fill="#FCFCFC"/>
<path transform="translate(0)" d="m0 0h138l-3 2-6 3 2 2 6 1-3 2-19 3h-12l-7 3-8 6-14 9-13 11-10 7-4 2-2 4-9 10-10 15-8 14-5 11-7 24-4 7h-2z" fill="#FCFCFC"/>
<path transform="translate(456,95)" d="m0 0h4l1 7-3 2v9h2l1 3 1 28v143h6l3-1v3l4-1 1 2 3-1 2-2 3-4h2l-2-24-1-10v-25l1-32 2-7 2-2 1-10v-20l2-14 1-11 2-5h2l1 27v28l1 17v123l-2 1-10 1h-22l-17-1-1-1-2-87v-48l2-18 2-10 1-12 3-17 2-17 1-5z" fill="#8C1B26"/>
<path transform="translate(359,52)" d="m0 0 21 1-3 2h56l207-1-5 5-9 8-7 8-4 4-5 3-7 5h-5l-4-7-3-2-7-2-12-2-12-1-9-1-16 1h-9l-5 1-9-4-24-2 1-2h-32l-8 1-1 1-15 2-5 3-3 3h-5v2l-10 7-3 1v7l-1 1-12 1-21 5-3 2v3l-9 1-1-2z" fill="#8C1B26"/>
<path transform="translate(282,80)" d="m0 0 2 1 1 4 1 18-4 10-7 8-7 12-8 16-15 25-5 7-6 11-6 10-12 22-8 14-5 8-10 18-2 2-2-4 3-13 8-13 4-9 9-16 10-17 6-11 13-22 6-10 9-20 1-6h-2l-1-5-3-3-16-3-4-1v-2l-21 1-16-1h-19l-50-1-26-1-12 1h-22l-2 1h-5l-2-4 4-1 41-1 14-2 3-2h85l57 2h7l3-3 5-2 3-7 2-1 1-4z" fill="#8D1C27"/>
<path transform="translate(1232,59)" d="m0 0h82l1 37-1 1h-12l-19-3-4-2h-8l-14-2-3-3-9-4-1-3-3-1-6-7-7-1h-8l-8-4 3-5 10-2z" fill="#8C1B26"/>
<path transform="translate(222,18)" d="m0 0 8 1 10 1 5 5 16 9 12 9 15 15 6 8 5 10 1 6-4 2-4-3h-5l-4-5-7-6-5-5-7-5-3-1-19-2-77-1v-2l9-3 41-3 9-1 5-3 1-7-3-9-4-3-3-2v-3h2z" fill="#8C1B26"/>
<path transform="translate(274,212)" d="m0 0 4 2-1 7-6 16-6 12-4 7-8 16-3 4-1 4v3l-3 7-2 5h-2l-1 7-5 5-8 6-7 4-1 2h-3l-1 4h-3v2l-9 1-1 2-6 2h-6l-4-3-1-5 1-5 9-4h3l4-1 2-3 11-4 3-3h2l2-5 9-13 24-42 10-18z" fill="#8C1B26"/>
<path transform="translate(95,274)" d="m0 0 7 1 9 16 12 17 4 5 6 4 8 3 9 2v2h7l-1 4-11 2-8-1-11-3-15-3-14-6-10-7-6-4-9-7-6-8-1-3-5-2v-2l-2-1 5-1 7 3 9 3 4 2v2l7 2h5l1-5-2-12z" fill="#8C1B26"/>
<path transform="translate(1434,61)" d="m0 0h14v3l4-1 1 2-3 1 7-1 11-1 4-1-2-1 6 1 1 4-2 2-11 2-13 1-16 5-16 2-17 3-15 5-16 8-18 12-5-1 1-7 7-9 11-10 10-6 12-2 7-4 11-3z" fill="#8C1B26"/>
<path transform="translate(1382,179)" d="m0 0h1l1 14 1 3 1 19 5 19 7 15 6 16 2 5v5h-2l-1 6-7 1-4-3-3-6-5-6-9-22-3-8-3-6 1-14 6-22 2-11 1-3z" fill="#8C1B26"/>
<path transform="translate(323,186)" d="m0 0 5 4v16h1v5l-3 3-3 9-6 13-3 9h-2l-2 4-10 16-9 11-4 5-11 8h-2l-1-4 3 1 1-4 6-10 5-10 2-3 3-12 4-8 3-10 5-12 5-10 6-11 2-5h2l2-4z" fill="#8C1B26"/>
<path transform="translate(649,51)" d="m0 0 9 1v1h7v2l4 1v3l-9 4-12 7-13 12-11 11-5 4-9 14-6 2-6-3 2 4h-5v-2l-4-1-1-3h-2v-4l5-2 9-10 7-8 4-4h2l2-4 7-7 5-6 10-8-6-1v-1h11l2-1 3 1z" fill="#FAE0E0"/>
<path transform="translate(1311,275)" d="m0 0h13l7 8 11 12 10 8 10 6 1 4 1 5h-14l-9-3-2 1-10 1-16-1-1-2 7-2 14-2 4-3-2-5-7-4-21-5-9-1-4-1 2-5v-2l4-1 1-4 5-3z" fill="#8D1C26"/>
<path transform="translate(1333,176)" d="m0 0 3 1 2 3 4-1 2 1 2 7 3 9 2 26 4 13 5 15 9 17 2 9-5-1-1-2-5-3-10-8-4-4-3-8v-7l-4-16 2-5v-7l-4-14-1-9-3-3-1-6v-6z" fill="#8C1B26"/>
<path transform="translate(138)" d="m0 0h67l5 2-1 8 13 2 11 3 12 5 20 11 13 11 13 13 11 14 2 4-2 2-10-13-8-10-7-6-11-7-10-7-16-9v-2l-5-1-25-7-9-2-12-1h-38l-22 1v-1l5-1-6-3 3-3z" fill="#E86B70"/>
<path transform="translate(20,339)" d="m0 0h34l10 3 14 6 4 4v3h-82v-13l8-2z" fill="#FFFFF8"/>
<path transform="translate(317,108)" d="m0 0 5 2 2 2 1 2 1 8 2 9 1 23-4 6v4l-1 5-7 8-6 5h-3l-1-6-3-1-3 1-1-8 5-10 6-11 3-7 1-7v-20z" fill="#8C1B26"/>
<path transform="translate(454,327)" d="m0 0 4 1 3 8 4 1 7-2 16-3 4-1 3 1 1 2v21h-46v-24z" fill="#FEF4F0"/>
<path transform="translate(822,276)" d="m0 0 4 5 5 5 6 3 14 13 2 1v2h3v2h3v2l5 2 2 1-1 5-2 1h-21l-17-1-7-1h-11l-9 1h-23l-7-2 3-2 13-1h27l14-1 9-2 3-1-4-10-10-8-3-5v-2l-5-2-2-2z" fill="#8D1B26"/>
<path transform="translate(79,31)" d="m0 0 3 1-1 1 7 1 4 3-1 3-6 3-1 4 7 1 1 2 7 1 2 3-4 2-8 1-1 2-26 2-10 6-6 4h-5l-1-1v-5l13-16 4-3h2v-2l8-3 3-1v-2h2v-2h2v-2h3v-2z" fill="#8C1B26"/>
<path transform="translate(839,287)" d="m0 0h5l10 8 10 6h2l-5-4 4-2 5 1 11 7 20 8-1 6-4-2v-2h-2l3 4-1 5-5 2h-12l-3-1h-10l-6 1-21-2-80-1v-1h116l-1-4-5-2-10-5v-2h-3v-2l-3-1v-2l-14-14z" fill="#FDF2EF"/>
<path transform="translate(191,334)" d="m0 0 4 1-3 1 1 7-2 12h-52l3-10 4-8 4-1 8 1h20z" fill="#FDF3EF"/>
<path transform="translate(460,48)" d="m0 0 20 1 11 2 3 2 122 1v1l-183 1h-58l2-2-16-1v-1l25-1 21-2z" fill="#FCEAE8"/>
<path transform="translate(359,52)" d="m0 0 21 1-3 2h211l-2 2h-53l-9 1-2 1h-27l-28 1h-24l-19-1h-59l-4-1-1 8h-1z" fill="#B5363E"/>
<path transform="translate(1533,173)" d="m0 0 4 4 1 3 1 22v14l-1 7-4 5h-2l-2 5-5 5-2-2v-3-11l5-30 2-15z" fill="#8C1B26"/>
<path transform="translate(771,165)" d="m0 0h33l-1 44-3 2h-16v-1l7-1-5-2 4-4 3-2-1-6-3-5 2-5v-6l-5-5v-4h-3l-3 1-2-4-7-1z" fill="#8C1B26"/>
<path transform="translate(787,58)" d="m0 0h14v39l-6-1-8-5-2-6 1-5 1-11h-6l-1-2-6-2-5-2v-1l7-1h8v-2z" fill="#8C1B26"/>
<path transform="translate(611,82)" d="m0 0 2 1-4 5-1 2 6-4h2l7-2 9-1-2 4-11 10-9 14-6 2-6-3 2 4h-5v-2l-4-1-1-3h-2v-4l5-2 9-10 7-8z" fill="#FDEDEB"/>
<path transform="translate(1427,52)" d="m0 0h48l25 4 12 3-1 2-26-3-5-1h-39l-22 3-32 8-6 2-4-1 14-8 14-5 14-3z" fill="#E4646A"/>
<path transform="translate(705,60)" d="m0 0h45l7 1 1 4-9 1 10 2-2 4-16 2-13-3-8-3-22-2-4-1 1-3z" fill="#8C1B26"/>
<path transform="translate(41,82)" d="m0 0h1l1 9 18 2 1 4-1 2h129v1l-144 1-17 2-5 1 2-5 8-8z" fill="#FCEBE9"/>
<path transform="translate(186,324)" d="m0 0 4 5v2l10 1-4 2-18 4h-20l-17-3-12-3v-1l9 1h11l7-3 7-2 20-1 3 1z" fill="#E96D73"/>
<path transform="translate(161,306)" d="m0 0h6l5 3 5 5 9 10v3l-6-1-8-2-27-2v-1l9-1 1-7 3-6z" fill="#FDF2EE"/>
<path transform="translate(213,11)" d="m0 0 9 1 11 3 12 5 20 11 13 11 13 13 11 14 2 4-2 2-10-13-8-10-7-6-11-7-10-7-16-9v-2l-5-1-25-7z" fill="#E5666C"/>
<path transform="translate(616,54)" d="m0 0h24l-5 5-5 4v-3h-2v-2l-15 1h-88l-1-2 9-1h53l2-1z" fill="#A72B33"/>
<path transform="translate(861,305)" d="m0 0 11 1 8 4v3l5 2 2 1-1 5-3 1-17 1-6 1-21-2-80-1v-1h116l-1-4-5-2-10-5 2-1z" fill="#FDEBE9"/>
<path transform="translate(720,54)" d="m0 0h85l1 2v47h-8l4-1v-43l1-2h-43l-11-1-29-1z" fill="#E7686E"/>
<path transform="translate(1208,55)" d="m0 0h86v1l-67 1-33 3-26 7-21 8-8 6-5 4 2-4 7-7 14-8 12-5 19-4z" fill="#E6676D"/>
<path transform="translate(444,231)" d="m0 0h1l2 88h-7v-35l2-37 1-3z" fill="#FBE2E2"/>
<path transform="translate(444,183)" d="m0 0h1l1 12h1l1 15 2 6 1 5h-2l1 7-1 15-2 75h-1l-2-87z" fill="#B1343D"/>
<path transform="translate(1136,295)" d="m0 0 9 5 6 4 13 5 19 6 14 3 9 1v1l-19 1h-13l-16-6-12-9v-2l-4-1-6-6z" fill="#FEF3EF"/>
<path transform="translate(1398,251)" d="m0 0 5 5 6 5 10 6 16 5 5 1h25l16-3 12-5 4-2v3l-8 5-15 5-5 1h-29l-11-2-20-8-2-4h-2v-2l-4-1z" fill="#E26167"/>
<path transform="translate(941,52)" d="m0 0h31l21 2 17 4 16 7 7 4-4 1-12-5-9-3-24-5-25-2-32 1 3-3z" fill="#E36369"/>
<path transform="translate(425,50)" d="m0 0 14 1 1 2 17 1v1l-24 1h-58l2-2-16-1v-1l55-1z" fill="#FBE2E2"/>
<path transform="translate(118,93)" d="m0 0h20l20 2 31 2v1h-93v-1l14-3z" fill="#FFFFF8"/>
<path transform="translate(6,127)" d="m0 0h1l-1 10-2 19v29l2 15 3 13v5l-2-4-4-15-1-8-2 3v-58h2l2-5z" fill="#E6676D"/>
<path transform="translate(118)" d="m0 0h20l-3 2-6 3 2 2 6 1-3 2-19 3h-16l2-2 14-7h2z" fill="#FBE2E2"/>
<path transform="translate(1328,319)" d="m0 0h53l2 2-22 1h-44l-105-1v-1z" fill="#FBE2E2"/>
<path transform="translate(884,174)" d="m0 0 2 1 2 36 1 4v7l-5 1-4-8v-19l3-5z" fill="#901D28"/>
<path transform="translate(1,189)" d="m0 0 2 2 2 12 6 21-1 2-3 2h-7v-34z" fill="#FBE2E2"/>
<path transform="translate(178,337)" d="m0 0 4 1-4 6-9 5h-2v2l-2 1h-6l-2-2v-6l2-3 3-1-3-2z" fill="#FDECEA"/>
<path transform="translate(1361,301)" d="m0 0 9 3 8 3 3 3v2h2l4 5-2 2v3l-4-1-5-4-6-4-11-5v-5h2z" fill="#FDF3EF"/>
<path transform="translate(649,51)" d="m0 0 9 1v1h7v2l4 1v3l-9 4-5 1-1-3-15-3-6 5-2-1 8-7-6-1v-1h11l2-1 3 1z" fill="#FDECEA"/>
<path transform="translate(255,58)" d="m0 0 9 1 11 8 6 7 2 2v11l-2 4h-2l-2 7-2 2-3-1 3-12v-11l-2-7-9-6-12-3z" fill="#A62A33"/>
<path transform="translate(1258,277)" d="m0 0 18 1 5 3-1 2-11 2-23-2-6-2 1-3z" fill="#8C1B26"/>
<path transform="translate(0,104)" d="m0 0 6 1 2 1 1 13-3 10-4 7h-2z" fill="#FDEDEB"/>
<path transform="translate(1447,46)" d="m0 0h14l7 1 4 5-52 1v-1h6l1-3h5l1-1z" fill="#FCECEA"/>
<path transform="translate(1178,251)" d="m0 0 7 6 11 7 9 3 12 2 11 1 94 1v1h-105l-12-2-10-3-10-6-7-8z" fill="#E6676D"/>
<path transform="translate(24,132)" d="m0 0 2 2 2 12 3 6 1 9-1 2h-3l-3-4-1-6-5-2-1-6 3-8 1-2h2z" fill="#8D1B26"/>
<path transform="translate(1317,96)" d="m0 0 1 4 2 1-1 1-22 1h-63v-1l18-1 3-1h62z" fill="#D75059"/>
<path transform="translate(174,281)" d="m0 0h5l1 6-3 9-5 3-6-2-3-6v-6l4 2h3l1-4z" fill="#8D1C26"/>
<path transform="translate(1579,229)" d="m0 0h1v9l-3 12-7 16-7 11-6 8-1-2 7-12 6-14 6-17 3-8z" fill="#E26067"/>
<path transform="translate(106,288)" d="m0 0 4 1 10 15 7 9 9 6v2l-6-1-13-5-1-6-1-4-8-14h-2z" fill="#A62A33"/>
<path transform="translate(455,332)" d="m0 0 3 1 2 18v4h-10v-9l2-10z" fill="#FDECEA"/>
<path transform="translate(195,100)" d="m0 0h76l-1 3-2 1-43-1-21-1-9-1z" fill="#B63941"/>
<path transform="translate(1561,107)" d="m0 0 4 4 1 2 4 2 4 8v6l2 8v5l-3 2-3-11-4-8-5-15z" fill="#8F1D28"/>
<path transform="translate(276,167)" d="m0 0h2l-1 5-10 21-4 5-3 7-2-1-5 5-5 11-2 6-1-4 3-10 9-12h2l1-5 6-10 3-1 2-5 4-11z" fill="#FEF4F0"/>
<path transform="translate(1136,295)" d="m0 0 9 5 6 4 13 5 19 6 14 3 9 1v1h-11l-28-6-24-10-7-7z" fill="#FBE2E2"/>
<path transform="translate(274)" d="m0 0h7v7l-4 6-10 7-2 3-2-2 1-6 7-5 2-3z" fill="#FFFFF8"/>
<path transform="translate(326,210)" d="m0 0 3 1-4 17-5 12-7 13-1-4 5-15 7-16z" fill="#AC3038"/>
<path transform="translate(359,52)" d="m0 0 21 1-3 2 55 1v1h-71l-1 9h-1z" fill="#E86A70"/>
<path transform="translate(593,102)" d="m0 0 2 1 1 2 11 2 5-2-1 5-7 3-6-3 2 4h-5v-2l-4-1-1-3h-2v-4z" fill="#FDF3F0"/>
<path transform="translate(1208,55)" d="m0 0h86v1l-67 1-24 2h-6l2-2z" fill="#D54D56"/>
<path transform="translate(1327,235)" d="m0 0 4 4 3 7 12 24 6 9-1 2-7-8-8-13-9-22z" fill="#E26167"/>
<path transform="translate(177,315)" d="m0 0 9 9v3l-6-1-8-2-18-1v-1l14-1 1-3z" fill="#FBE2E2"/>
<path transform="translate(460,48)" d="m0 0 20 1 11 2 3 3h-28l1-3-10-1z" fill="#FEF4F0"/>
<path transform="translate(1362,309)" d="m0 0 12 5 6 5v1h-18l-15-1v-1l16-1-1-4-1-2z" fill="#AC2E37"/>
<path transform="translate(48,287)" d="m0 0 4 2 11 9 14 10 11 6-3 1-9-3-10-7-10-9-8-8z" fill="#FBE3E3"/>
<path transform="translate(205)" d="m0 0h9l5 5 4 5 3 3-17-2-1-3 2-6-5-1z" fill="#FBE2E2"/>
<path transform="translate(984,56)" d="m0 0 13 1 9 1 7 1 16 8 4 3-6-1-15-6-28-6z" fill="#D44C56"/>
<path transform="translate(1106,235)" d="m0 0 2 2 5 17 7 17 6 10-1 2-4-5-8-15-5-14-2-8z" fill="#D9535B"/>
<path transform="translate(1386,219)" d="m0 0h1l4 15 7 15 3 8-1 3-6-9-7-18-1-4z" fill="#AD3139"/>
<path transform="translate(41,82)" d="m0 0v3l-6 10-1 5h12v1l-17 2-5 1 2-5 8-8z" fill="#FBE2E2"/>
<path transform="translate(284,85)" d="m0 0h1l1 18-4 10-7 8-4 7-2-1 2-6 7-8 4-8z" fill="#B0343C"/>
<path transform="translate(277,45)" d="m0 0 5 1 9 9 11 14 2 4-2 2-10-13-8-10-7-6z" fill="#D8525B"/>
<path transform="translate(491,343)" d="m0 0h4l1 2v10h-11z" fill="#FEEEEC"/>
<path transform="translate(1385,153)" d="m0 0h1v11l-1 5-1 24h-1l-1-21h-2l-1-6 2-5 3 1z" fill="#98242E"/>
<path transform="translate(974,53)" d="m0 0h11l18 3 4 2-5 1-11-2-32-2v-1z" fill="#E26168"/>
<path transform="translate(1393,239)" d="m0 0 5 5 6 9 12 11 6 3-3 1-13-8-8-9-5-10z" fill="#FBE2E2"/>
<path transform="translate(264,305)" d="m0 0 2 1-14 9-19 9-5 2-3-1 30-15z" fill="#D75159"/>
<path transform="translate(1011,128)" d="m0 0h2l7 17 2 7v9l-2 3-3-17-6-17z" fill="#D64F58"/>
<path transform="translate(0,120)" d="m0 0h6l1 7-5 9h-2z" fill="#FBE2E2"/>
<path transform="translate(1183,118)" d="m0 0m-2 1 2 1 1 3-2 5-4 4-7 2 2-5 7-9z" fill="#FDF2EF"/>
<path transform="translate(122,11)" d="m0 0h7v1l-15 3-13 2-5 2-3-1 6-5 8-1h8z" fill="#E4646A"/>
<path transform="translate(6,127)" d="m0 0h1l-1 10h-2l-1 6 1 3-2 6-2-1v-15h2l2-5z" fill="#E7696E"/>
<path transform="translate(1571,234)" d="m0 0 1 4v6l-5 9h-2l-1 2-1-2 3-10 3-6z" fill="#8C1B26"/>
<path transform="translate(4,137)" d="m0 0h1v10l-2 18h-1l-1 14h-1v-28l2-2 1-5-1-2z" fill="#D14751"/>
<path transform="translate(866,312)" d="m0 0 8 4 2 4-1 1h-10l-4-2 3-2z" fill="#B3353E"/>
<path transform="translate(44,186)" d="m0 0 5 2 4 6 3 7v3l-4-1-1-3 1-2-3-1v-2h-2z" fill="#8C1B26"/>
<path transform="translate(39,87)" d="m0 0 1 2v6l9 3-1 2h-14v-5z" fill="#FEEEEC"/>
<path transform="translate(649,51)" d="m0 0 9 1v1h7v2l4 1v3h-5l-1-2-18-2-1-3 5 1z" fill="#FDF3EF"/>
<path transform="translate(884,153)" d="m0 0 4 1v8l-2 8-1-2-3-1 1-11z" fill="#8C1B26"/>
<path transform="translate(1578,198)" d="m0 0h3l1 6v8l-2-2-2 6h-1l-1-13z" fill="#8C1B26"/>
<path transform="translate(0,104)" d="m0 0 6 1 2 1 1 13h-2v-7l-7-1z" fill="#FDF3EF"/>
<path transform="translate(214)" d="m0 0 4 1 5 5 6 3 3 4-1 1h-5l-7-8-5-4z" fill="#FDF1EE"/>
<path transform="translate(1146,305)" d="m0 0 9 3 12 5v2l-11-1-10-8z" fill="#FEEFED"/>
<path transform="translate(688,55)" d="m0 0h22v1l-16 1-13 2h-7l-1-2z" fill="#D8525A"/>
<path transform="translate(0,221)" d="m0 0 9 1v2h2l-1 2-3 2h-7z" fill="#FDF2EF"/>
<path transform="translate(282,76)" d="m0 0h2l5 5 2 3-1 4-3 3-2-2z" fill="#FBE1E0"/>
<path transform="translate(320,232)" d="m0 0 2 4-9 17-1-4 4-10z" fill="#D24C55"/>
<path transform="translate(290,84)" d="m0 0 3 1v6l-3 6h-3l-2-3v-5h3l2-3z" fill="#FDF3F0"/>
<path transform="translate(172,313)" d="m0 0 5 1v2l-8 2-1 4h-10v-1l6-2 6-5z" fill="#FDEDEB"/>
<path transform="translate(598,235)" d="m0 0 3 3 7 22-1 3-6-14-3-10z" fill="#D8525A"/>
<path transform="translate(1306,54)" d="m0 0h10l2 5-1 33h-1l-1-34-1-2-8-1z" fill="#E4646A"/>
<path transform="translate(1480,56)" d="m0 0h9l10 1 9 1 4 2-3 1-29-4z" fill="#D14751"/>
<path transform="translate(1087,193)" d="m0 0 4 2 1 6-1 8-4-6-1-7z" fill="#FEF4F0"/>
<path transform="translate(1496,263)" d="m0 0 2 2-5 4-12 5-4-1 7-2v-2z" fill="#D44C56"/>
<path transform="translate(1149,70)" d="m0 0h8l-3 2-12 6-7 7v-3l8-8z" fill="#D64F58"/>
<path transform="translate(255,58)" d="m0 0 9 1 8 6-1 2-9-5-10-2z" fill="#AF323A"/>
<path transform="translate(111,279)" d="m0 0 2 1 1 5 3 4-3 3-6-9 1-3 2 1z" fill="#FEF4F0"/>
<path transform="translate(1327,235)" d="m0 0 4 4 3 7 4 8-1 3-5-10-2-1-3-8z" fill="#D44D56"/>
<path transform="translate(333,146)" d="m0 0 2 4 1 7v18h-1l-1-13-1-2z" fill="#DE5A62"/>
<path transform="translate(58,208)" d="m0 0 5 5 3 5v2h-4l-2-4v-3h-2l-1-4z" fill="#8C1B26"/>
<path transform="translate(1433,48)" d="m0 0 24 1v1l-31 1 2-2z" fill="#FEF0ED"/>
<path transform="translate(184,267)" d="m0 0h5l-1 6-6 1-1-4z" fill="#8F1D28"/>
<path transform="translate(325,113)" d="m0 0 2 3 3 13-3-1-3-11z" fill="#AC3038"/>
<path transform="translate(1173,241)" d="m0 0 5 5 7 9 3 4-4-2-7-7-4-7z" fill="#FBE2E2"/>
<path transform="translate(62,60)" d="m0 0h7l-12 6-6 4 2-4 5-4z" fill="#B0333C"/>
<path transform="translate(1168,314)" d="m0 0 9 1 7 2-4 2-8-1-1-2z" fill="#FEEEEC"/>
<path transform="translate(1106,235)" d="m0 0 2 2 3 11-1 4-3-6z" fill="#D64E57"/>
<path transform="translate(296,64)" d="m0 0 4 2 4 7-2 2-7-9z" fill="#C7424B"/>
<path transform="translate(1343,298)" d="m0 0 7 6 2-1 5 4-1 2-5-2-8-7z" fill="#A72B34"/>
<path transform="translate(278,114)" d="m0 0v3l-7 11-2-1 2-6z" fill="#AC2F38"/>
<path transform="translate(284,85)" d="m0 0h1l1 18-1 2h-2z" fill="#C64A51"/>
<path transform="translate(1371,311)" d="m0 0 6 1 3 7-4-2-6-4z" fill="#FDEAE8"/>
<path transform="translate(48,110)" d="m0 0 4 2h-2l1 3-4 2-3-5z" fill="#FDEFEC"/>
<path transform="translate(649,51)" d="m0 0 9 1-4 3h-9l-1-3 5 1z" fill="#FEF4F0"/>
<path transform="translate(215,346)" d="m0 0 6 5 1 4h-5z" fill="#FFFFF8"/>
<path transform="translate(1375,316)" d="m0 0 5 4h-18v-1l11-1z" fill="#E26168"/>
<path transform="translate(1329,276)" d="m0 0 5 1 4 5h-6z" fill="#FFFFF8"/>
<path transform="translate(320,232)" d="m0 0 2 4-2 4h-3l-1 3-1-2z" fill="#DA555D"/>
<path transform="translate(0,221)" d="m0 0 9 1-1 3-8-1z" fill="#FEEEEC"/>
<path transform="translate(264,305)" d="m0 0 2 1-12 8v-3z" fill="#D9545C"/>
<path transform="translate(1500,57)" d="m0 0 8 1 4 2-3 1-10-2z" fill="#D64F58"/>
</svg>
