<?xml version="1.0" encoding="UTF-8"?>
<svg version="1.1" viewBox="0 0 2048 829" width="1280" height="1280" xmlns="http://www.w3.org/2000/svg">
<path transform="translate(0)" d="m0 0h2048v829h-2048z" fill="#FEFEFE"/>
<path transform="translate(892,653)" d="m0 0h120l73 1 5 1-8 21-10 21-7 11-5 3h-490l-113-1-1-7v-47l24-1 114-1z" fill="#5F5F5F"/>
<path transform="translate(1307,335)" d="m0 0h268l10 29 5 5 5 1 5-30 2-4 16-1h247l62 1-1 48-4 1h-159l-9-1-1-13-1-4-7-1-2 14-1 4-20 1h-239l-50-1-4-3-3-11-12-1v15l-1 1h-87l-78-1-1-48z" fill="#5F5F5F"/>
<path transform="translate(707,115)" d="m0 0h357l5 8 12 32 4 3 1-2 3 1 1 9-33 1h-600l-1-1v-49l1-1z" fill="#5F5F5F"/>
<path transform="translate(457,9)" d="m0 0h434l29 1 17 3 37 13 10 4 11 7 16 12 7 7 4 6 1 5-1 1-7 1h-346l-212-2-1-12v-45z" fill="#5E5E5E"/>
<path transform="translate(911,759)" d="m0 0h110l-2 5-8 8-7 8-7 7-11 7-16 7-30 11-13 4-15 2-37 1h-418l-1-57 1-1z" fill="#5E5E5E"/>
<path transform="translate(50,760)" d="m0 0h239l117 1 1 42v16h-395l-6-1v-57z" fill="#5F5F5F"/>
<path transform="translate(995,443)" d="m0 0h18l8 7 12 13 9 11 11 14 1 5-33 1h-315l-135-1v-48l57-1z" fill="#5F5F5F"/>
<path transform="translate(4,9)" d="m0 0 315 1 83 1h1l-1 39-1 16-188 2h-209z" fill="#5F5F5F"/>
<path transform="translate(58,654)" d="m0 0h347l1 1v55l-1 1-77 1h-57l-187-1-78-1-1-55z" fill="#5F5F5F"/>
<path transform="translate(1049,335)" d="m0 0h5l-2 4-9 11-13 16-9 11-7 6-8 1-89 1h-207l-139-1v-47l69-1z" fill="#5F5F5F"/>
<path transform="translate(1133,9)" d="m0 0h324l4 2 6 19 5 15 4 21v3l-74 1h-114l-154-1-1-1-1-58z" fill="#5F5F5F"/>
<path transform="translate(4,116)" d="m0 0h398l1 49-1 1-46 1h-352z" fill="#5E5E5E"/>
<path transform="translate(1718,9)" d="m0 0h238l84 1v57l-1 1-91 1h-247l-1-3 9-32 8-23z" fill="#5E5E5E"/>
<path transform="translate(1211,115)" d="m0 0h282l4 10 12 38v3l-13 1h-363v-51z" fill="#5F5F5F"/>
<path transform="translate(1683,115)" d="m0 0h264l94 1v50l-63 1h-306l-7-1 14-42z" fill="#5F5F5F"/>
<path transform="translate(1793,760)" d="m0 0h250l1 5-1 54-121 1h-109l-59-1v-58z" fill="#5F5F5F"/>
<path transform="translate(1171,760)" d="m0 0h162l85 1 1 35v23l-140 1h-67l-75-1v-58z" fill="#5E5E5E"/>
<path transform="translate(1755,654)" d="m0 0h291v2h-2v22l-1 33-287 1-1-1z" fill="#5F5F5F"/>
<path transform="translate(1138,654)" d="m0 0h275l4 1 1 6v49l-27 1h-254v-56z" fill="#5F5F5F"/>
<path transform="translate(1727,223)" d="m0 0h184l16 1v31l-1 21-73 1h-40l-193-1 1-5 7-19 7-22 2-6z" fill="#5E5E5E"/>
<path transform="translate(1513,222)" d="m0 0h14l6 16v2h2v2h2l-4-16 4 4 6 12 13 31v3h-308v-51l1-1z" fill="#5E5E5E"/>
<path transform="translate(1717,443)" d="m0 0h6l-2 9-9 30-4 11-1 1h-231l-5-2-7-18-8-21-4-9z" fill="#5E5E5E"/>
<path transform="translate(999,223)" d="m0 0h78l19 1-1 8-6 25-3 7-4 5-4 6-2 1h-166v-52z" fill="#5E5E5E"/>
<path transform="translate(1487,551)" d="m0 0 202 1-12 37-6 12-2 1-35 1h-70l-57-1-8-19-11-29z" fill="#5E5E5E"/>
<path transform="translate(1070,551)" d="m0 0h9l3 3 4 9 3 7 4 28v4l-50 1h-43l-90-1v-50z" fill="#5E5E5E"/>
<path transform="translate(119,224)" d="m0 0h170l1 1v50l-5 1h-166l-1-1v-50z" fill="#5F5F5F"/>
<path transform="translate(1794,443)" d="m0 0h99l34 1-1 50h-171l-1-50z" fill="#5F5F5F"/>
<path transform="translate(1755,552)" d="m0 0h171l1 2-1 48h-171z" fill="#5E5E5E"/>
<path transform="translate(119,552)" d="m0 0h170v50h-171v-49z" fill="#5E5E5E"/>
<path transform="translate(572,224)" d="m0 0h165v51l-35 1h-130l-1-1v-50z" fill="#5F5F5F"/>
<path transform="translate(118,444)" d="m0 0h170l2 1-1 49h-105l-66-1z" fill="#5F5F5F"/>
<path transform="translate(1272,552)" d="m0 0h146l1 49-1 1h-170v-49z" fill="#5E5E5E"/>
<path transform="translate(1256,444)" d="m0 0h162v50h-125l-45-1v-48z" fill="#5E5E5E"/>
<path transform="translate(600,552)" d="m0 0h133l4 1v49h-165l-1-3v-46z" fill="#5F5F5F"/>
<path transform="translate(118,336)" d="m0 0h160l12 1-1 47-82 1-89-1z" fill="#5F5F5F"/>
<path transform="translate(1524,652)" d="m0 0h125l-2 5-4 9-7 18-9 26-1 1-19 1h-49l-6-2-8-17-4-10-10-9-2-4-1-11-3-4z" fill="#5F5F5F"/>
<path transform="translate(729,52)" d="m0 0h282l6 7 3 4v2l-4-1-2-2h-63l-70 1-90 2-35 1-14 1 273 1v1h-346l-111-1v-1h80v-2h-150l-3-2 2-2 8-1 20-1h90l28-2 28-1 11-1 29-2h12z" fill="#909090"/>
<path transform="translate(1735,50)" d="m0 0h12l24 1h13l24 1h27l49 1 62 3 33 1h13l20 1 23 2 2 4-1 2 3 2-91 1h-247l2-2-1-2 4-14z" fill="#8F8F8F"/>
<path transform="translate(1472,50)" d="m0 0h1l2 14-1 2-24-1h-28l-77 1h-19l-38 1h-54l-90-1-8-1-1-2v-8l4-2 40-2 23 1 13 1h72l123-1h62z" fill="#909090"/>
<path transform="translate(4,19)" d="m0 0h1l1 32 19 2h23l10 1h8l12 1h10l8 1 49 2h15l12 1 28 1h23l24 1-1 3-2 1-240 1z" fill="#909090"/>
<path transform="translate(1524,652)" d="m0 0h125l-2 5-4 9-115-1-2-7-2-3z" fill="#909090"/>
<path transform="translate(1570,759)" d="m0 0h38l-1 8-12 52-2 1-6-5-5-11-6-17-6-25z" fill="#616161"/>
<path transform="translate(1134,63)" d="m0 0h2v2l111 1h53l38-1h24l69-1h19l17 1 7 1 1-2 1 5-74 1h-114l-154-1z" fill="#646464"/>
<path transform="translate(1524,652)" d="m0 0h125l-1 3-123 1z" fill="#6C6C6C"/>
<path transform="translate(1134,63)" d="m0 0h2v2l98 1 10 1v2h-110z" fill="#6E6E6E"/>
<path transform="translate(1705,52)" d="m0 0 1 2-3 12 52 1v1h-55l3-13z" fill="#636363"/>
<path transform="translate(1588,369)" d="m0 0 7 2v6h-3l-3-4z" fill="#909090"/>
<path transform="translate(43,657)" d="m0 0h7l-1 4-11-1v-1h5z" fill="#8E8E8E"/>
</svg>
