<svg width="1043" height="124" viewBox="0 0 1043 124" fill="none" xmlns="http://www.w3.org/2000/svg">
<g clip-path="url(#clip0_7_504)">
<path d="M55.18 101.8C57.42 101.8 57.94 103.18 58.63 105.25L61.91 115.6C62.25 116.81 62.94 117.32 63.98 117.32H65.36C66.39 117.32 67.08 116.8 67.43 115.6L70.71 105.25C71.4 103.18 71.57 101.63 75.88 101.63C85.54 101.63 94.67 100.25 101.57 93.5298C104.85 90.2498 108.81 89.0498 112.61 91.6298L115.89 93.8698C120.55 96.9698 121.93 102.84 118.13 106.8C108.47 116.63 94.85 122.49 79.33 122.49H53.47C22.76 122.49 0 99.7298 0 69.5598V54.7298C0 24.5598 22.76 1.7998 53.45 1.7998H79.31C94.83 1.7998 108.45 7.6598 118.11 17.4898C121.9 21.4598 120.52 27.3198 115.87 30.4198L112.59 32.6598C108.8 35.2498 104.83 34.0398 101.55 30.7598C94.65 24.0398 85.51 22.6598 75.86 22.6598L55.17 22.4898C33.79 22.3198 22.41 35.5898 22.41 54.7298V69.5598C22.41 88.6998 33.79 101.8 55.17 101.8H55.18Z" fill="#0527FF"/>
<path d="M151.56 10.07L151.39 115.08C151.39 116.63 152.08 117.32 153.63 117.32H155.01C156.22 117.32 156.91 116.8 157.25 115.77L160.53 105.42C161.22 103.35 161.22 101.8 165.53 101.8H211.91C216.39 101.8 219.67 105.08 219.67 109.56V114.73C219.67 119.21 216.39 122.49 211.91 122.49H136.73C132.25 122.49 128.97 119.21 128.97 114.73L129.14 10.07C129.14 5.41004 132.76 1.79004 137.42 1.79004H143.28C147.94 1.79004 151.56 5.41004 151.56 10.07Z" fill="#0527FF"/>
<path d="M345.88 54.7298V69.5598C345.88 99.7298 323.12 122.49 292.43 122.49H271.39C240.7 122.49 217.94 99.7298 217.94 69.5598V54.7298C217.94 24.5598 240.7 1.7998 271.39 1.7998H292.43C323.12 1.7998 345.88 24.5598 345.88 54.7298ZM271.39 101.8H292.43C312.09 101.8 323.47 89.7298 323.47 69.5598V54.7298C323.47 34.5598 312.09 22.4898 292.43 22.4898H271.39C251.73 22.4898 240.35 34.5598 240.35 54.7298V69.5598C240.35 89.7298 251.73 101.8 271.39 101.8Z" fill="#0527FF"/>
<path d="M411.4 101.8H425.54C445.2 101.8 456.58 89.73 456.58 69.56V10.07C456.58 5.41004 460.2 1.79004 464.86 1.79004H470.72C475.38 1.79004 479 5.41004 479 10.07V69.56C479 99.73 456.24 122.49 425.55 122.49H411.41C380.72 122.49 357.96 99.73 357.96 69.56V10.07C357.96 5.41004 361.58 1.79004 366.24 1.79004H372.1C376.76 1.79004 380.38 5.41004 380.38 10.07V69.56C380.38 89.73 391.76 101.8 411.42 101.8H411.4Z" fill="#0527FF"/>
<path d="M501.75 1.7998H555.37C585.72 1.7998 609.17 24.5598 609.17 53.0098V71.2898C609.17 99.7398 586.07 122.5 555.37 122.5H501.75C495.89 122.5 491.06 117.67 491.06 111.81V12.4898C491.06 6.6298 495.89 1.7998 501.75 1.7998ZM515.72 101.81H555.38C575.04 101.81 586.42 89.7398 586.42 71.2898V53.0098C586.42 34.5598 575.04 22.4898 555.38 22.4898H515.72C514.17 22.4898 513.48 23.1798 513.48 24.7298V99.5598C513.48 101.11 514.17 101.8 515.72 101.8V101.81Z" fill="#0527FF"/>
<path d="M608.3 14.7298V9.5598C608.3 5.0798 611.58 1.7998 616.06 1.7998H709.17C713.65 1.7998 716.93 5.0798 716.93 9.5598V14.7298C716.93 19.2098 713.65 22.4898 709.17 22.4898H673.82L673.65 114.22C673.65 118.88 670.03 122.5 665.37 122.5H659.51C654.85 122.5 651.23 118.88 651.23 114.22L651.4 22.4898H616.05C611.57 22.4898 608.29 19.2098 608.29 14.7298H608.3Z" fill="#0527FF"/>
<path d="M716.06 92.1501V79.9101C716.06 61.6301 729.68 49.7401 748.82 49.7401H800.03C801.58 49.7401 802.27 49.0501 802.27 47.5001V35.6001C802.27 26.1201 798.65 22.5001 789.17 22.5001H732.79C728.31 22.5001 725.03 19.2201 725.03 14.7401V9.57006C725.03 5.09006 728.31 1.81006 732.79 1.81006H789.17C813.14 1.81006 824.69 13.7101 824.69 37.3301V111.8C824.69 117.66 819.86 122.49 814 122.49H748.48C729.69 122.49 716.06 110.59 716.06 92.1401V92.1501ZM750.2 101.81H800.03C801.58 101.81 802.27 101.12 802.27 99.5701V57.1501C802.27 55.6001 801.58 54.9101 800.03 54.9101H798.65C797.44 54.9101 796.75 55.4301 796.41 56.4601L793.13 66.8101C792.44 68.8801 792.44 70.4301 788.13 70.4301H750.54C742.44 70.4301 738.47 73.3601 738.47 81.6401V90.4301C738.47 98.8801 742.44 101.81 750.19 101.81H750.2Z" fill="#0527FF"/>
<path d="M859.35 10.07L859.18 115.08C859.18 116.63 859.87 117.32 861.42 117.32H862.8C864.01 117.32 864.7 116.8 865.04 115.77L868.32 105.42C869.01 103.35 869.01 101.8 873.32 101.8H919.7C924.18 101.8 927.46 105.08 927.46 109.56V114.73C927.46 119.21 924.18 122.49 919.7 122.49H844.52C840.04 122.49 836.76 119.21 836.76 114.73L836.93 10.07C836.93 5.41004 840.55 1.79004 845.21 1.79004H851.07C855.73 1.79004 859.35 5.41004 859.35 10.07Z" fill="#0527FF"/>
<path d="M944.35 1.80003H950.21C954.87 1.80003 958.49 5.42003 958.49 10.08V50.94C958.49 51.8 959.18 52.49 960.04 52.49L972.28 52.66C973.49 52.66 974.69 52.14 975.38 51.28L1017.28 3.87003C1020.38 0.250028 1025.56 -0.099972 1029.35 3.18003L1032.28 5.77003C1035.9 9.05003 1036.07 14.05 1032.8 17.67L993.83 61.29L1039.69 104.22C1043.31 107.67 1043.66 113.01 1040.21 116.81L1036.93 120.43C1033.48 124.22 1028.31 124.4 1024.52 120.78L975.03 74.23C974.34 73.54 973.31 73.2 972.27 73.2H960.03C959.17 73.2 958.48 73.89 958.48 74.75V114.24C958.48 118.9 954.86 122.52 950.2 122.52H944.34C939.68 122.52 936.06 118.9 936.06 114.24V10.07C936.06 5.41003 939.68 1.79003 944.34 1.79003L944.35 1.80003Z" fill="#0527FF"/>
</g>
<defs>
<clipPath id="clip0_7_504">
<rect width="1042.62" height="122.46" fill="white" transform="translate(0 0.919922)"/>
</clipPath>
</defs>
</svg>
