<?xml version="1.0" encoding="UTF-8"?>
<svg version="1.1" viewBox="0 0 2048 911" width="1280" height="1280" xmlns="http://www.w3.org/2000/svg">
<path transform="translate(0)" d="m0 0h2048v911h-2048z" fill="#FCFCFC"/>
<path transform="translate(582,131)" d="m0 0h32l17 3 15 5 12 7 10 10 7 12 5 16 2 14v24l-1 4-20 1h-43l-5-1-1-6-1-26-3-5-5-3-9-1-6 3-5 8v11l5 10 12 12 15 10 19 14 9 7 10 9 9 9 9 13 8 16 4 15 2 13v11l1 5 20 7 3 1-1-7v-143l2-18 4-16 4-10 7-10 4-5 10-7 12-6 13-4 12-2h34l20 4 15 6 10 7 8 8 8 14 5 16 2 18v44l-1 5h-68l-1-53-3-10-3-3-9-2-9 3-4 8-1 11v154l2 10 5 5 10 1 6-2 4-4 2-8 1-54h69v50l-2 15-4 15-4 10-10 13-11 8-11 5-10 3-17 2 2 4 11 14 10 16 13 25 2 4 991 1 1 1v131l-1 30-11 1h-967l-3 7-8 22-6 14-12 22-12 18-14 18-23 23-10 8-12 9-20 13-16 8-23 10-24 7-20 4-26 3h-37l-34-6-29-9-15-6-16-8-17-9-17-12-13-11-10-8-12-12-7-8-10-14-12-19-10-17-7-14-9-30-2-3h-140l-25-1-1-57v-104l1-1h177l3-9 9-19 9-14 14-19 3-3-1-5-1-15v-262l1-12h67l1 184 1 54 12-7 4-1v2l-6 4-3 3h-2l-2 8 4 2h3l-1-3 7-1 3-3 1-3h2v2h4v4l6 1 2-5-5-1v-4l15-5 11-6 4-2-1-1h-21l4-2 14-4 26-6 15-3 9-1h13l7 3 12 1v-2l4-1-3-1-17-1-1-9-4-9-4-6-8-8-28-22-16-13-8-7-10-9-8-10-9-17-3-14v-23l3-16 5-12 7-11 10-9 15-8 16-5z" fill="#026CB7"/>
<path transform="translate(423,136)" d="m0 0h67l1 184 1 54 12-7 4-1v2l-6 4-3 3h-2l-2 8 4 2h3l-1-3 7-1 3-3 1-3h2v2h4v4l6 1 2-5-5-1v-4l15-5 11-6 4-2-1-1h-21l4-2 14-4 26-6 15-3 9-1h13l7 3 12 1v-2l7-2 18 1 6 4 13 1 2 2-3 4 4 2 6-1 2 1v2l5 2 14 7v-3l5-1 5 3v2l-2 1 1 4 4 2v2l5 2 14 8-1 5-7-1-7-2h-5l-3 1h-24l-16-2h-11v2l-4 2v2l6 1-1 3-2 1h-7l-2 1-9 1-5 1-2 4-9 4-2 5-7 4h-2l1 5 6 1 18-6 12-5 2-1 2 5-3 2-1 4 8-1 6-4 3-7 4-1 5 5v2l20 1 11 9 2 5-7 8-10 10-11 7 2 5-1 4-10 7-5 5-7 6-5 5-2 9 1 2 13 4 14 5h11v2l5 1 2 2 9 1 2 1v2l5 1v2l8-2h9l8 4v-1l-3-2v-5h3l-2-9 1-5 3 1 5-2v-3h-3v-3h-3v2l-2 1-2 4-2-1 1-6 4-5v-8l-3-5v-6l4 4v2l4 1 4 5-1 2 6 1v3l3-1h7l12 5 4-1 6 2-1 4-2 2-3-1 3 5 7 2 2-2 5-2 1-2-4-3v-6l1-2 7-2 3-1 10 2h2l-2-3 1-6 6 4 5 5 4 7-1 4-1 1-18-1v3l5 2 4 6 4 2-1 5h-9l-2-1 2 4 4 4 1 5h3l1 5h-6l-2 4h-4l3 5v7l5 1 3 4 5 2 1 2v15l-3 2-2 6-6 3-2 3-6 1-1 4 3 1 2-3h2l-1 5-9 3-7 5-1 2h-2l-1 5-6-2-1-4 2-1-1-3-8 1-4-1h-5l1-7 7-2 3-1 3 2 6 2 4 1 2-2h3l1-8 4-1 1-5 10-5 2-2v-3h-5v-2l2-1 1-5-4-2v3l-4 2-2 5-9 10-3-1v-2h-2v-5h-4v4l-9 1-1-5 4-2v-3l-6 1-14-7-2-3v-7h2l1-3h3l2-9 5-1-1-1-9 1v-4l3-1 1-8-6-5-8 3-1 7 1 8h7v4l-9 1v2h-3v-2l-5-2-2-1v-3h-4v-3l-5 4-2 3-7-1-6 1h-9l-5-1-3-10-10 3-2 1 2 6-2 2v3l4 3-1 5-1 9-2 5h-2l-1 11-4 2-8-5-5-5-8-4-5-3v-4l-4-1v-2l-11-2-3-1v3l4 2 5 3-1 3-6 4-7 8-17 7v8l2 7 7-3 5-4 5-8h9l14 5h19l16 2 4 4 1 8-1 7-1 3h7l3 2 7 1 5 4 7 11v6l-5 4-7 20-5 4h-2l2 3-1 5-6 2h-18l-18-3-9-1-4 3-2 9-3 4-3 1-3 7 6-4 5-3h7l3 2-1 4-5 1 1 6-6 4-3 7-2 3h-5-2l-5 2-11 2-7 7 10 2 3 3 3 5 2 2v20l2 1h18l4 4-1 10 2 1 12-7 4-4 6-1 1 3-6 8-9 9-4 7-4 4-6 2-25 4h-11l-5-2 1-4 5-3h3l-2-4-7-6-9-6-4-4-7 1-3 1-1 5-8 5-2 4h-14l-5 4h-9l-5 2 1 8-5 3h-6l-8-4-14 2-4-4-9-3-7-1h-3l-1 4-4-1-13-13-2-3-3-1v-2l-8-2-7-2-3 1-2-1v5l-4-2-13-13-7-8-10-14-12-19-10-17-7-14-9-30-2-3h-140l-25-1-1-57v-104l1-1h177l3-9 9-19 9-14 14-19 3-3-1-5-1-15v-262z" fill="#0492E0"/>
<path transform="translate(582,131)" d="m0 0h32l17 3 15 5 12 7 10 10 7 12 5 16 2 14v24l-1 4-20 1h-43l-5-1-1-6-1-26-3-5-5-3-9-1-6 3-5 8v11l5 10 12 12 15 10 19 14 9 7 10 9 9 9 9 13 8 16 4 15 2 13v11l1 5 20 7 3 1-1-7v-143l2-18 4-16 4-10 7-10 4-5 10-7 12-6 13-4 12-2h34l20 4 15 6 10 7 8 8 8 14 5 16 2 18v44l-1 5h-68l-1-53-3-10-3-3-9-2-9 3-4 8-1 11v154l2 10 5 5 10 1 6-2 4-4 2-8 1-54h69v50l-2 15-4 15-4 10-10 13-11 8-11 5-10 3-17 2 2 4 11 14 10 16 13 25 9 24v5h2l4 18 4 22 2 19 1 3v38l-5 26-4 16-8 24-7 16-12 22-12 18-14 18-23 23-10 8-12 9-20 13-16 8-23 10-24 7-20 4-26 3h-37l-34-6-29-9-15-6-16-8-17-9-17-12-13-11-5-4v-6l6-1 7 2 7 3v2l4 1 9 10 6 6 3 1v-5h4l9 1 8 4 3 3 14-2 8 4h6l5-2-2-8 6-3h11l1-3 5-1h11l2-4 8-5 1-4 5-3 7 1 5 5 9 6 5 5 1 4-6 3h-2v4l4 1h11l25-4 7-3 5-6 2-4h2l2-5 5-4 5-8v-2l-9 3-1 3-12 7-3-2 1-12-7-1h-14l-3-3v-19l-4-4-1-5-12-2v-3l5-2 2-4 13-3 6-2 4 2 2-4 3-7 4-3h2l-1-6 5-2v-3l-2-1h-7l-5 3-4 3h-2l2-7 5-3 2-4 1-7 5-4 16 2 11 2h18l6-2-1-7 6-4 7-20 5-4v-6l-8-12-3-2-9-2-1-1h-9l2-4 1-12-2-5-7-2-15-1h-15l-14-5h-9l-6 9-7 5-5 1-2-8v-8l9-4 10-5 8-9 4-2-1-3-7-4v-3l11 1 5 2-1 2 3 1 2 5 10 4 6 5v2l4 2 6 2 1-2 1-7 1-3h2l2-14 1-5-4-3 1-4v-3l-1-4 8-4h5l3 7 2 2 3 1h9l6-1 7 1 5-6h2v3h4v3l5 2 2 1v2h3v-2l9-2v-2h-7l-2-6v-8l3-4 8-2 5 5 1 4-2 5-3 2v2l10-1v2l-5 1v7l-2 3h-3l-1 2h-2l1 7 1 3 6 2 8 4h6v3l-3 2v4h9v-4h4v5h2l1 2 4-2 7-8 2-5 4-1v-3l4 1 1 2-2 5h-2v2l5-1 1 4-4 4-9 4-1 4-4 1v6l-1 2-5 3-10-3-5-2-3 2h-5l-1 7 6-1 5 1h6l2 4h-3l2 4 5 1 1-4h2l1-3 7-5 9-3 1-4-4 4-4-2 2-4 6-2 4-4 4-2 2-6 2-1v-17l-6-2-4-4-3-1-1-7-2-2v-3h4l1-4 5-1 2 1-1-5h-3l-3-7-4-4v-2h11v-4l-5-3-2-4-5-3v-3h18l1-4-5-8v-2l-4-2-4-3-1 5 3 5-4-1-10-2-4 2h-6v8l4 4-3 3-5 2-2 1-6-2-3-3v-3l4-1 2-4-8-1-3 1-11-5h-10v-3l-6-1-1-4-3-2-5-5-1-2 1 7 2 3v8l-4 5-1 6 3-4h2v-2h3v3h3v3l-6 3v-2h-2l1 4-1 2 1 8-2 2v3l4 4-2 1-3-3-5-2h-9l-2 1h-6l-1-2-4-1v-2l-11-1-4-3-3-1v-2l-11 1-19-7-9-3-1-4 3-9 5-4 9-7 5-6 8-5-1-5v-4l12-8 14-14 1-4-4-5-8-6-18-1-2-1v-2l-4-2-1-3-4 2-3 7-6 4-6 1-2-1 1-5 2-1-2-4-18 8-13 4-6-1-1-1v-5l6-3 3-3 2-4 3-2 6-2 2-3 5-2 9-1 3-1h6l3-3-6-1-1-3 5-1v-2l2-1h9l16 2h26l1-1 8 1 11 3 1-5-5-2-14-8v-2l-6-2 1-3-1-2h3v-2l-6-2h-4v3l-5-1-14-8v-2l-8 1-6-3 4-4-1-1-13-1-6-4-21-1-3-1-17-1-1-9-4-9-4-6-8-8-28-22-16-13-8-7-10-9-8-10-9-17-3-14v-23l3-16 5-12 7-11 10-9 15-8 16-5z" fill="#023D4F"/>
<path transform="translate(214,93)" d="m0 0h105l21 2 12 3 16 8 10 9 7 10 6 12 4 14 2 16v183l-3 21-5 16-6 11-8 10-10 7-16 7-14 3-10 1h-112v-329z" fill="#181819"/>
<path transform="translate(423,136)" d="m0 0h67l1 184v57l-4 3-5 2-12 10-6 2-3 3 1 4v7l-2 2-2 5-8 6-15 7h-5v2l4 2-7 3-5 5-5 6-7 14-6 14-4 5-5 11-1 19-2 7h-2l1 18 4 12 3 7 4 12 1 1v16l-2 20-4 7-6 8-8 3-6-1-1-4-2-1-1-2v44l-21 1h-118l-25-1-1-57v-104l1-1h177l3-9 9-19 9-14 14-19 3-3-1-5-1-15v-262z" fill="#026BB6"/>
<path transform="translate(966,131)" d="m0 0h35l20 4 16 6 10 7 7 7 7 11 6 18 3 19v155l-3 19-5 16-6 12-7 8-13 8-14 6-14 3-11 1h-24l-21-3-12-4-13-7-9-8-7-10-5-11-3-11-2-16-1-16v-131l2-24 4-16 8-16 8-9 10-7 16-7z" fill="#181819"/>
<path transform="translate(1351,131)" d="m0 0h29l20 3 15 5 11 6 10 9 7 10 6 16 3 15 1 9v87l-1 1-99 1-1 2v62l2 12 5 6 5 2h9l8-4 2-5 2-59 65-1 3 1v44l-2 20-4 17-7 14-8 9-14 9-16 6-9 2-9 1h-34l-16-3-13-5-11-6-12-12-8-15-4-14-3-21v-134l1-20 3-21 5-13 6-10 7-8 10-7 10-5 13-4z" fill="#181819"/>
<path transform="translate(1715,135)" d="m0 0h21l1 1 1 134 2 33 4 32 5 30 3 14h2l5-25 6-47 1-18 1-37 1-116h62l7 1v94l-1 40-2 29-4 28-5 23-6 21-9 25-16 33-14 26-3 3-4 1h-104v-42l43-1-16-32-10-28-7-23-5-24-4-27-1-11v-136z" fill="#181819"/>
<path transform="translate(1146,135)" d="m0 0h16l1 75 1 49 1 29 4 34 4 24 5 19 2 3 7-30 5-34 1-11 1-23 1-134h68v133l-2 35-4 27-6 26-9 26-9 20-9 15-6 8h-76l-6-5-12-21-9-20-9-27-6-28-3-25-2-34v-129l1-1z" fill="#181819"/>
<path transform="translate(776,131)" d="m0 0h34l20 4 15 6 10 7 8 8 8 14 5 16 2 18v44l-1 5h-68l-1-53-3-10-3-3-9-2-9 3-4 8-1 11v154l2 10 5 5 10 1 6-2 4-4 2-8 1-54h69v50l-2 15-4 15-4 10-10 13-11 8-11 5-10 3-19 2-4-4v-2l-3-1-4-5-8-7-15-13-13-10-5-3v-2l-5-2-14-8-16-8-8-3-3-3-1-7v-143l2-18 4-16 4-10 7-10 4-5 10-7 12-6 13-4z" fill="#18181A"/>
<path transform="translate(1576,132)" d="m0 0h22l14 4 10 6 7 6 7 11 5 13 3 21 1 27v54l-5 1h-32l-30-1-1-3-1-59-1-16-4-8-5-2h-10l-6 3-3 4-1 3-1 64-1 166h-68v-277l1-13 64-1v9l-1 5 12-6 9-6 10-4z" fill="#18181A"/>
<path transform="translate(763,519)" d="m0 0 7 6-2 8-3 2v2l10-1v2l-5 1v7l-2 3h-3l-1 2h-2l1 7 1 3 6 2 8 4h6v3l-3 2v4h9v-4h4v5h2l1 2 4-2 7-8 2-5 4-1v-3l4 1 1 2-2 5h-2v2l5-1 1 4-4 4-9 4-1 4-4 1v6l-1 2-5 3-10-3-5-2-3 2h-5l-1 7 6-1 5 1h6l2 4h-3l2 4 5 1 1-4h2l1-3 7-5 9-3 1-4-4 4-4-2 2-4 6-2 4-4 4-2 2-6 2-1v-17l-6-2-4-4-3-1-1-7-2-2v-3h4l1-4 5-1-2 1 3 10 6 3 10 1 3 4v3l-4 1-3-3-4 1v22l-1 7 5 2 3 2 1 13 6 4-1 4-2 1h-10l-1 4-5-1-4-8-1-3-2 1v7l1 2-3 1-2 6 2 1v2l7 2v3h-7l-4-1-5-10-6-1h-9l-6-4-7 7-2 7-2 2-2 6-7-1-5 3-3 1v6l3 4v10l8 4v2l-4 2-3 6-2 1h-14l-1 4h9v4l-5 3-7-2-6 9-1 2h9l1 2 6 2-1 4-10 10-15 10-14 9-7 5h-2l-4 8 5-1 17-8 9-6 5 1-6 10 1 8 5-3 1 4-6 2-4 1-5 3-4 5-6 6v8l4 4-1 13-2 3-7 2-6-1-2-5-6 1-5 3-7 2-8 1-7 5-3 1h-7l-2-2h-8l-2 13-9 15-3 7-1 4 13 3 8 1v1l-20 2h-37l-34-6-29-9-15-6-16-8-17-9-17-12-13-11-5-4v-6l6-1 7 2 7 3v2l4 1 9 10 6 6 3 1v-5h4l9 1 8 4 3 3 14-2 8 4h6l5-2-2-8 6-3h11l1-3 5-1h11l2-4 8-5 1-4 5-3 7 1 5 5 9 6 5 5 1 4-6 3h-2v4l4 1h11l25-4 7-3 5-6 2-4h2l2-5 5-4 5-8v-2l-9 3-1 3-12 7-3-2 1-12-7-1h-14l-3-3v-19l-4-4-1-5-12-2v-3l5-2 2-4 13-3 6-2 4 2 2-4 3-7 4-3h2l-1-6 5-2v-3l-2-1h-7l-5 3-4 3h-2l2-7 5-3 2-4 1-7 5-4 16 2 11 2h18l6-2-1-7 6-4 7-20 5-4v-6l-8-12-3-2-9-2-1-1h-9l2-4 1-12-2-5-7-2-15-1h-15l-14-5h-9l-6 9-7 5-5 1-2-8v-8l9-4 10-5 8-9 4-2-1-3-7-4v-3l11 1 5 2-1 2 3 1 2 5 10 4 6 5v2l4 2 6 2 1-2 1-7 1-3h2l2-14 1-5-4-3 1-4v-3l-1-4 8-4h5l3 7 2 2 3 1h9l6-1 7 1 5-6h2v3h4v3l5 2 2 1v2h3v-2l9-2v-2h-7l-2-6v-8l3-4z" fill="#015985"/>
<path transform="translate(582,131)" d="m0 0h32l17 3 15 5 12 7 10 10 7 12 5 16 2 14v24l-1 4-20 1h-43l-5-1-1-6-1-26-3-5-5-3-9-1-6 3-5 8v11l5 10 12 12 15 10 19 14 9 7 10 9 9 9 9 13 8 16 4 15 2 13v9l-1 6-11-1-13-1-6-4-21-1-3-1-17-1-1-9-4-9-4-6-8-8-28-22-16-13-8-7-10-9-8-10-9-17-3-14v-23l3-16 5-12 7-11 10-9 15-8 16-5z" fill="#18181A"/>
<path transform="translate(423,136)" d="m0 0h67l1 184v57l-4 3-5 2-12 10-6 2-3 3h-2l-1 3-8 5-7 6-5 5-10 11-3 1-2-3-1-15v-262z" fill="#18191B"/>
<path transform="translate(723,380)" d="m0 0 9 3 8 3 5 1 6 2 5 4v2l-3 1 1 2 7 3 1 2 5 3 5 2v2l3 1 1 5-2 4-1 7 7 1 1 3h7v2h8l2 1v2l4 2 1 3 3 1-2 1 2 3v4h-7l-4-6-4-2v2h-4l-1 9 4 1 2 2 7 1 1 2-8 1-5 1h-3l2 6 4 8 8 4 1-1h9l5-3 5 1 1 3-1 6 3 5-4-1-10-2-4 2h-6v8l4 4-3 3-5 2-2 1-6-2-3-3v-3l4-1 2-4-8-1-3 1-11-5h-10v-3l-6-1-1-4-3-2-5-5-1-2 1 7 2 3v8l-4 5-1 6 3-4h2v-2h3v3h3v3l-6 3v-2h-2l1 4-1 2 1 8-2 2v3l4 4-2 1-3-3-5-2h-9l-2 1h-6l-1-2-4-1v-2l-11-1-4-3-3-1v-2l-11 1-19-7-9-3-1-4 3-9 5-4 9-7 5-6 8-5-1-5v-4l12-8 14-14 1-4-4-5-8-6-18-1-2-1v-2l-4-2-1-3-4 2-3 7-6 4-6 1-2-1 1-5 2-1-2-4-18 8-13 4-6-1-1-1v-5l6-3 3-3 2-4 3-2 6-2 2-3 5-2 9-1 3-1h6l3-3-6-1-1-3 5-1v-2l2-1h9l16 2h26l1-1 8 1 11 3 1-5-5-2-7-4z" fill="#026BB6"/>
<path transform="translate(763,519)" d="m0 0 7 6-2 8-3 2v2l10-1v2l-5 1v7l-2 3h-3l-1 2h-2l1 7 1 3 6 2 8 4h6v3l-3 2v4h9v-4h4v5h2l1 2 4-2 7-8 2-5 4-1v-3l4 1 1 2-2 5h-2v2l5-1 1 4-4 4-9 4-1 4-4 1v6l-1 2-5 3-10-3-5-2-3 2h-5l1-5-3-6-4 1h-4l2-3v-5l-4-10-2-3-2-1-2 7h-2l-2 10-5 6-5 12 1 5-5 2-5-1-5 3-5 6-1 6 4 8 11 11v3l-7 2-1-2 1-3-4 1-5 9 12 2 8 1 7 3 5 3v4l4 2v3l-5 2h-8l-5-3h-11l-6 3-6 2h-3l1 6-5 5-2 5-10 7-8 6-5 3-3 5-12 8-5 5-4 5-14 7-4 5 2 4 4 4-6 7v4l8-2 20-7 3-4 7-1 4 4 5 2 1 6 4 7 8 3 4 5v8h5l2 7-1 5-2 1h-6l-2-3v-3l-4-2-2-4-11 2-7 7-15 6-7 3h-10v-1l11-2 5-3 4-5 2-4h2l2-5 5-4 5-8v-2l-9 3-1 3-12 7-3-2 1-12-7-1h-14l-3-3v-19l-4-4-1-5-12-2v-3l5-2 2-4 13-3 6-2 4 2 2-4 3-7 4-3h2l-1-6 5-2v-3l-2-1h-7l-5 3-4 3h-2l2-7 5-3 2-4 1-7 5-4 16 2 11 2h18l6-2-1-7 6-4 7-20 5-4v-6l-8-12-3-2-9-2-1-1h-9l2-4 1-12-2-5-7-2-15-1h-15l-14-5h-9l-6 9-7 5-5 1-2-8v-8l9-4 10-5 8-9 4-2-1-3-7-4v-3l11 1 5 2-1 2 3 1 2 5 10 4 6 5v2l4 2 6 2 1-2 1-7 1-3h2l2-14 1-5-4-3 1-4v-3l-1-4 8-4h5l3 7 2 2 3 1h9l6-1 7 1 5-6h2v3h4v3l5 2 2 1v2h3v-2l9-2v-2h-7l-2-6v-8l3-4z" fill="#026BB6"/>
<path transform="translate(560,579)" d="m0 0 6 2 7 8 2 5 6 1 8-5 6-4 7 1 3 3v15l10-4 10-5 6-5 5-8h9l14 5h19l16 2 4 4 1 8-1 7-1 3h7l3 2 7 1 5 4 7 11v6l-5 4-7 20-5 4h-2l2 3-1 5-6 2h-8l-3-3v-2l7-4 1-2-10-3-3-5v-5l-5 5-4 5-4 2h-8l-6-6 2-6 1-5-6-1-2 5h-3l-2-5h-3l-3 6-12 1-5 2 5 5 9 4 4 3-1 5-5 1-9-1-8 6-5 2-4-3-2-7-6-8-7-15-3-8-6-7-2-1 1-8-1-5-10 3-10 5h-18l-9-3h-5l-2-2 1-4 2-1 5 2 4-2-2-5-7-9 2-5 13-7 7-8z" fill="#FDFDFD"/>
<path transform="translate(485,670)" d="m0 0h5l2 5h1l1 9 7-2-1-5 2-3h9l3-2 10 2 12 1 2-1 9 1 3 3-3 6 3 1v6l-4 7-9 7-5 1v2l-6 4h-7l-4-4v-2l-5-2-3-1v8h2v2l7 2 8 1 9 7 4 4 5 1 2-4 1-1h8l2 1v-2l-4-2 1-5 3-4 13-4 7-3h10v4h7l5-5 4-3 12-2 1 3 2 1-1 1-9 1-2 1-1 11-4 3-1 3 5 1 5 3 2 2 4 1 1 2 12 5 2 1v9l-5 10-4 1-6-1-1-9-1-1-14-1v-3l-7 2-2 3 4 2 7 6 4 5 1 3 4 1 14 1 8 6 2 3-1 4-5 3-7-1-3-2v-5l-6 1-8-3-3-2-7 1-3 2-7-1v-4l5-2v-2l4 1-1-4-4-5v-5l-4-2-4-1v6l-1 3 2 2-1 7-1 1h-7l-7-2 1-4-5 2h-3l-1 3-5 2h-3l-1 6-3 4-5-2h-2l-4 2h-8l-12 3-2 2h-4v-2l-4-1v-4h-7l-3 3 1 3-5-1-5-5-4-5-4-9-5-5-4-2-16 4-11-11-5-6v-5l3-3 6 2 9-1 9-4 5 1 3 4 1 10 2-1h6l3 1-1-2v-7l5-3 4-2h6l2 1v2l5 2h7l1-11-2-3-3-1-2-4-3-3 1-7-5-1-7 2-3-3v-7l1-4-1-4-4-1-4-6 1-3h4v-8z" fill="#06A4F5"/>
<path transform="translate(739,471)" d="m0 0 4 4v2l4 1 4 5-1 2 6 1v3l3-1h7l12 5 4-1 6 2-1 4-2 2-3-1 3 5 7 2 2-2 5-2 1-2-4-3v-6l1-2 7-2 3-1 10 2h2l-2-3 1-6 6 4 5 5 4 7-1 4-1 1-18-1v3l5 2 4 6 4 2-1 5h-9l-2-1 2 4 4 4 1 5h3l1 5h-6l-2 4h-4l3 5v7l5 1 3 4 5 2 1 2v15l-3 2-2 6-6 3-2 3-6 1-1 4 3 1 2-3h2l-1 5-9 3-7 5-1 2h-2l-1 5-6-2-1-4 2-1-1-3-8 1-4-1h-5l1-7 7-2 3-1 3 2 6 2 4 1 2-2h3l1-8 4-1 1-5 10-5 2-2v-3h-5v-2l2-1 1-5-4-2v3l-4 2-2 5-9 10-3-1v-2h-2v-5h-4v4l-9 1-1-5 4-2v-3l-6 1-14-7-2-3v-7h2l1-3h3l2-9 5-1-1-1-9 1v-4l3-1 1-8-6-5-8 3-1 7 1 8h7v4l-9 1v2h-3v-2l-5-2-2-1v-3h-4v-3l-5 4-2 3-7-1-6 1h-9l-5-1-3-10-10 3-2 1 2 6-2 2v3l4 3-1 5-1 9-2 5h-2l-1 11-4 2-8-5-5-5-8-4-5-3v-4l-4-1v-2l-11-2-3-1v-2l11-2 7-1 1-3 8-4 18-2-1-4-5-5 8-3 15-5h11l5-1h6l2-1h9l8 4v-1l-3-2v-5h3l-2-9 1-5 3 1 5-2v-3h-3v-3h-3v2l-2 1-2 4-2-1 1-6 4-5v-8l-3-5z" fill="#01719E"/>
<path transform="translate(646,643)" d="m0 0 4 1 1 5 3-1 2-4h6l1 5-3 5 2 4 3 3h8l6-4 4-6 3-1 3 9 10 4-1 3-5 3h-2l1 4 2 1h-10l-18-3-9-1-4 3-2 9-3 4-3 1-3 7 6-4 5-3h7l3 2-1 4-5 1 1 6-6 4-3 7-2 3h-5-2l-5 2-11 2-7 7 10 2 3 3 3 5 2 2v20l2 1h18l4 4-1 10 2 1 12-7 4-4 6-1 1 3-6 8-9 9-4 7-4 4-6 2-25 4h-11l-5-2 1-4 5-3h3l-2-4-7-6-9-6 3-1 10 1 1 5 4 2h5l5-3-1-5-5-4-3-2-14-1-5-2-3-5-5-5-7-6 2-4 7-1v3h14l2 2v9h7l3-1 4-9 1-9-7-2-8-4v-2l-5-1-3-3-8-3 1-4 3-2 1-11 3-2 9-1-3-3-13 3-7 7-7-1v-4l-5 1-8 1-12 5-6 2-2 3 1 5 2 1v2h-10l-3 4h-5l-7-7-6-4-12-2-3-2v-2h-2l-1-8h4l5 3 2 5h9l4-3h2v-2l8-4 4-4h2l2-5 1-2v-6l-2-1 1-3 5 1 1-3 7-2 1-7h2l1-4 3-2h3l2 10h10l3-3 4 1 2 5 10 1 16-1 11-8 13 1 1-5-14-7-3-3v-2l5-3 12-1z" fill="#0492E0"/>
<path transform="translate(833,583)" d="m0 0 6 1 2 5-1 4 3 7 4 3v5l-5 5h-3l-1 5-1 10-5 1-2-2-7 1 4 4v6l-8 9h-7l-4-4-5 1-3 3-1 8 8 2-3 3-21 2-5 1 1 4 2 3v3l5 2 1 4-2 1h-6l-6-1h-2l-1 4-5 4-5 5-7 8-4 5-1 6 3 6 12-1 3-2 5 1 2 2-2 10v10l-5 10-6 5-3 2h-9l-8 9h-13l-4 2v10l-5 7-1 3v7l2 6-6 8-4 5-13 6-10 3-4 4-5 1-11-3h-11l-9 4h-2v6l1 3 8 2v2l4 1h-14l-13-3-1-3 3-5 3-8 6-9 2-7 1-8 1-1h8l2 2h7l9-5 1-1 11-2 7-3 6-2 6 6 8-1 3-1 2-10v-5l-4-4v-8l5-6 8-8h3l1-2 8-1-1-3-5 3-1-9 6-10-6 1-9 6-16 8-5-1 3-5 5-5 14-9 18-12 10-9 3-3 1-3-7-2v-2l-7 1-2-1 2-6 5-6 7 2 5-3v-2l-9-1 1-5h14l3-3 2-4 4-1-1-2-7-3-1-1v-10l-3-4 1-6 5-4 6-1 4 1 2-6 2-3 2-6 5-4 2-4 4 4 2 1h11l5 2 4 7v3h11l-1-2-6-2v-2l-3-1 2-6 3-2-1-5 1-4h2l3 4 3 7 4-1 1-3h10l2-1-1-4-5-3-1-13-5-3z" fill="#014861"/>
<path transform="translate(289,156)" d="m0 0 16 1 9 2 6 5 2 5 1 23v150l-2 12-5 6-6 2-8 1h-14l-2-5v-189l1-12z" fill="#FDFDFD"/>
<path transform="translate(505,366)" d="m0 0h3v2l-6 4-3 3h-2l-2 8 4 2h3l-1-3 7-1 3-3 1-3h2v2h4v4l6 1 2-5-5-1v-4l9-3 3 1-6 4 5 6-1 8 5-6 6 1 1 3-4 6-1 4 7 2v-11l3-7 4-4h6l1 2-6 10 4-1 3-1 2-4 2-2 1-8h7l-2 6-3 7v10l3-3h2l5 6 1 5 5 1 2 5-13 5-5 3-6-1-4-1 4 5-2 6-1 2h-2l-2 4-2 2-2 6v7l5 5-2 6-6 7-9 5v1l11 2-4 4-3 1h-8l-4-3-1-18-8 4-8 8-8 4h-10l2-5 7-7 10-15 6-5 3-6 4-5 4-6-1-8h-5l-2-4 3-7v-3l-3 4h-6l-1 3-4 2-5 4-2 6v8l-10 13-11 4-2 1h-7l2-4 9-9-1-5-6-3-8 1-5 5-4-1-3-4-1-5-11 3 4-4 3-2 2-4 2-1 2-5 1-1v-7l-1-4 5-5 6-2 12-10 7-3 4-4z" fill="#0491DF"/>
<path transform="translate(979,185)" d="m0 0h13l6 5 2 4 1 9v156l-2 12-7 6-3 1h-7l-7-3-5-8-1-11v-154l2-9 6-7z" fill="#FCFCFC"/>
<path transform="translate(1452,533)" d="m0 0h27l6 3 13 17 12 17 9 11 2 3v-51h21l1 1 1 81-1 2-3 1h-21l-5-3-10-11-13-19-11-15-6-7v53l-2 2-16 1-4-1-1-2v-82z" fill="#FDFDFD"/>
<path transform="translate(1314,533)" d="m0 0h30l8 7 12 17 14 20 6 7v2h2l-1-14v-38l1-1h20l1 1v82l-3 2h-23l-6-4-12-16-13-18-12-17-2-1v54l-2 2-7 1h-8l-4-2-1-2z" fill="#FDFDFD"/>
<path transform="translate(1219,532)" d="m0 0h13l6 3 6 8 35 70 1 4-1 1h-25l-5-6-4-9v-2h-43l-9 17-7 1h-17l-1-3 8-16 23-47 9-16 4-4z" fill="#FDFDFD"/>
<path transform="translate(485,670)" d="m0 0h5l2 5h1l1 9 7-2-1-5 2-3h9l3-2 10 2 12 1 2-1 9 1 3 3-3 6 3 1v6l-4 7-9 7-5 1v2l-6 4h-7l-4-4v-2l-5-2-3-1v8h2v2l7 2 8 1 9 7 4 4 5 1 2-4 1-1h8l2 3-1 4-6 4h-3l-2 5-17 7-9-1 2 5v5l-4 3-9 2-3 1-3 7-7 8-4 3-8-7-5-11-5-5-4-2-16 4-11-11-5-6v-5l3-3 6 2 9-1 9-4 5 1 3 4 1 10 2-1h6l3 1-1-2v-7l5-3 4-2h6l2 1v2l5 2h7l1-11-2-3-3-1-2-4-3-3 1-7-5-1-7 2-3-3v-7l1-4-1-4-4-1-4-6 1-3h4v-8z" fill="#FBFCFC"/>
<path transform="translate(1048,533)" d="m0 0h24l1 1v31h37v-32h24l1 8v35l-1 41-1 1-21 1-2-3v-33h-36l-1 35-19 1-5-2-1-4z" fill="#FDFDFD"/>
<path transform="translate(1587,532)" d="m0 0 68 1 1 1v18h-46l2 11 43 1 1 7v11l-1 1-44 1v12l1 2h45l1 1 1 17-6 2h-64l-2-2z" fill="#FDFDFD"/>
<path transform="translate(953,530)" d="m0 0h23l14 4 11 7 6 8 2 6-1 7-1 1h-20l-9-10-10-4-10 2-6 3-6 7-3 9v13l4 8 5 5 6 4h13l6-3 11-10 3-1h14l3 2v7l-3 8-7 8-10 6-14 3h-18l-16-4-10-6-7-9-4-10-2-11v-10l3-13 7-12 7-7 9-5z" fill="#FDFDFD"/>
<path transform="translate(394,701)" d="m0 0 4 1 7 3v2h2l4 8v2h9l15 6 8 4 3 6 7 1-3 2h-6l-6-2-2 2v5l14 15 4 1 7-3 7-1 7 5 3 4 4 10 7 6v2l5 1v-2l-2-1 4-4 7 1v4l4 1v2l5-2 6-2 7-2h8l6-3v2l5 1 3-5 1-4 8-3 1-2 4-2h4v3l6 2h7l1-7-2-3 2-8 5 1 3 2 2 7 4 5 1 4-6-3v2l-5 2v4l7 1-1 4-8 5-2 4h-14l-5 4h-9l-5 2 1 8-5 3h-6l-8-4-14 2-4-4-9-3-7-1h-3l-1 4-4-1-13-13-2-3-3-1v-2l-8-2-7-2-3 1-2-1v5l-4-2-13-13-7-8-10-14-12-19-4-7-4-10z" fill="#0492E0"/>
<path transform="translate(717,648)" d="m0 0 1 2h8l4 8v3l-16 8v6l-5 5-2 5-10 7-8 6-5 3-3 5-12 8-5 5-4 5-14 7-4 5 2 4 4 4-6 7v4l8-2 20-7 3-4 7-1 4 4 5 2 1 6 4 7 8 3 4 5v8h5l2 7-1 5-2 1h-6l-2-3v-3l-4-2-2-4-11 2-7 7-15 6-7 3h-10v-1l11-2 5-3 4-5 2-4h2l2-5 5-4 5-8v-2l-9 3-1 3-12 7-3-2 1-12-7-1h-14l-3-3v-19l-4-4-1-5-12-2v-3l5-2 2-4 13-3 6-2 4 2 2-4 3-7 4-3h2l-1-6 5-2v-3l-2-1h-7l-5 3-4 3h-2l2-7 5-3 2-4 1-7 5-4 16 2 11 2h18l6-2-1-7 6-4z" fill="#026BB6"/>
<path transform="translate(604,492)" d="m0 0h6l3 3 8 4 2 4-2 5h-2l-2 4-2 12 2 8 5 2 2 4h6l4-5 6-3h3l2-8 3-3 4-8 1-1h18l14 2 9-1 6 3 1 1 9 1 2 1v2l5 1-1 2-6 1h-9l-22 7 5 5 1 4-1 1-18 2-8 4-3 3-5 1-11 1v5l4 2 5 3-1 3-6 4-7 8-17 7v8l2 7 2 1-12 6h-4l-1-15-4-3-5-1v-8l-1-5 1-2h2l2-4 4-3h2l1-8 2-13v-13l-3-7-10-9-7-3 2-5 3-3 7-1 3-9z" fill="#07A5F6"/>
<path transform="translate(595,768)" d="m0 0 7 1 5 5 9 6 5 5 1 4-6 3h-2v4l4 1h18v1l-9 2h-7l-10-1-4 1h-9l-1 6-2 3-8-1-5 2v7l-4 3h-7l3 10 10 1-2 4-2 3-5-1-3-2-14-2-5-2-1-2-11-3-10-4-14-7-1-4-6-1-4-4-3 1-1 2-7-2-6-5-4-4h-4v-2h-3l-2-9-4-6 1-2 9 10 6 6 3 1v-5h4l9 1 8 4 3 3 14-2 8 4h6l5-2-2-8 6-3h11l1-3 5-1h11l2-4 8-5 1-4z" fill="#0172A9"/>
<path transform="translate(841,665)" d="m0 0 2 4-1 5-3 4h-2l-1 4-4 4-6 14 1 3-4 16-3 8-5 9 3 3-2 5-6 7-1-2-12 6-18 12-3-1 1-4h-2v-5l4-4 2-6-5 1 1-5 3-6-1-8 6-10 13-9 2-5-3-2-8 1h-6l-9 2-9-2-2-2 1-7 6-8 13-5h8v-2l10-4h2v-6l2-2h11l10-2 3 3 1 3 6-2z" fill="#063243"/>
<path transform="translate(648,344)" d="m0 0h8l4 3 13 1 2 2-3 4 4 2 6-1 2 1v2l5 2 14 7v-3l5-1 5 3v2l-2 1 1 4 4 2v2l5 2 14 8-1 5-7-1-7-2h-5l-3 1h-24l-16-2h-11v2l-4 2v2l6 1-1 3-2 1h-7l-2 1-13-1-6-4-4-5-1-3v-9l3-9-9-1-4-4h-17l-3-2v-2l11-3 12 1 6-3 11-1z" fill="#0492DF"/>
<path transform="translate(453,771)" d="m0 0 12 3 3 2v2h3l4 8 2 6v4l9 2 6 7 7 3 2-1 1-2 5 1 2 4 6 1 2 4 13 6 17 6 6 2v2l7 1 13 3 3 2h3l4-6h-8l-3-3-2-5v-3l9-2 1-2v-7l8-2 6 1 3-8 13-2 17 1 9-1v-2l9-1-2 15-9 15-3 7-1 4 13 3 8 1v1l-20 2h-37l-34-6-29-9-15-6-16-8-17-9-17-12-13-11-5-4v-6z" fill="#015986"/>
<path transform="translate(565,372)" d="m0 0h7l-2 6-3 7v10l3-3h2l5 6 1 5 5 1 2 5-13 5-5 3-6-1-4-1 4 5-2 6-1 2h-2l-2 4-2 2-2 6v7l5 5-2 6-6 7-9 5v1l11 2-4 4-3 1h-8l-4-3-1-18-8 4-8 8-8 4h-10l2-5 7-7 10-15 6-5 3-6 4-5 4-6-1-7 6-3 2-2 2-7 4-6h2l1-9h-2l2-9 5-5h6l1 2-6 10 4-1 3-1 2-4 2-2z" fill="#06A4F5"/>
<path transform="translate(697,530)" d="m0 0h5l3 7 2 2 3 1h9l6-1 7 1 5-6h2v3h4v3l5 2 2 2-9 4-11 4-8 6-9 6-5 13-2 3h-2l-1 11h-2v3h-2l-1 3-2-5-7-2-15-1h-15l-14-5h-9l-6 9-7 5-5 1-2-8v-8l9-4 10-5 8-9 4-2-1-3-7-4v-3l11 1 5 2-1 2 3 1 2 5 10 4 6 5v2l4 2 6 2 1-2 1-7 1-3h2l2-14 1-5-4-3 1-4v-3l-1-4z" fill="#0477C3"/>
<path transform="translate(1703,533)" d="m0 0h13l7 2 1 2 1 62 38 1 4 2 1 14-3 2h-64l-1-1-1-19v-64z" fill="#FDFDFD"/>
<path transform="translate(568,664)" d="m0 0h3l2 10h10l3-3 4 1 2 5 10 1 14-1-2 5 6-2h8l-1 6-6 3-1 4 4 2-2 3h-12l-10 2-4 6-4 3-7-1v-4l-5 1-8 1-12 5-6 2-2 3 1 5 2 1v2h-10l-3 4h-5l-7-7-6-4-12-2-3-2v-2h-2l-1-8h4l5 3 2 5h9l4-3h2v-2l8-4 4-4h2l2-5 1-2v-6l-2-1 1-3 5 1 1-3 7-2 1-7h2l1-4z" fill="#0493E1"/>
<path transform="translate(555,430)" d="m0 0 2 6 5-2 2 4h2l4 5 3 2 4-1 4-4 12-3 9 1 10 1 6-1 7 4 8 8-1 5-6 2h-14l-2 5-5 5-8 1v5 3h-14l-17 3-5 1h-13l-6-2 4-3 2-1-10-2v-3l10-6 5-6 1-5-5-5v-7l2-6z" fill="#07A5F6"/>
<path transform="translate(612,698)" d="m0 0 2 1v2l2 1-1 1-9 1-2 1-1 11-4 3-1 3 5 1 5 3 2 2 4 1 1 2 12 5 2 1v9l-5 10-4 1-6-1-1-9-1-1-14-1v-3l-7 2-2 3 4 2 7 6 4 5 1 3 4 1 14 1 8 6 2 3-1 4-5 3-7-1-3-2v-5l-6 1-8-3-3-2-7 1-3 2-7-1v-4l5-2v-2l4 1-1-4-4-5v-5l-4-2-4-1v6l-1 3 2 2-1 7-1 1h-7l-7-2-1-10 3-4-2-1-4-17 3-3 7 1 3 3 2 5 1 1 1-2 2-16 2-5 12-7 6-8z" fill="#FCFCFC"/>
<path transform="translate(965,548)" d="m0 0 9 2 6 4 7 8 20 1-2 9v2l3-2 2 13-3 3-2-1h-14l-5 3-10 9-5 2h-13l-9-6-6-9-1-3v-13l3-9 8-9z" fill="#0478C4"/>
<path transform="translate(694,785)" d="m0 0 4 1 2 4 6 1 7-2 3-3 2 7 1 5-6 8-4 5-13 6-10 3-4 4-5 1-11-3h-11l-9 4h-2v6l1 3 8 2v2l4 1h-14l-13-3-1-3 3-5 3-8 6-9 2-7 1-8 1-1h8l2 2h7l9-5 1-1 11-2 7-3z" fill="#014961"/>
<path transform="translate(725,520)" d="m0 0h9l8 4v2l6 2 5 4 2 6h7v4l-9 1v2h-3v-2l-5-2-2-1v-3h-4v-3l-5 4-2 3-7-1-6 1h-9l-5-1-3-10-10 3-2 1 2 6-2 2v3l4 3-1 5-1 9-2 5h-2l-1 11-4 2-8-5-5-5-8-4-5-3v-4l-4-1v-2l-11-2-3-1v-2l11-2 7-1 1-3 8-4 18-2-1-4-5-5 8-3 15-5h11l5-1h6z" fill="#0493E1"/>
<path transform="translate(443,427)" d="m0 0h2l-2 5-2 4 2 3v3l-5 1-4-3v-2h-2l-1 7v8l-3 9-6 17 7 1 2 3-1 8-5 3-7 7-1 2 6 1 2 2 1 4 8 4 1-6 5-4 5 2 1 1-1 7-2 2-7 1-6 7-6-1-2-2v-6l-5-4-17-4-1 15-3 13h-2l-3-4v-15l2-7 1-19 7-14 4-6 8-19 6-9 7-6 6-2 8-3 1-3z" fill="#FDFDFD"/>
<path transform="translate(597,342)" d="m0 0h13l7 3 12 1v-2l7-2 18 1v1l-7 2-10 9-11 1-6 3-12-1-6 2h-6l-2-1v2h-2l-1-2h-12l-9 1-3 1v4l8-1 8 1-1 4-1 1-16 2v8l-5 6-8 4 2-6 4-6v-1h-6l-5 6-2 15-9-1 2-5 4-6v-2l-6-1-5 6h-1v-6l1-3-5-6 5-4h2v-2l18-9-1-1h-21l4-2 14-4 26-6 15-3z" fill="#015D8C"/>
<path transform="translate(485,670)" d="m0 0h5l2 5h1l1 9 7-2-1-5 2-3h9l3-2 10 2 12 1 2-1 9 1 3 3-3 6 3 1v6l-4 7-9 7-5 1v2l-6 4h-7l-4-4v-2l-5-2-3-1v8h2v2l7 2 8 1v1h-9l-8-1v5l-5-5-1-4 1-5-5-1-7 2-3-3v-7l1-4-1-4-4-1-4-6 1-3h4v-8z" fill="#06A4F5"/>
<path transform="translate(394,701)" d="m0 0 4 1 7 3v2h2l4 8v2h9l15 6 8 4 3 6 7 1-3 2h-6l-6-2-2 2v5l14 15 4 1 7-3 7-1 7 5 3 4 4 10 1 2-5-2-9-3-4-2h-4l9 8 1 3h-3v-2l-8-2-7-2-3 1-2-1v5l-4-2-13-13-7-8-10-14-12-19-4-7-4-10z" fill="#06A2F3"/>
<path transform="translate(418,619)" d="m0 0 5 1 9 13 6 10 4 7 3 8v3h5l2-6 1-2 1-15 3-6 6 1 3 4-1 4v9l2-1-1 4-3 1 1 14-6 4 1 6 8 12 7 11 1 6-1 2-7-1-10-8-6-3-12-2-3-2 1-7 5-2-4-5-8-2-2-2 1-5 3-3v-9l-3-11v-5h-5l-3-5-3-13z" fill="#FDFDFD"/>
<path transform="translate(786,523)" d="m0 0 3 1v8l1 4h5v-2h2v-2h-3l2-5h4l7 2 2 2v7h2l2 7 1 7-5 3 2 4 2 1-1 4-2 1-2 5-9 10-3-1v-2h-2v-5h-4v4l-9 1-1-5 4-2v-3l-6 1-14-7-2-3v-7h2l1-3h3l2-9 5-1-1-1-9 1v-4l4-4 10 3h6v-9z" fill="#15A9F5"/>
<path transform="translate(463,523)" d="m0 0h9l3 5 5-1 5 2 1 3-8 11-5 10-7 5-3 1h-11l-8-4h-3l4 4-1 6-5 4h-13l-8-4-11-8 1-4 14-7 5 1 3 3 1-6 13-7 4-6z" fill="#FBFCFC"/>
<path transform="translate(526,504)" d="m0 0 3 1 3 3 7 3h10l12 2 5 3 2 6-1 6-5 4h-6v7l-7 6-8 6-6 7-3 1-2 2-4-6-3-4-6-18v-5h-7l-6 1-3-1-2-5 5-10 5-3 2-1h8l4 3-1 11-1 4 3 2 12 1-5-10-3-5-1-7z" fill="#FDFDFD"/>
<path transform="translate(1362,185)" d="m0 0h12l7 4 3 5 1 25v19l-3 1h-30l-1-1v-26l1-16 4-8z" fill="#FCFCFC"/>
<path transform="translate(653,510)" d="m0 0h18l14 2 9-1 6 3 1 1 9 1 2 1v2l5 1-1 2-6 1h-9l-22 7 5 5 1 4-1 1-18 2-8 4-3 3-5 1-11 1-2 8-5-1v-6l3-6 5-3 9-6 1-7-4-3v-5l6-11z" fill="#FDFDFD"/>
<path transform="translate(648,344)" d="m0 0h8l2 1 4 16-4 5-4 8-4 1-1 2 3-1-1 5-4 9 1 2 7 1v2l4 2-2 2-12 1-9-2-7-6-2-5v-9l3-9-9-1-4-4h-17l-3-2v-2l11-3 12 1 6-3 11-1z" fill="#FCFCFC"/>
<path transform="translate(684,346)" d="m0 0h1l1 5 20 7 6 2v2l10 3 16 8 12 7 5 3v2l5 2 14 11 15 13 11 10 7 8 1 3-4-2-4-5-6-3-10-3 1 3 2 1v2l-3 3h-2l-1 3-1-2-7-2v-7l2-4-1-5-3-3-5-2-5-3-1-2-7-3-1-3h4l-5-5-9-3-9-2-8-4-7-3-2-1v-2l-6-2 1-3-1-2h3v-2l-6-2h-4v3l-5-1-14-8v-2l-8 1-6-3 5-5h8z" fill="#024D68"/>
<path transform="translate(819,533)" d="m0 0 4 1h-2l3 10 6 3 10 1 3 4v3l-4 1-3-3-4 1v22l-1 7 5 2 3 2 1 13 6 4-1 4-2 1h-10l-1 4-5-1-4-8-1-3-2 1v7l1 2-3 1-2 6 2 1v2l7 2v3h-7l-4-1-5-10-6-1h-9l-6-4v-7l-7 2-2 4-6 1-1-5v-3-4l1 3 6-1 5 1h6l2 4h-3l2 4 5 1 1-4h2l1-3 7-5 9-3 1-4-4 4-4-2 2-4 6-2 4-4 4-2 2-6 2-1v-17l-6-2-4-4-3-1-1-7-2-2v-3h4l1-4z" fill="#01709C"/>
<path transform="translate(506,399)" d="m0 0h3v14l-3 5-1 7-1 5-9 12-11 4-2 1h-7l2-4 9-9-1-5-6-3-8 1-5 5-4-1-3-4-1-5-11 3 4-4 5-4 12-1-1-3-5-2 2-4 4-1v-2l2-1h15l9 3 6-2z" fill="#FDFDFD"/>
<path transform="translate(639,553)" d="m0 0 11 1 5 2-1 2 3 1 2 5 10 4 6 5v2l4 2 6 2 1-5 2 2 4 8 4 7-22-2h-15l-14-5h-9l-6 9-7 5-5 1-2-8v-8l9-4 10-5 8-9 4-2-1-3-7-4z" fill="#0492E1"/>
<path transform="translate(642,741)" d="m0 0 5 1 1 3-6 6v4l8-2 20-7 3-4 7-1 4 4 5 2 1 6 4 7 8 3 4 5v8h5l2 7-1 5-2 1h-6l-2-3v-3l-4-2-2-4-11 2-7 7-15 6-7 3h-10v-1l11-2 5-3 4-5 2-4h2l2-5 5-4 5-8v-2l-15 6-1-1v-6l-6-2-2-2-9 1-11 1 1-6 4-5z" fill="#01709D"/>
<path transform="translate(779,430)" d="m0 0 9 1v2h8l2 1v2l4 2 1 3 3 1-2 1 2 3v4h-7l-4-6-4-2v2h-4l-1 9 4 1 2 2 7 1 1 2-8 1-5 1-5 2v5l-4 6-5 1-4-5v-2h-3l1-5 2-6-4-1h-7l-4-3-9-2-1-2h3v-2l-3 1v-2h2l2-7-1-2 8-1-1-2 5-1 8-2 5 4 5-2z" fill="#0274AD"/>
<path transform="translate(604,492)" d="m0 0h6l3 3 8 4 2 4-2 5h-2l-2 4-2 12 2 8 5 2 3 5 6 2 2 2h-2l-1 4-8 10-6 3-2 10-9 5h-8l-1-4 4-5 5-2 1-8 2-13v-13l-3-7-10-9-7-3 2-5 3-3 7-1 3-9z" fill="#07A5F5"/>
<path transform="translate(783,461)" d="m0 0h1l2 6 4 8 8 4 1-1h9l5-3 5 1 1 3-1 6 3 5-4-1-10-2-4 2h-6v8l4 4-3 3-5 2-2 1-6-2-3-3v-3l4-1 2-4-8-1-3 1-11-5h-10v-3l-6-1-1-4-3-2-4-4 1-4 4-2 10 1 9 3 2-1 1 2 9 1 2-6 1-5z" fill="#015A87"/>
<path transform="translate(624,733)" d="m0 0 8 4-1 9-1 7 1 3-3 4v4l3 2 1 5 4 2 5 3 4 1 16 1 2 2-1 4-5 3-3 5-2 1-28 3-10-1v-3l5-3h3l-2-4-7-6-9-6 3-1 10 1 1 5 4 2h5l5-3-1-5-5-4-3-2-14-1-5-2-3-5-5-5-7-6 2-4 7-1v3h14l2 2v9h7l3-1 4-9 1-9-7-2z" fill="#0BA6F5"/>
<path transform="translate(646,643)" d="m0 0 4 1 1 5 3-1 2-4h6l1 5-3 5 2 4 3 3h8l6-4 4-6 3-1 3 9 10 4-1 3-5 3h-2l1 4 2 1h-10l-18-3-9-1-4 3-2 9-4 4-1-4-3 1v1l-9 1-2-3 1-5 7-4 5-5v-3l-5-2-9-4-5-4v-2l5-3 12-1z" fill="#0477C3"/>
<path transform="translate(584,615)" d="m0 0 3 1 1 8-2 5 4 2 6 8 7 17 6 10 3 3 1 6 2 2-9 2h-10l-5-2-2-5-4 1-2 2-10-1-2-10-12 5-3-1 3-8 4-4h13l2 4 4-1 4-8 1-3v-12l1-3-6-2-4-3-1-7-4-2z" fill="#06A4F5"/>
<path transform="translate(540,419)" d="m0 0 5 2 2 2 9 1 1 4-5 6-2 6v7l5 5-2 6-6 7-9 5v1l11 2-4 4-3 1h-8l-4-3-1-18-8 4-8 8-8 4h-10l2-5 7-7 10-15 7-6h6l1 2-2 6 14 2 6 2v-16l2-2-4-2h-2l-4-6v-5z" fill="#FDFDFD"/>
<path transform="translate(759,546)" d="m0 0 2 2v10l3 1v2l6 2 8 4h6v3l-3 2v4h9v-4h4v5h2l1 2 4-2 7-8 2-5 4-1v-3l4 1 1 2-2 5h-2v2l5-1 1 4-4 4-9 4-1 4-4 1v6l-1 2-5 3-10-3-5-2-3 2h-5l1-5-3-6-4 1h-4l2-3v-5l-4-10-2-3-2-1-2 7h-2l-1 5-3 5-2-4 2-9v-7l4-8z" fill="#01709D"/>
<path transform="translate(818,479)" d="m0 0 6 4 2 2-1 5h-2v2l-5 4-10 3h-3l2 3 7 1 2 2-1 5-6 2 1 5 3 3-1 3h-15l-5-6-5-1-3-4-5-1-3-4 1-7-3-1-1 5-2 4-8 5-6-2v-7l7-3-2-4 1-5h13l2 1 4-1 6 2-1 4-2 2-3-1 3 5 7 2 2-2 5-2 1-2-4-3v-6l1-2 7-2 3-1 10 2h2l-2-3z" fill="#0494E3"/>
<path transform="translate(739,471)" d="m0 0 4 4v2l4 1 4 5-1 2 6 1v3l3-1h7l6 3v1l-9 1 1 5v4l-6 2v7l5 1 5-2-1 6 9-1 3 1 1 6-3 10-2 1-6-3-1 2 1-7-6-5-8 3-1 7-1 3-9-6-2-4-3-2v-5h3l-2-9 1-5 3 1 5-2v-3h-3v-3h-3v2l-2 1-2 4-2-1 1-6 4-5v-8l-3-5z" fill="#0274AD"/>
<path transform="translate(549,743)" d="m0 0 5 1v7l3 3-1 9-3 3-5 1-1 6-3 4-5-2h-2l-4 2h-8l-12 3-2 2h-4v-2l-3-1 1-5 7-8 4-5h2l2-4 6-4 13-3h2l3-3h3v-3z" fill="#FDFDFD"/>
<path transform="translate(589,796)" d="m0 0 3 1 1 3 7-1-3 1-1 6-2 3-8-1-5 2v7l-4 3h-7l3 10 10 1-2 4-2 3-5-1-3-2-14-2-5-2-1-2-4-2h11l-2-4-6-2h-7l-7-2-1-4 5-3 8-2h14l8-8 3-5 3 1h13z" fill="#01719D"/>
<path transform="translate(383,515)" d="m0 0h1l2 16 5 3 4 12 3 7 4 12 1 1v16l-2 20-4 7-6 8-8 3-6-1-1-4-2-1-1-2-1 11h-1l-1-19v-11h2l3 8 3 9h9l5-3 5-19 1-5-1-6-5 2-2-4v-15l-2-12-2-6h-2l-4-5-2-7v-8l4-6z" fill="#0477C3"/>
<path transform="translate(453,771)" d="m0 0 12 3 3 2v2h3l4 8 2 6v4l9 2 6 7 7 3 2-1 1-2 5 1 2 4 6 1 2 4 13 6 17 6 6 2v2l7 1 13 3 2 4-9-1-16-4-30-10-19-9-18-10-17-12-13-11-5-4v-6z" fill="#015985"/>
<path transform="translate(667,701)" d="m0 0 1 2 3 1-4 1-7 8-4 3-5 1v5l-4 5-7 2-2 5 1 5 5 4-1 5-3 4-2 6 15-3h5l8 5 1 6 6-2-1 3-12 7-3-2 1-12-7-1h-14l-3-3v-19l-4-4-1-5-12-2v-3l5-2 2-4 13-3 6-2 4 2 2-4 4-5 6-2 3 1zm-25 39 2 1z" fill="#0271AA"/>
<path transform="translate(405,612)" d="m0 0 6 1 3 5 4 13 5 12-1 7-3 3-7-1-12-2-9 1-2-3-1-11 2-8 3-2 6 5 3-6 2-12z" fill="#FDFDFD"/>
<path transform="translate(459,397)" d="m0 0 3 4v7l-2 2-2 5-8 6-15 7h-5v2l4 2-7 3-5 5-5 6-7 14-6 14-4 5-5 11-8 2 1-5 10-21 9-14 14-19 5-6 5-4 7-8 5-5 11-9 4-2z" fill="#0494E2"/>
<path transform="translate(955,551)" d="m0 0h5l-1 8-2 4-2 6v7l1 5 7 2h7v1l-5 1 5 2 1-3 4 2 1 4-4 7-3 2h-6l-9-4 4 5-5-2-5-4-5-8-1-3v-13l3-9 8-9z" fill="#026CB7"/>
<path transform="translate(653,398)" d="m0 0h9l3 5v5l-3 1 1 5-7 6-3-1 2-1-2-4-18 8-13 4-6-1-1-1v-5l6-3 3-3 2-4 3-2 6-2 2-3 5-2 9-1z" fill="#0375C1"/>
<path transform="translate(763,519)" d="m0 0 7 6-2 8-3 2v2l10-1v2l-5 1v7l-2 3h-3l-1 2h-2v7h-1l-1-10h-2l-6 8-1 3v10l-3 9-5 3-3 3-2-1h-3l2-3-1-2 1-3h-3l5-6 4-9v-2h2l-1-6 5-7h4v-2l9-2v-2h-7l-2-6v-8l3-4z" fill="#0272AB"/>
<path transform="translate(844,493)" d="m0 0h2l4 9 4 11v5h2l4 18 3 15v19l-4-3v-11l-2-3-5-2-4-6-3-8-1-7-4-4 1-4 2-2 2-9-3-4z" fill="#063345"/>
<path transform="translate(680,469)" d="m0 0 2 1-7 11v6l6 2 3 3-2 6 4 5 5 4-1 3-7 1-19-7-9-3-1-4 3-9 5-4 9-7 5-6z" fill="#0477C3"/>
<path transform="translate(537,357)" d="m0 0h13l2 2-10 6-12 5-9 2v4h5v3l-2 3-6-1v-4h-4v-2h-2l-1 5-5 3-5-1 2 4h-4l-4-3 1-6 5-5 5-4h2l-1-3 13-6 4-1z" fill="#07A5F6"/>
<path transform="translate(595,768)" d="m0 0 7 1 5 5 9 6 5 5 1 4-6 3h-2v4l4 1h18v1l-9 2h-7l-10-1-7 1 2-2 6-1-2-3-9-2-5 2v-2l-6-1-2-4-1-8 3-4 1-4z" fill="#026BB5"/>
<path transform="translate(673,540)" d="m0 0h11v1l-8 1 1 3v7l-2 2-2 5-6-2h-2l5 6 9 2 5 5 3 8-4 2-8-5-5-5-8-4-5-3v-4l-4-1v-2l-11-2-3-1v-2l11-2 7-1 1-3 8-4z" fill="#07A5F6"/>
<path transform="translate(701,375)" d="m0 0h12l10 5 12 7-1 5-7-1-7-2h-5l-3 1h-24l-16-2-2-1v-2l7-3 5-2 9-1 3-2z" fill="#06A1F1"/>
<path transform="translate(565,372)" d="m0 0h7l-2 6-8 16-1 10-1 4-9 7-10-3v-8l3-5h2l1-9h-2l2-9 5-5h6l1 2-6 10 4-1 3-1 2-4 2-2z" fill="#FDFDFD"/>
<path transform="translate(427,671)" d="m0 0 2 4 3 2 7 2 3 3v2l-4 2-2 7 13 3-4 4-3 1-7-3-1 7-6-1-9-7-6-9-7-2-1-5 14 1 7-8z" fill="#06A4F5"/>
<path transform="translate(814,560)" d="m0 0 4 1 1 2-2 5h-2v2l5-1 1 4-4 4-9 4-1 4-4 1v6l-1 2-5 3-10-3-6-3 1-10-1-3 5-2h4v-4h4v5h2l1 2 4-2 7-8 2-5 4-1z" fill="#0171A0"/>
<path transform="translate(610,677)" d="m0 0h6l-2 5 6-2h8l-1 6-6 3-1 4 4 2-2 3h-12l-15 3-3-17 1-5 14-1z" fill="#0477C3"/>
<path transform="translate(656,561)" d="m0 0 3 3 10 4 6 5v2l4 2 6 2 1-5 2 2 4 8 4 7-22-2h-15v-1l8-1-6-3-4-7-4-4-2-6 3-3h2z" fill="#06A4F5"/>
<path transform="translate(508,413)" d="m0 0h1l-1 7-2 4 4 1h5v6l-1 1h-8l-6 8-5 4-4 2-1 7-2 7-8 9-3 4-6-1-3-2 2-4 3-2v-2l-3-1-1-4 1-7 2-3h2l1-2v2l9-2 12-5 8-11v-8l3-7z" fill="#06A4F5"/>
<path transform="translate(725,627)" d="m0 0 4 2 7 6 1 5-7 2-1-2 1-3-4 1-5 9 12 2 8 1 7 3 5 3v4l4 2v3l-5 2h-8l-5-3h-11l-6 3-6 2-2-1 14-7h2l-4-10-8-1 1-7 3-5 3-2z" fill="#01719D"/>
<path transform="translate(429,480)" d="m0 0 4 4 1 4 5-5 4-1 3 2-2 7-1 1 5 1-2 6-1 5-7 2-3 4-1 4-6-2-3-2-2-5-6-2 2-4 8-8h3l-1-3 1-5z" fill="#06A4F5"/>
<path transform="translate(773,538)" d="m0 0h2l1 5-4 5v2l4 2 1 5-1 5h6l2-3h8l7 2 2 4v4l-5 3-2 1-4-1v4l-9 1-1-5 4-2v-3l-6 1-14-7-2-3v-7h2l1-3h3l2-9z" fill="#0492E0"/>
<path transform="translate(383,678)" d="m0 0h3l3 10v2l10 7 6 3-2-6-3-5v-4l10 1 3 1v9l4 8 3 4v5h-2l-1 3-6 1-3-6-1-4h-2l-1-2-6-2-4-2 4 9-1 2-8-13-5-13z" fill="#026BB3"/>
<path transform="translate(566,453)" d="m0 0 11 2 3-2h9l5 6-1 2-9 4-4 3-14 3-7 2h-6l-1-4 5-4 3-10z" fill="#FDFDFD"/>
<path transform="translate(526,457)" d="m0 0h3l1 4 1 14 3 2 8 1-1 4-6 2-4 1h-14l-2-3-2-4-3-8 10-9z" fill="#07A5F6"/>
<path transform="translate(646,643)" d="m0 0 4 1 1 5 3-1 2-4h6l1 5-3 5 2 4 2 3h-6l-4 1-3-1-7 4-11-5-6-4-1-3 5-3 12-1z" fill="#0492E1"/>
<path transform="translate(692,790)" d="m0 0 3 1-1 7-4 3-10 2-2 5-4 3-3 1h-9l-10-1-2-4 4-5 13-4 8-3 14-3z" fill="#023D4F"/>
<path transform="translate(579,358)" d="m0 0h12l1 3h2v-2l3 1 3 3h17l4 3-1 2-2-2-7-1-2 5-9 4-2 2h-10l-5-2-2-3 2-6h-16v-4l3-2z" fill="#048FDC"/>
<path transform="translate(448,627)" d="m0 0h5l8 4-4 2-2 5-1 15-4 8-3 1-2-1-3-10-4-5-2-6 3-5h2v-2h3l2-4z" fill="#06A4F5"/>
<path transform="translate(839,557)" d="m0 0 5 1 5 2 5-1 3 3v8l-2 6h-4v-5l-3-1-3 9-3 3h-10l1-20 4-4z" fill="#063243"/>
<path transform="translate(833,583)" d="m0 0 6 1 2 5-1 4 3 7 4 3v5l-5 5h-3l-1 5-1 10-5 1-2-2h-7l2-3-7-3v-2l-3-1 2-6 3-2-1-5 1-4h2l3 4 3 7 4-1 1-3h10l2-1-1-4-5-3-1-13-5-3z" fill="#014860"/>
<path transform="translate(519,674)" d="m0 0 6 2 3 4 2 6v8l-7 9-5 2-6-4-2-5 2-9 3-9z" fill="#FDFDFD"/>
<path transform="translate(453,771)" d="m0 0 12 3 3 2v2h3l4 8 2 6v4h3l1 5 6 4-2 1-12-8-13-10-12-10v-6z" fill="#014B66"/>
<path transform="translate(726,523)" d="m0 0 6 1 8 6v2l9 1 2 5h2l-1 6-6-2-3-2v-3h-4v-3l-5 4-2 3-7-1-6 1h-9l-3-4 2-3 11-1 2-1 1-5z" fill="#FDFDFD"/>
<path transform="translate(459,397)" d="m0 0 3 4v7l-2 2-2 5-8 6-15 7-7 1-2-2 5-4 7-8 5-5 11-9 4-2z" fill="#015B8C"/>
<path transform="translate(402,719)" d="m0 0 5 2 6 3 6 7 1 3h4l2 5-4-2 6 7 4 7 3 7 4 8-2 2-14-15-9-13-12-19z" fill="#016F9F"/>
<path transform="translate(813,580)" d="m0 0 3 1v3l-7 4-2 9-5 6-3 3h-2l-1 5-6-2-1-4 2-1-1-3-8 1-4-1h-5l1-7 7-2 3-1 3 2 6 2 4 1 2-2h3l1-8 4-1 1-3z" fill="#07A5F6"/>
<path transform="translate(636,342)" d="m0 0 18 1v1l-7 2-10 9-11 1-6 3-11-2 2-10 1-3 17 2v-2z" fill="#0492E0"/>
<path transform="translate(601,374)" d="m0 0h5l4 2h3v7l-4 3-3 1h-14l-6-3h-10l-2 2h-3l1-7 5-3h24z" fill="#0477C3"/>
<path transform="translate(816,556)" d="m0 0 5 2 4 4 4 1 1-2v13l-3 2-2 6-6 3-2 3-6 1-1 4 3 1 2-3h2l-1 5-9 3-4 2 3-4 2-9 5-4h3v-3l-4 1-5 1 1-3 10-5 2-2v-3h-5v-2l2-1 1-5-4-2-1 3-1-6 4 1z" fill="#0273AC"/>
<path transform="translate(831,583)" d="m0 0 5 2 3 2 1 13 6 4-1 4-2 1h-10l-1 4-5-1-4-8-1-3-2 1v7l1 2-3 1-3 6-1-3 3-10 1-5 3-5 6-3h3l2 6 5 1-2-12z" fill="#015985"/>
<path transform="translate(826,485)" d="m0 0 4 5 3 5-1 4-1 1-18-1v3l5 2 4 6 4 2-1 5h-9l-2-1 2 4 4 4 1 5-4-2-3-5v-3l-5-2v-5l3-2h3v-5l-1-1-7-1-2-4 13-4 3-3h2v-2h2z" fill="#016999"/>
<path transform="translate(531,619)" d="m0 0 9 1 8 3h9l8 1v1l-14 1-5 4-6 1 1 7-1 1h-18l-3-2 1-5 4-1 6-1 1-4z" fill="#0DA7F6"/>
<path transform="translate(622,390)" d="m0 0h4l-1 11-4 6-4 2h-20l-10-1 1-2 7-3 6-2 8-2z" fill="#07A5F6"/>
<path transform="translate(485,671)" d="m0 0 5 1v11l8 14 2 6-4 4-6 1-3-3v-7l1-4-1-4-4-1-4-6 1-3h4v-8z" fill="#FDFDFD"/>
<path transform="translate(800,458)" d="m0 0v3 2l3 7v2l8 2h5l-3 2-5 3h-9-3l-6-3-2-2-3-7-1-1v-5l7-1 5-1z" fill="#014A63"/>
<path transform="translate(477,514)" d="m0 0 9 2 6 4 1 5-4 4h-2l-1 2-2-2-6-1-4 1-2-5h-9l-6 3-2-1 3-3 5-4 8-4z" fill="#07A5F6"/>
<path transform="translate(725,520)" d="m0 0h9l8 4v2l6 2 5 4 2 6h7v4l-9 1v2l-3-1h2l1-6h-2l-2-4h-6l-9-8-4-2-5 1-6 1v2l-7-1-5 1-7-3 2-2 8-1 13-1z" fill="#0478C5"/>
<path transform="translate(635,737)" d="m0 0h3l5 5 1 5-4 5-2 6 15-3h5l8 5 1 6 6-2-1 3-12 7-3-2 1-12-7-1h-14l-3-3v-16zm7 3 2 1z" fill="#0272AA"/>
<path transform="translate(527,497)" d="m0 0 4 2 1 9-3-1-3-3 2 4 2 10 4 5 2 4v3h-12l-4-3 1-9 1-6-3-2-8-1v-1l9-1 5-9z" fill="#07A5F6"/>
<path transform="translate(384,653)" d="m0 0 4 4 4 8v3h2l5 17 2 6 4 4v5l-6-2-8-6-3-13 1-4-2-9-3-10z" fill="#06A3F4"/>
<path transform="translate(537,357)" d="m0 0h13l2 2-10 6-12 5-9 2v4h5v3l-4 2v-2l-3 1v-4l-3-1 2-3h2l3-10 6-4z" fill="#FDFDFD"/>
<path transform="translate(657,549)" d="m0 0h2l-1 4 9 6 3 4 9 2 5 5 3 8-4 2-8-5-5-5-8-4-5-3-1-8-2-1h2l-1-4z" fill="#FDFDFD"/>
<path transform="translate(588,815)" d="m0 0 5 1 2 9 6-2 4-2 7 1 5 5-1 3-5 2-15 1-3-3-6-1-1-4v-8z" fill="#01719D"/>
<path transform="translate(575,704)" d="m0 0 7 1 2 3-1 4-4 4-7 3-2 2-5-1-1-1-7-1-2-2 1-4 12-5z" fill="#FDFDFD"/>
<path transform="translate(1223,558)" d="m0 0 4 4 7 17v2h-23l8-16z" fill="#0491DF"/>
<path transform="translate(818,479)" d="m0 0 6 4 2 2-1 5h-2v2l-5 4-7 2h-14l-1-3 1-6 7-2 3-1 10 2h2l-2-3z" fill="#20ABF3"/>
<path transform="translate(503,394)" d="m0 0h5l4 5 8-2 7 3-4 6h-6l-1 3-4 2-3 2-1-10 1-4-6 3-5 4-4 1-9-3-11-1v-1l16-2 3-1 1 5h2v-2l5-5z" fill="#07A5F6"/>
<path transform="translate(819,533)" d="m0 0 4 1h-2l3 10 6 3 10 1 3 4v3l-4 1-3-3-4 1-1 14h-1l-1-11-6-2-4-4-3-1-1-7-2-2v-3h4l1-4z" fill="#01719D"/>
<path transform="translate(787,618)" d="m0 0h5l2 6h-8l-2 6 1 3h2l-1 5-5 2v2l-5 3-6-1-3-3-1-8h4l3 2 6-5 2-7z" fill="#023D4F"/>
<path transform="translate(717,648)" d="m0 0 1 2h8l4 8v3l-16 8-3 3-1 4-6 1 1-3-3-1 6-2-1-7 6-4z" fill="#0493E1"/>
<path transform="translate(552,542)" d="m0 0 3 2-1 4-4 9-2 2-8 5-4 4-4-1-5-9 1-2 3 3 4-2 7-8z" fill="#0AA6F6"/>
<path transform="translate(538,674)" d="m0 0 9 1 3 3-3 6 3 1v6l-4 4-6 1-2 4-4 3-4-1 5-7 3-1 2 1v-8l1-2h-2l-4-6 1-4z" fill="#FDFDFD"/>
<path transform="translate(773,451)" d="m0 0 4 1 6 5-1 11-4 6-5 1-4-5v-2h-3l1-5z" fill="#FDFDFD"/>
<path transform="translate(407,683)" d="m0 0 14 1 6 3 6 8 1 3v7l-6-1-9-7-6-9v-2l-6-2z" fill="#FDFDFD"/>
<path transform="translate(994,624)" d="m0 0 10 1v2l3 1-1 3-3 2-5 1v3l-6 1v-2h-17l-3-2 3-3 10-2 5-4z" fill="#0477C3"/>
<path transform="translate(621,539)" d="m0 0 9 1 3 3h-2l-1 4-8 10-6 3-2 3-2-3v-9h2v-5l4-5z" fill="#FDFDFD"/>
<path transform="translate(653,398)" d="m0 0 5 1-2 5-5 2-3 3-3 6-2 2h-6l-5-3 1-7 4-5 5-2 9-1z" fill="#026DB8"/>
<path transform="translate(394,701)" d="m0 0 4 1 7 3v2h2l4 8v2l4 1v2l5 4 3 1v3h-8l-2-4-6-2-7-4-6-14z" fill="#038CD9"/>
<path transform="translate(644,702)" d="m0 0 4 1 1 4-2 3-12 6-11 2-5 3h-6l1-5 8-4h6v-2l5-4 10-3z" fill="#1EADF6"/>
<path transform="translate(774,499)" d="m0 0 4 1-1 7 5 5 3 6v5l-1 2 1 8-6 1-3-2 3-11-1-5h-8l-4 1 2-8 3-2z" fill="#01709D"/>
<path transform="translate(577,345)" d="m0 0 3 1-2 1-2 4-7 3-7 2-16 8-2-1 7-4-1-1h-21l4-2 14-4 26-6z" fill="#0599E8"/>
<path transform="translate(660,398)" d="m0 0h2l3 5v5l-3 1 1 5-7 6-3-1 2-1-2-4-9 4-2-1 4-5 3-5 3-3 4-1 2-4z" fill="#0477C3"/>
<path transform="translate(658,365)" d="m0 0 1 3-3 8v3l6 5-1 6-4 2v2l6 1-1 3-5 1v-3l-2-1v-2h-8l-1-3 4-9 1-4h-2l1-3h4l2-5z" fill="#19ABF6"/>
<path transform="translate(700,376)" d="m0 0 4 1 3 3-1 5-4 2h-7l-6-2-10 2-8-1 2-3 9-3 9-1 3-2z" fill="#FDFDFD"/>
<path transform="translate(683,617)" d="m0 0 10 1 1 1-1 8-12 3h-8l-1-1v-6l8-5z" fill="#07A5F6"/>
<path transform="translate(763,492)" d="m0 0h10l2 1-1 5-3 5-2 6-6 4-6-2v-7l7-3-2-4z" fill="#FDFDFD"/>
<path transform="translate(763,519)" d="m0 0 7 6-2 8-5 2v2l-7-1-3-6 1-7 5-3z" fill="#016F9C"/>
<path transform="translate(587,656)" d="m0 0 6 1 5 8 3 6v6l-2 2-7-1-3-6-2-6z" fill="#FDFDFD"/>
<path transform="translate(563,656)" d="m0 0h8l5 5 2 5 2 2v5h-7l-2-6v-3l-12 5-3-1 3-8z" fill="#FDFDFD"/>
<path transform="translate(641,712)" d="m0 0 4 2-2 3h-2l-1 2-3 1-1-2-2 3v10l-3 3-2-6-12-2v-3l5-2 2-4 13-3z" fill="#026BB5"/>
<path transform="translate(684,650)" d="m0 0h2l3 9 10 4-1 3-5 2-7-1-5-4h-8v2l-7 1-1-4 4-1 6-1 5-5z" fill="#0496E5"/>
<path transform="translate(422,640)" d="m0 0 7 2 4 16v9l-5 4 1-6-5-8h-6l-4-4 6-2 2-4z" fill="#07A5F6"/>
<path transform="translate(464,393)" d="m0 0h5v2l5 2v4 2l-6 1v2l-4 1v4l4 2v3l-13 2 1-3 2-1 2-5 1-1v-7l-1-4z" fill="#20A9F1"/>
<path transform="translate(595,772)" d="m0 0 4 2-1 5 5 1 4-3 6 1-1 5-6 4-6 2-7 1-1-5 2-8h-2l1-4z" fill="#015985"/>
<path transform="translate(579,747)" d="m0 0 5 1 3 2 2 7 4 5 1 4-6-3v2l-5 2-1 4-2-4h-7v-1l5-1 1-7-2-3z" fill="#07A5F6"/>
<path transform="translate(783,431)" d="m0 0h5v2h8l2 1v2l4 2 1 3 3 1-2 1 2 3v4h-7l-4-6-5-2-1-4-1-3-4-1z" fill="#015A83"/>
<path transform="translate(613,698)" d="m0 0h12v3l-10 4h-5l-4 4-1 3h6l-2 5h-4l-3 4 5 1 6 5 4 3 4 1v2l-6-1-1-3-5-1-3-3-8-3 1-4 3-2 1-11 3-2 9-1z" fill="#07A5F6"/>
<path transform="translate(790,572)" d="m0 0h4v5h2l-1 7-8 8-6-1 1-10-1-3 5-2h4z" fill="#015C89"/>
<path transform="translate(801,505)" d="m0 0h7l3 1-1 3h-5v2h2l3 6 3 3-1 3-10-1-8-4v-3l6-1-1-8z" fill="#36B5F6"/>
<path transform="translate(537,577)" d="m0 0h8v8l4 2 2-4 4-3 2 1-8 9-12 6-2 2v-8l2-6-1-6z" fill="#07A5F6"/>
<path transform="translate(485,612)" d="m0 0 6 1 4 5v6l-4 5-4-1-7-8 1-5z" fill="#FDFDFD"/>
<path transform="translate(477,425)" d="m0 0 7 2 3 3-1 5-4 3-11-3-7-2 7-7z" fill="#07A5F6"/>
<path transform="translate(383,678)" d="m0 0h3l3 10v2l10 7 5 3 1 5-7-2-4-2 4 9-1 2-8-13-5-13z" fill="#026CB0"/>
<path transform="translate(791,442)" d="m0 0 5 2 4 6 5 1-1 5-9 1h-4l-2-3-3-1-1-5 2-4h4z" fill="#063243"/>
<path transform="translate(751,452)" d="m0 0 4 1 3 2h10l2 4-3 5-2 1h-6l-4-3-6-1-1-5z" fill="#015986"/>
<path transform="translate(822,576)" d="m0 0 4 1-1 5-6 3-2 3-6 1-1 4 3 1 2-3h2l-1 5-9 3-4 2 3-4 2-9 5-4h3v-3l-4 1-5 1 1-3 6-3z" fill="#0492E0"/>
<path transform="translate(483,454)" d="m0 0 4 1 2 4-7 7-5 7-6-1-3-2 2-4 9-7z" fill="#FDFDFD"/>
<path transform="translate(813,580)" d="m0 0 3 1v3l-7 4-2 9-5 6-9-1v-4h3l3-4h3l1-8 4-1 1-3z" fill="#40B6F3"/>
<path transform="translate(608,562)" d="m0 0 7 2-2 7-8 4h-8l-1-4 4-5z" fill="#FDFDFD"/>
<path transform="translate(471,779)" d="m0 0 22 22 3 2 7 1-2 5-7-2-6-5-4-4h-4v-2h-3l-2-9-4-6z" fill="#01719D"/>
<path transform="translate(786,523)" d="m0 0 3 1v8l1 4h5l1-2-1 4-5 1-5-3-7 1-3 3-1-3-9 1v-4l4-4 10 3h6v-9z" fill="#0492E0"/>
<path transform="translate(818,505)" d="m0 0 4 5 4 2-1 5h-9l-2-1 2 4 4 4 1 5-4-2-3-5v-3l-5-2v-5l6-3h3z" fill="#01567F"/>
<path transform="translate(715,388)" d="m0 0h5l-3 3-1 4-4 3-5 1-5-2-8-5-4-2 24-1z" fill="#0477C3"/>
<path transform="translate(698,602)" d="m0 0h2l1 2 6 1 10 7 1 6-4-2-9-2-1-1h-9l2-4z" fill="#047DC9"/>
<path transform="translate(1610,584)" d="m0 0 3 1 1 10h14l7-1 11 2 11 1v1l-29 1h-16l-2-3z" fill="#0484D2"/>
<path transform="translate(608,493)" d="m0 0 5 2 8 4 2 4-4 4h-8l-3-3-1-4 1-4h-2v-2z" fill="#FDFDFD"/>
<path transform="translate(734,525)" d="m0 0h8l10 6 3 7h7v4l-9 1v2l-3-1h2l1-6h-2l-2-4h-6l-9-8z" fill="#0496E5"/>
<path transform="translate(412,735)" d="m0 0 7 6 8 8 4 5 4 4 4 8-2 2-14-15-9-13z" fill="#014A63"/>
<path transform="translate(739,471)" d="m0 0 4 4 5 8 1 4v7l-3 2-3-1v2l-2 1-2 4-2-1 1-6 4-5v-8l-3-5z" fill="#8BD0F4"/>
<path transform="translate(423,723)" d="m0 0h12l8 4 3 6 7 1-3 2h-6l-6-3 1-3-13-1z" fill="#07A5F6"/>
<path transform="translate(811,541)" d="m0 0 4 4 1 5 5 1 3 4 5 2 1 4-1 2-5-1-3-3-5-3v2l-4-1-1 3-3-3 1-3 4-2-1-7z" fill="#0492E0"/>
<path transform="translate(737,534)" d="m0 0h2v3h4v3l3 1-1 2h-3l-1-5-8 6-19 1-1-3-3-1 9-1 6-1 7 1z" fill="#069FEF"/>
<path transform="translate(556,665)" d="m0 0 1 3 8-2-1 4h-2l-1 7-7 3-1 2-4-2-2-5 4-1 2-5z" fill="#07A5F6"/>
<path transform="translate(775,412)" d="m0 0h2l3 5 3 1 2 4 2 1v2l-3 3h-2l-1 3-1-2-7-2v-7l2-4z" fill="#015985"/>
<path transform="translate(470,732)" d="m0 0 4 1h12l-4 3v7l1 3-10-1h-2l-2-12z" fill="#07A5F6"/>
<path transform="translate(457,535)" d="m0 0h5l1 5 4 1-5 7-5 1-4-4v-6z" fill="#07A5F6"/>
<path transform="translate(798,498)" d="m0 0h10l-3 1 2 3 7 1 2 2-1 5-6 2-1 3-1-4h-2v-2l5-1 1-2h-12l2 6-3-1-1-6 3-5z" fill="#06A4F4"/>
<path transform="translate(453,418)" d="m0 0 2 1-7 5 5-1-5 5-5 4 2-5-4 3-2 3-7 2-1 1h-5l1-2 5-2-3-2 1-2 9-3z" fill="#06A2F2"/>
<path transform="translate(593,503)" d="m0 0 6 1 5 8v3l-12-2-4-3 3-5z" fill="#FDFDFD"/>
<path transform="translate(491,790)" d="m0 0 12 2 8 4 2 3-8-1-11 1-4-2v-6z" fill="#0477C3"/>
<path transform="translate(647,475)" d="m0 0 3 1 1 3 7 3-1 2-12 3-5-1-1-1v-5h5l1-3h2z" fill="#0477C3"/>
<path transform="translate(799,480)" d="m0 0 12 4 5 1 1-4 3 7 1 2-4-1-10-2-4 2h-6l-1 2v-7z" fill="#01719E"/>
<path transform="translate(506,511)" d="m0 0 1 4 3 8 3 4-9 2-3-1-2-5 5-10z" fill="#12A8F5"/>
<path transform="translate(813,475)" d="m0 0 5 1 1 3-1 2h-2v4l-9-1-8-4 1-2h8z" fill="#015C8A"/>
<path transform="translate(425,428)" d="m0 0 5 1 4 3-7 3-5 5-5 4-5 5-3 2 2-5 11-14z" fill="#048DDB"/>
<path transform="translate(448,627)" d="m0 0h5l2 4-5 7-4 5h-3v-7l3-7z" fill="#FDFDFD"/>
<path transform="translate(819,448)" d="m0 0h3l10 16 12 23-1 4-8-14-10-19-5-8z" fill="#05374A"/>
<path transform="translate(689,384)" d="m0 0 8 2h2l1 2h6l5-1 1 2-4 1h-20l-16-2-2-1 1-2h4v2z" fill="#0498E7"/>
<path transform="translate(618,784)" d="m0 0 4 2v3l-6 3h-2v4l4 1h18v1l-9 2h-7l-10-1-7 1 2-2 6-1-2-3-6-2 4-1 9-3 3-2z" fill="#0171A4"/>
<path transform="translate(644,702)" d="m0 0 4 1 1 4-2 3-5 2h-9v-4l4-3z" fill="#FDFDFD"/>
<path transform="translate(772,598)" d="m0 0 1 3 6-1 5 1h6l2 4h-3l-1 3v-5l-7 2-2 4-6 1-1-5v-3z" fill="#01709F"/>
<path transform="translate(826,513)" d="m0 0 1 4-1 17-2-3v-2h-3l-3-7-4-4v-2h11z" fill="#014A64"/>
<path transform="translate(403,705)" d="m0 0h2v2h2l3 5v7l-2 1-5-3-5-8 1-3z" fill="#06A2F3"/>
<path transform="translate(535,644)" d="m0 0 9 3 1 6-1 1h-7l-8-7v-2z" fill="#FDFDFD"/>
<path transform="translate(579,358)" d="m0 0h9v4l-4 2-17 1v-4l3-2z" fill="#FDFDFD"/>
<path transform="translate(595,768)" d="m0 0 7 1 8 8-6 3-4 1-3-3 1-4-6-3z" fill="#0276C2"/>
<path transform="translate(390,516)" d="m0 0h1l1 15 2 4h2l1-8h1l1 11v9l-4-2v-2h-2l-3-9z" fill="#06A2F3"/>
<path transform="translate(705,439)" d="m0 0v3l-7 10-4 4-7 1v8l-2 1-3-6 2-4 11-7z" fill="#0477C3"/>
<path transform="translate(1370,531)" d="m0 0 6 1 2 5 2 1v6l-3 4-4-2v-5l-3-4z" fill="#0477C3"/>
<path transform="translate(626,514)" d="m0 0h7l2 3-1 5-4 2-9-4 1-4z" fill="#07A5F6"/>
<path transform="translate(565,405)" d="m0 0 5 3 1 1v5l-4 3-6-1-2-3 1-4z" fill="#FDFDFD"/>
<path transform="translate(621,368)" d="m0 0h7l2 1-3 18h-1v-7l-7-1-2-4 5-2 1-3z" fill="#06A4F5"/>
<path transform="translate(547,378)" d="m0 0 3 1-3 4-2 15-9-1 2-5 4-6v-2l-3-2 5-1v-2z" fill="#0268A9"/>
<path transform="translate(502,674)" d="m0 0h6l4 4-1 5-2 2-5-1-4-4 1-5z" fill="#FDFDFD"/>
<path transform="translate(1336,562)" d="m0 0 4 2 3 4-3 6h-2l-1 42h-1z" fill="#06A4F5"/>
<path transform="translate(612,340)" d="m0 0 18 1 4 2v1h-5v2h-12l-10-4v-1z" fill="#06A2F1"/>
<path transform="translate(613,440)" d="m0 0h4l1 3 3 3-2 6-6 2-3-1-4-1v-2l9-4-2-3z" fill="#FDFDFD"/>
<path transform="translate(669,408)" d="m0 0 5 1 5 4 11 5v1h-10l-2-1v-2l-4-2-1-3-4 2-3 7-4 2 3-5 2-7z" fill="#0477C3"/>
<path transform="translate(393,491)" d="m0 0h1v18l-1 4-4-1v-9l-1-1v-5z" fill="#0477C3"/>
<path transform="translate(600,791)" d="m0 0 9 2 2 4-8 3-6-1-2-1 1-4z" fill="#1BA6EE"/>
<path transform="translate(511,725)" d="m0 0 1 2-1 9-3 1-7-1-3-2v-2l-8-1v-1h7l2 1v2l5-3z" fill="#07A5F6"/>
<path transform="translate(819,533)" d="m0 0 4 1h-2l3 10 6 3-3 2-5-3h-5l-4-5v-3h4l1-4z" fill="#015985"/>
<path transform="translate(536,382)" d="m0 0 6 1 1 3-4 6-4 2-4-4 2-5z" fill="#FDFDFD"/>
<path transform="translate(1341,569)" d="m0 0 4 2 3 5-2 3-6 1v2h-2v11h-1v-16l1-3h2z" fill="#0479C5"/>
<path transform="translate(779,549)" d="m0 0h6l2 4-2 5-4 3-5-1 2-10z" fill="#FDFDFD"/>
<path transform="translate(640,344)" d="m0 0h4v2l2 1-9 8-11 1-6 3-8-1v-1l9-1v-2l5-2 12-1 3-5z" fill="#06A4F5"/>
<path transform="translate(572,790)" d="m0 0h7l5 5-1 3-7 1-5-3v-5z" fill="#059CEB"/>
<path transform="translate(428,744)" d="m0 0 6 5 4-1 4 4v2l4 2 2 3-5-2h-7l-2 1-3-7-3-4z" fill="#0391DF"/>
<path transform="translate(1473,562)" d="m0 0 5 5-2 7-1 41h-1l-1-38z" fill="#0598E7"/>
<path transform="translate(810,564)" d="m0 0 3 1 2 10-3 3-8-1 2-6 2-2z" fill="#015984"/>
<path transform="translate(814,560)" d="m0 0 4 1 1 2-2 5h-2v2l5-1 1 4-4 4-4-1 1-2-2-11h2z" fill="#01719D"/>
<path transform="translate(526,405)" d="m0 0 5 1 3 3-1 4-4 3-5-1-1-3z" fill="#FDFDFD"/>
<path transform="translate(519,397)" d="m0 0 8 3-4 6-12-2 2-4z" fill="#FDFDFD"/>
<path transform="translate(770,426)" d="m0 0 10 2 1 2h-2l-2 4-5 2-6-5 2-4z" fill="#01709D"/>
<path transform="translate(530,369)" d="m0 0 3 1-6 4 5 6-4 7-3 1 1-4 1-2-1-5-5-1v-4z" fill="#069EEF"/>
<path transform="translate(607,774)" d="m0 0 5 1 11 8 7 6v4l-6-2h-7l2-2h3l-2-4-7-6-6-4z" fill="#0492E0"/>
<path transform="translate(678,761)" d="m0 0h4l1 3-6 8-8 2-1-2 5-5z" fill="#06A0F1"/>
<path transform="translate(833,552)" d="m0 0 4 1 2 2v3l-5 2-1 16-2-4v-18z" fill="#014054"/>
<path transform="translate(801,505)" d="m0 0h7l3 1-1 3h-5v2h2l1 6-5-2-4-5v-4z" fill="#FDFDFD"/>
<path transform="translate(415,717)" d="m0 0 8 1 9 4v1l-8 1-1 4v-3l-4-1-6-5z" fill="#06A4F4"/>
<path transform="translate(537,602)" d="m0 0 8 10-1 3-4 1-1 3-1-3-4-1-3 4 1-5 1-1h7l-1-2-3-1z" fill="#07A5F6"/>
<path transform="translate(383,515)" d="m0 0h1v12l-1 6-4-2-1-1v-8l4-6z" fill="#069EEE"/>
<path transform="translate(761,493)" d="m0 0 4 8-7 3-1 7-1-4h-2v-6l4-5z" fill="#0496E5"/>
<path transform="translate(546,820)" d="m0 0 8 1 4 3v3l-13-1-4-2z" fill="#0492E0"/>
<path transform="translate(655,548)" d="m0 0m-8 1h8l1 6v4l-3-1v-2l-11-2-3-1v-2z" fill="#06A4F5"/>
<path transform="translate(773,492)" d="m0 0 5 1 4-1 6 2-1 4-2 2-11-2 1-5z" fill="#41B7F4"/>
<path transform="translate(659,347)" d="m0 0 14 1 2 2-1 2-6 1v2l-5 1-4-7z" fill="#FDFDFD"/>
<path transform="translate(636,342)" d="m0 0 18 1v1l-10 2v-2h-5l1 4-4 1h-7l-1-2h2v-2h4v-2z" fill="#026FB9"/>
<path transform="translate(656,644)" d="m0 0h6l1 5-4 7-5-3-2-4 3-3z" fill="#07A5F6"/>
<path transform="translate(438,758)" d="m0 0h8l4 3-2 6-4-1-6-5z" fill="#FDFDFD"/>
<path transform="translate(725,595)" d="m0 0 3 2-2 6-5 7-2 4-2-8h2l1-7 3-3 1 1z" fill="#0271AA"/>
<path transform="translate(759,466)" d="m0 0h5v3l5-1 4 6h5l-2 2-7-1-2-2-3 1-4-2v-2h-2z" fill="#0171A6"/>
<path transform="translate(813,580)" d="m0 0 3 1v3l-7 4-2 5-3 1-1-8 4-1 1-3z" fill="#FDFDFD"/>
<path transform="translate(813,499)" d="m0 0h13l-3 2 2 3-3 1 1 5 2 1-4-1-3-5-5-3z" fill="#014961"/>
<path transform="translate(441,554)" d="m0 0 5 1 6 3 9 1v1l-9 1-8 6-2-1 2-3-1-6-3-2z" fill="#07A5F6"/>
<path transform="translate(506,372)" d="m0 0 4 1-2 6-2 2-7 1-1-5z" fill="#FDFDFD"/>
<path transform="translate(784,511)" d="m0 0 5 5 4 1-1 3-2 1v5l-4-2-2 4-1-4 1-1-1-7-1-4z" fill="#0272AA"/>
<path transform="translate(695,767)" d="m0 0h5l3 4-1 8-3 1-3-7-1-1z" fill="#0492E0"/>
<path transform="translate(725,627)" d="m0 0 4 2 7 6 1 5-7 2-1-2 1-3-3-1 1-5-3-2z" fill="#01719D"/>
<path transform="translate(810,615)" d="m0 0 8 4v2l7 2v3h-7l-4-1-4-8z" fill="#0275AE"/>
<path transform="translate(830,548)" d="m0 0h10l3 4v3l-4 1-3-3-4 1-2 4 1-8z" fill="#015D89"/>
<path transform="translate(547,523)" d="m0 0h8v8l-4-1h-9l4-6z" fill="#07A5F6"/>
<path transform="translate(440,482)" d="m0 0 5 1 1 3-2 4-4 2-4-1v-4z" fill="#FDFDFD"/>
<path transform="translate(813,586)" d="m0 0h2v2l-4 1-1 4 3 1 2-3h2l-1 5-9 3-4 2 3-4 2-9z" fill="#0387CE"/>
<path transform="translate(821,534)" d="m0 0h4l4 12 11 1v1h-10l-7-4-2-6z" fill="#014962"/>
<path transform="translate(812,519)" d="m0 0h2l4 8 6 2 1 5-6-2-5-4-4-2v-2l-3-1 5-1z" fill="#069EEE"/>
<path transform="translate(618,395)" d="m0 0 5 1v5l-9 2h-4v-3z" fill="#FDFDFD"/>
<path transform="translate(613,794)" d="m0 0 11 1 8-1h9v2l-12 2h-11l-5-2z" fill="#0492E0"/>
<path transform="translate(728,384)" d="m0 0 5 2 2 1-1 5-7-1-7-2h-5-3l1-2h14l3 1z" fill="#0492E0"/>
<path transform="translate(486,699)" d="m0 0h1l2 7 2 1 8-2-2 7-7 1-2-1-3-9z" fill="#07A5F6"/>
<path transform="translate(798,530)" d="m0 0 5 1 3 9-1 6-4-5-2-5-1-1z" fill="#FDFDFD"/>
<path transform="translate(726,698)" d="m0 0 6 1-1 5-3 2h-5l-1-5 1-2z" fill="#014961"/>
<path transform="translate(707,363)" d="m0 0 6 3v2l-2 1v3l-6-1-3-2 1-5z" fill="#06A3F4"/>
<path transform="translate(384,653)" d="m0 0 4 4 4 8 1 9h-2l-1-5h-2l-4-13z" fill="#07A5F6"/>
<path transform="translate(1811,446)" d="m0 0 5 1 1 7h6l-2 4h-5l-1-3h-2l-2-5z" fill="#183340"/>
<path transform="translate(787,423)" d="m0 0h2v7l2 1h8l2 3-1 3-2-1v-2l-10-1v-2h-6v-3h2l1-3h2z" fill="#014961"/>
<path transform="translate(783,407)" d="m0 0 4 2 7 7 6 5 7 8 1 3-4-2-4-5-15-15-2-1z" fill="#015379"/>
<path transform="translate(686,376)" d="m0 0h14v1l-7 2-2 1-9 1-5 2-4-1 6-3z" fill="#07A5F6"/>
<path transform="translate(577,345)" d="m0 0 3 1-2 1-2 4-7 2-4-1-3-2h3v-2z" fill="#0492E0"/>
<path transform="translate(782,593)" d="m0 0 8 4v3l-9-1-6-1 1-4 6 1z" fill="#FDFDFD"/>
<path transform="translate(719,540)" d="m0 0 7 1 7 2v1l-19 1-1-3-3-1z" fill="#0494E2"/>
<path transform="translate(383,678)" d="m0 0h3l3 10v2l3 3-5 2-4-12z" fill="#0375C1"/>
<path transform="translate(744,482)" d="m0 0 4 1 1 4v7l-3 2-4-4 2-1z" fill="#2FB1F5"/>
<path transform="translate(571,364)" d="m0 0 12 1-1 4-1 1h-9l-1-4-3-1z" fill="#0169A5"/>
<path transform="translate(622,719)" d="m0 0 2 4 6 3 2 4-1 4-2-6-12-2v-3l5-2z" fill="#0477C3"/>
<path transform="translate(403,616)" d="m0 0h1l-1 10-4 7-5-5 4-1 2-6z" fill="#07A5F6"/>
<path transform="translate(494,386)" d="m0 0 6 3-1 5-7 2-1-1v-5z" fill="#44BBF7"/>
<path transform="translate(531,370)" d="m0 0 2 1-2 3 3 6 5 1-5 4-4 4v-6l1-3-5-6z" fill="#0166A9"/>
<path transform="translate(471,779)" d="m0 0 11 11-1 6h-4l-2-9-4-6z" fill="#016BB5"/>
<path transform="translate(823,613)" d="m0 0 3 1 2 5-3 2-7-1-1-4 2-2z" fill="#053546"/>
<path transform="translate(658,346)" d="m0 0 2 3 3 4v3l5-1-1-3h6l-3 1v3l-5 3h-2l-1 4-1-2-1-4-2-6z" fill="#06A4F5"/>
<path transform="translate(703,516)" d="m0 0h7l2 1v2l5 1-1 2-6 1-5-1z" fill="#70C6F4"/>
<path transform="translate(585,370)" d="m0 0h15l-2 4-9 1-5-2z" fill="#FDFDFD"/>
<path transform="translate(686,574)" d="m0 0 2 2 4 8 4 7-6-2-4-3z" fill="#0493E1"/>
<path transform="translate(567,526)" d="m0 0h1v5l-6 5-6 3v-7l7-2z" fill="#07A5F6"/>
<path transform="translate(787,444)" d="m0 0 3 1v3l4 4-1 3 2 1-4 1-2-3-3-1-1-5z" fill="#015A86"/>
<path transform="translate(594,359)" d="m0 0 3 1 3 3h17l4 3-1 2-2-2-19-1-2-1v2h-4z" fill="#06A4F4"/>
<path transform="translate(790,601)" d="m0 0 3 2h7l-1 3h-2l-1 5-6-2-1-4 2-1z" fill="#0492E0"/>
<path transform="translate(435,516)" d="m0 0 4 2-6 8-2 2-6-1v-2l6-3z" fill="#07A5F6"/>
<path transform="translate(791,442)" d="m0 0 5 2 3 6-3-1-3-4-2 2 7 5-1 4 2 1h-4v-2h-2l-1-5-3-2 1-4z" fill="#014258"/>
<path transform="translate(558,378)" d="m0 0 4 1 2 2-4 5-8 4 2-6z" fill="#02669C"/>
<path transform="translate(506,805)" d="m0 0 4 2 7 1 3 6 7 5-2 1-9-5-1-4-6-1z" fill="#01719D"/>
<path transform="translate(423,723)" d="m0 0h9l3 2-1 3-2 1h-6z" fill="#FDFDFD"/>
<path transform="translate(1556,516)" d="m0 0 4 2 3 4-1 5-4-1-1-3h-2l-1-5z" fill="#0477C3"/>
<path transform="translate(945,561)" d="m0 0 2 2-2 12v7l-3 1v-13z" fill="#0484D1"/>
<path transform="translate(820,547)" d="m0 0 4 1 5 6v3l-6-2-4-4-3-2z" fill="#0272AA"/>
<path transform="translate(653,509)" d="m0 0h27l6 1h8v1l-12 2-11-2-18-1z" fill="#069FEF"/>
<path transform="translate(738,386)" d="m0 0h6l7 3 4 4-10-1-7-4z" fill="#63C3F5"/>
<path transform="translate(582,369)" d="m0 0h11l6 1v1h-14v2l10 1 4-2 2-2-1 4-2 2h-10l-5-2-2-3z" fill="#06A2F3"/>
<path transform="translate(693,766)" d="m0 0h7v1h-5v5l-5 4h-3v-5l4-2z" fill="#0272AA"/>
<path transform="translate(671,692)" d="m0 0 7 1 1 4-1 1h-8l-2-4z" fill="#015985"/>
<path transform="translate(412,690)" d="m0 0m-1 1h1l3 10 5 7v5h-2l-1 3-1-4h2l-2-6-5-5z" fill="#0477C3"/>
<path transform="translate(807,503)" d="m0 0h7l2 2-1 5-6 2-1 3-1-4h-2v-2l7-1v-2l-5-2z" fill="#0383C8"/>
<path transform="translate(725,815)" d="m0 0h4v2l-21 9-4-1 20-9z" fill="#05384C"/>
<path transform="translate(521,631)" d="m0 0 5 1 2 4-5 3-4-2 1-5z" fill="#FDFDFD"/>
<path transform="translate(812,487)" d="m0 0 5 1 2 4-1 1h-10l-1-2h2l1-3z" fill="#FDFDFD"/>
<path transform="translate(461,410)" d="m0 0 7 3v3l-13 2 1-3 4-2z" fill="#06A3F4"/>
<path transform="translate(680,355)" d="m0 0 4 1v2l5 2 7 4 1 3-4-1-15-8z" fill="#016BA9"/>
<path transform="translate(558,824)" d="m0 0 2 1v2l7 1v3h-9l-6-3v-1h6z" fill="#0272AA"/>
<path transform="translate(621,448)" d="m0 0 7 1 3 2v3l-5 2h-3l1-4-3-2z" fill="#FDFDFD"/>
<path transform="translate(558,353)" d="m0 0h3l-2 4-13 7-2-1 7-4-1-2z" fill="#10A6F3"/>
<path transform="translate(417,619)" d="m0 0h1l4 18-1 3-4-9-2-5 1-6z" fill="#07A5F6"/>
<path transform="translate(502,519)" d="m0 0h3l3 5h-2v3h-5l-2-4z" fill="#FDFDFD"/>
<path transform="translate(701,369)" d="m0 0 9 3 6 3-3 1-13-2z" fill="#026FAB"/>
<path transform="translate(425,735)" d="m0 0 2 1v2l4 1 4 4v2l-4-1-3-3-2 2-4-4v-2h3z" fill="#0492E0"/>
<path transform="translate(725,629)" d="m0 0 4 2-1 5-5 8-4 1 2-6 4-3z" fill="#027ABA"/>
<path transform="translate(537,508)" d="m0 0 21 3v1h-19l-5-2z" fill="#07A5F6"/>
<path transform="translate(806,442)" d="m0 0 1 3 3 1 1 5-1 2-10-2v-1h6l-2-7z" fill="#014D6A"/>
<path transform="translate(723,380)" d="m0 0 9 3 6 3 3 3 4 3-9-1-1-3-12-7z" fill="#016FA8"/>
<path transform="translate(614,341)" d="m0 0h15l-1 3-9 1-5-2z" fill="#FDFDFD"/>
<path transform="translate(641,712)" d="m0 0 4 2-2 3h-2l-1 2-3 1-1-2-8-1v-1l9-2z" fill="#026DB9"/>
<path transform="translate(811,579)" d="m0 0h9l-2 5-1 2-6 1 2-3h3v-3l-4 1-5 1 1-3z" fill="#06A2F2"/>
<path transform="translate(1337,563)" d="m0 0 3 1 3 4-3 6h-2l-1 3z" fill="#0493E1"/>
<path transform="translate(681,544)" d="m0 0 6 1 7 3v4l-6-1-2-1-1-3z" fill="#58C0F5"/>
<path transform="translate(809,515)" d="m0 0 5 1 2 4 4 4 1 5-4-2-3-5v-3l-5-2z" fill="#016194"/>
<path transform="translate(390,482)" d="m0 0h2l3 4-1 4-4 2h-3l1-5z" fill="#0480CC"/>
<path transform="translate(624,733)" d="m0 0 8 4-1 9-1 3h-2l1-12-7-2z" fill="#07A5F6"/>
<path transform="translate(635,685)" d="m0 0h9l-2 5-1 1h-5l-2-5z" fill="#FDFDFD"/>
<path transform="translate(767,645)" d="m0 0 4 2 1 7-1 1h-5v-3z" fill="#023D4F"/>
<path transform="translate(783,541)" d="m0 0 4 1 1 3 4 2v4l-4-1-1-2-4-2-1-4z" fill="#FDFDFD"/>
<path transform="translate(836,507)" d="m0 0 4 2 3 4v8l-3-1-2-9-2-1z" fill="#014C69"/>
<path transform="translate(786,498)" d="m0 0 2 4 6 2-3 3-6-2-3-3v-3z" fill="#01709F"/>
<path transform="translate(797,444)" d="m0 0 8 1 1 5h-7l-2-2z" fill="#0171A1"/>
<path transform="translate(432,730)" d="m0 0h7l-1 3-6 2v2h-2l-3-5z" fill="#0490DE"/>
<path transform="translate(954,595)" d="m0 0 5 1 9 3 3 2h-13l-4-4z" fill="#047FCC"/>
<path transform="translate(754,538)" d="m0 0h8v4l-9 1v2l-3-1h2v-2h2z" fill="#0493E1"/>
<path transform="translate(769,531)" d="m0 0 5 3-4 4h-5v-4z" fill="#FDFDFD"/>
<path transform="translate(697,510)" d="m0 0h5l4 2 2 4h-7l-4-3-3-2z" fill="#047CC9"/>
<path transform="translate(393,491)" d="m0 0h1v18l-2 4-1-3 1-16z" fill="#059AEA"/>
<path transform="translate(744,477)" d="m0 0 3 1 4 5-1 2 6 1v3l2 1-3 1-2-4-5-2-4-6z" fill="#026CB7"/>
<path transform="translate(459,397)" d="m0 0h1v6l-5-1v2h2l-1 3-4 1v-2l-3-1 5-4 4-2z" fill="#024358"/>
<path transform="translate(547,378)" d="m0 0 3 1-3 4-2 7-3-2v-4l-3-2 5-1v-2z" fill="#037FC2"/>
<path transform="translate(957,633)" d="m0 0h10l3 2-6 2-9 1z" fill="#0477C3"/>
<path transform="translate(394,701)" d="m0 0 4 1 6 2-1 2-4 1 1 6-3-3-3-6z" fill="#0492E0"/>
<path transform="translate(397,688)" d="m0 0h2l6 7v3l-4-1-4-3-1-5z" fill="#FDFDFD"/>
<path transform="translate(547,352)" d="m0 0h7l-2 4h-12l1-2z" fill="#026FBA"/>
<path transform="translate(464,646)" d="m0 0 1 2 4 1 2 2v3l-7 1v7h-1v-8l3-2-1-1h-1z" fill="#07A5F6"/>
<path transform="translate(808,498)" d="m0 0 3 1v2l7 3v5l-3-1-1-4-7-1-2-4z" fill="#016D9C"/>
<path transform="translate(781,432)" d="m0 0 5 5 3 2v2l-7-1-3-5v-2z" fill="#FDFDFD"/>
<path transform="translate(818,479)" d="m0 0 6 4v4h-5l-2-2z" fill="#FDFDFD"/>
<path transform="translate(527,377)" d="m0 0 4 1 1 3-5 7h-2l1-4 1-2-1-4z" fill="#0DA5F4"/>
<path transform="translate(581,344)" d="m0 0h7l-4 4-7 4-3-1 2-1 2-4z" fill="#016FB1"/>
<path transform="translate(630,394)" d="m0 0 6 3-1 3-6 1-2-5z" fill="#0375C1"/>
<path transform="translate(574,791)" d="m0 0 6 1 2 4-5 2-3-3z" fill="#FDFDFD"/>
<path transform="translate(695,631)" d="m0 0 2 1-1 7-4 2v-8z" fill="#07A5F6"/>
<path transform="translate(606,517)" d="m0 0 5 4 1 2v7h-2l-4-11z" fill="#FDFDFD"/>
<path transform="translate(798,498)" d="m0 0h10l-3 1 2 4-9 1 2-4z" fill="#0492E0"/>
<path transform="translate(698,602)" d="m0 0 3 4 1 5 2 1-9 1 2-4z" fill="#069EEE"/>
<path transform="translate(741,597)" d="m0 0 2 2-1 4-4 1-3-3 1-3z" fill="#01719D"/>
<path transform="translate(537,577)" d="m0 0 6 1v4l-6 1-1-5z" fill="#FDFDFD"/>
<path transform="translate(784,434)" d="m0 0 4 1 3 5v3l-7 1v-3l-2-1 7 1v-2l-4-2z" fill="#059AE9"/>
<path transform="translate(788,456)" d="m0 0h7l5 2-4 2-6 1z" fill="#0492E0"/>
<path transform="translate(610,343)" d="m0 0h2l1 3-2 3v6l-3 2-1-6 3-7z" fill="#026FB6"/>
<path transform="translate(565,778)" d="m0 0 5 1 1 3-1 1h-7l-1-3z" fill="#65C6F8"/>
<path transform="translate(631,691)" d="m0 0 6 1 3 2-4 3h-3v-2l-2-1z" fill="#0477C3"/>
<path transform="translate(774,594)" d="m0 0 2 1-1 3 9 1 2 2-4 1-4-1h-5z" fill="#0599E9"/>
<path transform="translate(797,526)" d="m0 0 10 3 2 2-1 5-3-3-2-3-7-2z" fill="#0492E0"/>
<path transform="translate(791,522)" d="m0 0h4l1 7h-4l-1-1z" fill="#015B87"/>
<path transform="translate(745,496)" d="m0 0 1 2h3v3l-6 3v-2h-2l2-4z" fill="#015985"/>
<path transform="translate(816,481)" d="m0 0 2 4 3 5-4-1-10-2 3-2h6z" fill="#0275BF"/>
<path transform="translate(425,428)" d="m0 0 5 1 4 3-3 1h-5l-6 2z" fill="#048FDC"/>
<path transform="translate(782,591)" d="m0 0 10 3 3 3-9-1-4-3v2l-6-1 4-1z" fill="#059AEA"/>
<path transform="translate(1477,567)" d="m0 0 3 1-3 10-1 10h-1v-14z" fill="#047AC6"/>
<path transform="translate(816,526)" d="m0 0 3 2 5 1 1 5-6-2-5-5z" fill="#0495E2"/>
<path transform="translate(785,450)" d="m0 0 1 3 4 1 1 2h-3l2 5-8 1 1-3h3z" fill="#016F9F"/>
<path transform="translate(446,407)" d="m0 0 2 1-6 5 2-4zm-5 6m-1 1m-2 1 2 1-2 3-1 3-4-1z" fill="#024661"/>
<path transform="translate(621,688)" d="m0 0h5l1 4-1 1h-6z" fill="#06A3F3"/>
<path transform="translate(747,659)" d="m0 0 5 2v4h-5l-2-3z" fill="#0272AA"/>
<path transform="translate(931,631)" d="m0 0 5 2 7 1 2 3-10-1-4-2z" fill="#0477C3"/>
<path transform="translate(788,529)" d="m0 0 2 2 7 1v2h-2v2l-3 1-3-3z" fill="#0171A9"/>
<path transform="translate(591,376)" d="m0 0h6l-1 4h-8v-3z" fill="#026BB6"/>
<path transform="translate(814,622)" d="m0 0 7 2v-2l4 1v3h-7l-4-1z" fill="#015D8A"/>
<path transform="translate(788,608)" d="m0 0 3 1v2l4 1h12l2 2h-15l-6-4z" fill="#015A86"/>
<path transform="translate(429,543)" d="m0 0 4 1h-2l-1 6-3-1-1-2-4-2z" fill="#07A5F6"/>
<path transform="translate(769,530)" d="m0 0 6 2v2l7 1-4 2-3 3-1-3-2-1v-3z" fill="#069EEE"/>
<path transform="translate(794,516)" d="m0 0h7l2 2v3l-5-1-4-2z" fill="#FDFDFD"/>
<path transform="translate(1815,451)" d="m0 0 2 3h6l-2 4h-5l-2-4z" fill="#1F5D78"/>
<path transform="translate(754,452)" d="m0 0 5 2 10-1 2 3h-3-10z" fill="#026CB8"/>
<path transform="translate(630,713)" d="m0 0h10l-3 2-9 2-4-1z" fill="#0492E0"/>
<path transform="translate(649,704)" d="m0 0h1v6l-3 4h-5v-3l5-2z" fill="#06A0F0"/>
<path transform="translate(434,699)" d="m0 0 3 3-1 7-4-1-2-3h4z" fill="#07A5F6"/>
<path transform="translate(462,669)" d="m0 0 2 1-2 4-4 4-1-6z" fill="#07A5F6"/>
<path transform="translate(720,644)" d="m0 0 2 1-1 2 5 1v2h-8l1-5z" fill="#0172A5"/>
<path transform="translate(1474,563)" d="m0 0 4 4-2 7h-2z" fill="#0491DF"/>
<path transform="translate(767,468)" d="m0 0h2l4 6h5l-2 2-7-1-3-2z" fill="#027BB4"/>
<path transform="translate(693,465)" d="m0 0 4 1v5l-4 1-1-5z" fill="#015985"/>
<path transform="translate(432,438)" d="m0 0h2l2 4h-2v4h-3l-1 3v-7z" fill="#06A3F4"/>
<path transform="translate(577,345)" d="m0 0 3 1-4 1v2l-6 1-5-1 4-2z" fill="#06A3F4"/>
<path transform="translate(636,342)" d="m0 0 18 1v1l-10 2v-2h-8z" fill="#037CBF"/>
<path transform="translate(643,681)" d="m0 0 4 1v4l-4 1v-1l-8-1v-1l7-1z" fill="#059BEB"/>
<path transform="translate(389,662)" d="m0 0 3 3 1 9h-2l-2-5z" fill="#FDFDFD"/>
<path transform="translate(787,460)" d="m0 0 7 1-2 4h-7v-3h2z" fill="#013E50"/>
<path transform="translate(655,390)" d="m0 0 2 1v3l6 1-1 3-5 1v-3l-2-1z" fill="#059BEB"/>
<path transform="translate(482,536)" d="m0 0h1v5l-6 7-1-2 3-6z" fill="#07A5F6"/>
<path transform="translate(795,507)" d="m0 0 5 5-1 2h-5v-6z" fill="#0270AC"/>
<path transform="translate(605,478)" d="m0 0 5 2 2 4-4 2z" fill="#FDFDFD"/>
<path transform="translate(521,394)" d="m0 0 4 2 2 4-10-2z" fill="#0FA8F6"/>
<path transform="translate(373,646)" d="m0 0 2 2 2 12-4-4z" fill="#06A1F1"/>
<path transform="translate(810,605)" d="m0 0h2l3 4v4l-4-2-2-5z" fill="#0272AA"/>
<path transform="translate(782,572)" d="m0 0h5l2 3-4 2-4-2z" fill="#FDFDFD"/>
<path transform="translate(806,486)" d="m0 0 6 1v1l-16 4 1-3 7-2z" fill="#0494E2"/>
<path transform="translate(593,439)" d="m0 0h7v3l-6 1-2-3z" fill="#FDFDFD"/>
<path transform="translate(588,358)" d="m0 0 4 1 1 4-1 1h-8l4-3z" fill="#06A3F4"/>
<path transform="translate(513,779)" d="m0 0h5l-5 4-1 1h-5l-2-4h2v2l5-2z" fill="#07A5F6"/>
<path transform="translate(405,681)" d="m0 0 7 1-4 2 6 1-1 2-7-1z" fill="#06A1F1"/>
<path transform="translate(723,663)" d="m0 0h5l-2 2-5 3-7 1 3-3z" fill="#0171A4"/>
<path transform="translate(813,586)" d="m0 0h2v2l-4 1-2 5h-2l2-7z" fill="#037CC8"/>
<path transform="translate(824,484)" d="m0 0 2 1-1 5h-2v2l-3-1-1-4h5z" fill="#0599E8"/>
<path transform="translate(1800,445)" d="m0 0h5l-2 6-3 1-1-6z" fill="#014F72"/>
<path transform="translate(426,432)" d="m0 0h5l-1 2-9 3-4 3 2-4 5-3z" fill="#026CB6"/>
<path transform="translate(752,395)" d="m0 0 7 1 1 4-6-1z" fill="#015985"/>
<path transform="translate(531,370)" d="m0 0 2 1-2 3 1 5-6-4z" fill="#016BB2"/>
<path transform="translate(571,364)" d="m0 0 4 1v3h2v2h-5l-1-4-3-1z" fill="#0270BB"/>
</svg>
