<?xml version="1.0" encoding="UTF-8"?>
<svg version="1.1" viewBox="0 0 2048 757" width="1280" height="1280" xmlns="http://www.w3.org/2000/svg">
<path transform="translate(772)" d="m0 0h42l35 6 23 6 20 7 17 8 23 14 17 13 13 12 4 3v2l4 2 9 10 12 14 14 20 3 6-5 4-25 13-22 12-28 14-7 4-4-2-8-12-11-13-11-10-14-10-19-10-21-7-24-4h-28l-19 3-17 5-23 11-14 10-10 9-7 6-9 11-10 15-10 21-6 19-2 11-1 11v21l2 16 6 21 6 15 9 16 9 12 9 10 8 8 15 11 18 10 15 6 14 4 12 2 13 1h11l20-2 16-4 17-6 19-10 14-10 13-12 9-10 9-12 3-5-123-1-3-2v-83l1-2h243l1 1v26l-3 26-5 25-8 26-10 24-10 18-8 12-9 12-11 13-17 17-16 12-15 10-18 10-21 10-25 9-24 6-19 3-11 1h-30l-18-2-23-5-20-6-27-11-21-11-19-12-12-9-10-9-8-7-8-8-9-11-8-10-10-15-12-22-10-25-7-25-5-28-2-22v-22l2-19 5-26 9-27 9-20 10-18 8-12 12-16 11-13 15-15 11-9 12-9 15-10 16-9 17-8 19-7 24-6z" fill="#006796"/>
<path transform="translate(1100)" d="m0 0h353v89l-1 1h-249l-1 110h221l1 1v92l-3 1h-218v103l272 1 1 1v87l-328 1h-47l-2-3v-481z" fill="#006796"/>
<path transform="translate(1539)" d="m0 0h251l34 8 17 6 16 8 14 9 10 8 8 7 9 11 11 17 8 17 6 18 4 22 1 8v37l-4 23-6 20-11 23-8 12-12 14-11 10-13 9-19 10-20 7-21 5-14 2-13 1h-129v174l-2 1h-105l-1-1-1-19zm109 83-1 1v145h97l21-2 21-6 13-7 12-11 6-9 5-14 2-12v-26l-4-16-7-14-9-10-10-7-15-6-17-4-30-2z" fill="#006796"/>
<path transform="translate(316,46)" d="m0 0 17 1 23 4 21 7 17 8 18 12 13 11 16 16 10 13 12 20 8 17 6 16 7 28 3 20 1 10v36l-3 22-5 25-8 24-7 16-9 17-11 16-12 16-12 13-11 11-11 9-10 8-17 11-18 10-20 9-21 7-21 5-25 4-14 1h-17l-23-2-29-6-27-9-20-9-19-10-19-12-18-13-10-9-3-4 6 1 21 10 25 9 21 5 29 4 16 1h17l26-2 26-5 27-9 23-11 16-10 16-13 10-9 7-7 13-17 9-14 11-21 9-25 5-20 3-23v-34l-3-19-5-19-8-19-10-18-10-13-12-12-14-10-17-9-15-5-11-2h-25l-18 4-10 5-9 7-6 9-4 10-1 6v8l2 6 7 13 8 8 7 4-1 3-8-1-10-6-7-7-8-14-3-10-1-7v-18l4-16 7-14 7-9 10-10 14-10 15-7 15-4 13-2z" fill="#006796"/>
<path transform="translate(71,71)" d="m0 0 1 3-13 28-5 17-4 24v30l4 20 6 16 8 16 8 12 8 10 11 12 11 10 14 9 17 9 17 6 19 4 8 1h31l18-3 22-7 16-8 14-9 10-9 7-7 10-15 6-15 3-12 1-7v-17l-3-16-6-16-9-12-10-8-8-4-10-3h-11l-10 3-6 5-4 10 3 16v6h-2l-8-14-1-3v-13l6-11 7-7 11-5 10-2h9l15 3 10 4 11 7 13 11 7 7 10 13 8 15 7 21 3 16 1 10v13l-2 21-5 21-8 22-11 21-12 17-11 13-12 12-11 9-19 12-21 10-20 6-22 4-11 1h-34l-22-3-22-5-19-7-19-9-15-10-13-11-14-14-12-16-9-16-6-13-5-15-6-27-1-6v-37l8-35 7-21 9-20 9-17 11-17 12-16 11-14z" fill="#006796"/>
<path transform="translate(219)" d="m0 0h49l30 5 22 6 19 7 16 8 4 3v2l-17-4-20-3h-34l-20 3-17 5-14 6-16 11-12 12-7 8-8 14-7 16-4 15-2 16v11l2 14 4 12 7 13 11 12 11 8 13 5 5 1h13l12-4 11-8 6-8 3-5 1-5v-14l-4-8-6-4-4-1h-14l1-5 9-4h10l9 4 8 6 7 10 4 8 1 4v18l-3 15-8 16-8 10-11 10-16 9-20 6-12 2h-31l-20-4-17-6-16-8-13-9-10-9-9-9-10-14-9-19-5-16-3-19v-23l4-24 6-18 8-15 8-11 9-10 11-10 10-7 16-9 20-8 25-6z" fill="#006796"/>
<path transform="translate(614,585)" d="m0 0h49l18 3 13 5 10 7 9 8 7 11 4 9 2 9v24l-3 12-6 11-9 10-9 8-12 6-16 4-9 1-25 1h-18l-7-1v-127zm23 16-7 1v97h13l21-1 13-3 11-6 6-5 6-8 4-9 2-9v-18l-4-13-7-10-9-8-11-5-10-2-15-1z" fill="#006797"/>
<path transform="translate(313,624)" d="m0 0h15l10 3 11 7 2 2 4-8 4-2h9l1 13v66l-2 20-5 12-9 10-10 6-9 4h-24l-19-8-10-5-1-3 4-6 4-5 4 1 10 7 13 3h18l12-6 2-4 4-11 2-18-14 9-10 3h-17l-10-3-9-6-8-8-6-12-2-10v-12l4-14 5-9 5-6 11-7zm4 15-8 3-7 6-6 12-1 4v12l4 11 7 8 8 4 3 1h13l9-4 8-7 3-4 3-13v-8l-4-11-8-9-11-5z" fill="#006798"/>
<path transform="translate(400,575)" d="m0 0h11l6 2v23l-1 39 8-7 9-6 4-1h12l13 4 9 8 4 8 1 5v63h-16l-1-6-1-53-3-8-7-6-4-1h-9l-6 3-5 5-5 8-1 3-2 55h-15l-1-1-1-31v-105z" fill="#006797"/>
<path transform="translate(989,625)" d="m0 0h15l10 3 9 5 8 9 5 10 2 9v11l-3 4-67 1 1 7 6 9 8 6 6 2h13l9-3 10-7 6-1 3 1 2 3v6l-4 6-11 7-10 3-12 1-15-2-12-6-7-7-7-11-4-13v-13l4-13 7-12 9-8 10-5zm-1 13-8 3-7 6-6 10-1 6 20 1h15l18-1-1-7-4-8-5-5-6-4-3-1z" fill="#006CB4"/>
<path transform="translate(1478,626)" d="m0 0h19l11 3 8 4 10 9 6 10 3 8 1 6v11l-3 12-6 10-7 8-12 7-15 3h-11l-11-2-9-5-8-7-7-11-4-11-1-6v-9l3-12 6-11 4-5 8-6 11-5zm5 15-9 4-8 7-4 9-1 4v15l6 11 5 5 6 4 3 1h17l9-5 7-7 3-9 1-10-2-12-6-9-9-6-6-2z" fill="#006798"/>
<path transform="translate(1887,626)" d="m0 0h16l13 3 9 5 9 8 7 12 2 6 1 12-2 13-3 8-6 8-4 5-11 7-11 3-16 1-12-2-9-5-9-8-6-9-4-12v-20l4-12 8-11 11-8 8-3zm3 15-12 6-6 8-3 8v18l4 8 6 7 9 5 12 1 10-3 8-6 6-9 1-4v-17l-3-9-5-6-8-5-7-2z" fill="#006797"/>
<path transform="translate(1680,625)" d="m0 0h13l12 3 8 6 5 7 3 11 1 10v48l-2 4h-10l-3-4-1-5-13 8-7 2h-23l-8-4-7-8-3-6-1-10 2-8 4-6 8-6 7-3 10-2 29-2 1-5-4-8-5-5-4-2-10-1-10 2-12 6-7-1-2-3 1-6 5-5 11-5zm9 48-12 2-9 4-5 4v9l4 8 6 3 10 1 10-3 8-7 4-5 2-5v-8l-2-3z" fill="#006798"/>
<path transform="translate(1343,625)" d="m0 0h7l7 3 1 11 8-7 9-6 3-1h17l9 3 8 6 5 8 2 7 1 11v52l-1 1h-15l-2-5-1-55-4-9-5-4-6-2-10 1-8 6-6 10-2 12v44l-1 1h-15l-1-1-1-33v-52z" fill="#006797"/>
<path transform="translate(1237,625)" d="m0 0 12 1 2 3 2 9 10-9 9-4h17l9 3 10 9 4 8 2 14v50l-1 3-2 1h-13l-2-4-1-57-6-10-6-3h-13l-8 5-5 7-2 6-1 8v46l-1 1h-16l-1-7v-79z" fill="#006797"/>
<path transform="translate(92,624)" d="m0 0 11 1 9 4 8 7 4 6 2 6 1 46v18l-1 1h-15l-1-1-1-50-1-10-5-8v-2l-4-2-10-2-10 3-5 5-5 8-2 9-1 49h-16l-1-13v-73l1-1h8l5 2 2 5v6l8-6 5-4 7-3z" fill="#006799"/>
<path transform="translate(1968,625)" d="m0 0h8l5 2 1 2 1 9 13-10 7-3h17l10 4 8 6 4 8 2 9v60l-1 1h-12l-3-2-1-46-1-13-6-10-5-3-8-1-10 3-5 5-5 8-2 11-1 47-13 1-3-1-1-5v-81z" fill="#006798"/>
<path transform="translate(1075,625)" d="m0 0h19l10 3 8 5 2 3v6l-3 4-9-1-10-5-4-1h-8l-9 3-1 3v7l5 5 12 5 15 4 9 6 6 7 2 9-2 10-6 9-7 5-12 3h-17l-13-3-9-6-3-4v-5l7-6 5 1 6 5 7 3 5 1h11l7-4 1-2v-9l-4-4-33-11-6-5-4-8v-12l4-9 4-5 8-5z" fill="#006797"/>
<path transform="translate(170,625)" d="m0 0h19l10 3 9 5 2 2-1 7-3 4-4 1-14-7-4-1h-9l-8 4-3 6 2 5 10 6 18 5 11 6 5 5 4 8v8l-3 9-6 7-12 6-5 1h-16l-14-3-8-4-5-6 1-6 6-5 4 1 11 7 10 2h9l6-3 3-4v-6l-2-5-5-2-16-5-14-5-8-7-3-7v-11l5-10 8-7z" fill="#006798"/>
<path transform="translate(1547,627)" d="m0 0 17 1 3 1 6 16 15 43 3 5 3-4 14-40 6-17 2-3 3-1h16l-1 5-11 27-12 31-9 19-5 4h-11l-5-3-8-16-12-30-11-27-3-7z" fill="#006798"/>
<path transform="translate(936,627)" d="m0 0 3 1-1 5-5 12-12 30-10 24-7 13-3 2h-11l-5-3-7-14-16-39-11-28v-2h18l3 4 12 34 9 24 3 3 2-6 11-31 8-24 2-3 3-1z" fill="#006798"/>
<path transform="translate(507,604)" d="m0 0h16l1 1v24h23v12l-5 1h-18l1 51 1 6 2 1 19 1v11l-5 3h-18l-8-2-6-7-2-6-1-7-1-50h-14l-2-4v-6l3-4h14z" fill="#006797"/>
<path transform="translate(1751,604)" d="m0 0h15l1 1 1 24h22l1 1v10l-1 1-22 2v24l1 29 1 3 2 1 18 1 1 8-2 5-3 1h-18l-9-3-5-6-3-8-1-7v-49h-14l-2-2-1-5 2-5 2-1 13-1v-23z" fill="#006798"/>
<path transform="translate(1187,585)" d="m0 0h13l6 1v127l-5 1h-13l-1-1z" fill="#006798"/>
<path transform="translate(0,586)" d="m0 0h19v127l-1 1h-18z" fill="#006797"/>
<path transform="translate(2e3)" d="m0 0h24l11 6 9 9 9 13v23l-8 14-8 8-8 5-10 3h-18l-12-6-11-11-5-10-2-7v-14l4-11 6-8 7-7zm9 8-13 4-8 6-6 10-2 8v9l3 10 6 9 9 6 7 3h14l10-4 8-7 6-10 2-5v-9l-4-13-9-10-8-5-7-2z" fill="#006799"/>
<path transform="translate(791,625)" d="m0 0 9 1 1 6-2 7-1 1-15 2-9 6-4 7-1 5-1 52-1 1h-15l-1-1-1-85 12 1 2 1 2 9 9-6 7-5z" fill="#006797"/>
<path transform="translate(92,624)" d="m0 0 11 1 9 4 8 7 4 6 2 6 1 46v18l-1 1h-15l-1-1-1-50-1-10-5-8v-2l-4-2-10-2h-4l-2-4 1-7-2-1z" fill="#006CB4"/>
<path transform="translate(1029,642)" d="m0 0h2l5 10 2 9v11l-3 4-67 1 1 7 6 9 8 6 10 3-4 4-5-4-6-3-7-6-6-2-5 4-3-1v-10l-1-4 3-9 4-11 5-8 1 3-3 8h53l-4-12-1-5 10 1z" fill="#006797"/>
<path transform="translate(1810,628)" d="m0 0h16l1 1-1 84-1 1h-15l-1-3v-80z" fill="#006798"/>
<path transform="translate(817,628)" d="m0 0h15l2 3v46l-1 36-1 1h-14l-1-1-1-32v-52z" fill="#006798"/>
<path transform="translate(237,628)" d="m0 0h16l1 1v83l-1 2h-14l-2-3z" fill="#006796"/>
<path transform="translate(1478,626)" d="m0 0h19l9 2-1 4h-2l-1 4h-2l-2 5-3 1h-12l-9 4-7 6-4 9-2 4-1-1-4 8-1 6-2 3-3-1v-3l-3-5-2-18 6-11 4-5 8-6 11-5z" fill="#006CB4"/>
<path transform="translate(964,690)" d="m0 0 8 3 9 7 7 4h2l3-2 13-2 10-5 5-4 6-1 3 1 2 3v6l-4 6-11 7-10 3-12 1-15-2-12-6-7-7-5-8 6-1z" fill="#006CB4"/>
<path transform="translate(1075,625)" d="m0 0h19l10 3 8 5 2 3v6l-3 4-9-1-10-5-4-1h-8l-9 3-1 3v7l4 5-3 3-9-1-4-5-1-2v-7l1-5h-3l2-4 5-5 6-4z" fill="#006CB4"/>
<path transform="translate(170,625)" d="m0 0h19l10 3 9 5 2 2-1 7-3 4-4 1-14-7-4-1h-11l-2-2-6 1-5 12-3 7h-10v-11l5-10 8-7z" fill="#006DB5"/>
<path transform="translate(2e3 20)" d="m0 0h11l7 3 3 3 1 3v8l-5 7 6 10-1 4-6 1-5-5-8-10-2 2-1 12-4 1-3-3-1-3-1-13v-12l4-6zm4 4-4 3-1 4 3 9 1-2 6-1 3-4-1-7-3-2z" fill="#00679A"/>
<path transform="translate(1029,642)" d="m0 0h2l5 10 2 9v11l-3 4h-32l2-1 1-2 2 1 3-4h2l2-2 2-5h2l-4-12-1-5 10 1z" fill="#006798"/>
<path transform="translate(1057,691)" d="m0 0 5 1 6 5 7 3 5 1h11l7-4 2-2v5l-5 4-2 1 1 5-3 3 1 2h-17l-13-3-9-6-3-4v-5z" fill="#006CB2"/>
<path transform="translate(468,648)" d="m0 0 3 1 2 22 1 5v37h-14l-1-6v-50h1l1 44 2-7 2-33z" fill="#006DB5"/>
<path transform="translate(1247,658)" d="m0 0 3 1 1 2v40h2l1 10-1 1h-16l3-9 3-36 2-7z" fill="#006CB4"/>
<path transform="translate(58,657)" d="m0 0h2l2 5 1 14v16l1 13v5l2 2h-16l2-10 1-23 2-15z" fill="#006DB5"/>
<path transform="translate(1056,639)" d="m0 0 3 1-1 5v7l4 6 9 1 4 2v4l7-2 3 9 1 6-16-4-9-4-5-4-4-8v-12l2-6zm17 18 2 1z" fill="#006798"/>
<path transform="translate(2e3)" d="m0 0h6v1l-5 1 2 2 3-1-1 4h-2l1 3-10 4-6 5-4 7-2-1-2 5-2 15-4 3-3-1v-14l4-11 6-8 7-7z" fill="#006CB4"/>
<path transform="translate(1402,654)" d="m0 0h1v40l5-2h5l2 3 3-1 1-34h1v52l-1 1h-15l-2-5z" fill="#006CB3"/>
<path transform="translate(243,586)" d="m0 0 10 1 4 4v7l-3 7-4 2-11-1-4-3-1-3v-8l5-5z" fill="#006CB2"/>
<path transform="translate(822,586)" d="m0 0 10 1 5 5-1 9-4 5-7 1-8-2-3-4-1-7 3-5z" fill="#006CB3"/>
<path transform="translate(1975,667)" d="m0 0 4 1 2 5 1 38 2 1-13 1-1-4 1-5 2-29z" fill="#006DB5"/>
<path transform="translate(1102,667)" d="m0 0 5 2 8 7 3 5 1 9-2 8-6 9-7 5-3-1 1-8 6-7-2-21z" fill="#006DB5"/>
<path transform="translate(68,415)" d="m0 0 6 1 21 10 13 5-1 5 4 5v7l-9-5-17-12-10-8-7-7z" fill="#006DB5"/>
<path transform="translate(758,665)" d="m0 0h1v27h4l3 7 1-34h1v47l-1 1h-9l-3-8-3 1v-8l2-5 1-17 2-9z" fill="#006CB4"/>
<path transform="translate(1811,587)" d="m0 0h13l4 3v12l-3 4h-13l-4-2-1-2v-10z" fill="#006CB2"/>
<path transform="translate(1685,661)" d="m0 0h7l4 2-1 6-2 4-16 3-5-1-8-3-1-4-3-2 10-3z" fill="#006CB4"/>
<path transform="translate(103,636)" d="m0 0 7 1 5 8 2 14-1 6h-1l-2-13 1 13v14l-1 13-2 5h-1l-1-35-1-10-5-8v-2l-4-2v-2z" fill="#006797"/>
<path transform="translate(1378,625)" d="m0 0h17l9 3 1 2-7 4-3 1-1 5-8-2-11 1v-13z" fill="#006DB5"/>
<path transform="translate(262,140)" d="m0 0h10l9 4 3 5 3 4v5l-9-1-4-5-8-3h-14l1-5z" fill="#00679A"/>
<path transform="translate(936,627)" d="m0 0 3 1-1 5-3 6h-3l-2 4-4 6-7 9h-1l1-12 3-12v-6z" fill="#006CB4"/>
<path transform="translate(507,604)" d="m0 0h13l1 14-2 7-3 2-8-1-1 3z" fill="#006CB3"/>
<path transform="translate(152,691)" d="m0 0 4 1 11 7-2 5-8 7-6-2-6-7 1-6z" fill="#006DB5"/>
<path transform="translate(1057,691)" d="m0 0 5 1 6 5-1 12-2 3-5-1-8-6-2-3v-5z" fill="#006CB4"/>
<path transform="translate(253,629)" d="m0 0h1v83l-2-1-6 1-5-5-2-4v-7l6-1 5 5 2 1z" fill="#006DB5"/>
<path transform="translate(1759,604)" d="m0 0h7l1 1v24h-1l-1-12-5 6-4 1-4-3 1-10z" fill="#006DB5"/>
<path transform="translate(1619,628)" d="m0 0h16l-1 5-3 7-5 3-6 8-4 3 1-11 5-10 1-4h-2l-1 2z" fill="#006DB5"/>
<path transform="translate(1072,660)" d="m0 0 3 1v4l7-2 3 9 1 6-16-4-3-2-1-2-3-2 1-2-2-1 2-2 4 1z" fill="#006CB4"/>
<path transform="translate(1e3 663)" d="m0 0h16l-2 6-3 3h-2l-2 3h-3l-6-1-5-2 2-1v-2l-4-1-2-4z" fill="#006DB5"/>
<path transform="translate(400,575)" d="m0 0h11l1 5-1 6-5 5-6-1v19h-1v-33z" fill="#006CB1"/>
<path transform="translate(268,115)" d="m0 0h9l15 3-4 4-5 1-3-1-10 1-8-3-2 1v-2h-2v-2z" fill="#006CB3"/>
<path transform="translate(1772,629)" d="m0 0h18l1 1v10l-1 1-9 1h-12v-1l7-1 2-4h-2l3-6h-7z" fill="#006CB4"/>
<path transform="translate(1111,673)" d="m0 0 5 4 2 4 1 9-2 8-4 6-3-3v-4h2l-2-17v-6z" fill="#006798"/>
<path transform="translate(1068,698)" d="m0 0 20 5-1 5h-14l-2 5h-6l2-14z" fill="#006797"/>
<path transform="translate(330,15)" d="m0 0 9 3 16 8 4 3v2l-17-4-12-2-2-1 1-3 2-1z" fill="#006CB4"/>
<path transform="translate(1312,679)" d="m0 0h1l1 30-1 3-2 1h-13l1-2h3l3-9 5-8z" fill="#006DB5"/>
<path transform="translate(538,631)" d="m0 0h6l3 2v8l-5 1h-18l4-2 4-4-1-2z" fill="#006DB5"/>
<path transform="translate(1346,695)" d="m0 0 5 2 1-2 7 6 1 10-9-1-4-5v-3h-3v-6z" fill="#006DB5"/>
<path transform="translate(50,625)" d="m0 0h8l5 2 2 5v6l-2-4-5 9-3-1-3-8-1-7z" fill="#006DB5"/>
<path transform="translate(408,688)" d="m0 0 2 4 3 9v6l-1 4 4 2h-15v-1l7-1-3-13-2-6 1-3z" fill="#006DB5"/>
<path transform="translate(117,634)" d="m0 0 5 4 4 10v28h-1l-4-25-4-14z" fill="#006798"/>
<path transform="translate(1296,654)" d="m0 0h1v44l5-5 3-4 1 1-1 7-2 7h-5l-1 5h-1z" fill="#006DB5"/>
<path transform="translate(1460,646)" d="m0 0 3 1-4 11-5 9h-4v-9l3-1 2-5z" fill="#006796"/>
<path transform="translate(71,71)" d="m0 0 1 3-10 22-4-3v-3l-2-1 11-14z" fill="#006CB3"/>
<path transform="translate(1237,625)" d="m0 0 12 1 2 3-1 4v-2l-4 3-6 1-3-2v10h-1v-17z" fill="#006DB5"/>
<path transform="translate(237,667)" d="m0 0h1v36l3 1 3 5 2 2h6l1-2v5h-14l-2-3z" fill="#0069A5"/>
<path transform="translate(1815,628)" d="m0 0h11l-3 1 1 5v10l-2-2h-4l-3-6z" fill="#006DB5"/>
<path transform="translate(1024,690)" d="m0 0 6 1 2 3v6l-3 1-2-4-6 1-7 4-1-5 8-6z" fill="#00679A"/>
<path transform="translate(278,145)" d="m0 0 5 3 4 5v5l-9-1-4-5-2-1 1-2 2-3z" fill="#006CB4"/>
<path transform="translate(820,698)" d="m0 0 4 5 1 8-1 2h8v1h-14l-1-1v-13z" fill="#006DB5"/>
<path transform="translate(1820,696)" d="m0 0h2l1 2v9l-1 5 3 2h-15v-1h9l-2-5 1-9z" fill="#006DB5"/>
<path transform="translate(1816,653)" d="m0 0h1l2 28-1 15-3 9-2-1 2-7 1-14z" fill="#006DB5"/>
<path transform="translate(1552,628)" d="m0 0h12l1 4-1 8-3 1-4-3-2-3 3-3h2v-2l-8-1z" fill="#006DB5"/>
<path transform="translate(119,443)" d="m0 0 4 3 2 5 2 6-5-2-5-3v-8z" fill="#006CB4"/>
<path transform="translate(315,699)" d="m0 0 15 1v5l-6 1-8-3z" fill="#006CB4"/>
<path transform="translate(283,659)" d="m0 0h1v8l6 2-2 7-5-1-1-5v-8z" fill="#006DB5"/>
<path transform="translate(530,701)" d="m0 0h17l-1 9-5-1-1-4 1-3h-11z" fill="#006DB5"/>
<path transform="translate(1751,604)" d="m0 0h8l-5 7-2 10h-1l-1-7v-9z" fill="#00689B"/>
<path transform="translate(816,589)" d="m0 0h2v10l1 6-4-2-2-5 1-7z" fill="#00689B"/>
<path transform="translate(1463,632)" d="m0 0 2 1-9 11-5 1 2-4 5-5z" fill="#00679A"/>
<path transform="translate(167,626)" d="m0 0 2 1-2 4-5 3h-6l1-3z" fill="#0069A5"/>
<path transform="translate(1680,625)" d="m0 0h13v1l-5 1-2 1-1 3-6 2-3-2 5-3h2v-2z" fill="#006DB5"/>
<path transform="translate(171,706)" d="m0 0 1 2-4 6-7-1 4-5z" fill="#006DB5"/>
<path transform="translate(755,704)" d="m0 0h1l2 9h-6l-1-1v-6z" fill="#00679A"/>
<path transform="translate(969,663)" d="m0 0h17l-2 1v4l-5 1 1-4-11-1z" fill="#006DB5"/>
<path transform="translate(1890,636)" d="m0 0 7 1 2 4-7-1-5-2z" fill="#006DB5"/>
<path transform="translate(978,697)" d="m0 0 5 2 10 3-4 4-5-4-6-3z" fill="#00689C"/>
<path transform="translate(492,630)" d="m0 0 1 2 5 1 2 2-5 1-3-1-2 4v-6z" fill="#006DB5"/>
<path transform="translate(825,694)" d="m0 0 2 2 3 10-2 2-3-7z" fill="#006DB5"/>
<path transform="translate(1072,638)" d="m0 0h5l-4 4h-2l-2 4-1-4z" fill="#00689B"/>
<path transform="translate(1627,645)" d="m0 0 1 3-4 10h-2l1-7z" fill="#006CB1"/>
<path transform="translate(1977,24)" d="m0 0 1 4-2 8h-2l1-9z" fill="#00689D"/>
</svg>
