<svg xmlns="http://www.w3.org/2000/svg" version="1.1" viewBox="123.667 123.333 254 254" style="max-height: 500px" width="254" height="254">
<path transform="translate(0,0)" fill="#FEFEFE" d="M0 0 C165 0 330 0 500 0 C500 165 500 330 500 500 C335 500 170 500 0 500 C0 335 0 170 0 0 Z"/>
<path transform="translate(126,126)" fill="#2DA64A" d="M0 0 C82.17 0 164.34 0 249 0 C249 82.17 249 164.34 249 249 C166.83 249 84.66 249 0 249 C0 166.83 0 84.66 0 0 Z"/>
<path transform="translate(295,178)" fill="#C6F5CC" d="M0 0 C0.57814453 0.35320312 1.15628906 0.70640625 1.75195312 1.0703125 C3.2062861 1.98883859 4.60888588 2.98828064 6 4 C6 4.66 6 5.32 6 6 C6.556875 6.20625 7.11375 6.4125 7.6875 6.625 C10.26186982 8.15570638 11.83133055 10.01205497 13.65625 12.3671875 C15.00958033 14.08917954 15.00958033 14.08917954 16.875 15.71875 C19.68118593 18.73127313 21.5236255 22.03113445 23.5 25.625 C23.89654785 26.34139648 24.2930957 27.05779297 24.70166016 27.79589844 C28.70976752 35.14271449 31.61601398 42.0195519 33.25 50.25 C34.52367969 55.75989611 36.357669 57.70010562 41.0625 60.640625 C44.83514785 63.28756341 46.41256853 67.09084771 47.75 71.4375 C48.63785267 80.53798991 47.30348027 87.94332766 41.6875 95.4375 C39 98 39 98 35.3125 99.5 C31.7182703 100.6879324 31.7182703 100.6879324 30.5625 104.1875 C30.376875 105.115625 30.19125 106.04375 30 107 C27.125 107.125 27.125 107.125 24 107 C21.42940374 104.42940374 21.7427425 103.43557593 21.7253418 99.86352539 C21.71580978 98.79223892 21.70627777 97.72095245 21.69645691 96.61720276 C21.69782402 94.87502724 21.69782402 94.87502724 21.69921875 93.09765625 C21.69493362 91.90901474 21.6906485 90.72037323 21.68623352 89.49571228 C21.68048181 86.97802366 21.67999611 84.46031842 21.68432617 81.94262695 C21.68748413 78.0819066 21.66404318 74.22195352 21.63867188 70.36132812 C21.63639885 67.9192718 21.6356954 65.47721341 21.63671875 63.03515625 C21.627509 61.87573013 21.61829926 60.71630402 21.60881042 59.52174377 C21.61503922 58.44730515 21.62126801 57.37286652 21.62768555 56.26586914 C21.62705612 55.31925919 21.6264267 54.37264923 21.6257782 53.39735413 C22 51 22 51 23.33576965 49.17088318 C25 48 25 48 28 48 C25.99038172 40.35145282 22.96620975 33.60303698 19.1875 26.6875 C18.78547363 25.93549316 18.38344727 25.18348633 17.96923828 24.40869141 C14.40978729 18.06004507 10.07613894 13.05075929 4 9 C4 8.34 4 7.68 4 7 C3.195625 6.62875 3.195625 6.62875 2.375 6.25 C0 5 0 5 -2.5625 3.125 C-6.92687791 0.12519503 -12.0163649 -1.33287651 -17 -3 C-17 -3.66 -17 -4.32 -17 -5 C-17.60585938 -5.04898438 -18.21171875 -5.09796875 -18.8359375 -5.1484375 C-19.67382812 -5.22320312 -20.51171875 -5.29796875 -21.375 -5.375 C-22.59316406 -5.47941406 -22.59316406 -5.47941406 -23.8359375 -5.5859375 C-26.51620996 -5.9366892 -29.05523191 -6.43788314 -31.69140625 -7.015625 C-51.31436467 -11.01546481 -73.10659026 -7.95416673 -90 3 C-105.57314079 14.83072447 -114.05483442 30.17366789 -119 49 C-118.21625 48.95875 -117.4325 48.9175 -116.625 48.875 C-114 49 -114 49 -112 51 C-111.74603271 53.23240662 -111.74603271 53.23240662 -111.74121094 56.04467773 C-111.73490662 57.09594345 -111.72860229 58.14720917 -111.72210693 59.23033142 C-111.7261554 60.36990799 -111.73020386 61.50948456 -111.734375 62.68359375 C-111.73246155 63.85003922 -111.7305481 65.01648468 -111.72857666 66.21827698 C-111.72721363 68.68889583 -111.73091822 71.1595218 -111.73925781 73.63012695 C-111.74994581 77.41829492 -111.73937113 81.20598759 -111.7265625 84.99414062 C-111.72788426 87.39062605 -111.730447 89.78711118 -111.734375 92.18359375 C-111.73032654 93.32114609 -111.72627808 94.45869843 -111.72210693 95.63072205 C-111.72841125 96.68513992 -111.73471558 97.7395578 -111.74121094 98.82592773 C-111.74359772 100.21919533 -111.74359772 100.21919533 -111.74603271 101.64060974 C-112 104 -112 104 -114 107 C-115.98 106.67 -117.96 106.34 -120 106 C-120.33 104.35 -120.66 102.7 -121 101 C-121.66 101 -122.32 101 -123 101 C-120.35800645 114.20996776 -117.05928003 126.71084608 -105.9765625 135.359375 C-94.33162066 142.93826826 -83.54119864 144.47004756 -70 145 C-69.319375 143.7934375 -69.319375 143.7934375 -68.625 142.5625 C-67 140 -67 140 -65 139 C-60.66672826 138.50944093 -58.67999656 138.52255561 -55.0625 141.0625 C-52.46672891 144.7595073 -52.28746412 146.56644342 -53 151 C-54.79562405 153.75329021 -56.05254922 155.52627461 -59 157 C-61.875 157.375 -61.875 157.375 -65 157 C-67.16607525 154.77538218 -68.61688761 152.76622478 -70 150 C-72.47470855 149.71772769 -72.47470855 149.71772769 -75.5 149.6875 C-90.21150087 148.73367742 -104.81414037 144.1051641 -114.9375 132.9375 C-115.97500988 131.63814239 -116.99794735 130.3268939 -118 129 C-119.0828125 127.6696875 -119.0828125 127.6696875 -120.1875 126.3125 C-123.98531234 119.37167056 -126.05309676 111.89094426 -126.4375 104 C-126.6971251 99.77003298 -126.6971251 99.77003298 -129.25 96.3125 C-130.61125 95.1678125 -130.61125 95.1678125 -132 94 C-137.08266563 88.68317362 -137.69338901 82.97074155 -137.59570312 75.87060547 C-137.29420094 70.03927916 -135.94341805 66.24346073 -132 62 C-131.113125 61.030625 -130.22625 60.06125 -129.3125 59.0625 C-127 57 -127 57 -125 56 C-124.33486202 53.6236434 -123.77225002 51.28309094 -123.25 48.875 C-118.45079362 28.42189807 -108.26758051 9.4864332 -90 -2 C-89.21625 -2.51046875 -88.4325 -3.0209375 -87.625 -3.546875 C-61.8233158 -19.05860181 -24.92903794 -15.41505728 0 0 Z"/>
<path transform="translate(288,234)" fill="#EDFBF1" d="M0 0 C0 0.66 0 1.32 0 2 C0.721875 2.165 1.44375 2.33 2.1875 2.5 C6.29592097 4.69115785 8.00670073 7.87379296 10 12 C10.8125 15 10.8125 15 11 18 C11.1546875 19.85625 11.1546875 19.85625 11.3125 21.75 C11.18734828 29.02270567 7.8280283 36.24413045 2.89453125 41.52734375 C-3.1188735 46.20168105 -10.56604742 47.74339526 -18 47 C-25.04375714 45.64067845 -29.91182199 42.65255045 -34.3125 37.0625 C-38.7326473 29.04075119 -39.14538718 21.47058633 -36.75 12.6875 C-35.45859775 8.81938478 -34.02821599 5.83895249 -31 3 C-30.01 3 -29.02 3 -28 3 C-28 2.34 -28 1.68 -28 1 C-19.37801613 -4.9874888 -9.24001985 -4.18415993 0 0 Z"/>
<path transform="translate(126,126)" fill="#57A35F" d="M0 0 C46.53 0 93.06 0 141 0 C141 0.33 141 0.66 141 1 C140.28765701 1.01030746 139.57531403 1.02061493 138.84138489 1.03123474 C131.97793354 1.13106862 125.11452975 1.23376778 118.25116444 1.33933926 C114.72646339 1.39346399 111.20175454 1.44664829 107.67700195 1.49731445 C103.58279521 1.55634352 99.48864474 1.61841372 95.39453125 1.68359375 C94.71085857 1.69447399 94.0271859 1.70535423 93.32279587 1.71656418 C83.54191445 1.8767975 73.77157208 2.1631458 63.99609375 2.53515625 C51.07404461 3.02237216 38.1793915 3.08946202 25.25 3 C21.21354545 2.9734194 17.17713323 2.95357523 13.140625 2.9375 C11.77553802 2.92505249 11.77553802 2.92505249 10.38287354 2.91235352 C8.25506541 2.90385741 6.12715004 2.94640589 4 3 C2.05940223 4.94059777 2.87700503 7.88001846 2.87091869 10.46297508 C2.87528795 11.87102005 2.87528795 11.87102005 2.87974548 13.30751038 C2.87889106 14.29658447 2.87803663 15.28565857 2.87715632 16.30470461 C2.87549852 19.64594408 2.88102777 22.98713423 2.88647461 26.32836914 C2.88675644 28.71272277 2.88659882 31.09707648 2.8860321 33.48143005 C2.88577395 39.30131679 2.89012528 45.12118716 2.89646976 50.94107015 C2.90360368 57.71055135 2.90511365 64.48003019 2.90625793 71.24951463 C2.90844878 83.32267794 2.91510974 95.3958345 2.92456055 107.46899414 C2.93373383 119.19978807 2.94081507 130.93058017 2.94506836 142.66137695 C2.94533108 143.38396716 2.94559381 144.10655737 2.94586449 144.85104425 C2.94716949 148.47591884 2.94843321 152.10079345 2.94967639 155.72566807 C2.96005001 185.81711677 2.97774333 215.9085576 3 246 C8.79833674 246.0248905 14.59664172 246.04294954 20.39501953 246.05493164 C22.36377505 246.05993176 24.33252691 246.06673402 26.30126953 246.07543945 C29.14616809 246.08769573 31.99101717 246.09327167 34.8359375 246.09765625 C36.13656631 246.10539818 36.13656631 246.10539818 37.46347046 246.11329651 C42.62780442 246.11376081 47.67255189 245.81209366 52.80399787 245.22335297 C55.97322066 244.90101479 59.10274062 244.92381115 62.28564453 244.97827148 C62.94059402 244.98787903 63.59554352 244.99748657 64.27033997 245.00738525 C66.39129339 245.03982888 68.51200359 245.08036043 70.6328125 245.12109375 C72.12066849 245.14544864 73.60853298 245.16928932 75.09640503 245.19264221 C78.97946992 245.25494992 82.862381 245.3241623 86.74530029 245.39489746 C90.720755 245.46606798 94.69631726 245.53059157 98.671875 245.59570312 C106.44803576 245.72402634 114.22404589 245.8596566 122 246 C122 246.33 122 246.66 122 247 C153.68 247.495 153.68 247.495 186 248 C186 248.33 186 248.66 186 249 C124.62 249 63.24 249 0 249 C0 166.83 0 84.66 0 0 Z"/>
<path transform="translate(235.9375,232.1875)" fill="#E9FAED" d="M0 0 C3.24012037 1.91762226 5.56262348 4.00960815 8.0625 6.8125 C6.375 8.875 6.375 8.875 4.0625 10.8125 C1.16512708 10.66000669 -0.95416822 9.80552261 -3.625 8.6875 C-8.75507576 7.33238565 -14.00077419 7.36219074 -18.84375 9.75390625 C-22.90152637 12.76740194 -24.10191219 15.96609071 -24.9375 20.8125 C-25.25644648 25.43722389 -24.91339191 28.6282583 -22.9375 32.8125 C-22.6075 33.8025 -22.2775 34.7925 -21.9375 35.8125 C-21.2775 35.8125 -20.6175 35.8125 -19.9375 35.8125 C-19.9375 36.4725 -19.9375 37.1325 -19.9375 37.8125 C-14.11698721 39.03787111 -7.43944643 39.93336521 -1.6796875 38.08984375 C0.26709463 36.93751241 0.26709463 36.93751241 0.671875 34.6484375 C0.71828125 33.83632813 0.7646875 33.02421875 0.8125 32.1875 C0.895 30.74375 0.9775 29.3 1.0625 27.8125 C-2.8975 27.8125 -6.8575 27.8125 -10.9375 27.8125 C-10.9375 25.1725 -10.9375 22.5325 -10.9375 19.8125 C-4.3375 19.8125 2.2625 19.8125 9.0625 19.8125 C10.43992933 38.892447 10.43992933 38.892447 7.12890625 43.5078125 C4.79111658 44.99651696 2.70286277 45.99274838 0.0625 46.8125 C-0.9275 47.3075 -0.9275 47.3075 -1.9375 47.8125 C-4.51464437 47.96426841 -7.04676478 48.04390137 -9.625 48.0625 C-10.32044922 48.083125 -11.01589844 48.10375 -11.73242188 48.125 C-18.06140516 48.17227532 -22.62609497 46.69387619 -27.625 42.625 C-32.57830701 36.60070769 -35.33665519 30.03423416 -35.21875 22.1640625 C-34.5116947 16.2522946 -32.48829546 9.98666173 -28.3125 5.625 C-25.9375 3.8125 -25.9375 3.8125 -23.9375 3.8125 C-23.9375 3.1525 -23.9375 2.4925 -23.9375 1.8125 C-16.42864806 -1.65312397 -7.95717492 -3.04040526 0 0 Z"/>
<path transform="translate(325,227)" fill="#F9FCFB" d="M0 0 C0 1.32 0 2.64 0 4 C0.99 4 1.98 4 3 4 C3 4.99 3 5.98 3 7 C3.70125 7.226875 4.4025 7.45375 5.125 7.6875 C11.03428627 10.38521764 14.61494565 13.97459953 17 20 C19.44020984 28.42981582 17.91214139 35.36748886 14 43 C11.68460056 46.80843288 9.53292898 48.78321533 5.3125 50.5 C1.7182703 51.6879324 1.7182703 51.6879324 0.5625 55.1875 C0.376875 56.115625 0.19125 57.04375 0 58 C-1.99954746 58.04254356 -4.00041636 58.04080783 -6 58 C-7 57 -7 57 -7.12025452 54.82969666 C-7.11803391 53.87261307 -7.11581329 52.91552948 -7.11352539 51.92944336 C-7.11344986 50.84839828 -7.11337433 49.76735321 -7.11329651 48.65354919 C-7.10813522 47.4775264 -7.10297394 46.3015036 -7.09765625 45.08984375 C-7.0962413 43.89267227 -7.09482635 42.69550079 -7.09336853 41.46205139 C-7.08774979 37.62050934 -7.07519411 33.77902457 -7.0625 29.9375 C-7.05748741 27.34049563 -7.05292409 24.74349035 -7.04882812 22.14648438 C-7.03777427 15.76430321 -7.02101792 9.3821557 -7 3 C-6.34 3 -5.68 3 -5 3 C-5 2.34 -5 1.68 -5 1 C-2 0 -2 0 0 0 Z"/>
<path transform="translate(312,127)" fill="#1B944D" d="M0 0 C20.46 0 40.92 0 62 0 C61.8945599 30.63390978 61.78560911 61.2677976 61.66888306 91.90166582 C61.65511315 95.51663775 61.64138611 99.13160984 61.62768555 102.74658203 C61.62495724 103.46627095 61.62222894 104.18595987 61.61941796 104.92745754 C61.575319 116.58712689 61.53469359 128.2468059 61.49534739 139.90649214 C61.45491032 151.8665775 61.41075086 163.82664492 61.36312145 175.78670382 C61.33646955 182.50608377 61.31155005 189.22546097 61.29092598 195.94486237 C61.27135933 202.26487034 61.24721538 208.58484403 61.21950912 214.9048214 C61.21013886 217.22844254 61.20246349 219.55207122 61.19658089 221.87570381 C61.18831936 225.04040362 61.1740424 228.20502025 61.15821838 231.36968994 C61.15724028 232.29575711 61.15626217 233.22182429 61.15525442 234.1759541 C61.14977998 235.02341663 61.14430554 235.87087916 61.1386652 236.74402237 C61.13600716 237.47460428 61.13334911 238.2051862 61.13061053 238.95790696 C60.99507013 241.07707849 60.57787685 242.96057175 60 245 C56.73897134 245.97397286 53.80178129 246.12117518 50.40527344 246.11352539 C49.28441345 246.11344986 48.16355347 246.11337433 47.00872803 246.11329651 C45.80444153 246.10813522 44.60015503 246.10297394 43.359375 246.09765625 C41.50339691 246.09553383 41.50339691 246.09553383 39.60992432 246.09336853 C36.32855059 246.0887211 33.04722627 246.07974347 29.76586914 246.06866455 C26.41422989 246.0584152 23.06258852 246.05394859 19.7109375 246.04882812 C13.14060569 246.03780025 6.57030689 246.02106296 0 246 C0 245.67 0 245.34 0 245 C1.98 245 3.96 245 6 245 C6.99 243.02 6.99 243.02 8 241 C10.06309376 241.11478413 12.12548354 241.24226198 14.1875 241.375 C15.33605469 241.44460938 16.48460937 241.51421875 17.66796875 241.5859375 C20.79959117 241.97509574 23.15285809 242.6809851 26 244 C26 243.67 26 243.34 26 243 C36.23 243 46.46 243 57 243 C57.33 163.14 57.66 83.28 58 1 C29.29 1.495 29.29 1.495 0 2 C0 1.34 0 0.68 0 0 Z"/>
<path transform="translate(295,178)" fill="#C4F4C8" d="M0 0 C0.57814453 0.35320312 1.15628906 0.70640625 1.75195312 1.0703125 C3.2062861 1.98883859 4.60888588 2.98828064 6 4 C6 4.66 6 5.32 6 6 C6.556875 6.20625 7.11375 6.4125 7.6875 6.625 C10.26186982 8.15570638 11.83133055 10.01205497 13.65625 12.3671875 C15.00958033 14.08917954 15.00958033 14.08917954 16.875 15.71875 C19.68131748 18.73141435 21.52299947 22.03133066 23.5 25.625 C23.89582275 26.337771 24.29164551 27.05054199 24.69946289 27.78491211 C27.57362728 33.04003403 30.09322573 38.31128117 32 44 C32.22300781 44.65484375 32.44601562 45.3096875 32.67578125 45.984375 C33.74760633 49.39671607 34.21643049 52.42889696 34 56 C33.67 55.01 33.34 54.02 33 53 C31.68 53.33 30.36 53.66 29 54 C29.33 52.35 29.66 50.7 30 49 C27.525 49.495 27.525 49.495 25 50 C25 50.66 25 51.32 25 52 C24.34 52 23.68 52 23 52 C23 69.49 23 86.98 23 105 C22.67 105 22.34 105 22 105 C21.92406409 97.3645666 21.87144831 89.72923023 21.83520508 82.09350586 C21.82009937 79.49483603 21.79961366 76.89619177 21.77368164 74.29760742 C21.73737757 70.56683042 21.72029142 66.83638987 21.70703125 63.10546875 C21.69154739 61.93976852 21.67606354 60.7740683 21.66011047 59.57304382 C21.65977058 57.9517028 21.65977058 57.9517028 21.65942383 56.29760742 C21.64943108 54.86864388 21.64943108 54.86864388 21.63923645 53.41081238 C22 51 22 51 23.33378601 49.16889954 C25 48 25 48 28 48 C25.99038172 40.35145282 22.96620975 33.60303698 19.1875 26.6875 C18.78547363 25.93549316 18.38344727 25.18348633 17.96923828 24.40869141 C14.40978729 18.06004507 10.07613894 13.05075929 4 9 C4 8.34 4 7.68 4 7 C3.195625 6.62875 3.195625 6.62875 2.375 6.25 C0 5 0 5 -2.5625 3.125 C-6.92687791 0.12519503 -12.0163649 -1.33287651 -17 -3 C-17 -3.66 -17 -4.32 -17 -5 C-17.60585938 -5.04898438 -18.21171875 -5.09796875 -18.8359375 -5.1484375 C-19.67382812 -5.22320312 -20.51171875 -5.29796875 -21.375 -5.375 C-22.59316406 -5.47941406 -22.59316406 -5.47941406 -23.8359375 -5.5859375 C-26.51620996 -5.9366892 -29.05523191 -6.43788314 -31.69140625 -7.015625 C-51.31436467 -11.01546481 -73.10659026 -7.95416673 -90 3 C-105.57314079 14.83072447 -114.05483442 30.17366789 -119 49 C-117.35 49 -115.7 49 -114 49 C-113.67 49.66 -113.34 50.32 -113 51 C-115.64 50.67 -118.28 50.34 -121 50 C-120.67 52.64 -120.34 55.28 -120 58 C-120.99 58 -121.98 58 -123 58 C-125.10820797 58.3185177 -125.10820797 58.3185177 -127 59 C-127.495 59.99 -127.495 59.99 -128 61 C-128.66 60.34 -129.32 59.68 -130 59 C-129.21496094 58.65453125 -128.42992187 58.3090625 -127.62109375 57.953125 C-124.15828394 55.37278982 -123.80999955 52.78563616 -123.0625 48.75 C-118.76771446 29.0913709 -109.04193028 10.93600059 -92.0625 -0.703125 C-91.381875 -1.13109375 -90.70125 -1.5590625 -90 -2 C-89.21625 -2.51046875 -88.4325 -3.0209375 -87.625 -3.546875 C-61.8233158 -19.05860181 -24.92903794 -15.41505728 0 0 Z"/>
<path transform="translate(282.875,241.1875)" fill="#26A049" d="M0 0 C3.89931476 3.32588612 6.79860331 6.57364055 7.328125 11.828125 C7.45348907 17.80381245 6.84077812 22.59108151 2.82421875 27.35546875 C-1.74965298 31.40726083 -6.82964852 31.71590541 -12.765625 31.50390625 C-17.18696279 30.52076958 -19.04917602 28.50048255 -21.703125 24.953125 C-24.43873473 19.9560779 -24.60895218 14.38386431 -23.875 8.8125 C-22.21813318 4.49893294 -20.24626599 1.57785776 -16.1875 -0.6875 C-10.63260718 -1.52597439 -5.28384202 -2.18245649 0 0 Z"/>
<path transform="translate(267,126)" fill="#378B5A" d="M0 0 C35.64 0 71.28 0 108 0 C108 82.17 108 164.34 108 249 C35.46015101 249 35.46015101 249 8.5625 248.5 C5.71811734 248.45071982 2.87370775 248.40308871 0.02929688 248.35546875 C-6.64724532 248.24285527 -13.32365997 248.12401901 -20 248 C-20 247.67 -20 247.34 -20 247 C21.25 246.67 62.5 246.34 105 246 C105.33 165.48 105.66 84.96 106 2 C53.53 1.505 53.53 1.505 0 1 C0 0.67 0 0.34 0 0 Z"/>
<path transform="translate(178.594482421875,229.762939453125)" fill="#FAFDF9" d="M0 0 C2.83782718 2.63909575 2.78961969 3.25442321 2.97314453 6.98388672 C2.97235227 8.99944096 2.94406486 11.01510179 2.89379883 13.0300293 C2.88672409 14.09119461 2.87964935 15.15235992 2.87236023 16.24568176 C2.84434224 19.63935457 2.78158714 23.03138535 2.71801758 26.42456055 C2.69294442 28.72336487 2.67012955 31.02219501 2.6496582 33.32104492 C2.59449148 38.96027828 2.51079112 44.59855213 2.40551758 50.23706055 C-0.59448242 51.23706055 -0.59448242 51.23706055 -3.59448242 50.23706055 C-3.59448242 47.92706055 -3.59448242 45.61706055 -3.59448242 43.23706055 C-4.58448242 43.23706055 -5.57448242 43.23706055 -6.59448242 43.23706055 C-6.92448242 44.55706055 -7.25448242 45.87706055 -7.59448242 47.23706055 C-8.08948242 45.75206055 -8.08948242 45.75206055 -8.59448242 44.23706055 C-9.25448242 43.92768555 -9.91448242 43.61831055 -10.59448242 43.29956055 C-12.59448242 42.23706055 -12.59448242 42.23706055 -13.34448242 40.11206055 C-13.46823242 39.18393555 -13.46823242 39.18393555 -13.59448242 38.23706055 C-14.25448242 38.23706055 -14.91448242 38.23706055 -15.59448242 38.23706055 C-17.93360896 35.9036392 -18.56275748 34.48059612 -18.99291992 31.1784668 C-18.98518555 30.06342773 -18.97745117 28.94838867 -18.96948242 27.79956055 C-18.9772168 26.68709961 -18.98495117 25.57463867 -18.99291992 24.4284668 C-18.55722562 20.9386409 -17.47304828 19.15598702 -15.59448242 16.23706055 C-15.53260742 15.06143555 -15.47073242 13.88581055 -15.40698242 12.67456055 C-14.59448242 9.23706055 -14.59448242 9.23706055 -12.82885742 7.9362793 C-10.77926773 6.92254339 -8.73074755 6.04962765 -6.59448242 5.23706055 C-5.93448242 4.90706055 -5.27448242 4.57706055 -4.59448242 4.23706055 C-4.59448242 2.91706055 -4.59448242 1.59706055 -4.59448242 0.23706055 C-2.59448242 -0.76293945 -2.59448242 -0.76293945 0 0 Z"/>
<path transform="translate(125,126)" fill="#DEFEE7" d="M0 0 C0.33 0 0.66 0 1 0 C1 82.17 1 164.34 1 249 C83.17 249 165.34 249 250 249 C250.33 249.99 250.66 250.98 251 252 C219.31292039 252.04558781 187.62585008 252.08100001 155.93874536 252.10213066 C152.2010255 252.10463219 148.4633057 252.10722082 144.72558594 252.10986328 C143.98144748 252.1103879 143.23730902 252.11091252 142.47062092 252.11145304 C130.40865685 252.12016469 118.34671178 252.13593882 106.284759 252.15430559 C93.91563479 252.17298354 81.54652056 252.18411225 69.17738283 252.18817699 C61.53992121 252.19092643 53.90251326 252.1996221 46.26506816 252.21583293 C40.41676518 252.22761676 34.56849002 252.22891669 28.72017479 252.22621536 C26.315076 252.22676801 23.90997528 252.23077817 21.50488853 252.23841095 C18.23435324 252.24828583 14.96405209 252.24599631 11.69351196 252.24050903 C10.73049152 252.24633472 9.76747108 252.2521604 8.7752682 252.25816262 C7.9039206 252.25418052 7.03257301 252.25019842 6.13482094 252.24609566 C5.37917748 252.2468551 4.62353402 252.24761454 3.84499228 252.24839699 C2 252 2 252 0 250 C-0.24839699 248.14859569 -0.24839699 248.14859569 -0.24609566 245.84956169 C-0.25007775 244.9747307 -0.25405985 244.09989971 -0.25816262 243.19855869 C-0.25233693 242.2316473 -0.24651125 241.26473591 -0.24050903 240.26852417 C-0.24221788 239.24592723 -0.24392673 238.22333029 -0.24568737 237.16974556 C-0.24899859 233.72100402 -0.23795173 230.27245428 -0.22705078 226.82373047 C-0.22648702 224.36041264 -0.22680254 221.89709448 -0.22793579 219.43377686 C-0.22839218 214.11901224 -0.22269569 208.80430806 -0.21146011 203.48955917 C-0.19522579 195.80527588 -0.18999923 188.12101635 -0.18748413 180.43671776 C-0.18310377 167.97033095 -0.16978544 155.50397027 -0.15087891 143.03759766 C-0.13252892 130.92561982 -0.11836811 118.81364908 -0.10986328 106.70166016 C-0.10933783 105.95543671 -0.10881239 105.20921326 -0.10827102 104.44037698 C-0.105661 100.69690048 -0.10313357 96.95342393 -0.10064721 93.20994735 C-0.0799041 62.13994589 -0.04452094 31.06997691 0 0 Z"/>
<path transform="translate(240,243)" fill="#32A648" d="M0 0 C0 1.65 0 3.3 0 5 C2.475 5.495 2.475 5.495 5 6 C5 6.99 5 7.98 5 9 C-1.6 9 -8.2 9 -15 9 C-15 11.64 -15 14.28 -15 17 C-11.04 17 -7.08 17 -3 17 C-2.77023127 20.1708085 -2.58537146 22.88199341 -3 26 C-5.29491343 28.52440478 -7.00423976 28.90058966 -10.34765625 29.234375 C-15.28620442 29.38335081 -19.39058226 28.94080747 -24 27 C-24 26.34 -24 25.68 -24 25 C-24.66 25 -25.32 25 -26 25 C-30.16683505 20.33314474 -30.31113866 16.11906031 -30 10 C-29.09731175 4.28297443 -27.16584512 1.71811911 -22.8515625 -1.8359375 C-15.75643031 -6.29659023 -7.06003544 -2.95237846 0 0 Z"/>
<path transform="translate(210,169)" fill="#50A95B" d="M0 0 C0.495 0.99 0.495 0.99 1 2 C1.99 2.33 2.98 2.66 4 3 C2.65808594 3.69222656 2.65808594 3.69222656 1.2890625 4.3984375 C-7.10995056 8.87293946 -13.69589715 13.73860746 -20 21 C-20.85851562 21.98613281 -20.85851562 21.98613281 -21.734375 22.9921875 C-30.74515558 34.18599224 -35.54490476 48.29842604 -38.09375 62.25 C-39.14362345 65.43582287 -40.09982274 66.39374798 -43 68 C-43.66 68 -44.32 68 -45 68 C-45.2475 68.515625 -45.495 69.03125 -45.75 69.5625 C-47 72 -47 72 -49.125 74.75 C-52.55282139 80.7131157 -51.78815321 88.39837482 -51 95 C-49.8051191 98.19264619 -48.25195105 100.46735251 -46 103 C-45.236875 103.99 -44.47375 104.98 -43.6875 106 C-43.130625 106.66 -42.57375 107.32 -42 108 C-43.98 108.99 -43.98 108.99 -46 110 C-48.2477975 107.94766315 -49.0022242 106.99332739 -50 104 C-51.32 104 -52.64 104 -54 104 C-55.34164079 103.7018576 -56.67851173 103.37756808 -58 103 C-57.9278125 102.40832031 -57.855625 101.81664062 -57.78125 101.20703125 C-57.30063788 97.11515307 -56.87861349 93.12714123 -57 89 C-57 86 -57 86 -55 83 C-54.33841957 80.95415921 -54.33841957 80.95415921 -53.875 78.8125 C-53.58625 77.554375 -53.2975 76.29625 -53 75 C-53.66 75 -54.32 75 -55 75 C-54.67 73.68 -54.34 72.36 -54 71 C-53.01 71 -52.02 71 -51 71 C-50.67 68.69 -50.34 66.38 -50 64 C-48.34385343 63.61781233 -46.67542976 63.28604898 -45 63 C-44.67 63.33 -44.34 63.66 -44 64 C-44 63.01 -44 62.02 -44 61 C-43.34 61 -42.68 61 -42 61 C-41.34 59.68 -40.68 58.36 -40 57 C-39.34 57 -38.68 57 -38 57 C-38.226875 55.80375 -38.45375 54.6075 -38.6875 53.375 C-39.24221626 49.0664504 -38.1830092 46.77828515 -36 43 C-35.30092586 40.26427415 -35.30092586 40.26427415 -35 38 C-34.34 38 -33.68 38 -33 38 C-33.020625 36.9275 -33.04125 35.855 -33.0625 34.75 C-33.0142016 31.85209576 -32.86844115 29.71387859 -32 27 C-31.36835938 26.91363281 -30.73671875 26.82726562 -30.0859375 26.73828125 C-27.8635592 26.2255116 -27.8635592 26.2255116 -27.1640625 24.29296875 C-26.98617187 23.59816406 -26.80828125 22.90335938 -26.625 22.1875 C-25.19420494 17.78444558 -23.17433598 16.13157582 -19 14 C-18.34 14 -17.68 14 -17 14 C-17 13.01 -17 12.02 -17 11 C-16.21625 10.9175 -15.4325 10.835 -14.625 10.75 C-13.75875 10.5025 -12.8925 10.255 -12 10 C-11.3162955 8.67532254 -10.65035814 7.34136367 -10 6 C-7.5625 4.6875 -7.5625 4.6875 -5 4 C-4.01 4.33 -3.02 4.66 -2 5 C-1.34 3.35 -0.68 1.7 0 0 Z"/>
<path transform="translate(306,195)" fill="#1C9649" d="M0 0 C2.55773085 0.27491925 3.67768207 0.60501943 5.32446289 2.62304688 C5.7033667 3.31462891 6.08227051 4.00621094 6.47265625 4.71875 C6.89740234 5.48703125 7.32214844 6.2553125 7.75976562 7.046875 C8.18966797 7.85640625 8.61957031 8.6659375 9.0625 9.5 C9.7131543 10.66789063 9.7131543 10.66789063 10.37695312 11.859375 C13.59163344 17.77008096 17 24.14650132 17 31 C16.18703461 31.44859375 15.37406921 31.8971875 14.53646851 32.359375 C11.7788917 33.73534695 11.7788917 33.73534695 11.39199829 36.390625 C11.40412857 37.80601562 11.40412857 37.80601562 11.41650391 39.25 C11.41222885 40.85681641 11.41222885 40.85681641 11.40786743 42.49609375 C11.4305368 43.65238281 11.45320618 44.80867188 11.4765625 46 C11.4836171 47.78083984 11.4836171 47.78083984 11.49081421 49.59765625 C11.51220563 53.3990216 11.56884895 57.1990057 11.625 61 C11.64150086 63.5624869 11.65585053 66.12498863 11.66796875 68.6875 C11.70197261 73.37518009 11.73684251 78.06271237 11.80712891 82.75 C11.81998932 83.69359375 11.83284973 84.6371875 11.84609985 85.609375 C11.9076015 88.14718408 11.9076015 88.14718408 13 91 C14.65 91 16.3 91 18 91 C17.67 91.66 17.34 92.32 17 93 C14.03 93 11.06 93 8 93 C7.34 91.35 6.68 89.7 6 88 C6.66 88 7.32 88 8 88 C7.34 87.01 6.68 86.02 6 85 C5.8046875 82.08203125 5.8046875 82.08203125 5.875 78.8125 C5.89304687 77.72582031 5.91109375 76.63914062 5.9296875 75.51953125 C5.95289063 74.68808594 5.97609375 73.85664063 6 73 C6.66 73 7.32 73 8 73 C7.67402832 72.021521 7.34805664 71.04304199 7.01220703 70.03491211 C5.80698853 65.79751478 5.74450623 61.82169264 5.8046875 57.44140625 C5.80893234 56.25767677 5.80893234 56.25767677 5.81326294 55.05003357 C5.82436943 52.55402828 5.84945545 50.05839502 5.875 47.5625 C5.88504215 45.86003126 5.89416583 44.15755684 5.90234375 42.45507812 C5.9242774 38.30324424 5.95874023 34.15168498 6 30 C6.66 29.67 7.32 29.34 8 29 C8.68472665 27.11235097 8.68472665 27.11235097 9.125 24.9375 C9.29257812 24.20402344 9.46015625 23.47054687 9.6328125 22.71484375 C9.75398438 22.14894531 9.87515625 21.58304688 10 21 C8.02 21.99 8.02 21.99 6 23 C6.02320313 22.39671875 6.04640625 21.7934375 6.0703125 21.171875 C6.08835937 20.37265625 6.10640625 19.5734375 6.125 18.75 C6.14820313 17.96109375 6.17140625 17.1721875 6.1953125 16.359375 C5.9828378 13.79268059 5.28654105 12.2083933 4 10 C3.01 10 2.02 10 1 10 C1.0928125 8.824375 1.0928125 8.824375 1.1875 7.625 C1.125625 6.75875 1.06375 5.8925 1 5 C0.01 4.34 -0.98 3.68 -2 3 C-1 1 -1 1 0 0 Z"/>
<path transform="translate(289.125,174.875)" fill="#BFF3CE" d="M0 0 C0.59425781 0.35191406 1.18851562 0.70382813 1.80078125 1.06640625 C3.49887199 2.07476477 5.18718136 3.09954045 6.875 4.125 C7.84179688 4.66382813 8.80859375 5.20265625 9.8046875 5.7578125 C10.82949219 6.43457031 10.82949219 6.43457031 11.875 7.125 C11.875 7.785 11.875 8.445 11.875 9.125 C12.431875 9.33125 12.98875 9.5375 13.5625 9.75 C16.13686982 11.28070638 17.70633055 13.13705497 19.53125 15.4921875 C20.88458033 17.21417954 20.88458033 17.21417954 22.75 18.84375 C25.55631748 21.85641435 27.39799947 25.15633066 29.375 28.75 C29.77082275 29.462771 30.16664551 30.17554199 30.57446289 30.90991211 C33.44862728 36.16503403 35.96822573 41.43628117 37.875 47.125 C38.09800781 47.77984375 38.32101562 48.4346875 38.55078125 49.109375 C39.62260633 52.52171607 40.09143049 55.55389696 39.875 59.125 C39.545 58.135 39.215 57.145 38.875 56.125 C36.895 56.62 36.895 56.62 34.875 57.125 C35.205 55.475 35.535 53.825 35.875 52.125 C33.4 52.62 33.4 52.62 30.875 53.125 C30.875 53.785 30.875 54.445 30.875 55.125 C30.215 55.125 29.555 55.125 28.875 55.125 C28.875 72.615 28.875 90.105 28.875 108.125 C28.545 108.125 28.215 108.125 27.875 108.125 C27.79906409 100.4895666 27.74644831 92.85423023 27.71020508 85.21850586 C27.69509937 82.61983603 27.67461366 80.02119177 27.64868164 77.42260742 C27.61237757 73.69183042 27.59529142 69.96138987 27.58203125 66.23046875 C27.56654739 65.06476852 27.55106354 63.8990683 27.53511047 62.69804382 C27.53488388 61.61714981 27.53465729 60.5362558 27.53442383 59.42260742 C27.52776199 58.46996506 27.52110016 57.51732269 27.51423645 56.53581238 C27.875 54.125 27.875 54.125 29.20878601 52.29389954 C30.875 51.125 30.875 51.125 33.875 51.125 C31.86538172 43.47645282 28.84120975 36.72803698 25.0625 29.8125 C24.66047363 29.06049316 24.25844727 28.30848633 23.84423828 27.53369141 C20.28478729 21.18504507 15.95113894 16.17575929 9.875 12.125 C9.875 11.465 9.875 10.805 9.875 10.125 C9.33875 9.8775 8.8025 9.63 8.25 9.375 C5.875 8.125 5.875 8.125 3.3125 6.25 C-1.05187791 3.25019503 -6.1413649 1.79212349 -11.125 0.125 C-11.125 -0.535 -11.125 -1.195 -11.125 -1.875 C-14.425 -2.205 -17.725 -2.535 -21.125 -2.875 C-21.125 -3.205 -21.125 -3.535 -21.125 -3.875 C-12.85148247 -5.39462567 -7.14350309 -4.38030189 0 0 Z"/>
<path transform="translate(237,242)" fill="#36AD4E" d="M0 0 C-0.33 0.66 -0.66 1.32 -1 2 C-2.32 2 -3.64 2 -5 2 C-5 1.34 -5 0.68 -5 0 C-5.99 0.495 -5.99 0.495 -7 1 C-8.54023996 1.06950541 -10.08334988 1.08452357 -11.625 1.0625 C-12.85089844 1.04896484 -12.85089844 1.04896484 -14.1015625 1.03515625 C-15.04128906 1.01775391 -15.04128906 1.01775391 -16 1 C-16.33 1.66 -16.66 2.32 -17 3 C-17.99 2.67 -18.98 2.34 -20 2 C-20.33 2.66 -20.66 3.32 -21 4 C-20.67 4.33 -20.34 4.66 -20 5 C-20.495 5.845625 -20.99 6.69125 -21.5 7.5625 C-24.07476444 13.46300183 -23.2948016 18.1195709 -21 24 C-18.03 24 -15.06 24 -12 24 C-13.65 23.67 -15.3 23.34 -17 23 C-16.34515625 22.61199219 -15.6903125 22.22398437 -15.015625 21.82421875 C-12.76018967 20.16674709 -12.76018967 20.16674709 -12.609375 17.51953125 C-12.65578125 16.62621094 -12.7021875 15.73289062 -12.75 14.8125 C-12.78609375 13.91144531 -12.8221875 13.01039063 -12.859375 12.08203125 C-12.90578125 11.39496094 -12.9521875 10.70789063 -13 10 C-12.67 10 -12.34 10 -12 10 C-12 12.64 -12 15.28 -12 18 C-8.04 18 -4.08 18 0 18 C0.22976873 21.1708085 0.41462854 23.88199341 0 27 C-2.29491343 29.52440478 -4.00423976 29.90058966 -7.34765625 30.234375 C-12.28620442 30.38335081 -16.39058226 29.94080747 -21 28 C-21 27.34 -21 26.68 -21 26 C-21.66 26 -22.32 26 -23 26 C-27.16683505 21.33314474 -27.31113866 17.11906031 -27 11 C-26.09731175 5.28297443 -24.16584512 2.71811911 -19.8515625 -0.8359375 C-13.90542583 -4.57422595 -6.01190728 -2.90898739 0 0 Z"/>
<path transform="translate(174,228)" fill="#E3FCE3" d="M0 0 C2.97 0.33 5.94 0.66 9 1 C9.0506268 8.4930534 9.08570263 15.98606284 9.10986328 23.47924805 C9.11993328 26.02939502 9.13359004 28.57953042 9.15087891 31.12963867 C9.17508312 34.7908819 9.18647305 38.45197274 9.1953125 42.11328125 C9.20563507 43.2571077 9.21595764 44.40093414 9.22659302 45.579422 C9.22674408 46.64029526 9.22689514 47.70116852 9.22705078 48.79418945 C9.231492 49.72906693 9.23593323 50.6639444 9.24050903 51.62715149 C9 54 9 54 7 57 C5.02 56.67 3.04 56.34 1 56 C0.505 53.525 0.505 53.525 0 51 C-0.66 51 -1.32 51 -2 51 C-2 52.98 -2 54.96 -2 57 C-2.99 57.495 -2.99 57.495 -4 58 C-4 55.03 -4 52.06 -4 49 C-4.75796875 48.7628125 -5.5159375 48.525625 -6.296875 48.28125 C-9.46300355 46.78054167 -10.4297344 45.45074635 -12.25 42.5 C-12.75015625 41.7059375 -13.2503125 40.911875 -13.765625 40.09375 C-17.22547995 34.22513527 -16.86594104 26.67914442 -16 20 C-14.70578201 16.60793407 -13.38763911 14.79528481 -11 12 C-10.67 12 -10.34 12 -10 12 C-10.11409593 13.45922693 -10.24165544 14.91740598 -10.375 16.375 C-10.44460937 17.18710938 -10.51421875 17.99921875 -10.5859375 18.8359375 C-11 21 -11 21 -13 23 C-13.32068526 25.99036007 -13.32068526 25.99036007 -13.25 29.375 C-13.25773438 31.08816406 -13.25773438 31.08816406 -13.265625 32.8359375 C-13.01510533 35.82006883 -12.55829924 37.48940678 -11 40 C-10.34 40 -9.68 40 -9 40 C-8.67 41.32 -8.34 42.64 -8 44 C-6.35 44.33 -4.7 44.66 -3 45 C-3 45.99 -3 46.98 -3 48 C-2.67 47.01 -2.34 46.02 -2 45 C-1.01 45 -0.02 45 1 45 C2.125 49.75 2.125 49.75 1 52 C2.98 52 4.96 52 7 52 C6.67 36.16 6.34 20.32 6 4 C5.01 4 4.02 4 3 4 C2.67 3.34 2.34 2.68 2 2 C1.34 2 0.68 2 0 2 C0 1.34 0 0.68 0 0 Z"/>
<path transform="translate(214,175)" fill="#4EAA5B" d="M0 0 C0.66 0.33 1.32 0.66 2 1 C1.75 3.875 1.75 3.875 1 7 C-1.0625 8.375 -1.0625 8.375 -3 9 C-2.34 7.68 -1.68 6.36 -1 5 C-1.66 5 -2.32 5 -3 5 C-3 5.66 -3 6.32 -3 7 C-4.32 7 -5.64 7 -7 7 C-7 7.99 -7 8.98 -7 10 C-8.4609375 11.60546875 -8.4609375 11.60546875 -10.375 13.1875 C-11.00148437 13.71730469 -11.62796875 14.24710938 -12.2734375 14.79296875 C-14 16 -14 16 -16 16 C-16.33 17.65 -16.66 19.3 -17 21 C-17.99 20.67 -18.98 20.34 -20 20 C-20.4125 20.721875 -20.825 21.44375 -21.25 22.1875 C-22.98736803 24.97969862 -24.90381857 27.47012585 -27 30 C-25.68 29.67 -24.36 29.34 -23 29 C-23.75 30.9375 -23.75 30.9375 -25 33 C-27.125 33.75 -27.125 33.75 -29 34 C-29.70232032 38.389502 -30.10099879 42.55605306 -30 47 C-30 47.99 -30 48.98 -30 50 C-30.804375 49.979375 -31.60875 49.95875 -32.4375 49.9375 C-34.93354885 49.70366379 -34.93354885 49.70366379 -36 51 C-34.02 51 -32.04 51 -30 51 C-30.33 51.99 -30.66 52.98 -31 54 C-33.31 53.34 -35.62 52.68 -38 52 C-34.55736021 32.26219856 -24.48851275 17.41713629 -9 5 C-6.12548177 3.06375182 -3.26983265 1.18576349 0 0 Z"/>
<path transform="translate(183,230)" fill="#49B25A" d="M0 0 C0.33 0 0.66 0 1 0 C1.00586624 0.56740906 1.01173248 1.13481812 1.01777649 1.71942139 C1.08170493 7.62447443 1.16612296 13.5289822 1.26245117 19.43359375 C1.29570788 21.63729667 1.32373746 23.84108491 1.34643555 26.04492188 C1.37996738 29.21260955 1.43228336 32.37951469 1.48828125 35.546875 C1.49467117 36.53242371 1.5010611 37.51797241 1.50764465 38.53338623 C1.52743881 39.4540387 1.54723297 40.37469116 1.56762695 41.32324219 C1.57873001 42.1315448 1.58983307 42.93984741 1.60127258 43.77264404 C2.08943806 46.49961548 3.31600042 47.84291902 5 50 C4.75925978 53.37036311 4.41201979 54.58798021 2 57 C-0.625 57.125 -0.625 57.125 -3 57 C-3 58.65 -3 60.3 -3 62 C-2.01 62 -1.02 62 0 62 C-0.020625 63.11375 -0.04125 64.2275 -0.0625 65.375 C-0.26380718 68.83215921 -0.26380718 68.83215921 1 71 C0.9175 71.804375 0.835 72.60875 0.75 73.4375 C0.87375 74.7059375 0.87375 74.7059375 1 76 C2.65532623 77.01866229 4.32260138 78.01810813 6 79 C6.8125 81.6875 6.8125 81.6875 7 84 C-2.66085177 78.81612832 -6.62291403 69.32459878 -10.15234375 59.39453125 C-11.0489372 55.80402568 -11.15455112 52.68581 -11 49 C-10.34 49 -9.68 49 -9 49 C-8.67 50.65 -8.34 52.3 -8 54 C-6.02 54 -4.04 54 -2 54 C-0.75660024 51.51320048 -0.84172513 49.78202912 -0.79467773 46.99951172 C-0.77473251 45.95858368 -0.75478729 44.91765564 -0.73423767 43.84518433 C-0.70916893 42.1545134 -0.70916893 42.1545134 -0.68359375 40.4296875 C-0.66281265 39.27832306 -0.64203156 38.12695862 -0.62062073 36.94070435 C-0.55508335 33.2521986 -0.49622072 29.56361997 -0.4375 25.875 C-0.39431877 23.37889862 -0.35070462 20.8828047 -0.30664062 18.38671875 C-0.19939769 12.25789019 -0.09763911 6.12898867 0 0 Z"/>
<path transform="translate(237,317)" fill="#F3FDF9" d="M0 0 C2.9375 2.0625 2.9375 2.0625 5 5 C5.69151325 9.30274909 5.51557405 11.20945312 3.125 14.875 C0.5982046 17.4017954 -0.33963409 17.91386532 -3.875 18.375 C-7 18 -7 18 -9.25 15.8125 C-10.84816343 13.24402306 -12.02103585 10.85531211 -13 8 C-12.34 8 -11.68 8 -11 8 C-10.896875 7.236875 -10.79375 6.47375 -10.6875 5.6875 C-9.15082476 -0.31950322 -5.90011189 -0.81380854 0 0 Z"/>
<path transform="translate(127,127)" fill="#52AC53" d="M0 0 C25.74 0 51.48 0 78 0 C78 0.33 78 0.66 78 1 C57.98367473 1.95099044 38.01397531 2.08413214 17.97802734 1.96289062 C16.9940799 1.95866089 16.01013245 1.95443115 14.99636841 1.95007324 C13.12612508 1.94183895 11.25589445 1.92938509 9.38571167 1.91223145 C7.25695659 1.90384471 5.12809625 1.94638205 3 2 C1.62167287 3.1509255 1.62167287 3.1509255 1.88647461 6.27748108 C1.88662449 7.76971355 1.89240196 9.26195103 1.90234375 10.75415039 C1.90380402 11.5674028 1.90526428 12.38065521 1.9067688 13.21855164 C1.91058672 14.99355228 1.91671566 16.76854906 1.92483521 18.54353523 C1.9375857 21.3666319 1.94411323 24.18968156 1.94897461 27.01280212 C1.96236242 34.03966671 1.98631971 41.06648792 2.01037598 48.09332275 C2.03027117 54.00662944 2.04585652 59.91991824 2.05593872 65.83325005 C2.06233519 68.58914757 2.07485348 71.34497126 2.08764648 74.10084534 C2.11719359 84.44565419 1.8021779 94.68377285 1 105 C0.67 105 0.34 105 0 105 C0 70.35 0 35.7 0 0 Z"/>
<path transform="translate(235.9375,232.1875)" fill="#E1F8E8" d="M0 0 C3.24012037 1.91762226 5.56262348 4.00960815 8.0625 6.8125 C6.375 8.875 6.375 8.875 4.0625 10.8125 C1.1677142 10.66014285 -1.04243783 9.77285682 -3.75 8.75 C-7.67883558 7.59446012 -10.85509229 7.67172732 -14.9375 7.8125 C-14.6075 7.1525 -14.2775 6.4925 -13.9375 5.8125 C-11.2975 5.8125 -8.6575 5.8125 -5.9375 5.8125 C-5.9375 5.1525 -5.9375 4.4925 -5.9375 3.8125 C-5.2775 3.8125 -4.6175 3.8125 -3.9375 3.8125 C-3.9375 2.8225 -3.9375 1.8325 -3.9375 0.8125 C-10.63989363 1.16398176 -15.88768494 1.90858877 -21.9375 4.8125 C-24.875 5.5 -24.875 5.5 -26.9375 5.8125 C-27.2675 7.1325 -27.5975 8.4525 -27.9375 9.8125 C-28.5975 9.8125 -29.2575 9.8125 -29.9375 9.8125 C-29.99808594 10.43898437 -30.05867187 11.06546875 -30.12109375 11.7109375 C-30.20488281 12.52820313 -30.28867188 13.34546875 -30.375 14.1875 C-30.45621094 14.99960938 -30.53742188 15.81171875 -30.62109375 16.6484375 C-30.9375 18.8125 -30.9375 18.8125 -31.9375 20.8125 C-32.1650015 22.68306791 -32.34712811 24.55935958 -32.5 26.4375 C-32.62568359 27.94183594 -32.62568359 27.94183594 -32.75390625 29.4765625 C-32.81449219 30.24742187 -32.87507812 31.01828125 -32.9375 31.8125 C-35.69122593 26.8007188 -35.62204318 22.45446664 -34.21484375 17.0234375 C-32.3651939 11.46699948 -30.6404361 7.40158281 -25.9375 3.8125 C-25.2775 3.8125 -24.6175 3.8125 -23.9375 3.8125 C-23.9375 3.1525 -23.9375 2.4925 -23.9375 1.8125 C-16.42864806 -1.65312397 -7.95717492 -3.04040526 0 0 Z"/>
<path transform="translate(226,253)" fill="#EAFDF0" d="M0 0 C5.94 0 11.88 0 18 0 C18 5.28 18 10.56 18 16 C17.34 16 16.68 16 16 16 C15.67 17.65 15.34 19.3 15 21 C12.68307831 17.52461747 12.97739706 17.06233802 13.0625 13.0625 C13.15068772 9.95738804 13.15068772 9.95738804 12 7 C8.04 7 4.08 7 0 7 C0 4.69 0 2.38 0 0 Z"/>
<path transform="translate(294,242)" fill="#E6F8EB" d="M0 0 C2.55556637 2.14337824 3.86191481 3.49368763 4.75 6.75 C4.87375 8.35875 4.87375 8.35875 5 10 C5.103125 11.2375 5.20625 12.475 5.3125 13.75 C5.17864752 21.52831627 1.45223255 28.07886226 -3.53515625 33.8203125 C-5 35 -5 35 -8 35 C-8 34.34 -8 33.68 -8 33 C-7.34 33 -6.68 33 -6 33 C-6 32.01 -6 31.02 -6 30 C-5.34 30 -4.68 30 -4 30 C-4 29.01 -4 28.02 -4 27 C-5.65 27 -7.3 27 -9 27 C-8.71125 26.48953125 -8.4225 25.9790625 -8.125 25.453125 C-4.77214204 18.8871115 -4.55625405 13.28482932 -5 6 C-3.66666667 6 -2.33333333 6 -1 6 C-0.95101563 6.78246094 -0.90203125 7.56492188 -0.8515625 8.37109375 C-0.77679688 9.38300781 -0.70203125 10.39492187 -0.625 11.4375 C-0.55539062 12.44683594 -0.48578125 13.45617187 -0.4140625 14.49609375 C-0.27742188 15.32238281 -0.14078125 16.14867187 0 17 C0.66 17.33 1.32 17.66 2 18 C2.20852314 11.59370576 2.1583195 6.07027358 0 0 Z"/>
<path transform="translate(320,200)" fill="#298F55" d="M0 0 C3.31529273 0.98562757 4.74949379 1.65447419 6.8125 4.5 C8 7 8 7 8 9 C8.185625 9.5775 8.37125 10.155 8.5625 10.75 C9 13 9 13 8.5 15.875 C7.96555333 19.21529171 8.29569414 21.71323933 9 25 C10.65 24.67 12.3 24.34 14 24 C14 24.99 14 25.98 14 27 C13.67 27 13.34 27 13 27 C12.67 28.65 12.34 30.3 12 32 C13.98 32 15.96 32 18 32 C17.01 34.475 17.01 34.475 16 37 C13.03824877 36.38722388 11.61941217 35.74627478 9 34 C8.2265625 31.6015625 8.2265625 31.6015625 7.625 28.625 C5.96895291 21.35241226 3.42217733 14.40981123 -0.17578125 7.859375 C-1.408357 5.07877758 -0.65672396 2.88958541 0 0 Z M3 4 C2.67 4.99 2.34 5.98 2 7 C2.66 7 3.32 7 4 7 C3.67 6.01 3.34 5.02 3 4 Z"/>
<path transform="translate(168,277)" fill="#57AC5E" d="M0 0 C0.33 0 0.66 0 1 0 C1.09796875 0.96679688 1.1959375 1.93359375 1.296875 2.9296875 C2.65245043 14.73254254 5.36004932 24.54683436 13 34 C13.99 34.66 14.98 35.32 16 36 C16 36.66 16 37.32 16 38 C16.61875 38.28875 17.2375 38.5775 17.875 38.875 C20 40 20 40 22 42 C19 43 19 43 15 43 C15 42.34 15 41.68 15 41 C14.01 41 13.02 41 12 41 C11.01 37.535 11.01 37.535 10 34 C7.525 34.495 7.525 34.495 5 35 C4.67 31.37 4.34 27.74 4 24 C2.68 23.67 1.36 23.34 0 23 C-2.2478185 4.495637 -2.2478185 4.495637 0 0 Z"/>
<path transform="translate(183,228)" fill="#41A450" d="M0 0 C1.65 0 3.3 0 5 0 C4.83734146 0.55596863 4.67468292 1.11193726 4.50709534 1.68475342 C3.95377179 4.21106426 3.87994521 6.45830181 3.88647461 9.04394531 C3.88655014 10.04468079 3.88662567 11.04541626 3.88670349 12.07647705 C3.89186478 13.14952087 3.89702606 14.2225647 3.90234375 15.328125 C3.9037587 16.43226746 3.90517365 17.53640991 3.90663147 18.67401123 C3.91222742 22.19936842 3.92477921 25.72466202 3.9375 29.25 C3.94251552 31.64062408 3.94707834 34.03124916 3.95117188 36.421875 C3.96219553 42.28127168 3.97892967 48.1406313 4 54 C3.01 54 2.02 54 1 54 C0.67 36.18 0.34 18.36 0 0 Z"/>
<path transform="translate(315,232)" fill="#1A8F48" d="M0 0 C0.33 0 0.66 0 1 0 C1.33 17.16 1.66 34.32 2 52 C2.66 52 3.32 52 4 52 C4 52.66 4 53.32 4 54 C5.65 54 7.3 54 9 54 C8.67 54.66 8.34 55.32 8 56 C5.03 56 2.06 56 -1 56 C-1.66 54.35 -2.32 52.7 -3 51 C-2.34 51 -1.68 51 -1 51 C-1.66 50.01 -2.32 49.02 -3 48 C-3.1953125 45.08203125 -3.1953125 45.08203125 -3.125 41.8125 C-3.10695313 40.72582031 -3.08890625 39.63914062 -3.0703125 38.51953125 C-3.04710937 37.68808594 -3.02390625 36.85664063 -3 36 C-2.34 36 -1.68 36 -1 36 C-1.00523682 35.05157227 -1.01047363 34.10314453 -1.01586914 33.12597656 C-1.03293345 29.59992869 -1.0454611 26.07392485 -1.05493164 22.54785156 C-1.05995365 21.02310493 -1.0667725 19.49836309 -1.07543945 17.97363281 C-1.08759849 15.77928481 -1.09324968 13.5850006 -1.09765625 11.390625 C-1.10289307 10.07094727 -1.10812988 8.75126953 -1.11352539 7.39160156 C-1.02311329 4.69051582 -0.81881355 2.5499384 0 0 Z"/>
<path transform="translate(244.405029296875,165.759765625)" fill="#D1FADA" d="M0 0 C1.99466996 -0.009584 3.9891991 -0.04071733 5.98364258 -0.07226562 C14.59361167 -0.10658538 22.30640041 0.90353953 30.5949707 3.24023438 C30.5949707 3.90023437 30.5949707 4.56023437 30.5949707 5.24023438 C29.26176391 5.26800952 27.92837358 5.28696779 26.5949707 5.30273438 C25.8524707 5.31433594 25.1099707 5.3259375 24.3449707 5.33789062 C21.5949707 5.24023438 21.5949707 5.24023438 17.90942383 4.74023438 C13.86270921 4.22355358 9.89657067 4.12611502 5.8137207 4.14257812 C5.11476685 4.14399307 4.41581299 4.14540802 3.69567871 4.14686584 C1.49539641 4.15239768 -0.70477852 4.1649366 -2.9050293 4.17773438 C-4.41023615 4.18275821 -5.91544461 4.18731956 -7.4206543 4.19140625 C-11.08214665 4.20234461 -14.74357747 4.21956078 -18.4050293 4.24023438 C-16.4050293 1.24023438 -16.4050293 1.24023438 -14.68603516 0.56542969 C-9.82372252 -0.12777383 -4.90252753 0.01419137 0 0 Z"/>
<path transform="translate(254,248)" fill="#EEFBF2" d="M0 0 C1.33333333 0 2.66666667 0 4 0 C4.06058594 1.10859375 4.12117188 2.2171875 4.18359375 3.359375 C4.26802951 4.8229282 4.35267599 6.28646925 4.4375 7.75 C4.47681641 8.47960937 4.51613281 9.20921875 4.55664062 9.9609375 C4.78457613 15.07451294 4.78457613 15.07451294 6 20 C6.99 20.33 7.98 20.66 9 21 C9 21.99 9 22.98 9 24 C9.66 24 10.32 24 11 24 C11.33 25.32 11.66 26.64 12 28 C10.35 28 8.7 28 7 28 C6.67 27.01 6.34 26.02 6 25 C5.030625 24.38125 4.06125 23.7625 3.0625 23.125 C-0.3622486 20.74864383 -1.12960013 20.0038394 -2 16 C-2.44107136 10.27566079 -2.25974251 5.36688847 0 0 Z"/>
<path transform="translate(285,237)" fill="#F2FAF2" d="M0 0 C5.53662692 -0.36910846 5.53662692 -0.36910846 7.59375 1.26953125 C13.03632966 7.96692788 12.33958727 16.86248277 12 25 C11.34 24.34 10.68 23.68 10 23 C9.34 24.32 8.68 25.64 8 27 C7.67 23.7 7.34 20.4 7 17 C6.67 17 6.34 17 6 17 C5.87625 16.195625 5.7525 15.39125 5.625 14.5625 C5.41875 13.716875 5.2125 12.87125 5 12 C4.34 11.67 3.68 11.34 3 11 C3 9.02 3 7.04 3 5 C2.01 5 1.02 5 0 5 C0 3.35 0 1.7 0 0 Z"/>
<path transform="translate(155,252)" fill="#47AF49" d="M0 0 C0.33 0 0.66 0 1 0 C1.1953125 1.953125 1.390625 3.90625 1.5859375 5.859375 C2.93459923 12.8317017 8.53307572 19.70586752 13 25 C11.02 25.99 11.02 25.99 9 27 C6.7522025 24.94766315 5.9977758 23.99332739 5 21 C3.68 21 2.36 21 1 21 C-0.34164079 20.7018576 -1.67851173 20.37756808 -3 20 C-2.9278125 19.40832031 -2.855625 18.81664062 -2.78125 18.20703125 C-2.30063788 14.11515307 -1.87861349 10.12714123 -2 6 C-2 3 -2 3 0 0 Z"/>
<path transform="translate(237,242)" fill="#53A564" d="M0 0 C-0.33 0.66 -0.66 1.32 -1 2 C-2.32 2 -3.64 2 -5 2 C-5 1.34 -5 0.68 -5 0 C-5.99 0.495 -5.99 0.495 -7 1 C-8.54023996 1.06950541 -10.08334988 1.08452357 -11.625 1.0625 C-12.85089844 1.04896484 -12.85089844 1.04896484 -14.1015625 1.03515625 C-15.04128906 1.01775391 -15.04128906 1.01775391 -16 1 C-16.33 1.66 -16.66 2.32 -17 3 C-17.99 2.67 -18.98 2.34 -20 2 C-20.33 2.66 -20.66 3.32 -21 4 C-20.67 4.33 -20.34 4.66 -20 5 C-20.7115625 6.11375 -20.7115625 6.11375 -21.4375 7.25 C-23.92343086 12.10460084 -23.7491725 17.65477938 -24 23 C-26 22 -26 22 -26.625 20.375 C-27.53628217 14.60354629 -27.26202046 9.40917935 -25 4 C-17.93545614 -3.91869526 -9.48875887 -4.59133494 0 0 Z"/>
<path transform="translate(216,226)" fill="#3BA24C" d="M0 0 C0.66 0 1.32 0 2 0 C2 0.66 2 1.32 2 2 C2.825 1.835 3.65 1.67 4.5 1.5 C14.22222222 0.11111111 14.22222222 0.11111111 18 2 C18 2.99 18 3.98 18 5 C18.886875 4.938125 19.77375 4.87625 20.6875 4.8125 C24.36472369 5.02064474 26.09962455 5.78206583 29 8 C29 8.66 29 9.32 29 10 C29.66 10 30.32 10 31 10 C31 11.32 31 12.64 31 14 C27.82587019 13.64731891 26.91600322 12.91379278 24.625 10.5625 C20.18145436 6.22475307 16.13913851 5.87860422 10.125 5.75 C5.09622877 5.82524346 0.79603108 6.52429813 -4 8 C-4 8.66 -4 9.32 -4 10 C-4.66 10 -5.32 10 -6 10 C-6.33 9.01 -6.66 8.02 -7 7 C-4.69 5.68 -2.38 4.36 0 3 C0 2.01 0 1.02 0 0 Z"/>
<path transform="translate(288,234)" fill="#D6F5DE" d="M0 0 C0 0.66 0 1.32 0 2 C0.66 2.33 1.32 2.66 2 3 C0.35 3 -1.3 3 -3 3 C-3 4.65 -3 6.3 -3 8 C-2.01 8 -1.02 8 0 8 C-0.33 9.32 -0.66 10.64 -1 12 C-1.598125 11.360625 -2.19625 10.72125 -2.8125 10.0625 C-6.39824636 6.68165343 -9.46084537 6.88667576 -14.1875 6.9375 C-15.27417969 6.94652344 -16.36085938 6.95554688 -17.48046875 6.96484375 C-18.31191406 6.97644531 -19.14335937 6.98804688 -20 7 C-20 6.34 -20 5.68 -20 5 C-16.04 4.34 -12.08 3.68 -8 3 C-8 2.01 -8 1.02 -8 0 C-10.06242617 -0.02717692 -12.12495703 -0.0464758 -14.1875 -0.0625 C-15.33605469 -0.07410156 -16.48460937 -0.08570313 -17.66796875 -0.09765625 C-20.59300586 -0.01192832 -23.16316291 0.32150977 -26 1 C-19.67721972 -6.27119733 -7.72776617 -3.49936581 0 0 Z"/>
<path transform="translate(322,217)" fill="#ABE2BF" d="M0 0 C0.99 0 1.98 0 3 0 C3.67610423 1.89248819 4.34050439 3.7891602 5 5.6875 C5.37125 6.74324219 5.7425 7.79898438 6.125 8.88671875 C6.9391857 11.78362056 7.17709796 14.01700623 7 17 C6.67 16.01 6.34 15.02 6 14 C4.68 14.33 3.36 14.66 2 15 C2.33 13.35 2.66 11.7 3 10 C1.35 10.33 -0.3 10.66 -2 11 C-2 11.66 -2 12.32 -2 13 C-2.66 13 -3.32 13 -4 13 C-4 30.49 -4 47.98 -4 66 C-4.33 66 -4.66 66 -5 66 C-5.07593591 58.3645666 -5.12855169 50.72923023 -5.16479492 43.09350586 C-5.17990063 40.49483603 -5.20038634 37.89619177 -5.22631836 35.29760742 C-5.26262243 31.56683042 -5.27970858 27.83638987 -5.29296875 24.10546875 C-5.30845261 22.93976852 -5.32393646 21.7740683 -5.33988953 20.57304382 C-5.34011612 19.49214981 -5.34034271 18.4112558 -5.34057617 17.29760742 C-5.34723801 16.34496506 -5.35389984 15.39232269 -5.36076355 14.41081238 C-5 12 -5 12 -3.66621399 10.16889954 C-2 9 -2 9 1 9 C0.84402344 8.43410156 0.68804687 7.86820313 0.52734375 7.28515625 C0.23537109 6.18494141 0.23537109 6.18494141 -0.0625 5.0625 C-0.35833984 3.96615234 -0.35833984 3.96615234 -0.66015625 2.84765625 C-0.77230469 2.23792969 -0.88445312 1.62820312 -1 1 C-0.67 0.67 -0.34 0.34 0 0 Z"/>
<path transform="translate(336,239)" fill="#D0F5DE" d="M0 0 C4.42419149 3.50884153 5.77110986 7.66891543 7 13 C7.88483479 20.96351313 5.47787553 28.18133447 0.5 34.5 C-1.68703708 36.68703708 -3.09901425 38.03300475 -6 39 C-6.99 39 -7.98 39 -9 39 C-9 38.34 -9 37.68 -9 37 C-7.02 36.505 -7.02 36.505 -5 36 C-5 35.34 -5 34.68 -5 34 C-2.525 33.505 -2.525 33.505 0 33 C-0.04125 32.21625 -0.0825 31.4325 -0.125 30.625 C0 28 0 28 2 26 C2.38867585 23.34063892 2.64926684 20.79823863 2.8125 18.125 C2.87630859 17.40441406 2.94011719 16.68382812 3.00585938 15.94140625 C3.22176768 12.63892154 3.33956838 10.53001414 1.5234375 7.6953125 C1.02070313 7.13585937 0.51796875 6.57640625 0 6 C-0.1875 2.75 -0.1875 2.75 0 0 Z"/>
<path transform="translate(169,277)" fill="#BFF0C0" d="M0 0 C0.33 0 0.66 0 1 0 C1.24414062 2.97851562 1.24414062 2.97851562 1.48828125 5.95703125 C1.83209406 8.07915385 1.83209406 8.07915385 3.43359375 9.41796875 C5.5605546 11.56614617 5.9415871 13.60191602 6.75 16.5 C8.80534747 23.08353486 12.06168608 28.38015879 16 34 C15.34 34.66 14.68 35.32 14 36 C5.59669958 28.07688818 0.63606901 19.49101647 -0.24609375 7.71484375 C-0.24943052 5.12884609 -0.18603786 2.57869151 0 0 Z"/>
<path transform="translate(183,230)" fill="#75BD79" d="M0 0 C0.33 0 0.66 0 1 0 C1.00586624 0.56740906 1.01173248 1.13481812 1.01777649 1.71942139 C1.08170493 7.62447443 1.16612296 13.5289822 1.26245117 19.43359375 C1.29570788 21.63729667 1.32373746 23.84108491 1.34643555 26.04492188 C1.37996738 29.21260955 1.43228336 32.37951469 1.48828125 35.546875 C1.49467117 36.53242371 1.5010611 37.51797241 1.50764465 38.53338623 C1.52743881 39.4540387 1.54723297 40.37469116 1.56762695 41.32324219 C1.57873001 42.1315448 1.58983307 42.93984741 1.60127258 43.77264404 C2.08943806 46.49961548 3.31600042 47.84291902 5 50 C4.75925978 53.37036311 4.41201979 54.58798021 2 57 C-2.23963281 57.31404687 -5.36534398 57.32617985 -9 55 C-9.33 55.99 -9.66 56.98 -10 58 C-11.4783226 55.04335481 -11.06032783 52.25770263 -11 49 C-10.34 49 -9.68 49 -9 49 C-8.67 50.65 -8.34 52.3 -8 54 C-6.02 54 -4.04 54 -2 54 C-0.75660024 51.51320048 -0.84172513 49.78202912 -0.79467773 46.99951172 C-0.77473251 45.95858368 -0.75478729 44.91765564 -0.73423767 43.84518433 C-0.70916893 42.1545134 -0.70916893 42.1545134 -0.68359375 40.4296875 C-0.66281265 39.27832306 -0.64203156 38.12695862 -0.62062073 36.94070435 C-0.55508335 33.2521986 -0.49622072 29.56361997 -0.4375 25.875 C-0.39431877 23.37889862 -0.35070462 20.8828047 -0.30664062 18.38671875 C-0.19939769 12.25789019 -0.09763911 6.12898867 0 0 Z"/>
<path transform="translate(312,229)" fill="#319A59" d="M0 0 C2.475 0.495 2.475 0.495 5 1 C5.33 18.82 5.66 36.64 6 55 C5.01 55.495 5.01 55.495 4 56 C3.67 39.83 3.34 23.66 3 7 C2.67 16.24 2.34 25.48 2 35 C-0.39629455 31.40555817 -0.25781331 28.85138348 -0.1953125 24.70703125 C-0.1924826 24.00100266 -0.18965271 23.29497406 -0.18673706 22.56755066 C-0.17555464 20.31569367 -0.1504542 18.06423648 -0.125 15.8125 C-0.11496767 14.28451096 -0.10584226 12.75651567 -0.09765625 11.22851562 C-0.07562172 7.48552337 -0.04110567 3.74282944 0 0 Z"/>
<path transform="translate(273.8125,232.875)" fill="#EEFCF1" d="M0 0 C1.74216797 0.02707031 1.74216797 0.02707031 3.51953125 0.0546875 C4.39996094 0.07789063 5.28039062 0.10109375 6.1875 0.125 C6.5175 0.785 6.8475 1.445 7.1875 2.125 C5.42885754 4.3043144 4.49354 5.06186419 1.70703125 5.63671875 C0.81371094 5.69472656 -0.07960938 5.75273437 -1 5.8125 C-2.35158203 5.91111328 -2.35158203 5.91111328 -3.73046875 6.01171875 C-4.76107422 6.06779297 -4.76107422 6.06779297 -5.8125 6.125 C-5.8125 6.785 -5.8125 7.445 -5.8125 8.125 C-10.2675 9.61 -10.2675 9.61 -14.8125 11.125 C-15.1425 10.135 -15.4725 9.145 -15.8125 8.125 C-14.8225 8.125 -13.8325 8.125 -12.8125 8.125 C-12.8125 7.465 -12.8125 6.805 -12.8125 6.125 C-12.1525 6.125 -11.4925 6.125 -10.8125 6.125 C-11.1425 4.805 -11.4725 3.485 -11.8125 2.125 C-7.73526266 0.17468308 -4.49557578 -0.09081971 0 0 Z"/>
<path transform="translate(211,267)" fill="#F1FDF5" d="M0 0 C0.33 0.66 0.66 1.32 1 2 C1.99 2 2.98 2 4 2 C4 2.99 4 3.98 4 5 C9.61 5.33 15.22 5.66 21 6 C21 7.32 21 8.64 21 10 C6.90322581 12.4516129 6.90322581 12.4516129 2 10 C2 9.01 2 8.02 2 7 C1.34 7 0.68 7 0 7 C-0.38133299 5.0085944 -0.71325582 3.00720923 -1 1 C-0.67 0.67 -0.34 0.34 0 0 Z"/>
<path transform="translate(237,317)" fill="#D0F6D9" d="M0 0 C2.9375 2.0625 2.9375 2.0625 5 5 C5.69151325 9.30274909 5.51557405 11.20945312 3.125 14.875 C0.5982046 17.4017954 -0.33963409 17.91386532 -3.875 18.375 C-7 18 -7 18 -9.3125 15.6875 C-11 13 -11 13 -12 10 C-9.83125748 10.50603992 -8.00032373 10.99983813 -6 12 C-5.375 14.0625 -5.375 14.0625 -5 16 C-4.67 15.34 -4.34 14.68 -4 14 C-0.9375 13.375 -0.9375 13.375 2 13 C2.33 10.03 2.66 7.06 3 4 C1.22950311 3.94589313 -0.54146849 3.90715881 -2.3125 3.875 C-3.29863281 3.85179687 -4.28476563 3.82859375 -5.30078125 3.8046875 C-8.22406527 3.79317361 -8.22406527 3.79317361 -11 6 C-8.76612419 -0.22293975 -6.63112909 -0.67435211 0 0 Z"/>
<path transform="translate(246.875,168.875)" fill="#61A372" d="M0 0 C0.95519531 -0.00386719 1.91039062 -0.00773438 2.89453125 -0.01171875 C8.39834794 -0.00416893 13.68062861 0.31413618 19.125 1.125 C19.125 1.455 19.125 1.785 19.125 2.125 C18.17657227 2.14481934 17.22814453 2.16463867 16.25097656 2.18505859 C12.72467636 2.26325761 9.19879639 2.34995366 5.67285156 2.44238281 C4.14819342 2.48061266 2.62344693 2.515476 1.09863281 2.546875 C-1.09602381 2.59265662 -3.2900754 2.65062766 -5.484375 2.7109375 C-6.50334869 2.72826431 -6.50334869 2.72826431 -7.54290771 2.74594116 C-11.17545231 2.85865482 -13.74898559 3.26225635 -16.875 5.125 C-18.73489062 5.60462795 -20.612564 6.01888 -22.5 6.375 C-23.94246094 6.66117188 -23.94246094 6.66117188 -25.4140625 6.953125 C-26.63222656 7.03820312 -26.63222656 7.03820312 -27.875 7.125 C-28.535 6.465 -29.195 5.805 -29.875 5.125 C-27.83490245 4.47422704 -25.79284331 3.82960176 -23.75 3.1875 C-22.04457031 2.64802734 -22.04457031 2.64802734 -20.3046875 2.09765625 C-13.46215008 0.15711887 -7.06521798 -0.02837437 0 0 Z"/>
<path transform="translate(325,227)" fill="#E5FDF0" d="M0 0 C0 0.66 0 1.32 0 2 C-1.32 2 -2.64 2 -4 2 C-4.79383686 8.74752889 -5.13808087 15.37280582 -5.09765625 22.1640625 C-5.0962413 23.08214691 -5.09482635 24.00023132 -5.09336853 24.94613647 C-5.0878322 27.83912608 -5.07529219 30.73203433 -5.0625 33.625 C-5.05747675 35.60286345 -5.0529153 37.58072814 -5.04882812 39.55859375 C-5.03788373 44.37242653 -5.02066418 49.18619954 -5 54 C-3.68 54 -2.36 54 -1 54 C-0.34 54 0.32 54 1 54 C0.67 55.32 0.34 56.64 0 58 C-1.99954746 58.04254356 -4.00041636 58.04080783 -6 58 C-7 57 -7 57 -7.12025452 54.82969666 C-7.11803391 53.87261307 -7.11581329 52.91552948 -7.11352539 51.92944336 C-7.11344986 50.84839828 -7.11337433 49.76735321 -7.11329651 48.65354919 C-7.10813522 47.4775264 -7.10297394 46.3015036 -7.09765625 45.08984375 C-7.0962413 43.89267227 -7.09482635 42.69550079 -7.09336853 41.46205139 C-7.08774979 37.62050934 -7.07519411 33.77902457 -7.0625 29.9375 C-7.05748741 27.34049563 -7.05292409 24.74349035 -7.04882812 22.14648438 C-7.03777427 15.76430321 -7.02101792 9.3821557 -7 3 C-6.34 3 -5.68 3 -5 3 C-5 2.34 -5 1.68 -5 1 C-2 0 -2 0 0 0 Z"/>
<path transform="translate(180,200)" fill="#59A95F" d="M0 0 C0.66 0 1.32 0 2 0 C0.57555848 4.46415882 -1.12231581 8.74393202 -2.9375 13.0625 C-5.4563975 19.13914088 -7.09994967 25.08951448 -8.26171875 31.5859375 C-8.50535156 32.38257813 -8.74898437 33.17921875 -9 34 C-10.485 34.495 -10.485 34.495 -12 35 C-12 32.69 -12 30.38 -12 28 C-10.68 27.34 -9.36 26.68 -8 26 C-8.226875 24.80375 -8.45375 23.6075 -8.6875 22.375 C-9.24221626 18.0664504 -8.1830092 15.77828515 -6 12 C-5.835 11.0925 -5.67 10.185 -5.5 9.25 C-5 7 -5 7 -2 5 C-0.79549696 2.44816596 -0.79549696 2.44816596 0 0 Z"/>
<path transform="translate(230,313)" fill="#3FA556" d="M0 0 C1.32 0.33 2.64 0.66 4 1 C3.67 1.66 3.34 2.32 3 3 C3.99 2.67 4.98 2.34 6 2 C7.39439664 1.93334624 8.79169875 1.91461801 10.1875 1.9375 C12.0746875 1.9684375 12.0746875 1.9684375 14 2 C15 5 15 5 14.5 6.9375 C13.90908822 9.37501109 14.25896747 10.6286959 15 13 C15.33333333 14.33333333 15.66666667 15.66666667 16 17 C15.34 17 14.68 17 14 17 C13.67 18.65 13.34 20.3 13 22 C11.35 21.67 9.7 21.34 8 21 C8.495 20.319375 8.99 19.63875 9.5 18.9375 C11.36135897 15.29233869 11.51493817 13.0459428 11 9 C8.81907617 5.81249593 7.52571704 5.12131932 3.75 4.25 C2.8425 4.1675 1.935 4.085 1 4 C0.67 2.68 0.34 1.36 0 0 Z"/>
<path transform="translate(320,200)" fill="#209051" d="M0 0 C3.31529273 0.98562757 4.74949379 1.65447419 6.8125 4.5 C8 7 8 7 8 9 C8.20625 9.5775 8.4125 10.155 8.625 10.75 C9.14805381 13.88832286 8.12870925 16.07863489 7 19 C-1.12807882 8.43349754 -1.12807882 8.43349754 -0.8125 2.4375 C-0.544375 1.633125 -0.27625 0.82875 0 0 Z M3 4 C2.67 4.99 2.34 5.98 2 7 C2.66 7 3.32 7 4 7 C3.67 6.01 3.34 5.02 3 4 Z"/>
<path transform="translate(245,252)" fill="#5EAE6E" d="M0 0 C0.33 0 0.66 0 1 0 C1 8.25 1 16.5 1 25 C-8 29.5 -8 29.5 -13 31 C-13 30.34 -13 29.68 -13 29 C-16.3 29 -19.6 29 -23 29 C-23 28.67 -23 28.34 -23 28 C-22.2265625 27.98582031 -21.453125 27.97164063 -20.65625 27.95703125 C-14.25186168 27.66376099 -9.8235785 27.0049699 -4.62109375 23.15625 C-3 22 -3 22 0 21 C0 14.07 0 7.14 0 0 Z"/>
<path transform="translate(237,243)" fill="#3CA357" d="M0 0 C0.99 0.33 1.98 0.66 3 1 C3 2.32 3 3.64 3 5 C5.475 5.495 5.475 5.495 8 6 C8 6.99 8 7.98 8 9 C1.4 9 -5.2 9 -12 9 C-11.01 8.67 -10.02 8.34 -9 8 C-9 7.34 -9 6.68 -9 6 C-10.32 5.67 -11.64 5.34 -13 5 C-10.69 5 -8.38 5 -6 5 C-5.67 4.34 -5.34 3.68 -5 3 C-4.34 3 -3.68 3 -3 3 C-2.67 4.32 -2.34 5.64 -2 7 C-0.68 7 0.64 7 2 7 C2 6.01 2 5.02 2 4 C1.01 4 0.02 4 -1 4 C-0.67 2.68 -0.34 1.36 0 0 Z"/>
<path transform="translate(203,321)" fill="#CCF9D8" d="M0 0 C1.73636719 0.2165625 1.73636719 0.2165625 3.5078125 0.4375 C5.04685211 0.62518776 6.58591591 0.81267727 8.125 1 C8.88554687 1.09539062 9.64609375 1.19078125 10.4296875 1.2890625 C14.64909952 1.79830188 18.74004344 2.10888068 23 2 C22.67 3.32 22.34 4.64 22 6 C14.64657821 6.20177072 8.05112439 6.21211746 1 4 C0.67 2.68 0.34 1.36 0 0 Z"/>
<path transform="translate(251,246)" fill="#439E5D" d="M0 0 C1.27533035 2.5506607 0.72431563 3.30204581 0 6 C-0.75313466 13.14860601 0.2187663 18.84024832 4 25 C6.43727882 27.85554017 6.43727882 27.85554017 9 30 C10 31 11 32 12 33 C8.98968256 33.93423645 8.13349732 34.04449911 5 33 C4.33333333 30.66666667 3.66666667 28.33333333 3 26 C2.01 25.67 1.02 25.34 0 25 C-3.18459603 19.24675861 -3.84916131 12.43402989 -3 6 C-1.5 2.375 -1.5 2.375 0 0 Z"/>
<path transform="translate(242,255)" fill="#F1FCF6" d="M0 0 C1.97094808 4.92737019 2.1799928 8.78020872 2 14 C1.34 14 0.68 14 0 14 C-0.33 15.65 -0.66 17.3 -1 19 C-3.30719514 15.53920729 -3.07614822 15.14222327 -2.8125 11.1875 C-3.02415961 7.58928671 -4.03097664 5.95353504 -6 3 C-6 2.34 -6 1.68 -6 1 C-3 0 -3 0 0 0 Z"/>
<path transform="translate(303,184)" fill="#239253" d="M0 0 C2.97 0.495 2.97 0.495 6 1 C6 1.66 6 2.32 6 3 C6.66 3.33 7.32 3.66 8 4 C9.3565164 5.30973998 10.68557638 6.64802142 12 8 C12.9075 8.9075 13.815 9.815 14.75 10.75 C15.4925 11.4925 16.235 12.235 17 13 C16.34 14.32 15.68 15.64 15 17 C14.34 17 13.68 17 13 17 C9 11.58823529 9 11.58823529 9 9 C8.01 8.67 7.02 8.34 6 8 C4.39453125 6.15234375 4.39453125 6.15234375 2.8125 3.9375 C2.28269531 3.20402344 1.75289063 2.47054687 1.20703125 1.71484375 C0.80871094 1.14894531 0.41039062 0.58304688 0 0 Z"/>
<path transform="translate(203,264)" fill="#D4F1D5" d="M0 0 C0.66 0 1.32 0 2 0 C2.33 1.65 2.66 3.3 3 5 C3.66 3.68 4.32 2.36 5 1 C5 1.66 5 2.32 5 3 C5.99 3.33 6.98 3.66 8 4 C8 5.98 8 7.96 8 10 C8.66 10 9.32 10 10 10 C10 10.99 10 11.98 10 13 C6.45154956 12.01431932 5.08879572 11.11099465 2.75 8.1875 C1.1691263 5.30805148 0.37988488 3.22902148 0 0 Z M8 0 C9.485 0.99 9.485 0.99 11 2 C11 2.66 11 3.32 11 4 C11.66 4 12.32 4 13 4 C13 4.66 13 5.32 13 6 C15.97 6.495 15.97 6.495 19 7 C19 7.33 19 7.66 19 8 C16.69 8 14.38 8 12 8 C12 7.01 12 6.02 12 5 C11.01 5 10.02 5 9 5 C8.67 3.35 8.34 1.7 8 0 Z"/>
<path transform="translate(163,240)" fill="#D2F6D6" d="M0 0 C0.33 0 0.66 0 1 0 C0.88590407 1.45922693 0.75834456 2.91740598 0.625 4.375 C0.55539063 5.18710938 0.48578125 5.99921875 0.4140625 6.8359375 C0 9 0 9 -2 11 C-2.28273257 13.9237186 -2.28273257 13.9237186 -2.1875 17.25 C-2.18105469 18.36890625 -2.17460937 19.4878125 -2.16796875 20.640625 C-2.00819818 23.83603635 -1.59481353 26.85938455 -1 30 C-6.04439489 23.42035449 -6.04860258 16.08804266 -5 8 C-3.70578201 4.60793407 -2.38763911 2.79528481 0 0 Z"/>
<path transform="translate(225,252)" fill="#CAF8D5" d="M0 0 C6.6 0 13.2 0 20 0 C20.18930307 3.39844079 20.32778527 6.78634326 20.4375 10.1875 C20.49615234 11.14720703 20.55480469 12.10691406 20.61523438 13.09570312 C20.78428415 20.07504386 20.78428415 20.07504386 18.48095703 22.79150391 C14.1158179 26 14.1158179 26 11 26 C11 25.34 11 24.68 11 24 C11.99 24 12.98 24 14 24 C14.33 23.01 14.66 22.02 15 21 C15.65129797 19.65909241 16.31513275 18.32407669 17 17 C17.66 17 18.32 17 19 17 C19 11.72 19 6.44 19 1 C13.06 1 7.12 1 1 1 C1 3.31 1 5.62 1 8 C0.67 8 0.34 8 0 8 C0 5.36 0 2.72 0 0 Z"/>
<path transform="translate(174,228)" fill="#EDFDEA" d="M0 0 C2.64 0.33 5.28 0.66 8 1 C8 17.83 8 34.66 8 52 C7.67 52 7.34 52 7 52 C6.67 36.16 6.34 20.32 6 4 C5.01 4 4.02 4 3 4 C2.67 3.34 2.34 2.68 2 2 C1.34 2 0.68 2 0 2 C0 1.34 0 0.68 0 0 Z"/>
<path transform="translate(190,319)" fill="#4EA859" d="M0 0 C0.66 0.27714844 1.32 0.55429687 2 0.83984375 C12.81349809 5.02162621 23.37861492 7.77767785 35 8 C35 8.33 35 8.66 35 9 C31.70840684 9.05790353 28.41694397 9.09356261 25.125 9.125 C23.71927734 9.15013672 23.71927734 9.15013672 22.28515625 9.17578125 C21.38925781 9.18222656 20.49335938 9.18867188 19.5703125 9.1953125 C18.74289551 9.20578613 17.91547852 9.21625977 17.06298828 9.22705078 C15 9 15 9 13 7 C11.35008418 6.29289322 9.68437744 5.62056011 8 5 C8 5.66 8 6.32 8 7 C6.02 6.34 4.04 5.68 2 5 C2 4.01 2 3.02 2 2 C1.34 2 0.68 2 0 2 C0 1.34 0 0.68 0 0 Z"/>
<path transform="translate(281,175)" fill="#349451" d="M0 0 C9.12404359 3.17845781 16.63800848 7.6439473 23 15 C23 15.99 23 16.98 23 18 C22.34 18 21.68 18 21 18 C20.21625 17.01 19.4325 16.02 18.625 15 C17.75875 14.01 16.8925 13.02 16 12 C14.68 12 13.36 12 12 12 C9 7.92857143 9 7.92857143 9 5 C6.69 5 4.38 5 2 5 C1.67 4.01 1.34 3.02 1 2 C0.34 1.67 -0.32 1.34 -1 1 C-0.67 0.67 -0.34 0.34 0 0 Z"/>
<path transform="translate(175,221)" fill="#CAF4D5" d="M0 0 C0.33 0 0.66 0 1 0 C1 1.98 1 3.96 1 6 C2.65 6 4.3 6 6 6 C6.33 6.66 6.66 7.32 7 8 C4.36 7.67 1.72 7.34 -1 7 C-0.67 9.64 -0.34 12.28 0 15 C-0.99 15 -1.98 15 -3 15 C-5.10820797 15.3185177 -5.10820797 15.3185177 -7 16 C-7.33 16.66 -7.66 17.32 -8 18 C-8.66 17.34 -9.32 16.68 -10 16 C-9.21625 15.649375 -8.4325 15.29875 -7.625 14.9375 C-4.11841009 12.34930269 -3.93714339 10.1811013 -3 6 C-1.24137931 1.24137931 -1.24137931 1.24137931 0 0 Z"/>
<path transform="translate(212,234)" fill="#C0ECC6" d="M0 0 C0.66 0.33 1.32 0.66 2 1 C0.625 2.5 0.625 2.5 -1 4 C-1.66 4 -2.32 4 -3 4 C-3.33 5.32 -3.66 6.64 -4 8 C-4.66 8 -5.32 8 -6 8 C-6.06058594 8.62648437 -6.12117187 9.25296875 -6.18359375 9.8984375 C-6.26738281 10.71570313 -6.35117188 11.53296875 -6.4375 12.375 C-6.51871094 13.18710938 -6.59992188 13.99921875 -6.68359375 14.8359375 C-7 17 -7 17 -8 19 C-8.2275015 20.87056791 -8.40962811 22.74685958 -8.5625 24.625 C-8.68818359 26.12933594 -8.68818359 26.12933594 -8.81640625 27.6640625 C-8.87699219 28.43492187 -8.93757812 29.20578125 -9 30 C-11.75372593 24.9882188 -11.68454318 20.64196664 -10.27734375 15.2109375 C-8.4276939 9.65449948 -6.7029361 5.58908281 -2 2 C-1.34 2 -0.68 2 0 2 C0 1.34 0 0.68 0 0 Z"/>
<path transform="translate(224,229)" fill="#449B5B" d="M0 0 C7.86049172 -0.42875409 14.03808566 1.39360293 21 5 C21 5.66 21 6.32 21 7 C21.66 7 22.32 7 23 7 C23 8.32 23 9.64 23 11 C19.82587019 10.64731891 18.91600322 9.91379278 16.625 7.5625 C11.87700012 2.92754774 6.33073217 2.65490333 0 2 C0 1.34 0 0.68 0 0 Z"/>
<path transform="translate(285,264)" fill="#4C995F" d="M0 0 C0.99 0 1.98 0 3 0 C1.83988092 3.24833344 0.0551539 5.39818578 -2.88671875 7.23046875 C-7.64149036 8.96187357 -13.08766315 9.02181684 -18 8 C-20.3984375 5.46484375 -20.3984375 5.46484375 -22 3 C-20.35 2.67 -18.7 2.34 -17 2 C-16.67 2.99 -16.34 3.98 -16 5 C-15.01 5 -14.02 5 -13 5 C-13 5.66 -13 6.32 -13 7 C-11.02 7 -9.04 7 -7 7 C-7 6.34 -7 5.68 -7 5 C-4.69 4.34 -2.38 3.68 0 3 C0 2.01 0 1.02 0 0 Z"/>
<path transform="translate(280,230)" fill="#289B58" d="M0 0 C2.10544013 0.28232721 4.20933589 0.5761898 6.3125 0.875 C7.48425781 1.03742188 8.65601563 1.19984375 9.86328125 1.3671875 C13 2 13 2 16 4 C15.67 6.64 15.34 9.28 15 12 C14.773125 11.38125 14.54625 10.7625 14.3125 10.125 C12.62070165 7.38589791 11.00755839 6.94975528 8 6 C8 5.34 8 4.68 8 4 C5.36 3.34 2.72 2.68 0 2 C0 1.34 0 0.68 0 0 Z"/>
<path transform="translate(239,234)" fill="#CBF3D6" d="M0 0 C-1.98 0.99 -1.98 0.99 -4 2 C-4 1.34 -4 0.68 -4 0 C-12.00945568 -0.30372936 -18.69065285 -0.50848663 -26 3 C-25.64453125 1.078125 -25.64453125 1.078125 -25 -1 C-17.43794353 -5.08759809 -7.31662398 -3.99088581 0 0 Z M-28 3 C-26 4 -26 4 -26 4 Z"/>
<path transform="translate(229,262)" fill="#369C48" d="M0 0 C2.31 0 4.62 0 7 0 C7 2.64 7 5.28 7 8 C2.35601989 9.54799337 -2.32517708 9.49594333 -7 8 C-7 7.34 -7 6.68 -7 6 C-5.63875 6.0309375 -5.63875 6.0309375 -4.25 6.0625 C-1.57327412 6.0110245 0.46988052 5.7784983 3 5 C3 4.34 3 3.68 3 3 C3.99 2.67 4.98 2.34 6 2 C4.02 2 2.04 2 0 2 C0 1.34 0 0.68 0 0 Z"/>
<path transform="translate(316,201)" fill="#B7F1CC" d="M0 0 C4.13767263 4.43322068 5.95528874 9.39879629 8 15 C7.01 15.66 6.02 16.32 5 17 C2.36 11.72 -0.28 6.44 -3 1 C-2.01 0.67 -1.02 0.34 0 0 Z"/>
<path transform="translate(187,185)" fill="#41AF52" d="M0 0 C1.24546405 2.49092811 0.7767578 3.41080733 0 6 C-0.66 6 -1.32 6 -2 6 C-1.6596875 6.8353125 -1.6596875 6.8353125 -1.3125 7.6875 C-0.86694242 10.98462608 -2.03484121 12.40318302 -4 15 C-4.99 15.33 -5.98 15.66 -7 16 C-8.21869929 18.50447516 -8.21869929 18.50447516 -9 21 C-9.33 21 -9.66 21 -10 21 C-9.67 17.7 -9.34 14.4 -9 11 C-7.68 10.67 -6.36 10.34 -5 10 C-3.93960012 8.21693588 -3.93960012 8.21693588 -3.375 6.0625 C-2.50648174 3.24747904 -2.13620863 2.13620863 0 0 Z"/>
<path transform="translate(156,264)" fill="#5BB15C" d="M0 0 C4.49158336 2.24579168 5.39272684 3.8446584 8 8 C9.31543279 9.68083079 10.64316249 11.3524116 12 13 C10.02 13.99 10.02 13.99 8 15 C5.7522025 12.94766315 4.9977758 11.99332739 4 9 C3.34 9 2.68 9 2 9 C1.34 6.03 0.68 3.06 0 0 Z"/>
<path transform="translate(299,243)" fill="#219B49" d="M0 0 C1.32 0.99 2.64 1.98 4 3 C3.125 7.75 3.125 7.75 2 10 C2.66 10 3.32 10 4 10 C3.6875 13.375 3.6875 13.375 3 17 C2.01 17.66 1.02 18.32 0 19 C0 12.73 0 6.46 0 0 Z"/>
<path transform="translate(319,368)" fill="#169849" d="M0 0 C6.0018137 -0.21824777 11.19233704 0.4943096 17 2 C16.67 2.66 16.34 3.32 16 4 C10.39 4 4.78 4 -1 4 C-0.67 2.68 -0.34 1.36 0 0 Z"/>
<path transform="translate(293,248)" fill="#EBFDF0" d="M0 0 C1.32 0.33 2.64 0.66 4 1 C4 5.29 4 9.58 4 14 C3.34 13.34 2.68 12.68 2 12 C1.34 13.32 0.68 14.64 0 16 C0 10.72 0 5.44 0 0 Z"/>
<path transform="translate(250,252)" fill="#BCECCA" d="M0 0 C0.33 0 0.66 0 1 0 C1.18175781 1.21236328 1.18175781 1.21236328 1.3671875 2.44921875 C1.53476563 3.51785156 1.70234375 4.58648437 1.875 5.6875 C2.03742188 6.74324219 2.19984375 7.79898437 2.3671875 8.88671875 C3.3594954 13.76862862 3.91946867 16.2652387 8.125 19.125 C9.07375 19.74375 10.0225 20.3625 11 21 C11 21.99 11 22.98 11 24 C11.99 24 12.98 24 14 24 C14.33 24.99 14.66 25.98 15 27 C9.17001773 25.16771986 5.23894896 21.08977694 2 16 C-0.39390819 10.70820295 -0.20229684 5.68678894 0 0 Z"/>
<path transform="translate(205,255)" fill="#F6FCF4" d="M0 0 C3.26739717 1.63369858 3.71704704 4.70894675 5 8 C5.37308631 9.32276056 5.73046415 10.65232077 6 12 C5.01 12.33 4.02 12.66 3 13 C2.01 13.495 2.01 13.495 1 14 C-1.25068913 9.49862174 -1.24661958 5.93239162 -1 1 C-0.67 0.67 -0.34 0.34 0 0 Z"/>
<path transform="translate(337,236)" fill="#209550" d="M0 0 C2.97 0.495 2.97 0.495 6 1 C6.79560764 3.91499943 7.25322499 6.74561419 7.5625 9.75 C7.64628906 10.54921875 7.73007812 11.3484375 7.81640625 12.171875 C7.87699219 12.77515625 7.93757813 13.3784375 8 14 C3.16709462 9.950809 1.6166348 6.03280791 0 0 Z"/>
<path transform="translate(260,235)" fill="#CCF0D8" d="M0 0 C0.66 0 1.32 0 2 0 C2.33 1.32 2.66 2.64 3 4 C2.34 4 1.68 4 1 4 C1 4.66 1 5.32 1 6 C0.01 6 -0.98 6 -2 6 C-2 6.66 -2 7.32 -2 8 C-2.99 8.33 -3.98 8.66 -5 9 C-6.01754868 10.8653245 -6.01754868 10.8653245 -6.6875 13.0625 C-6.93886719 13.79597656 -7.19023437 14.52945313 -7.44921875 15.28515625 C-7.63097656 15.85105469 -7.81273437 16.41695312 -8 17 C-9.44886775 12.53592099 -8.07738263 10.15476525 -6 6 C-4.5 3.5625 -4.5 3.5625 -3 2 C-2.01 2 -1.02 2 0 2 C0 1.34 0 0.68 0 0 Z"/>
<path transform="translate(297,264)" fill="#34985D" d="M0 0 C0.66 0 1.32 0 2 0 C2.8125 2.625 2.8125 2.625 3 6 C0.875 9.375 0.875 9.375 -2 12 C-4.6796875 12.1640625 -4.6796875 12.1640625 -7 12 C-6.57847656 11.30132812 -6.15695312 10.60265625 -5.72265625 9.8828125 C-5.17480469 8.97273438 -4.62695312 8.06265625 -4.0625 7.125 C-3.51722656 6.22007812 -2.97195313 5.31515625 -2.41015625 4.3828125 C-1.56101983 2.94798364 -0.74562276 1.49124552 0 0 Z"/>
<path transform="translate(204,236)" fill="#48A755" d="M0 0 C1.32 0.33 2.64 0.66 4 1 C3.70996094 1.54527344 3.41992188 2.09054688 3.12109375 2.65234375 C1.45739865 6.13624881 0.32325228 9.78446587 -0.90234375 13.44140625 C-1.97591077 15.94384894 -2.94407416 17.26037044 -5 19 C-4.67 16.36 -4.34 13.72 -4 11 C-3.34 11 -2.68 11 -2 11 C-2.350625 10.38125 -2.70125 9.7625 -3.0625 9.125 C-3.371875 8.42375 -3.68125 7.7225 -4 7 C-3.67 6.34 -3.34 5.68 -3 5 C-2.34 5 -1.68 5 -1 5 C-0.67 3.35 -0.34 1.7 0 0 Z"/>
<path transform="translate(318,212)" fill="#2F9359" d="M0 0 C2.57075841 3.01447835 3.52207066 5.35979771 4.1875 9.25 C4.34605469 10.14203125 4.50460937 11.0340625 4.66796875 11.953125 C4.83232422 12.96632812 4.83232422 12.96632812 5 14 C3.02 14.99 1.04 15.98 -1 17 C-1.33 15.68 -1.66 14.36 -2 13 C-1.01 12.67 -0.02 12.34 1 12 C0.855625 10.72125 0.71125 9.4425 0.5625 8.125 C0.48128906 7.40570313 0.40007812 6.68640625 0.31640625 5.9453125 C0.08707039 3.92595684 0.08707039 3.92595684 -1 2 C-0.67 1.34 -0.34 0.68 0 0 Z"/>
<path transform="translate(169,277)" fill="#CBF6CA" d="M0 0 C0.33 0 0.66 0 1 0 C1.24414062 2.97851562 1.24414062 2.97851562 1.48828125 5.95703125 C1.83421065 8.09382713 1.83421065 8.09382713 3.5 9.46875 C5.487826 11.49798904 5.48502876 12.89339683 5.6875 15.6875 C5.75324219 16.49574219 5.81898438 17.30398438 5.88671875 18.13671875 C5.92410156 18.75160156 5.96148437 19.36648438 6 20 C5.01 20 4.02 20 3 20 C0.18447274 13.21256822 -0.3689719 7.31110994 0 0 Z"/>
<path transform="translate(206,272)" fill="#49A258" d="M0 0 C0.680625 0.598125 1.36125 1.19625 2.0625 1.8125 C6.88816633 5.40608131 12.30544274 7.19440867 18 9 C18 9.33 18 9.66 18 10 C11.99147774 10.20719042 7.47421415 9.73710708 2 7 C2 6.34 2 5.68 2 5 C1.01 4.67 0.02 4.34 -1 4 C-0.67 2.68 -0.34 1.36 0 0 Z"/>
<path transform="translate(246,250)" fill="#2B8C44" d="M0 0 C0.66 0 1.32 0 2 0 C3.00109515 3.31070838 3.10356134 6.30084769 3.0625 9.75 C3.05347656 10.73484375 3.04445312 11.7196875 3.03515625 12.734375 C3.02355469 13.48203125 3.01195312 14.2296875 3 15 C2.34 15 1.68 15 1 15 C1 17.64 1 20.28 1 23 C0.67 23 0.34 23 0 23 C0 15.41 0 7.82 0 0 Z"/>
<path transform="translate(232,171)" fill="#369A4E" d="M0 0 C8.25 0 16.5 0 25 0 C24.67 0.99 24.34 1.98 24 3 C7.1070615 2.03644647 7.1070615 2.03644647 0 1 C0 0.67 0 0.34 0 0 Z"/>
<path transform="translate(166,230)" fill="#51AF55" d="M0 0 C0.66 0 1.32 0 2 0 C2 1.98 2 3.96 2 6 C1.01 6.33 0.02 6.66 -1 7 C-1 7.66 -1 8.32 -1 9 C-2.65 9 -4.3 9 -6 9 C-6 7.02 -6 5.04 -6 3 C-4.34385343 2.61781233 -2.67542976 2.28604898 -1 2 C-0.67 2.33 -0.34 2.66 0 3 C0 2.01 0 1.02 0 0 Z"/>
<path transform="translate(236,170)" fill="#50A55E" d="M0 0 C-2.30005056 3.45007584 -3.48900678 3.62898171 -7.41015625 4.42773438 C-8.09980469 4.55470703 -8.78945312 4.68167969 -9.5 4.8125 C-10.18964844 4.95880859 -10.87929687 5.10511719 -11.58984375 5.25585938 C-13.59375 5.64453125 -13.59375 5.64453125 -17 6 C-17.66 5.34 -18.32 4.68 -19 4 C-16.96185767 3.32263519 -14.91929445 2.65856466 -12.875 2 C-11.73804688 1.62875 -10.60109375 1.2575 -9.4296875 0.875 C-6.12104059 0.03088051 -3.39471984 -0.16509276 0 0 Z"/>
<path transform="translate(318,262)" fill="#D9FBE9" d="M0 0 C0.33 0 0.66 0 1 0 C1.33 6.27 1.66 12.54 2 19 C3.32 19 4.64 19 6 19 C6.66 19 7.32 19 8 19 C7.67 20.32 7.34 21.64 7 23 C5.00045254 23.04254356 2.99958364 23.04080783 1 23 C0 22 0 22 -0.11352539 19.86694336 C-0.10828857 18.95050049 -0.10305176 18.03405762 -0.09765625 17.08984375 C-0.09443359 16.10048828 -0.09121094 15.11113281 -0.08789062 14.09179688 C-0.07951172 13.05087891 -0.07113281 12.00996094 -0.0625 10.9375 C-0.05798828 9.89271484 -0.05347656 8.84792969 -0.04882812 7.77148438 C-0.03699913 5.1809334 -0.02051689 2.59049441 0 0 Z"/>
<path transform="translate(224,252)" fill="#5FA96C" d="M0 0 C0.33 0 0.66 0 1 0 C1 2.64 1 5.28 1 8 C4.96 8 8.92 8 13 8 C13 10.97 13 13.94 13 17 C12.67 17 12.34 17 12 17 C12 14.69 12 12.38 12 10 C7.35413108 10.48484276 7.35413108 10.48484276 3 12 C3 11.34 3 10.68 3 10 C2.01 10 1.02 10 0 10 C0 6.7 0 3.4 0 0 Z"/>
<path transform="translate(213,245)" fill="#64AB6F" d="M0 0 C1 3 1 3 0.5625 5.5 C-0.21539539 10.34023801 -0.07833378 15.1084906 0 20 C-2 19 -2 19 -2.625 17.375 C-3.55197418 11.50416351 -2.90758296 6.61053813 -1 1 C-0.67 0.67 -0.34 0.34 0 0 Z"/>
<path transform="translate(285,244)" fill="#4BA06B" d="M0 0 C3.10613463 2.90573885 4.8261078 4.76770946 5.16796875 9.15625 C5.17441406 9.9296875 5.18085938 10.703125 5.1875 11.5 C5.20167969 12.2734375 5.21585937 13.046875 5.23046875 13.84375 C5 16 5 16 3 19 C1.57956138 14.73868415 1.56284417 10.49652898 1.28125 6.03125 C1.11175504 2.9565491 1.11175504 2.9565491 0 0 Z"/>
<path transform="translate(203,320)" fill="#5AA667" d="M0 0 C7.09083056 -0.242652 14.19345895 -0.26884702 21 2 C21.33 2.66 21.66 3.32 22 4 C19.64499052 3.88482579 17.29150927 3.75812022 14.9375 3.625 C13.62652344 3.55539062 12.31554687 3.48578125 10.96484375 3.4140625 C7.01863043 3.00194564 3.75882927 2.20243433 0 1 C0 0.67 0 0.34 0 0 Z"/>
<path transform="translate(192,313)" fill="#57AE67" d="M0 0 C0.99 0 1.98 0 3 0 C3 0.66 3 1.32 3 2 C3.94875 1.95875 4.8975 1.9175 5.875 1.875 C9 2 9 2 11 4 C11 4.99 11 5.98 11 7 C5.71862571 6.48474397 2.42778844 4.74522883 -2 2 C-1.34 1.34 -0.68 0.68 0 0 Z"/>
<path transform="translate(191,188)" fill="#BEF1C3" d="M0 0 C0.33 0.66 0.66 1.32 1 2 C1.66 2.33 2.32 2.66 3 3 C1.02 5.64 -0.96 8.28 -3 11 C-3.33 10.34 -3.66 9.68 -4 9 C-4.66 9 -5.32 9 -6 9 C-6 9.99 -6 10.98 -6 12 C-6.66 12 -7.32 12 -8 12 C-6.49087042 7.01987239 -3.44338151 3.75740058 0 0 Z"/>
<path transform="translate(168,277)" fill="#5EAD61" d="M0 0 C0.33 0 0.66 0 1 0 C1.13277344 1.03640625 1.26554688 2.0728125 1.40234375 3.140625 C1.58060639 4.51043265 1.75899862 5.88022344 1.9375 7.25 C2.02451172 7.93191406 2.11152344 8.61382812 2.20117188 9.31640625 C2.6315938 12.60036611 3.08794131 15.81190294 4 19 C3.01 19.33 2.02 19.66 1 20 C-1.13431857 13.99722901 -1.45296092 8.35198686 -1 2 C-0.67 1.34 -0.34 0.68 0 0 Z"/>
<path transform="translate(294,242)" fill="#B5E8C5" d="M0 0 C2.55556637 2.14337824 3.86191481 3.49368763 4.75 6.75 C5.23382248 13.03969228 5.39387755 18.01530612 3 24 C1.90061109 20.4972958 1.96377459 17.34034029 2.0625 13.6875 C2.11346123 8.65932488 1.74822156 4.69834543 0 0 Z"/>
<path transform="translate(180,213)" fill="#5FAC68" d="M0 0 C0.66 0.33 1.32 0.66 2 1 C1.34 4.3 0.68 7.6 0 11 C-0.66 11 -1.32 11 -2 11 C-2 11.66 -2 12.32 -2 13 C-0.02 13 1.96 13 4 13 C3.67 13.99 3.34 14.98 3 16 C0.69 15.34 -1.62 14.68 -4 14 C-3.52525225 11.85318469 -3.04508251 9.70756772 -2.5625 7.5625 C-2.29566406 6.36753906 -2.02882812 5.17257813 -1.75390625 3.94140625 C-1 1 -1 1 0 0 Z"/>
<path transform="translate(286,277)" fill="#BEEACC" d="M0 0 C-1 2 -1 2 -4.0625 3.125 C-9.72030267 4.60044341 -15.32149957 4.41962511 -21 3 C-21 2.67 -21 2.34 -21 2 C-18.62561751 1.6616656 -16.25065041 1.32920998 -13.875 1 C-12.87726563 0.85691406 -12.87726563 0.85691406 -11.859375 0.7109375 C-7.87371019 0.16388547 -4.02140062 -0.10022182 0 0 Z"/>
<path transform="translate(339,268)" fill="#439C69" d="M0 0 C0.66 0.99 1.32 1.98 2 3 C1.26944532 6.2469097 0.38108169 7.6842466 -2.1875 9.8125 C-5.61674383 11.26040295 -8.31374727 11.2168384 -12 11 C-10.0283713 9.68558087 -8.02817985 8.41285866 -6 7.1875 C-2.98567863 4.98955734 -1.64801901 3.29603801 0 0 Z"/>
<path transform="translate(203,182)" fill="#42AB52" d="M0 0 C1.65 0.33 3.3 0.66 5 1 C0.61581526 6.76207138 0.61581526 6.76207138 -2.75 8.0625 C-3.4925 8.371875 -4.235 8.68125 -5 9 C-5.89386164 11.54775306 -5.89386164 11.54775306 -6 14 C-6.66 14 -7.32 14 -8 14 C-7.65930765 10.84859577 -7.41923159 9.39218439 -5.0625 7.1875 C-3 6 -3 6 -1 6 C-0.67 4.02 -0.34 2.04 0 0 Z"/>
<path transform="translate(192.0625,183.9375)" fill="#54AA60" d="M0 0 C1.4540625 0.0309375 1.4540625 0.0309375 2.9375 0.0625 C2.00612408 1.35858947 1.0671434 2.64921632 0.125 3.9375 C-0.39707031 4.65679687 -0.91914063 5.37609375 -1.45703125 6.1171875 C-3.0625 8.0625 -3.0625 8.0625 -6.0625 10.0625 C-6.3925 9.0725 -6.7225 8.0825 -7.0625 7.0625 C-6.4025 7.0625 -5.7425 7.0625 -5.0625 7.0625 C-4.918125 6.093125 -4.77375 5.12375 -4.625 4.125 C-3.88189799 0.07922241 -3.88189799 0.07922241 0 0 Z"/>
<path transform="translate(241,320)" fill="#52A864" d="M0 0 C3 2 3 2 3.625 3.875 C3.74875 4.57625 3.8725 5.2775 4 6 C4.185625 6.7425 4.37125 7.485 4.5625 8.25 C4.7790625 9.11625 4.7790625 9.11625 5 10 C4.34 10 3.68 10 3 10 C2.67 11.65 2.34 13.3 2 15 C0.35 14.67 -1.3 14.34 -3 14 C-2.505 13.360625 -2.01 12.72125 -1.5 12.0625 C0.50950277 7.95976517 0.26385672 4.48556418 0 0 Z"/>
<path transform="translate(280,178)" fill="#1E9E4B" d="M0 0 C4.95 0.99 4.95 0.99 10 2 C10.33 2.99 10.66 3.98 11 5 C10.34 5 9.68 5 9 5 C8.67 5.66 8.34 6.32 8 7 C5.36 6.01 2.72 5.02 0 4 C0 2.68 0 1.36 0 0 Z"/>
<path transform="translate(180,301)" fill="#5BAA5F" d="M0 0 C0.33 0.66 0.66 1.32 1 2 C1.66 2 2.32 2 3 2 C3.33 2.99 3.66 3.98 4 5 C5.2375 5.680625 5.2375 5.680625 6.5 6.375 C9 8 9 8 9.8125 10.6875 C9.874375 11.450625 9.93625 12.21375 10 13 C4.87220625 10.01872456 2.24730231 6.96646236 -1 2 C-0.67 1.34 -0.34 0.68 0 0 Z"/>
<path transform="translate(258,254)" fill="#C8F3D9" d="M0 0 C0.33 0 0.66 0 1 0 C1.08636719 0.64066406 1.17273438 1.28132812 1.26171875 1.94140625 C2.28816012 8.26014165 3.92267439 12.06429005 8 17 C7.01 17 6.02 17 5 17 C5 16.34 5 15.68 5 15 C3.68 14.67 2.36 14.34 1 14 C0.06380187 10.84493858 -0.1057123 8.03413498 -0.0625 4.75 C-0.05347656 3.85796875 -0.04445313 2.9659375 -0.03515625 2.046875 C-0.02355469 1.37140625 -0.01195312 0.6959375 0 0 Z"/>
<path transform="translate(262,245)" fill="#54A471" d="M0 0 C1.24834144 2.49668289 0.95155125 3.81329151 0.625 6.5625 C0.53476562 7.36816406 0.44453125 8.17382812 0.3515625 9.00390625 C0 11 0 11 -1 12 C-1.04092937 14.33297433 -1.04241723 16.66705225 -1 19 C-3.63597236 14.45268513 -3.57258701 10.13668637 -3 5 C-1.5 1.875 -1.5 1.875 0 0 Z"/>
<path transform="translate(280,240)" fill="#4F9A64" d="M0 0 C0.99 0.66 1.98 1.32 3 2 C-1.95 2 -6.9 2 -12 2 C-12 2.66 -12 3.32 -12 4 C-13.65 4.33 -15.3 4.66 -17 5 C-16.67 4.01 -16.34 3.02 -16 2 C-11.00009268 -0.43585229 -5.46492149 -0.63961215 0 0 Z"/>
<path transform="translate(340,268)" fill="#1C9550" d="M0 0 C1.32 0 2.64 0 4 0 C3.67 2.31 3.34 4.62 3 7 C2.01 7 1.02 7 0 7 C-0.33 7.99 -0.66 8.98 -1 10 C-1.66 10 -2.32 10 -3 10 C-3.33 10.66 -3.66 11.32 -4 12 C-4 10.68 -4 9.36 -4 8 C-3.01 8 -2.02 8 -1 8 C-0.67 5.36 -0.34 2.72 0 0 Z"/>
<path transform="translate(203,324)" fill="#5AAA67" d="M0 0 C1.8253125 0.4640625 1.8253125 0.4640625 3.6875 0.9375 C9.73076221 2.29868206 15.82945928 2.63758803 22 3 C22 3.33 22 3.66 22 4 C15.4 4 8.8 4 2 4 C1.34 2.68 0.68 1.36 0 0 Z"/>
<path transform="translate(181,314)" fill="#4AAC50" d="M0 0 C4.31392226 0.4793247 6.16569547 1.7457985 9 5 C6 6 6 6 2 6 C2 5.34 2 4.68 2 4 C1.01 4 0.02 4 -1 4 C-0.67 2.68 -0.34 1.36 0 0 Z"/>
<path transform="translate(174,285)" fill="#4AA153" d="M0 0 C1.98 0.66 3.96 1.32 6 2 C5.67 2.66 5.34 3.32 5 4 C4.34 3.67 3.68 3.34 3 3 C3 5.64 3 8.28 3 11 C0.39665076 8.28817788 0.00543309 7.10866187 -0.1875 3.25 C-0.125625 2.1775 -0.06375 1.105 0 0 Z"/>
<path transform="translate(172,221)" fill="#5EAD6A" d="M0 0 C0.33 0 0.66 0 1 0 C1.40652968 5.42039575 0.03993514 9.07015675 -2 14 C-2.66 14 -3.32 14 -4 14 C-4 11.69 -4 9.38 -4 7 C-2.68 6.34 -1.36 5.68 0 5 C0 3.35 0 1.7 0 0 Z"/>
<path transform="translate(303,184)" fill="#35945C" d="M0 0 C2.97 0.495 2.97 0.495 6 1 C6 1.66 6 2.32 6 3 C6.66 3.33 7.32 3.66 8 4 C8.625 6.5625 8.625 6.5625 9 9 C5.51127585 7.83709195 4.90023136 6.86032391 2.8125 3.9375 C2.28269531 3.20402344 1.75289063 2.47054687 1.20703125 1.71484375 C0.80871094 1.14894531 0.41039062 0.58304688 0 0 Z"/>
<path transform="translate(269,281)" fill="#299148" d="M0 0 C4.62 0 9.24 0 14 0 C11 3 11 3 8.08203125 3.29296875 C7.00308594 3.25816406 5.92414063 3.22335937 4.8125 3.1875 C3.72582031 3.16042969 2.63914062 3.13335937 1.51953125 3.10546875 C0.27236328 3.05326172 0.27236328 3.05326172 -1 3 C-0.67 2.01 -0.34 1.02 0 0 Z"/>
<path transform="translate(283,269)" fill="#D5F2DA" d="M0 0 C0.66 0.33 1.32 0.66 2 1 C2 2.32 2 3.64 2 5 C1.34 5.66 0.68 6.32 0 7 C-0.99 6.67 -1.98 6.34 -3 6 C-3 5.34 -3 4.68 -3 4 C-5.64 4 -8.28 4 -11 4 C-11 3.67 -11 3.34 -11 3 C-10.28972656 2.86722656 -9.57945312 2.73445313 -8.84765625 2.59765625 C-7.92855469 2.42105469 -7.00945312 2.24445313 -6.0625 2.0625 C-4.68771484 1.80146484 -4.68771484 1.80146484 -3.28515625 1.53515625 C-1.04710156 1.22285012 -1.04710156 1.22285012 0 0 Z"/>
<path transform="translate(281,175)" fill="#3F9C5B" d="M0 0 C1.62938774 0.59223134 3.25341128 1.19923628 4.875 1.8125 C6.23238281 2.31716797 6.23238281 2.31716797 7.6171875 2.83203125 C10 4 10 4 12 7 C11.01 7 10.02 7 9 7 C9 6.34 9 5.68 9 5 C6.69 5 4.38 5 2 5 C1.67 4.01 1.34 3.02 1 2 C0.34 1.67 -0.32 1.34 -1 1 C-0.67 0.67 -0.34 0.34 0 0 Z"/>
<path transform="translate(273,224)" fill="#239945" d="M0 0 C0.66 0 1.32 0 2 0 C2 0.66 2 1.32 2 2 C3.32 1.67 4.64 1.34 6 1 C6.33 2.98 6.66 4.96 7 7 C5.68 7 4.36 7 3 7 C3 6.34 3 5.68 3 5 C1.68 4.34 0.36 3.68 -1 3 C-0.67 2.01 -0.34 1.02 0 0 Z"/>
<path transform="translate(230,161)" fill="#45A45A" d="M0 0 C3 1 3 1 6 5 C2.7 5.66 -0.6 6.32 -4 7 C-3.67 6.01 -3.34 5.02 -3 4 C-2.34 3.67 -1.68 3.34 -1 3 C-0.67 2.01 -0.34 1.02 0 0 Z"/>
<path transform="translate(198,324)" fill="#41AB47" d="M0 0 C1.98 0.66 3.96 1.32 6 2 C2.32653229 4.44897847 0.33643601 4.31537716 -4 4 C-4.66 3.34 -5.32 2.68 -6 2 C-2.25 0.875 -2.25 0.875 0 2 C0 1.34 0 0.68 0 0 Z"/>
<path transform="translate(255,259)" fill="#F4FCF8" d="M0 0 C2 2 2 2 2 5 C2.66 5 3.32 5 4 5 C4.33 6.98 4.66 8.96 5 11 C3.68 11 2.36 11 1 11 C0.67 7.37 0.34 3.74 0 0 Z"/>
<path transform="translate(262,235)" fill="#F4FCF9" d="M0 0 C1.65 0 3.3 0 5 0 C5 0.66 5 1.32 5 2 C4.01 2 3.02 2 2 2 C2 3.65 2 5.3 2 7 C0.35 7.66 -1.3 8.32 -3 9 C-3.33 8.01 -3.66 7.02 -4 6 C-3.01 6 -2.02 6 -1 6 C-1 5.34 -1 4.68 -1 4 C-0.34 4 0.32 4 1 4 C0.67 2.68 0.34 1.36 0 0 Z"/>
<path transform="translate(334,278)" fill="#208A4D" d="M0 0 C0.33 0.66 0.66 1.32 1 2 C0.13375 2.37125 0.13375 2.37125 -0.75 2.75 C-3.3002997 4.16683317 -5.01785701 5.87627537 -7 8 C-7 5.69 -7 3.38 -7 1 C-3.535 0.505 -3.535 0.505 0 0 Z"/>
<path transform="translate(222,268)" fill="#5BA568" d="M0 0 C0 0.66 0 1.32 0 2 C3.3 2.33 6.6 2.66 10 3 C10 3.33 10 3.66 10 4 C4.26157749 4.20413361 -0.60539047 4.27141454 -6 2 C-3 0 -3 0 0 0 Z"/>
<path transform="translate(259,232)" fill="#419D5C" d="M0 0 C1.32 0.33 2.64 0.66 4 1 C3.67 1.66 3.34 2.32 3 3 C2.34 3 1.68 3 1 3 C1 3.66 1 4.32 1 5 C0.01 5.33 -0.98 5.66 -2 6 C-3.66710346 7.49985609 -3.66710346 7.49985609 -5 9 C-5.5625 7.0625 -5.5625 7.0625 -6 5 C-5 4 -5 4 -2.4375 3.9375 C-1.2309375 3.9684375 -1.2309375 3.9684375 0 4 C0 2.68 0 1.36 0 0 Z"/>
<path transform="translate(173,229)" fill="#DBF6DD" d="M0 0 C2 3 2 3 1.625 5.1875 C1.41875 5.785625 1.2125 6.38375 1 7 C0.34 7 -0.32 7 -1 7 C-3.06381575 7.32843384 -3.06381575 7.32843384 -5 8 C-5.33 8.66 -5.66 9.32 -6 10 C-6.66 9.34 -7.32 8.68 -8 8 C-7.50628906 7.67386719 -7.01257813 7.34773437 -6.50390625 7.01171875 C-5.86324219 6.57472656 -5.22257813 6.13773438 -4.5625 5.6875 C-3.92441406 5.25824219 -3.28632813 4.82898438 -2.62890625 4.38671875 C-0.7114316 2.9965948 -0.7114316 2.9965948 0 0 Z"/>
<path transform="translate(225,328)" fill="#4AA563" d="M0 0 C4 4.625 4 4.625 4 8 C2.68 7.67 1.36 7.34 0 7 C0 6.34 0 5.68 0 5 C-0.66 5 -1.32 5 -2 5 C-2 4.01 -2 3.02 -2 2 C-1.34 2 -0.68 2 0 2 C0 1.34 0 0.68 0 0 Z"/>
<path transform="translate(172,279)" fill="#8CBB8C" d="M0 0 C0.66 0 1.32 0 2 0 C2.33 1.65 2.66 3.3 3 5 C5.97 5.495 5.97 5.495 9 6 C9 6.33 9 6.66 9 7 C6.69 6.67 4.38 6.34 2 6 C1.67 6.99 1.34 7.98 1 9 C-0.4783226 6.04335481 -0.06032783 3.25770263 0 0 Z"/>
<path transform="translate(337,273)" fill="#DCFBE6" d="M0 0 C-3.28804981 2.91227269 -5.59885603 4.49701212 -10 5 C-10 4.34 -10 3.68 -10 3 C-8.68 2.67 -7.36 2.34 -6 2 C-6 1.34 -6 0.68 -6 0 C-3.50907189 -1.24546405 -2.58919267 -0.7767578 0 0 Z"/>
<path transform="translate(238,271)" fill="#E1FCE5" d="M0 0 C-0.33 0.99 -0.66 1.98 -1 3 C-6.61 2.67 -12.22 2.34 -18 2 C-18 1.67 -18 1.34 -18 1 C-16.12528812 0.83012319 -14.25021305 0.66425224 -12.375 0.5 C-11.33085937 0.4071875 -10.28671875 0.314375 -9.2109375 0.21875 C-6.12853212 0.00875645 -3.08834771 -0.03709727 0 0 Z"/>
<path transform="translate(161,265)" fill="#DBF8DB" d="M0 0 C0.99 0.495 0.99 0.495 2 1 C2 1.66 2 2.32 2 3 C2.66 3 3.32 3 4 3 C4.28875 3.969375 4.5775 4.93875 4.875 5.9375 C5.64214682 9.10664203 5.64214682 9.10664203 8 10 C7.67 10.66 7.34 11.32 7 12 C2.5991297 8.17819158 1.19194469 5.52628901 0 0 Z"/>
<path transform="translate(291,268)" fill="#D3F3DF" d="M0 0 C0.33 0.99 0.66 1.98 1 3 C1.66 3.33 2.32 3.66 3 4 C0.6875 6.5 0.6875 6.5 -2 9 C-2.99 9 -3.98 9 -5 9 C-5 8.34 -5 7.68 -5 7 C-4.34 7 -3.68 7 -3 7 C-3 6.01 -3 5.02 -3 4 C-2.01 4 -1.02 4 0 4 C0 2.68 0 1.36 0 0 Z"/>
<path transform="translate(343,251)" fill="#1A8A48" d="M0 0 C0.66 0 1.32 0 2 0 C2.2506019 1.41303238 2.47461921 2.83079474 2.6875 4.25 C2.81511719 5.03890625 2.94273437 5.8278125 3.07421875 6.640625 C3 9 3 9 0 13 C0 8.71 0 4.42 0 0 Z"/>
<path transform="translate(299,251)" fill="#1D8B3F" d="M0 0 C1.98 0.99 1.98 0.99 4 2 C3.6875 5.375 3.6875 5.375 3 9 C2.01 9.66 1.02 10.32 0 11 C0 7.37 0 3.74 0 0 Z"/>
<path transform="translate(226,253)" fill="#D3FBDD" d="M0 0 C0.66 0 1.32 0 2 0 C2.33 1.98 2.66 3.96 3 6 C5.64 6 8.28 6 11 6 C11 6.33 11 6.66 11 7 C7.37 7 3.74 7 0 7 C0 4.69 0 2.38 0 0 Z"/>
<path transform="translate(290,237)" fill="#D8F4E1" d="M0 0 C0.99 0.33 1.98 0.66 3 1 C4.52160014 4.6037898 5 7.05220686 5 11 C4.34 10.67 3.68 10.34 3 10 C3.33 9.34 3.66 8.68 4 8 C3.01 7.67 2.02 7.34 1 7 C0.67 4.69 0.34 2.38 0 0 Z"/>
<path transform="translate(226,323)" fill="#F2F8EE" d="M0 0 C1.66666667 0 3.33333333 0 5 0 C5.33 1.32 5.66 2.64 6 4 C3.39417629 4.93065133 2.35801776 5.14917407 -0.25 4.0625 C-0.8275 3.711875 -1.405 3.36125 -2 3 C-1.34 2.67 -0.68 2.34 0 2 C0 1.34 0 0.68 0 0 Z"/>
<path transform="translate(236,283)" fill="#35AC50" d="M0 0 C-2.70879335 1.35439668 -5.00933268 1.06501451 -8 1 C-8 1.66 -8 2.32 -8 3 C-9.65 2.67 -11.3 2.34 -13 2 C-13 1.34 -13 0.68 -13 0 C-11.39679026 -0.19551338 -9.79237014 -0.38111983 -8.1875 -0.5625 C-7.29417969 -0.66691406 -6.40085938 -0.77132813 -5.48046875 -0.87890625 C-3 -1 -3 -1 0 0 Z"/>
<path transform="translate(323,276)" fill="#EEFAF2" d="M0 0 C1.32 0 2.64 0 4 0 C3.67 1.65 3.34 3.3 3 5 C1.35 5.33 -0.3 5.66 -2 6 C-1.34 4.02 -0.68 2.04 0 0 Z"/>
<path transform="translate(250,268)" fill="#22A341" d="M0 0 C3 3.75 3 3.75 3 6 C2.34 6 1.68 6 1 6 C0.67 7.32 0.34 8.64 0 10 C-2 7 -2 7 -1.6875 5 C-1.460625 4.34 -1.23375 3.68 -1 3 C-0.67 2.01 -0.34 1.02 0 0 Z"/>
<path transform="translate(213,260)" fill="#459F56" d="M0 0 C2.77982621 1.3899131 2.87463341 3.18658353 4 6 C4.66 6.33 5.32 6.66 6 7 C6 7.66 6 8.32 6 9 C3.5625 8.625 3.5625 8.625 1 8 C-0.35439668 5.29120665 -0.06501451 2.99066732 0 0 Z"/>
<path transform="translate(261,242)" fill="#D9FAE4" d="M0 0 C0.99 0 1.98 0 3 0 C2.731875 0.495 2.46375 0.99 2.1875 1.5 C0.56124507 4.9236946 -0.69515171 8.44132285 -2 12 C-2.33 12 -2.66 12 -3 12 C-3 9.69 -3 7.38 -3 5 C-2.34 5 -1.68 5 -1 5 C-0.67 3.35 -0.34 1.7 0 0 Z"/>
<path transform="translate(274.75,230.9375)" fill="#A5DEB7" d="M0 0 C0.98484375 0.00902344 1.9696875 0.01804688 2.984375 0.02734375 C4.10585938 0.04474609 4.10585938 0.04474609 5.25 0.0625 C5.25 0.3925 5.25 0.7225 5.25 1.0625 C3.92935547 1.26166016 3.92935547 1.26166016 2.58203125 1.46484375 C0.83986328 1.72974609 0.83986328 1.72974609 -0.9375 2 C-2.66033203 2.26103516 -2.66033203 2.26103516 -4.41796875 2.52734375 C-7.21325212 2.97629313 -9.97933586 3.48332162 -12.75 4.0625 C-9.0694254 -0.17016079 -5.40062232 -0.06429312 0 0 Z"/>
<path transform="translate(225,323)" fill="#C5F1CC" d="M0 0 C0 1.33333333 0 2.66666667 0 4 C-4.29 4 -8.58 4 -13 4 C-13 3.67 -13 3.34 -13 3 C-11.783125 2.87625 -10.56625 2.7525 -9.3125 2.625 C-5.93520941 2.21108694 -3.10243305 1.45426549 0 0 Z"/>
<path transform="translate(191,308)" fill="#3DAF4B" d="M0 0 C0.33 1.32 0.66 2.64 1 4 C3.31 4 5.62 4 8 4 C8 4.99 8 5.98 8 7 C6.68 7 5.36 7 4 7 C4 6.34 4 5.68 4 5 C2.35 5.33 0.7 5.66 -1 6 C-1.042721 4.33388095 -1.04063832 2.66617115 -1 1 C-0.67 0.67 -0.34 0.34 0 0 Z"/>
<path transform="translate(293,248)" fill="#F5FDFA" d="M0 0 C0.99 0 1.98 0 3 0 C2.34 5.28 1.68 10.56 1 16 C0.67 16 0.34 16 0 16 C0 10.72 0 5.44 0 0 Z"/>
<path transform="translate(240,235)" fill="#BEEECB" d="M0 0 C1.32 1.32 2.64 2.64 4 4 C2.3125 6.0625 2.3125 6.0625 0 8 C-2.75 7.75 -2.75 7.75 -5 7 C-5 6.67 -5 6.34 -5 6 C-3.02 6 -1.04 6 1 6 C0.67 4.02 0.34 2.04 0 0 Z"/>
<path transform="translate(325,225)" fill="#CDECD9" d="M0 0 C3.93846154 3.32307692 3.93846154 3.32307692 4.25 6.75 C4.1675 7.4925 4.085 8.235 4 9 C3.67 8.01 3.34 7.02 3 6 C1.68 6.33 0.36 6.66 -1 7 C-0.67 4.69 -0.34 2.38 0 0 Z"/>
<path transform="translate(323,214)" fill="#459A69" d="M0 0 C0.99 0 1.98 0 3 0 C3 1.65 3 3.3 3 5 C3.66 5 4.32 5 5 5 C5.625 7.3125 5.625 7.3125 6 10 C5.01 11.485 5.01 11.485 4 13 C3.79503906 12.31292969 3.59007812 11.62585938 3.37890625 10.91796875 C3.10949219 10.01691406 2.84007812 9.11585938 2.5625 8.1875 C2.16224609 6.84751953 2.16224609 6.84751953 1.75390625 5.48046875 C1.19612127 3.64526945 0.60655425 1.81966274 0 0 Z"/>
<path transform="translate(203,320)" fill="#B9F0C5" d="M0 0 C0.33 1.32 0.66 2.64 1 4 C-3.455 3.01 -3.455 3.01 -8 2 C-4 0 -4 0 0 0 Z"/>
<path transform="translate(173,303)" fill="#47AA58" d="M0 0 C0.66 0 1.32 0 2 0 C2.33 2.97 2.66 5.94 3 9 C2.01 8.67 1.02 8.34 0 8 C0 5.36 0 2.72 0 0 Z"/>
<path transform="translate(201,260)" fill="#5FAD6D" d="M0 0 C1.96301592 3.50538557 2.95902388 7.13351728 4 11 C1.4375 9.4375 1.4375 9.4375 -1 7 C-0.8125 3.25 -0.8125 3.25 0 0 Z"/>
<path transform="translate(216.1875,230.875)" fill="#4DA25C" d="M0 0 C1.8871875 0.061875 1.8871875 0.061875 3.8125 0.125 C1.17345629 1.53877341 -1.25870629 2.49740135 -4.1875 3.125 C-4.1875 3.785 -4.1875 4.445 -4.1875 5.125 C-4.8475 5.125 -5.5075 5.125 -6.1875 5.125 C-6.5175 4.135 -6.8475 3.145 -7.1875 2.125 C-4.09861478 0.06574319 -3.47814073 -0.1140374 0 0 Z"/>
<path transform="translate(185,197)" fill="#CFFAD3" d="M0 0 C0.66 0 1.32 0 2 0 C1.45276317 3.37462715 0.9451 5.08235 -1 8 C-1.99 7.67 -2.98 7.34 -4 7 C-3.67 5.68 -3.34 4.36 -3 3 C-2.01 3 -1.02 3 0 3 C0 2.01 0 1.02 0 0 Z"/>
<path transform="translate(280,230)" fill="#3E9358" d="M0 0 C4.455 0.99 4.455 0.99 9 2 C9.33 3.32 9.66 4.64 10 6 C9.34 6 8.68 6 8 6 C8 5.34 8 4.68 8 4 C5.36 3.34 2.72 2.68 0 2 C0 1.34 0 0.68 0 0 Z"/>
<path transform="translate(163,240)" fill="#D6F6DA" d="M0 0 C0.33 0 0.66 0 1 0 C1 1.98 1 3.96 1 6 C-0.98 6.99 -0.98 6.99 -3 8 C-2.25 2.25 -2.25 2.25 0 0 Z"/>
<path transform="translate(225,327)" fill="#D7F7E1" d="M0 0 C2.16874252 0.50603992 3.99967627 0.99983813 6 2 C6 2.99 6 3.98 6 5 C4.68 5 3.36 5 2 5 C1.34 3.35 0.68 1.7 0 0 Z"/>
<path transform="translate(317,284)" fill="#268D55" d="M0 0 C0.66 0 1.32 0 2 0 C2 0.66 2 1.32 2 2 C3.65 2 5.3 2 7 2 C6.67 2.66 6.34 3.32 6 4 C4.02 4 2.04 4 0 4 C0 2.68 0 1.36 0 0 Z"/>
<path transform="translate(286,277)" fill="#4D9C63" d="M0 0 C2 1 2 1 3 3 C0.24921116 3.91692961 -1.35948913 4.10886083 -4.1875 4.0625 C-6.0746875 4.0315625 -6.0746875 4.0315625 -8 4 C-6.66666667 3.33333333 -5.33333333 2.66666667 -4 2 C-3.29875 1.608125 -2.5975 1.21625 -1.875 0.8125 C-1.25625 0.544375 -0.6375 0.27625 0 0 Z"/>
<path transform="translate(301,259)" fill="#2B9D53" d="M0 0 C0.1953125 6.0546875 0.1953125 6.0546875 0 8 C-0.66 8.66 -1.32 9.32 -2 10 C-2.33 7.03 -2.66 4.06 -3 1 C-1 0 -1 0 0 0 Z"/>
<path transform="translate(181,218)" fill="#42AD50" d="M0 0 C1.32 1.65 2.64 3.3 4 5 C3.67 5.66 3.34 6.32 3 7 C1.35 7 -0.3 7 -2 7 C-1.34 4.69 -0.68 2.38 0 0 Z"/>
<path transform="translate(232,331)" fill="#C1EDC8" d="M0 0 C0.99 0.33 1.98 0.66 3 1 C3.33 1.99 3.66 2.98 4 4 C1.125 4.1875 1.125 4.1875 -2 4 C-2.66 3.01 -3.32 2.02 -4 1 C-2.68 1.33 -1.36 1.66 0 2 C0 1.34 0 0.68 0 0 Z"/>
<path transform="translate(181,292)" fill="#3DB353" d="M0 0 C0.66 0 1.32 0 2 0 C2 2.31 2 4.62 2 7 C1.01 6.67 0.02 6.34 -1 6 C-1.042721 4.33388095 -1.04063832 2.66617115 -1 1 C-0.67 0.67 -0.34 0.34 0 0 Z"/>
<path transform="translate(326,279)" fill="#52A678" d="M0 0 C0.33 0 0.66 0 1 0 C1 2.64 1 5.28 1 8 C-1.64 7.67 -4.28 7.34 -7 7 C-7 6.67 -7 6.34 -7 6 C-5.02 5.67 -3.04 5.34 -1 5 C-0.67 3.35 -0.34 1.7 0 0 Z"/>
<path transform="translate(203,264)" fill="#D0F8D3" d="M0 0 C0.66 0 1.32 0 2 0 C2.33 1.65 2.66 3.3 3 5 C3.66 5 4.32 5 5 5 C4.67 6.32 4.34 7.64 4 9 C1.49701566 6.06171403 0.53069061 3.82097239 0 0 Z"/>
<path transform="translate(161,238)" fill="#60AC67" d="M0 0 C0.99 0.33 1.98 0.66 3 1 C1.625 3.5 1.625 3.5 0 6 C-0.66 6 -1.32 6 -2 6 C-2.33 5.01 -2.66 4.02 -3 3 C-2.01 2.01 -1.02 1.02 0 0 Z"/>
<path transform="translate(320,200)" fill="#169246" d="M0 0 C2.475 0.99 2.475 0.99 5 2 C3.68 3.65 2.36 5.3 1 7 C-0.0625 5.1875 -0.0625 5.1875 -1 3 C-0.67 2.01 -0.34 1.02 0 0 Z"/>
<path transform="translate(308,195)" fill="#3A955E" d="M0 0 C2.92824652 2.92824652 4.27239967 5.2979993 6 9 C5.01 9 4.02 9 3 9 C2.01 6.03 1.02 3.06 0 0 Z"/>
<path transform="translate(299,181)" fill="#A5E6BA" d="M0 0 C0.66 0.33 1.32 0.66 2 1 C2 1.66 2 2.32 2 3 C2.99 3.33 3.98 3.66 5 4 C3.68 4.99 2.36 5.98 1 7 C0.67 6.01 0.34 5.02 0 4 C-0.66 3.67 -1.32 3.34 -2 3 C-1.34 3 -0.68 3 0 3 C0 2.01 0 1.02 0 0 Z"/>
<path transform="translate(203,177)" fill="#CDF5D1" d="M0 0 C1.98 0 3.96 0 6 0 C6 0.66 6 1.32 6 2 C3.69 2.33 1.38 2.66 -1 3 C-0.67 2.01 -0.34 1.02 0 0 Z"/>
<path transform="translate(203,321)" fill="#CCFBD4" d="M0 0 C2.31 0.33 4.62 0.66 7 1 C6.01 1.495 6.01 1.495 5 2 C5 2.66 5 3.32 5 4 C3.68 4 2.36 4 1 4 C0.67 2.68 0.34 1.36 0 0 Z"/>
<path transform="translate(178,298)" fill="#48A751" d="M0 0 C1.32 0 2.64 0 4 0 C4 0.66 4 1.32 4 2 C4.66 2.33 5.32 2.66 6 3 C5.67 3.66 5.34 4.32 5 5 C2.525 4.01 2.525 4.01 0 3 C0 2.01 0 1.02 0 0 Z"/>
<path transform="translate(214,245)" fill="#3F9E4E" d="M0 0 C0.33 0.66 0.66 1.32 1 2 C1.66 2.33 2.32 2.66 3 3 C1.02 5.97 1.02 5.97 -1 9 C-2.13561748 5.34078813 -1.73078723 3.46157446 0 0 Z"/>
<path transform="translate(342,241)" fill="#1E8945" d="M0 0 C1.64826111 2.96687001 2.44271087 5.65626525 3 9 C1.68 8.01 0.36 7.02 -1 6 C-0.67 4.02 -0.34 2.04 0 0 Z"/>
<path transform="translate(161,232)" fill="#42B644" d="M0 0 C1.32 0 2.64 0 4 0 C4 1.32 4 2.64 4 4 C2.35 3.67 0.7 3.34 -1 3 C-0.67 2.01 -0.34 1.02 0 0 Z"/>
<path transform="translate(312,197)" fill="#C9F7DD" d="M0 0 C1.98 0.99 1.98 0.99 4 2 C4 3.65 4 5.3 4 7 C3.67 6.34 3.34 5.68 3 5 C2.01 4.67 1.02 4.34 0 4 C0 2.68 0 1.36 0 0 Z"/>
<path transform="translate(297,186)" fill="#2E8A49" d="M0 0 C2.91517292 1.07401108 4.77810176 1.77810176 7 4 C7 4.99 7 5.98 7 7 C6.34 7 5.68 7 5 7 C3.7109375 5.46875 3.7109375 5.46875 2.375 3.5 C1.70597656 2.52546875 1.70597656 2.52546875 1.0234375 1.53125 C0.68570312 1.0259375 0.34796875 0.520625 0 0 Z"/>
<path transform="translate(236,170)" fill="#58AA6A" d="M0 0 C-0.99 1.485 -0.99 1.485 -2 3 C-4.64 2.67 -7.28 2.34 -10 2 C-6.5980513 -0.09350689 -3.94727588 -0.17942163 0 0 Z"/>
</svg>