<svg xmlns="http://www.w3.org/2000/svg" version="1.1" viewBox="0 0 1200 1393">
<path transform="translate(196)" d="m0 0h9l10 7 25 15 19 12 18 11 13 9 1-28 5-1 1 1 1 32 7 5 5-2 21-13 19-12 15-9 21-13 21-14h8l-1 3-24 15-13 8-24 15-20 12-20 13-5 3-6-1-5-3 1 118 5 4 28 17 63 39 16 10 13 8 16 10 4-1 24-15 3-1v-2l7-3 21-13 18-11 19-12 5-3 1-6v-92l-1-3-15 10-13 8-4 1 5-5 17-11 10-6 1-2v-28l-10 1-4-3v-2l-4-2 1-12-19-12-26-16-23-14-17-11-4-5h9v2l6 2 9 6 26 16 21 13 19 12 3 2h4l3-3 9 6 1 6 14-7 17-11 5-3 1-2v-11l1-3 3-1 2 2 1 10 15-9 24-15 15-10 2-2h9l-4 5-20 12-19 12-10 6-11 7-1 1v32l7-3-1 3-6 4v19l5 2 11 6 9 7 1 2-5-2-17-11-4-2v83l5 4 17 10 12 8 9 5 19 12 26 16 23 14 7 5 4-1 6-4 10-6 22-14 21-13 8-5h2v-113l-14 7-13 8-19 12-6 4-4 8-3 4-4-2-4-6-1-4-15-9-15-10-18-11-5 1-11 7-8 5-2-1 8-6 13-8 1-2-5-2-14-8-22-14-4 1-6 4-6-2-6-5-1-6 2-7 6-5 2-1 1-13 2-2 1 15 6 4 3 5v9l40 24 5 1 20-12 19-12 6-4v-7l4-5 4-2 1-19h1l1 19 5 4 2 3v9l6 2 26 16 15 9 5 1 1-30-4-2-23-14-24-15-15-9-14-9-21-13-5-4v-2h8l10 7 11 6 12 8 7 4 47 29 11 7v2l7-2 36-22 11-7 10-6 24-15 15-10 1-1h8l-2 4-21 13-23 14-11 7-5 4-11 6-20 12-12 8v24l18-12 11-7h2l-2-6 1-7 4-6 8-5 1-5h2l3 6 6 3 4 6 1 3v11l10 6 12 6v2h2v2l-9 2-24 15-11 7h-2v-2l17-11 21-12-1-3-12-7-4-3h-2l-5 5-4 2-8-1-8-6-10 7-18 11-3 2v118l17 11 4 1 10-7 21-13 26-16 6-4h2v-158l1-2h5l1 2 1 48v3l-1 3v9l1 5 22 13 19 12 6 5h-3l-14-8-16-10-14-9-1 64v19l2 4 17 10 40 25 3 2v-68h2l1 69 10 7 18 11 11-7 7-6 7-2 18-12 2-1v-106l-14 9-4 1 5-5 13-8v-14l-32 20-6 5-7 3-14 9v-3l10-7 6-4-4-4-20-12-23-14-13-9 2-1 17 10 26 16 14 9 3 2 5-1 19-12 17-11v-17l-10-7-73-45-17-11-6-5v-1h9l10 7 20 12 47 29 19 12 3 2h5l10-7 17-10 32-20 23-14 16-11h8l-1 3-24 15-21 13-23 14-11 7-18 11-6 4h-2l-1 16 18-11 3-2 4-10 3-1 2-4 4 2 5 8 1 6-9 4-4-2-4-1-14 9-7 4h-2l1 15 24-15 13-8 4-4 8-3 8-6 1-3v-28h2l1 29v4l-12 7h-2l4 4 28 17 24 15 23 14 9 7 4 1v-103l1-3h5l1 1v105l5-3 5-4 2 1-10 9-1 2v48l10 7 2 5-4 1-11-7-9 4-10 7-17 10-24 15-21 13-9 6 5 4 23 14 24 15 9 6 4-1 4-3 1-13 4-7 6-5 6-1 1-62h1l1 6v55l9 4 2 2 6-1 10-7 5-1v5l-11 7-6 2v15l-3 7-5 5-3 1h-10l-6-3-2-4-9 3-1 9v136l10 7 20 12 24 15 2 1v7l-12-6-40-25-6-4-4 1-22 14-28 17-13 8-2 1-1 3 5 2 14 8 19 12 23 14 24 15 5 3 8 2 6-3 4-3h3v5l-6 7-3 9-2 4v127l7 8 2 3-4-2-6-4v18l19-12 8-5h2v5l-11 8-17 10-1 3 2 6 3 3 6 5 1 5-3 1-6-4-5-4-5 2-15 10-5 3v128l1 4 22 13 19 12 14 9v6l-6-2-26-16-24-15-4-2-10 7-39 24-1 2 18 10 19 12 22 14 4 4-1 2-41-26-21-13-5-1-20 12-21 13v2l-8 3-9 6-1 1v40l28 17 24 15 10 6 24 15 21 13 24 15 10 6 5-1 9-6h2v5l-8 7-2 1-1 6v172l9 6 2 3v4l-6-2-8-5-6 2-19 12-23 14-24 15-26 16-40 25-7 5-4-1-21-13-23-14-22-14-18-11-24-15-15-9-19-12-4-4-1-6-1-174-15-9-26-16-21-13-24-15-23-14-21-13-11-7-3-4-1-74-10-7-28-17-21-13-7-6-1-143-1-5-6-1-10 7-20 12-4 1 4-5 22-13 6-4-5-4-40-25-28-17-19-12-14-9-3-3-1-3v-132l-2-1h2v-12l4-4 22-14 19-12 24-15 10-6 1-3 5-1 14-8 17-11 3-1v-123l-4 2-17 11-13 8-2-1 7-6 18-11 10-6 1-2v-17l-19-12-21-13-23-14-16-10-21-13-18-12-14 9-21 13-18 11-19 12-18 11-9 6-5 1-19-12-10-6-6-3-10-7-24-15-26-16-47-29-3-1-19 12-89 55-24 15-9 6-1 1h-5l-20-13-26-16-21-13-24-15-23-14-19-12-13-9v-162l6 1 1 157 5 4 39 24 47 29 21 13 24 15 3 2 7-1 24-15 23-14 21-13 24-15 23-14 22-14v-123l-19-12-42-26-18-11-13-9zm384 47-18 11-14 9-2 3 9 7 10 5 7 4 4-1 6-4 1-7v-27zm130 23-22 14-22 13-2 3 27 16 17 11 4 3 4-1 5-1 4 3 4-2 10-7 18-11 16-10 1-2-16-9-32-20-4 2-1 2-6-1zm-164 3 1 28 6-2 16-10 1-3-18-10-4-3zm520 3-10 7-19 12-13 8v110l20 12 22 14 4 3 4-1 19-12 52-32 19-12 1-1v-41l-6-12-11-7-28-17-24-15-21-13-4-3zm-486 7-5 4v3l-6 1-22 13v102l5-2 15-10 13-8 3-5-1-98zm4 106-15 10-12 7-9 6v2l12 7 21 13 11 7 9 6 6 3 16 10 21 13 14 9 3 2 7-1 20-12 13-8-2-4-18-11-24-15-23-14-16-10-21-13-11-7zm291 0-10 7-22 13-17 11-12 8-1 2 14 9 20 12 19 12 26 16 8 5 7-1 17-11 17-10 1-1v-28h2l-1 27 5-2 18-12-5-5-18-11-19-12-26-16-19-12zm-93 28-14 9-24 15-21 13-3 4 9 4 4 8 4-1 20-12 22-14 21-13v-2l-15-10zm237 1-19 13-3 4 5 5 16 9 18 12-10-5-17-11-10-6-7 1-1-1h-5l-7 5v2l25 15 15 10h7l12-8 23-14 4-4-5-4-24-15-13-8zm-218 18-22 13-21 13-18 11-7 4 2 4 5 4 20 12 24 15 18 11 13 9 2 3-15-10-13-8-21-13-18-11-14-10-3 1 1 130 10 6 17 10 26 16 9 7-4-2-22-14-20-12-14-9h-2v37l4 4 26 16 20 12 15 10 5-1 11-7 7-6 4-8 5-5v-17l-7 1 6-4v-90l2 1 1 86 5-2 17-11 23-14 16-11 6-9v-96l-1-2h-2l-1-5-3-8-10-7-20-12-19-12-20-12-7-5h-4l-1 4-5-2-4-5zm170 12-14 9-8 5 2 5 2 3 1 8 10 7 24 15 15 9 13 9 3 1 1-40-4-4-18-11-22-14zm99 1-28 18-12 7-5 4v45l15 10 1 2-13-9-3 1v113l8-4 15-10 6-5v-63l-9-6-3-5v-10l3-5 6-4h8l8 7 1 4v7l-5 8-6 3-1 2v61l12-6 11-7 5-6 1-1 2 6-6 1-14 9-10 6-1 1v49l7 5 1 2 5-1 19-12 24-15 19-12 7-5 1-140-3-6-26-16-24-15-12-8zm-365 16-19 12-15 9-4 3v16l11-7 20-12 4-3v-2l5-2v-14zm225 9-21 13-1 5 3 2-6 4v105l3 5 46 28 22 14 7 7 6-5 5-1 8 6-1 3 1 5 8-4 10-8-1-8h-2l2-2 1-119-1-3-16-10-20-12-16-10-14-10-6 5h-6l-6-4h-2v-6zm-224 8-20 13-15 9-4 3v127l10 7 20 12 19 12 21 13 23 14 20 13 1 1h5l8-6-5-5-24-15-26-16-10-7-1-159h-3l-6 5-5-2-5-5-1-14zm189 126-16 11-26 16-15 9-5 4v23l3 3 9-5 19-12 24-15 12-8v-23l-1-3zm10 0v26l9 6 18 11 16 10 21 13 7 5 7-1 7-5-2-5-4-6-2-5-11-9-20-12-23-14-21-14zm146 17-13 9-13 8v12l9 6 14 9 3 2h3v-46zm-389 14-10 7-18 11-3 3-2 6-8-1-13 8 6 10 19 12 23 14 26 16 20 13 1 2-14-8-19-12-23-14-16-10-15-10-4-2-4 2-5-2-3 3-23 14-16 10-13 8-1 1v135l10 7 22 13 19 12 23 14 24 15 11 7 3 1 2 3h6l10-7 19-11 11-7 5-4-2-5-1-9 6-7 3-2 1-106h1v22l-1 1v80l5 5 5 6 2 3 5-2 15-10 24-15 5-3v-145l-9-6-26-16-73-45-7-5zm239 0-16 10-19 12-21 13-6 4 1 5 5 5 22 13 17 11 20 12 6-2 20-12 24-15 17-10 2-1v-2l-14-8-19-12-23-14-13-9zm120 20-20 13-16 10v2l15 9 12 8 7 3 3 3 22-13 6-5-2-5-5 1 5-5-1-4-7-6-17-11zm-421 19-26 16-18 11-8 5-1 7 4-1 42-26 10-6v-6zm379 8-20 12-18 11-19 12-9 6-12 7-21 13-1 33v32l2 6 1 1-2 1-1 51v40l2 4 7 4 4-1 21-13 20-13 5-5 4-6v-74l-5 2-20 13 5-5 19-12 1-1 1-38 1 36 6-2 25-16 6-3-8 6-21 13-8 5-1 75 3 3 2 9-9 1v-2h-3v2l-5 2-23 15-16 9 2 4 9 5 16-10 19-12 14-9 14-8 17-11 26-16 10-7v-143l-6-5-20-12-11-8zm83 0-3 2v2l-5 2-22 14-8 5v144l14 9 23 14 21 13 19 12 16 10 6 2v-2l4-2 18-11 11-8 4-4 5-9v-116l-2-5-5-5v-7l-7-6-20-12-19-12-24-15-21-13zm-236 0-9 5-9 6 1 4 20 12 42 26 3 3h5l14-9 10-7-3-3-18-10-17-11-18-11-8-5-4 1-1 3-5 1-2-5zm-27 16-13 9v144l3 3 14 8 19 12 26 16 16 10 8 6h2v-155l-1-7-11-8-23-14-19-12-13-8-5-4zm104 22m118 136-17 11-28 17-14 9-15 9-18 11-22 14-3 4 2 5 10 7 28 17 24 15 25 15 25 16 3 2 5-1 15-10 13-8v-19h2l-1 17 4-1 20-12 19-12 26-16 14-9 1-7-9-7-17-10-9-6-24-15-28-17-24-15-5-4zm-239 0-15 10-23 14-14 9-6 5-8 3-17 11-31 19-1 1v144l4 4 25 15 21 13 11 7 1-100 11-8 20-12 19-12 26-16 19-12 8-5 15-9 21-13 6-5-1-7-22-14-28-17-19-12-16-10zm379 31-15 10-18 11-5 3 5 5 13 8 9-5 15-10v-13l-1-8zm2 28-14 9-5 3-1 7 5-2 15-10 2-3v-4zm-283 1 1 5 8 6 7 5 4 1v-5l-18-12zm-5 10-19 12-17 11-3 3-1 7-6-1-4-1-26 16-19 12-26 16-19 12-1 2v99l8 6 16 9 23 15 6-1 19-12 28-17 24-15 26-16 15-10 1-1v-131l-9-7-13-8zm30 18v128l8 6 17 10 24 15 23 14 19 12 17 11 4 3h3v-13l-1-4 1-19v-92l-8-6-14-9-4 4-4-1-3-5-2-5-10-7-23-14-24-15-21-13zm230 1-9 6-47 29-22 14-2 3 1 85 5 6 3 8 11 6 3 3-14-8-5-1-3 3-5-2-3-4 1-6 5-5v-85l-4 1-23 14-2 4v126l5-1 10-7 18-11 22-14 17-10 38-24 3-2v-128zm-233 132-17 11-52 32-19 12-18 11-11 7-6-1-17-11-21-13-5-4h-2v68l5 5 19 11 11 7 26 16 47 29 24 15 9 6 6-1 14-9 40-25 21-13 24-15 26-16 11-7 3-3v-37l-5-5-22-14-20-12-19-12-26-16-16-10zm119 119-21 13-26 16-24 15-26 16-20 12-3 3 4 4 4 8 10 7 14 8 24 15 17 11 3 3-19-12-21-13-15-9-13-9-5 1-1 3-6-3-1-2v-7-3l-13 8-3 3-1 173 2 5 17 10 42 26 23 14 19 12 18 11 19 12 5 1 11-6 14-9 18-11 84-52 13-8 1-2v-149l-1-28-22-14-18-11-21-13-17-10-25-16-34-21-3-2z" fill="#79D3FB"/>
<path transform="translate(984,482)" d="m0 0 1 2 5 2 18 11 5 4 7 3 2 2 22-13 4-2 6-1 2-3 4 1-3 3-17 11-15 9v144l23 14 47 29 22 14 6 3v-2l20-13 13-9h2l2-5 4-7 1-15h1l1-44h1l1 67v3l2 1v18l19-12 8-5h2v5l-11 8-17 10-1 3 2 6 3 3 6 5 1 5-3 1-6-4-5-4-5 2-15 10-5 3v128l1 4 22 13 19 12 14 9v6l-6-2-26-16-24-15-4-2-10 7-39 24-1 2 18 10 19 12 22 14 4 4-1 2-41-26-21-13-5-1-20 12-21 13v2l-8 3-9 6-1 1v40l28 17 24 15 10 6 24 15 21 13 24 15 10 6 5-1 9-6h2v5l-8 7-2 1-1 6v172l9 6 2 3v4l-6-2-8-5-6 2-19 12-23 14-24 15-26 16-40 25-7 5-4-1-21-13-23-14-22-14-18-11-24-15-15-9-19-12-4-4-1-6-1-174-15-9-26-16-21-13-24-15-23-14-21-13-11-7-3-4-1-74-10-7-28-17-21-13-7-6 1-126 1-13 2 1 1 30h1l1 107 5 2 23 14 21 13 12 8 5 1 5 5 22 13 20 13 6-1 19-12 28-17 24-15 26-16 15-10v-131l-4-4h6l6 3v3l7 2 9 4 2 1 1-2 26 16 21 13 20 12 25 16 3 2 5-1 15-10 12-7 1-19h2v9l-1 8 11-6 19-12 23-14 19-12 10-6 1-7-11-8-14-8-9-6-24-15-28-17-24-15-5-4-5 2-19 12-23 14-14 9-15 9-18 11-17 11h-2v-2l-3-1 4-4 24-15 17-11 14-8 17-11 26-16 9-6v-143l-5-4-20-12-11-8-1-4zm177 209-15 10-18 11-5 3 5 5 13 8 9-5 15-10v-13l-1-8zm2 28-14 9-5 3-1 7 5-2 15-10 2-3v-4zm-258 29v128l8 6 17 10 24 15 23 14 19 12 17 11 4 3h3v-13l-1-4 1-19v-92l-8-6-14-9-4 4-4-1-3-5-2-5-10-7-23-14-24-15-21-13zm230 1-9 6-47 29-22 14-2 3 1 85 5 6 3 8 11 6 3 3-14-8-5-1-3 3-5-2-3-4 1-6 5-5v-85l-4 1-23 14-2 4v126l5-1 10-7 18-11 22-14 17-10 38-24 3-2v-128zm-233 132-17 11-52 32-19 12-18 11-11 7-6-1-17-11-21-13-5-4h-2v68l5 5 19 11 11 7 26 16 47 29 24 15 9 6 6-1 14-9 40-25 21-13 24-15 26-16 11-7 3-3v-37l-5-5-22-14-20-12-19-12-26-16-16-10zm119 119-21 13-26 16-24 15-26 16-20 12-3 3 4 4 4 8 10 7 14 8 24 15 17 11 3 3-19-12-21-13-15-9-13-9-5 1-1 3-6-3-1-2v-7-3l-13 8-3 3-1 173 2 5 17 10 42 26 23 14 19 12 18 11 19 12 5 1 11-6 14-9 18-11 84-52 13-8 1-2v-149l-1-28-22-14-18-11-21-13-17-10-25-16-34-21-3-2z" fill="#D9F9FE"/>
<path transform="translate(666,425)" d="m0 0h1l1 9 19 12 26 16 19 12 28 17 20 13 5 2-2 3-9-1-24-15-78-48-7-5-4 1-19 12-10 7-3 7-8-1-12 7 5 8v2l5 2 14 9 23 14 26 16 20 13 3 4-6-2-13-8-16-10-23-14-16-10-15-10-4-2-4 2-4-2-10 7-17 10-16 10-13 8v135l16 10 78 48 14 9 4 2 1 2h6l10-7 19-11 11-7 4-3-2-5-1-9 7-8 2-1 1-106h3v22l-1 1v80l5 5 5 6 1 2 5-2 15-10 24-15 5-2v-6l2-1v-5l-1-4 1-3 1-57h2l1-2 1 79 6 2 26 16 24 15 18 11 13 9v-2l5 1 2 5 7 4 4-1 21-13 20-13 4-4 4-6 1-74-11 7-14 9-2-1 7-6 19-12 1-38 2-1v37l14-8 17-11 5-3 2 1-7 6-30 18-1 75 3 3 2 9-6 2-4-1v-2h-3v2l-38 24-6 2 5 5 6 3 5-1 2 1-1 4-4 4 2 5 14 9 4 3v2l-10-3-2-2-6-2-2-3-4-2-9-2-14-9-4 1-23 14-12 8-2 2-2 7-3 1-4-2-5 1-19 12-24 15-26 16-18 11-1 2-1 97h-5l-1-1v-100l9-7 23-14 19-12 26-16 19-12 8-5 15-9 21-13 5-4-1-7-18-11-47-29-19-12-6-3-15 10-23 14-14 9-6 5-8 3-17 11-31 19-1 39-2 1-1-31-1 12-1 105h-1l-1-122-1-5-6-1-10 7-20 12-4 1 4-5 22-13 6-4-5-4-40-25-28-17-19-12-14-9-3-3-1-3v-132l-2-1h2v-12l4-4 22-14 19-12 24-15 10-6 1-3 5-1 14-8 17-11 3-1v-2h2l1-3 3 2zm-66 53-26 16-18 11-8 5-1 7 4-1 42-26 10-6v-6zm280 242 1 5 8 6 7 5 4 1v-5l-18-12z" fill="#D6F8FE"/>
<path transform="translate(984,482)" d="m0 0 1 2 5 2 18 11 5 4 7 3 2 2 22-13 4-2 6-1 2-3 4 1-3 3-17 11-15 9v144l23 14 47 29 22 14 6 3v-2l20-13 13-9h2l2-5 4-7 1-15h1l1-44h1l1 67v3l2 1v18l19-12 8-5h2v5l-11 8-17 10-1 3 2 6 3 3 6 5 1 5-3 1-6-4-5-4-5 2-15 10-5 3v128l1 4 22 13 19 12 14 9v6l-6-2-26-16-24-15-4-2-10 7-39 24-1 2 18 10 19 12 22 14 4 4-1 2-41-26-21-13-5-1-20 12-21 13v2l-8 3-8 4-1-5 13-9 18-11 22-14 17-10 38-24 3-1v-128l-3-1v-6l3-3v-5l-11-8-14-8-9-6-24-15-28-17-24-15-5-4-5 2-19 12-23 14-14 9-15 9-18 11-17 11h-2v-2l-3-1 4-4 24-15 17-11 14-8 17-11 26-16 9-6v-143l-5-4-20-12-11-8-1-4zm177 209-15 10-18 11-5 3 5 5 13 8 9-5 15-10v-13l-1-8zm2 28-14 9-5 3-1 7 5-2 15-10 2-3v-4z" fill="#DBFAFE"/>
<path transform="translate(943,565)" d="m0 0h1v37l14-8 17-11 5-3 2 1-7 6-30 18-1 75 3 3 2 9-6 2-4-1v-2h-3v2l-38 24-6 2 5 5 6 3 5-1 2 1-1 4-4 4 2 5 14 9 4 3v2l-10-3-2-2-6-2-2-3-4-2-9-2-14-9-4 1-23 14-12 8-2 2-2 7-3 1-4-2-5 1-19 12-24 15-26 16-18 11-1 2-1 97h-5l-1-1v-100l9-7 23-14 19-12 26-16 19-12 8-5 15-9 21-13 5-4-1-7-18-11-47-29-19-12-6-3-15 10-23 14-6 3v-2h-5l4-4 38-24 5-2v-6l2-1v-5l-1-4 1-3 1-57h2l1-2 1 79 6 2 26 16 24 15 18 11 13 9v-2l5 1 2 5 7 4 4-1 21-13 20-13 4-4 4-6 1-74-11 7-14 9-2-1 7-6 19-12 1-38zm-63 155 1 5 8 6 7 5 4 1v-5l-18-12z" fill="#D2F7FE"/>
<path transform="translate(912)" d="m0 0h9l10 7 20 12 47 29 19 12 3 2h5l10-7 17-10 32-20 23-14 16-11h8l-1 3-24 15-21 13-23 14-11 7-18 11-6 4h-2l-1 16 18-11 3-2 4-10 3-1 2-4 4 2 5 8 1 6-9 4-4-2-4-1-14 9-7 4h-2l1 15 24-15 13-8 4-4 8-3 8-6 1-3v-28h2l1 29v4l-12 7h-2l4 4 28 17 24 15 10 6-1 3-17-10-24-15-21-13-4-3h-5l-10 7-19 12-12 7v110l16 9 23 15 6 4-3 1v2l-3 1-9-6-19-12-13-8-5 1-18 12-2 3 4 4 16 9 18 12 1 2-6-2-22-14-10-6-7 1-1-1h-5l-5 3-2-1 2-4 1-3 6-4 3-3 7-2 18-12 2-1v-106l-14 9-4 1 5-5 13-8v-14l-32 20-6 5-7 3-14 9v-3l10-7 6-4-4-4-20-12-23-14-13-9 2-1 17 10 26 16 14 9 3 2 5-1 19-12 17-11v-17l-10-7-73-45-17-11-6-5z" fill="#7CD5FB"/>
<path transform="translate(1166,192)" d="m0 0h1l1 6v55l9 4 2 2 6-1 10-7 5-1v5l-11 7-6 2v15l-3 7-5 5-3 1h-10l-6-3-2-4-9 3-1 9v136l10 7 20 12 24 15 2 1v7l-12-6-40-25-6-4-4 1-22 14-28 17-13 8-2 1-1 3h-5v-3l-2-2 9-5 17-11 26-16 20-13 1-140-2-5-26-16-32-20 1-4-2-1 4-1 13 8 24 15 22 14 4-1 4-3 1-13 4-7 6-5 6-1z" fill="#7AD4FB"/>
<path transform="translate(663,740)" d="m0 0 2 1 1 30h1l1 107 5 2 23 14 21 13 12 8 5 1 5 5 22 13 20 13 6-1 19-12 28-17 24-15 26-16 14-9 1 3-1 1h3l1-5 1-1v-27h-2l1-7h1v-59l1-25h1l1 119 9 6 23 14 21 13 18 11 19 12 17 11 7 5v4l-3 1-21-13-23-14-19-12-26-16-16-10-10-6-17 11-52 32-19 12-18 11-11 7-6-1-17-11-21-13-7-5-1 4v-2l-4-1-4-6-46-28-15-10-3-3 1-126z" fill="#EEFCFE"/>
<path transform="translate(828,243)" d="m0 0 6 2 8 4 5 5 7 3 5 2 3 4 12 6 6 5 8 4 1-2 11 7 7-1 6-3 1 1 4-2 3-3h5l1-4 5 1 1 2-10 5-12 8h-2l-1 5 4 2-6 4v105l2 4 46 28 22 14 7 7 6-5 5-1 6 5 3 2-1 3 1 6-5 4h-5v2l-3 1-7-11-2-5-12-9-21-13-20-12-23-15 1 26 63 39 7 5 5 1-3 2-5 2-14-8-19-12-23-14-13-9-4 1-20 12-19 12-9 5-1-4 4 1v-2h2v-4l5-4 20-12 17-11v-26l-7 3-13 9-26 16-15 9-4 3-1 5-2-2-5 2-3-1 6-4 1-90 3 1v86l32-20 19-12 10-7 5-8v-98h-2l-2-5-3-8-19-12-21-13-18-11-10-6z" fill="#D5F8FE"/>
<path transform="translate(876,1093)" d="m0 0h2v8l2-2v162l1 4 17 10 42 26 23 14 19 12 18 11 19 12 5 1 11-6 14-9 18-11 84-52 9-5 7 2-5 4-20 12-16 10-42 26-26 16-24 15-10 7-4-1-21-13-23-14-22-14-18-11-24-15-15-9-19-12-4-4-1-6v-123h2v-42z" fill="#D9F9FE"/>
<path transform="translate(895,741)" d="m0 0h6l6 3v3l7 2 9 4 2 1 1-2 26 16 21 13 20 12 25 16 3 2 5-1 15-10 12-7 1-19h2v9l-1 8 11-6 19-12 23-14 19-12 6-4h2l1 6-5 4-20 12-19 12-26 16-10 7 1 86 5 6 3 8 10 5 5 5-6-2-10-6-5-1-3 3-5-2-4-5 1-6 5-5 1-85-11 6-16 10-1 3-1 13-2 9-3 1-1-24-10-7-11-7-4 4-4-1-3-3-2-7-10-7-23-14-24-15-23-14-1 39v56l-2 2-1 3h2l1 2v25l-3 6-4 1v-2h2v-135z" fill="#DAFAFE"/>
<path transform="translate(984,482)" d="m0 0 1 2 5 2 18 11 5 4 7 3 2 2 22-13 4-2 6-1 2-3 4 1-3 3-17 11-15 9v144l23 14 47 29 4 3v3h-2l-1 3-21-13-23-14-24-15-5-4-5 2-19 12-23 14-14 9-15 9-18 11-17 11h-2v-2l-3-1 4-4 24-15 17-11 14-8 17-11 26-16 9-6v-143l-5-4-20-12-11-8-1-4z" fill="#DCFAFE"/>
<path transform="translate(666,425)" d="m0 0h1l1 9 19 12 26 16 19 12 28 17 20 13 5 2-2 3-9-1-24-15-78-48-7-5-4 1-19 12-10 7-3 7-8-1-12 7 5 8v2l5 2 14 9 23 14 26 16 20 13 3 4-6-2-13-8-16-10-23-14-16-10-15-10-4-2-4 2-5-3v-6l-8 4-21 13-18 11-6 4-3-1 4-5 4-1 1-4 38-24 18-11 9-6v-2l5-1 14-8 17-11 3-1v-2h2l1-3 3 2z" fill="#7ED6FB"/>
<path transform="translate(871,725)" d="m0 0 5 1 1 3h-2l-1 3-23 14-12 8-2 2-2 7-3 1-4-2-5 1-19 12-24 15-26 16-18 11-1 2-1 97h-5l-1-1v-100l9-7 23-14 19-12 26-16 19-12 8-5 15-9 21-13z" fill="#87D9FB"/>
<path transform="translate(1078,490)" d="m0 0 5 2 1 2 8 4 7 1 24 15 39 24 8 2 6-3 4-3h3v5l-6 7-3 9-2 4v127l7 8 2 3-4-2-4-3-5-1 1-3-1-1-1-22-2-1-1-101-1-4-5-4-1-7-2-4-22-14-21-13-24-15-11-7z" fill="#7CD5FB"/>
<path transform="translate(1159,1268)" d="m0 0 8 2-5 4-20 12-16 10-42 26-26 16-24 15-10 7-4-1-21-13-23-14-22-14-10-6v-1l7 1 6 3v2h5l5 5 7 3 4 2 7 2 15 9 19 12 5 1 11-6 14-9 18-11 84-52z" fill="#EEFCFE"/>
<path transform="translate(1140,313)" d="m0 0h1v117l3 1 2 4 20 12 19 12 15 9v7l-12-6-40-25-6-4-4 1-22 14-28 17-13 8-2 1-1 3h-5v-3l-2-2 9-5 17-11 26-16 20-13 1-119z" fill="#DAFAFE"/>
<path transform="translate(1133,743)" d="m0 0h2l1 6-5 4-20 12-19 12-26 16-10 7 1 86 5 6 3 8 10 5 5 5-6-2-10-6-5-1-3 3-5-2-4-5 1-6 5-5 1-85-11 6-14 9-2-1-1-4 6-5 16-10 5-3 1-19h2v9l-1 8 11-6 19-12 23-14 19-12z" fill="#D5F8FE"/>
<path transform="translate(601,484)" d="m0 0h2l-1 3-25 15-16 10-13 8-1 133-2 4h-3l-1-2v-132l-2-1h2v-12l4-4 10-6 1 4h-5l-2 4-1 4-1 5 9-5 19-12z" fill="#76D2FB"/>
<path transform="translate(383,55)" d="m0 0 6 2 4 6 2 7 19 12 21 13 13 9 3 3v2h2l3 6 1 10-4 6-6 5h-7l-7-5-3-6v-12l10-6 5-2-32-20-17-11-2-2-4 1-3 3-6-1-5-6-1-4 3-6z" fill="#74D2FB"/>
<path transform="translate(608,38)" d="m0 0h1l1 15 6 4 3 5v9l40 24 5 1 7-4 3 1-9 6 4 3 27 16 12 8 4 3 4-1 5-1 4 3 4-1-2 5-5 9h-4l-4-5-2-6-15-9-15-10-18-11-5 1-11 7-8 5-2-1 8-6 13-8 1-2-5-2-14-8-22-14-4 1-6 4-6-2-6-5-1-6 2-7 6-5 2-1 1-13z" fill="#77D3FB"/>
<path transform="translate(604,324)" d="m0 0h7l6 3 6 6 1 4v10l-3 6-5 5-4 2h-9l-6-4-5-7-1-9 3-8 5-5z" fill="#75D2FB"/>
<path transform="translate(663,740)" d="m0 0 2 1 1 30h1l1 107 5 2 23 14 16 10-1 3-5-1-8-7-5-2-9-2-19-12-4-4 1-126z" fill="#DCFAFE"/>
<path transform="translate(830,44)" d="m0 0h2l3 6 6 3 4 6 1 3v11l10 6 12 6v2h2v2l-9 2-24 15-11 7h-2v-2l17-11 21-12-1-3-12-7-4-3h-2l-5 5-4 2-8-1-8-7-2-7 1-7 4-6 8-5z" fill="#75D2FB"/>
<path transform="translate(1129,882)" d="m0 0 4 2 4-2-2 4-41 25-4 4 18 10 19 12 22 14 4 4-1 2-41-26-21-13-5-1-20 12-21 13v2l-8 3-8 4-1-5 13-9 18-11 22-14 17-10 19-12z" fill="#EDFBFE"/>
<path transform="translate(940,118)" d="m0 0 9 1 8 7 2 6-1 8-5 8-7 4h-6l-6-4-5-6-1-2v-9l3-7 6-5z" fill="#75D2FB"/>
<path transform="translate(1051,327)" d="m0 0h8l8 7 2 5v7l-6 9-6 2-1 59-2 1-1-59-8-5-4-6v-10l4-6z" fill="#79D4FB"/>
<path transform="translate(536,523)" d="m0 0 3 1-18 12-11 7v10l-4 7-6 4h-2l-1 2-10-5-4-5-1-3v-8l4-6 5-4 8-1 5 3 5 4 6-5 17-11z" fill="#75D2FB"/>
<path transform="translate(718,533)" d="m0 0 9 2 6 7 1 2v10l-5 8-5 3h-2v2l-4 1-4-4-6-4-3-6v-13h3v-2h2l1-3z" fill="#78D3FB"/>
<path transform="translate(899,48)" d="m0 0 6 1 6 3 5 8v8l-2 5-5 5-6 3-9-2-7-8-1-8 4-9 5-4z" fill="#76D2FB"/>
<path transform="translate(909,884)" d="m0 0 5 1 1 2h3l2-2 52 32 40 25 8 6v4l-3 1-21-13-23-14-19-12-26-16-16-10-3-2z" fill="#EEFCFE"/>
<path transform="translate(831,448)" d="m0 0h1l1 5 1 20 5-1 17-11 4 1-3 3h-2v2l-3 1-2 4-9 6h-2l4 8 14 8 24 15 21 13 2 2-2 1-15-8-22-14-18-11-8-5h-3l-2 4h-5l-3-4-9 5-6 4h-5v-4l13-9 4-5 3-6 4-4v-14z" fill="#84D8FB"/>
<path transform="translate(1161,949)" d="m0 0h10l6 4 3 3 1 3v9l-5 8-6 4h-6l-6-3-4-5-2-4v-7l3-7z" fill="#DCFBFF"/>
<path transform="translate(678,443)" d="m0 0 3 2v2l5 2 9 4 7 2 14 9 21 13 23 14 20 13 5 2-2 3-9-1-24-15-52-32-24-15 1-2z" fill="#D7F9FE"/>
<path transform="translate(719,568)" d="m0 0 2 1v22l-1 1v80l5 5 5 6 1 2 7 1-2 4-12 9-8 3-4 1-1-7-3-6v-6l7-8 2-1 1-106z" fill="#7DD5FB"/>
<path transform="translate(607,362)" d="m0 0 2 2v83l5 5 4 3-5-1-12-7-19-12-15-9-22-14-3-1-4 4h-5l-6-5-2-7 4-7 4-2 1-2h2l5 5 3 4 1 8 20 12 26 16 12 8 4 2z" fill="#7ED5FB"/>
<path transform="translate(943,565)" d="m0 0h1v37l14-8 17-11 5-3 2 1-7 6-30 18-1 75 3 3 2 9-6 2-4-1v-2h-3v2l-38 24-6 2v-2l21-13 20-13 4-4 4-6 1-74-11 7-14 9-2-1 7-6 19-12 1-38z" fill="#90DDFC"/>
<path transform="translate(830,358)" d="m0 0 3 1v86l32-20 19-12 10-7 4-6 4-1 2 2h-3v2l-2 2 1 3h3l1 9v11h-2l2 6-4 3-1-29-7 3-13 9-26 16-15 9-4 3-1 5-2-2-5 2-3-1 6-4z" fill="#A8E6FD"/>
<path transform="translate(939,535)" d="m0 0h7l8 6 2 3v9l-4 6-6 5h-6l-8-7-2-4v-8l7-8z" fill="#78D3FB"/>
<path transform="translate(1078,490)" d="m0 0 5 2 1 2 8 4 7 1 40 25 2 4 9 4 2 9-8-4-19-12-26-16-22-14z" fill="#DBFAFE"/>
<path transform="translate(711,698)" d="m0 0 2 2-1 5-23 14-13 8-8 5-1 39-2 1-1-31-1 12-1 105h-1l-1-122-1-6 2-4h6l10-7 19-11 11-7z" fill="#D9FAFE"/>
<path transform="translate(992,498)" d="m0 0h1v19l16-9v3l-15 9v43l6 4 3 4v6l-5 7-6 2-8-6-2-7 4-6 5-4 1-41-18 10-14 9-4 1 4-5 31-19z" fill="#DCFAFE"/>
<path transform="translate(1162,1365)" d="m0 0h8l6 4 3 3v11l-4 6-6 4-7-1-6-5-3-9 3-8z" fill="#EDFBFE"/>
<path transform="translate(495,673)" d="m0 0 7 2 6 7 1 7-1 5-7 7-7 1-6-4-4-5-1-2 1-9 6-7z" fill="#77D3FB"/>
<path transform="translate(828,243)" d="m0 0 6 2 8 4 5 5 7 3 5 2 3 4 12 6 6 5 8 4 1-2 11 7 7-1 6-3 1 1 4-2 3-3h5l1-4 5 1 1 2-10 5-12 8h-2l-1 5-1-2-7-1-2-2-5 1-10-7-20-12-19-12-20-12z" fill="#D8F9FE"/>
<path transform="translate(807,108)" d="m0 0 6 1 7 5 2 8-4 8-7 5-1 81h-1v-82l-5-2-5-5-1-3v-7l6-7z" fill="#7AD4FB"/>
<path transform="translate(829,328)" d="m0 0 6 1 6 4 2 2 1 9-4 8-6 4h-6l-7-6-2-4v-9l5-6z" fill="#76D2FB"/>
<path transform="translate(991,1126)" d="m0 0 5 1 6 4 3 5v9l-4 6-5 3-8-1-6-5-2-5 1-8 6-7z" fill="#EDFBFE"/>
<path transform="translate(1052,743)" d="m0 0 7 1 8 7v9l-4 7-6 4-7-1-6-7-2-7 2-6z" fill="#D5F8FE"/>
<path transform="translate(952,495)" d="m0 0 2 1-1 3 2 1-5 1-2-1 1 5-16 10-19 12-4 3-9 5-18 11h-3v-4-2l13-8 10-7 14-8 21-13z" fill="#95DFFC"/>
<path transform="translate(898,286)" d="m0 0 4 3 5 1v2l5 1-3 3-3 2-1 4-1 40v36l-1 11 1 6-4 1-1-96h-2l-2-5-1-1v-6z" fill="#76D3FB"/>
<path transform="translate(531,278)" d="m0 0h7l6 4 3 3v9l-4 9-6 1-1 3-2-1 1-2-5-1-5-5-3-7 1-5 5-6z" fill="#78D3FB"/>
<path transform="translate(718,35)" d="m0 0h1l1 19 5 4 2 3v9l6 2 26 16 15 9v3l-16-9-32-20-3 1-2 3-6-1-5-3-22 14-14 8v-3l24-15 10-6 1-4 1-5 5-5 2-1z" fill="#7DD5FB"/>
<path transform="translate(493,122)" d="m0 0h6l9 6v10l-4 6-5 4h-6l-6-5-3-6 1-9 6-5z" fill="#74D2FB"/>
<path transform="translate(898,618)" d="m0 0h7l7 6 1 2v8l-4 7-5 3-7-1-6-5-2-5 1-9z" fill="#DCFBFE"/>
<path transform="translate(912)" d="m0 0h9l10 7 20 12 21 13 7 4 1 3 11 7 1 2h-7l-19-12-23-14-19-12-11-8z" fill="#94DEFC"/>
<path transform="translate(920,415)" d="m0 0 11 6 23 14 22 14 7 7 6-5 5-1 6 5 3 2-1 3 1 6-5 4h-5v2l-3 1-7-11-2-5-12-9-21-13-20-12-9-6z" fill="#DCFBFF"/>
<path transform="translate(666,425)" d="m0 0h1l1 9 19 12 11 7-1 2-16-8-3-3-6 1-7-5-4 1-19 12-10 7-3 7-4-1-2-2 4-1-1-3-5 2-2-2 2-4 5-1 14-8 17-11 3-1v-2h2l1-3 3 2z" fill="#92DEFC"/>
<path transform="translate(365,411)" d="m0 0 12 7 42 26 13 9 4 2 7-5 5 3 5 5-2 8-4 5-4 1-8-7-1-7-11-8-47-29-11-7z" fill="#78D3FB"/>
<path transform="translate(348,279)" d="m0 0h8l7 6v10l-5 7-4 2-7-1-6-7-1-8 4-6z" fill="#75D2FB"/>
<path transform="translate(728,925)" d="m0 0 5 2 1 2 1 68-1 3-4-1-2-3z" fill="#75D2FB"/>
<path transform="translate(1079,247)" d="m0 0 5 2 23 14 24 15 11 7v5l-3-1v5l-2-2-1-3-26-16-32-20 1-4-2-1z" fill="#D2F7FE"/>
<path transform="translate(496,248)" d="m0 0h1l1 13 6 4 4 7-1 6-8 7-8-1-5-6-1-2v-6l4-7 5-1 1-4z" fill="#75D2FB"/>
<path transform="translate(605,745)" d="m0 0h6l7 6 1 2v6l-5 8-6 3-8-5-3-5v-9h2l2-4z" fill="#78D3FB"/>
<path transform="translate(1083,33)" d="m0 0h2l1 29v4l-12 7h-2l4 4 28 17 24 15 10 6-1 3-17-10-24-15-21-13-4-3h-5l-10 7-19 12-12 7-2-1v-5l2 3 24-15 13-8 4-4 8-3 8-6 1-3z" fill="#93DEFC"/>
<path transform="translate(1167,620)" d="m0 0h1l1 67v3l2 1v15l-2 2h-4l-2-16-5 2-12 8-18 11-5 2v-2l20-13 13-9h2l2-5 4-7 1-15h1z" fill="#D3F7FE"/>
<path transform="translate(900,958)" d="m0 0 6 2 5 5 1 2v6l-4 6-5 4-6-2-5-4-2-8 3-6 5-4z" fill="#EDFBFE"/>
<path transform="translate(352,392)" d="m0 0 7 4 3 4 1 5-2 5-5 5h-9l-5-6-1-7 4-6 4-3z" fill="#77D3FB"/>
<path transform="translate(1135,291)" d="m0 0v3l-15 10-20 12-14 9-1 73h-1l-1-9v-62l-12 7-2-1 6-5 8-5v-23l2-1 1 22 18-11 21-13z" fill="#C4F1FE"/>
<path transform="translate(807,450)" d="m0 0 7 1 6 5-1 9-5 7-4 3-2-2-6-5-2-4-1-7z" fill="#7CD5FB"/>
<path transform="translate(624,110)" d="m0 0 7 1 5 4 1 8-4 7-5 3-6-2-5-6-1-6 3-5z" fill="#76D2FB"/>
<path transform="translate(809,511)" d="m0 0h1l1 55 4 5 3 6 10 7 22 13 14 9 8 6-1 2-19-12-23-14-13-9h-3l-2 3-4-2-4-4 1-5 4-4z" fill="#DDFBFF"/>
<path transform="translate(1072,917)" d="m0 0 3 1v3l2 1-25 15-8 5v2l-8 3-8 4-1-5 13-9 18-11z" fill="#EDFBFE"/>
<path transform="translate(596,474)" d="m0 0h4v2l3 1-3 2-26 16-18 11-6 4-3-1 4-5 4-1 1-4 38-24z" fill="#D1F6FE"/>
<path transform="translate(607,362)" d="m0 0 2 2v83l5 5 4 3-5-1-12-7-19-12-15-9-9-6v-2l5 2 20 12 17 11 7 4z" fill="#C5F2FE"/>
<path transform="translate(626,221)" d="m0 0 2 2 3 5 4 7 3 5 20 12 14 9 8 6-2 1-26-16-16-11-4-2-3 4h-5l-6-6 2-6 4-5h2z" fill="#7BD4FB"/>
<path transform="translate(1152,887)" d="m0 0 6 1 2 1 4-1 22 14 14 9v6l-6-2-26-16-16-10z" fill="#ECFBFE"/>
<path transform="translate(1151)" d="m0 0h8l38 24 3 2v6l-10-5-19-12-16-10-4-4z" fill="#7FD6FB"/>
<path transform="translate(733,697)" d="m0 0 7 1 23 14 19 12 20 12 15 10 7 5-3 1-14-8-19-12-39-24-16-10z" fill="#B5EBFD"/>
<path transform="translate(992,904)" d="m0 0 7 3 4 10 13 10 2 1v2l-5-2-10-8-5 1-3 3-7-2-4-4 1-8 4-5z" fill="#EEFCFE"/>
<path transform="translate(1113,720)" d="m0 0 1 2-20 12-5 2 3 5v6l-5 6-4 1-9-10 2-4 7-5 7-2 15-9z" fill="#DBFAFE"/>
<path transform="translate(351,53)" d="m0 0 7 4 3 6v7l-7 5-5-1-6-6v-7l4-5 4-1z" fill="#75D2FB"/>
<path transform="translate(1087,910)" d="m0 0 2 1 1 4 18 10 19 12 22 14 4 4-1 2-41-26-21-13-5-1-7 4h-3l-1-5 7-5z" fill="#DDFBFF"/>
<path transform="translate(1142,293)" d="m0 0 2 4-1 133h-2l-1-3v-34l1-98z" fill="#87D9FB"/>
<path transform="translate(718,145)" d="m0 0 3 1v96l-3 1zm1 72 1 3z" fill="#81D7FB"/>
<path transform="translate(511,695)" d="m0 0 12 7 19 12 28 17 23 15 3 3-1 2-21-13-16-10-21-13-19-12-7-5z" fill="#9EE2FC"/>
<path transform="translate(943,565)" d="m0 0h1v37l14-8 17-11 5-3 2 1-7 6-30 18-1 7h-2v-5l-11 7-14 9-2-1 7-6 19-12 1-38z" fill="#D0F6FE"/>
<path transform="translate(963,700)" d="m0 0 7 2 23 14 19 12 21 13 9 8-1 2-13-9-13-8-21-13-23-14-8-6z" fill="#C8F3FE"/>
<path transform="translate(893,438)" d="m0 0 3 1-2 1-1 5-19 12-21 13-2-4 4 1v-2h2v-4l5-4 20-12z" fill="#CEF5FE"/>
<path transform="translate(915,73)" d="m0 0 6 2 21 13 23 14 12 8 5-1 8-5h2l-1 3-9 6-2 2-7 3-14 9v-3l10-7 6-4-4-4-20-12-23-14-13-9z" fill="#7CD5FB"/>
<path transform="translate(629,495)" d="m0 0h6l24 15 23 14 20 13 3 4-6-2-13-8-16-10-23-14-16-10z" fill="#A0E3FC"/>
<path transform="translate(1054,55)" d="m0 0 4 2 5 8 1 6-9 4-4-2-4-1-4 2v-3l2-1 4-10 3-1z" fill="#77D3FB"/>
<path transform="translate(736,282)" d="m0 0 11 6 24 15 28 17 12 8 8 7h-3l-19-12-16-10-31-19-14-10z" fill="#7DD5FB"/>
<path transform="translate(521,71)" d="m0 0 2 1-6 5-17 11-18 11-15 9-5 2 1 3 17 10 4 4-1 2-15-10-13-9 3-1 5-2 17-10 11-7 24-15z" fill="#74D2FB"/>
<path transform="translate(912)" d="m0 0h9l10 7 17 10v5l-3 1-26-16-7-6z" fill="#82D7FB"/>
<path transform="translate(830,358)" d="m0 0 3 1v69l-2 3-1-11z" fill="#D4F7FE"/>
<path transform="translate(1036,223)" d="m0 0 5 1 8 3 21 14-3 1v2l-3 1-9-6-19-12-2-2h2z" fill="#C6F2FE"/>
<path transform="translate(936,706)" d="m0 0 3 1 2 4-17 10-12 8h-2v-2l-3-1 4-4 24-15z" fill="#E7FBFF"/>
<path transform="translate(995,231)" d="m0 0h5l-2 4 4 4 16 9 18 12 1 2-6-2-22-14-10-6-7 1-1-1h-5l-5 3-2-1 2-4 1-3 4-1 7 1z" fill="#D2F7FE"/>
<path transform="translate(525,409)" d="m0 0v3l-14 9-13 8-24 15-18 12-2-1 8-7 19-12 40-25z" fill="#91DDFC"/>
<path transform="translate(1018,213)" d="m0 0 3 2v2l2 1-7 3-15 10-7 2-1 2h-7l2-4 3-3 7-2 18-12z" fill="#8ADAFB"/>
<path transform="translate(1133,743)" d="m0 0h2l1 6-5 4-20 12-3-1 1-4h2v-3z" fill="#C7F2FE"/>
<path transform="translate(716,398)" d="m0 0 4 2 2 2 2 5 2 3-12-2-15 10-19 12-8 4 1-3 20-13 17-11 3-3z" fill="#98E0FC"/>
<path transform="translate(1046,946)" d="m0 0 6 2 22 14 6 5v-2h7l3 2-1 6-4 7-1-3-3-1-5-9-20-13-10-7z" fill="#EDFCFE"/>
<path transform="translate(661,733)" d="m0 0 2 1 1 4 2-2v36h-1l-1-31-1 12-1 105h-1l-1-121z" fill="#74D2FB"/>
<path transform="translate(1076,1087)" d="m0 0 2 1-11 8-47 29-10 7h-2l2-4 38-24 21-13z" fill="#EFFCFE"/>
<path transform="translate(1046,675)" d="m0 0h5l2 4 9 1 5 3v3l6 2 5 5 16 7 5 1v3h-2l-1 3-21-13-23-14-6-4z" fill="#EDFBFF"/>
<path transform="translate(365,411)" d="m0 0 12 7 42 26 13 9 1 2-4-1-19-12-13-8-21-13-11-7z" fill="#D5F8FE"/>
<path transform="translate(690,895)" d="m0 0 7 3 7 6 5 2 5-1 12 8v5l-3 1-19-12-17-10z" fill="#EEFCFE"/>
<path transform="translate(908,1086)" d="m0 0 11 7 14 8 24 15 17 11 5 5-5-2-24-15-23-14-14-9-5-3-2-2z" fill="#EEFCFE"/>
<path transform="translate(1109,758)" d="m0 0h2v2l-2 1 1 5-21 13-4-2 4-6 14-9z" fill="#D1F6FE"/>
<path transform="translate(785,516)" d="m0 0h1v61l-3 1-1-31 1-19 1-1z" fill="#DAFAFE"/>
<path transform="translate(1047,267)" d="m0 0 14 8 14 9 3 3 8-2 3 3v6l-4 3-4-1-3-6-14-10-13-8-4-3z" fill="#D5F8FE"/>
<path transform="translate(1084,399)" d="m0 0 3 3v4l-9 4-13 8-8 5-2 6-1-4-7 4-9 6-1-3 11-7 5-4 2-5 2 3 21-12 5-6z" fill="#C1F0FD"/>
<path transform="translate(1198,692)" d="m0 0h2v5l-11 8-14 8-2-5 17-11z" fill="#EAFBFF"/>
<path transform="translate(725,914)" d="m0 0 9 2 5 5 7 4-1 4h-3l-5-2-3-2-1 4v-2l-4-1-4-6v-3z" fill="#DCFBFF"/>
<path transform="translate(638,448)" d="m0 0 3 1v2l4-1-3 3-10 7-3 7-4-1-2-2 4-1-1-3-5 2-2-2 2-4 5-1z" fill="#B5EBFD"/>
<path transform="translate(734,415)" d="m0 0 4 1 11 6 22 13 22 14 5 6-5-2-10-7-28-17-21-13z" fill="#DCFBFF"/>
<path transform="translate(363,71)" d="m0 0 5 2 15 9 23 14 21 14 1 2-6-2-15-10-20-12-19-12z" fill="#8FDDFC"/>
<path transform="translate(895,301)" d="m0 0 2 1-6 5-38 24-7 4-2-1 4-4 18-11 22-14z" fill="#7ED5FB"/>
<path transform="translate(942,612)" d="m0 0h2v68 3l-3-1z" fill="#AEE9FD"/>
<path transform="translate(851,77)" d="m0 0 17 8v2h2v2l-9 2-24 15-11 7h-2v-2l17-11 21-12-1-3-10-6z" fill="#80D6FB"/>
<path transform="translate(651,723)" d="m0 0 1 2 8-1 1 6h-8l-10 7-20 12-4 1 4-5 22-13 6-4-2-4z" fill="#B5EBFD"/>
<path transform="translate(952,495)" d="m0 0 2 1-1 3 2 1-5 1-2-1 1 5-16 10-1-2h-2v-2h2l-1-3 20-12z" fill="#7CD5FB"/>
<path transform="translate(442,228)" d="m0 0 4 2 4 9h-11l-20 12-6 2 3-3 17-11 5-4z" fill="#77D3FB"/>
<path transform="translate(1026,812)" d="m0 0 2 1-2 7-1 13-2 9-3 1-1-26-2-4 4 2 3 2z" fill="#7AD4FB"/>
<path transform="translate(713,464)" d="m0 0 4 1 12 7 26 16 6 4 1 3-5-2-9-5v-2l-6-2-9-6-5-3-4-2v-2l-6-1z" fill="#89DAFB"/>
<path transform="translate(495,153)" d="m0 0h2v69l-2-2z" fill="#8DDBFB"/>
<path transform="translate(890,733)" d="m0 0 3 1 4 5 7-1 21 14v2l-10-3-2-2-6-2-2-3-4-2-9-2-3-2z" fill="#7BD4FB"/>
<path transform="translate(901,399)" d="m0 0 3 2h-3v2l-2 2 1 3h3l1 9v11h-2l2 6-4 3-1-30-4-1 2-5z" fill="#7FD6FB"/>
<path transform="translate(543,303)" d="m0 0 6 1 20 12 20 13 3 3-1 2-22-14-21-13-5-3z" fill="#77D3FB"/>
<path transform="translate(839,247)" d="m0 0 5 1 22 14 21 13 1 3-6-2-6-4-5-4-10-5-2-4-5-1-8-4-7-6z" fill="#88DAFB"/>
<path transform="translate(601,484)" d="m0 0h2l-1 3-25 15-16 10-14 8v-3l9-5 19-12z" fill="#98E0FC"/>
<path transform="translate(626,134)" d="m0 0 2 2v56l-1 14h-1z" fill="#95DFFC"/>
<path transform="translate(1065,680)" d="m0 0 14 8 19 12-1 2-6-2-16-8-4-4-4-2z" fill="#DDFBFF"/>
<path transform="translate(719,568)" d="m0 0 2 1v22l-1 1-1 56h-1v-79z" fill="#74D2FB"/>
<path transform="translate(990,115)" d="m0 0 7 1 3 2-4 9-4 2-4-4-2-5 1-4z" fill="#7DD5FB"/>
<path transform="translate(900,848)" d="m0 0h3l1 2v25l-3 6-4 1v-2h2z" fill="#DBFAFE"/>
<path transform="translate(774,514)" d="m0 0 3 1-5 4-24 15-13 8v-3l11-8 10-6z" fill="#8ADAFB"/>
<path transform="translate(930,509)" d="m0 0h2v2h-2v2h2l-2 4-15 9-1-2 1-2h-2l2-4z" fill="#7FD6FB"/>
<path transform="translate(664,436)" d="m0 0h3l5 1 25 15v3l-16-8-3-3-6 1-7-5z" fill="#81D7FB"/>
<path transform="translate(962,931)" d="m0 0 2 1-8 5-16 11-22 14-4 1 5-5 10-7 24-15z" fill="#F4FCFE"/>
<path transform="translate(593,254)" d="m0 0 3 1-9 6-20 12-17 11-2-1 3-3 15-10 20-12z" fill="#8CDBFB"/>
<path transform="translate(904,302)" d="m0 0h1v92l-3-4v-7l1-5v-47z" fill="#DCFBFF"/>
<path transform="translate(1087,910)" d="m0 0 2 1 1 4 11 6v2l-5-1-7-5-6 1-5 3h-3l-1-5 7-5z" fill="#D5F8FE"/>
<path transform="translate(1064,751)" d="m0 0h3v9l-3 3-8 1-1-10z" fill="#7BD4FB"/>
<path transform="translate(535,310)" d="m0 0h1v58l-1 19h-1v-66z" fill="#DCFBFF"/>
<path transform="translate(882,96)" d="m0 0 11 6 23 14 10 7 2 3-5-2-20-12-19-12z" fill="#76D3FB"/>
<path transform="translate(626,459)" d="m0 0 2 1-1 5-6 1-12 7-3-2 2-5 9-5 8-1z" fill="#88DAFB"/>
<path transform="translate(894,406)" d="m0 0 5 1-4 2-16 11-21 13-2-1 4-4 21-13z" fill="#C7F3FE"/>
<path transform="translate(785,578)" d="m0 0h1v15h-2l1 8-1 47-2-4-1-4 1-3 1-57h2z" fill="#DCFBFF"/>
<path transform="translate(629,495)" d="m0 0h6l32 20-2 1-6-2-30-18z" fill="#91DDFC"/>
<path transform="translate(728,71)" d="m0 0 5 1 26 16 15 9v3l-16-9-16-10-14-9z" fill="#8DDBFB"/>
<path transform="translate(521,71)" d="m0 0 2 1-6 5-17 11-18 11-2 1 1-4 10-6 24-15z" fill="#7FD6FB"/>
<path transform="translate(941,682)" d="m0 0h5l3 7-1 4-7 1-5-5 4-6z" fill="#86D9FB"/>
<path transform="translate(634,235)" d="m0 0 4 5 20 12 14 9 8 6-2 1-26-16-16-11-3-4z" fill="#AFE9FD"/>
<path transform="translate(871,725)" d="m0 0 5 1 1 3h-2l-1 3-11 6-2-3 2-1-2-3z" fill="#94DEFC"/>
<path transform="translate(915,73)" d="m0 0 6 2 21 13 15 9-1 3-20-12-17-11z" fill="#B7ECFD"/>
<path transform="translate(928,755)" d="m0 0 4 1 20 12 4 3-1 3-2-2-8-3-6-5-10-5z" fill="#83D7FB"/>
<path transform="translate(1171,724)" d="m0 0h2l3 3 6 5 1 5-3 1-6-4-5-4-1-3z" fill="#80D7FB"/>
<path transform="translate(1197,250)" d="m0 0h3v5l-11 7-5 2 1-6 10-7z" fill="#A5E5FC"/>
<path transform="translate(1036,223)" d="m0 0 5 1 8 3 1 3 4 4-1 2-4-1-15-9 2-1z" fill="#D7F9FE"/>
<path transform="translate(495,566)" d="m0 0 2 1v61h-1l-1-31z" fill="#DCFBFF"/>
<path transform="translate(708,69)" d="m0 0 2 2-22 14-14 8v-3l24-15z" fill="#8EDCFC"/>
<path transform="translate(904,875)" d="m0 0 11 7 4 3-1 3-5-1-1-2h-5l-5-3-2-1 3-5z" fill="#EEFCFF"/>
<path transform="translate(733,697)" d="m0 0 7 1 21 13 3 5-5-2-21-13z" fill="#BAEDFD"/>
<path transform="translate(972,35)" d="m0 0 7 1 1 3 11 7 1 2h-7l-14-9z" fill="#D6F8FE"/>
<path transform="translate(987,521)" d="m0 0 2 1-3 3-18 11-10 6-2-1 6-5 19-12z" fill="#84D8FB"/>
<path transform="translate(963,700)" d="m0 0 7 2 23 14-1 2-5-1-20-13z" fill="#B9EDFD"/>
<path transform="translate(511,695)" d="m0 0 12 7 19 12v1l-7-1-17-11-7-5z" fill="#A2E4FC"/>
<path transform="translate(400,260)" d="m0 0 2 1-10 7-16 10-7 5-4 1v-2l15-10 13-8z" fill="#85D8FB"/>
<path transform="translate(900,2)" d="m0 0h2v43l-2 1z" fill="#83D8FB"/>
<path transform="translate(920,716)" d="m0 0 4 1-2 4-2 1v2l-8 5h-2v-2l-3-1 4-4z" fill="#EBFBFF"/>
<path transform="translate(717,307)" d="m0 0h1v84h-1z" fill="#DAFAFE"/>
<path transform="translate(830,358)" d="m0 0 3 1v18h-1l-1 29h-1z" fill="#74D2FB"/>
<path transform="translate(1135,291)" d="m0 0v3l-15 10-14 8 1-4 25-15z" fill="#8EDCFC"/>
<path transform="translate(874,1090)" d="m0 0h5l1 9-2 3-1-3 1-6h-2l-1 45h-1z" fill="#74D2FB"/>
<path transform="translate(536,523)" d="m0 0 3 1-27 18-3-1 6-5 17-11z" fill="#7FD6FB"/>
<path transform="translate(584,481)" d="m0 0h3v2l-3 1-5 5-5 2h-3l-1 5h-7l-1 3h-2v2l-3-1 5-5 21-13z" fill="#83D8FB"/>
<path transform="translate(565,495)" d="m0 0 4 1v2l-13 8-6 4-3-1 4-5 4-1 1-4 2-1v2l2 1v-2z" fill="#DCFBFE"/>
<path transform="translate(525,409)" d="m0 0v3l-14 9-9 6-4-1 10-7 13-8z" fill="#84D8FB"/>
<path transform="translate(1046,946)" d="m0 0 6 2 22 14 5 6-4-2-16-10-12-8z" fill="#F5FCFE"/>
<path transform="translate(1159,1268)" d="m0 0 8 2-5 4-8 5-3-1v-5z" fill="#E9FBFF"/>
<path transform="translate(731,945)" d="m0 0 2 3 1 26-1 10-2-1z" fill="#DCFBFF"/>
<path transform="translate(1084,399)" d="m0 0 3 3v4l-9 4-13 8-2-2 16-10 4-5z" fill="#D1F6FE"/>
<path transform="translate(801,736)" d="m0 0 11 7 9 6 3 3-5-1-20-12-1-2z" fill="#CDF5FE"/>
<path transform="translate(1147,697)" d="m0 0h4v2l-18 11-10 5v-2l20-13z" fill="#9AE1FC"/>
<path transform="translate(1104,503)" d="m0 0 11 6 11 7 1 3-6-2-10-6-4-3-3-2z" fill="#80D7FB"/>
<path transform="translate(535,109)" d="m0 0m-2 1h2l-2 4-16 10-7 4-2-1 9-7z" fill="#75D2FB"/>
<path transform="translate(571,735)" d="m0 0 7 1 15 10 3 3-1 2-21-13z" fill="#A3E4FC"/>
<path transform="translate(948,1111)" d="m0 0 11 6 15 10 5 5-5-2-24-15z" fill="#F2FCFE"/>
<path transform="translate(941,502)" d="m0 0 1 2-1 6-9 5v-2h-2v-2h2l-1-3z" fill="#ADE8FD"/>
<path transform="translate(816,73)" d="m0 0h2l-2 4-22 14-2-1 8-7z" fill="#7BD5FB"/>
<path transform="translate(398,93)" d="m0 0 5 1 24 16 1 2-6-2-24-16z" fill="#7AD4FB"/>
<path transform="translate(1021,734)" d="m0 0 12 7 9 8-1 2-13-9-9-6z" fill="#CCF4FE"/>
<path transform="translate(851,94)" d="m0 0m-2 1h2l-1 3-24 15h-2v-2l17-11z" fill="#8BDBFB"/>
<path transform="translate(1083,1079)" d="m0 0h4l1 2v6l-1 1-9-1v-2h2l2-5z" fill="#E1FBFF"/>
<path transform="translate(992,498)" d="m0 0h1v19l16-9v3l-13 8h-4l-1-9z" fill="#A9E7FD"/>
<path transform="translate(1034,805)" d="m0 0h2l1 6-8 5-2-1-1-4 6-5z" fill="#C1F0FD"/>
<path transform="translate(807,450)" d="m0 0 7 1 4 4-3 1-1-2h-3l-4 4-5-3z" fill="#D7F9FE"/>
<path transform="translate(895,301)" d="m0 0 2 1-6 5-17 11v-3l9-7z" fill="#81D7FB"/>
<path transform="translate(558,418)" d="m0 0 5 2 18 11 1 3-5-2-18-11z" fill="#D8F9FE"/>
<path transform="translate(1010,245)" d="m0 0 4 1 18 11 5 5-6-2-20-13z" fill="#BBEEFD"/>
<path transform="translate(1015,88)" d="m0 0m-1 1m-2 1h2l-1 3-17 11-4 2 2-4 10-7z" fill="#7AD4FB"/>
<path transform="translate(992,148)" d="m0 0h1v59h-1z" fill="#DCFBFF"/>
<path transform="translate(1164,694)" d="m0 0 3 2v4h2l1-3 1 9-2 2h-4z" fill="#74D2FB"/>
<path transform="translate(584,679)" d="m0 0 4 1 15 9v3l-14-7-5-4z" fill="#7CD5FB"/>
<path transform="translate(937,607)" d="m0 0v3l-20 13-2-1 7-6z" fill="#E3FBFE"/>
<path transform="translate(716,398)" d="m0 0 4 2 2 2 2 5 2 3-9-2 1-5h-3l-1 2 1-5z" fill="#80D6FB"/>
<path transform="translate(666,425)" d="m0 0h1l1 9 2 2h-3l-1 2-1 1-6-1-1-3h2v-2h2l1-3 3 2z" fill="#DAFAFE"/>
<path transform="translate(1133,743)" d="m0 0h2l1 6-5 4-5-1v-2l2-1 2-4z" fill="#86D9FB"/>
<path transform="translate(690,895)" d="m0 0 7 3 7 6 2 1v2l-5-2-14-8z" fill="#EDFBFF"/>
<path transform="translate(719,568)" d="m0 0 2 1v22l-2 1-1-23z" fill="#DCFBFF"/>
<path transform="translate(753,527)" d="m0 0m-2 1 2 1v2l-18 11v-3l11-8z" fill="#8EDCFC"/>
<path transform="translate(581,432)" d="m0 0 5 2 17 11 3 2v2l-5-2-19-12z" fill="#97E0FC"/>
<path transform="translate(1084,985)" d="m0 0h1v40h-1l-1-21v-14z" fill="#EEFCFF"/>
<path transform="translate(590,98)" d="m0 0 12 6 11 8 2 3-5-2-17-11-3-2z" fill="#8BDBFB"/>
<path transform="translate(783,726)" d="m0 0 4 1 14 9v1h-5l-11-7z" fill="#A6E5FC"/>
<path transform="translate(607,432)" d="m0 0h2v15l5 5 4 3-5-1-7-4z" fill="#DCFBFF"/>
<path transform="translate(894,406)" d="m0 0 5 1-4 2-14 10-4-1 11-8z" fill="#BEEFFD"/>
<path transform="translate(700,898)" d="m0 0 6 2 6 4-1 3-5-1-7-6z" fill="#DDFBFF"/>
<path transform="translate(1181,703)" d="m0 0 2 1 1 4-9 5-2-5z" fill="#EEFCFF"/>
<path transform="translate(679,442)" d="m0 0 10 5 9 6-1 2-16-8z" fill="#7ED6FB"/>
<path transform="translate(644,444)" d="m0 0h6v4l-7 3h-2l-1-4z" fill="#8FDCFC"/>
<path transform="translate(1142,404)" d="m0 0h1v26h-2l-1-3v-10l1-1z" fill="#A3E4FC"/>
<path transform="translate(547,656)" d="m0 0 5 2 9 5v3l-9-3-6-5z" fill="#7ED6FB"/>
<path transform="translate(713,464)" d="m0 0 4 1 12 7 3 3-6-1-2-1v-2l-6-1z" fill="#84D8FB"/>
<path transform="translate(464,114)" d="m0 0 11 6 8 6v3l-15-10-4-3z" fill="#74D2FB"/>
<path transform="translate(651,723)" d="m0 0 1 2 8-1 1 6h-6l-6-4v-2z" fill="#83D7FB"/>
<path transform="translate(717,402)" d="m0 0 2 2h-2l1 3-7 3-7 4-2-2 9-6z" fill="#C4F1FE"/>
<path transform="translate(915,73)" d="m0 0 6 2 16 10v2l-6-2-12-8z" fill="#90DDFC"/>
<path transform="translate(1039,91)" d="m0 0 3 1-5 4-12 7-2-1v-5l2 3z" fill="#ADE8FD"/>
<path transform="translate(958,24)" d="m0 0 11 6 6 4-3 1-1 3-4-2 2-3-4-1-4-4-3-2z" fill="#83D8FB"/>
<path transform="translate(913,529)" d="m0 0 10 6 5 4v2h2v2l-5-2-7-6-3-1z" fill="#93DEFC"/>
<path transform="translate(831,448)" d="m0 0h1l1 5v15h-2l-1-6v-8z" fill="#7AD4FB"/>
<path transform="translate(830,420)" d="m0 0h1l1 8h1v13h-3z" fill="#74D2FB"/>
<path transform="translate(593,254)" d="m0 0 3 1-9 6-9 5 1-4z" fill="#8EDCFC"/>
<path transform="translate(433,239)" d="m0 0m-2 1 2 1v2l-18 10-2-1z" fill="#92DEFC"/>
<path transform="translate(958,26)" d="m0 0 6 3 6 4-4 3-7-4 1-4h-2z" fill="#D4F8FE"/>
<path transform="translate(1113,720)" d="m0 0 1 2-15 9h-3v-2l12-7z" fill="#C1F0FD"/>
<path transform="translate(565,668)" d="m0 0 5 1 10 6v2l-9-3-6-4z" fill="#80D6FB"/>
<path transform="translate(688,291)" d="m0 0m-2 1 2 1v2l-15 9v-3l10-7z" fill="#84D8FB"/>
<path transform="translate(873,267)" d="m0 0 11 6 4 3v2l-6-2-6-4-3-3z" fill="#89DAFB"/>
<path transform="translate(975,783)" d="m0 0 11 6 2 1v2l-6-1-9-6z" fill="#82D7FB"/>
<path transform="translate(733,697)" d="m0 0 7 1 10 6-4 2-13-8z" fill="#99E0FC"/>
<path transform="translate(943,597)" d="m0 0h1v5l2 1-2 9h-2v-5l-4 1v-2l3-2z" fill="#DCFBFF"/>
<path transform="translate(805,465)" d="m0 0 2 1v3l6-1 1 2h-3v5l-8-6-1-3z" fill="#D7F9FE"/>
<path transform="translate(830,441)" d="m0 0h3l-1 6 2 1-1 5-2-2-5 2-3-1 6-4z" fill="#D7F9FE"/>
<path transform="translate(1197,250)" d="m0 0h3v5l-5 3-4-4z" fill="#B4EBFD"/>
<path transform="translate(450,239)" d="m0 0 4 1 8 4 8 7h-3l-14-9z" fill="#7BD4FB"/>
<path transform="translate(924,714)" d="m0 0 4 2v-2l4 1-3 3-9 5v-3l2 1 1-4-1-2z" fill="#EDFBFF"/>
<path transform="translate(972,115)" d="m0 0 3 1-5 4-12 7 2-4z" fill="#83D8FB"/>
<path transform="translate(382,83)" d="m0 0 4 1 13 8-2 2-15-9z" fill="#DCFBFF"/>
<path transform="translate(910,881)" d="m0 0 5 1 4 3-1 3-5-1-1-2-5-2z" fill="#DEFBFF"/>
<path transform="translate(651,728)" d="m0 0h2v2l-10 7-5 2v-3z" fill="#D4F7FE"/>
<path transform="translate(971,530)" d="m0 0m-1 1m-2 1 2 1v2l-12 7-2-1 6-5z" fill="#8EDCFC"/>
<path transform="translate(957,98)" d="m0 0 8 4 8 5-1 3-14-9z" fill="#99E0FC"/>
<path transform="translate(985,1134)" d="m0 0 2 1v4h-2l1 4-4-2 1 3-2 1-1-7 2-2h3z" fill="#D3F7FE"/>
<path transform="translate(788,658)" d="m0 0 5 1 9 6v2l-5-2-7-3-1-2-3-1z" fill="#89DAFB"/>
<path transform="translate(601,484)" d="m0 0h2l-1 3-14 8-2-2z" fill="#A6E5FC"/>
<path transform="translate(497,426)" d="m0 0 3 2-13 8-3-1 5-4z" fill="#98E0FC"/>
<path transform="translate(859,259)" d="m0 0 5 2 9 5v2l-7-2-6-4z" fill="#82D7FB"/>
<path transform="translate(1046,946)" d="m0 0 6 2 10 7-1 2-14-9z" fill="#EFFCFE"/>
<path transform="translate(963,700)" d="m0 0 7 2 6 4 2 4-5-2-10-7z" fill="#CDF5FE"/>
<path transform="translate(838,522)" d="m0 0 5 2 2 3 4 2-2 3-9-6v-3z" fill="#DCFBFF"/>
<path transform="translate(638,448)" d="m0 0 3 1v2l4-1-3 3-4 2v-2h-6l3-3z" fill="#CAF4FE"/>
<path transform="translate(1076,408)" d="m0 0h2l-1 3-12 7-2-2z" fill="#D3F7FE"/>
<path transform="translate(1026,324)" d="m0 0 7 3 8 6v2l-5-2-8-6h-3z" fill="#8EDCFC"/>
<path transform="translate(708,69)" d="m0 0 2 2-14 9-1-2 3-3z" fill="#A8E6FD"/>
<path transform="translate(1178,1269)" d="m0 0 5 5v4l-6-2-1-2z" fill="#EFFCFE"/>
<path transform="translate(761,712)" d="m0 0 5 2 6 4 2 4-5-2-5-3z" fill="#ACE8FD"/>
<path transform="translate(1185,700)" d="m0 0h4l1 4-5 3-3-1v-4z" fill="#DEFBFF"/>
<path transform="translate(1147,697)" d="m0 0h4v2l-12 7-1-3z" fill="#A3E4FC"/>
<path transform="translate(1161,688)" d="m0 0m-3 1h3v3l-9 6-3-2 7-5h2z" fill="#DCFBFF"/>
<path transform="translate(952,495)" d="m0 0 2 1-1 3 2 1-5 1-2-1 1 5h-3l-1-2h2l-1-4z" fill="#D9F9FE"/>
<path transform="translate(1049,424)" d="m0 0h2l-1 3-12 8-1-3 11-7z" fill="#D9F9FE"/>
<path transform="translate(561,273)" d="m0 0 2 1-5 5-8 5-2-1 3-3z" fill="#82D7FB"/>
<path transform="translate(1042,72)" d="m0 0 1 3-14 8v-3z" fill="#82D7FB"/>
<path transform="translate(962,931)" d="m0 0 2 1-8 5-7 5-4-1z" fill="#F6FCFE"/>
<path transform="translate(561,726)" d="m0 0 12 7 1 2-6-1-5-3z" fill="#92DEFC"/>
<path transform="translate(1040,486)" d="m0 0 2 1-10 8-7 4-2-1z" fill="#C6F2FE"/>
<path transform="translate(1111,757)" d="m0 0h4l-2 7-5 1 1-5h2z" fill="#80D6FB"/>
<path transform="translate(693,532)" d="m0 0 5 2 7 6-2 1-10-6z" fill="#77D3FB"/>
<path transform="translate(569,491)" d="m0 0m-2 1h2l1 4h-7l-1 3h-2v2l-3-1 5-5z" fill="#86D9FB"/>
<path transform="translate(750,486)" d="m0 0 5 2 6 4 1 3-5-2-6-3z" fill="#9DE2FC"/>
<path transform="translate(525,409)" d="m0 0v3l-9 6h-2v-3z" fill="#D8F9FE"/>
<path transform="translate(1154,1271)" d="m0 0 2 1 1 5-5 2-1-4v-2z" fill="#DEFBFF"/>
<path transform="translate(1170,680)" d="m0 0h1l2 8 8 8h-3l-7-5-2-9z" fill="#C2F0FE"/>
<path transform="translate(878,609)" d="m0 0 2 2 1 6 6 4h-3l-3-1-2 3-1-4z" fill="#DFFBFF"/>
<path transform="translate(980,580)" d="m0 0 2 1-7 6-6 3 1-4z" fill="#E1FBFE"/>
<path transform="translate(912,520)" d="m0 0 1 2h2l-1 5-10-2 2-2z" fill="#DCFBFF"/>
<path transform="translate(764,520)" d="m0 0m-2 1 2 1-5 5-5 3-2-1 7-6z" fill="#81D7FB"/>
<path transform="translate(626,455)" d="m0 0 3 1-4 5-4 1-2-2 2-4z" fill="#DCFBFF"/>
<path transform="translate(734,415)" d="m0 0 4 1 11 6 2 2h-4l-13-8z" fill="#C8F3FE"/>
<path transform="translate(544,409)" d="m0 0 8 4 6 4v2l-5-2-9-6z" fill="#97E0FC"/>
<path transform="translate(1019,1122)" d="m0 0 2 2-11 8h-2l2-4z" fill="#F4FCFE"/>
<path transform="translate(1179,730)" d="m0 0 4 4-1 4-6-2 2-1z" fill="#DCFBFF"/>
<path transform="translate(629,495)" d="m0 0h6l6 4-1 3-11-6z" fill="#B3EBFD"/>
<path transform="translate(658,439)" d="m0 0 3 1-4 4-6 3-1-2-4-2 3-1h8z" fill="#DCFBFF"/>
<path transform="translate(483,435)" d="m0 0h2l-1 3-10 6-2-1 7-6z" fill="#7ED5FB"/>
<path transform="translate(1014,107)" d="m0 0v3l-12 7-2-1 10-7z" fill="#B7ECFD"/>
<path transform="translate(521,71)" d="m0 0 2 1-6 5-8 5 2-4z" fill="#81D7FB"/>
<path transform="translate(890,733)" d="m0 0 3 1 4 7-5-1-3-2z" fill="#81D7FB"/>
<path transform="translate(810,489)" d="m0 0 3 1-2 6h-5v-4z" fill="#9DE2FC"/>
<path transform="translate(1080,325)" d="m0 0m-2 1 3 1-3 3-7 4-2-1 6-5z" fill="#96DFFC"/>
<path transform="translate(930,280)" d="m0 0 2 1-9 7-5 3-2-1 11-8z" fill="#ABE7FD"/>
<path transform="translate(571,735)" d="m0 0 7 1 4 4v2l-5-2-6-4z" fill="#CAF3FE"/>
<path transform="translate(539,715)" d="m0 0h5l6 4v3l-5-2-6-4z" fill="#BFEFFD"/>
<path transform="translate(702,457)" d="m0 0 4 1 6 4v2l-4-1-7-4z" fill="#85D9FB"/>
<path transform="translate(377,274)" d="m0 0m-2 1 2 1-5 5-7 3v-2z" fill="#89DAFB"/>
<path transform="translate(465,106)" d="m0 0 2 2-5 2 2 5-5-2-4-4h5z" fill="#89DAFB"/>
<path transform="translate(920,716)" d="m0 0 4 1-2 4-4 2-2-2 1-3z" fill="#DDFBFF"/>
<path transform="translate(935,690)" d="m0 0 3 1h-2v2l-9 5 1-4z" fill="#CDF5FE"/>
<path transform="translate(496,647)" d="m0 0h1v18l-2-2v-10z" fill="#DCFBFF"/>
<path transform="translate(1138,525)" d="m0 0 4 1 9 5-3 1-7-3z" fill="#86D9FB"/>
<path transform="translate(701,413)" d="m0 0h3v2l-10 6-2-1 7-6z" fill="#86D9FB"/>
<path transform="translate(922,272)" d="m0 0 2 1-3 4-3 2-5 2v-3z" fill="#86D9FB"/>
<path transform="translate(388,267)" d="m0 0m-2 1h2l-1 3-9 6-2-1 8-7z" fill="#74D2FB"/>
<path transform="translate(1083,63)" d="m0 0h4l-1 3-7 4-3-1z" fill="#7FD6FB"/>
<path transform="translate(843,439)" d="m0 0h2v2l-10 6h-3v-2z" fill="#9EE2FC"/>
<path transform="translate(865,425)" d="m0 0 2 1-4 4-5 3-2-1 4-4z" fill="#BAEDFD"/>
<path transform="translate(904,413)" d="m0 0h1v20l-3-3v-2h2l-1-11z" fill="#DCFBFF"/>
<path transform="translate(383,32)" d="m0 0h2v17l-2-4z" fill="#74D2FB"/>
<path transform="translate(1065,761)" d="m0 0v3l-3 4h-4l2-6z" fill="#A8E6FD"/>
<path transform="translate(636,737)" d="m0 0 3 1-4 4-5 2-2-2z" fill="#B0E9FD"/>
<path transform="translate(530,708)" d="m0 0 6 2 6 4v1l-7-1z" fill="#88D9FB"/>
<path transform="translate(780,638)" d="m0 0 1 2 2 1h-2l2 3v5l-3 1z" fill="#74D2FB"/>
<path transform="translate(698,285)" d="m0 0m-2 1h2l-1 3-8 5-2-1 6-5z" fill="#74D2FB"/>
<path transform="translate(668,259)" d="m0 0 10 6 2 3-5-2-7-4z" fill="#D8F9FE"/>
<path transform="translate(835,104)" d="m0 0m-2 1h2l-1 3-8 5h-2v-2z" fill="#7CD5FB"/>
<path transform="translate(1054,25)" d="m0 0 2 1v16h-2l-1-15z" fill="#8CDBFB"/>
<path transform="translate(676,712)" d="m0 0 2 1-13 8-2-1z" fill="#C5F2FE"/>
<path transform="translate(616,238)" d="m0 0v3l-8 7v-3z" fill="#90DDFC"/>
<path transform="translate(787,107)" d="m0 0 5 2 6 5-1 2-10-8z" fill="#9EE2FC"/>
<path transform="translate(718)" d="m0 0h1v20l-2-1z" fill="#87D9FB"/>
<path transform="translate(1012,447)" d="m0 0 2 1-7 6-3 1 1-3z" fill="#D7F9FE"/>
<path transform="translate(607,453)" d="m0 0 2 3-1 8h-1z" fill="#C2F0FE"/>
<path transform="translate(830,26)" d="m0 0 2 3v3h-2l-1-4z" fill="#86D9FB"/>
<path transform="translate(350,1309)" d="m0 0h4v2h-5z" fill="#FDFDFE"/>
<path transform="translate(1070,745)" d="m0 0h2l-1 3-3 1z" fill="#E0FBFF"/>
<path transform="translate(809,478)" d="m0 0h1v6l-2 1z" fill="#DCFBFF"/>
<path transform="translate(1084,629)" d="m0 0 1 4h-2z" fill="#E6FBFF"/>
<path transform="translate(482,259)" d="m0 0 5 2-2 1z" fill="#74D2FB"/>
<path transform="translate(696,277)" d="m0 0 4 2h-3z" fill="#A8E6FD"/>
<path transform="translate(351,47)" d="m0 0 2 1-1 3z" fill="#A8E6FD"/>
<path transform="translate(534,32)" d="m0 0h1v6h-1z" fill="#74D2FB"/>
<path transform="translate(965,929)" d="m0 0 2 1h-3z" fill="#F1FCFE"/>
<path transform="translate(679,710)" d="m0 0 2 1h-3z" fill="#DCFBFF"/>
<path transform="translate(685,706)" d="m0 0 2 1h-3z" fill="#DCFBFF"/>
<path transform="translate(688,704)" d="m0 0 2 1h-3z" fill="#DCFBFF"/>
<path transform="translate(496,640)" d="m0 0" fill="#DCFBFF"/>
<path transform="translate(991,214)" d="m0 0" fill="#DCFBFF"/>
<path transform="translate(992,144)" d="m0 0" fill="#DCFBFF"/>
<path transform="translate(1084,982)" d="m0 0" fill="#EEFCFF"/>
<path transform="translate(1044,945)" d="m0 0 2 1z" fill="#F5FCFE"/>
<path transform="translate(967,928)" d="m0 0 2 1z" fill="#F5FCFE"/>
<path transform="translate(682,708)" d="m0 0 2 1z" fill="#DCFBFF"/>
<path transform="translate(690,703)" d="m0 0 2 1z" fill="#DCFBFF"/>
<path transform="translate(693,701)" d="m0 0 2 1z" fill="#DCFBFF"/>
<path transform="translate(695,700)" d="m0 0 2 1z" fill="#DCFBFF"/>
<path transform="translate(496,629)" d="m0 0" fill="#DCFBFF"/>
<path transform="translate(618,455)" d="m0 0 2 1z" fill="#DCFBFF"/>
<path transform="translate(717,395)" d="m0 0" fill="#DCFBFF"/>
<path transform="translate(912,292)" d="m0 0 2 1z" fill="#DCFBFF"/>
<path transform="translate(914,291)" d="m0 0 2 1z" fill="#DCFBFF"/>
<path transform="translate(361,70)" d="m0 0 2 1z" fill="#A8E6FD"/>
<path transform="translate(607,35)" d="m0 0 2 1z" fill="#74D2FB"/>
<path transform="translate(383,28)" d="m0 0 2 1z" fill="#74D2FB"/>
<path transform="translate(1166,1394)" d="m0 0" fill="#EEFCFF"/>
<path transform="translate(979,1132)" d="m0 0" fill="#FDFDFE"/>
<path transform="translate(900,1036)" d="m0 0" fill="#FDFDFE"/>
<path transform="translate(1084,1027)" d="m0 0" fill="#EEFCFF"/>
<path transform="translate(662,721)" d="m0 0" fill="#DCFBFF"/>
<path transform="translate(681,709)" d="m0 0" fill="#74D2FB"/>
<path transform="translate(692,702)" d="m0 0" fill="#DCFBFF"/>
<path transform="translate(962,699)" d="m0 0" fill="#DCFBFF"/>
<path transform="translate(697,699)" d="m0 0" fill="#DCFBFF"/>
<path transform="translate(1182,698)" d="m0 0" fill="#DCFBFF"/>
<path transform="translate(699,698)" d="m0 0" fill="#DCFBFF"/>
<path transform="translate(1181,697)" d="m0 0" fill="#DCFBFF"/>
<path transform="translate(732,696)" d="m0 0" fill="#DCFBFF"/>
<path transform="translate(509,694)" d="m0 0" fill="#DCFBFF"/>
<path transform="translate(496,637)" d="m0 0" fill="#DCFBFF"/>
<path transform="translate(496,635)" d="m0 0" fill="#DCFBFF"/>
<path transform="translate(496,632)" d="m0 0" fill="#DCFBFF"/>
<path transform="translate(914,623)" d="m0 0" fill="#EEFCFF"/>
<path transform="translate(887,622)" d="m0 0" fill="#DCFBFF"/>
<path transform="translate(720,592)" d="m0 0" fill="#DCFBFF"/>
<path transform="translate(777,513)" d="m0 0" fill="#DCFBFF"/>
<path transform="translate(1022,499)" d="m0 0" fill="#DCFBFF"/>
<path transform="translate(607,465)" d="m0 0" fill="#DCFBFF"/>
<path transform="translate(1e3 455)" d="m0 0" fill="#DCFBFF"/>
<path transform="translate(822,453)" d="m0 0" fill="#DCFBFF"/>
<path transform="translate(362,410)" d="m0 0" fill="#DCFBFF"/>
<path transform="translate(700,280)" d="m0 0" fill="#DCFBFF"/>
<path transform="translate(695,276)" d="m0 0" fill="#DCFBFF"/>
<path transform="translate(680,268)" d="m0 0" fill="#DCFBFF"/>
<path transform="translate(487,262)" d="m0 0" fill="#74D2FB"/>
<path transform="translate(402,259)" d="m0 0" fill="#74D2FB"/>
<path transform="translate(719,249)" d="m0 0" fill="#DCFBFF"/>
<path transform="translate(992,226)" d="m0 0" fill="#DCFBFF"/>
<path transform="translate(496,224)" d="m0 0" fill="#74D2FB"/>
<path transform="translate(809,220)" d="m0 0" fill="#DCFBFF"/>
<path transform="translate(809,217)" d="m0 0" fill="#DCFBFF"/>
<path transform="translate(615,115)" d="m0 0" fill="#74D2FB"/>
<path transform="translate(823,113)" d="m0 0" fill="#74D2FB"/>
<path transform="translate(428,112)" d="m0 0" fill="#74D2FB"/>
<path transform="translate(575,90)" d="m0 0" fill="#74D2FB"/>
<path transform="translate(882,75)" d="m0 0" fill="#DCFBFF"/>
<path transform="translate(352,52)" d="m0 0" fill="#DCFBFF"/>
<path transform="translate(901,46)" d="m0 0" fill="#DCFBFF"/>
<path transform="translate(351,45)" d="m0 0" fill="#74D2FB"/>
</svg>