<svg xmlns="http://www.w3.org/2000/svg" version="1.1" viewBox="0 107 1200 1393">
<path transform="translate(175,140)" d="m0 0 5 1 25 15 24 15 26 16 24 15 23 14 22 14 2 2 1 180 20 12 13 8 73 45 19 12 16 10 4 4v76l4 2 18 10 19 12 18 11 7 5 1 2 1 147 8 4 16 10 26 16 24 15 26 16 14 9 4 4v135l29-19 3-1-2 4-15 10-12 7h-2l-1 13-7 6-20 12-26 16-15 9-16 10-33 21h-2v124l2 1-1 1v20l11 6 23 14 24 15 31 19 22 14 5 4 5-1 10-7 28-17 7-5 11-6 14-9 19-12 9-6 5 2 19 12 8 5 6 1-1 3 5 2 26 16 24 15 28 17 22 14 3 2 6-1 15-10 20-12 24-15 21-13 26-16 22-14 12-8 7 3 16 10 26 16 24 15 21 13 23 14 33 21v163h-5l-1-1-1-45v-112l-3-3-24-15-18-11-24-15-28-17-40-25-2-2-6 1-18 11-42 26-26 16-24 15-26 16-2 2-2 123 4 2 16 9 42 26 19 12 11 7 3 3v2h-8l-10-7-26-16-42-26-6-4-3-1v29l-5-1-1-5v-29l-5-2-5-1-15 10-20 12-11 7-42 26-12 8h-8l4-5 22-13 22-14 19-12 14-8 15-10 11-7 7 1 5 3-1-4v-113l-5-5-24-15-26-16-24-15-28-17-8-4-9-7-15-9-5-1-22 14-20 12-11 7v23l-1 8h-1l-1-29-20 12-21 13-2 1-1 101 12-7 20-13h2l-2 4-21 13-10 6v30l7-2 6 3v2l5 1-1 14 23 14 24 15 21 13 16 10 5 6h-9l-8-6-52-32-21-13-7-4-2 7-1-4-5-1-5-5-1-3-6 2-20 12-10 7-1 15-5-1-1-9-5 2-28 17-19 12-6 4h-7l2-4 15-9 24-15 21-13h2l1-3v-31h-5l3-3h2v-16l-1-3-20-13-6-4 2-1 11 6 10 7 3 2v-84l-17-11-47-29-18-11-21-13-14-9h-6v2l-5 4-1 96-2-4-1-90-20 12-24 15-13 8-1 3v108l7-1 38-24 5-3h2l2-7 4-5 3-2 6 9 2 5 18 10 25 16 5 3 5-2 17-11 3-1-2 4-15 9-5 2 4 4 18 10 12 8 7 6-2 1-17-11-16-10-6-3-7 1-26 16-14 9-2-1 9-7 21-13 13-8v-2l-11-6-24-15-14-8-2 2h-6l-3-2-22 14-25 15-1 2-6-1v30l4 4 15 9 26 16 24 15 21 13 14 9 2 4h-8l-10-7-20-12-40-25-20-12-10-7-4 1-23 14-19 12-10 6-21 13-24 15-2 2h-8l4-5 28-17 24-15 9-6 25-15 15-10 1-1v-23l-11 7-19 12v11l-3 6-4 4-6 3-9-3-6-7-1-2v-10l1-3-6-2-11-7-7-4v-2l6 1 3 3 11 7 3 2 4-1 5-4 8-1 6 3 5 4 9-7 20-12 2-2v-11l-2-1 2-1v-103l-11-8-7-5h-3l-1 6-2-1 1-3-22 13-19 12-20 12h-2v96l-1 64-5 1-1-1-1-69-16-10-23-14-9-6-4 2-5 4-7 1-8-4-4-4-2-7 1-8 4-6 5-4 9-1 8 5 4 8v12l14 8 23 14 11 7-1-86-19-12-21-13-20-12-17-11-13-8-6 1-10 7-4 4-2 54h-1v-54l-9 5-15 10-1 9v97l16-10 2 1-10 7-7 4-1 2-1 13 5-2 15-10 16-10 3-3 10-5 12-7v3l-13 8-5 4-8 4-15 10-18 11-1 1v17l16 10 28 17 16 10 21 13 22 14 3 3v2h-8l-5-4-23-14-24-15-26-16-19-12-5-2-23 14-8 6v17l-2 1v-17l-24 14-14 9-10 6-20 13h-8l5-5 19-12 21-13 13-8 17-11 17-10 15-10v-13h-2l-17 11-2-1 9-7 10-6h2v-12l-1-3-15 10-17 10-8 6-8 4-8 6-1 1-1 14-2-4-1-13 13-7h2l-5-5-21-13-28-17-21-13-16-10-1 1-1 104-5 1-2-6v-101l-8 7-2 1 2-5 7-6 1-5v-41l-2-4-9-7-1-4 2-2 11 7 7-1 38-24 39-24 6-4h2v-3l-4-2-14-8-22-14-18-11-6-2-4 3h-2v13l-5 9-5 4-6 2-1 39-1 12h-1v-52l-6-1-5-5-5 1-10 7-6 1 1-5 15-10 1-16 5-7 5-3 9-1 8 4 5 4 6-5v-143l-6-5-21-13-19-12-9-6v-6l5 2 22 13 19 12 11 7 6-1 22-14 42-26-3-3-15-9-22-14-26-16-25-15h-10l-5 4h-4l1-5 5-6 2-9 2-2 1-20v-95l-1-14-6-9 4 2 2 2 1-1 1-17-17 10-9 6h-3l1-5 8-6 19-12v-6l-4-5-5-3-2-3v-5l6 1 8 7h4v-2l19-12h2l-1-132-10-7-40-25-5-4v-6l10 5 24 15 21 13 2 2 5-1 17-11 21-13 10-6 1-2-6-2-47-29-11-8 2-1 8 4 24 15 19 12 11 7 7-1 24-15 14-9 17-10 1-5v-34l-5-5-19-12-23-14-18-11-14-9-26-16-24-15-11-7-4-1-10 7-4-1 4-7 6-4h2l-1-178-8-6-2-2v-5l6 2 8 5 5-2 18-11 19-12 47-29 26-16 22-14zm1 7-16 10-23 14-24 15-63 39-14 9-1 1v177l9 6 23 14 40 25 8 4v-40l-3-3 1-5 5-1 6-2 26-16 41-26 1 1-15 10-20 12-22 14-15 9-4 9v39l19 12 26 16 11 7 6 3 7-4 19-12 21-13 52-32 18-11 3-3-5-7-3-5-12-9-41-25-12-8-3-1v-2l20 12 19 12 24 15 5 5 4-1 3-2 5 1 1 1v10l-1 2 5-2 12-8 1-1v-176l-9-7-20-12-24-15-52-32-24-15-13-8zm146 270-21 13-9 6-23 14-21 13-24 15-18 11-24 15-2 2v40l13 8 20 12 13 8 16 10 18 11 26 16 10 7 5-1 10-7 89-55 15-10 6 2 14 9 21 13 8 6 2-1-1-69-19-12-23-14-19-12-26-16-55-34zm92 134-11 8-18 11-28 17-48 30-9 6-1 131 5 5 10 6 7 5 5-1 15-10 21-13 4-9 5 1 3 1 26-16 19-12 26-16 18-11 2-2 1-100-11-8-27-16-10-7zm-234 1v130l11 7 9 6 4-1 1-2 5 1 2 2 2 7 8 6 28 17 21 13 19 12 5 2v-128l-21-14-52-32-11-7-24-15zm-7 1-14 9-19 12-18 11-3 3-12 6-19 12-24 15-2 2-1 8v121l5-2 17-11 65-40 19-12 7-5 1-127zm299 33-1 93-2 7-10 7-20 12-19 12-41 25-4 3v2l-5 1-12 7-28 18-4 3v6l5 5 17 10 26 16 21 13 19 12 5 1 10-7 18-11 22-14 9-6 10-5 19-12 21-13 5-3v-143l-5-5-15-10-22-13-17-11zm-295 101-13 8-17 11-22 13-63 39-2 3 2 6 9 7 14 8 16 10 23 14 47 29 5 4 6-1 10-7 23-14 21-13 8-5 23-14 17-11 10-7 2-5-7-6-26-16-23-14-19-12-11-7-11-6-21-14zm-123 75-15 10-4 3v6l9-5 12-8 1-6zm246 1v5l9 6 8 5h3l-1-4-11-8-6-4zm-243 9-14 9-8 5v21l3 1 9-5 20-13 9-6-4-4-12-8zm477 0-14 9-24 15-9 6 4 8-1 7-8 8v2h-2v-2l-5-3h-2l-2-6-4-2-22 14-21 13-4 3-1 10v132l3 5 27 16 24 15 28 17 24 15 11 7 7-4 19-12 7-5 2-7 7 2 12-7v-4l-6-8-14-10-26-16-28-17-19-12h-2v-2l-4 1-4 4-3 1h-8l-6-4-3-5-1-9 5-8 6-4h6l8 5 3 7v11l11 6 21 13 23 14 24 15 10 7 4 3 3-2 5 1 2 7 4-1 25-15 21-13 5-4 1-5-1-2-5 2-10 7-20 12-13 8h-1l24-15 21-13 5-5-1-134-22-14-18-11-26-16-42-26-7-5zm-238 0-14 9-21 13-11 7-26 16-19 12-17 10-7 5-1 27v117l5 4 9 5 22 14 3 2 5-1 48-30 13-8 10-6 22-14 3-2v-166l-10-6-11 7-24 15-12 8-5 8v2l-5-5-2-6 5-3 4 2h4l14-10 30-18-5-5-4-3zm-220 13-6 5-22 14-8 6-3 6-2 3v122l4 2 2 3 2 10 73 45 19 12 5-1 10-7 19-12 7-5v-142l-9-7-24-15-18-11-24-15-18-11-3-2zm250 5v161l4 4 28 17 26 16 11 7 4 3 5-2 10-8v-141l-2-4-24-15-28-17-16-10-17-11zm-4 167-15 10-10 6 1 3 16 8 24 15 18 12 5 3 5-4 5 1 2 3 5-2 14-10-5-5-22-14-40-25zm-30 19-24 15-28 17-13 8v2l29 17 19 12 22 14 4-2 28-17 22-14 10-7-2-6-5-4-19-12-28-17-9-6zm-116 17-10 7-15 9-2 1 1 3 3 2-1 8 8 7 16 10 5-1 22-14 12-7-1-3-14-8-17-11-5-3zm239 0-9 6 1 4 24 14 38 24 2 3v41l1 118 5-3 3-3 5 1 3 3h2l1 3v13h4l20-13 13-8 4-2 1-2v-126l-14-10-22-13-38-24-26-16-14-9zm-19 12-8 6-7 4-5 6-3 6-3 2-1 3v18l5-2 3-1-8 6v91l8 5 3 5v9l9 6 23 14 21 13 19 12 8 6 6 2-1-131-20-12-23-14-11-7-10-7 8 4 14 9 28 17 13 9h1v-38l-9-7-23-14-26-16-6-4zm-264 16-19 12-21 13-24 15-6 4-1 8v135l5 5 18 11 26 16 13 9 3 2 5-1 28-18 12-7 3-2v-47l-16-10-4 2-3 3-9 1-10-6-6 4-9 5-1 1-1 10v-6l-2-2-36 22-12 7 5-4 19-12 32-20 11-6v-12l4-6 4-3 4-2v-55l-1-8-11 7-13 8-3 5-3-1 1-4 12-6 16-10 2-2-1-47-3-4h-2l-1-4zm87 0-9 5 1 5 4 5 3 8 15 10 28 17 21 13 10 8 3-1v-24l-9-7-24-15-39-24zm144 5-13 8-18 11-30 19-2 2v25l4 1 15-10 22-14 19-12 7-4v-23l-2-3zm-218 2v46l2 1 21-13 6-4 1-2v-8l-5-5-12-8-11-7zm50 8-14 9-1 1v8h3l8-6 7-5v-7zm20 7-4 5-9-1-2-3-4 2-15 10-1 1v121l9 6 22 13 23 14 10 8 4 2 5-5 5-1 6 4 3 1v5l3 1 16-10 5-4 1-5-7 1-13 8 9-6 12-7 2-2v-100l-3-8-24-16-28-17-18-12zm149 12-41 26-17 11-3 5-3 4v98l5 7 2 7 9 6 23 14 24 15 19 12 4 1 3-4 4 1 3 5 6-1 23-14 21-13 19-12 1-3-5-5-20-12-14-9-20-12-19-12-9-6-5 5-5 2-8-3-4-6v-7l3-6 5-4 3-1-1-89zm-191 5-15 10-11 7-2 3v59l2 4 6 3 4 5 1 3v11l14 9 2 1v-115zm8 121-1 3v38l9 6 23 14 12 8 1 1h5l20-13-1-5-2-3-1-8-18-13-28-17-16-10zm350 14-13 9-15 9-10 7 1 6-2 8h4l10-6v-2l6-2 16-10 5-3v-16zm3 20-14 9-9 5-10 6-3 3 11 8 20 12 42 26 7 4 9 6 18 11 7 5h5l10-7 22-13 3-2-1-3-14-8-19-12-15-9-13-8-19-12-34-21zm-240 1-21 13-14 9-14 8-9 6-3 1 1 3 20 12h2v-26l1 1v27l26 16 23 14 15 10h5l10-7 20-12 19-12 9-6 2-3-8-6-26-16-42-26-11-6zm-119 12-12 8-15 9-14 8v2l13 8 19 12 10 7 5-1 16-10 5-4-1-5-1-1 5-1v-2l4 3 6-1 6-4-1-3-22-13-16-10-3-2zm291 1-14 8-19 12-13 8-16 10-5 2 5 6 11 7 5-1 47-29 10-7 2-4-9-4-3-8zm-339 29-16 10-73 45-3 3v43l6 10 25 15 21 13 23 14 18 12 5 1 15-10 23-14 4-3 1-107-2-4-17-11-15-9-13-8zm523 37-21 13-10 6-2 5v85l1 3-1 1v9l2 1-2 2v33l6-2 17-11 13-8-1-4-16-10-6-4h-6l1-3-1-1 7-1 21-13 1-12v-28l-1-61zm1 103-13 8-8 5 1 3 12 7 9 6 1-1v-26z" fill="#BBEAFD"/>
<path transform="translate(403 1e3)" d="m0 0h8l15 9 24 15 19 12 3 4v41l1 117 7-6 5 1 5 4 2 3v13l5-2 10-7 16-10 7-4h2l1-125 2 1v2h3l1 117 2 1-1 1v20l11 6 23 14 24 15 31 19 22 14 5 4 5-1 10-7 28-17 7-5 11-6 14-9 19-12 9-6 5 2 19 12 8 5 6 1-1 3 5 2 26 16 24 15 28 17 22 14 3 2 6-1 15-10 20-12 24-15 21-13 26-16 22-14 12-8 7 3 16 10 26 16 24 15 21 13 23 14 33 21v163h-5l-1-1-1-45v-112l-3-3-24-15-18-11-24-15-28-17-40-25-2-2-6 1-18 11-42 26-26 16-24 15-26 16-2 2-2 123 4 2 16 9 42 26 19 12 11 7 3 3v2h-8l-10-7-26-16-42-26-6-4-3-1v29l-5-1-1-5v-29l-5-2-5-1-15 10-20 12-11 7-42 26-12 8h-8l4-5 22-13 22-14 19-12 14-8 15-10 11-7 7 1 5 3-1-4v-113l-5-5-24-15-26-16-24-15-28-17-8-4-9-7-15-9-5-1-22 14-20 12-11 7v23l-1 8h-1l-1-29-20 12-21 13-2 1-1 101 12-7 20-13h2l-2 4-21 13-10 6v30l7-2 6 3v2l5 1-1 14 23 14 24 15 21 13 16 10 5 6h-9l-8-6-52-32-21-13-7-4-2 7-1-4-5-1-5-5-1-3-6 2-20 12-10 7-1 15-5-1-1-9-5 2-28 17-19 12-6 4h-7l2-4 15-9 24-15 21-13h2l1-3v-31h-5l3-3h2v-16l-1-3-20-13-6-4 2-1 11 6 10 7 3 2v-84l-17-11-47-29-18-11-21-13-14-9h-6v2l-5 4-1 96-2-4-1-90-20 12-24 15-13 8-1 3v108l7-1 38-24 5-3h2l2-7 4-5 3-2 6 9 2 5 18 10 25 16 5 3 5-2 17-11 3-1-2 4-15 9-5 2 4 4 18 10 12 8 7 6-2 1-17-11-16-10-6-3-7 1-26 16-14 9-2-1 9-7 21-13 13-8v-2l-11-6-24-15-14-8-2 2h-6l-3-2-22 14-25 15-1 2-6-1v30l4 4 15 9 26 16 24 15 21 13 14 9 2 4h-8l-10-7-20-12-40-25-20-12-10-7-4 1-23 14-19 12-10 6-21 13-24 15-2 2h-8l4-5 28-17 24-15 9-6 25-15 15-10 1-1v-23l-11 7-19 12v11l-3 6-4 4-6 3-9-3-6-7-1-2v-10l1-3-6-2-11-7-7-4v-2l6 1 3 3 11 7 3 2 4-1 5-4 8-1 6 3 5 4 9-7 20-12 2-2v-11l-2-1 2-1v-103l-11-8-7-5h-3l-1 6-2-1 1-3-22 13-19 12-20 12h-2v96l-1 64-5 1-1-1-1-69-16-10-23-14-9-6-4 2-5 4-7 1-8-4-4-4-2-7 1-8 4-6 5-4 9-1 8 5 4 8v12l14 8 23 14 11 7-1-86-19-12-21-13-20-12-17-11-13-8-6 1-10 7-4 4-2 54h-1v-54l-9 5-15 10-1 9v97l16-10 2 1-10 7-7 4-1 2-1 13 5-2 15-10 16-10 3-3 10-5 12-7v3l-13 8-5 4-8 4-15 10-18 11-1 1v17l16 10 28 17 16 10 21 13 22 14 3 3v2h-8l-5-4-23-14-24-15-26-16-19-12-5-2-23 14-8 6v17l-2 1v-17l-24 14-14 9-10 6-20 13h-8l5-5 19-12 21-13 13-8 17-11 17-10 15-10v-13h-2l-17 11-2-1 9-7 10-6h2v-12l-1-3-15 10-17 10-8 6-8 4-8 6-1 1-1 14-2-4-1-13 13-7h2l-5-5-21-13-28-17-21-13-16-10-1 1-1 104-5 1-2-6v-101l-8 7-2 1 2-5 7-6 1-5v-41l-2-4-9-7-1-4 2-2 11 7 7-1 38-24 39-24 6-4h5l1-3 6-4 28-18 12-7 3-1v-47l-5-2-11-7-4 2-3 3-9 1-10-6-6 4-9 5-1 24h-1l-1-20h-3l-19 12-15 9-12 7-2-1 10-7 24-15 17-11 16-9h2l-1-2v-10l3-5 8-1 3-1 1-3 6 1 6 7 1 3v7l-1 4 5 2 12 8v-111l5-2 1 116 25 15 28 17 10 8 4 2 5-5 5-1 9 6v6l-3 4v5l-6 5-6 3-16 10h-3l3 3 18 11 2 1-1-9v-17l2-1 1 7v16l-1 6 5 2 21 13 23 14 15 10h5l10-7 20-12 19-12 9-6 2-3h2l1-2 6-3 7-3 23-14 21-13 19-12v-4l-4-2 3-1 2 1-1-18v-113l-5-2-15-9-23-14-11-7-11-8 2-1 18 11 21 13 16 10 7 5v-37l-11-8-20-12-24-15-4-5zm-222 177-1 3v38l9 6 23 14 12 8 1 1h5l20-13-1-5-2-3-1-8-18-13-28-17-16-10zm350 14-13 9-15 9-10 7 1 6-2 8h4l10-6v-2l6-2 16-10 5-3v-16zm3 20-14 9-9 5-10 6-3 3 11 8 20 12 42 26 7 4 9 6 18 11 7 5h5l10-7 22-13 3-2-1-3-14-8-19-12-15-9-13-8-19-12-34-21zm-359 13-12 8-15 9-14 8v2l13 8 19 12 10 7 5-1 16-10 5-4-1-5-1-1 5-1v-2l4 3 6-1 6-4-1-3-22-13-16-10-3-2zm291 1-14 8-19 12-13 8-16 10-5 2 5 6 11 7 5-1 47-29 10-7 2-4-9-4-3-8zm-339 29-16 10-73 45-3 3v43l6 10 25 15 21 13 23 14 18 12 5 1 15-10 23-14 4-3 1-107-2-4-17-11-15-9-13-8zm523 37-21 13-10 6-2 5v85l1 3-1 1v9l2 1-2 2v33l6-2 17-11 13-8-1-4-16-10-6-4h-6l1-3-1-1 7-1 21-13 1-12v-28l-1-61zm1 103-13 8-8 5 1 3 12 7 9 6 1-1v-26z" fill="#7BD0F7"/>
<path transform="translate(29,825)" d="m0 0h1l1 7 1 15 1-7h1l1 101 5 2 2 3 2 10 25 15 47 29 19 12 5-1 10-7 19-12 6-4 1-99 3 4 1 6 1 89 4 3 9 5 22 14 3 2 5-1 48-30 13-8 10-6 22-14 3-1v-64l6 4 1 59 3 3 28 17 26 16 11 7 4 3 5-2 9-7 1-14 4 2 3 13 28 17 24 15 28 17 24 15 11 7 7-4 19-12 6-4 3-8 7 2 12-7-2-4-4-6-14-10-26-16-28-17-21-13v-2l-5 3-3 3-3 1h-8l-6-4-3-3-2-7 1-7 4-6 5-4 2-1h6l9 6 3 7-1 11 6 2 26 16 23 14 24 15 10 7 4 3 3-2 5 1 2 7 4-1 25-15 21-13 4-3 1-7-15 10-20 12-13 8-4 1 4-4 12-7 24-15 11-7 1-5 1-17 2 1 3 7v11l29-19 3-1-2 4-15 10-12 7h-2l-1 13-7 6-20 12-26 16-15 9-16 10-33 21h-2v104h-1v-97h-3l-3-6-15-10-23-14-24-15-19-12-23-14-10-7-4 1-6 4h-2l1 3 2 2-4 1 3 3-1 2-6-4h-5l-8 6-7 4-4 5-3 6-4 2-1 21 8-5 2 1-9 7-1 91 6 2 5 6 1 2v9l21 13 23 14 24 15 10 7 2 3-5-2-18-11-16-10-18-11-16-10-8-6-7 6-4 1-8-3-4-5-1-2v-7l3-6 6-5h3l-1-4v-85l-8 4-14 9-22 14-17 11-5 8v98l5 7 2 7 26 16 21 13 24 15 5 3 3-1 2-3 5 2 2 4 3 2-8 3-6 3-10-7-20-12-19-12-34-21-8-1-21 13-9 5-1-5 5-5 5-2 16-10 3-6-9 3-9 6-4 1 3-3 13-8 8-5v-100l-2-7-24-16-28-17-18-12-6-5-5 5-9-1-2-3-4 2-15 10-1 5-4 2-1 111h-1l-1-114-15 10-11 7-1 2v59l1 4-5 5h-7l5-5 3-1v-55l-1-7-15 10-8 5-2 5-5-2 1-4 13-7 16-10 1-1-1-47-2-4h-2l-1-4-6 2-23 14-19 12-26 16-1 8v135l5 5 22 13 24 15 13 9 3 2-4 2-1 2h-3v-3l-4-2-14-8-22-14-18-11-6-2-4 3h-2v13l-5 9-5 4-6 2-1 39-1 12h-1v-52l-6-1-5-5-5 1-10 7-6 1 1-5 15-10 1-16 5-7 5-3 9-1 8 4 5 4 6-5v-143l-6-5-21-13-19-12-9-6v-6l5 2 22 13 19 12 11 7 6-1 22-14 42-26-3-3-15-9-22-14-26-16-25-15h-10l-5 4h-4l1-5 5-6 2-9 2-2 1-20v-93zm293 132-15 10-10 6 1 3 16 8 24 15 18 12 5 3 5-4 5 1 2 3 5-2 14-10-5-5-22-14-40-25zm-30 19-24 15-28 17-13 8v2l29 17 19 12 22 14 4-2 28-17 22-14 10-7-2-6-5-4-19-12-28-17-9-6zm-116 17-10 7-15 9-2 1 1 3 3 2-1 8 8 7 16 10 5-1 22-14 12-7-1-3-14-8-17-11-5-3zm43 28-9 5 1 5 4 5 3 8 15 10 28 17 21 13 10 8 3-1v-24l-9-7-24-15-39-24zm144 5-13 8-18 11-30 19-2 2v25l4 1 15-10 22-14 19-12 7-4v-23l-2-3zm-218 2v46l2 1 21-13 6-4 1-2v-8l-5-5-12-8-11-7zm50 8-14 9-1 1v8h3l8-6 7-5v-7z" fill="#BBEAFD"/>
<path transform="translate(315,226)" d="m0 0 5 1 6 5 1 180 20 12 13 8 73 45 19 12 16 10 4 4v76l4 2 18 10 19 12 18 11 7 5 1 2 1 147 8 4 16 10 26 16 24 15 26 16 14 9 4 4v124l-2-1-2-6-1 5h-1v-120l-5-2-17-11-18-11-26-16-42-26-7-5-4 1-13 8-24 15-7 5h-2l4 5 1 7-4 7-5 4-1 2h-2v-2l-4-1-5-5-2-4-5 2-19 12-21 13-3 2-1 10-1 127h-1l-1-5h-2l-1 8h-1v-137l-1-3-13-8-1-4-18-12-9-5v-2l-9-3-6-5-2-2-10-5v-3l5 2 17 10 24 15 21 13 5 3 4-1 11-7 38-24 9-6 10-5 19-12 21-13 5-2-1-143-5-5-47-29-8-5v93h-1l-1-83v-7h-2l-6-13v-2h3v-69l-5-2-19-12-26-16-24-15-47-29-19-12-3-1-21 13-9 6-23 14-21 13-13 8-7-1v-3l28-17 24-15 15-9 2-2-5-7-3-5-14-10-15-9-23-14-15-10v-2l5 2 18 11 21 13 20 13 4 4 4-1 3-2 5 1 2 2v10l4-2 11-7v-176l-1-2 1-4z" fill="#B8E8FD"/>
<path transform="translate(178,1062)" d="m0 0h2l1 116 25 15 28 17 10 8 4 2 5-5 5-1 9 6v6l-3 4v5l-6 5-6 3-16 10h-3l6 6h-4v-2l-6-1v3l-7 3-9 6-4 4-2 54h-1v-54l-9 5-15 10-1 9v97l16-10 2 1-10 7-7 4-1 2-1 13 5-2 15-10 16-10 3-3 10-5 12-7v3l-13 8-5 4-8 4-15 10-18 11-1 1v17l16 10 28 17 16 10 21 13 22 14 3 3v2h-8l-5-4-23-14-24-15-26-16-19-12-5-2-23 14-8 6v17l-2 1v-17l-24 14-14 9-10 6-20 13h-8l5-5 19-12 21-13 13-8 17-11 17-10 15-10v-13h-2l-17 11-2-1 9-7 10-6h2v-12l-1-3-15 10-17 10-8 6-8 4-8 6-1 1-1 14-2-4-1-13 13-7h2l-5-5-21-13-28-17-21-13-16-10-1 1-1 104-5 1-2-6v-101l-8 7-2 1 2-5 7-6 1-5v-41l-2-4-9-7-1-4 2-2 11 7 7-1 38-24 39-24 6-4h5l1-3 6-4 28-18 12-7 3-1v-47l-5-2-11-7-4 2-3 3-9 1-10-6-6 4-9 5-1 24h-1l-1-20h-3l-19 12-15 9-12 7-2-1 10-7 24-15 17-11 16-9h2l-1-2v-10l3-5 8-1 3-1 1-3 6 1 6 7 1 3v7l-1 4 5 2 12 8v-111zm3 119-1 3v38l9 6 23 14 12 8 1 1h5l20-13-1-5-2-3-1-8-18-13-28-17-16-10zm-6 47-12 8-15 9-14 8v2l13 8 19 12 10 7 5-1 16-10 5-4-1-5-1-1 5-1v-2l4 3 6-1 6-4-1-3-22-13-16-10-3-2zm-48 30-16 10-73 45-3 3v43l6 10 25 15 21 13 23 14 18 12 5 1 15-10 23-14 4-3 1-107-2-4-17-11-15-9-13-8z" fill="#78CFF7"/>
<path transform="translate(320,888)" d="m0 0 6 4 1 59 3 3 28 17 26 16 11 7 4 3 5-2 9-7 1-14 4 2 3 13 28 17 24 15 28 17 24 15 11 7 7-4 19-12 6-4 3-8 7 2 12-7-2-4-4-6-14-10-26-16-28-17-21-13v-2l-5 3-3 3-3 1h-8l-6-4-3-3-2-7 1-7 4-6 5-4 2-1h6l9 6 3 7-1 11 6 2 26 16 23 14 24 15 10 7 4 3 3-2 5 1 2 7 4-1 25-15 21-13 4-3 1-7-15 10-20 12-13 8-4 1 4-4 12-7 24-15 11-7 1-5 1-17 2 1 3 7v11l29-19 3-1-2 4-15 10-12 7h-2l-1 13-7 6-20 12-26 16-15 9-16 10-33 21h-2v104h-1v-97h-3l-3-6-15-10-23-14-24-15-19-12-23-14-10-7-4 1-6 4h-2l1 3 2 2-4 1 3 3-1 2-6-4h-5l-8 6-7 4-4 5-3 6-5 3-4-2v-2l-3-1 1-5h-3l-2-5-9-6-14-9-28-17-9-6 2-1 14 7 24 15 18 12 5 3 5-4 5 1 2 3 5-2 13-9-5-5-26-16-19-12-16-10h-4l-6 4h-6l-1 2-3-2v2l2 1-5 2-4 3-5-1v-2l15-9 10-7h2z" fill="#B8E9FD"/>
<path transform="translate(315,226)" d="m0 0 5 1 6 5 1 180 20 12 13 8 73 45 19 12 16 10 4 4v76l4 2 18 10 19 12 18 11 7 5-2 4-2-3-4 2-19-12-23-14-16-10v93h-1l-1-83v-7h-2l-6-13v-2h3v-69l-5-2-19-12-26-16-24-15-47-29-19-12-3-1-21 13-9 6-23 14-21 13-13 8-7-1v-3l28-17 24-15 15-9 2-2-5-7-3-5-14-10-15-9-23-14-15-10v-2l5 2 18 11 21 13 20 13 4 4 4-1 3-2 5 1 2 2v10l4-2 11-7v-176l-1-2 1-4z" fill="#BBEAFD"/>
<path transform="translate(250,1236)" d="m0 0 7 2 1 2-6 3-16 10h-3l6 6h-4v-2l-6-1v3l-7 3-9 6-4 4-2 54h-1v-54l-9 5-15 10-1 9v97l16-10 2 1-10 7-7 4-1 2-1 13 5-2 15-10 16-10 3-3 10-5 12-7v3l-13 8-5 4-8 4-15 10-18 11-1 1v17l16 10 28 17 16 10 21 13 22 14 3 3v2h-8l-5-4-23-14-24-15-26-16-19-12-5-2-23 14-8 6v17l-2 1v-17l-24 14-14 9-10 6-20 13h-8l5-5 19-12 21-13 13-8 17-11 17-10 15-10v-13h-2l-17 11-2-1 9-7 10-6h2v-12l-1-3-15 10-17 10-8 6-8 4-8 6-1 1-1 14-2-4-1-13 13-7h2l-1-3 7-2 19-12 21-13 1-107-1-3-17-11-15-9-9-6 2-6 14 8 17 11 10 7 5-1 16-10 4-3-1-5-1-2h6v-2l4 2 6-1 4-3h2l-1-3h3l1-3h6l19-12z" fill="#79CFF7"/>
<path transform="translate(119,1023)" d="m0 0 3 1 1 4-28 17-19 12-13 8-1 8v135l5 5 22 13 24 15 13 9 3 2-4 2-1 2h-3v-3l-4-2-14-8-22-14-18-11-6-2-4 3h-2v13l-5 9-5 4-6 2-1 39-1 12h-1v-52l-6-1-5-5-5 1-10 7-6 1 1-5 15-10 1-16 5-7 5-3 9-1 8 4 5 4 6-5v-143l-6-5-21-13-19-12-9-6v-6l5 2 22 13 19 12 11 7 6-1 22-14 21-13z" fill="#B6E8FD"/>
<path transform="translate(256,1241)" d="m0 0 2 2v21l-1 6 5 2 21 13 23 14 15 10 2 6 2 1v-3l5-1-1 2h-2v96l-1 64-5 1-1-1-1-69-16-10-23-14-9-6-4 2-5 4-7 1-8-4-4-4-2-7 1-8 4-6 5-4 9-1 8 5 4 8v12l14 8 23 14 11 7-1-86-19-12-21-13-20-12-17-11-13-8v-4l6 1v2h6l13 8 2 1-1-9v-17z" fill="#76CEF7"/>
<path transform="translate(415,544)" d="m0 0 6 2 14 9 21 13 7 5 1 7-5-2-19-12-18-11-4-3-5 1-15 10-13 8-28 17-56 35-1 122-2 8-3-1-1-128-20-13-52-32-11-7-24-15-6-4-2 1v-8l4 1 17 10 19 12 10 6 26 16 23 14 18 12 5-1 10-7 89-55z" fill="#E5F9FE"/>
<path transform="translate(175,140)" d="m0 0 5 1 25 15 24 15 26 16 24 15 23 14 14 9 4 6-1 3-5-2-23-14-24-15-52-32-24-15-13-8-5 2-44 27-19 12-18 11-42 26-14 9-1 128h-1l-1-59-2-4-1-15v-46l-1 13h-1l-1-17-8-6-2-2v-5l6 2 8 5 5-2 18-11 19-12 47-29 26-16 22-14z" fill="#E5F9FE"/>
<path transform="translate(159,1231)" d="m0 0 2 1-1 2 2 4-16 9-10 6h-2l1 4-2 3-6-1-16 10-73 45h-2v45l5 9 25 15 21 13 23 14 18 12 1 2-5-1-19-12-16-10-23-14-21-13-8-5-1 1-1 104-5 1-2-6v-101l-8 7-2 1 2-5 7-6 1-5v-41l-2-4-9-7-1-4 2-2 11 7 7-1 38-24 39-24 6-4h5l1-3 6-4 14-9z" fill="#7DD1F8"/>
<path transform="translate(30,238)" d="m0 0h1v47l1 11h1l1 8 2 108 57 35 14 9 7 4v-15l1-24-3-1-1-5 3-4h6l14-8 24-15 33-21 3 1-9 7-18 11-24 15-20 12-3 2-3 8v39l23 14 16 10 1 4 6 4-4 3-14-9-26-16-16-10-42-26-24-15-7-3-10 7-4-1 4-7 6-4h2v-161l1-13z" fill="#E5F9FF"/>
<path transform="translate(60,761)" d="m0 0h1l2 6 10 7 12 7 16 10 23 14 47 29 5 4 6-1 10-7 23-14 21-13 8-5 23-14 17-11 5-2v3l3 1-5 4-23 14-22 14-18 11-19 12-17 10-6 4-2 55-2-3-1-4-1 78h-1v-124l-11-8-26-16-21-13-24-15-13-8h-6l1-3-15-10-4 1-16 10-5 2-3-1 1-5 2-3 1 3 11-7 8-5 2-3h3z" fill="#E3F8FE"/>
<path transform="translate(320,888)" d="m0 0 6 4 1 59 3 3 28 17 26 16 11 7 4 3 5-2 9-7 1-14 4 2 3 13 16 10-1 3-6-2-7-2-5-4-4 1-6 4h-2l1 3 2 2-4 1 3 3-1 2-6-4h-5l-8 6-7 4-4 5-3 6-5 3-4-2v-2l-3-1 1-5h-3l-2-5-9-6-14-9-28-17-9-6 2-1 14 7 24 15 18 12 5 3 5-4 5 1 2 3 5-2 13-9-5-5-26-16-19-12-16-10h-4l-6 4h-6l-1 2-3-2v2l2 1-5 2-4 3-5-1v-2l15-9 10-7h2z" fill="#B8E8FD"/>
<path transform="translate(175,542)" d="m0 0 2 4v5h-2l-1 4h-3l-10 7-18 11-21 13-3 3-12 6-19 12-24 15-1 1-1 8-1 109-2-1-2 3v-35l1-41v-22l-1-4 1-4 1-9h-2l-4-5-24-15-21-13-8-6v-6l10 5 24 15 21 13 2 2 5-1 17-11 21-13 10-6 1-2-6-2-47-29-11-8 2-1 8 4 24 15 19 12 11 7 7-1 24-15 14-9 17-10z" fill="#E6F9FE"/>
<path transform="translate(250,1236)" d="m0 0 7 2 1 2-6 3-16 10h-3l6 6h-4v-2l-6-1v3l-7 3-9 6-4 4-2 54h-1v-54l-9 5-15 10-1 9-1 85h-3l-1 16h-1v-107l-1-3-17-11-15-9-9-6 2-6 14 8 17 11 10 7 5-1 16-10 4-3-1-5-1-2h6v-2l4 2 6-1 4-3h2l-1-3h3l1-3h6l19-12z" fill="#BCEAFD"/>
<path transform="translate(533,1069)" d="m0 0 2 1v2h3l1 117 2 1-1 1v20l11 6 23 14 32 20-4 1-9-4v2l-4-2-23-14-16-10-13-8-4 1-13 8-10 5-4-2v-2l14-8 11-7h2v-16l-9 6-2-1 4-4 6-2z" fill="#81D3F8"/>
<path transform="translate(31,1207)" d="m0 0 8 1 6 4 2 5h5l-1 15-5 9-5 4-6 2-1 39-1 12h-1v-52l-6-1-5-5-5 1-10 7-6 1 1-5 15-10 1-16 5-7 5-3z" fill="#78CFF7"/>
<path transform="translate(591,1139)" d="m0 0 10 3 6 7 1 3v12l-1 2 5 2 17 10 22 14 5 4-1 2-19-12-20-12-8-6-4 2-5 4-5 2-7-1-6-4-5-5-1-11 5-10 5-4z" fill="#76CEF7"/>
<path transform="translate(256,821)" d="m0 0 2 1v70l16-10 12-7-2 4-14 9-11 7-1 1 1 40 7 4 4 8-1 9-7 7-7 1-8-5-3-4v-10l4-6 6-4h2l-1-10-1-28-24 15-9 6h-2l1-3 17-11 16-10h2v-72z" fill="#B6E8FD"/>
<path transform="translate(477,934)" d="m0 0h6l9 6 3 7-1 11 6 2 26 16 23 14 24 15 10 7 4 3 4 1 1 3 2 2h-7l-4-5-21-14-51-31-16-10v-2l-5 3-3 3-3 1h-8l-6-4-3-3-2-7 1-7 4-6 5-4z" fill="#77CEF7"/>
<path transform="translate(752,1364)" d="m0 0h8l6 4 4 7-1 11-7 6-7 1 4 4 23 14 17 11 8 6 7-4 5 1 5 5v7l-6 7-4 1-5-5-3-7v-4l-5-2-15-10-15-9-12-8-10-7-5-6-2-10 3-7z" fill="#75CEF7"/>
<path transform="translate(30,238)" d="m0 0h1v47l1 11h1l1 8 2 108 13 8 1 3-5-2-7-1-8-2-10 7-4-1 4-7 6-4h2v-161l1-13z" fill="#BEEBFE"/>
<path transform="translate(755,1028)" d="m0 0 5 2 4 4 3 9 14 9 23 14 24 15 8 7-1 2-14-10-23-14-24-15-8-6-4 1-3 3h-5l-6-5-12 9-23 14-24 15-14 9-2 9-5 5-3 2-6-4-3-4-1-4 2-5 7-6 5 2 2 3 4-1 10-7 19-12 26-16 15-10h2l1-8 5-6z" fill="#B7E8FD"/>
<path transform="translate(146,1143)" d="m0 0 6 1 6 7 1 3v7l-1 4 5 2 10 7 1 2-5-2-11-7-4 2-3 3-9 1-10-6-6 4-9 5-1 24h-1l-1-20h-3l-19 12-15 9-12 7-2-1 10-7 24-15 17-11 16-9h2l-1-2v-10l3-5 8-1 3-1z" fill="#7BD0F7"/>
<path transform="translate(179,546)" d="m0 0 4 1 17 10 19 12 10 6 26 16 23 14 18 12 3 1v3l-4 2-4-1-17-11-52-32-11-7-24-15-6-4-2 1z" fill="#E6F9FE"/>
<path transform="translate(119,1023)" d="m0 0 3 1 1 4-28 17-19 12-9 5h-5l-1 3-3 1-2 2-7-6-21-13-19-12-9-6v-6l5 2 22 13 19 12 11 7 6-1 22-14 21-13z" fill="#CDF0FE"/>
<path transform="translate(254,1348)" d="m0 0h6l8 5 4 8v8l-1 5-9 7-7 1-8-4-4-4-2-7 1-8 4-6 5-4z" fill="#75CEF7"/>
<path transform="translate(331,1411)" d="m0 0 6 1 3 3 11 7 3 2 4-1 5-4 8-1 6 3 5 4 2 1-1 5v7l-3 6-4 4-6 3-9-3-6-7-1-2v-10l1-3-6-2-11-7-7-4z" fill="#75CDF7"/>
<path transform="translate(365,1144)" d="m0 0h6l6 4 4 6v9l21 13 23 14 24 15 10 7 2 3-5-2-18-11-16-10-18-11-16-10-8-6-7 6-4 1-8-3-4-5-1-2v-7l3-6z" fill="#76CEF7"/>
<path transform="translate(296,1419)" d="m0 0 8 1 7 6 2 4v9l-3 6-5 5-5 2-6-1-6-4-4-7v-9l2-5 7-6z" fill="#B9E9FD"/>
<path transform="translate(159,1231)" d="m0 0 2 1-1 2 2 4-16 9-10 6h-2l1 4-2 3-6-1-16 10-52 32-2-2 2-1-2-3 17-11 39-24 6-4h5l1-3 6-4 14-9z" fill="#7FD2F8"/>
<path transform="translate(29,520)" d="m0 0h7l6 3 4 5 2 7-2 9-8 7h-9l-6-4-4-5-1-7 3-8 5-5z" fill="#BEEBFE"/>
<path transform="translate(701,935)" d="m0 0h6l6 4 4 5 1 9-3 6-7 6-5 1-7-3-6-7-1-8 4-8z" fill="#76CEF7"/>
<path transform="translate(299,618)" d="m0 0h1v127l-2 8-3-1-1-129 2-2h3z" fill="#E4F8FE"/>
<path transform="translate(175,1431)" d="m0 0 2 2 2 3-25 15-8 6v17l-2 1v-17l-24 14-14 9-10 6-20 13h-8l5-5 19-12 21-13 13-8 17-11 17-10z" fill="#B1E6FC"/>
<path transform="translate(185,1439)" d="m0 0h9l39 24 24 15 21 13 8 6 1 3h-8l-5-4-23-14-24-15-26-16-16-10z" fill="#89D6F9"/>
<path transform="translate(466,585)" d="m0 0 2 4h2l1 13v83l-7 6-4-1-4 1 1-4 7-5 1-94z" fill="#8FD8F9"/>
<path transform="translate(480,1355)" d="m0 0 5 5 4 9 18 10 25 16 5 3 5-2 17-11 3-1-2 4-15 9-5 2 4 4 18 10 12 8 7 6-2 1-17-11-16-10-6-3-7 1-26 16-14 9-2-1 9-7 21-13 13-8v-2l-11-6-24-15-14-8-2 2h-6l-3-2-8 5-2-1 3-3 5-2 2-7 4-5z" fill="#77CFF7"/>
<path transform="translate(205,914)" d="m0 0 5 1 6 5 1 7-4 7-4 3-1 41 18-11 11-7 7-3-2 4-23 14-9 6h-2v17l-2 4v-18l-8 4-5 3-3-1 15-10 1-3v-37l-2-4-5-4-2-4v-6l6-7z" fill="#C0ECFE"/>
<path transform="translate(320,888)" d="m0 0 6 4 1 59 3 7-3 2-5-2-7 5h-6l-1 2-3-2v2l2 1-5 2-4 3-5-1v-2l15-9 10-7h2z" fill="#7CD0F7"/>
<path transform="translate(700,798)" d="m0 0h7l8 7 2 4-1 8-7 8-5 2-6-2-6-7-1-2v-8l3-5z" fill="#76CEF7"/>
<path transform="translate(30,107)" d="m0 0 8 1 6 5 2 4v8l-4 6-5 4h-7l-6-4-3-4-1-7 3-8 5-4z" fill="#E5F9FE"/>
<path transform="translate(144,710)" d="m0 0h2v16l-1 3 6 2 5 6 1 2v10h-2l-2 4-6 4-6-1-6-4-3-7 2-9 7-6 2-1z" fill="#BBEAFD"/>
<path transform="translate(29,825)" d="m0 0h1l1 7 1 15 1-7h1v100h-6v-110z" fill="#7DD1F8"/>
<path transform="translate(203,346)" d="m0 0h8l7 6 1 2v11l-5 6-6 3-6-2-7-6-1-9 3-6 4-4z" fill="#E5F9FE"/>
<path transform="translate(37,419)" d="m0 0h6l6 3h3l20 12 19 12 16 10 7 4-1 5-4 1-14-9-26-16-32-20z" fill="#E0F7FE"/>
<path transform="translate(664,1194)" d="m0 0 9 5 4 7 1 6-7 8-3 2-8-1-7-6v-10l5-8 6-1z" fill="#7ACFF7"/>
<path transform="translate(329,954)" d="m0 0 11 6 23 14 24 15 9 6 1 3-4-1-4 2-48-30-13-8v-4z" fill="#7ACFF7"/>
<path transform="translate(295,856)" d="m0 0h6l6 4 3 4 1 7-3 6-6 5h-7l-8-7-1-7 3-7z" fill="#BEEBFE"/>
<path transform="translate(700,1352)" d="m0 0h7l7 6 1 2v12l-8 6-8-1-7-6v-10l4-6z" fill="#75CDF7"/>
<path transform="translate(390,1363)" d="m0 0 1 3 6 2 4 5 1 8-2 5-8 6-5-1-7-5-2-5 1-7 3-5 5-3h2z" fill="#79CFF7"/>
<path transform="translate(689,957)" d="m0 0v3l-11 8-15 9-4 1-1 13-7 6-13 8-3-1 2-6 14-9 1-7-15 10-20 12-13 8-4 1 4-4 12-7 24-15 11-7 1-5 1-17 2 1 3 7v11l29-19z" fill="#ADE4FC"/>
<path transform="translate(845,1196)" d="m0 0 7 1 6 5 1 2v9l-5 7-2 1h-7l-6-4-2-2-1-9 4-6z" fill="#77CEF7"/>
<path transform="translate(305,963)" d="m0 0h4l4 1-14 9h-2l1 3-7 2-20 12-21 13-8 4-1-5 5-5 15-9 21-13 9-6 7 1 5-4h3z" fill="#ADE4FC"/>
<path transform="translate(755,1028)" d="m0 0 5 2 4 4 3 9 14 9 23 14 24 15 8 7-1 2-14-10-23-14-24-15-8-6-4 1-3 3h-5l-6-7v-7l5-6z" fill="#7ACFF7"/>
<path transform="translate(385,1449)" d="m0 0h2l-1 4-5 5-15 10-12 7-26 16-12 8-1 1h-8l4-5 28-17 24-15 9-6z" fill="#81D2F8"/>
<path transform="translate(256,821)" d="m0 0 2 1v70l16-10 12-7-2 4-14 9-11 7-1 1v32l-3-2-1-28-24 15-9 6h-2l1-3 17-11 16-10h2v-72z" fill="#C1ECFE"/>
<path transform="translate(591,1421)" d="m0 0 7 3 5 4v10l-7 8-5 1-6-3-4-6v-10l6-5z" fill="#75CEF7"/>
<path transform="translate(298,976)" d="m0 0 7 2 22 13 22 14 11 8 5-3 5-1 4 6 3 1v-2l5-2-2 5-4 6-3 5-6 2-2-4-3-1 1-5h-3l-2-5-9-6-14-9-28-17-9-6z" fill="#7AD0F7"/>
<path transform="translate(179,1298)" d="m0 0h1v83h-3l-1 16h-1v-92l1-5z" fill="#B3E6FD"/>
<path transform="translate(700,1215)" d="m0 0h7l6 5 2 4-1 7-4 6-4 2-7-1-5-6-2-4v-5l6-7z" fill="#76CEF7"/>
<path transform="translate(588,731)" d="m0 0h7l6 5 2 4v8l-8 7-8-1-6-7v-7l3-5z" fill="#79CFF7"/>
<path transform="translate(472,584)" d="m0 0 4 1 3 2h8l23 14 21 13 7 5-2 4-2-3-4 2-19-12-23-14-16-10z" fill="#E3F8FE"/>
<path transform="translate(120,589)" d="m0 0 6 2 8 6 6 3 2-4 6 1 4 4v7l-5 6-1 76-1 9h-1l-1-85-6-8-2-5-15-11z" fill="#C8EFFE"/>
<path transform="translate(0,1025)" d="m0 0 5 2 22 13 19 12 12 8-1 3-5 1-19-12-24-15-9-6z" fill="#BFEBFD"/>
<path transform="translate(298,515)" d="m0 0 1 3 6 2 4 5v8l-6 7-6 1-6-3-3-4v-8l4-6 5-3z" fill="#E5F9FE"/>
<path transform="translate(426,1401)" d="m0 0 6 2 22 13 15 10 2 2h5l3-3h5l7 5v7l-6 8h-2l-1 2v-2l-5-1-4-5v-9l-4-1-22-14-21-13z" fill="#7ACFF7"/>
<path transform="translate(845,1084)" d="m0 0 7 1 5 5 2 3-1 7-5 5-5 3-6-3-4-5-1-9z" fill="#7FD1F8"/>
<path transform="translate(257,1214)" d="m0 0 6 3 4 3v6l-3 4v5l-5 4-9-3-4-6-1-9 5-3 3-3z" fill="#78CFF7"/>
<path transform="translate(171,1059)" d="m0 0h2v2l-15 10-11 7-1 2v59l1 4-5 5h-7l5-5 3-1v-55l-1-7-15 10-8 5-2 5-5-2 1-4 13-7 16-10 1-1 1-7 2-1v6l11-6z" fill="#BFEBFE"/>
<path transform="translate(571,1367)" d="m0 0 6 1 5 5 1 2 1 10-7 4-5 1-6-3-3-4v-7l3-5z" fill="#79CFF7"/>
<path transform="translate(388,1027)" d="m0 0 6 1 5 5 1 3v8l-7 6-7-1-6-5v-8l4-6z" fill="#BDEAFD"/>
<path transform="translate(222,368)" d="m0 0 5 2 18 11 21 13 20 13 4 4 4-1 3-2 5 1 2 2v10l-1 4-5 1-6-8-3-5-14-10-15-9-23-14-15-10z" fill="#E5F9FE"/>
<path transform="translate(238,588)" d="m0 0 7 1 10 6 4 3 11 2 22 14 7 4v3l-4 2-4-1-17-11-26-16-10-6z" fill="#E7F9FE"/>
<path transform="translate(591,1035)" d="m0 0h1l2 15 19 11 21 13 18 12 1 3-5-2-10-7-23-14-13-8-8-5-1 78h-2v-81l-4-1 2-1 2 1z" fill="#BDEBFE"/>
<path transform="translate(493,956)" d="m0 0 1 2 6 2 26 16 23 14 24 15 10 7 4 3 4 1 1 3 2 2h-7l-4-5-21-14-51-31-16-10v-2l-3-1z" fill="#8CD7F9"/>
<path transform="translate(120,466)" d="m0 0 5 1 28 17 3 2 1 4 6 4-4 3-14-9-24-15-1-5z" fill="#E4F8FE"/>
<path transform="translate(515,1229)" d="m0 0 5 2 21 12 15 10 9 7 4-1 5-3 7 6-1 6-5 6-2 4v-4l-4-2-6-11-18-12-23-14-7-5z" fill="#7CD0F7"/>
<path transform="translate(533,1069)" d="m0 0 2 1v2h3v90h-1l-1-24v-45l-1 59-2 2z" fill="#73CDF7"/>
<path transform="translate(0,1468)" d="m0 0 14 7 19 12 12 8 4 5h-8l-17-11-19-12-5-3z" fill="#89D5F9"/>
<path transform="translate(465,1252)" d="m0 0 2 1-1 3-5 2-3 2-1 4-20 12-16 10-1 3v5l-7-7 1-2h-2v-3l7-1 9-6 23-14z" fill="#8CD7F9"/>
<path transform="translate(377,748)" d="m0 0 6 2 14 8 24 15 23 14 15 10 8 6-2 1-14-8-11-7-26-16-20-12-17-11z" fill="#B5E8FD"/>
<path transform="translate(560,1384)" d="m0 0h2l-2 4-15 9-5 2 4 4 18 10 12 8 7 6-2 1-17-11-16-10-6-3-7 1-26 16-14 9-2-1 9-7 21-13 13-8 1-4 4 1 14-9z" fill="#8DD7F9"/>
<path transform="translate(846,1425)" d="m0 0 6 1 5 6-1 7-5 6-5 1-5-5-4-11 4-1z" fill="#76CEF7"/>
<path transform="translate(186,573)" d="m0 0 6 2 6 5 4-2 3-2 5 1 6 4-1 8-6 7-6-2-4-4-1-6 1-2-5-2-8-6z" fill="#E5F8FE"/>
<path transform="translate(603,749)" d="m0 0 6 2 19 12 28 17 19 12 13 9 3 3-1 2-15-10-26-16-28-17-18-12z" fill="#A9E3FC"/>
<path transform="translate(526,1066)" d="m0 0 2 1-8 6-33 21-4 10-1 83h-1l-1-86-2-2-2-8h10l16-10 14-9z" fill="#BBEAFD"/>
<path transform="translate(256,1241)" d="m0 0 2 2v21l-1 6 3 1-1 7-4-2-18-11-8-5v-4l6 1v2h6l13 8 2 1-1-9v-17z" fill="#7CD0F7"/>
<path transform="translate(227,469)" d="m0 0 1 2h5l1 2-35 21-3-2 1-5 20-12z" fill="#C1ECFE"/>
<path transform="translate(157,749)" d="m0 0 8 4 21 13 28 17 21 14 2 3-6-2-16-10-20-12-30-19-8-6z" fill="#BCEAFD"/>
<path transform="translate(335,794)" d="m0 0 7 2v-2l3 1v3l9 4 7 6 10 5 3 3 15 9 5 4 7 4-3 2-20-12-42-26z" fill="#E5F9FF"/>
<path transform="translate(112,1471)" d="m0 0 2 1-1 5-17 10-20 13h-8l5-5 19-12z" fill="#8DD7F9"/>
<path transform="translate(320,789)" d="m0 0 1 2h2l1 7-1 8v15l-1 21 1 4v30l-2 3-1-1z" fill="#73CDF7"/>
<path transform="translate(92,1273)" d="m0 0 2 1v2l-2 1v4l-22 13-11 7-2-2 2-1-2-3 17-11z" fill="#8ED8F9"/>
<path transform="translate(715,1372)" d="m0 0 5 1 19 11 5 3 1 3-8 2-13 8-19 12-21 13-4 3-3-1 8-6 19-12 21-13 13-7v-2l-14-8-9-6z" fill="#B0E5FC"/>
<path transform="translate(207,955)" d="m0 0h1v23l18-11 11-7 7-3-2 4-23 14-9 6h-2v17l-2 4v-18l-8 4-5 3-3-1 15-10 1-3v-21z" fill="#BDEAFD"/>
<path transform="translate(144,1425)" d="m0 0 5 1 4 4-1 8-7 8-5-5-4-9v-3z" fill="#78CFF7"/>
<path transform="translate(114,746)" d="m0 0 4 1 7 8-2 5-7 5-5-1-4-7 2-6z" fill="#E0F7FE"/>
<path transform="translate(379,1163)" d="m0 0 5 2 28 17 21 13 19 12 8 6 1 2-5-2-18-11-16-10-18-11-16-10-9-7z" fill="#83D3F8"/>
<path transform="translate(132,1164)" d="m0 0v3l-6 4-9 5-1 24h-1l-1-20h-3l-19 12-15 9-12 7-2-1 10-7 24-15 17-11z" fill="#8BD6F9"/>
<path transform="translate(388,918)" d="m0 0 6 2 2 2-1 8-3 3-1 56h-1l-1-50-1-6-4-5-1-5z" fill="#CCF0FE"/>
<path transform="translate(119,1023)" d="m0 0 3 1 1 4-28 17-5 1 1-6 15-9z" fill="#C6EEFE"/>
<path transform="translate(216,1043)" d="m0 0 5 2 17 11 28 17 17 11 9 7-2 2-11-8-47-29-14-10z" fill="#C5EEFE"/>
<path transform="translate(115,521)" d="m0 0 1 2 3 1 3 9 5 2 20 12 9 7 1 2-5-2-19-12-12-8-8 1-4-4 2-5z" fill="#E6F9FE"/>
<path transform="translate(256,821)" d="m0 0 2 1v70h-2l-1-21v-48z" fill="#C2ECFE"/>
<path transform="translate(307,1428)" d="m0 0h5l1 2v9l-6 2-3 3-4-5-7-2 2-7 11-1z" fill="#74CDF7"/>
<path transform="translate(400,1044)" d="m0 0 6 2 15 10 22 13 14 9 7 5 1-36h1v38l-5-1-16-10-23-14-11-7-11-8z" fill="#B8E9FD"/>
<path transform="translate(747,1039)" d="m0 0 2 4-10 8-26 16-24 15-9 6h-2l2-4 21-13 24-15 20-13h2z" fill="#96DBFA"/>
<path transform="translate(174,1397)" d="m0 0 3 3-2 3-1-3-15 10-17 10-8 6-8 4-8 6-1 1-1 14-2-4-1-13 13-7h2l-1-3 7-2 19-12z" fill="#A2E0FB"/>
<path transform="translate(256,1279)" d="m0 0 2 1v63l-2 4-1-8v-49z" fill="#BDEBFE"/>
<path transform="translate(191,367)" d="m0 0 3 1-9 7-18 11-24 15-13 8-2-1 4-4 23-14 25-16z" fill="#FCFDFE"/>
<path transform="translate(535,1092)" d="m0 0 2 1v69l-1 10-3-3v-15l1-6z" fill="#BDEBFE"/>
<path transform="translate(60,761)" d="m0 0h1l2 6-1 4-2-1v2l-9 5-11 7-5 2-3-1 1-5 2-3 1 3 11-7 8-5 2-3h3z" fill="#E4F8FE"/>
<path transform="translate(480,1196)" d="m0 0 5 1 5 4 2 3v10h-1l-2-6-13 1-2-3-3-1-1-8h2l1 5z" fill="#BCEAFD"/>
<path transform="translate(27,785)" d="m0 0 3 3-1 3-17 10-9 6h-3l1-5 8-6z" fill="#E5F9FE"/>
<path transform="translate(47,544)" d="m0 0 7 2 38 24 14 9-4 1-18-11-26-16-11-8z" fill="#D2F2FE"/>
<path transform="translate(175,853)" d="m0 0h1v32l2-3-1-2h2l-1-4 1-5h1v28l-2-3-1-4-1 78h-1z" fill="#E4F8FE"/>
<path transform="translate(765,1042)" d="m0 0 11 7 28 17 24 15 8 7-1 2-14-10-23-14-24-15-8-6-3-2z" fill="#A2E0FB"/>
<path transform="translate(784,1247)" d="m0 0 2 1-22 14-3 3-4 7-5-5-2-4-12-8-7-6h3l12 8 5 4 5-1h6l18-11z" fill="#7ACFF7"/>
<path transform="translate(298,976)" d="m0 0 7 2 22 13 22 14 12 9-2 2-5-4-19-12-28-17-9-6z" fill="#8ED8F9"/>
<path transform="translate(222,368)" d="m0 0 5 2 18 11 21 13 20 13 2 3-4-1-22-14-17-10-20-13-3-2z" fill="#FDFDFE"/>
<path transform="translate(181,1179)" d="m0 0 12 6 23 14 21 13 9 8-3 1-13-10-17-10-18-11-14-9-1 3z" fill="#90D8F9"/>
<path transform="translate(287,535)" d="m0 0v3l-19 12-21 13-13 8-5 1 4-4 24-15 22-14z" fill="#EEFAFE"/>
<path transform="translate(34,834)" d="m0 0h1v105h-1l-1-86-1 21h-1v-37l2 1z" fill="#BDEBFE"/>
<path transform="translate(114,1203)" d="m0 0 4 1 4 7 20 12 11 8-2 1-18-11-12-8-8 1-3-3 1-5z" fill="#BCEAFD"/>
<path transform="translate(480,833)" d="m0 0h1v92l-2 1v-89z" fill="#BDEBFE"/>
<path transform="translate(277,798)" d="m0 0 2 1-5 5-10 6-6 10-4-2-4-8 2-3 6-2 3 3 4-2z" fill="#BCEAFD"/>
<path transform="translate(144,1088)" d="m0 0h2v51l1 4-5 5h-7l5-5 3-1v-53z" fill="#BDEBFE"/>
<path transform="translate(238,588)" d="m0 0 7 1 10 6 4 3 11 2 3 3-1 3 5 2 2 5-5-2-26-16-10-6z" fill="#FDFDFE"/>
<path transform="translate(390,1282)" d="m0 0h1v78h-2v-72z" fill="#BDEBFE"/>
<path transform="translate(17,1228)" d="m0 0h1l1 5 5 2-1 7-2-2-5 1-10 7-6 1 1-5 15-10z" fill="#BBEAFD"/>
<path transform="translate(354,1164)" d="m0 0h2l-2 4-13 8-19 12-15 9-2-1 5-4 23-15z" fill="#82D3F8"/>
<path transform="translate(749,1392)" d="m0 0 6 1 4 4 23 14 17 11 8 6-3 1-12-8-21-13-12-8-10-7z" fill="#81D2F8"/>
<path transform="translate(328,960)" d="m0 0 6 1 6 3 6 5 9 4 15 10 5 5-2 1-24-15-21-13z" fill="#BDEBFE"/>
<path transform="translate(79,1392)" d="m0 0 10 5 24 15 15 10 1 2-5-1-19-12-16-10-12-7z" fill="#87D5F8"/>
<path transform="translate(179,845)" d="m0 0h1v26l-1 9-1 5h-2v-39z" fill="#BDEBFE"/>
<path transform="translate(223,1388)" d="m0 0 5 2 14 8 21 13 17 11 2 3-6-2-17-11-21-13-14-9z" fill="#92D9F9"/>
<path transform="translate(771,1387)" d="m0 0 5 2 17 10 19 12 21 13 3 3v2l-4-2-13-9-22-13-19-12-7-5z" fill="#78CFF7"/>
<path transform="translate(598,1054)" d="m0 0 4 1 11 6 21 13 18 12 1 3-5-2-10-7-23-14-13-8z" fill="#AAE3FC"/>
<path transform="translate(422,776)" d="m0 0 6 1 22 14 15 10 2 3-6-2-10-6-11-7-18-11z" fill="#AEE5FC"/>
<path transform="translate(305,963)" d="m0 0h4l4 1-14 9h-2l1 3-7 2-5 3-2-1v-1l-1-2-3-1 11-7 7 1 5-4h3z" fill="#B9E9FD"/>
<path transform="translate(328,887)" d="m0 0 6 2 20 12 19 12 9 7v3l-16-11-26-16-12-8z" fill="#C8EEFE"/>
<path transform="translate(464,958)" d="m0 0h2l-2 4-31 19-7 4-3-1 10-7 19-12z" fill="#ADE4FC"/>
<path transform="translate(314,955)" d="m0 0 8 2-4 4-3 2h-6l-1 2-3-2v2l2 1-5 2-4 3-5-1v-2l15-9z" fill="#7BD0F7"/>
<path transform="translate(466,585)" d="m0 0 2 4h2l1 13-1 6h-1l-1-11-1 75h-1z" fill="#73CDF7"/>
<path transform="translate(206,1371)" d="m0 0 5 2 3 10-9 2-4-2v-7z" fill="#81D2F8"/>
<path transform="translate(606,1166)" d="m0 0 4 1 16 9 19 12 11 8-1 2-19-12-20-12-10-7z" fill="#84D4F8"/>
<path transform="translate(573,1299)" d="m0 0h1v64l-2 2v-58z" fill="#BDEBFE"/>
<path transform="translate(651,1215)" d="m0 0v3l-10 7-18 11-15 9-4 1 4-4 22-14 19-12z" fill="#9BDDFA"/>
<path transform="translate(556,996)" d="m0 0 4 1 22 14 5 4 4 1 1 3 2 2h-7l-4-5-27-18z" fill="#93DAFA"/>
<path transform="translate(298,434)" d="m0 0 2 2v41l-1 37h-1z" fill="#ECFAFE"/>
<path transform="translate(271,1373)" d="m0 0 12 6 13 8 19 12 5 4h-4l-26-16-19-12z" fill="#7FD2F8"/>
<path transform="translate(338,1301)" d="m0 0 5 2 1 2-13 8h-6v3l-4-2 1-4 5-2z" fill="#8FD8F9"/>
<path transform="translate(120,589)" d="m0 0 6 2 8 6 6 3 2-4 6 1 3 3-5 5-6-2-3-2-1 2-5-5-11-8z" fill="#E4F8FE"/>
<path transform="translate(491,1371)" d="m0 0 5 2 16 9 20 13 2 1v2l-6-2-21-13-16-10z" fill="#7ED1F8"/>
<path transform="translate(515,1229)" d="m0 0 5 2 21 12 15 10 9 7v3l-15-11-28-17-7-5z" fill="#98DCFA"/>
<path transform="translate(185,1439)" d="m0 0h9l11 7-4 2 7 4v2l-5-2-18-11z" fill="#BAEAFD"/>
<path transform="translate(320,842)" d="m0 0h2l1 4v30l-2 3-1-1z" fill="#73CDF7"/>
<path transform="translate(465,588)" d="m0 0h1l1 90 1 3-1 2-3-1z" fill="#BCEAFD"/>
<path transform="translate(426,1401)" d="m0 0 6 2 22 13 15 10 2 2 5 1-3 2-9-5-17-11-21-13z" fill="#8CD7F9"/>
<path transform="translate(72,786)" d="m0 0 3 1-5 4-22 14-8 5-2-1v-2l9-5 20-13z" fill="#C3EDFE"/>
<path transform="translate(655,781)" d="m0 0 4 1 24 15 8 7-1 2-15-10-16-10z" fill="#9CDDFA"/>
<path transform="translate(209,480)" d="m0 0m-2 1 2 1 5 2-5 4-10 6-3-2 1-5z" fill="#C9EFFE"/>
<path transform="translate(541,1402)" d="m0 0 16 8 17 11 7 6-2 1-17-11-16-10-5-3z" fill="#82D3F8"/>
<path transform="translate(29,1245)" d="m0 0h7l-1 2-1 39-1 12h-1v-52z" fill="#BDEBFE"/>
<path transform="translate(834,1215)" d="m0 0h2v2l-17 11-20 12-2-1 10-7 20-13z" fill="#ADE4FC"/>
<path transform="translate(463,1373)" d="m0 0 2 1v2l-20 12-13 8-4 1v-2l23-14z" fill="#82D3F8"/>
<path transform="translate(243,957)" d="m0 0v3l-30 19h-3v-2l30-19z" fill="#B5E7FD"/>
<path transform="translate(132,1164)" d="m0 0v3l-6 4-9 5-1 24h-1l-1-20h-3l-3 1v-3l7-5 14-7z" fill="#B9E9FD"/>
<path transform="translate(578,749)" d="m0 0h3v2l-20 13-11 6-2-1 5-4 17-11z" fill="#B9E9FD"/>
<path transform="translate(574,1167)" d="m0 0 2 1-8 6-21 13-6 2 5-5 19-12z" fill="#80D2F8"/>
<path transform="translate(7,1035)" d="m0 0 6 1 7 4 3 3 17 9 5 4-1 3-16-10-19-12z" fill="#E5F9FF"/>
<path transform="translate(127,407)" d="m0 0 2 1-4 4-5 3-3 7-5-2-1-5 3-4h6z" fill="#E9F9FE"/>
<path transform="translate(134,1422)" d="m0 0 3 1-4 4-7 3-8 6-1 1-1 14-2-4-1-13 13-7h2l-1-3z" fill="#B8E9FD"/>
<path transform="translate(208,780)" d="m0 0 9 5 18 12 2 3-6-2-16-10-9-6z" fill="#BDEAFD"/>
<path transform="translate(241,1373)" d="m0 0v3l-13 8-5 4-8 4-7 4v-3l9-6 5-3z" fill="#8BD7F9"/>
<path transform="translate(376,1385)" d="m0 0 2 1-4 4-23 14-10 6-2-1 10-7 24-15z" fill="#9ADDFA"/>
<path transform="translate(46,1372)" d="m0 0 12 6 21 13v2l-5-1-21-13-7-5z" fill="#82D3F8"/>
<path transform="translate(205,691)" d="m0 0 5 1 3 3 1 7-5 1-8-7z" fill="#E5F9FE"/>
<path transform="translate(765,1042)" d="m0 0 11 7 25 15-1 2-5-2-20-12-9-7-3-2z" fill="#B1E6FC"/>
<path transform="translate(256,1241)" d="m0 0 2 2v21l-1 6 3 1-1 7-3-1-1-5-1-4h2l-1-9v-17z" fill="#9BDDFA"/>
<path transform="translate(114,1113)" d="m0 0h1l2 46-1 13h-1l-1-16z" fill="#C6EEFE"/>
<path transform="translate(250,897)" d="m0 0h2l-1 3-18 11-12 8h-2l1-3 17-11z" fill="#CAEFFE"/>
<path transform="translate(323,876)" d="m0 0h3l1 11-2 6-5-5-1-6 2-4z" fill="#B0E6FC"/>
<path transform="translate(653,958)" d="m0 0 2 1 3 7v10l-1 2-4 1-1-4z" fill="#77CEF7"/>
<path transform="translate(308,779)" d="m0 0v3l-28 18-2-1v-2l20-12z" fill="#C0ECFE"/>
<path transform="translate(747,1039)" d="m0 0 2 4-10 8-18 11-2-2 20-13 6-4h2z" fill="#B7E8FD"/>
<path transform="translate(100,1035)" d="m0 0 5 1v3l-11 7h-4l1-6z" fill="#C3EDFE"/>
<path transform="translate(689,957)" d="m0 0v3l-11 8-15 9h-2v-2l26-17z" fill="#82D3F8"/>
<path transform="translate(136,1081)" d="m0 0m-2 1h2l-1 3-16 10-2 5-5-2 1-4 13-7z" fill="#C4EDFE"/>
<path transform="translate(526,1066)" d="m0 0 2 1-8 6-22 14-2-1 7-6z" fill="#BEEBFE"/>
<path transform="translate(112,1471)" d="m0 0 2 1-1 5-14 8-1-3 7-7z" fill="#84D4F8"/>
<path transform="translate(705,1408)" d="m0 0 4 1-10 7-15 9-4 3-3-1 8-6 19-12z" fill="#8BD6F9"/>
<path transform="translate(523,1198)" d="m0 0m-1 1m-2 1h2l-2 4-25 15v-3l20-13z" fill="#82D3F8"/>
<path transform="translate(279,977)" d="m0 0 5 1 4-1-4 5-8 5h-3v-6z" fill="#84D4F8"/>
<path transform="translate(493,956)" d="m0 0 1 2 6 2 18 11v3l-5-2-18-11v-2l-3-1z" fill="#A4E0FB"/>
<path transform="translate(603,749)" d="m0 0 6 2 19 12v3l-5-2-11-7-9-6z" fill="#BAEAFD"/>
<path transform="translate(176,1379)" d="m0 0 1 2h3v13l-2 6-3-3z" fill="#73CDF7"/>
<path transform="translate(465,1047)" d="m0 0h1v38l-5-1-12-8v-2l5 2 10 7z" fill="#BDEBFE"/>
<path transform="translate(784,1247)" d="m0 0 2 1-22 14-4 3-5-1v-2l9-3 14-9z" fill="#A8E2FC"/>
<path transform="translate(622,1409)" d="m0 0 7 1 4 4 16 10 2 3-5-2-16-10h-7l2-4-3-1z" fill="#91D9F9"/>
<path transform="translate(465,1252)" d="m0 0 2 1-1 3-5 2-3 2-1 4-10 3-1-3z" fill="#B9E9FD"/>
<path transform="translate(265,1074)" d="m0 0 6 2 12 8 9 7-2 2-11-8-14-9z" fill="#CDF0FE"/>
<path transform="translate(420,1280)" d="m0 0 1 3 5-1-6 6v6l-7-7 1-2h-2v-3l7-1z" fill="#B8E9FD"/>
<path transform="translate(379,1163)" d="m0 0 5 2 23 14-1 3-15-9-11-8z" fill="#7FD2F8"/>
<path transform="translate(330,1074)" d="m0 0 1 3-19 12-8 5v-3l15-10z" fill="#C1ECFE"/>
<path transform="translate(90,1041)" d="m0 0 1 3-1 2 2 1-10 6-3-3 1-3z" fill="#E2F8FE"/>
<path transform="translate(366,977)" d="m0 0 5 2 18 11 4 4-6-1v-2l-9-3v-2l-4-2-8-5z" fill="#BEEBFE"/>
<path transform="translate(452,1264)" d="m0 0 2 1-10 7-8 5-3-1 1-3 6-1 2-5 2-2 4 1z" fill="#84D4F8"/>
<path transform="translate(166,1241)" d="m0 0 6 1 14 8 13 9-2 1-12-7-13-8-6-3z" fill="#BFEBFE"/>
<path transform="translate(222,1204)" d="m0 0 5 2 11 7 8 7-3 1-13-10-8-5z" fill="#8AD6F9"/>
<path transform="translate(67,1055)" d="m0 0h2l-1 7h-6l-1 3-3 1-2 2-3-4 5-4 8-4z" fill="#E4F8FE"/>
<path transform="translate(690,1371)" d="m0 0h2l-2 4-21 13-2-1 7-6z" fill="#7FD2F8"/>
<path transform="translate(110,764)" d="m0 0v3l-21 12-3-1 9-6z" fill="#C7EEFE"/>
<path transform="translate(733,1392)" d="m0 0 2 1-9 6-16 10-3-2 20-12z" fill="#96DBFA"/>
<path transform="translate(125,1214)" d="m0 0 6 2 21 14 1 2-5-2-15-9-8-5z" fill="#C0ECFE"/>
<path transform="translate(355,1058)" d="m0 0m-1 1m-2 1h2l-2 4-20 12-1-3 18-11z" fill="#B1E6FC"/>
<path transform="translate(424,992)" d="m0 0 5 2 8 5-1 3-6-2-7-2-2-3h3z" fill="#92D9FA"/>
<path transform="translate(227,469)" d="m0 0 1 2h5l1 2-9 5-5-2v-3z" fill="#CEF1FE"/>
<path transform="translate(207,1394)" d="m0 0v3l-9 6-14 9v-3l11-8z" fill="#81D2F8"/>
<path transform="translate(495,1036)" d="m0 0 4 1 11 7 1 2-1 2 3 1-2 1-2-1v-2h-2v-2l-7-2-5-4z" fill="#7CD0F7"/>
<path transform="translate(287,535)" d="m0 0v3l-17 11-4-2 18-11z" fill="#FBFDFE"/>
<path transform="translate(120,466)" d="m0 0 5 1 11 7v1h-5l-5-3-5 1-1-5z" fill="#BEEBFE"/>
<path transform="translate(103,456)" d="m0 0 5 1 6 3-1 5-4 1-3-2-3-6z" fill="#C0ECFE"/>
<path transform="translate(83,567)" d="m0 0 7 2 16 10-4 1-18-11z" fill="#D7F4FE"/>
<path transform="translate(331,1411)" d="m0 0 6 1 3 3 11 7 6 3-2 2-24-14z" fill="#8DD7F9"/>
<path transform="translate(171,1059)" d="m0 0h2v2l-15 10-9 5 1-4z" fill="#C9EFFE"/>
<path transform="translate(445,791)" d="m0 0h5l15 10 2 3-6-2-10-6-6-4z" fill="#B6E8FD"/>
<path transform="translate(584,1385)" d="m0 0 6 2 11 7 10 7-1 2-20-13-6-4z" fill="#8BD7F9"/>
<path transform="translate(517,972)" d="m0 0 6 2 14 9v2l-4-1-15-9z" fill="#86D5F8"/>
<path transform="translate(193,1030)" d="m0 0h2l-1 5-3 1-1 4h-7l2-5z" fill="#7ED1F8"/>
<path transform="translate(423,1019)" d="m0 0 5 1 8 4 12 8v3l-25-15z" fill="#BDEBFE"/>
<path transform="translate(289,613)" d="m0 0 10 5v3l-4 2-4-1-2-1v-2h3v-2l-5-1 2-1z" fill="#FEFEFE"/>
<path transform="translate(191,367)" d="m0 0 3 1-9 7-8 5-4-1 10-7z" fill="#F5FCFE"/>
<path transform="translate(560,1384)" d="m0 0h2l-2 4-15 9-5 2-1 2 1-4 19-12z" fill="#9ADDFA"/>
<path transform="translate(305,961)" d="m0 0m-2 1h2v3l2 1-5 2-4 3-5-1v-2z" fill="#82D3F8"/>
<path transform="translate(175,1411)" d="m0 0h1v7h-3l-17 11-2-1 9-7 10-6h2z" fill="#88D5F9"/>
<path transform="translate(309,610)" d="m0 0v3l-2 3h2v2l-9 5-1-6z" fill="#F7FCFE"/>
<path transform="translate(247,559)" d="m0 0 3 1-3 3-13 8-5 1 4-4z" fill="#F6FCFE"/>
<path transform="translate(731,1248)" d="m0 0 4 2 11 7 8 6-3 1-17-12z" fill="#9FDFFB"/>
<path transform="translate(63,768)" d="m0 0 5 3 2 7-4-1-6-4v-3h2z" fill="#C1ECFE"/>
<path transform="translate(390,1363)" d="m0 0 1 3 6 2 1 2-2 3-4-1-3-3-4-2 4-1z" fill="#BDEBFE"/>
<path transform="translate(92,1273)" d="m0 0 2 1v2l-5 2v2l-5 2h-3v2l-5 1 1-3z" fill="#BDEBFE"/>
<path transform="translate(123,755)" d="m0 0h2l-2 5-7 5-5-1v-2l5-2 2-2h3v-2z" fill="#C5EDFE"/>
<path transform="translate(384,1007)" d="m0 0 1 3 3 1-5 4-2-1 1-2-5 2v2l-4-1 5-4z" fill="#BEEBFE"/>
<path transform="translate(172,379)" d="m0 0 3 2-16 10h-3v-2z" fill="#F9FDFE"/>
<path transform="translate(197,1383)" d="m0 0 2 1-10 7-7 4-2 6h-2l1-7z" fill="#B7E8FD"/>
<path transform="translate(137,542)" d="m0 0 5 2 12 8 3 4-5-2-14-9z" fill="#E9F9FE"/>
<path transform="translate(72,786)" d="m0 0 3 1-5 4-11 7-2-1 8-7z" fill="#BBEAFD"/>
<path transform="translate(294,766)" d="m0 0 3 3-1 4-5 2-2-1 1-5z" fill="#CDF0FE"/>
<path transform="translate(322,1184)" d="m0 0 2 1-5 5-12 7-2-1 5-4z" fill="#7BD0F7"/>
<path transform="translate(269,957)" d="m0 0 5 2 10 6 5 5-6-2-12-8z" fill="#AEE5FC"/>
<path transform="translate(454,1417)" d="m0 0 11 6 6 5 5 1-3 2-9-5-10-7z" fill="#92D9FA"/>
<path transform="translate(534,1397)" d="m0 0 5 2v2h2l-1 3-7 1-5 3h-2v-2l9-6z" fill="#8CD7F9"/>
<path transform="translate(223,1388)" d="m0 0 5 2 14 8 2 4-11-6-10-7z" fill="#9EDEFB"/>
<path transform="translate(771,1387)" d="m0 0 5 2 17 10-1 3-17-11z" fill="#83D3F8"/>
<path transform="translate(109,1029)" d="m0 0 1 4v3l-5 2-4-4z" fill="#E5F9FF"/>
<path transform="translate(321,951)" d="m0 0h2l2 2 2-2 3 7-3 2-7-5 2-1z" fill="#BDEBFE"/>
<path transform="translate(144,1139)" d="m0 0h2l1 4-5 5h-7l5-5 3-1z" fill="#B7E8FD"/>
<path transform="translate(400,1044)" d="m0 0 6 2 14 9-1 2-5-2-14-10z" fill="#BDEBFE"/>
<path transform="translate(588,731)" d="m0 0h7l5 5h-2v2l-3-1v-2l-6-1-2-2z" fill="#BCEAFD"/>
<path transform="translate(469,503)" d="m0 0h3v9l-2 12h-1z" fill="#74CDF7"/>
<path transform="translate(637,1077)" d="m0 0 5 2 11 8v2l-5-2-10-7-2-2z" fill="#B9E9FD"/>
<path transform="translate(250,940)" d="m0 0 1 2-2 4h4v2l-8 2-1 2v-6l3-3h2z" fill="#78CFF7"/>
<path transform="translate(696,822)" d="m0 0h9l5 1-4 4-6-1z" fill="#BDEBFE"/>
<path transform="translate(56,625)" d="m0 0 1 2h2v12l-2 5h-1z" fill="#C1ECFE"/>
<path transform="translate(206,1194)" d="m0 0 5 2 11 7-1 3-14-9z" fill="#93DAFA"/>
<path transform="translate(691,1077)" d="m0 0 3 1-5 4-9 6h-2l2-4z" fill="#9DDEFA"/>
<path transform="translate(511,603)" d="m0 0 5 2 13 8 1 2-5-2-6-2v-3l-6-1v-2h-2z" fill="#C1ECFE"/>
<path transform="translate(346 1e3)" d="m0 0 9 5 6 5-2 2-5-4-10-6z" fill="#92D9F9"/>
<path transform="translate(21,957)" d="m0 0 4 3-1 3-3 2h-4l1-5z" fill="#93DAFA"/>
<path transform="translate(134,1422)" d="m0 0 3 1-4 4-7 3-5 2 5-5h2l-1-3z" fill="#BEEBFE"/>
<path transform="translate(651,1215)" d="m0 0v3l-10 7-4 1 2-4z" fill="#8FD8F9"/>
<path transform="translate(79,1196)" d="m0 0 2 1v2l-16 9-2-1 10-7z" fill="#97DBFA"/>
<path transform="translate(656,1092)" d="m0 0 4 1v6l1 4-4-2-2-6z" fill="#7ED1F8"/>
<path transform="translate(266,1414)" d="m0 0 5 2 10 7 1 2-6-2-11-7z" fill="#B3E7FD"/>
<path transform="translate(463,1373)" d="m0 0 2 1v2l-13 8-1-2 4-4z" fill="#84D4F8"/>
<path transform="translate(715,1372)" d="m0 0 5 1 12 7v2l-5-1-12-8z" fill="#8AD6F9"/>
<path transform="translate(268,1283)" d="m0 0 6 2 8 4 4 5-5-2-13-8z" fill="#BDEBFE"/>
<path transform="translate(834,1215)" d="m0 0h2v2l-12 8-3-2z" fill="#BBEAFD"/>
<path transform="translate(285,875)" d="m0 0v3l-10 7-4 2 1-4z" fill="#DAF5FE"/>
<path transform="translate(175,1431)" d="m0 0 2 2 2 3-8 5-2-1 3-7z" fill="#BDEBFE"/>
<path transform="translate(398,1414)" d="m0 0m-2 1 3 1-5 4-8 5-3-1 10-7z" fill="#87D5F8"/>
<path transform="translate(524,1407)" d="m0 0h2l-1 3-13 8-1-3z" fill="#95DAFA"/>
<path transform="translate(414,974)" d="m0 0 4 2 1 6-2 4-3-1z" fill="#77CEF7"/>
<path transform="translate(327,1308)" d="m0 0 4 3-1 2h-5v3l-4-2 1-4z" fill="#BAEAFD"/>
<path transform="translate(550,1250)" d="m0 0 8 4 8 7-1 2-15-11z" fill="#B8E9FD"/>
<path transform="translate(515,1229)" d="m0 0 5 2 14 8-2 2-16-10z" fill="#A4E1FB"/>
<path transform="translate(822,1078)" d="m0 0 7 4 7 6-1 2-14-10z" fill="#BDEBFE"/>
<path transform="translate(252,1066)" d="m0 0 6 2 8 5-1 2-5-2-8-5z" fill="#C0ECFD"/>
<path transform="translate(272,981)" d="m0 0 2 1v6l-7 4 1-5h3l-2-4z" fill="#BAE9FD"/>
<path transform="translate(464,958)" d="m0 0h2l-2 4-8 5-3-1 7-6z" fill="#B8E9FD"/>
<path transform="translate(354,1164)" d="m0 0h2l-2 4-8 5-2-3z" fill="#94DAFA"/>
<path transform="translate(144,1088)" d="m0 0h2v15l-2 1-1-4v-11z" fill="#B4E7FD"/>
<path transform="translate(622,1409)" d="m0 0 7 1 6 6-10-1-2-1 2-3-3-1z" fill="#A7E2FB"/>
<path transform="translate(441,1267)" d="m0 0v3l-3 3-4 1 1 2-4 1v-4z" fill="#B6E8FD"/>
<path transform="translate(379,1163)" d="m0 0 5 2 10 6-1 3-12-8z" fill="#8FD8F9"/>
<path transform="translate(344,795)" d="m0 0 5 2 7 4-3 2-9-5z" fill="#BEEBFE"/>
<path transform="translate(821,1417)" d="m0 0 12 7 3 3v2l-4-2-11-8z" fill="#87D5F8"/>
<path transform="translate(119,1023)" d="m0 0 3 1 1 4-5 2-2-2 1-4z" fill="#E5F9FF"/>
<path transform="translate(328,887)" d="m0 0 6 2 10 6-1 3-15-10z" fill="#CBF0FE"/>
<path transform="translate(256,1267)" d="m0 0 1 3 3 1-1 7-3-1-1-5-1-4z" fill="#BDEBFE"/>
<path transform="translate(617,1236)" d="m0 0h2l-2 4-11 6-2-1z" fill="#8CD7F9"/>
<path transform="translate(664,1084)" d="m0 0 5 2v5l-4-2-4-1 1-3z" fill="#7CD0F7"/>
<path transform="translate(120,589)" d="m0 0 6 2 8 6v2l-5-2-9-7z" fill="#CEF1FE"/>
<path transform="translate(139,477)" d="m0 0 6 2 8 5v2l-4-2-7-3-4-3z" fill="#C7EEFE"/>
<path transform="translate(514,1222)" d="m0 0m-2 1 2 1-1 2 2 2-5 2-4-2v-2z" fill="#A1DFFB"/>
<path transform="translate(235,1212)" d="m0 0 4 2 7 6-3 1-8-6z" fill="#92D9F9"/>
<path transform="translate(31,1207)" d="m0 0 8 1 2 1-1 2-4 1-3-2-3-1z" fill="#BDEBFE"/>
<path transform="translate(343,1171)" d="m0 0h2l-2 4-9 5 2-5z" fill="#88D5F9"/>
<path transform="translate(755,1028)" d="m0 0 5 2-2 6h-3l-1-6z" fill="#BAEAFD"/>
<path transform="translate(240 1e3)" d="m0 0 2 1v6l-4 2-3-2 4-1-2-4z" fill="#BEEBFE"/>
<path transform="translate(689,957)" d="m0 0v3l-9 6-2-2z" fill="#B8E9FD"/>
<path transform="translate(37,942)" d="m0 0 3 1 2 3v5l-4-2v-3l-3-1z" fill="#7CD0F7"/>
<path transform="translate(219,1387)" d="m0 0 4 1-8 4-7 4v-3z" fill="#9CDEFA"/>
<path transform="translate(159,1231)" d="m0 0 2 1-2 5-5 1-1-3z" fill="#BEEBFE"/>
<path transform="translate(523,1198)" d="m0 0m-1 1m-2 1h2l-2 4-7 4-2-1 4-4z" fill="#77CFF7"/>
<path transform="translate(664,1159)" d="m0 0h1v30h-1z" fill="#BDEBFE"/>
<path transform="translate(433,977)" d="m0 0h2v3l-9 5-3-1z" fill="#98DCFA"/>
<path transform="translate(321,864)" d="m0 0h1l1 5v7l-2 3-1-1v-8z" fill="#84D4F8"/>
<path transform="translate(208,780)" d="m0 0 9 5-2 3-9-6z" fill="#C1ECFE"/>
<path transform="translate(103,1266)" d="m0 0h2l-1 4h-4v2l-5 2v-3z" fill="#BAE9FD"/>
<path transform="translate(452,1264)" d="m0 0 2 1-7 5-1-2-3 1 1-4 4 1z" fill="#8FD8F9"/>
<path transform="translate(196,1044)" d="m0 0v3l-12 8-2-1 9-7z" fill="#E2F8FE"/>
<path transform="translate(314,955)" d="m0 0 8 2-4 4-4 2z" fill="#BEEBFE"/>
<path transform="translate(574,1167)" d="m0 0 2 1-8 6-4 1 4-5z" fill="#7DD1F8"/>
<path transform="translate(158,1067)" d="m0 0h2l-2 4-9 5 1-4z" fill="#C7EEFE"/>
<path transform="translate(587,1015)" d="m0 0 4 1 1 3 2 2h-7l-1-4z" fill="#7DD1F8"/>
<path transform="translate(366,1009)" d="m0 0 5 1v3l-1 2-2-1h-3l-1-3z" fill="#A5E1FB"/>
<path transform="translate(218,972)" d="m0 0h3v2l-8 5h-3v-2z" fill="#8DD7F9"/>
<path transform="translate(277,798)" d="m0 0 2 1-5 5-5 3-2-1 8-7z" fill="#B1E6FC"/>
<path transform="translate(409,1407)" d="m0 0m-2 1h2l-1 3-8 5-2-1 4-4z" fill="#7BD0F7"/>
<path transform="translate(229,1380)" d="m0 0m-2 1 2 1-5 5-7 1 2-3z" fill="#88D5F9"/>
<path transform="translate(29,1358)" d="m0 0 4 1-2 7h-2l-1-6z" fill="#BDEBFE"/>
<path transform="translate(287,1295)" d="m0 0 6 1 9 7-2 1-13-8z" fill="#BDEBFE"/>
<path transform="translate(679,798)" d="m0 0h5l7 6-1 2-11-7z" fill="#B4E7FD"/>
<path transform="translate(649,777)" d="m0 0 5 2 5 5h-3l-8-5z" fill="#BAE9FD"/>
<path transform="translate(208,483)" d="m0 0h5l1 2-6 4-5-1 3-2h3z" fill="#E2F7FE"/>
<path transform="translate(200,1447)" d="m0 0h7l3 3-1 1h-5z" fill="#8FD8F9"/>
<path transform="translate(584,1385)" d="m0 0 6 2 7 4-1 3-12-8z" fill="#92D9F9"/>
<path transform="translate(472,1367)" d="m0 0h2l-1 4-7 4-2-1 3-3 5-2z" fill="#7BD0F7"/>
<path transform="translate(596,1246)" d="m0 0 6 2 4 4-5-1-7-3z" fill="#BDEBFE"/>
<path transform="translate(136,1081)" d="m0 0m-2 1h2l-1 3-9 5 1-4z" fill="#C9EFFE"/>
<path transform="translate(419,1056)" d="m0 0 6 2 5 3v2l-5-1-6-4z" fill="#B1E6FC"/>
<path transform="translate(264,946)" d="m0 0 4 1-1 2h2l-1 2-4-1-3 2-1-4z" fill="#73CDF7"/>
<path transform="translate(250,897)" d="m0 0h2l-1 3-9 5-2-2z" fill="#E3F8FE"/>
<path transform="translate(439,785)" d="m0 0 5 2 4 4-7-1-2-2z" fill="#98DCFA"/>
<path transform="translate(186,573)" d="m0 0 6 2 8 6-3 1-11-8z" fill="#F2FBFE"/>
<path transform="translate(75,560)" d="m0 0 11 6 1 2-8-2-4-4z" fill="#CAEFFE"/>
<path transform="translate(384,451)" d="m0 0 4 1 3 7-5-2-3-2z" fill="#E5F9FF"/>
<path transform="translate(115,1477)" d="m0 0h1l1 23h-2z" fill="#BAE9FD"/>
<path transform="translate(115,473)" d="m0 0h1v23h-1z" fill="#E5F9FF"/>
<path transform="translate(847,1473)" d="m0 0h1l1 12-1 9h-1z" fill="#BDEBFE"/>
<path transform="translate(481,1480)" d="m0 0h1v20h-1z" fill="#BDEBFE"/>
<path transform="translate(590,1253)" d="m0 0 2 1-8 8v-3l5-5z" fill="#A5E1FB"/>
<path transform="translate(481,1448)" d="m0 0h1v15h-1z" fill="#BDEBFE"/>
<path transform="translate(131,749)" d="m0 0h2l-2 4-4 2 3-5z" fill="#C7EEFE"/>
<path transform="translate(591,1451)" d="m0 0h2v8l-2-4z" fill="#BDEBFE"/>
<path transform="translate(368,1468)" d="m0 0h2v5l-2 1z" fill="#BDEBFE"/>
<path transform="translate(664,1484)" d="m0 0h1v10h-1z" fill="#BDEBFE"/>
<path transform="translate(298,1476)" d="m0 0h1v10h-1z" fill="#BDEBFE"/>
<path transform="translate(404,1386)" d="m0 0 4 2 2 3-4-2z" fill="#90D9F9"/>
<path transform="translate(313,878)" d="m0 0 5 2 1 2-5-2z" fill="#D5F3FE"/>
<path transform="translate(703,1243)" d="m0 0h1v9h-1z" fill="#ACE4FC"/>
<path transform="translate(164,1007)" d="m0 0 2 1-4 3-2-1z" fill="#BDEBFE"/>
<path transform="translate(115,867)" d="m0 0 2 1v3l-3-1z" fill="#E5F9FF"/>
<path transform="translate(847,188)" d="m0 0 3 1v2h-4z" fill="#FEFEFE"/>
<path transform="translate(366,1452)" d="m0 0h3v3l-3-1z" fill="#AAE3FC"/>
<path transform="translate(389,1017)" d="m0 0h2l-1 5h-1z" fill="#DFF7FE"/>
<path transform="translate(182,570)" d="m0 0 4 2h-3z" fill="#F1FBFE"/>
<path transform="translate(298,1465)" d="m0 0h1v5h-1z" fill="#BDEBFE"/>
<path transform="translate(114,1100)" d="m0 0h2l-1 3z" fill="#CDF0FE"/>
<path transform="translate(158,1011)" d="m0 0 2 1-4 1z" fill="#BDEBFE"/>
<path transform="translate(621,1415)" d="m0 0 2 1h-3z" fill="#AAE3FC"/>
<path transform="translate(715,1239)" d="m0 0 3 1h-3z" fill="#BDEBFE"/>
<path transform="translate(500,1220)" d="m0 0 3 1h-3z" fill="#BDEBFE"/>
<path transform="translate(167 1e3)" d="m0 0 2 1h-3z" fill="#C7EEFE"/>
<path transform="translate(170 1e3)" d="m0 0 2 1h-3z" fill="#BDEBFE"/>
<path transform="translate(173 1e3)" d="m0 0 2 1h-3z" fill="#D1F2FE"/>
<path transform="translate(176,999)" d="m0 0 2 1h-3z" fill="#E5F9FF"/>
<path transform="translate(282,1425)" d="m0 0h2l-1 2z" fill="#BDEBFE"/>
<path transform="translate(268,1217)" d="m0 0 2 1-2 1z" fill="#BDEBFE"/>
<path transform="translate(598,1013)" d="m0 0 2 1-2 1z" fill="#D7F4FE"/>
<path transform="translate(298,1472)" d="m0 0" fill="#BDEBFE"/>
<path transform="translate(847,1468)" d="m0 0" fill="#BDEBFE"/>
<path transform="translate(846,1450)" d="m0 0" fill="#BDEBFE"/>
<path transform="translate(769,1386)" d="m0 0 2 1z" fill="#98DCFA"/>
<path transform="translate(713,1238)" d="m0 0 2 1z" fill="#BDEBFE"/>
<path transform="translate(504,1223)" d="m0 0 2 1z" fill="#D1F2FE"/>
<path transform="translate(302,1198)" d="m0 0 2 1z" fill="#BDEBFE"/>
<path transform="translate(481,1190)" d="m0 0" fill="#BDEBFE"/>
<path transform="translate(653,1089)" d="m0 0 2 1z" fill="#BDEBFE"/>
<path transform="translate(585,1047)" d="m0 0 2 1z" fill="#BDEBFE"/>
<path transform="translate(502,799)" d="m0 0 2 1z" fill="#BDEBFE"/>
<path transform="translate(504,798)" d="m0 0 2 1z" fill="#BDEBFE"/>
<path transform="translate(114,507)" d="m0 0" fill="#E5F9FF"/>
<path transform="translate(298,1488)" d="m0 0" fill="#BDEBFE"/>
<path transform="translate(115,1465)" d="m0 0" fill="#BDEBFE"/>
<path transform="translate(299,1455)" d="m0 0" fill="#BDEBFE"/>
<path transform="translate(114,1453)" d="m0 0" fill="#BDEBFE"/>
<path transform="translate(836,1429)" d="m0 0" fill="#73CDF7"/>
<path transform="translate(604,1426)" d="m0 0" fill="#73CDF7"/>
<path transform="translate(605,1425)" d="m0 0" fill="#73CDF7"/>
<path transform="translate(337,1411)" d="m0 0" fill="#BDEBFE"/>
<path transform="translate(338,1410)" d="m0 0" fill="#73CDF7"/>
<path transform="translate(621,1408)" d="m0 0" fill="#BDEBFE"/>
<path transform="translate(620,1407)" d="m0 0" fill="#BDEBFE"/>
<path transform="translate(410,1391)" d="m0 0" fill="#BDEBFE"/>
<path transform="translate(745,1390)" d="m0 0" fill="#BDEBFE"/>
<path transform="translate(403,1385)" d="m0 0" fill="#BDEBFE"/>
<path transform="translate(480,1346)" d="m0 0" fill="#BDEBFE"/>
<path transform="translate(730,1247)" d="m0 0" fill="#BDEBFE"/>
<path transform="translate(603,1246)" d="m0 0" fill="#BDEBFE"/>
<path transform="translate(712,1237)" d="m0 0" fill="#BDEBFE"/>
<path transform="translate(153,1232)" d="m0 0" fill="#BDEBFE"/>
<path transform="translate(503,1222)" d="m0 0" fill="#BDEBFE"/>
<path transform="translate(499,1219)" d="m0 0" fill="#73CDF7"/>
<path transform="translate(498,1218)" d="m0 0" fill="#BDEBFE"/>
<path transform="translate(304,1197)" d="m0 0" fill="#BDEBFE"/>
<path transform="translate(664,1190)" d="m0 0" fill="#BDEBFE"/>
<path transform="translate(664,1157)" d="m0 0" fill="#BDEBFE"/>
<path transform="translate(528,1065)" d="m0 0" fill="#E5F9FF"/>
<path transform="translate(583,1046)" d="m0 0" fill="#BDEBFE"/>
<path transform="translate(582,1045)" d="m0 0" fill="#E5F9FF"/>
<path transform="translate(390,1013)" d="m0 0" fill="#E5F9FF"/>
<path transform="translate(155,1013)" d="m0 0" fill="#BDEBFE"/>
<path transform="translate(480,931)" d="m0 0" fill="#BDEBFE"/>
<path transform="translate(218,919)" d="m0 0" fill="#E5F9FF"/>
<path transform="translate(312,877)" d="m0 0" fill="#E5F9FF"/>
<path transform="translate(704,833)" d="m0 0" fill="#BDEBFE"/>
<path transform="translate(20,804)" d="m0 0" fill="#E5F9FF"/>
<path transform="translate(19,803)" d="m0 0" fill="#E5F9FF"/>
<path transform="translate(498,802)" d="m0 0" fill="#BDEBFE"/>
<path transform="translate(499,801)" d="m0 0" fill="#BDEBFE"/>
<path transform="translate(501,800)" d="m0 0" fill="#BDEBFE"/>
<path transform="translate(237,800)" d="m0 0" fill="#E5F9FF"/>
<path transform="translate(506,797)" d="m0 0" fill="#BDEBFE"/>
<path transform="translate(508,796)" d="m0 0" fill="#BDEBFE"/>
<path transform="translate(510,795)" d="m0 0" fill="#E5F9FF"/>
<path transform="translate(511,794)" d="m0 0" fill="#E5F9FF"/>
<path transform="translate(518,790)" d="m0 0" fill="#BDEBFE"/>
<path transform="translate(521,788)" d="m0 0" fill="#BDEBFE"/>
<path transform="translate(524,786)" d="m0 0" fill="#BDEBFE"/>
<path transform="translate(534,779)" d="m0 0" fill="#E5F9FF"/>
<path transform="translate(535,778)" d="m0 0" fill="#E5F9FF"/>
<path transform="translate(547,770)" d="m0 0" fill="#BDEBFE"/>
<path transform="translate(114,510)" d="m0 0" fill="#E5F9FF"/>
<path transform="translate(221,367)" d="m0 0" fill="#FEFEFE"/>
</svg>