<svg xmlns="http://www.w3.org/2000/svg" viewBox="42.26084778420039 9.899982 1332.5626204238922 1314.8999999999999" version="1.1" style="max-height: 500px" width="1332.5626204238922" height="1314.8999999999999">
<path fill="#008CCF" d="m0 0 3 3 45 72 16 26 12 19 30 48 8 13h2l17-28 32-52 14-23 13-21 16-26 14-23 3-4h65l-2 5-17 28-13 21-16 26-14 23-13 21-14 23-13 21-14 23-13 21-12 19 2 5 16 26 12 19 13 21v2l3-3 17-28 13-21 14-23 13-21 16-26 14-23 13-21 14-23 13-21 14-23 13-21 16-26 14-23 1-1h65l-2 5-15 25-13 21-16 26-14 23-13 21-14 23-13 21-14 23-13 21-16 26-14 23-13 21-14 23-13 21-14 23-7 12 30 48 14 23 6-9 16-26 14-23 13-21 14-23 13-21 14-23 13-21 16-26 14-23 13-21 14-23 13-21 14-23 13-21 16-26 14-23 13-21 14-23 7-11h66l-8 14-13 21-16 26-14 23-13 21-14 23-13 21-16 26-14 23-13 21-14 23-13 21-14 23-13 21-16 26-14 23-13 21-14 23-13 21-14 23-13 21-10 16 1 5 12 20 15 24 14 22 60 96 16 26 12 19 45 72 16 26 12 19 30 48 13 21 8 13v1l-552 1 28 13 42 18 43 17 36 13 35 12h6l6-3 7-1 10 3 8 7 3 6 41 11 22 5 2 1v-7h32v14l11 1 32 5 38 4 16 1h48l23-2 24-4 19-5 19-7 15-8 11-8 10-9 8-10 9-17 4-13 2-12 1-20-2-19-5-23-8-24-10-23-11-22-16-27-14-21-13-18-12-16v-3l2 1 2-4 2-3 3-1 3-3 4 2 7 7 9 11 12 14 12 16 14 19 15 23 11 19 12 23 9 21 8 24 5 25 1 9v26l-4 20-6 16-8 14-11 13-7 7-15 11-16 9-19 8-25 7-20 4-26 3-16 1h-40l-31-2-42-5-40-7-4-1v23h32v30h-32v137h-32v-137h-17v-30h17l-1-30-44-11-28-8-9 4h-10l-10-5-6-9v-2l-11-3-40-14-46-18-38-16-40-18-39-19-20-10-514-1 2-5 12-19 16-26 12-19 45-72 16-26 12-19 35-56-1-4-8-8-8-7-12-12-8-7-14-14-7-8-11-11-7-8-10-11-9-11-11-13-13-17-14-19-15-23-9-15-10-18-11-24-9-25-6-25-2-15v-25l3-18 5-15 9-17 8-10 8-9 14-11 15-9 15-7 27-9 25-5 24-3 16-1 3 21 1 6-23 4-24 6-21 8-19 10-12 9-10 9-8 10-8 14-5 15-3 16v24l3 20 6 21 8 22 12 25 16 27 14 21 14 19 11 14 9 11 12 14 12 13 7 8 12 12 7 8 8 8 8 7 9 9 2 1 2-5 12-20 14-22 45-72 16-26 12-19 45-72 16-26 12-19 30-48 12-19 10-16 14-23 12-19 30-48 13-21 60-96 13-21 15-24z" transform="translate(672,60)"/>
<path fill="#18B9AB" d="m0 0h2l3 21 1 6-23 4-24 6-21 8-19 10-12 9-10 9-8 10-8 14-5 15-3 16v24l3 20 6 21 8 22 12 25 16 27 14 21 14 19 11 14 9 11 12 14 12 13 7 8 12 12 7 8 8 8 8 7 13 13 8 7 13 12 11 9 10 9 11 9 17 14 13 10 18 14 36 26 20 14 39 26 18 11 21 13 22 13 26 15 29 16 31 16 19 10 33 16 63 28 37 15 37 14 40 14 12 4h6l6-3 7-1 10 3 8 7 3 6 41 11 22 5 2 1v-7h32v14l11 1 32 5 38 4 16 1h48l23-2 24-4 19-5 19-7 15-8 11-8 10-9 8-10 9-17 4-13 2-12 1-20-2-19-5-23-8-24-10-23-11-22-16-27-14-21-13-18-12-16v-3l2 1 2-4 2-3 3-1 3-3 4 2 7 7 9 11 12 14 12 16 14 19 15 23 11 19 12 23 9 21 8 24 5 25 1 9v26l-4 20-6 16-8 14-11 13-7 7-15 11-16 9-19 8-25 7-20 4-26 3-16 1h-40l-31-2-42-5-40-7-4-1v23h32v30h-32v137h-32v-137h-17v-30h17l-1-30-44-11-28-8-9 4h-10l-10-5-6-9v-2l-11-3-40-14-46-18-38-16-40-18-39-19-20-10-514-1 2-5 12-19 16-26 12-19 45-72 16-26 12-19 35-56-1-4-8-8-8-7-12-12-8-7-14-14-7-8-11-11-7-8-10-11-9-11-11-13-13-17-14-19-15-23-9-15-10-18-11-24-9-25-6-25-2-15v-25l3-18 5-15 9-17 8-10 8-9 14-11 15-9 15-7 27-9 25-5 24-3z" transform="translate(235,281)"/>
<path fill="#008CD0" d="m0 0 4 2 13 12 11 9 10 9 10 8 11 9 14 11 18 14 20 15 18 13 43 30 34 22 19 12 28 17 22 13 28 16 54 29 4 3h-512l2-5 12-19 16-26 12-19 45-72 16-26 12-19 30-48z" transform="translate(264,713)"/>
<path fill="#19BAAB" d="m0 0h66l-8 14-13 21-16 26-14 23-13 21-14 23-13 21-16 26-14 23-13 21-14 23-13 21-14 23-13 21-16 26-14 23-13 21-14 23-13 21-14 23-26 42-32 52-14 23-13 21-14 23-13 21-16 26-14 23-12 19-1 1h-65l6-11 13-21 14-23 13-21 14-23 13-21 14-23 13-21 16-26 14-23 13-21 28-46 13-21 14-23 13-21 14-23 13-21 14-23 13-21 16-26 14-23 13-21 14-23 13-21 14-23 13-21 16-26 14-23 13-21 14-23z" transform="translate(1207,64)"/>
<path fill="#19BAAB" d="m0 0h65l-2 5-15 25-13 21-16 26-14 23-13 21-14 23-13 21-14 23-13 21-16 26-14 23-13 21-14 23-13 21-14 23-12 19-17 28-13 21-16 26-14 23-13 21-14 23-13 21-14 23-13 21-16 26-14 23-13 21-14 23-13 21-6 9h-65l4-8 13-21 14-23 13-21 14-23 13-21 14-23 13-21 16-26 14-23 13-21 14-23 13-21 14-23 13-21 16-26 14-23 13-21 12-20 13-21 16-26 14-23 13-21 14-23 13-21 14-23 13-21 16-26 14-23 13-21 14-23z" transform="translate(1052,64)"/>
<path fill="#19BAAB" d="m0 0h65l-2 5-17 28-13 21-16 26-14 23-13 21-14 23-13 21-14 23-13 21-16 26-13 21-16 26-14 23-13 21-14 23-13 21-14 23-13 21-16 26-14 23-13 21-14 23-13 21-14 23-13 21-16 26-14 23-13 21-14 23-13 21-4 6h-65l2-5 32-52 14-23 13-21 16-26 14-23 13-21 14-23 13-21 14-23 13-21 16-26 14-23 13-21 14-23 13-21 16-26 14-23 13-21 14-23 13-21 28-46 13-21 14-23 13-21 14-23 13-21 16-26 14-23z" transform="translate(897,64)"/>
<path fill="#19BAAB" d="m0 0 4 2 7 7 9 11 12 14 12 16 14 19 15 23 11 19 12 23 9 21 8 24 5 25 1 9v26l-4 20-6 16-8 14-11 13-7 7-15 11-16 9-19 8-25 7-20 4-26 3-16 1h-40l-31-2-42-5-40-7-4-1v-27l11 1 32 5 38 4 16 1h48l23-2 24-4 19-5 19-7 15-8 11-8 10-9 8-10 9-17 4-13 2-12 1-20-2-19-5-23-8-24-10-23-11-22-16-27-14-21-13-18-12-16v-3l2 1 2-4 2-3 3-1z" transform="translate(1212,757)"/>
<path fill="#222123" d="m0 0h27l16 4 16 8 12 11 9 13 5 11 4 13 2 11 1 12v10l-1 1h-126l2 14 4 11 7 12 10 9 10 5 7 2h20l10-3 11-6 9-9 9-13 14 7 13 8-2 6-7 9-9 10-14 10-16 7-17 4h-24l-17-4-16-8-9-7-9-9-9-14-6-15-3-13-1-9v-18l3-20 5-15 7-13 9-11 8-7 14-8 16-5zm5 28-10 3-9 5-9 8-6 10-4 10-1 5h93l-2-11-6-12-7-8-11-7-11-3z" transform="translate(1120,1112)"/>
<path fill="#222123" d="m0 0h16l12 3 3 1v33l-9-3-10-3-10 1-6 4-5 8-3 14-1 89h44v30h-44v136l-1 1h-31l-1-1v-136h-14v-30h14v-88l2-17 5-15 6-10 8-8 12-6z" transform="translate(491,970)"/>
<path fill="#222123" d="m0 0h23l12 3 12 6 9 8 6 10 4 10 3 14 1 9v111l-1 1h-31l-1-1-1-113-3-12-5-8-8-6-7-2h-23l-11 4-8 7-5 8-4 15-1 10-1 98h-32v-167h32l1 20 8-10 11-8 12-5z" transform="translate(730,1112)"/>
<path fill="#222021" d="m0 0h23l13 3 13 7 8 8 6 10 5 16 2 14v114h-32l-1-102-2-19-4-10-5-5-6-4-7-2h-23l-11 4-9 8-6 13-2 10-1 11-1 96h-32v-167h32l1 20 9-10 7-6 12-6z" transform="translate(310,1112)"/>
<path fill="#221F20" d="m0 0h32v64h32v30h-32v137h-32v-137h-17v-30h17z" transform="translate(969,1053)"/>
<path fill="#212226" d="m0 0h33v166l-1 1h-31l-1-1z" transform="translate(559,1117)"/>
<path fill="#212226" d="m0 0h33v166l-1 1h-31l-1-1z" transform="translate(139,1117)"/>
<path fill="#221F21" d="m0 0h32v167h-32z" transform="translate(866,1117)"/>
<path fill="#19BAAB" d="m0 0 42 11 22 5 2 1v27l-26-6-43-12-3-1 2-5 4-8z" transform="translate(903,1043)"/>
<path fill="#222124" d="m0 0 10 2 7 5 4 6 2 7-1 10-3 6-8 7-6 2h-9l-8-3-7-7-3-8v-7l3-9 4-5 6-4z" transform="translate(155,1027)"/>
<path fill="#222123" d="m0 0 9 2 6 4 5 6 3 9-1 9-5 8-6 5-6 2h-10l-8-4-5-5-3-5-1-4v-8l3-8 5-6 8-4z" transform="translate(575,1027)"/>
<path fill="#222021" d="m0 0 9 2 6 4 5 6 2 6v10l-5 10-6 5-6 2h-10l-10-5-6-9-1-11 3-9 4-5 6-4z" transform="translate(882,1027)"/>
</svg>