<?xml version="1.0" encoding="utf-8"?>
<!-- Generator: Adobe Illustrator 22.0.1, SVG Export Plug-In . SVG Version: 6.00 Build 0)  -->
<svg version="1.1" id="Layer_1" xmlns="http://www.w3.org/2000/svg" xmlns:xlink="http://www.w3.org/1999/xlink" x="0px" y="0px"
	 viewBox="0 0 3000 643" style="enable-background:new 0 0 3000 643;" xml:space="preserve">
<style type="text/css">
	.st0{fill:#F16622;}
	.st1{fill-rule:evenodd;clip-rule:evenodd;fill:#2CB0BF;}
	.st2{fill:#2CB0BF;}
</style>
<g>
	<path class="st0" d="M1060.5,154.1c-1.5,0-2.9-0.4-4.2-1.2c-4.3-2.8-3.4-10-2.1-19.9c0.5-3.7,1.2-9.1,0.9-11
		c-10.3-10.2-15.8-22.3-15.8-34.8c0-34.1,41-61.8,91.3-61.8s91.3,27.7,91.3,61.8s-41,61.8-91.3,61.8c-15.3,0-30.4-2.6-43.7-7.5
		c-1.9-0.3-8.1,3.7-11.5,5.8C1070.2,150.8,1065,154.1,1060.5,154.1z M1130.8,33.9c-45.6,0-82.7,23.9-82.7,53.2
		c0,10.4,4.7,20.5,13.7,29.2c2.9,2.8,2.4,8.1,1.1,17.8c-0.5,3.4-1.2,8.7-1,11.4c1.9-0.8,6.4-3.6,9.2-5.4c7-4.5,13.6-8.7,19.1-6.7
		c12.4,4.5,26.4,6.9,40.7,6.9c45.6,0,82.7-23.9,82.7-53.2S1176.4,33.9,1130.8,33.9z M1055.1,121.6L1055.1,121.6L1055.1,121.6z"/>
</g>
<g>
	<path class="st0" d="M1283.4,154.1c-4.5,0-9.7-3.3-15.1-6.8c-3.4-2.2-9.6-6.3-11.6-5.8c-13.3,4.9-28.4,7.4-43.6,7.4
		c-50.4,0-91.3-27.7-91.3-61.8s41-61.8,91.3-61.8c50.4,0,91.3,27.7,91.3,61.8c0,12.6-5.4,24.6-15.8,34.8c-0.3,1.9,0.5,7.4,0.9,11
		c1.3,9.9,2.3,17.1-2.1,19.9C1286.3,153.8,1284.9,154.1,1283.4,154.1z M1256.8,132.9c4.8,0,10.3,3.5,16.1,7.2
		c2.7,1.7,6.9,4.4,9.2,5.2c0.1-2.7-0.6-7.8-1-11.1c-1.3-9.8-1.8-15,1.1-17.8c8.9-8.7,13.7-18.8,13.7-29.2
		c0-29.3-37.1-53.2-82.7-53.2c-45.6,0-82.7,23.9-82.7,53.2s37.1,53.2,82.7,53.2c14.2,0,28.3-2.4,40.7-6.9
		C1254.8,133.1,1255.8,132.9,1256.8,132.9z"/>
</g>
<path class="st0" d="M290.5,249c2-6.5,4.3-11.9,7.2-16.3c3.5-5.3,7-8,10.8-8c7.2-0.1,12.5,3,16.1,9.2c7.5,13.2,11.6,36.2,12.1,69.1
	c0.1,3.1,0.1,7.8,0,14.1c-0.1,6.2-0.1,10.9,0,14.1c0.1,2.5,0.1,6.2,0.1,11.2c0,5,0,8.7,0.1,11.2c0.1,5.1-0.2,15-1,19.6
	c-1,6.1-44.9,3.2-46.9,3.2c-1.5,0,4.6-3,3.4-5.3c-1.3-2.4-4.8-3.5-4.9-7.4c-0.1-3.6-0.1-9.2-0.2-16.5c-0.1-7.4-0.1-12.9-0.2-16.7
	c0-3.1-0.1-7.7,0-13.9c0-6.2,0-10.8,0-13.9c-0.2-9.9-0.8-19.1-1.9-27.6c-1.3-10.1,8.6-17,6.3-21c-1.2-2.1,21.9-2.6,17.5-2.7
	c-7.4-0.2-12.2,14.6-14.3,44.3c-1.1,15.4-1.5,37-1,64.7c0.1,3.7-0.4,7.2-1.2,10.6c-1.2,4.5-2.9,6.8-5.3,6.8c-1.9,0-3.4-1.6-4.4-4.8
	c-0.8-2.4-1.2-5.1-1.2-8c-0.4-25.8-0.2-46,0.6-60.4C283.3,282.3,286.1,263.7,290.5,249z"/>
<path class="st0" d="M335.4,188.3c0,12-9.7,21.7-21.7,21.7c-12,0-21.6-9.7-21.6-21.7c0-12,9.7-21.7,21.6-21.7
	C325.7,166.6,335.4,176.3,335.4,188.3z"/>
<g>
	<g>
		<line class="st0" x1="110.5" y1="447.2" x2="2879.7" y2="447.2"/>
	</g>
	<g>
		<rect x="110.5" y="441.2" class="st0" width="2769.2" height="12"/>
	</g>
</g>
<g>
	<g>
		<path class="st1" d="M1173.6,121.8c-18.8,0-33.8-15-33.7-33.7c0-18.9,15.1-33.7,34.3-33.7c18.2,0,33.2,15.3,33.2,33.8
			C1207.3,106.8,1192.2,121.8,1173.6,121.8z M1171.8,73.5c-3.7,0-7.3,0-10.8,0c-0.3,0-0.9,0.4-1,0.7c-1.2,3.9-1.8,8-1.8,12.2
			c4.6,0,9.1,0,13.6,0C1171.8,82.1,1171.8,77.9,1171.8,73.5z M1171.8,89.8c-4.5,0-9,0-13.5,0c0,4.2,0.7,8.3,1.8,12.2
			c0.1,0.3,0.5,0.6,0.8,0.6c3.6,0,7.2,0,10.9,0C1171.8,98.4,1171.8,94.2,1171.8,89.8z M1175.3,102.5c0.2,0.1,0.4,0.2,0.5,0.2
			c2,0,4.1,0,6.1,0c4.4,0,4.5,0,5.3-4.4c0.5-2.8,0.7-5.6,1.1-8.5c-4.6,0-8.8,0-13,0C1175.3,94.2,1175.3,98.3,1175.3,102.5z
			 M1188.1,86.3c0.1-4.2-0.7-8.3-1.8-12.2c-0.1-0.3-0.7-0.6-1.1-0.6c-2.9-0.1-5.8,0-8.7,0c-0.9,0-1.3,0.3-1.2,1.3c0,2.6,0,5.2,0,7.7
			c0,1.3,0,2.6,0,3.9C1179.7,86.3,1183.8,86.3,1188.1,86.3z M1203.9,89.8c-3.1,0-6,0-8.9,0c-3.4,0-3.3,0-3.8,3.3
			c-0.4,3.1-0.9,6.3-1.4,9.6c3.3,0,6.7,0,10,0c0.3,0,0.7-0.4,0.8-0.7C1202.6,98.3,1203.7,94.3,1203.9,89.8z M1203.7,86.4
			c0.3-2.3-0.6-6.5-2-9.9c-1.3-3-1.3-3-4.5-3c-1.6,0-3.2,0-4.8,0c-0.9,0-1.8,0-2.6,0c0.6,4.5,1.3,8.6,1.9,12.9
			C1195.6,86.4,1199.6,86.4,1203.7,86.4z M1143.2,86.4c3.6,0,7-0.1,10.4,0c1.2,0,1.4-0.4,1.5-1.5c0.2-2.5,0.5-4.9,0.9-7.3
			c0.2-1.3,0.5-2.6,0.8-4.1c-3.2,0-6.2,0-9.2,0c-0.3,0-0.8,0.4-1,0.7C1144.6,77.9,1143.4,81.9,1143.2,86.4z M1156.5,102.7
			c-0.5-4.2-1-8.2-1.5-12.1c0-0.3-0.5-0.8-0.8-0.8c-3.6-0.1-7.2,0-10.8,0c-0.4,2.8,1.5,10.3,3.2,12.4c0.2,0.3,0.6,0.5,0.9,0.5
			C1150.5,102.7,1153.5,102.7,1156.5,102.7z M1171.8,106.1c-3.6,0-6.9,0-10.5,0c1.4,3.8,3.1,7.2,5.4,10.3c1.4,1.9,2.7,2.4,5.1,1.8
			C1171.8,114.2,1171.8,110.2,1171.8,106.1z M1171.8,57.8c-2.4-0.2-4.1,0.3-5.4,2.4c-1.9,3.1-3.8,6.3-5,9.9c3.6,0,6.9,0,10.4,0
			C1171.8,66,1171.8,62,1171.8,57.8z M1175.2,118.3c1.9,0.3,3.3,0,4.3-1.6c1-1.8,2.2-3.4,3.2-5.2c0.9-1.7,1.6-3.5,2.6-5.6
			c-3.3,0-6.2,0-9.1,0c-0.3,0-0.9,0.5-0.9,0.8C1175.2,110.6,1175.2,114.5,1175.2,118.3z M1185.1,70.2c-1.4-3.9-3.3-7.4-5.6-10.7
			c-1.1-1.6-2.4-1.8-4.2-1.6c0,4.1,0,8.1,0,12.3C1178.5,70.2,1181.7,70.2,1185.1,70.2z M1198.2,105.9c-2.6,0-4.7,0-6.9,0
			c-2.7,0-2.6,0-3.7,2.5c-1.3,2.8-2.7,5.5-4.1,8.5C1189.5,114.7,1194.3,111.3,1198.2,105.9z M1183.7,59.4c1.6,3.5,3.1,6.9,4.7,10.3
			c0.1,0.2,0.5,0.5,0.7,0.5c2.9,0,5.8,0,9.1,0C1194.2,65,1189.5,61.5,1183.7,59.4z M1162.5,59.8c-5.2,1.9-11.5,6.8-13.3,10.5
			c2.7,0,5.3,0,7.9,0c0.3,0,0.8-0.4,0.9-0.7C1159.6,66.3,1161,63.1,1162.5,59.8z M1148.9,106c3.8,5,8.1,8.4,13.6,10.5
			c-1.5-3.4-3-6.7-4.5-9.9c-0.1-0.3-0.5-0.6-0.8-0.6C1154.6,105.9,1152,106,1148.9,106z"/>
	</g>
</g>
<path class="st2" d="M1225.8,268.7c1.7-5.5,3.7-10.1,6.1-13.8c2.9-4.5,6-6.8,9.1-6.8c6.1-0.1,10.6,2.5,13.7,7.8
	c6.4,11.2,9.8,30.8,10.2,58.7c0,2.7,0.1,6.7,0,11.9c0,5.3,0,9.3,0,11.9c0,2.1,0.1,5.3,0.1,9.5c0,4.2,0,7.4,0.1,9.5
	c0.1,4.4-0.2,12.8-0.8,16.6c-0.9,5.1-38.2,2.7-39.8,2.8c-1.3,0,3.9-2.6,2.9-4.5c-1.1-2-4.1-3-4.1-6.2c0-3.1-0.1-7.8-0.2-14.1
	c-0.1-6.3-0.1-11-0.2-14.1c0-2.6-0.1-6.6,0-11.8c0-5.3,0-9.2,0-11.8c-0.1-8.4-0.7-16.2-1.6-23.5c-1.1-8.6,7.3-14.4,5.3-17.8
	c-1-1.8,18.6-2.2,14.8-2.3c-6.3-0.1-10.3,12.4-12.2,37.7c-0.9,13.1-1.2,31.4-0.9,55c0.1,3.1-0.3,6.1-1,9c-1,3.8-2.5,5.8-4.5,5.8
	c-1.6,0-2.8-1.3-3.7-4.1c-0.6-2-1-4.3-1-6.8c-0.3-21.9-0.2-39,0.6-51.3C1219.6,297,1222,281.2,1225.8,268.7z"/>
<path class="st2" d="M1258.2,209c0,10.2-8.2,18.4-18.4,18.4c-10.2,0-18.4-8.2-18.4-18.4c0-10.2,8.2-18.4,18.4-18.4
	C1250,190.6,1258.2,198.8,1258.2,209z"/>
<path class="st2" d="M1093.8,271.3c1.7-5.5,3.7-10.1,6.1-13.8c2.9-4.5,6-6.8,9.1-6.8c6.1-0.1,10.6,2.5,13.7,7.8
	c6.4,11.2,9.8,30.8,10.2,58.7c0,2.7,0.1,6.7,0,11.9c0,5.3,0,9.3,0,11.9c0,2.1,0.1,5.3,0.1,9.5c0,4.2,0,7.4,0.1,9.5
	c0.1,4.4-0.2,12.8-0.8,16.6c-0.9,5.1-38.2,2.7-39.8,2.7c-1.3,0,3.9-2.6,2.9-4.5c-1.1-2-4.1-3-4.1-6.2c0-3.1-0.1-7.8-0.2-14.1
	c-0.1-6.3-0.1-11-0.2-14.1c0-2.6-0.1-6.6,0-11.8c0-5.3,0-9.2,0-11.8c-0.1-8.4-0.7-16.2-1.6-23.5c-1.1-8.6,7.3-14.4,5.3-17.8
	c-1-1.8,18.6-2.2,14.8-2.3c-6.3-0.1-10.3,12.4-12.2,37.7c-0.9,13.1-1.2,31.4-0.9,55c0.1,3.1-0.3,6.1-1,9c-1,3.8-2.5,5.8-4.5,5.8
	c-1.6,0-2.8-1.3-3.7-4.1c-0.6-2-1-4.3-1-6.8c-0.3-21.9-0.2-39,0.6-51.3C1087.7,299.6,1090.1,283.8,1093.8,271.3z"/>
<path class="st2" d="M1126.3,211.6c0,10.2-8.2,18.4-18.4,18.4c-10.2,0-18.4-8.2-18.4-18.4c0-10.2,8.2-18.4,18.4-18.4
	C1118,193.2,1126.3,201.4,1126.3,211.6z"/>
<path class="st0" d="M164.5,374.4c-2.1,0.6-5.5,1.2-10,1.7c-4.6,0.6-9.1,0.9-13.5,0.9s-8.4-0.3-11.8-1c-3.4-0.7-6.2-1.9-8.6-3.6
	c-2.3-1.7-4.1-4.1-5.2-7.2c-1.2-3.1-1.7-7.1-1.7-12.1V217c0-4,1.1-7.2,3.3-9.4c2.2-2.2,5.3-4,9.1-5.3c6.6-2.3,14.1-4,22.5-5.1
	c8.4-1.1,16.9-1.6,25.4-1.6c26.7,0,47.2,5.7,61.3,17c14.1,11.4,21.2,26.8,21.2,46.2c0,9.4-1.5,18-4.5,25.6
	c-3,7.6-7.5,14.2-13.4,19.6c-5.9,5.5-13.4,9.7-22.4,12.7c-9,3-19.4,4.5-31.2,4.5h-20.6V374.4z M179.6,281.7c8.1,0,14.4-1.9,18.7-5.6
	c4.4-3.8,6.5-9.5,6.5-17.2c0-7.3-2.3-12.9-6.8-16.9c-4.6-3.9-11.2-5.9-19.9-5.9c-3.1,0-5.7,0.1-7.7,0.1c-2,0.1-4.1,0.3-6.2,0.7v44.8
	H179.6z"/>
<path class="st0" d="M371.1,227.4c0-8.3,2.4-14.8,7.3-19.6c4.8-4.8,11.4-7.2,19.8-7.2H494c1.3,2.1,2.6,4.9,3.6,8.4
	c1.1,3.5,1.6,7.1,1.6,11c0,7.3-1.6,12.5-4.8,15.6c-3.2,3.1-7.4,4.6-12.6,4.6h-61.3V267h65.4c1.4,2.1,2.6,4.9,3.6,8.2
	c1.1,3.4,1.6,7,1.6,10.8c0,7.3-1.5,12.5-4.6,15.6s-7.3,4.6-12.5,4.6h-53.5v30.3h74.7c1.3,2.1,2.6,4.9,3.6,8.4
	c1.1,3.5,1.6,7.1,1.6,11c0,7.3-1.6,12.6-4.8,15.7c-3.2,3.2-7.4,4.8-12.6,4.8h-84.8c-8.3,0-14.9-2.4-19.8-7.2
	c-4.9-4.8-7.3-11.4-7.3-19.6V227.4z"/>
<path class="st2" d="M600.9,242.3l0.5,22.1c5-8.2,11.3-14.3,18.9-18.4c7.6-4.1,16-6.1,25.2-6.1c21.5,0,35.2,8.8,41,26.3
	c4.9-8.4,11.4-14.9,19.5-19.5c8.1-4.5,17.1-6.8,27-6.8c29.2,0,44.2,15.9,44.7,47.6v90.5h-15.1v-89.3c-0.1-12.1-2.7-21.1-7.9-26.9
	c-5.2-5.8-13.6-8.8-25.3-8.8c-10.8,0.2-20,3.7-27.5,10.5c-7.5,6.8-11.6,15.1-12.5,24.9v89.7h-15.1v-90.5c-0.1-11.6-2.8-20.3-8.3-26
	c-5.4-5.7-13.8-8.6-25-8.6c-9.5,0-17.6,2.7-24.4,8.1c-6.8,5.4-11.8,13.4-15.1,24v93h-15.1V242.3H600.9z"/>
<path class="st2" d="M903.6,360.7c-9.1,13.1-23.6,19.7-43.5,19.7c-14.5,0-25.6-4.2-33.1-12.6c-7.6-8.4-11.4-20.8-11.6-37.3v-88.2h15
	v86.3c0,25.8,10.5,38.7,31.5,38.7c21.9,0,35.7-9,41.5-26.9v-98.1h15.1v135.6h-14.6L903.6,360.7z"/>
<path class="st2" d="M974.6,377.8h-15.1V185.4h15.1V377.8z"/>
<path class="st2" d="M1039,207.6v34.7h28.2v12.3H1039V345c0,7.5,1.4,13.1,4.1,16.8c2.7,3.7,7.3,5.5,13.7,5.5c2.5,0,6.6-0.4,12.2-1.3
	l0.6,12.2c-3.9,1.4-9.3,2.1-16.1,2.1c-10.3,0-17.9-3-22.6-9c-4.7-6-7.1-14.8-7.1-26.4v-90.5h-25.1v-12.3h25.1v-34.7H1039z"/>
<path class="st2" d="M1178.1,377.8H1163V185.4h15.1V377.8z"/>
<path class="st2" d="M1304.3,242.3l0.5,23.2c5.1-8.4,11.5-14.7,19.2-19.1s16.1-6.6,25.3-6.6c14.6,0,25.5,4.1,32.6,12.3
	c7.1,8.2,10.8,20.5,10.8,36.8v89h-15v-89.1c-0.1-12.1-2.7-21.1-7.7-27.1c-5.1-5.9-13.2-8.9-24.4-8.9c-9.3,0-17.6,2.9-24.8,8.7
	c-7.2,5.8-12.5,13.6-15.9,23.5v92.8h-15V242.3H1304.3z"/>
<path class="st2" d="M1425.7,308.8c0-21.2,4.7-38,14.2-50.4c9.5-12.4,22.3-18.6,38.5-18.6c18.6,0,32.7,7.4,42.4,22.1l0.8-19.6h14.1
	v132.8c0,17.5-4.9,31.3-14.8,41.5c-9.8,10.2-23.1,15.3-39.9,15.3c-9.5,0-18.5-2.1-27.2-6.3c-8.6-4.2-15.4-9.8-20.4-16.8l8.4-9
	c10.7,13,23.4,19.6,38.1,19.6c12.6,0,22.4-3.7,29.5-11.1c7.1-7.4,10.7-17.6,11-30.8v-17c-9.7,13.4-23.7,20-42.2,20
	c-15.8,0-28.5-6.3-38.1-18.8c-9.6-12.5-14.4-29.4-14.4-50.7V308.8z M1440.9,311.4c0,17.3,3.5,30.9,10.5,40.9c7,10,16.8,15,29.5,15
	c18.6,0,31.7-8.3,39.4-24.8v-63c-3.5-8.7-8.6-15.3-15.2-19.9c-6.6-4.5-14.6-6.8-23.9-6.8c-12.7,0-22.6,5-29.6,14.9
	C1444.5,277.5,1440.9,292.1,1440.9,311.4z"/>
<path class="st2" d="M1662.6,360.7c-9.1,13.1-23.6,19.7-43.5,19.7c-14.5,0-25.6-4.2-33.2-12.6c-7.6-8.4-11.4-20.8-11.6-37.3v-88.2
	h15v86.3c0,25.8,10.5,38.7,31.5,38.7c21.9,0,35.7-9,41.5-26.9v-98.1h15.1v135.6h-14.6L1662.6,360.7z"/>
<path class="st2" d="M1802.8,377.8c-1.5-4.3-2.5-10.6-2.9-18.9c-5.3,6.8-12,12.1-20.2,15.8c-8.2,3.7-16.9,5.6-26,5.6
	c-13.1,0-23.7-3.6-31.8-10.9c-8.1-7.3-12.2-16.5-12.2-27.6c0-13.2,5.5-23.6,16.6-31.3c11-7.7,26.4-11.5,46.2-11.5h27.3v-15.4
	c0-9.7-3-17.3-9-22.9c-6-5.6-14.8-8.3-26.3-8.3c-10.5,0-19.2,2.7-26.1,8c-6.9,5.3-10.3,11.8-10.3,19.3l-15.1-0.1
	c0-10.8,5-20.1,15.1-28c10.1-7.9,22.5-11.8,37.2-11.8c15.2,0,27.2,3.8,36,11.3c8.8,7.6,13.3,18.1,13.5,31.6v64.2
	c0,13.1,1.4,22.9,4.2,29.4v1.5H1802.8z M1755.4,367.1c10.1,0,19.1-2.4,27-7.3c7.9-4.8,13.7-11.3,17.3-19.4v-29.8h-27
	c-15,0.2-26.8,2.9-35.3,8.2c-8.5,5.3-12.7,12.6-12.7,21.9c0,7.6,2.8,13.9,8.5,18.9C1739,364.6,1746.3,367.1,1755.4,367.1z"/>
<path class="st2" d="M1871.8,377.8h-15.1V185.4h15.1V377.8z"/>
<g>
	<g>
		<path class="st0" d="M2012.1,305.3c-8.4-2.8-16-5.6-22.9-8.5c-6.9-2.9-12.8-6.4-17.7-10.5c-5-4.1-8.8-9-11.6-14.7
			c-2.8-5.7-4.2-12.6-4.2-20.8c0-15.8,6.2-28.5,18.7-38c12.5-9.5,30-14.3,52.5-14.3c8.2,0,15.8,0.6,22.9,1.7
			c7,1.1,13.1,2.8,18.2,5.2c5.1,2.3,9,5.3,11.9,8.9c2.9,3.6,4.3,7.9,4.3,12.7c0,4.9-1.1,9-3.4,12.4c-2.3,3.5-5.1,6.4-8.3,8.8
			c-4.2-2.6-9.8-4.9-16.9-6.8c-7.1-2-14.8-2.9-23.2-2.9c-8.6,0-14.9,1.2-18.9,3.5c-4,2.3-6,5.3-6,8.8c0,2.8,1.2,5.1,3.7,6.8
			c2.5,1.8,6.2,3.4,11.2,4.9l15.2,4.7c17.9,5.6,31.7,12.7,41.3,21.4s14.4,20.5,14.4,35.4c0,15.8-6.4,28.6-19.2,38.4
			c-12.8,9.8-31.6,14.7-56.4,14.7c-8.8,0-16.9-0.7-24.5-2.1c-7.5-1.4-14.1-3.5-19.7-6.2c-5.6-2.7-10-6-13.2-10.1
			c-3.1-4-4.7-8.6-4.7-13.8c0-5.4,1.6-10,4.9-13.8c3.2-3.8,6.8-6.8,10.6-8.8c5.3,4.1,11.9,7.6,19.6,10.6c7.7,3,16.2,4.5,25.3,4.5
			c9.3,0,15.9-1.4,19.7-4.2c3.8-2.8,5.7-6.1,5.7-9.8c0-3.7-1.5-6.6-4.6-8.5c-3.1-2-7.4-3.9-12.9-5.7L2012.1,305.3z"/>
	</g>
</g>
<g>
	<path class="st2" d="M2173.7,377.2c-11.5,0-21.8-2.8-31.1-8.3c-9.3-5.5-16.5-13.2-21.6-23c-5.1-9.9-7.7-20.9-7.7-33.2v-5.2
		c0-12.6,2.5-24,7.5-34.2c5-10.1,12-18.1,21-23.9c9-5.8,18.7-8.7,29.1-8.7c16.4,0,29.3,5.4,38.9,16.4c9.6,10.9,14.4,25.8,14.4,44.7
		v8.2h-96.1v2.8c0,14.9,4.4,27.3,13.1,37.3c8.8,9.9,19.8,14.9,33.1,14.9c8,0,15-1.4,21.1-4.3c6.1-2.8,11.6-7.4,16.6-13.6l9.3,6.9
		C2210.4,369.4,2194.5,377.2,2173.7,377.2z M2170.9,253.1c-11.2,0-20.6,4-28.3,12c-7.7,8-12.4,18.8-14,32.3h80.8v-1.6
		c-0.4-12.7-4.1-23-11.1-30.9C2191.3,257.1,2182.2,253.1,2170.9,253.1z"/>
	<path class="st2" d="M2315.5,255.5c-3.1-0.6-6.5-0.9-10.1-0.9c-9.3,0-17.2,2.5-23.6,7.6c-6.4,5.1-11,12.4-13.8,22.1v90.4h-14.8
		V243.1h14.6l0.2,20.9c7.9-15.6,20.5-23.3,38-23.3c4.1,0,7.4,0.5,9.8,1.6L2315.5,255.5z"/>
	<path class="st2" d="M2383.2,354.7l41-111.5h15.3l-50.3,131.6h-12.1l-50.5-131.6h15.3L2383.2,354.7z"/>
	<path class="st2" d="M2463,205.1c0-2.7,0.9-5.1,2.7-7c1.8-1.9,4.3-2.8,7.5-2.8c3.1,0,5.7,1,7.5,2.8c1.9,1.9,2.8,4.2,2.8,7
		c0,2.7-0.9,5-2.8,6.9c-1.9,1.9-4.4,2.8-7.5,2.8c-3.2,0-5.6-0.9-7.5-2.8C2463.9,210.1,2463,207.8,2463,205.1z M2480.5,374.7h-14.9
		V243.1h14.9V374.7z"/>
	<path class="st2" d="M2570.8,364.9c10.4,0,19.1-2.9,26.1-8.6c7-5.7,10.8-13.1,11.4-22.2h14.3c-0.4,8-3,15.4-7.7,22
		c-4.7,6.6-11,11.8-18.9,15.5c-7.8,3.7-16.3,5.6-25.2,5.6c-17.7,0-31.7-6-42-18c-10.3-12-15.5-28.1-15.5-48.4v-4.4
		c0-13,2.3-24.5,7-34.4c4.6-10,11.3-17.7,20-23.1c8.7-5.4,18.8-8.1,30.4-8.1c14.8,0,27,4.3,36.5,12.9c9.6,8.6,14.7,19.9,15.4,33.9
		h-14.3c-0.7-10.3-4.5-18.6-11.4-24.9s-15.7-9.5-26.2-9.5c-13.4,0-23.9,4.7-31.3,14.2c-7.4,9.5-11.1,22.8-11.1,39.9v4.3
		c0,16.8,3.7,29.9,11.1,39.3C2546.8,360.2,2557.3,364.9,2570.8,364.9z"/>
	<path class="st2" d="M2704.5,377.2c-11.5,0-21.8-2.8-31.1-8.3c-9.3-5.5-16.5-13.2-21.6-23c-5.2-9.9-7.7-20.9-7.7-33.2v-5.2
		c0-12.6,2.5-24,7.5-34.2c5-10.1,12-18.1,21-23.9c9-5.8,18.7-8.7,29.1-8.7c16.4,0,29.3,5.4,38.9,16.4c9.6,10.9,14.4,25.8,14.4,44.7
		v8.2h-96.1v2.8c0,14.9,4.4,27.3,13.1,37.3c8.7,9.9,19.8,14.9,33,14.9c8,0,15-1.4,21.1-4.3c6.1-2.8,11.6-7.4,16.6-13.6l9.3,6.9
		C2741.2,369.4,2725.3,377.2,2704.5,377.2z M2701.8,253.1c-11.2,0-20.6,4-28.3,12c-7.7,8-12.3,18.8-14,32.3h80.8v-1.6
		c-0.4-12.7-4.1-23-11.1-30.9C2722.2,257.1,2713.1,253.1,2701.8,253.1z"/>
	<path class="st2" d="M2864.7,341.3c0-7.2-3-13-8.9-17.4c-5.9-4.4-14.9-7.8-26.8-10.3c-11.9-2.5-21.2-5.3-27.8-8.5
		c-6.6-3.2-11.5-7.1-14.7-11.7c-3.2-4.6-4.8-10.2-4.8-16.8c0-10.4,4.4-19,13.3-25.7c8.9-6.8,20.3-10.2,34.1-10.2
		c15,0,27.1,3.6,36.2,10.9c9.1,7.3,13.6,16.7,13.6,28.4H2864c0-7.7-3.3-14.1-9.9-19.2c-6.6-5.1-14.9-7.7-25-7.7
		c-9.8,0-17.7,2.1-23.6,6.4c-5.9,4.3-8.9,9.8-8.9,16.6c0,6.6,2.5,11.7,7.4,15.3c4.9,3.6,13.9,6.9,27,9.9c13.1,3,22.9,6.2,29.4,9.6
		c6.5,3.4,11.4,7.5,14.5,12.3c3.2,4.8,4.7,10.6,4.7,17.4c0,11.1-4.6,20-13.8,26.6c-9.2,6.7-21.1,10-35.9,10
		c-15.7,0-28.4-3.7-38.2-11.1c-9.8-7.4-14.6-16.8-14.6-28.2h14.9c0.6,8.5,4.3,15.1,11,19.9c6.8,4.7,15.7,7.1,26.8,7.1
		c10.4,0,18.8-2.2,25.2-6.7C2861.5,353.7,2864.7,348.1,2864.7,341.3z"/>
</g>
<g>
	<g>
		<path class="st2" d="M121.8,567.3v-85.6h8.7l18.4,50.3c1.2,3.1,2.3,6.3,3.5,9.4c1.2,3.2,2.3,6.3,3.5,9.5h0.5
			c1.2-3.2,2.3-6.4,3.3-9.5c1.1-3.2,2.2-6.3,3.3-9.4l18.3-50.3h8.8v85.6h-6v-56.2c0-3.5,0.1-7.4,0.3-11.5c0.2-4.1,0.4-8,0.5-11.6
			h-0.5l-6.8,19.1l-19,50.9h-5.3L134.2,507l-6.9-19.1h-0.5c0.2,3.6,0.4,7.5,0.5,11.6c0.2,4.1,0.3,7.9,0.3,11.5v56.2H121.8z"/>
		<path class="st2" d="M194.5,571.6h-14.6v-58.2l-18.2,48.9h-11.3L131.9,513v58.6h-14.4v-94.2h16l22.5,61.5c1-2.8,2-5.6,3-8.4
			l19.3-53.1h16.1V571.6z"/>
	</g>
	<g>
		<path class="st2" d="M233.8,568.9c-6.7,0-11.6-1.9-14.7-5.8c-3.1-3.9-4.7-9.9-4.7-18.1v-40h5.9v39.2c0,6.7,1.1,11.6,3.4,14.7
			c2.3,3.2,6,4.7,11.1,4.7c3.8,0,7.3-1,10.4-3c3.1-2,6.5-5.3,10.3-9.7v-46h5.9v62.3h-4.9l-0.7-10.4h-0.3c-3.1,3.6-6.4,6.5-9.9,8.7
			C242.3,567.8,238.3,568.9,233.8,568.9z"/>
		<path class="st2" d="M233.8,573.2c-8,0-14.1-2.5-18.1-7.5c-3.8-4.7-5.6-11.5-5.6-20.7v-44.3h14.5v43.5c0,7.1,1.4,10.6,2.6,12.2
			c0.5,0.7,2.1,2.9,7.6,2.9c3,0,5.6-0.8,8.1-2.3c2.5-1.6,5.3-4.2,8.3-7.7v-48.7h14.5v71h-13.3l-0.3-5.3c-1.4,1.1-2.7,2.1-4.2,3
			C243.8,571.9,239.1,573.2,233.8,573.2z"/>
	</g>
	<g>
		<path class="st2" d="M293.9,568.9c-5.3,0-7.9-3.3-7.9-9.9v-85.1h5.9v85.8c0,1.4,0.3,2.4,0.8,3.1c0.5,0.6,1.2,1,2,1
			c0.3,0,0.6,0,0.9,0s0.8-0.1,1.5-0.3l1.1,4.7c-0.6,0.2-1.3,0.3-1.9,0.5C295.7,568.8,294.9,568.9,293.9,568.9z"/>
		<path class="st2" d="M293.9,573.2c-3.7,0-12.2-1.4-12.2-14.2v-89.4h14.5v89.7l3.6-0.9l1.5,4.1l2,8.7l-4,1.1
			c-0.7,0.2-1.4,0.4-2.1,0.5C296.3,573.1,295.3,573.2,293.9,573.2z"/>
	</g>
	<g>
		<path class="st2" d="M335.2,568.9c-3.1,0-5.7-0.5-7.7-1.4c-2.1-0.9-3.7-2.2-4.9-3.8c-1.2-1.6-2.1-3.6-2.6-6
			c-0.5-2.3-0.7-4.9-0.7-7.7v-40.1h-10v-4.4l10.1-0.5l0.8-18.1h5.1V505h18.6v4.9h-18.6v40.7c0,2,0.2,3.8,0.5,5.4
			c0.3,1.6,0.9,3,1.7,4.2c0.8,1.2,1.9,2.1,3.3,2.7c1.4,0.6,3.2,1,5.4,1c1.2,0,2.6-0.2,4.1-0.6s2.8-0.8,3.9-1.4l1.6,4.7
			c-1.9,0.7-3.7,1.3-5.6,1.7C338.1,568.6,336.5,568.9,335.2,568.9z"/>
		<path class="st2" d="M335.2,573.2c-3.7,0-6.9-0.6-9.5-1.7c-2.7-1.2-5-2.9-6.6-5.2c-1.6-2.1-2.8-4.7-3.4-7.7
			c-0.5-2.6-0.8-5.5-0.8-8.5v-35.8h-10v-12.8l10.3-0.5l0.8-18.3h13.5v18.1H348v13.6h-18.6v36.3c0,1.7,0.1,3.2,0.4,4.6
			c0.2,1,0.5,1.9,1,2.6c0.4,0.5,0.9,0.9,1.5,1.3c0.8,0.4,2.8,1.1,6.6,0.1c1.2-0.3,2.3-0.7,3.3-1.1l4.3-1.9l4.5,13.1l-3.9,1.5
			c-2,0.8-4.1,1.4-6.1,1.9C338.7,572.9,336.8,573.2,335.2,573.2z"/>
	</g>
	<g>
		<path class="st2" d="M362.4,489.9c-1.5,0-2.8-0.5-3.8-1.4c-1-1-1.5-2.2-1.5-3.6c0-1.7,0.5-2.9,1.5-3.8c1-0.9,2.3-1.4,3.8-1.4
			c1.5,0,2.8,0.5,3.8,1.4c1,0.9,1.5,2.2,1.5,3.8c0,1.5-0.5,2.7-1.5,3.6C365.2,489.4,363.9,489.9,362.4,489.9z M359.4,567.3V505h5.9
			v62.3H359.4z"/>
		<path class="st2" d="M369.5,571.6H355v-71h14.5V571.6z M362.4,494.2c-2.6,0-4.9-0.9-6.8-2.6c-1.9-1.8-2.9-4.1-2.9-6.8
			c0-3.6,1.6-5.8,3-7.1c3.6-3.2,9.7-3.2,13.3,0c1.4,1.2,3,3.4,3,7.1c0,2.7-1,5-2.9,6.8C367.4,493.3,365,494.2,362.4,494.2z
			 M362.4,483.9c-0.6,0-0.8,0.2-0.9,0.3h0l0.1,1.1c0.2,0.2,1.5,0.2,1.7,0l0.1-1.1C363.3,484.1,363.1,483.9,362.4,483.9z"/>
	</g>
	<g>
		<path class="st2" d="M411.2,568.9c-8.1,0-14.6-2.8-19.4-8.4c-4.8-5.6-7.2-13.7-7.2-24.2c0-5,0.8-9.6,2.3-13.6
			c1.5-4.1,3.6-7.5,6.2-10.4c2.6-2.9,5.6-5,9.1-6.6c3.4-1.5,7.1-2.3,10.9-2.3c3.9,0,7.3,0.7,10.2,2c2.9,1.3,5.9,3.2,9.1,5.6
			l-0.3-11.4v-25.7h5.9v93.4h-5.1l-0.5-8H432c-2.6,2.5-5.6,4.7-9.1,6.7C419.3,567.9,415.4,568.9,411.2,568.9z M412,563.8
			c3.6,0,7-0.9,10.2-2.7c3.2-1.8,6.6-4.3,9.9-7.6v-37c-3.4-2.9-6.6-5-9.5-6.2c-3-1.2-6-1.8-9.1-1.8c-3.2,0-6.2,0.7-8.9,2.1
			c-2.8,1.4-5.1,3.4-7.1,5.8c-2,2.5-3.6,5.4-4.7,8.8c-1.2,3.4-1.7,7.1-1.7,11c0,4.2,0.5,7.9,1.4,11.3c0.9,3.4,2.3,6.3,4.1,8.6
			c1.8,2.4,4,4.2,6.6,5.6C405.6,563.1,408.6,563.8,412,563.8z"/>
		<path class="st2" d="M411.2,573.2c-9.4,0-17-3.3-22.6-9.9c-5.5-6.4-8.3-15.5-8.3-27c0-5.5,0.9-10.6,2.5-15.1
			c1.7-4.6,4.1-8.6,7.1-11.8c3-3.3,6.6-5.8,10.5-7.6c8-3.5,17.8-3.4,24.6-0.2c0.9,0.4,1.9,0.9,2.8,1.5l-0.1-3.2v-30.1h14.5v102
			h-13.4l-0.3-4.1c-1.2,0.8-2.4,1.5-3.7,2.2C420.8,572,416.1,573.2,411.2,573.2z M413.4,512.8c-2.5,0-4.8,0.5-7,1.7
			c-2.2,1.2-4.1,2.7-5.8,4.7c-1.7,2-3,4.6-4,7.5c-1,3-1.5,6.2-1.5,9.6c0,3.7,0.4,7.2,1.2,10.2c0.8,2.8,1.9,5.3,3.4,7.2
			c1.4,1.9,3.1,3.3,5.1,4.3c4.1,2.1,10.1,2.2,15.2-0.6c2.5-1.4,5.1-3.3,7.7-5.7v-33.1c-2.5-2-4.8-3.4-6.9-4.3
			C418.5,513.3,416,512.8,413.4,512.8z"/>
	</g>
	<g>
		<path class="st2" d="M465.6,489.9c-1.5,0-2.8-0.5-3.8-1.4c-1-1-1.5-2.2-1.5-3.6c0-1.7,0.5-2.9,1.5-3.8c1-0.9,2.3-1.4,3.8-1.4
			c1.5,0,2.8,0.5,3.8,1.4c1,0.9,1.5,2.2,1.5,3.8c0,1.5-0.5,2.7-1.5,3.6C468.4,489.4,467.1,489.9,465.6,489.9z M462.6,567.3V505h5.9
			v62.3H462.6z"/>
		<path class="st2" d="M472.7,571.6h-14.5v-71h14.5V571.6z M465.6,494.2c-2.6,0-4.9-0.9-6.8-2.6c-1.9-1.8-2.9-4.1-2.9-6.8
			c0-3.6,1.6-5.8,3-7.1c3.6-3.2,9.7-3.2,13.3,0c1.4,1.2,3,3.4,3,7.1c0,2.7-1,5-2.9,6.8C470.6,493.3,468.2,494.2,465.6,494.2z
			 M465.6,483.9c-0.6,0-0.8,0.2-0.9,0.3h0l0.1,1.1c0.2,0.2,1.5,0.2,1.7,0l0.1-1.1C466.5,484.1,466.3,483.9,465.6,483.9z"/>
	</g>
	<g>
		<path class="st2" d="M508.6,568.9c-4.8,0-9.2-0.8-13.2-2.5c-4-1.7-7.4-3.7-10.3-6l3.5-4.3c2.8,2.3,5.7,4.1,8.8,5.6
			c3.1,1.5,7,2.3,11.6,2.3c5.1,0,8.9-1.2,11.4-3.7c2.5-2.5,3.8-5.3,3.8-8.6c0-1.9-0.5-3.6-1.4-5.1c-0.9-1.5-2.2-2.7-3.7-3.8
			c-1.5-1-3.2-2-5-2.7c-1.8-0.8-3.7-1.5-5.5-2.2c-2.4-0.9-4.8-1.8-7.3-2.7c-2.5-1-4.7-2.1-6.6-3.4c-2-1.3-3.5-2.9-4.7-4.8
			c-1.2-1.9-1.8-4.1-1.8-6.8c0-2.3,0.4-4.4,1.3-6.4c0.9-2,2.2-3.8,4-5.3c1.8-1.5,3.9-2.7,6.5-3.6c2.5-0.9,5.5-1.3,8.9-1.3
			c3.4,0,6.7,0.6,9.9,1.8c3.2,1.2,6,2.8,8.3,4.7l-3.2,4c-2.1-1.6-4.4-2.9-6.8-4c-2.4-1.1-5.3-1.6-8.5-1.6c-2.5,0-4.6,0.3-6.4,1
			c-1.8,0.6-3.3,1.5-4.5,2.5c-1.2,1-2.1,2.2-2.7,3.6c-0.6,1.4-0.9,2.8-0.9,4.2c0,1.8,0.4,3.4,1.3,4.6c0.8,1.3,2,2.4,3.4,3.3
			s3,1.8,4.9,2.5c1.8,0.7,3.7,1.4,5.5,2.1c2.5,1,5,1.9,7.5,2.9s4.7,2.1,6.7,3.5c2,1.4,3.6,3.1,4.9,5.1c1.2,2,1.9,4.6,1.9,7.6
			c0,2.3-0.5,4.6-1.4,6.7s-2.3,4-4.2,5.6c-1.9,1.6-4.1,2.9-6.8,3.8C515.2,568.4,512.1,568.9,508.6,568.9z"/>
		<path class="st2" d="M508.6,573.2c-5.4,0-10.4-1-14.9-2.9c-4.4-1.8-8.2-4.1-11.3-6.7l-3.3-2.7l8.9-11l3.4,2.7c2.5,2,5.2,3.7,8,5.1
			c2.5,1.2,5.8,1.8,9.7,1.8c3.9,0,6.7-0.8,8.4-2.5c1.7-1.7,2.5-3.4,2.5-5.5c0-1.1-0.2-2-0.7-2.8c-0.6-1-1.4-1.8-2.5-2.5
			c-1.3-0.9-2.7-1.7-4.3-2.3c-1.8-0.8-3.5-1.5-5.4-2.1c-2.4-0.9-4.9-1.8-7.3-2.8c-2.8-1.1-5.3-2.4-7.5-3.9c-2.4-1.7-4.4-3.7-5.9-6
			c-1.7-2.6-2.5-5.6-2.5-9.1c0-2.8,0.6-5.6,1.7-8.2c1.2-2.6,2.9-5,5.2-6.9c2.2-1.9,4.9-3.3,7.9-4.4c6-2,14.3-2.2,21.7,0.6
			c3.7,1.4,6.9,3.2,9.6,5.4l3.3,2.7l-8.4,10.6l-3.3-2.4c-1.9-1.4-3.9-2.6-6-3.5c-3.2-1.4-8.6-1.6-11.7-0.5c-1.3,0.5-2.3,1.1-3.1,1.7
			c-0.7,0.6-1.2,1.3-1.5,2c-0.4,0.9-0.5,1.7-0.5,2.5c0,0.9,0.2,1.7,0.5,2.2c0.5,0.8,1.3,1.5,2.2,2.1c1.2,0.8,2.6,1.5,4.1,2.1
			c1.8,0.7,3.6,1.4,5.4,2.1l7.5,2.9c2.8,1.1,5.4,2.4,7.7,4c2.5,1.7,4.5,3.9,6.1,6.4c1.7,2.7,2.5,6,2.5,9.9c0,2.9-0.6,5.8-1.8,8.4
			c-1.2,2.7-3,5.1-5.3,7.1c-2.2,1.9-5,3.5-8.2,4.6C516.1,572.6,512.6,573.2,508.6,573.2z"/>
	</g>
	<g>
		<path class="st2" d="M571,568.9c-4.2,0-8-0.7-11.5-2.2c-3.5-1.5-6.6-3.6-9.2-6.4c-2.6-2.8-4.7-6.2-6.1-10.2
			c-1.5-4-2.2-8.6-2.2-13.8s0.8-9.9,2.4-14c1.6-4.1,3.7-7.6,6.4-10.3c2.7-2.8,5.8-4.9,9.3-6.4c3.5-1.5,7.2-2.2,11.2-2.2
			c4.5,0,8.1,0.8,11.1,2.3c2.9,1.6,5.5,3.3,7.7,5.3l-3.5,4c-2.1-1.9-4.3-3.5-6.8-4.7c-2.5-1.2-5.3-1.9-8.4-1.9c-3.3,0-6.3,0.7-9.1,2
			c-2.8,1.3-5.3,3.2-7.3,5.7c-2.1,2.5-3.7,5.4-4.9,8.8c-1.2,3.4-1.8,7.1-1.8,11.3c0,4.1,0.6,7.8,1.7,11.2c1.1,3.4,2.7,6.3,4.7,8.7
			c2,2.4,4.5,4.3,7.3,5.6c2.9,1.3,6.1,2,9.5,2c3.4,0,6.5-0.7,9.4-2.1c2.9-1.4,5.5-3.1,7.7-5.1l3.1,4c-2.8,2.3-5.8,4.3-9.2,5.8
			C578.8,568.1,575.1,568.9,571,568.9z"/>
		<path class="st2" d="M571,573.2c-4.7,0-9.2-0.9-13.2-2.5c-4.1-1.7-7.6-4.2-10.7-7.4c-3-3.2-5.4-7.1-7.1-11.7
			c-1.6-4.5-2.5-9.6-2.5-15.3c0-5.7,0.9-10.9,2.7-15.5c1.8-4.6,4.3-8.6,7.3-11.7c3.1-3.2,6.7-5.7,10.7-7.4
			c8.7-3.6,19.3-3.2,25.9,0.3c3.2,1.7,6.1,3.7,8.6,5.9l3.2,2.8l-9.2,10.6l-3.3-3c-1.7-1.6-3.7-3-5.8-4.1c-4-2-9.5-1.9-13.8,0.2
			c-2.3,1.1-4.2,2.6-5.9,4.6c-1.8,2.1-3.2,4.6-4.2,7.4c-1,2.9-1.6,6.2-1.6,9.9c0,3.6,0.5,6.9,1.5,9.8c0.9,2.9,2.3,5.3,3.9,7.3
			c1.6,1.9,3.5,3.4,5.8,4.5c4.6,2.1,10.5,2.2,15.3,0c2.5-1.2,4.8-2.7,6.7-4.4l3.5-3.1l8.4,11l-3.1,2.6c-3,2.6-6.5,4.8-10.2,6.5
			C580.1,572.2,575.7,573.2,571,573.2z"/>
	</g>
	<g>
		<path class="st2" d="M610.2,489.9c-1.5,0-2.8-0.5-3.8-1.4c-1-1-1.5-2.2-1.5-3.6c0-1.7,0.5-2.9,1.5-3.8c1-0.9,2.3-1.4,3.8-1.4
			c1.5,0,2.8,0.5,3.8,1.4s1.5,2.2,1.5,3.8c0,1.5-0.5,2.7-1.5,3.6C613,489.4,611.7,489.9,610.2,489.9z M607.2,567.3V505h5.9v62.3
			H607.2z"/>
		<path class="st2" d="M617.3,571.6h-14.5v-71h14.5V571.6z M610.2,494.2c-2.6,0-4.9-0.9-6.8-2.6c-1.9-1.8-2.9-4.1-2.9-6.8
			c0-3.6,1.6-5.8,3-7.1c3.6-3.2,9.7-3.2,13.3,0c1.4,1.2,3,3.4,3,7.1c0,2.7-1,5-2.9,6.8C615.2,493.3,612.8,494.2,610.2,494.2z
			 M610.2,483.9c-0.6,0-0.8,0.2-0.9,0.3h0l0.1,1.1c0.2,0.2,1.5,0.2,1.7,0l0.1-1.1C611.1,484.1,610.9,483.9,610.2,483.9z"/>
	</g>
	<g>
		<path class="st2" d="M637.7,595.5V505h5.1l0.5,7.8h0.4c3.1-2.4,6.5-4.6,10.2-6.5c3.7-1.9,7.5-2.9,11.5-2.9c8.5,0,15,2.9,19.2,8.6
			c4.3,5.8,6.4,13.5,6.4,23.2c0,5.3-0.8,10-2.3,14.2c-1.5,4.2-3.6,7.7-6.2,10.6c-2.6,2.9-5.7,5.1-9.1,6.6s-7,2.3-10.7,2.3
			c-3,0-6.1-0.7-9.3-2s-6.5-3.2-9.9-5.6v34.3H637.7z M662.6,563.8c3.2,0,6.2-0.7,8.9-2.1c2.8-1.4,5.1-3.3,7.1-5.8s3.5-5.5,4.6-9
			c1.1-3.5,1.7-7.4,1.7-11.6c0-3.8-0.4-7.4-1.1-10.7c-0.8-3.3-1.9-6.1-3.5-8.5c-1.6-2.4-3.7-4.2-6.3-5.6s-5.7-2-9.3-2
			c-3.2,0-6.5,0.9-9.9,2.7c-3.4,1.8-7.1,4.3-11,7.6v37c3.7,2.9,7.2,5,10.4,6.2C657.2,563.2,660.1,563.8,662.6,563.8z"/>
		<path class="st2" d="M647.9,599.8h-14.5v-99.1h13.4l0.3,4.5c1.6-1,3.2-1.9,4.8-2.7c4.3-2.2,8.9-3.3,13.5-3.3
			c9.9,0,17.6,3.5,22.7,10.4c4.8,6.5,7.3,15.2,7.3,25.7c0,5.8-0.9,11-2.5,15.6c-1.7,4.6-4.1,8.7-7.1,12c-3,3.3-6.6,5.9-10.5,7.7
			c-7.2,3.2-15.3,3.7-23.5,0.3c-1.3-0.5-2.6-1.2-3.9-1.9V599.8z M647.9,553.6c2.7,2,5.3,3.5,7.6,4.3c6.2,2.3,10.2,1.9,14-0.1
			c2.2-1.1,4-2.6,5.6-4.6c1.6-2.1,2.9-4.7,3.9-7.7c1-3.1,1.5-6.5,1.5-10.3c0-3.5-0.3-6.7-1-9.7c-0.6-2.8-1.6-5.1-2.9-7.1
			c-1.2-1.8-2.7-3.1-4.7-4.2c-3.6-1.9-9.3-2.5-15.3,0.6c-2.7,1.4-5.6,3.3-8.7,5.8V553.6z"/>
	</g>
	<g>
		<path class="st2" d="M718.2,568.9c-5.3,0-7.9-3.3-7.9-9.9v-85.1h5.9v85.8c0,1.4,0.3,2.4,0.8,3.1c0.5,0.6,1.2,1,2,1
			c0.3,0,0.6,0,0.9,0c0.3,0,0.8-0.1,1.5-0.3l1.1,4.7c-0.6,0.2-1.3,0.3-1.9,0.5C720,568.8,719.2,568.9,718.2,568.9z"/>
		<path class="st2" d="M718.2,573.2c-3.7,0-12.2-1.4-12.2-14.2v-89.4h14.5v89.7l3.6-0.9l1.5,4.1l2,8.7l-4,1.1
			c-0.7,0.2-1.4,0.4-2.1,0.5C720.7,573.1,719.6,573.2,718.2,573.2z"/>
	</g>
	<g>
		<path class="st2" d="M745.1,489.9c-1.5,0-2.8-0.5-3.8-1.4c-1-1-1.5-2.2-1.5-3.6c0-1.7,0.5-2.9,1.5-3.8c1-0.9,2.3-1.4,3.8-1.4
			c1.5,0,2.8,0.5,3.8,1.4c1,0.9,1.5,2.2,1.5,3.8c0,1.5-0.5,2.7-1.5,3.6C747.9,489.4,746.6,489.9,745.1,489.9z M742,567.3V505h5.9
			v62.3H742z"/>
		<path class="st2" d="M752.2,571.6h-14.5v-71h14.5V571.6z M745.1,494.2c-2.6,0-4.9-0.9-6.8-2.6c-1.9-1.8-2.9-4.1-2.9-6.8
			c0-3.6,1.6-5.8,3-7.1c3.6-3.2,9.7-3.2,13.3,0c1.4,1.2,3,3.4,3,7.1c0,2.7-1,5-2.9,6.8C750,493.3,747.7,494.2,745.1,494.2z
			 M745.1,483.9c-0.6,0-0.8,0.2-0.9,0.3h0l0.1,1.1c0.2,0.2,1.5,0.2,1.7,0l0.1-1.1C745.9,484.1,745.7,483.9,745.1,483.9z"/>
	</g>
	<g>
		<path class="st2" d="M772.6,567.3V505h5.1l0.5,9.6h0.4c3.3-3.2,6.7-5.9,10.1-8c3.5-2.1,7.4-3.2,11.9-3.2c6.7,0,11.6,2,14.7,5.8
			c3.1,3.9,4.7,9.9,4.7,18.1v40h-5.9v-39.2c0-6.7-1.1-11.6-3.4-14.7c-2.3-3.2-6-4.7-11.3-4.7c-3.8,0-7.3,1-10.4,2.9
			c-3.1,2-6.6,4.9-10.6,8.8v47H772.6z"/>
		<path class="st2" d="M824.3,571.6h-14.5v-43.5c0-5.6-0.9-9.9-2.6-12.2c-0.5-0.7-2.1-2.9-7.8-2.9c-3,0-5.7,0.7-8.1,2.3
			c-2.5,1.6-5.4,3.9-8.5,6.9v49.5h-14.5v-71h13.5l0.3,5.3c1.5-1.1,3-2.1,4.5-3c4.1-2.5,8.9-3.8,14.1-3.8c8,0,14.1,2.5,18,7.5
			c3.8,4.7,5.6,11.5,5.6,20.7V571.6z"/>
	</g>
	<g>
		<path class="st2" d="M857.6,568.9c-2.6,0-5-0.3-7.2-1c-2.2-0.7-4.2-1.7-5.9-3.1c-1.7-1.4-3-3.2-4-5.3c-1-2.2-1.5-4.7-1.5-7.7
			c0-6.9,3.3-12.2,9.9-15.8c6.6-3.6,17.1-6.2,31.4-7.7c0-2.3-0.2-4.7-0.5-7.1c-0.4-2.4-1.1-4.5-2.3-6.4c-1.2-1.9-2.7-3.4-4.7-4.5
			c-2-1.2-4.5-1.8-7.7-1.8c-4.3,0-8.2,0.8-11.7,2.5c-3.6,1.6-6.5,3.2-8.7,4.8l-2.7-4.3c1.2-0.8,2.6-1.7,4.2-2.6
			c1.6-1,3.5-1.8,5.5-2.6c2-0.8,4.3-1.4,6.7-2c2.4-0.6,4.9-0.9,7.5-0.9c3.7,0,6.9,0.6,9.5,1.9s4.7,3,6.3,5.1
			c1.6,2.2,2.8,4.7,3.5,7.6c0.7,2.9,1.1,6,1.1,9.4v39.9h-5.1l-0.5-8h-0.4c-3.3,2.5-6.8,4.7-10.6,6.7
			C865.9,567.9,861.9,568.9,857.6,568.9z M858.7,563.9c3.7,0,7.3-0.9,10.7-2.6c3.4-1.7,7.1-4.2,11.1-7.5v-21.2
			c-6.6,0.8-12.2,1.7-16.7,2.9c-4.5,1.1-8.2,2.5-11,4c-2.8,1.6-4.7,3.3-5.9,5.3c-1.2,2-1.8,4.2-1.8,6.6c0,2.3,0.4,4.2,1.1,5.7
			c0.7,1.6,1.7,2.8,2.9,3.8c1.2,1,2.7,1.7,4.3,2.2C855.1,563.7,856.8,563.9,858.7,563.9z"/>
		<path class="st2" d="M857.6,573.2c-3,0-5.9-0.4-8.5-1.2c-2.7-0.9-5.2-2.2-7.3-3.9c-2.2-1.8-4-4.1-5.2-6.9
			c-1.2-2.7-1.9-5.9-1.9-9.4c0-8.5,4.2-15.2,12.2-19.6c6.5-3.5,16.1-6.1,29-7.8c-0.1-0.9-0.2-1.7-0.3-2.6c-0.3-1.8-0.8-3.4-1.7-4.7
			c-0.8-1.3-1.8-2.3-3.2-3.1c-1.3-0.7-3.1-1.1-5.5-1.1c-3.6,0-7,0.7-9.9,2.1c-3.3,1.5-6,3-8,4.4l-3.7,2.6l-7.3-11.7l3.4-2.3
			c1.2-0.8,2.7-1.8,4.5-2.8c1.8-1.1,3.9-2,6.2-2.9c2.2-0.8,4.6-1.6,7.2-2.2c6.9-1.6,14.6-1.2,19.8,1.4c3.2,1.5,5.8,3.7,7.9,6.4
			c1.9,2.6,3.3,5.7,4.2,9.1c0.8,3.2,1.2,6.7,1.2,10.5v44.2h-13.4l-0.3-4.8c-1.7,1-3.4,2-5.2,2.9C867.3,572,862.6,573.2,857.6,573.2z
			 M876.1,537.5c-4.3,0.6-8.1,1.3-11.3,2.1c-4.1,1-7.5,2.2-9.9,3.6c-2.1,1.2-3.6,2.5-4.4,3.8c-0.8,1.3-1.2,2.8-1.2,4.4
			c0,1.6,0.2,2.9,0.7,3.9c0.4,0.9,1,1.7,1.7,2.3c0.8,0.6,1.7,1.1,2.8,1.4c3.9,1.1,8.7,0.5,12.8-1.6c2.7-1.4,5.6-3.3,8.7-5.8V537.5z"
			/>
	</g>
	<g>
		<path class="st2" d="M909.2,567.3V505h5.1l0.5,11.6h0.4c2.1-3.9,4.7-7.1,7.8-9.5c3.1-2.4,6.5-3.6,10.3-3.6c1.2,0,2.4,0.1,3.3,0.3
			c1,0.2,2,0.5,3.1,1l-1.3,5.2c-1.1-0.4-2-0.7-2.8-0.8c-0.8-0.1-1.8-0.2-3.1-0.2c-2.9,0-5.9,1.2-9,3.6c-3.2,2.4-6,6.5-8.5,12.4v42.5
			H909.2z"/>
		<path class="st2" d="M919.4,571.6h-14.5v-71h13.5l0.2,4.5c0.6-0.5,1.1-1,1.7-1.5c3.8-3,8.2-4.6,13-4.6c1.5,0,2.9,0.1,4.1,0.3
			c1.4,0.3,2.8,0.7,4.2,1.4l3.2,1.5l-3.4,13.3l-4.6-1.8c-1-0.4-1.6-0.5-1.9-0.6c-1.7-0.3-5.1-0.2-8.8,2.6c-2.4,1.8-4.7,5.1-6.8,9.9
			V571.6z"/>
	</g>
	<g>
		<path class="st2" d="M953.8,595.7c-2.4,0-4.6-0.4-6.5-1.3l1.3-5.1c0.7,0.3,1.5,0.5,2.4,0.7c0.9,0.2,1.8,0.3,2.8,0.3
			c4,0,7.3-1.6,10-4.7c2.7-3.1,4.8-7.1,6.4-11.8l1.7-5.5L945.6,505h6.4l15.5,39.2c1,2.6,2.1,5.5,3.3,8.6c1.2,3.1,2.4,6.1,3.7,8.8
			h0.5c1-2.8,2-5.7,3-8.8c1-3.1,2-6,2.9-8.6l13.8-39.2h6l-25.4,70.1c-0.9,2.6-2,5.2-3.3,7.7c-1.3,2.5-2.8,4.7-4.5,6.6
			s-3.7,3.4-6,4.6S956.6,595.7,953.8,595.7z"/>
		<path class="st2" d="M953.8,600c-3,0-5.8-0.6-8.3-1.7l-3.4-1.5l3.5-13.2l4.5,1.6c0.6,0.2,1.2,0.4,1.9,0.6c2.9,0.7,6.2-0.3,8.5-3
			c2.3-2.7,4.2-6.2,5.6-10.4l1.2-3.9l-28.2-68H955l16.6,41.9c0.9,2.3,1.8,4.8,2.8,7.4c0.9-2.6,1.7-5,2.4-7.2l14.8-42.1h15.2
			l-27.5,75.9c-0.9,2.7-2.1,5.5-3.5,8.2c-1.5,2.8-3.2,5.4-5.2,7.6c-2.1,2.3-4.5,4.1-7.2,5.5C960.5,599.3,957.3,600,953.8,600z"/>
	</g>
	<g>
		<path class="st2" d="M1056.7,568.9c-4.8,0-9.2-0.8-13.2-2.5c-4-1.7-7.4-3.7-10.3-6l3.5-4.3c2.8,2.3,5.7,4.1,8.8,5.6
			c3.1,1.5,7,2.3,11.6,2.3c5.1,0,8.9-1.2,11.4-3.7c2.5-2.5,3.8-5.3,3.8-8.6c0-1.9-0.5-3.6-1.4-5.1c-0.9-1.5-2.2-2.7-3.7-3.8
			c-1.5-1-3.2-2-5-2.7c-1.8-0.8-3.7-1.5-5.5-2.2c-2.4-0.9-4.8-1.8-7.3-2.7c-2.5-1-4.7-2.1-6.6-3.4c-2-1.3-3.5-2.9-4.7-4.8
			c-1.2-1.9-1.8-4.1-1.8-6.8c0-2.3,0.4-4.4,1.3-6.4c0.9-2,2.2-3.8,4-5.3s3.9-2.7,6.5-3.6c2.5-0.9,5.5-1.3,8.9-1.3
			c3.4,0,6.7,0.6,9.9,1.8c3.2,1.2,6,2.8,8.3,4.7l-3.2,4c-2.1-1.6-4.4-2.9-6.8-4c-2.4-1.1-5.2-1.6-8.5-1.6c-2.5,0-4.6,0.3-6.4,1
			s-3.3,1.5-4.5,2.5c-1.2,1-2.1,2.2-2.7,3.6c-0.6,1.4-0.9,2.8-0.9,4.2c0,1.8,0.4,3.4,1.3,4.6c0.8,1.3,2,2.4,3.4,3.3
			c1.4,1,3,1.8,4.9,2.5c1.8,0.7,3.7,1.4,5.5,2.1c2.5,1,5,1.9,7.5,2.9s4.7,2.1,6.7,3.5c2,1.4,3.6,3.1,4.9,5.1c1.2,2,1.9,4.6,1.9,7.6
			c0,2.3-0.5,4.6-1.4,6.7c-0.9,2.1-2.3,4-4.2,5.6c-1.9,1.6-4.1,2.9-6.8,3.8S1060.2,568.9,1056.7,568.9z"/>
		<path class="st2" d="M1056.7,573.2c-5.4,0-10.4-1-14.9-2.9c-4.4-1.8-8.2-4.1-11.3-6.7l-3.3-2.7l8.9-11l3.4,2.7
			c2.5,2,5.2,3.7,8,5.1c2.5,1.2,5.8,1.8,9.7,1.8c3.9,0,6.7-0.8,8.4-2.5c1.7-1.7,2.5-3.4,2.5-5.5c0-1.1-0.2-2-0.7-2.8
			c-0.6-1-1.4-1.8-2.5-2.5c-1.3-0.9-2.7-1.7-4.3-2.3c-1.8-0.8-3.5-1.5-5.4-2.1c-2.4-0.9-4.9-1.8-7.3-2.8c-2.8-1.1-5.3-2.4-7.5-3.9
			c-2.4-1.7-4.4-3.7-5.9-6c-1.7-2.6-2.5-5.6-2.5-9.1c0-2.8,0.6-5.6,1.7-8.2c1.2-2.6,2.9-5,5.2-6.9c2.2-1.9,4.9-3.3,7.9-4.4
			c6-2,14.3-2.2,21.7,0.6c3.7,1.4,6.9,3.2,9.6,5.4l3.3,2.7l-8.4,10.6l-3.3-2.4c-1.9-1.4-3.9-2.6-6-3.5c-3.2-1.4-8.6-1.6-11.7-0.5
			c-1.3,0.5-2.3,1.1-3.1,1.7c-0.7,0.6-1.2,1.3-1.5,2c-0.4,0.9-0.5,1.7-0.5,2.5c0,0.9,0.2,1.7,0.5,2.2c0.5,0.8,1.3,1.5,2.2,2.1
			c1.2,0.8,2.6,1.5,4.1,2.1c1.8,0.7,3.6,1.4,5.4,2.1l7.5,2.9c2.8,1.1,5.4,2.4,7.7,4c2.5,1.7,4.5,3.9,6.1,6.4c1.7,2.7,2.5,6,2.5,9.9
			c0,2.9-0.6,5.8-1.8,8.4c-1.2,2.7-3,5.1-5.3,7.1c-2.2,1.9-5,3.5-8.2,4.6C1064.2,572.6,1060.6,573.2,1056.7,573.2z"/>
	</g>
	<g>
		<path class="st2" d="M1118.7,568.9c-3.8,0-7.5-0.7-11-2.2c-3.5-1.5-6.5-3.6-9.1-6.4c-2.6-2.8-4.7-6.2-6.3-10.2s-2.3-8.6-2.3-13.8
			s0.8-9.9,2.3-14c1.6-4.1,3.7-7.6,6.3-10.3c2.6-2.8,5.7-4.9,9.1-6.4c3.5-1.5,7.1-2.2,11-2.2c3.8,0,7.5,0.7,11,2.2
			c3.5,1.5,6.6,3.6,9.2,6.4c2.6,2.8,4.7,6.2,6.3,10.3c1.6,4.1,2.3,8.8,2.3,14s-0.8,9.8-2.3,13.8c-1.6,4-3.7,7.4-6.3,10.2
			c-2.6,2.8-5.7,4.9-9.2,6.4C1126.2,568.1,1122.5,568.9,1118.7,568.9z M1118.7,563.8c3.2,0,6.2-0.7,9-2c2.8-1.3,5.2-3.2,7.2-5.6
			c2-2.4,3.6-5.3,4.7-8.7c1.2-3.4,1.7-7.1,1.7-11.2c0-4.2-0.6-7.9-1.7-11.3c-1.2-3.4-2.7-6.3-4.7-8.8c-2-2.5-4.4-4.4-7.2-5.7
			c-2.8-1.3-5.8-2-9-2s-6.2,0.7-8.9,2c-2.8,1.3-5.1,3.2-7.1,5.7c-2,2.5-3.6,5.4-4.7,8.8c-1.2,3.4-1.7,7.1-1.7,11.3
			c0,4.1,0.6,7.8,1.7,11.2c1.2,3.4,2.7,6.3,4.7,8.7c2,2.4,4.4,4.3,7.1,5.6C1112.5,563.1,1115.5,563.8,1118.7,563.8z"/>
		<path class="st2" d="M1118.7,573.2c-4.4,0-8.6-0.9-12.6-2.6c-4-1.7-7.6-4.2-10.6-7.4c-3-3.2-5.4-7.1-7.2-11.6
			c-1.7-4.5-2.6-9.7-2.6-15.4c0-5.7,0.9-10.9,2.6-15.5c1.8-4.6,4.2-8.6,7.2-11.8c3-3.2,6.6-5.7,10.6-7.4c8-3.4,17.2-3.4,25.3,0
			c4.1,1.7,7.7,4.2,10.7,7.4c3,3.2,5.4,7.1,7.2,11.8c1.7,4.6,2.6,9.8,2.6,15.5c0,5.7-0.9,10.9-2.6,15.4c-1.8,4.5-4.2,8.4-7.2,11.6
			c-3,3.2-6.6,5.7-10.7,7.4C1127.3,572.3,1123,573.2,1118.7,573.2z M1118.7,512.8c-2.6,0-4.9,0.5-7.1,1.6c-2.2,1.1-4.1,2.6-5.7,4.5
			c-1.7,2.1-3,4.6-4,7.5c-1,2.9-1.5,6.2-1.5,9.9c0,3.6,0.5,6.9,1.5,9.8c1,2.9,2.3,5.3,4,7.4c1.6,2,3.5,3.4,5.7,4.5
			c4.4,2.1,9.7,2.1,14.2,0c2.3-1.1,4.1-2.6,5.8-4.5c1.7-2,3-4.5,4-7.4c1-2.9,1.5-6.2,1.5-9.8c0-3.7-0.5-7-1.5-9.9
			c-1-2.9-2.3-5.4-4-7.4c-1.6-2-3.5-3.5-5.7-4.5C1123.6,513.3,1121.2,512.8,1118.7,512.8z"/>
	</g>
	<g>
		<path class="st2" d="M1174.6,568.9c-5.3,0-7.9-3.3-7.9-9.9v-85.1h5.9v85.8c0,1.4,0.3,2.4,0.8,3.1c0.5,0.6,1.2,1,2,1
			c0.3,0,0.6,0,0.9,0s0.8-0.1,1.5-0.3l1.1,4.7c-0.6,0.2-1.3,0.3-1.9,0.5C1176.4,568.8,1175.6,568.9,1174.6,568.9z"/>
		<path class="st2" d="M1174.6,573.2c-3.7,0-12.2-1.4-12.2-14.2v-89.4h14.5v89.7l3.6-0.9l1.5,4.1l2,8.7l-4,1.1
			c-0.7,0.2-1.4,0.4-2.1,0.5C1177,573.1,1175.9,573.2,1174.6,573.2z"/>
	</g>
	<g>
		<path class="st2" d="M1216.8,568.9c-6.7,0-11.6-1.9-14.7-5.8c-3.1-3.9-4.7-9.9-4.7-18.1v-40h5.9v39.2c0,6.7,1.1,11.6,3.4,14.7
			c2.3,3.2,6,4.7,11.1,4.7c3.8,0,7.3-1,10.4-3c3.1-2,6.5-5.3,10.3-9.7v-46h5.9v62.3h-4.9l-0.7-10.4h-0.3c-3.1,3.6-6.4,6.5-9.9,8.7
			C1225.2,567.8,1221.2,568.9,1216.8,568.9z"/>
		<path class="st2" d="M1216.8,573.2c-8,0-14.1-2.5-18.1-7.5c-3.8-4.7-5.6-11.5-5.6-20.7v-44.3h14.5v43.5c0,7.1,1.4,10.6,2.6,12.2
			c0.5,0.7,2.1,2.9,7.6,2.9c3,0,5.6-0.8,8.1-2.3c2.5-1.6,5.3-4.2,8.3-7.7v-48.7h14.5v71h-13.3l-0.3-5.3c-1.4,1.1-2.7,2.1-4.2,3
			C1226.8,571.9,1222,573.2,1216.8,573.2z"/>
	</g>
	<g>
		<path class="st2" d="M1286.5,568.9c-3.1,0-5.7-0.5-7.7-1.4c-2.1-0.9-3.7-2.2-4.9-3.8c-1.2-1.6-2.1-3.6-2.6-6
			c-0.5-2.3-0.7-4.9-0.7-7.7v-40.1h-10v-4.4l10.1-0.5l0.8-18.1h5.1V505h18.6v4.9h-18.6v40.7c0,2,0.2,3.8,0.5,5.4
			c0.3,1.6,0.9,3,1.7,4.2s1.9,2.1,3.3,2.7c1.4,0.6,3.2,1,5.4,1c1.2,0,2.6-0.2,4.1-0.6c1.5-0.4,2.8-0.8,3.9-1.4l1.6,4.7
			c-1.9,0.7-3.7,1.3-5.6,1.7C1289.4,568.6,1287.8,568.9,1286.5,568.9z"/>
		<path class="st2" d="M1286.5,573.2c-3.7,0-6.9-0.6-9.5-1.7c-2.7-1.2-5-2.9-6.6-5.2c-1.6-2.1-2.8-4.7-3.4-7.7
			c-0.5-2.6-0.8-5.5-0.8-8.5v-35.8h-10v-12.8l10.3-0.5l0.8-18.3h13.5v18.1h18.6v13.6h-18.6v36.3c0,1.7,0.1,3.2,0.4,4.6
			c0.2,1,0.5,1.9,1,2.6c0.4,0.5,0.9,0.9,1.5,1.3c0.8,0.4,2.8,1.1,6.6,0.1c1.2-0.3,2.3-0.7,3.3-1.1l4.3-1.9l4.5,13.1l-3.9,1.5
			c-2,0.8-4.1,1.4-6.1,1.9C1290,572.9,1288.2,573.2,1286.5,573.2z"/>
	</g>
	<g>
		<path class="st2" d="M1313.7,489.9c-1.5,0-2.8-0.5-3.8-1.4c-1-1-1.5-2.2-1.5-3.6c0-1.7,0.5-2.9,1.5-3.8s2.3-1.4,3.8-1.4
			c1.5,0,2.8,0.5,3.8,1.4c1,0.9,1.5,2.2,1.5,3.8c0,1.5-0.5,2.7-1.5,3.6C1316.5,489.4,1315.2,489.9,1313.7,489.9z M1310.7,567.3V505
			h5.9v62.3H1310.7z"/>
		<path class="st2" d="M1320.8,571.6h-14.5v-71h14.5V571.6z M1313.7,494.2c-2.6,0-4.9-0.9-6.8-2.6c-1.9-1.8-2.9-4.1-2.9-6.8
			c0-3.6,1.6-5.8,3-7.1c3.6-3.2,9.7-3.2,13.3,0c1.4,1.2,3,3.4,3,7.1c0,2.7-1,5-2.9,6.8C1318.7,493.3,1316.3,494.2,1313.7,494.2z
			 M1313.7,483.9c-0.6,0-0.8,0.2-0.9,0.3h0l0.1,1.1c0.2,0.2,1.5,0.2,1.7,0l0.1-1.1C1314.6,484.1,1314.4,483.9,1313.7,483.9z"/>
	</g>
	<g>
		<path class="st2" d="M1364.6,568.9c-3.8,0-7.5-0.7-11-2.2c-3.5-1.5-6.5-3.6-9.1-6.4c-2.6-2.8-4.7-6.2-6.3-10.2s-2.3-8.6-2.3-13.8
			s0.8-9.9,2.3-14c1.6-4.1,3.7-7.6,6.3-10.3c2.6-2.8,5.7-4.9,9.1-6.4c3.5-1.5,7.1-2.2,11-2.2c3.8,0,7.5,0.7,11,2.2
			c3.5,1.5,6.6,3.6,9.2,6.4c2.6,2.8,4.7,6.2,6.3,10.3c1.6,4.1,2.3,8.8,2.3,14s-0.8,9.8-2.3,13.8s-3.7,7.4-6.3,10.2
			c-2.6,2.8-5.7,4.9-9.2,6.4C1372.1,568.1,1368.4,568.9,1364.6,568.9z M1364.6,563.8c3.2,0,6.2-0.7,9-2c2.8-1.3,5.2-3.2,7.2-5.6
			c2-2.4,3.6-5.3,4.7-8.7c1.2-3.4,1.7-7.1,1.7-11.2c0-4.2-0.6-7.9-1.7-11.3c-1.2-3.4-2.7-6.3-4.7-8.8c-2-2.5-4.4-4.4-7.2-5.7
			c-2.8-1.3-5.8-2-9-2s-6.2,0.7-8.9,2c-2.8,1.3-5.1,3.2-7.1,5.7c-2,2.5-3.6,5.4-4.7,8.8c-1.2,3.4-1.7,7.1-1.7,11.3
			c0,4.1,0.6,7.8,1.7,11.2c1.2,3.4,2.7,6.3,4.7,8.7c2,2.4,4.4,4.3,7.1,5.6C1358.4,563.1,1361.4,563.8,1364.6,563.8z"/>
		<path class="st2" d="M1364.6,573.2c-4.4,0-8.6-0.9-12.6-2.6c-4-1.7-7.6-4.2-10.6-7.4c-3-3.2-5.4-7.1-7.2-11.6
			c-1.7-4.5-2.6-9.7-2.6-15.4c0-5.7,0.9-10.9,2.6-15.5c1.8-4.6,4.2-8.6,7.2-11.8c3-3.2,6.6-5.7,10.6-7.4c8-3.4,17.2-3.4,25.3,0
			c4.1,1.7,7.7,4.2,10.7,7.4c3,3.2,5.4,7.1,7.2,11.8c1.7,4.6,2.6,9.8,2.6,15.5c0,5.7-0.9,10.9-2.6,15.4c-1.8,4.5-4.2,8.4-7.2,11.6
			c-3,3.2-6.6,5.7-10.7,7.4C1373.3,572.3,1369,573.2,1364.6,573.2z M1364.6,512.8c-2.6,0-4.9,0.5-7.1,1.6c-2.2,1.1-4.1,2.6-5.7,4.5
			c-1.7,2.1-3,4.6-4,7.5c-1,2.9-1.5,6.2-1.5,9.9c0,3.6,0.5,6.9,1.5,9.8c1,2.9,2.3,5.3,4,7.4c1.6,2,3.5,3.4,5.7,4.5
			c4.4,2.1,9.7,2.1,14.2,0c2.3-1.1,4.1-2.6,5.8-4.5c1.7-2,3-4.5,4-7.4c1-2.9,1.5-6.2,1.5-9.8c0-3.7-0.5-7-1.5-9.9
			c-1-2.9-2.3-5.4-4-7.4c-1.6-2-3.5-3.5-5.7-4.5C1369.5,513.3,1367.2,512.8,1364.6,512.8z"/>
	</g>
	<g>
		<path class="st2" d="M1412.7,567.3V505h5.1l0.5,9.6h0.4c3.3-3.2,6.7-5.9,10.1-8c3.5-2.1,7.4-3.2,11.9-3.2c6.7,0,11.6,2,14.7,5.8
			c3.1,3.9,4.7,9.9,4.7,18.1v40h-5.9v-39.2c0-6.7-1.1-11.6-3.4-14.7c-2.3-3.2-6-4.7-11.3-4.7c-3.8,0-7.3,1-10.4,2.9
			c-3.1,2-6.6,4.9-10.6,8.8v47H1412.7z"/>
		<path class="st2" d="M1464.4,571.6h-14.5v-43.5c0-5.6-0.9-9.9-2.6-12.2c-0.5-0.7-2.1-2.9-7.8-2.9c-3,0-5.7,0.7-8.1,2.3
			c-2.5,1.6-5.4,3.9-8.5,6.9v49.5h-14.5v-71h13.5l0.3,5.3c1.5-1.1,3-2.1,4.5-3c4.1-2.5,8.9-3.8,14.1-3.8c8,0,14.1,2.5,18,7.5
			c3.8,4.7,5.6,11.5,5.6,20.7V571.6z"/>
	</g>
	<g>
		<path class="st2" d="M1499.2,568.9c-4.8,0-9.2-0.8-13.2-2.5c-4-1.7-7.4-3.7-10.3-6l3.5-4.3c2.8,2.3,5.7,4.1,8.8,5.6
			c3.1,1.5,7,2.3,11.6,2.3c5.1,0,8.9-1.2,11.4-3.7c2.5-2.5,3.8-5.3,3.8-8.6c0-1.9-0.5-3.6-1.4-5.1c-0.9-1.5-2.2-2.7-3.7-3.8
			c-1.5-1-3.2-2-5-2.7c-1.8-0.8-3.7-1.5-5.5-2.2c-2.4-0.9-4.8-1.8-7.3-2.7c-2.5-1-4.7-2.1-6.6-3.4c-2-1.3-3.5-2.9-4.7-4.8
			c-1.2-1.9-1.8-4.1-1.8-6.8c0-2.3,0.4-4.4,1.3-6.4c0.9-2,2.2-3.8,4-5.3c1.8-1.5,3.9-2.7,6.5-3.6c2.5-0.9,5.5-1.3,8.9-1.3
			c3.4,0,6.7,0.6,9.9,1.8c3.3,1.2,6,2.8,8.3,4.7l-3.2,4c-2.1-1.6-4.4-2.9-6.8-4c-2.4-1.1-5.3-1.6-8.5-1.6c-2.5,0-4.6,0.3-6.4,1
			c-1.8,0.6-3.3,1.5-4.5,2.5c-1.2,1-2.1,2.2-2.7,3.6c-0.6,1.4-0.9,2.8-0.9,4.2c0,1.8,0.4,3.4,1.3,4.6c0.8,1.3,2,2.4,3.4,3.3
			c1.4,1,3,1.8,4.9,2.5c1.8,0.7,3.7,1.4,5.5,2.1c2.5,1,5,1.9,7.5,2.9c2.5,1,4.7,2.1,6.7,3.5c2,1.4,3.6,3.1,4.9,5.1
			c1.2,2,1.9,4.6,1.9,7.6c0,2.3-0.5,4.6-1.4,6.7c-0.9,2.1-2.3,4-4.2,5.6c-1.9,1.6-4.1,2.9-6.8,3.8S1502.7,568.9,1499.2,568.9z"/>
		<path class="st2" d="M1499.2,573.2c-5.4,0-10.4-1-14.9-2.9c-4.4-1.8-8.2-4.1-11.3-6.7l-3.3-2.7l8.9-11l3.4,2.7
			c2.5,2,5.2,3.7,8,5.1c2.5,1.2,5.8,1.8,9.7,1.8c3.9,0,6.7-0.8,8.4-2.5c1.7-1.7,2.5-3.4,2.5-5.5c0-1.1-0.2-2-0.7-2.8
			c-0.6-1-1.4-1.8-2.5-2.5c-1.3-0.9-2.7-1.7-4.3-2.3c-1.8-0.8-3.5-1.5-5.4-2.1c-2.4-0.9-4.9-1.8-7.3-2.8c-2.8-1.1-5.3-2.4-7.5-3.9
			c-2.4-1.7-4.4-3.7-5.9-6c-1.7-2.6-2.5-5.6-2.5-9.1c0-2.8,0.6-5.6,1.7-8.2c1.2-2.6,2.9-5,5.2-6.9c2.2-1.9,4.9-3.3,7.9-4.4
			c6-2.1,14.3-2.2,21.7,0.6c3.7,1.4,6.9,3.2,9.6,5.4l3.3,2.7l-8.4,10.6l-3.3-2.4c-1.9-1.4-3.9-2.6-6.1-3.5
			c-3.2-1.4-8.6-1.6-11.7-0.5c-1.3,0.5-2.3,1.1-3.1,1.7c-0.7,0.6-1.2,1.3-1.5,2c-0.4,0.9-0.5,1.7-0.5,2.5c0,0.9,0.2,1.7,0.5,2.2
			c0.5,0.8,1.3,1.5,2.2,2.1c1.2,0.8,2.6,1.5,4.1,2.1c1.8,0.7,3.6,1.4,5.4,2.1l7.5,2.9c2.8,1.1,5.4,2.4,7.7,4
			c2.5,1.7,4.5,3.9,6.1,6.4c1.7,2.7,2.5,6,2.5,9.9c0,2.9-0.6,5.8-1.8,8.4c-1.2,2.7-3,5.1-5.3,7.1c-2.2,1.9-5,3.5-8.2,4.6
			C1506.7,572.6,1503.1,573.2,1499.2,573.2z"/>
	</g>
	<g>
		<path class="st2" d="M1560.5,587.4l-1.9-3.9c3.1-1.6,5.6-3.7,7.5-6.4c1.9-2.7,2.8-5.8,2.8-9.3c-0.4,0.1-0.9,0.1-1.6,0.1
			c-1.5,0-2.8-0.5-3.9-1.4c-1.1-1-1.7-2.3-1.7-4c0-1.7,0.6-3.1,1.7-4c1.2-1,2.5-1.4,4-1.4c2,0,3.7,0.8,4.9,2.5
			c1.2,1.6,1.9,3.9,1.9,6.8c0,4.8-1.3,9-3.9,12.6C1567.8,582.5,1564.5,585.3,1560.5,587.4z"/>
		<path class="st2" d="M1558.5,593.3l-5.6-11.7l3.8-1.9c2.5-1.2,4.4-2.9,5.9-5c0.6-0.9,1.1-1.9,1.5-3c-1.3-0.4-2.4-1.1-3.5-2
			c-1.4-1.2-3.2-3.5-3.2-7.3c0-3.8,1.8-6.1,3.3-7.4c4.6-3.8,11.5-3,15.1,1.8c1.8,2.4,2.7,5.5,2.7,9.4c0,5.6-1.6,10.7-4.7,15.1
			c-3,4.2-6.8,7.5-11.4,9.9L1558.5,593.3z M1567.4,561.3c-0.5,0-0.9,0.1-1.3,0.5l0,1.4c0.3,0.2,0.6,0.4,1.1,0.4l2.2-0.5
			c-0.1-0.4-0.3-0.7-0.5-1C1568.5,561.5,1568.1,561.3,1567.4,561.3z"/>
	</g>
</g>
<g>
	<g>
		<path class="st0" d="M1730.8,488.4v87h-9v-72.9l-30.8,72.9h-8.1l-31-72.6v72.6h-9.2v-87h10.7l33.6,76l33.3-76H1730.8z"/>
		<path class="st0" d="M1735.1,579.7h-17.7v-55.9l-23.7,55.9H1680l-23.8-55.8v55.8h-17.8v-95.6h9.2v-2.4l1,2.4h7.6l30.7,69.6
			l30.5-69.6h7.5l1.2-2.8v2.8h9V579.7z M1726.1,571.1h0.4l-0.4-78.4V571.1z M1647,571.1h0.5v-78.4h-0.5V571.1z"/>
	</g>
	<g>
		<path class="st0" d="M1811.4,506.5v68.8h-9v-17c-1.8,6-5.1,10.5-9.8,13.6c-4.7,3.1-10.2,4.7-16.3,4.7c-8.3,0-15-2.5-20.1-7.6
			c-5.1-5.1-7.7-12.5-7.7-22.4v-40.1h9v39.3c0,7.6,1.9,13.3,5.8,17.3c3.9,4,9.2,6,15.9,6c7.1,0,12.7-2.2,16.8-6.6
			c4.2-4.4,6.3-10.9,6.3-19.5v-36.6H1811.4z"/>
		<path class="st0" d="M1776.3,580.9c-9.4,0-17.2-3-23.1-8.9c-5.9-5.9-9-14.5-9-25.4v-44.4h17.7v43.7c0,6.4,1.5,11.2,4.6,14.3
			c3.1,3.1,7.2,4.7,12.8,4.7c5.9,0,10.4-1.7,13.7-5.3c3.4-3.6,5.1-9.1,5.1-16.5v-40.9h17.7v77.5H1798v-6.5c-1,0.9-2,1.7-3.1,2.4
			C1789.5,579.1,1783.2,580.9,1776.3,580.9z M1806.6,571.1h0.4l-0.4-60.2V571.1z M1752.8,510.8v35.8c0,8.6,2.2,15.1,6.4,19.3
			c1.9,1.9,4,3.3,6.4,4.4c-2-1.1-3.8-2.5-5.4-4.1c-4.7-4.8-7-11.6-7-20.3L1752.8,510.8z"/>
	</g>
	<g>
		<path class="st0" d="M1840.3,482.1v93.3h-9.2v-93.3H1840.3z"/>
		<path class="st0" d="M1844.6,579.7h-17.8V477.8h17.8V579.7z M1835.4,571.1h0.5v-84.7h-0.5V571.1z"/>
	</g>
	<g>
		<path class="st0" d="M1891.9,567.5v7.8h-8.4c-6.8,0-11.9-1.6-15.2-4.7c-3.4-3.1-5-8.5-5-15.9v-40.5h-10.7v-7.7h10.7v-17.4h9.2
			v17.4h19.4v7.7h-19.4v40.6c0,4.9,0.9,8.2,2.7,10c1.8,1.8,5,2.7,9.6,2.7H1891.9z"/>
		<path class="st0" d="M1896.2,579.7h-12.7c-7.9,0-14-2-18.2-5.9c-4.2-4-6.4-10.4-6.4-19.1v-36.2h-10.7v-16.3h10.7v-17.4h17.8v17.4
			h19.4v16.3h-19.4v36.3c0,5.1,1.1,6.6,1.4,7c0.4,0.4,1.9,1.4,6.5,1.4h11.5V579.7z M1867.6,509.9v44.8c0,6.2,1.2,10.5,3.7,12.8
			c0.6,0.6,1.4,1.1,2.3,1.6c-0.5-0.4-1-0.8-1.4-1.2c-2.7-2.7-4-7-4-13.1v-61.4h-0.5V509.9z"/>
	</g>
	<g>
		<path class="st0" d="M1906.5,481.7c1.2-1.1,2.9-1.6,4.8-1.6c2,0,3.6,0.5,4.8,1.6c1.2,1.1,1.8,2.6,1.8,4.4c0,1.8-0.6,3.2-1.8,4.3
			c-1.2,1.1-2.8,1.6-4.8,1.6c-2,0-3.6-0.5-4.8-1.6c-1.2-1.1-1.9-2.5-1.9-4.3C1904.7,484.2,1905.3,482.8,1906.5,481.7z M1915.9,506.5
			v68.8h-9.2v-68.8H1915.9z"/>
		<path class="st0" d="M1920.2,579.7h-17.8v-77.5h17.8V579.7z M1911.1,571.1h0.5v-60.2h-0.5V571.1z M1911.4,496.3
			c-3.1,0-5.6-0.9-7.7-2.7c-2.2-1.9-3.3-4.5-3.3-7.5c0-3.1,1.2-5.8,3.3-7.7c4.1-3.6,11.3-3.6,15.3,0.1c2.1,1.9,3.2,4.5,3.2,7.6
			c0,3-1.1,5.6-3.2,7.5C1917.1,495.4,1914.5,496.3,1911.4,496.3z M1911.4,484.4c-1.2,0-1.7,0.3-2,0.6l0,0c-0.2,0.1-0.4,0.3-0.4,1.2
			c0,0.6,0.2,0.8,0.4,1c0.3,0.2,0.8,0.6,2,0.6c1.3,0,1.7-0.4,1.9-0.5c0.2-0.2,0.4-0.4,0.4-1.1c0-0.9-0.2-1.1-0.4-1.2
			C1913.1,484.8,1912.7,484.4,1911.4,484.4z"/>
	</g>
	<g>
		<path class="st0" d="M1944.7,482.1v93.3h-9.2v-93.3H1944.7z"/>
		<path class="st0" d="M1949,579.7h-17.8V477.8h17.8V579.7z M1939.8,571.1h0.5v-84.7h-0.5V571.1z"/>
	</g>
	<g>
		<path class="st0" d="M1964.1,481.7c1.2-1.1,2.9-1.6,4.8-1.6c2,0,3.6,0.5,4.8,1.6c1.2,1.1,1.8,2.6,1.8,4.4c0,1.8-0.6,3.2-1.8,4.3
			c-1.2,1.1-2.8,1.6-4.8,1.6c-2,0-3.6-0.5-4.8-1.6c-1.2-1.1-1.9-2.5-1.9-4.3C1962.2,484.2,1962.9,482.8,1964.1,481.7z M1973.5,506.5
			v68.8h-9.2v-68.8H1973.5z"/>
		<path class="st0" d="M1977.8,579.7H1960v-77.5h17.8V579.7z M1968.6,571.1h0.5v-60.2h-0.5V571.1z M1968.9,496.3
			c-3.1,0-5.6-0.9-7.7-2.7c-2.2-1.9-3.3-4.5-3.3-7.5c0-3.1,1.2-5.8,3.3-7.7c4.1-3.6,11.3-3.6,15.3,0.1c2.1,1.9,3.2,4.5,3.2,7.6
			c0,3-1.1,5.6-3.2,7.5C1974.6,495.4,1972,496.3,1968.9,496.3z M1968.9,484.4c-1.2,0-1.7,0.3-2,0.6l0,0c-0.2,0.1-0.4,0.3-0.4,1.2
			c0,0.6,0.2,0.8,0.4,1c0.3,0.2,0.8,0.6,2,0.6c1.3,0,1.7-0.4,1.9-0.5c0.2-0.2,0.4-0.4,0.4-1.1c0-0.9-0.2-1.1-0.4-1.2
			C1970.7,484.8,1970.2,484.4,1968.9,484.4z"/>
	</g>
	<g>
		<path class="st0" d="M2048.2,512.9c5.1,5.1,7.7,12.5,7.7,22.4v40.1h-8.9v-39.5c0-7.5-1.9-13.2-5.8-17.2c-3.9-4-9.2-6-15.9-6
			c-7.1,0-12.7,2.2-16.8,6.6c-4.2,4.4-6.3,10.9-6.3,19.5v36.6h-9.2v-68.8h9.2v16.9c1.8-5.9,5.1-10.4,9.8-13.5
			c4.7-3.1,10.1-4.7,16.3-4.7C2036.5,505.3,2043.1,507.8,2048.2,512.9z"/>
		<path class="st0" d="M2060.2,579.7h-17.5v-43.8c0-6.4-1.5-11-4.6-14.2c-3-3.1-7.2-4.7-12.8-4.7c-5.9,0-10.4,1.7-13.7,5.3
			c-3.4,3.6-5.1,9.1-5.1,16.5v40.9h-17.8v-77.5h17.8v6.5c1-0.9,2-1.7,3.1-2.4c5.4-3.6,11.7-5.4,18.6-5.4c9.3,0,17,3,23,8.9
			c5.9,5.9,9,14.5,9,25.4V579.7z M2051.3,571.1h0.3v-35.8c0-8.6-2.2-15.1-6.4-19.3c-1.7-1.7-3.6-3.1-5.8-4.1c1.8,1,3.4,2.3,4.9,3.8
			c4.7,4.8,7,11.6,7,20.2V571.1z M1997.4,571.1h0.5v-60.2h-0.5V571.1z"/>
	</g>
	<g>
		<path class="st0" d="M2123,511.1c5,3.6,8.5,8.4,10.4,14.4v-18.9h8.9V577c0,6.4-1.4,12-4.1,16.8c-2.8,4.8-6.6,8.6-11.5,11.2
			c-4.9,2.7-10.5,4-16.8,4c-9.2,0-16.8-2.2-22.7-6.5c-5.9-4.3-9.7-10.2-11.6-17.6h9c1.5,5,4.4,9,8.6,12c4.2,2.9,9.5,4.4,16.1,4.4
			c4.5,0,8.5-1,12.2-2.8c3.7-1.9,6.5-4.7,8.6-8.4c2.1-3.7,3.2-8.1,3.2-13.1v-20.6c-1.9,6-5.4,10.8-10.4,14.4
			c-5,3.6-11.1,5.4-18.3,5.4c-6.4,0-12.1-1.4-17.1-4.3c-5-2.9-9-7-11.7-12.3c-2.8-5.3-4.2-11.6-4.2-18.7c0-7.2,1.4-13.5,4.2-18.8
			c2.8-5.3,6.7-9.4,11.7-12.2c5-2.8,10.7-4.2,17.2-4.2C2111.8,505.6,2117.9,507.4,2123,511.1z M2088,520.8
			c-4.8,4.9-7.2,11.6-7.2,20.1c0,8.5,2.4,15.2,7.2,20.1c4.8,4.9,11.1,7.4,19,7.4c5,0,9.5-1.1,13.5-3.4c4-2.3,7.1-5.5,9.4-9.6
			c2.3-4.2,3.4-9,3.4-14.4c0-5.5-1.1-10.3-3.4-14.4c-2.3-4.2-5.4-7.4-9.4-9.6c-4-2.3-8.5-3.4-13.5-3.4
			C2099.1,513.5,2092.8,515.9,2088,520.8z"/>
		<path class="st0" d="M2109.9,613.3c-10.1,0-18.6-2.5-25.2-7.3c-6.7-4.9-11.1-11.7-13.2-20l-1.3-5.3h17.7l0.9,3
			c1.3,4.1,3.5,7.3,7,9.7c3.4,2.4,8,3.6,13.6,3.6c3.7,0,7.2-0.8,10.2-2.4c2.9-1.5,5.2-3.7,6.9-6.7c1.7-3,2.6-6.7,2.6-11v-5.6
			c-1.1,1.1-2.3,2-3.6,2.9c-5.8,4.1-12.7,6.2-20.8,6.2c-7.1,0-13.6-1.6-19.2-4.9c-5.8-3.3-10.3-8-13.4-14
			c-3.1-5.9-4.7-12.9-4.7-20.7c0-7.9,1.6-14.9,4.7-20.8c3.2-6.1,7.7-10.8,13.4-14c5.6-3.2,12.1-4.8,19.3-4.8c8,0,15,2.1,20.8,6.2h0
			c1.3,0.9,2.5,1.9,3.6,3v-8.3h17.5V577c0,7.1-1.6,13.5-4.7,19c-3.1,5.5-7.6,9.9-13.2,12.9C2123.2,611.8,2116.8,613.3,2109.9,613.3z
			 M2137.7,553.2V577c0,5.8-1.3,10.9-3.7,15.2c-0.6,1.1-1.3,2.1-2,3c0.9-1.1,1.7-2.3,2.5-3.6c2.4-4.2,3.6-9.1,3.6-14.7l-0.3-66.2
			V553.2z M2081.7,589.3C2081.7,589.3,2081.7,589.3,2081.7,589.3C2081.7,589.3,2081.7,589.3,2081.7,589.3L2081.7,589.3z M2093.1,512
			c-1.2,0.5-2.3,1-3.4,1.6c-4.3,2.4-7.6,5.9-10,10.5c-2.5,4.7-3.7,10.4-3.7,16.8c0,6.4,1.2,12,3.7,16.7c2.4,4.6,5.7,8.1,10.1,10.6
			c0.8,0.4,1.6,0.8,2.4,1.2c-2.7-1.4-5.1-3.2-7.2-5.4c-5.6-5.7-8.4-13.5-8.4-23.1c0-9.6,2.8-17.4,8.4-23.1
			C2087.3,515.4,2090,513.4,2093.1,512z M2107,517.8c-6.8,0-12,2-15.9,6.1c-4,4.1-5.9,9.7-5.9,17.1c0,7.4,1.9,13,5.9,17.1
			c4,4.1,9.2,6.1,15.9,6.1c4.3,0,8-0.9,11.4-2.8c3.3-1.9,5.9-4.5,7.8-8c1.9-3.5,2.9-7.7,2.9-12.4c0-4.7-1-8.9-2.9-12.4
			c-1.9-3.5-4.4-6.1-7.8-8C2115,518.7,2111.3,517.8,2107,517.8z"/>
	</g>
	<g>
		<path class="st0" d="M2222.7,506.5v68.8h-9v-17c-1.8,6-5.1,10.5-9.8,13.6c-4.7,3.1-10.2,4.7-16.3,4.7c-8.3,0-15-2.5-20.1-7.6
			c-5.1-5.1-7.7-12.5-7.7-22.4v-40.1h9v39.3c0,7.6,1.9,13.3,5.8,17.3c3.9,4,9.2,6,15.9,6c7.1,0,12.7-2.2,16.8-6.6
			c4.2-4.4,6.3-10.9,6.3-19.5v-36.6H2222.7z"/>
		<path class="st0" d="M2187.6,580.9c-9.4,0-17.2-3-23.1-8.9c-5.9-5.9-9-14.5-9-25.4v-44.4h17.7v43.7c0,6.4,1.5,11.2,4.6,14.3
			c3.1,3.1,7.2,4.7,12.8,4.7c5.9,0,10.4-1.7,13.7-5.3c3.4-3.6,5.1-9.1,5.1-16.5v-40.9h17.7v77.5h-17.7v-6.5c-1,0.9-2,1.7-3.1,2.4
			C2200.7,579.1,2194.5,580.9,2187.6,580.9z M2217.9,571.1h0.4l-0.4-60.2V571.1z M2164.1,510.8v35.8c0,8.6,2.2,15.1,6.4,19.3
			c1.9,1.9,4,3.3,6.4,4.4c-2-1.1-3.8-2.5-5.4-4.1c-4.7-4.8-7-11.6-7-20.3L2164.1,510.8z"/>
	</g>
	<g>
		<path class="st0" d="M2290.3,511.1c5,3.6,8.5,8.4,10.4,14.4v-18.9h8.9v68.8h-8.9v-18.9c-1.9,6-5.4,10.8-10.4,14.4
			c-5,3.6-11.1,5.4-18.3,5.4c-6.4,0-12.1-1.4-17.1-4.3c-5-2.9-9-7-11.7-12.3c-2.8-5.3-4.2-11.6-4.2-18.7c0-7.2,1.4-13.5,4.2-18.8
			c2.8-5.3,6.7-9.4,11.7-12.2c5-2.8,10.7-4.2,17.2-4.2C2279.2,505.6,2285.3,507.4,2290.3,511.1z M2255.4,520.8
			c-4.8,4.9-7.2,11.6-7.2,20.1c0,8.5,2.4,15.2,7.2,20.1c4.8,4.9,11.1,7.4,19,7.4c5,0,9.5-1.1,13.5-3.4c4-2.3,7.1-5.5,9.4-9.6
			c2.3-4.2,3.4-9,3.4-14.4c0-5.5-1.1-10.3-3.4-14.4c-2.3-4.2-5.4-7.4-9.4-9.6c-4-2.3-8.5-3.4-13.5-3.4
			C2266.5,513.5,2260.1,515.9,2255.4,520.8z"/>
		<path class="st0" d="M2272.1,580.6c-7.1,0-13.6-1.6-19.2-4.9c-5.8-3.3-10.3-8-13.4-14c-3.1-5.9-4.7-12.9-4.7-20.7
			c0-7.9,1.6-14.9,4.7-20.8c3.2-6.1,7.7-10.8,13.4-14c5.6-3.2,12.1-4.8,19.3-4.8c8,0,15,2.1,20.8,6.2h0c1.3,0.9,2.5,1.9,3.6,3v-8.3
			h17.5v77.5h-17.5v-8.3c-1.1,1.1-2.3,2-3.6,2.9C2287.1,578.5,2280.1,580.6,2272.1,580.6z M2305,571.1h0.3l-0.3-60.2V571.1z
			 M2260.4,512c-1.2,0.5-2.3,1-3.4,1.6c-4.3,2.4-7.6,5.9-10,10.5c-2.5,4.7-3.7,10.4-3.7,16.8c0,6.4,1.2,12,3.7,16.7
			c2.4,4.6,5.7,8.1,10.1,10.6c0.8,0.4,1.6,0.8,2.4,1.2c-2.7-1.4-5.1-3.2-7.2-5.4c-5.6-5.7-8.4-13.5-8.4-23.1
			c0-9.6,2.8-17.4,8.4-23.1C2254.7,515.4,2257.4,513.4,2260.4,512z M2274.4,517.8c-6.8,0-12,2-15.9,6.1c-4,4.1-5.9,9.7-5.9,17.1
			c0,7.4,1.9,13,5.9,17.1c4,4.1,9.2,6.1,15.9,6.1c4.3,0,8-0.9,11.4-2.8c3.3-1.9,5.9-4.5,7.8-8c1.9-3.5,2.9-7.7,2.9-12.4
			c0-4.7-1-8.9-2.9-12.4c-1.9-3.5-4.4-6.1-7.8-8C2282.4,518.7,2278.7,517.8,2274.4,517.8z"/>
	</g>
	<g>
		<path class="st0" d="M2338.4,482.1v93.3h-9.2v-93.3H2338.4z"/>
		<path class="st0" d="M2342.7,579.7h-17.8V477.8h17.8V579.7z M2333.6,571.1h0.5v-84.7h-0.5V571.1z"/>
	</g>
	<g>
		<path class="st0" d="M2431.3,511.6c4.6,4,7.5,9.3,8.5,16h-8.6c-0.5-4.5-2.4-8.1-5.6-11c-3.2-2.9-7.6-4.4-13-4.4
			c-4.6,0-8.3,1.1-10.9,3.3c-2.6,2.2-3.9,5.2-3.9,8.9c0,2.8,0.8,5,2.5,6.7c1.7,1.7,3.8,3,6.3,3.8c2.5,0.9,5.9,1.8,10.1,2.7
			c5.2,1.2,9.3,2.4,12.5,3.6c3.1,1.2,5.8,3.1,8.1,5.7c2.2,2.6,3.4,6.1,3.4,10.6c0,5.5-2.1,9.9-6.3,13.4c-4.2,3.5-9.7,5.2-16.6,5.2
			c-8.1,0-14.7-2-19.9-5.9c-5.2-3.9-8.2-9.3-9.2-16.1h8.8c0.5,4.5,2.5,8.2,6.1,11.1c3.5,2.9,8.3,4.3,14.3,4.3c4.5,0,8-1.1,10.5-3.4
			c2.5-2.3,3.7-5.2,3.7-8.8c0-2.9-0.9-5.3-2.6-7.1c-1.7-1.8-3.9-3.1-6.4-4c-2.5-0.9-6-1.8-10.4-2.8c-5.1-1.2-9.1-2.4-12.2-3.5
			c-3.1-1.2-5.7-3-7.8-5.5c-2.1-2.5-3.2-5.9-3.2-10.1c0-5.6,2.1-10.2,6.3-13.6c4.2-3.5,9.9-5.2,17.2-5.2
			C2420.5,505.6,2426.7,507.6,2431.3,511.6z"/>
		<path class="st0" d="M2417.7,580.6c-9,0-16.6-2.3-22.5-6.7c-6.1-4.6-9.7-11-10.8-18.9l-0.7-4.9h17.6l0.4,3.8
			c0.4,3.4,1.9,6.1,4.5,8.2c2.7,2.2,6.6,3.3,11.6,3.3c3.3,0,5.9-0.8,7.6-2.3c1.6-1.4,2.3-3.2,2.3-5.6c0-2.4-0.8-3.5-1.4-4.1
			c-1.3-1.3-2.8-2.2-4.7-2.9c-2.4-0.9-5.8-1.8-9.9-2.7c-5.3-1.2-9.5-2.5-12.8-3.7c-3.7-1.4-6.9-3.7-9.5-6.7c-2.8-3.3-4.3-7.6-4.3-13
			c0-7,2.7-12.7,7.9-16.9c5-4.1,11.7-6.1,19.9-6.1c8.7,0,15.8,2.3,21.3,6.9l0,0c5.4,4.6,8.8,10.9,10,18.7l0.8,5h-17.5l-0.4-3.8
			c-0.4-3.4-1.8-6.1-4.2-8.3c-2.4-2.2-5.7-3.3-10.1-3.3c-3.6,0-6.3,0.8-8.1,2.3c-1.6,1.4-2.4,3.2-2.4,5.6c0,2.1,0.7,3.1,1.2,3.6
			c1.2,1.2,2.8,2.2,4.7,2.8c2.3,0.8,5.5,1.7,9.5,2.6c5.5,1.2,9.7,2.5,13.1,3.8c3.8,1.5,7.1,3.8,9.8,6.9c2.9,3.4,4.4,7.9,4.4,13.4
			c0,6.8-2.6,12.4-7.8,16.7C2432.1,578.5,2425.6,580.6,2417.7,580.6z"/>
	</g>
	<g>
		<path class="st0" d="M2517.8,506.5v68.8h-9v-17c-1.8,6-5.1,10.5-9.8,13.6s-10.2,4.7-16.3,4.7c-8.3,0-15-2.5-20.1-7.6
			c-5.1-5.1-7.7-12.5-7.7-22.4v-40.1h9v39.3c0,7.6,1.9,13.3,5.8,17.3c3.9,4,9.2,6,15.9,6c7.1,0,12.7-2.2,16.8-6.6
			c4.2-4.4,6.3-10.9,6.3-19.5v-36.6H2517.8z"/>
		<path class="st0" d="M2482.7,580.9c-9.4,0-17.2-3-23.1-8.9c-5.9-5.9-9-14.5-9-25.4v-44.4h17.7v43.7c0,6.4,1.5,11.2,4.6,14.3
			c3.1,3.1,7.2,4.7,12.8,4.7c5.9,0,10.4-1.7,13.7-5.3c3.4-3.6,5.1-9.1,5.1-16.5v-40.9h17.7v77.5h-17.7v-6.5c-1,0.9-2,1.7-3.1,2.4
			C2495.9,579.1,2489.6,580.9,2482.7,580.9z M2513.1,571.1h0.4l-0.4-60.2V571.1z M2459.3,510.8v35.8c0,8.6,2.2,15.1,6.4,19.3
			c1.9,1.9,4,3.3,6.4,4.4c-2-1.1-3.8-2.5-5.4-4.1c-4.7-4.8-7-11.6-7-20.3L2459.3,510.8z"/>
	</g>
	<g>
		<path class="st0" d="M2592.3,509.9c5,2.8,8.8,6.9,11.6,12.2c2.8,5.3,4.2,11.6,4.2,18.8c0,7.1-1.4,13.4-4.2,18.7
			c-2.8,5.3-6.7,9.4-11.7,12.3c-5,2.9-10.7,4.3-17,4.3c-7.2,0-13.3-1.8-18.3-5.4c-5-3.6-8.4-8.4-10.3-14.4v51.4h-9V506.5h9v18.9
			c1.9-6,5.3-10.8,10.3-14.4c5-3.6,11.1-5.4,18.3-5.4C2581.7,505.6,2587.4,507,2592.3,509.9z M2559.3,516.9c-4,2.3-7.1,5.5-9.4,9.6
			c-2.2,4.2-3.4,9-3.4,14.4c0,5.5,1.1,10.3,3.4,14.4c2.2,4.2,5.4,7.4,9.4,9.6c4,2.3,8.5,3.4,13.5,3.4c8,0,14.4-2.5,19.1-7.4
			c4.7-4.9,7.1-11.6,7.1-20.1c0-8.5-2.4-15.2-7.1-20.1c-4.7-4.9-11.1-7.4-19.1-7.4C2567.8,513.5,2563.3,514.6,2559.3,516.9z"/>
		<path class="st0" d="M2550.9,612.2h-17.7v-110h17.7v8.3c1.1-1,2.2-2,3.5-2.9c5.7-4.1,12.7-6.2,20.9-6.2c7.2,0,13.6,1.6,19.2,4.8
			l0,0c5.6,3.2,10.1,7.9,13.3,14c3.1,5.9,4.7,13,4.7,20.8c0,7.8-1.6,14.8-4.7,20.7c-3.2,6-7.7,10.8-13.4,14
			c-5.6,3.2-12.1,4.9-19.2,4.9c-8.1,0-15.1-2.1-20.8-6.2c-1.2-0.9-2.4-1.9-3.5-2.9V612.2z M2541.9,603.6h0.4l-0.4-92.7V603.6z
			 M2586.6,511.9c3.1,1.4,5.9,3.4,8.4,5.9c5.5,5.7,8.3,13.5,8.3,23.1c0,9.6-2.8,17.4-8.3,23.1c-2.1,2.2-4.6,4-7.3,5.4
			c0.8-0.4,1.6-0.8,2.4-1.2c4.3-2.5,7.6-5.9,10-10.6c2.5-4.7,3.7-10.3,3.7-16.7c0-6.5-1.2-12.2-3.7-16.8c-2.4-4.6-5.7-8.1-9.9-10.5
			l0,0C2589.1,513,2587.9,512.4,2586.6,511.9z M2561.4,520.6c-3.3,1.9-5.8,4.5-7.7,7.9c-1.9,3.5-2.8,7.7-2.8,12.4
			c0,4.7,1,8.9,2.8,12.4c1.9,3.5,4.4,6.1,7.7,7.9c3.4,1.9,7.1,2.8,11.4,2.8c6.8,0,12.1-2,16-6.1c4-4.1,5.9-9.7,5.9-17.1
			c0-7.4-1.9-13-5.9-17.1c-3.9-4.1-9.2-6.1-16-6.1C2568.5,517.8,2564.8,518.7,2561.4,520.6L2561.4,520.6z"/>
	</g>
	<g>
		<path class="st0" d="M2679.2,509.9c5,2.8,8.8,6.9,11.6,12.2c2.8,5.3,4.2,11.6,4.2,18.8c0,7.1-1.4,13.4-4.2,18.7
			c-2.8,5.3-6.7,9.4-11.7,12.3c-5,2.9-10.7,4.3-17,4.3c-7.2,0-13.3-1.8-18.3-5.4c-5-3.6-8.4-8.4-10.3-14.4v51.4h-9V506.5h9v18.9
			c1.9-6,5.3-10.8,10.3-14.4c5-3.6,11.1-5.4,18.3-5.4C2668.5,505.6,2674.2,507,2679.2,509.9z M2646.1,516.9c-4,2.3-7.1,5.5-9.4,9.6
			c-2.2,4.2-3.4,9-3.4,14.4c0,5.5,1.1,10.3,3.4,14.4c2.2,4.2,5.4,7.4,9.4,9.6c4,2.3,8.5,3.4,13.5,3.4c8,0,14.4-2.5,19.1-7.4
			c4.7-4.9,7.1-11.6,7.1-20.1c0-8.5-2.4-15.2-7.1-20.1c-4.7-4.9-11.1-7.4-19.1-7.4C2654.6,513.5,2650.2,514.6,2646.1,516.9z"/>
		<path class="st0" d="M2637.7,612.2h-17.7v-110h17.7v8.3c1.1-1,2.2-2,3.5-2.9c5.7-4.1,12.7-6.2,20.9-6.2c7.2,0,13.6,1.6,19.2,4.8
			l0,0c5.6,3.2,10.1,7.9,13.3,14c3.1,5.9,4.7,13,4.7,20.8c0,7.8-1.6,14.8-4.7,20.7c-3.2,6-7.7,10.8-13.4,14
			c-5.6,3.2-12.1,4.9-19.2,4.9c-8.1,0-15.1-2.1-20.8-6.2c-1.2-0.9-2.4-1.9-3.5-2.9V612.2z M2628.7,603.6h0.4l-0.4-92.7V603.6z
			 M2673.5,511.9c3.1,1.4,5.9,3.4,8.4,5.9c5.5,5.7,8.3,13.5,8.3,23.1c0,9.6-2.8,17.4-8.3,23.1c-2.1,2.2-4.6,4-7.3,5.4
			c0.8-0.4,1.6-0.8,2.4-1.2c4.3-2.5,7.6-5.9,10-10.6c2.5-4.7,3.7-10.3,3.7-16.7c0-6.5-1.2-12.2-3.7-16.8c-2.4-4.6-5.7-8.1-9.9-10.5
			l0,0C2675.9,513,2674.7,512.4,2673.5,511.9z M2648.3,520.6c-3.3,1.9-5.8,4.5-7.7,7.9c-1.9,3.5-2.8,7.7-2.8,12.4
			c0,4.7,1,8.9,2.8,12.4c1.9,3.5,4.4,6.1,7.7,7.9c3.4,1.9,7.1,2.8,11.4,2.8c6.8,0,12.1-2,16-6.1c4-4.1,5.9-9.7,5.9-17.1
			c0-7.4-1.9-13-5.9-17.1c-3.9-4.1-9.2-6.1-16-6.1C2655.4,517.8,2651.7,518.7,2648.3,520.6L2648.3,520.6z"/>
	</g>
	<g>
		<path class="st0" d="M2761.1,509.9c5.3,2.8,9.4,6.9,12.5,12.2c3,5.3,4.5,11.6,4.5,18.8c0,7.2-1.5,13.5-4.5,18.8
			c-3,5.3-7.2,9.4-12.5,12.2c-5.3,2.9-11.3,4.3-18,4.3s-12.7-1.4-18.1-4.3c-5.3-2.9-9.5-7-12.6-12.3c-3-5.3-4.6-11.6-4.6-18.7
			c0-7.2,1.5-13.5,4.6-18.8c3.1-5.3,7.2-9.4,12.6-12.2c5.3-2.8,11.4-4.2,18.1-4.2S2755.8,507,2761.1,509.9z M2730.2,516.4
			c-4,2-7.1,5.1-9.5,9.3c-2.4,4.2-3.6,9.3-3.6,15.3c0,6.1,1.2,11.1,3.6,15.3c2.4,4.1,5.6,7.2,9.5,9.2c4,2,8.3,3,12.9,3
			c4.6,0,8.8-1,12.7-3c3.9-2,7.1-5.1,9.5-9.2s3.6-9.2,3.6-15.3c0-6.1-1.2-11.2-3.6-15.3c-2.4-4.2-5.6-7.2-9.5-9.3
			c-3.9-2-8.2-3-12.7-3C2738.5,513.3,2734.2,514.3,2730.2,516.4z"/>
		<path class="st0" d="M2743.1,580.6c-7.4,0-14.2-1.6-20.1-4.8c-6-3.2-10.8-7.9-14.3-14c-3.4-6-5.2-13-5.2-20.9c0-7.9,1.7-15,5.1-21
			c3.5-6,8.3-10.7,14.3-13.9c11.9-6.3,28.3-6.3,40.1,0h0c6,3.2,10.8,7.9,14.2,13.9c3.4,6,5.1,13,5.1,21c0,7.9-1.7,15-5.1,20.9
			c-3.4,6-8.2,10.7-14.1,13.9C2757.3,578.9,2750.5,580.6,2743.1,580.6z M2764.5,517.5c1.7,1.7,3.2,3.7,4.5,6
			c2.8,4.8,4.2,10.7,4.2,17.5c0,6.8-1.4,12.7-4.2,17.4c-1.3,2.3-2.9,4.3-4.7,6.1c2.1-1.9,3.9-4.2,5.4-6.8c2.6-4.6,3.9-10.2,3.9-16.7
			c0-6.4-1.3-12.1-4-16.7C2768.4,521.6,2766.6,519.4,2764.5,517.5z M2732.2,520.2c-3.2,1.7-5.8,4.1-7.8,7.6c-2,3.5-3,7.9-3,13.2
			c0,5.3,1,9.6,3,13.1c2,3.4,4.5,5.9,7.8,7.5c6.7,3.4,15,3.5,21.7,0c3.2-1.7,5.7-4.1,7.7-7.5c2-3.4,3-7.8,3-13.1c0-5.3-1-9.7-3-13.2
			c-2-3.5-4.5-6-7.7-7.6C2747.2,516.7,2738.8,516.8,2732.2,520.2L2732.2,520.2z M2720.4,518.6c-1.6,1.6-3,3.5-4.2,5.6
			c-2.7,4.7-4,10.3-4,16.7c0,6.3,1.3,11.9,4,16.6c1.2,2.1,2.5,3.9,4.1,5.5c-1.2-1.4-2.3-2.9-3.3-4.6c-2.8-4.8-4.2-10.6-4.2-17.4
			c0-6.8,1.4-12.7,4.2-17.5C2718,521.7,2719.1,520.1,2720.4,518.6z"/>
	</g>
	<g>
		<path class="st0" d="M2813.5,509.3c4.6-2.7,10.1-4,16.6-4v9.6h-3c-6.8,0-12.4,1.8-16.9,5.4c-4.5,3.6-6.7,9.4-6.7,17.5v37.7h-9.2
			v-68.8h9.2v14.2C2805.6,515.8,2808.9,512,2813.5,509.3z"/>
		<path class="st0" d="M2807.8,579.7h-17.8v-77.5h17.8v5.7c1.1-0.9,2.2-1.7,3.4-2.4c5.2-3.1,11.5-4.6,18.8-4.6h4.3v18.2h-7.3
			c-5.9,0-10.5,1.4-14.2,4.4c-3.4,2.7-5.1,7.4-5.1,14.1V579.7z M2798.7,571.1h0.5v-60.2h-0.5V571.1z M2825.8,509.8
			c-2.5,0.3-4.7,0.8-6.8,1.6c2.1-0.5,4.4-0.8,6.8-0.8V509.8z"/>
	</g>
	<g>
		<path class="st0" d="M2874.1,567.5v7.8h-8.4c-6.8,0-11.9-1.6-15.2-4.7c-3.4-3.1-5-8.5-5-15.9v-40.5h-10.7v-7.7h10.7v-17.4h9.2
			v17.4h19.4v7.7h-19.4v40.6c0,4.9,0.9,8.2,2.7,10c1.8,1.8,5,2.7,9.6,2.7H2874.1z"/>
		<path class="st0" d="M2878.4,579.7h-12.7c-7.9,0-14-2-18.2-5.9c-4.2-4-6.4-10.4-6.4-19.1v-36.2h-10.7v-16.3h10.7v-17.4h17.8v17.4
			h19.4v16.3H2859v36.3c0,5.1,1.1,6.6,1.4,7c0.4,0.4,1.9,1.4,6.5,1.4h11.5V579.7z M2849.8,509.9v44.8c0,6.2,1.2,10.5,3.7,12.8
			c0.6,0.6,1.4,1.1,2.3,1.6c-0.5-0.4-1-0.8-1.4-1.2c-2.7-2.7-4-7-4-13.1v-61.4h-0.5V509.9z"/>
	</g>
</g>
</svg>
