<?xml version="1.0" encoding="UTF-8"?>
<svg version="1.1" viewBox="0 0 2048 1024" width="1280" height="1280" xmlns="http://www.w3.org/2000/svg">
<path transform="translate(0)" d="m0 0h2048v1024h-2048z" fill="#F8F8F8"/>
<path transform="translate(223,333)" d="m0 0h167l72 1v203l-1 182h-239v-108z" fill="#F8F8F8"/>
<path transform="translate(172,283)" d="m0 0h89l251 1v317l-1 168h-169l-169-1-1-1zm51 50-1 278v108h239l1-182v-203l-72-1z" fill="#FED602"/>
<path transform="translate(1165,549)" d="m0 0h38l23 1 11 3 10 5 9 8 6 10 4 14v20l-5 16-7 12-10 10-7 4 2 6 19 39 11 24v2h2l2-8 19-54 13-38 15-42 10-29 3-3 24 1 12 36 8 26 19 60 11 35 5 16-1 3h-33l-3-8-10-37-1-2-52-1-3 12-10 31-2 5-62-1-12-28-11-26-4-10v-2l-13 1v41l-1 24-3 1h-27v-176z" fill="#020101"/>
<path transform="translate(1114,320)" d="m0 0h19l16 4 13 7 11 9 9 11 7 12 5 14 4 18v29l-4 20-6 16-9 15-13 13-13 8-12 4-12 2h-10l-15-2-17-8-10-8-7-7-9-14-6-14-4-15-2-14v-22l4-20 5-13 6-12 8-10 7-7 13-9 12-5z" fill="#020101"/>
<path transform="translate(908,546)" d="m0 0h23l14 4 13 7 12 11 7 8 8 14 6 18 2 11v31l-4 20-6 16-7 12-9 10-9 8-16 8-12 3h-23l-11-3-16-8-11-9-9-12-8-16-5-16-2-11-1-14v-12l3-18 5-15 7-14 9-11 8-8 11-7 12-5z" fill="#020101"/>
<path transform="translate(609,321)" d="m0 0h21l8 11 12 17 13 19 12 17 27 41 11 18 1-122h25v175l-1 1h-19l-4-1-16-24-9-12-13-19-26-39-14-22-4-6-1 122h-25v-175z" fill="#020101"/>
<path transform="translate(1216,323)" d="m0 0h22l7 9 24 34 13 19 22 33 14 22 3 5 1-24 1-97h24l1 5v48l-1 122-22 1-11-15-13-19-8-11-34-51-13-20-4-7-2 122h-24l-1-1v-45z" fill="#020101"/>
<path transform="translate(1539,551)" d="m0 0h31v39l-1 28 61-1 1-66h31v46l-1 130h-30l-1-1v-54l1-30-61 1-1 84h-28l-2-1z" fill="#020101"/>
<path transform="translate(1422,550)" d="m0 0h54l16 3 14 7 8 8 7 14 2 12v14l-3 14-6 12-7 9-8 7-14 7-13 3h-20v65l-1 1h-30v-175z" fill="#020101"/>
<path transform="translate(806,322)" d="m0 0h27l9 29 17 53 12 38 15 48 1 8h-33l-3-8-11-38v-2l-52 1-13 42-2 5h-27l1-5 19-56 16-45 18-52z" fill="#020101"/>
<path transform="translate(1415,324)" d="m0 0h26l4 10 12 40 11 33 11 36 14 44 3 10v3h-34l-3-9-11-38-52-1-2 9-12 37-4 2-24-1 8-24 15-43 13-37 15-43z" fill="#020101"/>
<path transform="translate(659,545)" d="m0 0h22l16 4 16 8 1 3-9 19-2 1-12-5-12-3h-16l-12 3-10 6-10 10-7 14-4 15-1 10v11l2 14 4 13 6 11 9 10 8 6 10 4 13 1 13-2 4-2 1-53h31v39l-1 34-10 4-19 5-14 2h-11l-16-2-16-6-11-6-14-12-10-14-6-13-4-12-3-18v-16l3-19 6-16 9-16 11-12 14-10 13-6z" fill="#020101"/>
<path transform="translate(1080,546)" d="m0 0h14l13 2 14 5 10 6-1 6-8 16-6-2-11-4-10-2h-13l-12 3-10 5-8 7-9 14-4 12-2 12v25l5 17 5 10 8 10 9 7 8 4 8 2h13l12-3 2-54h30v74l-19 6-13 3-8 1h-18l-17-3-16-7-11-7-13-13-8-13-6-14-4-15-1-8v-21l3-17 5-15 7-13 9-11 11-10 14-8 15-5z" fill="#020101"/>
<path transform="translate(747,548)" d="m0 0h80v25h-50v47h49v24h-49v55h25l34 1-1 25-89-1-1-1 1-174z" fill="#020101"/>
<path transform="translate(1816,548)" d="m0 0h11l17 3 12 5 9 6-9 22-6-2-12-5-9-2h-12l-11 3-10 5-11 11-5 8-6 18-1 6v25l3 14 6 14 8 10 7 6 12 6 9 2h14l12-3 9-4 3 1 7 21-8 5-13 5-9 2h-22l-16-4-12-5-13-9-8-7-8-11-8-16-5-16-2-11v-23l3-16 6-17 7-12 9-11 10-9 14-8 15-5z" fill="#020101"/>
<path transform="translate(910,572)" d="m0 0h18l9 4 8 6 6 8 5 11 4 16 1 10v12l-2 19-4 15-6 12-9 10-9 5-4 1h-17l-12-6-8-8-7-14-4-15-2-17v-15l3-19 5-13 7-11 7-6 8-4z" fill="#F8F8F8"/>
<path transform="translate(1116,346)" d="m0 0h15l11 4 10 9 6 10 4 11 3 15v29l-4 20-5 11-6 9-9 8-8 3-13 1-9-2-10-6-8-9-6-13-4-18-1-8v-22l3-17 5-13 5-8 9-9z" fill="#F8F8F8"/>
<path transform="translate(870,322)" d="m0 0h108l14 1v24h-46v151h-31v-117l1-34h-46l-1-24z" fill="#020101"/>
<path transform="translate(1505,324)" d="m0 0h30v130l-1 21 60 1v24h-90v-175z" fill="#020101"/>
<path transform="translate(1690,551)" d="m0 0h30l1 1v65l-1 110h-30l-1-1v-102z" fill="#020101"/>
<path transform="translate(1e3 323)" d="m0 0h30v156l-1 19h-30v-171z" fill="#020101"/>
<path transform="translate(1452,574)" d="m0 0 21 1 9 4 5 4 4 8 1 4v15l-3 10-4 6-8 7-7 3-9 1h-9z" fill="#F8F8F8"/>
<path transform="translate(1195,574)" d="m0 0h20l8 3 8 7 4 10v16l-4 11-6 8-6 4-12 3h-12z" fill="#F8F8F8"/>
<path transform="translate(1423,361)" d="m0 0h2l5 18 13 47-1 4h-15l-22-1 2-9 10-33 5-18z" fill="#F8F8F8"/>
<path transform="translate(815,359)" d="m0 0h2l9 34 9 32v3l-39-1 12-40z" fill="#F8F8F8"/>
<path transform="translate(1340,587)" d="m0 0 2 2 7 28 10 35 1 3-4 1h-34l-1-4 14-46z" fill="#F8F8F8"/>
</svg>
