<?xml version="1.0" encoding="UTF-8"?>
<svg version="1.1" xmlns="http://www.w3.org/2000/svg" width="608" height="608">
<path d="M0 0 C200.64 0 401.28 0 608 0 C608 200.64 608 401.28 608 608 C407.36 608 206.72 608 0 608 C0 407.36 0 206.72 0 0 Z " fill="#7E57C1" transform="translate(0,0)"/>
<path d="M0 0 C3.50188381 2.83963644 6.76665527 5.86088754 10 9 C11.3303125 10.175625 11.3303125 10.175625 12.6875 11.375 C24.45103483 24.72820169 29.10468621 41.2972904 28.1953125 58.80273438 C26.53158819 77.51963286 16.69767233 92.0004826 2.75 103.8125 C-11.5119814 114.25933736 -28.59753436 118.28238864 -46.05615234 115.6953125 C-62.50469696 112.52606724 -77.24670687 103.42314592 -86.9375 89.6875 C-90.99329464 83.46420642 -93.76161765 77.06573705 -96 70 C-96.36480469 68.9275 -96.72960937 67.855 -97.10546875 66.75 C-100.92486258 50.73856734 -97.71911323 34.54586005 -89.5625 20.49609375 C-80.8603444 6.59440018 -67.55892819 -3.98293189 -51.75 -8.75 C-33.97333521 -12.82288143 -15.18955469 -10.35444118 0 0 Z " fill="#FBFAFB" transform="translate(473,353)"/>
<path d="M0 0 C0.92232422 0.78503906 0.92232422 0.78503906 1.86328125 1.5859375 C2.52972656 2.10929687 3.19617188 2.63265625 3.8828125 3.171875 C12.57093142 10.24862196 17.77677483 19.27237367 21.86328125 29.5859375 C22.18425781 30.34003906 22.50523437 31.09414063 22.8359375 31.87109375 C27.96439475 45.77756154 25.55303234 63.89179333 19.55566406 77.03173828 C11.385001 93.78567836 -1.15799374 104.3337211 -18.484375 110.84375 C-35.05596736 116.18701428 -52.68578417 114.47934973 -68.13671875 106.5859375 C-83.38146469 97.69316903 -94.22069092 84.18514829 -99.4453125 67.33984375 C-103.61993665 50.71210348 -101.70093637 33.02461001 -92.8828125 18.203125 C-83.13597739 3.59377483 -70.0493861 -6.94624167 -52.94921875 -11.7890625 C-34.99563839 -15.00215714 -14.35154577 -11.70705804 0 0 Z " fill="#FCFBFB" transform="translate(206.13671875,355.4140625)"/>
<path d="M0 0 C3.5731886 2.79029896 6.8158426 5.77639286 10 9 C10.63550781 9.61359375 11.27101563 10.2271875 11.92578125 10.859375 C23.20485743 22.56360483 27.53276956 38.49325043 27.34741211 54.36181641 C26.81478082 71.05093016 19.73695961 86.712544 7.85546875 98.4453125 C-6.91515472 111.66007003 -23.57295711 115.97686889 -42.88769531 115.14355469 C-57.56274835 114.14622099 -72.23042283 106.08616435 -82.30078125 95.60546875 C-95.1935962 80.8058173 -100.16817285 64.34628765 -99.15966797 45.08007812 C-97.82265149 27.66206525 -88.17036827 14.17525761 -75.64453125 2.875 C-53.82716814 -15.04226811 -23.18774487 -15.49917683 0 0 Z " fill="#FCFBFB" transform="translate(339,142)"/>
<path d="M0 0 C1.3303125 0.86625 1.3303125 0.86625 2.6875 1.75 C11.16294176 9.99637576 16.05317453 19.5120092 16.47070312 31.27832031 C16.61749261 44.6019125 13.87225195 54.72866217 5 65 C-4.01694989 74.04869972 -14.41790937 78.4358644 -27.125 78.5625 C-39.43597272 78.33701023 -48.80750555 74.30110105 -58 66 C-67.98913837 54.93820247 -70.91998162 44.04010216 -70.3828125 29.47265625 C-70.02499337 24.0547345 -68.77469018 19.68175278 -66 15 C-65.55269531 14.22527344 -65.10539062 13.45054687 -64.64453125 12.65234375 C-57.96927995 1.93257022 -48.85878092 -5.33214949 -36.48828125 -8.6796875 C-22.29426201 -10.50686109 -11.7471429 -7.85248083 0 0 Z " fill="#FAF9FA" transform="translate(330,308)"/>
<path d="M0 0 C0.57234375 0.4125 1.1446875 0.825 1.734375 1.25 C2.34796875 1.6625 2.9615625 2.075 3.59375 2.5 C9.41771471 6.8804179 13.00654189 12.77446483 14.1796875 19.98828125 C14.53050092 28.25578415 12.11228386 35.48196931 7.109375 42.0625 C1.37461334 48.08257319 -5.01866206 50.54332866 -13.265625 50.875 C-21.02653962 50.54636192 -26.8835863 48.73280708 -32.36328125 43.08984375 C-39.54200181 34.26016487 -40.12697596 26.2487892 -39.265625 15.25 C-37.3586601 7.28419723 -30.8118279 2.4486458 -24.140625 -1.6875 C-16.70169689 -4.42365747 -6.79637964 -4.18238747 0 0 Z " fill="#7E5ABB" transform="translate(316.265625,318.75)"/>
<path d="M0 0 C4.75345497 4.75345497 6.43199728 8.35306163 6.5625 15 C6.49519231 19.87980769 6.49519231 19.87980769 4.1875 22.1875 C0.89035207 21.85778521 -0.4351839 21.5648161 -2.8125 19.1875 C-3.11534597 17.76019815 -3.35853519 16.31975071 -3.5625 14.875 C-4.26803708 11.34162476 -5.01967365 9.49903832 -7.8125 7.1875 C-12.26436418 4.21959055 -15.49463472 3.6341961 -20.8125 4.1875 C-25.39414533 6.06180945 -27.55408049 8.83197665 -29.8125 13.1875 C-30.40090648 16.18837302 -30.64081389 19.13929119 -30.8125 22.1875 C-29.60851562 22.16429687 -28.40453125 22.14109375 -27.1640625 22.1171875 C-25.58854785 22.09843137 -24.01302652 22.08023101 -22.4375 22.0625 C-21.6434375 22.04574219 -20.849375 22.02898437 -20.03125 22.01171875 C-17.95757985 21.99414527 -15.88366759 22.08414832 -13.8125 22.1875 C-13.1525 22.8475 -12.4925 23.5075 -11.8125 24.1875 C-12.14221479 27.48464793 -12.4351839 28.8101839 -14.8125 31.1875 C-17.55735593 31.33257695 -20.19730543 31.37402423 -22.9375 31.3125 C-23.69160156 31.30347656 -24.44570313 31.29445313 -25.22265625 31.28515625 C-27.08607254 31.2615687 -28.94932593 31.22569719 -30.8125 31.1875 C-30.8125 34.4875 -30.8125 37.7875 -30.8125 41.1875 C-29.60851562 41.16429687 -28.40453125 41.14109375 -27.1640625 41.1171875 C-25.58854785 41.09843137 -24.01302652 41.08023101 -22.4375 41.0625 C-21.6434375 41.04574219 -20.849375 41.02898437 -20.03125 41.01171875 C-17.95757985 40.99414527 -15.88366759 41.08414832 -13.8125 41.1875 C-13.1525 41.8475 -12.4925 42.5075 -11.8125 43.1875 C-12.14221479 46.48464793 -12.4351839 47.8101839 -14.8125 50.1875 C-17.55735593 50.33257695 -20.19730543 50.37402423 -22.9375 50.3125 C-23.69160156 50.30347656 -24.44570313 50.29445313 -25.22265625 50.28515625 C-27.08607254 50.2615687 -28.94932593 50.22569719 -30.8125 50.1875 C-29.99222468 57.72857628 -29.99222468 57.72857628 -26.4375 64.25 C-21.63709619 67.79315519 -18.87511016 68.55758137 -13 67.7265625 C-9.79218263 66.93606465 -8.02973946 65.60630669 -5.8125 63.1875 C-4.34782903 60.33524601 -3.62652478 57.53111689 -2.75 54.4375 C-1.8125 51.1875 -1.8125 51.1875 -0.8125 50.1875 C1.625 50 1.625 50 4.1875 50.1875 C6.53770498 52.53770498 6.50664802 53.10659622 6.5625 56.3125 C6.40175442 62.20335289 4.54445332 66.48860527 0.6796875 70.9140625 C-4.53959184 75.84203323 -10.3179522 77.81965286 -17.375 78.5625 C-23.76538668 77.86536691 -29.21089475 75.78910525 -33.8125 71.1875 C-37.82565578 65.67367408 -39.97630848 61.32647637 -39.875 54.4375 C-39.86597656 53.63828125 -39.85695313 52.8390625 -39.84765625 52.015625 C-39.83605469 51.41234375 -39.82445312 50.8090625 -39.8125 50.1875 C-40.84310547 50.23970703 -40.84310547 50.23970703 -41.89453125 50.29296875 C-42.79558594 50.32003906 -43.69664062 50.34710938 -44.625 50.375 C-45.96498047 50.42720703 -45.96498047 50.42720703 -47.33203125 50.48046875 C-49.8125 50.1875 -49.8125 50.1875 -51.65234375 48.83984375 C-52.8125 47.1875 -52.8125 47.1875 -52.5625 44.5625 C-51.8125 42.1875 -51.8125 42.1875 -50.8125 41.1875 C-48.95962498 41.11523498 -47.10416122 41.1036878 -45.25 41.125 C-44.23808594 41.13402344 -43.22617187 41.14304687 -42.18359375 41.15234375 C-41.00990234 41.16974609 -41.00990234 41.16974609 -39.8125 41.1875 C-39.8125 37.8875 -39.8125 34.5875 -39.8125 31.1875 C-43.62109375 31.28515625 -43.62109375 31.28515625 -47.4296875 31.3828125 C-49.8125 31.1875 -49.8125 31.1875 -51.8125 29.1875 C-52 26.125 -52 26.125 -51.8125 23.1875 C-50.8125 22.1875 -50.8125 22.1875 -48.30859375 22.08984375 C-47.29925781 22.10144531 -46.28992188 22.11304688 -45.25 22.125 C-44.23808594 22.13402344 -43.22617187 22.14304687 -42.18359375 22.15234375 C-41.00990234 22.16974609 -41.00990234 22.16974609 -39.8125 22.1875 C-39.88210938 21.50945312 -39.95171875 20.83140625 -40.0234375 20.1328125 C-40.47704038 12.33516299 -38.93424041 7.1541711 -33.8125 1.1875 C-22.78472941 -8.18324807 -11.85604555 -7.64056269 0 0 Z " fill="#7E58BB" transform="translate(460.8125,369.8125)"/>
<path d="M0 0 C3.81473865 0.50642995 4.6958962 2.10181811 7.01953125 5.109375 C7.79039062 6.10066406 8.56125 7.09195312 9.35546875 8.11328125 C12.45854857 12.32056388 15.29509005 16.69634929 18.078125 21.12109375 C18.61566406 21.85972656 19.15320313 22.59835937 19.70703125 23.359375 C20.36703125 23.359375 21.02703125 23.359375 21.70703125 23.359375 C23.04273436 21.84532168 23.04273436 21.84532168 24.3515625 19.8515625 C24.86396484 19.11164063 25.37636719 18.37171875 25.90429688 17.609375 C26.43732422 16.825625 26.97035156 16.041875 27.51953125 15.234375 C34.83817293 4.55947119 34.83817293 4.55947119 38.70703125 0.359375 C41.39453125 -0.140625 41.39453125 -0.140625 43.70703125 0.359375 C45.70703125 2.359375 45.70703125 2.359375 45.72265625 4.92578125 C44.27980098 9.80374195 41.50659202 13.2763928 38.45703125 17.296875 C37.30593777 18.84761779 36.1548954 20.39839852 35.00390625 21.94921875 C33.41542377 24.08092955 31.82418206 26.20779372 30.19848633 28.3112793 C27.69265935 31.6324766 26.08831909 34.09813839 25.89453125 38.296875 C25.82298828 39.45509766 25.82298828 39.45509766 25.75 40.63671875 C25.72873047 41.48943359 25.72873047 41.48943359 25.70703125 42.359375 C26.75503906 42.32457031 27.80304688 42.28976562 28.8828125 42.25390625 C30.26170272 42.22576563 31.64061027 42.19846576 33.01953125 42.171875 C33.70982422 42.14673828 34.40011719 42.12160156 35.11132812 42.09570312 C40.20710483 42.02185129 40.20710483 42.02185129 42.703125 43.70703125 C43.70703125 45.359375 43.70703125 45.359375 43.45703125 47.984375 C42.70703125 50.359375 42.70703125 50.359375 41.70703125 51.359375 C39.01048271 51.43257121 36.34011667 51.45180037 33.64453125 51.421875 C32.50661133 51.41510742 32.50661133 51.41510742 31.34570312 51.40820312 C29.46611254 51.3963818 27.58656226 51.37844578 25.70703125 51.359375 C25.70703125 54.659375 25.70703125 57.959375 25.70703125 61.359375 C26.85042969 61.34777344 27.99382812 61.33617187 29.171875 61.32421875 C30.66275879 61.31484212 32.15364434 61.30574179 33.64453125 61.296875 C34.39927734 61.28849609 35.15402344 61.28011719 35.93164062 61.27148438 C37.85697438 61.26285059 39.78238706 61.30713167 41.70703125 61.359375 C42.70703125 62.359375 42.70703125 62.359375 42.89453125 65.296875 C42.70703125 68.359375 42.70703125 68.359375 40.70703125 70.359375 C38.12638996 70.50435485 35.65759241 70.54615045 33.08203125 70.484375 C32.02242187 70.47083984 32.02242187 70.47083984 30.94140625 70.45703125 C29.19647027 70.43345103 27.4517083 70.39757961 25.70703125 70.359375 C25.75923828 71.49826172 25.75923828 71.49826172 25.8125 72.66015625 C25.83957031 73.65402344 25.86664063 74.64789063 25.89453125 75.671875 C25.94673828 77.15107422 25.94673828 77.15107422 26 78.66015625 C25.70703125 81.359375 25.70703125 81.359375 24.36328125 83.203125 C22.0971932 84.785111 20.40447275 84.57808647 17.70703125 84.359375 C15.80095027 81.14755351 15.48436878 78.82054897 15.58203125 75.109375 C15.60007813 74.21734375 15.618125 73.3253125 15.63671875 72.40625 C15.65992188 71.73078125 15.683125 71.0553125 15.70703125 70.359375 C14.65902344 70.38257813 13.61101562 70.40578125 12.53125 70.4296875 C11.15235088 70.44844803 9.77344405 70.46664793 8.39453125 70.484375 C7.70423828 70.50113281 7.01394531 70.51789063 6.30273438 70.53515625 C2.53567729 70.57155294 0.92271421 70.50316364 -2.29296875 68.359375 C-2.60546875 65.859375 -2.60546875 65.859375 -2.29296875 63.359375 C-0.29296875 61.359375 -0.29296875 61.359375 3.40234375 61.1640625 C4.87903233 61.177366 6.35565483 61.20122665 7.83203125 61.234375 C8.58613281 61.24339844 9.34023437 61.25242187 10.1171875 61.26171875 C11.98060379 61.2853063 13.84385718 61.32117781 15.70703125 61.359375 C15.70703125 58.059375 15.70703125 54.759375 15.70703125 51.359375 C14.57523438 51.39417969 13.4434375 51.42898438 12.27734375 51.46484375 C10.79558772 51.49297836 9.31381569 51.52027887 7.83203125 51.546875 C7.08566406 51.57201172 6.33929688 51.59714844 5.5703125 51.62304688 C3.40234375 51.65234375 3.40234375 51.65234375 -0.29296875 51.359375 C-2.29296875 48.359375 -2.29296875 48.359375 -2.29296875 44.359375 C1.38790478 41.90545931 4.15058713 42.13134741 8.39453125 42.234375 C9.09642578 42.24339844 9.79832031 42.25242187 10.52148438 42.26171875 C12.2501465 42.28523796 13.9786327 42.32110787 15.70703125 42.359375 C15.80901607 35.38069933 14.54650426 31.39362336 10.03125 26.12109375 C6.90798305 22.40991773 4.05267226 18.53550219 1.20703125 14.609375 C0.37788208 13.50903931 0.37788208 13.50903931 -0.46801758 12.38647461 C-4.31527098 7.06189537 -4.31527098 7.06189537 -4.19921875 3.40625 C-2.89177257 0.453225 -2.89177257 0.453225 0 0 Z " fill="#805BBD" transform="translate(147.29296875,363.640625)"/>
<path d="M0 0 C2.5 0.25 2.5 0.25 4.5 2.25 C4.76991906 4.93839385 4.58737357 7.54141936 4.5 10.25 C5.221875 10.518125 5.94375 10.78625 6.6875 11.0625 C12.43714033 13.49012592 15.30807418 15.77812716 18.5 21.25 C19.80765478 25.17296433 19.6971417 28.11002433 19.5 32.25 C17.5 34.25 17.5 34.25 15 34.5 C12.5 34.25 12.5 34.25 10.5 32.25 C10.231875 30.97125 9.96375 29.6925 9.6875 28.375 C8.96668405 25.37160019 8.47129597 24.21520723 6.4375 21.75 C2.37802906 19.67707867 -1.0391164 19.19326265 -5.5 20.25 C-9.14568185 23.30046849 -10.3388089 25.10151339 -11 29.8125 C-10.46980455 33.45759371 -9.79088372 35.38639535 -7.5 38.25 C-4.49835481 40.10662106 -2.24146019 40.4332842 1.25 40.5 C7.01405099 40.98458836 10.45332029 43.21266597 14.5 47.25 C18.45985478 52.02478142 19.9359927 56.57364755 19.8359375 62.70703125 C19.10043292 68.27462984 16.75834064 73.32414928 12.45703125 76.9921875 C7.40466102 80.25 7.40466102 80.25 4.5 80.25 C4.54125 81.343125 4.5825 82.43625 4.625 83.5625 C4.5 87.25 4.5 87.25 2.5 90.25 C-0.5 90.625 -0.5 90.625 -3.5 90.25 C-5.9294516 86.6058226 -5.66179575 84.53758728 -5.5 80.25 C-6.386875 80.023125 -7.27375 79.79625 -8.1875 79.5625 C-14.13044712 77.20774737 -17.14685074 72.93557817 -19.77734375 67.3125 C-20.87217649 64.18778818 -20.89126276 61.51052296 -20.5 58.25 C-19.84 57.59 -19.18 56.93 -18.5 56.25 C-15.375 56.625 -15.375 56.625 -12.5 57.25 C-12.32984375 57.85328125 -12.1596875 58.4565625 -11.984375 59.078125 C-10.13267003 65.58937823 -10.13267003 65.58937823 -5.5 70.25 C-2.77315401 71.13753874 -0.3624243 71.49723434 2.5 71.25 C6.77480669 69.03770444 6.77480669 69.03770444 9.5 65.25 C9.88993918 58.47449388 9.88993918 58.47449388 7.5 52.25 C4.67418941 51.38759161 4.67418941 51.38759161 1.375 51.25 C-6.31169574 50.33370514 -11.22301819 48.02736688 -16.375 42.25 C-20.09425615 36.99928544 -21.2275858 32.69092347 -20.5 26.25 C-19.30942071 20.07313321 -16.32988928 16.64082626 -11.6328125 12.59765625 C-9.24384259 11.08814229 -7.28117682 10.63277521 -4.5 10.25 C-4.54125 8.97125 -4.5825 7.6925 -4.625 6.375 C-4.6953125 4.1953125 -4.6953125 4.1953125 -4.5 2.25 C-2.5 0.25 -2.5 0.25 0 0 Z " fill="#7F5ABC" transform="translate(303.5,148.75)"/>
<path d="M0 0 C5.43894766 3.14566003 8.71060624 7.06150622 10.71875 13.0859375 C11.4115444 19.89841581 10.03905412 23.77678993 5.71875 29.0859375 C0.73538711 33.7133459 -3.18400718 34.39276516 -9.78125 34.296875 C-14.79665842 33.87369991 -17.87011286 31.76747764 -21.09375 28.0859375 C-25.12043334 22.56362892 -25.16247827 16.71613112 -24.28125 10.0859375 C-22.25659744 5.67233503 -19.42011965 2.91420633 -15.53125 0.0859375 C-10.26210882 -1.53533671 -5.21863652 -2.09102902 0 0 Z " fill="#FBF9FB" transform="translate(310.28125,325.9140625)"/>
<path d="M0 0 C0.33 0 0.66 0 1 0 C1 2.31 1 4.62 1 7 C2.96756452 6.96877057 2.96756452 6.96877057 5 6 C6.3045656 3.00384054 6.3045656 3.00384054 7 0 C7.33 0 7.66 0 8 0 C8 2.97 8 5.94 8 9 C5.69 9.66 3.38 10.32 1 11 C1.33 11.66 1.66 12.32 2 13 C2.66 12.67 3.32 12.34 4 12 C4 13.32 4 14.64 4 16 C10.6 16 17.2 16 24 16 C23.505 13.525 23.505 13.525 23 11 C16.07 10.505 16.07 10.505 9 10 C9 9.67 9 9.34 9 9 C11.64590014 8.97315321 14.29153096 8.95323643 16.9375 8.9375 C18.06961914 8.92493164 18.06961914 8.92493164 19.22460938 8.91210938 C21.14994313 8.90347559 23.07535581 8.94775667 25 9 C26 10 26 10 26.1875 12.9375 C26 16 26 16 24 18 C21.41935871 18.14497985 18.95056116 18.18677545 16.375 18.125 C15.31539062 18.11146484 15.31539062 18.11146484 14.234375 18.09765625 C12.48943902 18.07407603 10.74467705 18.03820461 9 18 C9.05220703 19.13888672 9.05220703 19.13888672 9.10546875 20.30078125 C9.13253906 21.29464844 9.15960938 22.28851563 9.1875 23.3125 C9.23970703 24.79169922 9.23970703 24.79169922 9.29296875 26.30078125 C9 29 9 29 7.65625 30.84375 C5.39016195 32.425736 3.6974415 32.21871147 1 32 C-0.90608098 28.78817851 -1.22266247 26.46117397 -1.125 22.75 C-1.10695312 21.85796875 -1.08890625 20.9659375 -1.0703125 20.046875 C-1.04710937 19.37140625 -1.02390625 18.6959375 -1 18 C-2.04800781 18.02320313 -3.09601563 18.04640625 -4.17578125 18.0703125 C-5.55468037 18.08907303 -6.9335872 18.10727293 -8.3125 18.125 C-9.34793945 18.15013672 -9.34793945 18.15013672 -10.40429688 18.17578125 C-14.17135396 18.21217794 -15.78431704 18.14378864 -19 16 C-19.3125 13.5 -19.3125 13.5 -19 11 C-17 9 -17 9 -13.0859375 8.8046875 C-11.51550649 8.81799624 -9.94513779 8.84186398 -8.375 8.875 C-7.57320312 8.88402344 -6.77140625 8.89304687 -5.9453125 8.90234375 C-3.96341477 8.92593777 -1.98167019 8.96180935 0 9 C0 6.03 0 3.06 0 0 Z " fill="#7C58B7" transform="translate(164,416)"/>
<path d="M0 0 C0.66 0 1.32 0 2 0 C2.86916887 1.40751221 3.71985149 2.8264521 4.5625 4.25 C5.03816406 5.03890625 5.51382812 5.8278125 6.00390625 6.640625 C7.18047116 9.42746895 7.11930613 10.23782523 6 13 C4.18994141 14.46386719 4.18994141 14.46386719 1.8515625 15.796875 C1.01109375 16.28027344 0.170625 16.76367188 -0.6953125 17.26171875 C-1.57960937 17.75285156 -2.46390625 18.24398438 -3.375 18.75 C-4.2515625 19.25660156 -5.128125 19.76320313 -6.03125 20.28515625 C-12.57978858 24 -12.57978858 24 -16 24 C-16.53394179 22.5882217 -17.05165104 21.17029756 -17.5625 19.75 C-17.85253906 18.96109375 -18.14257812 18.1721875 -18.44140625 17.359375 C-19.0737482 14.68850411 -18.97510302 13.54316991 -18 11 C-16.34179688 9.64379883 -16.34179688 9.64379883 -14.21875 8.45703125 C-13.45949219 8.02326172 -12.70023438 7.58949219 -11.91796875 7.14257812 C-11.12003906 6.70365234 -10.32210937 6.26472656 -9.5 5.8125 C-7.92655982 4.92410365 -6.35361627 4.03482693 -4.78125 3.14453125 C-4.08064453 2.75628174 -3.38003906 2.36803223 -2.65820312 1.96801758 C-1.02272775 1.10745263 -1.02272775 1.10745263 0 0 Z " fill="#F7F5F8" transform="translate(253,363)"/>
<path d="M0 0 C3.53823027 1.32211452 6.66194804 2.89378905 9.875 4.875 C13.88040622 7.32141577 17.91423808 9.6906563 22 12 C20.35 15.96 18.7 19.92 17 24 C9.43852682 20.31484383 2.03321672 16.64192304 -5 12 C-3.68938409 7.76570244 -2.05643741 3.92592596 0 0 Z " fill="#F9F7FA" transform="translate(351,363)"/>
<path d="M0 0 C3.96 0 7.92 0 12 0 C12 7.92 12 15.84 12 24 C8.04 24 4.08 24 0 24 C0 16.08 0 8.16 0 0 Z " fill="#FCFAFC" transform="translate(297,266)"/>
<path d="M0 0 C1.22847656 -0.02835937 2.45695312 -0.05671875 3.72265625 -0.0859375 C6.9375 0.375 6.9375 0.375 8.80859375 2.0859375 C10.01368408 4.52947706 10.56367275 6.68344383 10.9375 9.375 C9.76832031 9.36339844 8.59914063 9.35179687 7.39453125 9.33984375 C5.84635577 9.33046087 4.29817855 9.3213612 2.75 9.3125 C1.98107422 9.30412109 1.21214844 9.29574219 0.41992188 9.28710938 C-3.54776789 9.27008066 -7.18821234 9.38895885 -11.0625 10.375 C-11.0625 9.715 -11.0625 9.055 -11.0625 8.375 C-12.0525 8.045 -13.0425 7.715 -14.0625 7.375 C-13.5675 6.92125 -13.0725 6.4675 -12.5625 6 C-10.83640663 4.49864481 -10.83640663 4.49864481 -11.0625 2.375 C-7.42556626 0.09621946 -4.23522304 0.04453442 0 0 Z " fill="#7C58BD" transform="translate(303.0625,315.625)"/>
<path d="M0 0 C0.99 0 1.98 0 3 0 C3 2.64 3 5.28 3 8 C3.66 8.33 4.32 8.66 5 9 C5.33 9.99 5.66 10.98 6 12 C6.99 12 7.98 12 9 12 C9.99 13.98 10.98 15.96 12 18 C10.02 18.99 10.02 18.99 8 20 C7.46375 19.401875 6.9275 18.80375 6.375 18.1875 C3.76857355 15.78684406 1.2115927 14.45981486 -2 13 C-1.67 11.68 -1.34 10.36 -1 9 C-0.34 9 0.32 9 1 9 C1 7.35 1 5.7 1 4 C0.01 4.66 -0.98 5.32 -2 6 C-1.34 6.66 -0.68 7.32 0 8 C-1.9375 8.5625 -1.9375 8.5625 -4 9 C-5 8 -5 8 -5.0625 4.9375 C-5.041875 3.968125 -5.02125 2.99875 -5 2 C-4.01 1.67 -3.02 1.34 -2 1 C-1.34 1.33 -0.68 1.66 0 2 C0 1.34 0 0.68 0 0 Z " fill="#8256C6" transform="translate(305,151)"/>
<path d="M0 0 C0.66 0.33 1.32 0.66 2 1 C1 3 1 3 -0.4375 4.375 C-2.12138727 6.12624276 -3.01150827 7.79490307 -4 10 C-11.42857143 10.28571429 -11.42857143 10.28571429 -15 8 C-15 7.34 -15 6.68 -15 6 C-15.33 5.01 -15.66 4.02 -16 3 C-15 2 -15 2 -12.53125 1.8671875 C-11.03078125 1.87105469 -11.03078125 1.87105469 -9.5 1.875 C-8.4996875 1.87242187 -7.499375 1.86984375 -6.46875 1.8671875 C-4 2 -4 2 -3 3 C-2.01 2.01 -1.02 1.02 0 0 Z " fill="#855BC5" transform="translate(451,438)"/>
<path d="M0 0 C1.98 0.66 3.96 1.32 6 2 C5.64766839 7.4611399 5.64766839 7.4611399 5 10 C2.9375 11.5 2.9375 11.5 1 12 C1 13.98 1 15.96 1 18 C-0.65 17.67 -2.3 17.34 -4 17 C-4 14.09223142 -3.6191086 12.69643818 -2.5625 10.0625 C-1.24030397 6.74742879 0 3.60523018 0 0 Z " fill="#8456C6" transform="translate(460,422)"/>
<path d="M0 0 C0.33 0 0.66 0 1 0 C1.03738281 0.73605469 1.07476562 1.47210938 1.11328125 2.23046875 C1.45437575 9.66463311 1.45437575 9.66463311 5 16 C7.06700655 17.32793606 7.06700655 17.32793606 9 18 C9 18.99 9 19.98 9 21 C9.66 21 10.32 21 11 21 C11.33 20.34 11.66 19.68 12 19 C12 20.32 12 21.64 12 23 C15.3 23.33 18.6 23.66 22 24 C22 24.33 22 24.66 22 25 C17.07017894 25.35073826 13.19484365 25.58614972 8.6875 23.375 C3.89703074 19.14156205 -0.65562282 14.68534217 -1.1484375 7.98046875 C-1.24728261 2.49456522 -1.24728261 2.49456522 0 0 Z " fill="#7B5EAF" transform="translate(284,173)"/>
<path d="M0 0 C0.66 0.33 1.32 0.66 2 1 C1.67 2.65 1.34 4.3 1 6 C1.90363281 5.97679687 2.80726563 5.95359375 3.73828125 5.9296875 C4.91777344 5.91164063 6.09726563 5.89359375 7.3125 5.875 C9.07013672 5.84019531 9.07013672 5.84019531 10.86328125 5.8046875 C14 6 14 6 17 8 C17.29296875 10.6015625 17.29296875 10.6015625 17.1875 13.625 C17.16042969 14.62789063 17.13335937 15.63078125 17.10546875 16.6640625 C17.07066406 17.43492187 17.03585938 18.20578125 17 19 C16.67 19 16.34 19 16 19 C16 15.7 16 12.4 16 9 C14.95199219 9.02320313 13.90398437 9.04640625 12.82421875 9.0703125 C11.44531963 9.08907303 10.0664128 9.10727293 8.6875 9.125 C7.65206055 9.15013672 7.65206055 9.15013672 6.59570312 9.17578125 C2.82864604 9.21217794 1.21568296 9.14378864 -2 7 C-2.3125 4.5 -2.3125 4.5 -2 2 C-1.34 1.34 -0.68 0.68 0 0 Z " fill="#8264B3" transform="translate(147,425)"/>
<path d="M0 0 C3.375 0.5625 3.375 0.5625 7 2 C8.4375 5.625 8.4375 5.625 9 9 C9.66 9 10.32 9 11 9 C10.67 11.64 10.34 14.28 10 17 C8.5 15.625 8.5 15.625 7 14 C7 13.34 7 12.68 7 12 C6.01 11.67 5.02 11.34 4 11 C3.67 9.35 3.34 7.7 3 6 C2.34 6 1.68 6 1 6 C0.67 4.02 0.34 2.04 0 0 Z " fill="#8357C8" transform="translate(146,367)"/>
<path d="M0 0 C0.99 0 1.98 0 3 0 C3.33 1.98 3.66 3.96 4 6 C4.33 4.02 4.66 2.04 5 0 C5.33 0 5.66 0 6 0 C6.27599507 1.76696843 6.51996915 3.53896215 6.75 5.3125 C6.88921875 6.29863281 7.0284375 7.28476562 7.171875 8.30078125 C7 11 7 11 5.140625 12.66796875 C4.43421875 13.10753906 3.7278125 13.54710937 3 14 C2.01 15.485 2.01 15.485 1 17 C-1.37706418 13.33460332 -1.05094317 10.50943165 -0.625 6.25 C-0.51414062 5.07953125 -0.40328125 3.9090625 -0.2890625 2.703125 C-0.19367188 1.81109375 -0.09828125 0.9190625 0 0 Z " fill="#8662C9" transform="translate(280,339)"/>
<path d="M0 0 C0.66 0 1.32 0 2 0 C2 0.66 2 1.32 2 2 C3.32 2.33 4.64 2.66 6 3 C5.49477778 7.37859255 2.82172778 9.81651224 0 13 C-1.65 11.68 -3.3 10.36 -5 9 C-4.6875 7.125 -4.6875 7.125 -4 5 C-3.01 4.34 -2.02 3.68 -1 3 C-0.67 2.01 -0.34 1.02 0 0 Z " fill="#8057C4" transform="translate(291,164)"/>
<path d="M0 0 C2.00720923 0.28674418 4.0085944 0.61866701 6 1 C5.01 2.32 4.02 3.64 3 5 C3.63808594 5.19335938 4.27617187 5.38671875 4.93359375 5.5859375 C6.17302734 5.97652344 6.17302734 5.97652344 7.4375 6.375 C8.26121094 6.63023437 9.08492188 6.88546875 9.93359375 7.1484375 C12 8 12 8 13 10 C13.04022391 12.3329866 13.04320247 14.66706666 13 17 C12.34 17.33 11.68 17.66 11 18 C11 15.03 11 12.06 11 9 C10.31292969 9.03480469 9.62585938 9.06960938 8.91796875 9.10546875 C8.01691406 9.13253906 7.11585938 9.15960938 6.1875 9.1875 C5.29417969 9.22230469 4.40085937 9.25710938 3.48046875 9.29296875 C1 9 1 9 -0.83984375 7.65234375 C-2 6 -2 6 -1.75 3.375 C-1 1 -1 1 0 0 Z " fill="#8062B2" transform="translate(410,411)"/>
<path d="M0 0 C1.5 1.1015625 1.5 1.1015625 3 3 C3.20869601 6.29565789 2.99431586 9.47802509 2.8125 12.7734375 C3.0785413 17.35156495 4.81674901 19.81674901 8 23 C9.051875 24.2065625 9.051875 24.2065625 10.125 25.4375 C13.65162038 28.58079208 16.5328041 29.56141149 21 31 C21 31.33 21 31.66 21 32 C14.54915672 31.73121486 10.60974941 29.50344492 6 25 C1.43146288 19.02142055 -0.13197846 14.38565194 -0.0625 6.8125 C-0.05347656 5.54019531 -0.04445313 4.26789063 -0.03515625 2.95703125 C-0.02355469 1.98121094 -0.01195312 1.00539063 0 0 Z " fill="#7659AB" transform="translate(277,336)"/>
<path d="M0 0 C0.66666667 2.66666667 1.33333333 5.33333333 2 8 C1.195625 8.28875 0.39125 8.5775 -0.4375 8.875 C-3.1326468 9.73262568 -3.1326468 9.73262568 -4 12 C-4.66 12 -5.32 12 -6 12 C-6 12.66 -6 13.32 -6 14 C-6.99 14.33 -7.98 14.66 -9 15 C-9.99 16.485 -9.99 16.485 -11 18 C-11.99 17.67 -12.98 17.34 -14 17 C-13.175 16.05125 -12.35 15.1025 -11.5 14.125 C-7.54358862 9.51549679 -3.77324563 4.75965248 0 0 Z " fill="#7B5EB5" transform="translate(492,438)"/>
<path d="M0 0 C2.375 0.5625 2.375 0.5625 5 2 C6.1875 5.5625 6.1875 5.5625 7 9 C7.66 9.33 8.32 9.66 9 10 C8.34 10 7.68 10 7 10 C7 10.66 7 11.32 7 12 C4.6875 11.8125 4.6875 11.8125 2 11 C-0.13258157 8.35265737 -0.94177194 6.64050865 -1.25 3.25 C-1 1 -1 1 0 0 Z " fill="#8357C6" transform="translate(286,178)"/>
<path d="M0 0 C1.625 1.375 1.625 1.375 3 3 C3 3.66 3 4.32 3 5 C4.65 5.33 6.3 5.66 8 6 C7.67 6.66 7.34 7.32 7 8 C5.66923011 8.34342449 4.33568021 8.67619874 3 9 C2.34 9.66 1.68 10.32 1 11 C-1.96404505 8.19195732 -4.44499019 5.81684226 -6 2 C-2.25 0 -2.25 0 0 0 Z M-1 3 C-1 3.66 -1 4.32 -1 5 C-0.34 4.67 0.32 4.34 1 4 C0.34 3.67 -0.32 3.34 -1 3 Z " fill="#805AC4" transform="translate(162,383)"/>
<path d="M0 0 C0.66 0.33 1.32 0.66 2 1 C1.67 5.29 1.34 9.58 1 14 C-0.65 14.66 -2.3 15.32 -4 16 C-5.34410262 18.01735205 -5.34410262 18.01735205 -6 20 C-6.99 19.67 -7.98 19.34 -9 19 C-8.51789063 18.21496094 -8.03578125 17.42992187 -7.5390625 16.62109375 C-2.77066464 8.71618384 -2.77066464 8.71618384 0 0 Z " fill="#7E5EB7" transform="translate(345,352)"/>
<path d="M0 0 C1.09570312 0.00902344 2.19140625 0.01804687 3.3203125 0.02734375 C4.58488281 0.04474609 4.58488281 0.04474609 5.875 0.0625 C5.875 0.3925 5.875 0.7225 5.875 1.0625 C4.31652344 1.31773437 4.31652344 1.31773437 2.7265625 1.578125 C-5.3547303 2.96057905 -12.60029901 4.71343801 -20.125 8.0625 C-22.11802124 8.7497487 -24.11467123 9.42765933 -26.125 10.0625 C-26.455 9.4025 -26.785 8.7425 -27.125 8.0625 C-24.76546906 5.70296906 -23.34604383 5.57108587 -20.125 5.0625 C-20.125 4.7325 -20.125 4.4025 -20.125 4.0625 C-18.475 4.0625 -16.825 4.0625 -15.125 4.0625 C-14.795 3.0725 -14.465 2.0825 -14.125 1.0625 C-13.17625 1.083125 -12.2275 1.10375 -11.25 1.125 C-7.31843503 1.0463687 -4.09730036 -0.0435883 0 0 Z " fill="#795BAE" transform="translate(430.125,341.9375)"/>
<path d="M0 0 C3.63 0 7.26 0 11 0 C11 1.65 11 3.3 11 5 C7.04 5 3.08 5 -1 5 C-0.67 3.35 -0.34 1.7 0 0 Z " fill="#8256CA" transform="translate(149,426)"/>
<path d="M0 0 C4.62 0 9.24 0 14 0 C14 0.99 14 1.98 14 3 C13.01 3.495 13.01 3.495 12 4 C12.99 4.66 13.98 5.32 15 6 C12.87527424 6.05386629 10.75016348 6.09273071 8.625 6.125 C6.84996094 6.15980469 6.84996094 6.15980469 5.0390625 6.1953125 C2 6 2 6 0 4 C0 2.68 0 1.36 0 0 Z " fill="#7C4FBD" transform="translate(147,409)"/>
<path d="M0 0 C7.59 0 15.18 0 23 0 C23 0.33 23 0.66 23 1 C21.96101563 1.03738281 20.92203125 1.07476562 19.8515625 1.11328125 C10.28004231 1.53273195 1.50480226 2.15155189 -6.875 7.25 C-10 9 -10 9 -12.4375 8.75 C-12.953125 8.5025 -13.46875 8.255 -14 8 C-13.01 8 -12.02 8 -11 8 C-10.67 7.01 -10.34 6.02 -10 5 C-8.67696283 4.6278958 -7.34262065 4.29369827 -6 4 C-5.67 3.34 -5.34 2.68 -5 2 C-3.35 2 -1.7 2 0 2 C0 1.34 0 0.68 0 0 Z " fill="#795CAC" transform="translate(289,298)"/>
<path d="M0 0 C3.34998521 1.11666174 3.79340222 1.74694925 5.6875 4.5625 C6.34298828 5.52349609 6.34298828 5.52349609 7.01171875 6.50390625 C7.33785156 6.99761719 7.66398437 7.49132812 8 8 C7.67 8.66 7.34 9.32 7 10 C4.13275314 9.42655063 3.1385485 9.1385485 1 7 C-1.06874034 6.3574765 -1.06874034 6.3574765 -3 6 C-2.625 3.5625 -2.625 3.5625 -2 1 C-1.34 0.67 -0.68 0.34 0 0 Z " fill="#7956BC" transform="translate(285,350)"/>
<path d="M0 0 C0.33 1.32 0.66 2.64 1 4 C3.97 4.495 3.97 4.495 7 5 C7.33 3.68 7.66 2.36 8 1 C8.09765625 7.15234375 8.09765625 7.15234375 8 9 C7 10 7 10 4 10.125 C1 10 1 10 0 9 C-0.07179964 7.48071962 -0.08392007 5.95832518 -0.0625 4.4375 C-0.05347656 3.61121094 -0.04445313 2.78492188 -0.03515625 1.93359375 C-0.02355469 1.29550781 -0.01195312 0.65742188 0 0 Z " fill="#7B53B4" transform="translate(299,229)"/>
<path d="M0 0 C2.64590014 -0.02684679 5.29153096 -0.04676357 7.9375 -0.0625 C8.69224609 -0.07087891 9.44699219 -0.07925781 10.22460938 -0.08789062 C12.14994313 -0.09652441 14.07535581 -0.05224333 16 0 C17 1 17 1 17.1875 3.9375 C17 7 17 7 15 9 C12.41935871 9.14497985 9.95056116 9.18677545 7.375 9.125 C6.66859375 9.11597656 5.9621875 9.10695313 5.234375 9.09765625 C3.48943902 9.07407603 1.74467705 9.03820461 0 9 C0 8.67 0 8.34 0 8 C4.95 7.67 9.9 7.34 15 7 C14.67 5.35 14.34 3.7 14 2 C7.07 1.505 7.07 1.505 0 1 C0 0.67 0 0.34 0 0 Z " fill="#7357A1" transform="translate(173,425)"/>
<path d="M0 0 C0.99 0 1.98 0 3 0 C3 2.64 3 5.28 3 8 C3.66 8.33 4.32 8.66 5 9 C4.01 9.33 3.02 9.66 2 10 C1 7 1 7 1 4 C0.01 4.66 -0.98 5.32 -2 6 C-1.34 6.66 -0.68 7.32 0 8 C-1.9375 8.5625 -1.9375 8.5625 -4 9 C-5 8 -5 8 -5.0625 4.9375 C-5.041875 3.968125 -5.02125 2.99875 -5 2 C-4.01 1.67 -3.02 1.34 -2 1 C-1.34 1.33 -0.68 1.66 0 2 C0 1.34 0 0.68 0 0 Z " fill="#8257C4" transform="translate(305,151)"/>
<path d="M0 0 C3.55874058 3.14811667 5.90826703 6.79055738 8.47265625 10.73828125 C10.46114781 13.68287617 12.66662498 16.32348159 15 19 C12.43548915 17.90092392 10.90445054 16.9015551 8.9375 14.875 C7.09006673 12.65228929 7.09006673 12.65228929 4 13 C3.71125 11.783125 3.4225 10.56625 3.125 9.3125 C2.32164208 6.08185352 1.33734591 3.05679065 0 0 Z " fill="#8060B0" transform="translate(110,433)"/>
<path d="M0 0 C0.33 0 0.66 0 1 0 C1 2.64 1 5.28 1 8 C6.28 8 11.56 8 17 8 C17.33 8.66 17.66 9.32 18 10 C14.30691024 11.23102992 11.11949288 10.87175152 7.3125 10.5625 C6.2596582 10.48418945 6.2596582 10.48418945 5.18554688 10.40429688 C3.45661946 10.27492135 1.72824645 10.13817469 0 10 C0 6.7 0 3.4 0 0 Z " fill="#795BA9" transform="translate(171,398)"/>
<path d="M0 0 C3.78650703 5.67976054 3.10526424 12.19167371 2.6875 18.75 C2.63432617 19.88115234 2.63432617 19.88115234 2.58007812 21.03515625 C2.35619194 24.79778075 2.13044112 26.80433831 0 30 C0 20.1 0 10.2 0 0 Z " fill="#7657AA" transform="translate(365,179)"/>
<path d="M0 0 C0.66 0.33 1.32 0.66 2 1 C-3.04361415 8.60875124 -3.04361415 8.60875124 -6.75 10.125 C-9 10 -9 10 -11 8 C-7.37 5.36 -3.74 2.72 0 0 Z " fill="#7A5CB4" transform="translate(208,454)"/>
<path d="M0 0 C0.66 0.33 1.32 0.66 2 1 C2.3690205 10.41002278 2.3690205 10.41002278 0 15 C-2 13 -2 13 -2.265625 10.72265625 C-2.26046875 9.84480469 -2.2553125 8.96695313 -2.25 8.0625 C-2.25515625 7.18722656 -2.2603125 6.31195313 -2.265625 5.41015625 C-2 3 -2 3 0 0 Z " fill="#7D5CB1" transform="translate(321,204)"/>
<path d="M0 0 C-1.59910868 1.00806851 -3.20448262 2.00620385 -4.8125 3 C-6.15248047 3.8353125 -6.15248047 3.8353125 -7.51953125 4.6875 C-10 6 -10 6 -13 6 C-13.33 4.02 -13.66 2.04 -14 0 C-13.34 0 -12.68 0 -12 0 C-12 0.99 -12 1.98 -12 3 C-11.20335937 2.54947266 -11.20335937 2.54947266 -10.390625 2.08984375 C-9.68421875 1.70957031 -8.9778125 1.32929688 -8.25 0.9375 C-7.20585937 0.36322266 -7.20585937 0.36322266 -6.140625 -0.22265625 C-3.63859372 -1.1312406 -2.4667645 -0.88336837 0 0 Z " fill="#EFE5FA" transform="translate(250,381)"/>
<path d="M0 0 C3.18094931 1.09687907 3.95577313 1.92005143 5.625 4.9375 C6.07875 5.948125 6.5325 6.95875 7 8 C7.99 9.485 7.99 9.485 9 11 C8.67 11.99 8.34 12.98 8 14 C5.03 10.04 2.06 6.08 -1 2 C-0.67 1.34 -0.34 0.68 0 0 Z " fill="#F4E9FB" transform="translate(152,364)"/>
<path d="M0 0 C5.01009707 1.43145631 7.10619424 3.82951522 10 8 C9.67 8.99 9.34 9.98 9 11 C8.236875 10.175 7.47375 9.35 6.6875 8.5 C4.24565858 5.65944803 4.24565858 5.65944803 1 6 C0.67 4.02 0.34 2.04 0 0 Z " fill="#7959B1" transform="translate(311,192)"/>
<path d="M0 0 C2.07217485 3.10826228 3.28425355 6.01876359 4.625 9.5 C5.07101562 10.6446875 5.51703125 11.789375 5.9765625 12.96875 C7 16 7 16 7 19 C1.39437927 13.01724271 0.02991405 8.13662227 0 0 Z " fill="#7A5CAB" transform="translate(259,349)"/>
<path d="M0 0 C0.99 0.33 1.98 0.66 3 1 C1.75120909 4.74637273 -0.15795107 6.29013939 -3 9 C-4.1446875 10.1446875 -4.1446875 10.1446875 -5.3125 11.3125 C-5.869375 11.869375 -6.42625 12.42625 -7 13 C-7 9.47967572 -6.29648649 8.5614657 -4 6 C-3.34 6 -2.68 6 -2 6 C-2 5.01 -2 4.02 -2 3 C-1.34 3 -0.68 3 0 3 C0 2.01 0 1.02 0 0 Z " fill="#7B5EAD" transform="translate(391,359)"/>
<path d="M0 0 C4.69230769 1.48178138 4.69230769 1.48178138 6.1875 4 C6.455625 4.66 6.72375 5.32 7 6 C7.66 6.66 8.32 7.32 9 8 C10.6875 10.9375 10.6875 10.9375 12 14 C11.67 14.99 11.34 15.98 11 17 C10.62488281 16.35933594 10.24976563 15.71867187 9.86328125 15.05859375 C6.78481677 9.85544598 3.59345782 4.86173705 0 0 Z " fill="#7A5CAC" transform="translate(332,309)"/>
<path d="M0 0 C1.21816406 0.03480469 1.21816406 0.03480469 2.4609375 0.0703125 C3.68683594 0.09738281 3.68683594 0.09738281 4.9375 0.125 C5.87722656 0.15980469 5.87722656 0.15980469 6.8359375 0.1953125 C7.4959375 1.5153125 8.1559375 2.8353125 8.8359375 4.1953125 C9.4959375 4.1953125 10.1559375 4.1953125 10.8359375 4.1953125 C10.5059375 5.1853125 10.1759375 6.1753125 9.8359375 7.1953125 C9.1965625 6.5559375 8.5571875 5.9165625 7.8984375 5.2578125 C3.91662868 2.57618615 0.5411455 2.40033246 -4.1640625 2.1953125 C-2.1640625 0.1953125 -2.1640625 0.1953125 0 0 Z " fill="#8063AF" transform="translate(302.1640625,165.8046875)"/>
<path d="M0 0 C0.99 0.33 1.98 0.66 3 1 C3.33 2.98 3.66 4.96 4 7 C2.35 7.33 0.7 7.66 -1 8 C-1.125 2.25 -1.125 2.25 0 0 Z " fill="#7F55C5" transform="translate(166,415)"/>
<path d="M0 0 C0 1.65 0 3.3 0 5 C-0.99 4.67 -1.98 4.34 -3 4 C-3.66 4.66 -4.32 5.32 -5 6 C-6 5 -6 5 -6.0625 2.4375 C-6.041875 1.633125 -6.02125 0.82875 -6 0 C-3.50907189 -1.24546405 -2.58919267 -0.7767578 0 0 Z " fill="#8159C6" transform="translate(191,366)"/>
<path d="M0 0 C4.25742137 0.47304682 6.25705098 2.8863822 9 6 C9.33 6.99 9.66 7.98 10 9 C10.99 9 11.98 9 13 9 C12.67 10.32 12.34 11.64 12 13 C11.505 12.319375 11.01 11.63875 10.5 10.9375 C7.77769232 7.73878847 4.81912156 5.14743781 1.609375 2.453125 C1.07828125 1.97359375 0.5471875 1.4940625 0 1 C0 0.67 0 0.34 0 0 Z " fill="#7E62AE" transform="translate(477,356)"/>
<path d="M0 0 C0.33 0.66 0.66 1.32 1 2 C-0.21484375 4.8203125 -0.21484375 4.8203125 -1.9375 8.125 C-2.50339844 9.22070312 -3.06929688 10.31640625 -3.65234375 11.4453125 C-4.09707031 12.28835938 -4.54179687 13.13140625 -5 14 C-5.99 13.67 -6.98 13.34 -8 13 C-5.36 8.71 -2.72 4.42 0 0 Z " fill="#765BAA" transform="translate(344,358)"/>
<path d="M0 0 C0.66 0 1.32 0 2 0 C1.34 4.62 0.68 9.24 0 14 C-2 12 -2 12 -2.25 8.125 C-2.18064077 4.94603525 -1.80254921 2.70382382 0 0 Z " fill="#7757AF" transform="translate(285,333)"/>
<path d="M0 0 C3.7602985 0.58107632 6.53035032 1.65199496 9.8125 3.5625 C10.60269531 4.01753906 11.39289063 4.47257812 12.20703125 4.94140625 C12.79871094 5.29074219 13.39039063 5.64007813 14 6 C10.86650268 7.04449911 10.01031744 6.93423645 7 6 C7 5.34 7 4.68 7 4 C4.69 3.67 2.38 3.34 0 3 C0 2.01 0 1.02 0 0 Z " fill="#795AAE" transform="translate(400,458)"/>
<path d="M0 0 C1.98 0.66 3.96 1.32 6 2 C6 5.3 6 8.6 6 12 C5.67 12 5.34 12 5 12 C4.67 9.69 4.34 7.38 4 5 C3.34 5 2.68 5 2 5 C2 4.34 2 3.68 2 3 C1.01 2.67 0.02 2.34 -1 2 C-0.67 1.34 -0.34 0.68 0 0 Z " fill="#8C6BC5" transform="translate(167,413)"/>
<path d="M0 0 C1.65 0 3.3 0 5 0 C5.6875 1.8125 5.6875 1.8125 6 4 C4.5625 5.75 4.5625 5.75 3 7 C2.01 6.34 1.02 5.68 0 5 C0.33 4.34 0.66 3.68 1 3 C1.33 3.33 1.66 3.66 2 4 C2.33 3.34 2.66 2.68 3 2 C2.01 2 1.02 2 0 2 C0 1.34 0 0.68 0 0 Z " fill="#8160BE" transform="translate(185,408)"/>
<path d="M0 0 C0.33 0.99 0.66 1.98 1 3 C-2.33333333 6.33333333 -5.66666667 9.66666667 -9 13 C-7.47987323 7.59510481 -3.72614782 4.01507372 0 0 Z " fill="#EEE3F7" transform="translate(124,360)"/>
<path d="M0 0 C2.97 0.495 2.97 0.495 6 1 C8.125 7.625 8.125 7.625 7 11 C6.01 8.36 5.02 5.72 4 3 C2.35 3 0.7 3 -1 3 C-0.67 2.01 -0.34 1.02 0 0 Z " fill="#785FA6" transform="translate(285,205)"/>
<path d="M0 0 C2.64 0 5.28 0 8 0 C8.66 1.32 9.32 2.64 10 4 C6.37 3.34 2.74 2.68 -1 2 C-0.67 1.34 -0.34 0.68 0 0 Z " fill="#8368B2" transform="translate(177,342)"/>
<path d="M0 0 C1.18851562 0.19464844 2.37703125 0.38929688 3.6015625 0.58984375 C4.97441406 0.82380859 4.97441406 0.82380859 6.375 1.0625 C2.47326667 3.66365556 0.21355806 3.31904298 -4.3125 2.6875 C-6.625 2.0625 -6.625 2.0625 -8.625 0.0625 C-5.61666904 -1.44166548 -3.27538422 -0.54589737 0 0 Z " fill="#795AAE" transform="translate(287.625,254.9375)"/>
<path d="M0 0 C0.66 0.33 1.32 0.66 2 1 C0.02 3.97 -1.96 6.94 -4 10 C-4.66 8.68 -5.32 7.36 -6 6 C-5.01 6 -4.02 6 -3 6 C-3.33 5.01 -3.66 4.02 -4 3 C-2.68 2.01 -1.36 1.02 0 0 Z " fill="#7D5FAB" transform="translate(117,366)"/>
<path d="M0 0 C0.66 0.99 1.32 1.98 2 3 C1.125 6.1875 1.125 6.1875 0 9 C-0.33 8.34 -0.66 7.68 -1 7 C-1.99 7.33 -2.98 7.66 -4 8 C-2.66666667 5.33333333 -1.33333333 2.66666667 0 0 Z " fill="#835AC7" transform="translate(320,350)"/>
<path d="M0 0 C0.66 0.33 1.32 0.66 2 1 C0.02410634 6.20917419 -4.28600732 7.65303343 -9 10 C-8.06409496 8.8944811 -7.12620142 7.79064547 -6.1875 6.6875 C-5.66542969 6.07261719 -5.14335937 5.45773437 -4.60546875 4.82421875 C-3.12827531 3.14575321 -1.59960869 1.56117966 0 0 Z " fill="#F5EAFB" transform="translate(277,307)"/>
<path d="M0 0 C2.875 -0.1875 2.875 -0.1875 6 0 C6.66 0.99 7.32 1.98 8 3 C6.02 3.66 4.04 4.32 2 5 C1.34 3.35 0.68 1.7 0 0 Z " fill="#845CC3" transform="translate(283,207)"/>
<path d="M0 0 C0.66 0.33 1.32 0.66 2 1 C-4.15034169 8.48291572 -4.15034169 8.48291572 -8 11 C-8.66 10.67 -9.32 10.34 -10 10 C-6.7 6.7 -3.4 3.4 0 0 Z " fill="#F3E9FD" transform="translate(264,144)"/>
<path d="M0 0 C0.66 0.33 1.32 0.66 2 1 C2 1.66 2 2.32 2 3 C1.34 3 0.68 3 0 3 C-0.268125 3.94875 -0.53625 4.8975 -0.8125 5.875 C-2 9 -2 9 -5 11 C-3.77472971 6.94718288 -2.30119506 3.55639236 0 0 Z " fill="#F2E6FA" transform="translate(384,373)"/>
<path d="M0 0 C0.33 0 0.66 0 1 0 C1.36923077 5.41538462 1.36923077 5.41538462 -0.5 8.375 C-0.995 8.91125 -1.49 9.4475 -2 10 C-3.05236973 6.65155086 -3.20005388 5.40920111 -1.625 2.1875 C-1.08875 1.465625 -0.5525 0.74375 0 0 Z " fill="#7B5EB6" transform="translate(425,374)"/>
<path d="M0 0 C1.32 0 2.64 0 4 0 C3.67 2.97 3.34 5.94 3 9 C2.34 9 1.68 9 1 9 C0.67 6.03 0.34 3.06 0 0 Z " fill="#8557CB" transform="translate(458,376)"/>
<path d="M0 0 C0.66 0.33 1.32 0.66 2 1 C0.76736651 4.69790046 -0.20052451 4.9354846 -3.5625 6.6875 C-4.80193359 7.34298828 -4.80193359 7.34298828 -6.06640625 8.01171875 C-6.70449219 8.33785156 -7.34257812 8.66398437 -8 9 C-8.33 8.34 -8.66 7.68 -9 7 C-4.25 4 -4.25 4 -2 4 C-2 3.34 -2 2.68 -2 2 C-1.34 2 -0.68 2 0 2 C0 1.34 0 0.68 0 0 Z " fill="#795EAA" transform="translate(244,365)"/>
<path d="M0 0 C1.4540625 0.0309375 1.4540625 0.0309375 2.9375 0.0625 C0.40961993 2.86122437 -1.26661134 4.52023019 -5.0625 5.0625 C-3.9375 0.08035714 -3.9375 0.08035714 0 0 Z " fill="#7B5CB0" transform="translate(133.0625,350.9375)"/>
<path d="M0 0 C0.33 1.32 0.66 2.64 1 4 C-2.96 4 -6.92 4 -11 4 C-11 3.67 -11 3.34 -11 3 C-10.28972656 2.86722656 -9.57945312 2.73445313 -8.84765625 2.59765625 C-7.92855469 2.42105469 -7.00945312 2.24445313 -6.0625 2.0625 C-4.68771484 1.80146484 -4.68771484 1.80146484 -3.28515625 1.53515625 C-1.04710156 1.22285012 -1.04710156 1.22285012 0 0 Z " fill="#F2E3FE" transform="translate(308,286)"/>
<path d="M0 0 C0.99 0.33 1.98 0.66 3 1 C2.45773019 4.79588866 0.79872437 6.47211993 -2 9 C-1.125 1.125 -1.125 1.125 0 0 Z " fill="#8563BD" transform="translate(294,166)"/>
<path d="M0 0 C1.65 0 3.3 0 5 0 C5.33 1.32 5.66 2.64 6 4 C3.69 4 1.38 4 -1 4 C-0.67 2.68 -0.34 1.36 0 0 Z " fill="#795BAD" transform="translate(301,149)"/>
<path d="M0 0 C5.75 1.625 5.75 1.625 8 5 C7.67 5.99 7.34 6.98 7 8 C5.83035398 6.8572081 4.66435444 5.71068285 3.5 4.5625 C2.8503125 3.92441406 2.200625 3.28632813 1.53125 2.62890625 C0 1 0 1 0 0 Z " fill="#7D60AB" transform="translate(341,143)"/>
<path d="M0 0 C0.99 0 1.98 0 3 0 C3.33 0.99 3.66 1.98 4 3 C2.68 4.32 1.36 5.64 0 7 C-0.38133299 5.0085944 -0.71325582 3.00720923 -1 1 C-0.67 0.67 -0.34 0.34 0 0 Z " fill="#8561B6" transform="translate(461,433)"/>
<path d="M0 0 C1.32 0.66 2.64 1.32 4 2 C3.67 3.32 3.34 4.64 3 6 C0.53199953 4.84826645 -1.04783565 3.95216435 -3 2 C-2.01 1.34 -1.02 0.68 0 0 Z " fill="#7855B7" transform="translate(242,385)"/>
<path d="M0 0 C2.96404505 2.80804268 5.44499019 5.18315774 7 9 C5.1875 8.875 5.1875 8.875 3 8 C0 2.96428571 0 2.96428571 0 0 Z M1 7 C1.66 7.66 2.32 8.32 3 9 C2.34 9 1.68 9 1 9 C1 8.34 1 7.68 1 7 Z " fill="#7758AD" transform="translate(160,379)"/>
<path d="M0 0 C0.66 0.33 1.32 0.66 2 1 C1.70351562 1.56203125 1.40703125 2.1240625 1.1015625 2.703125 C-0.00943503 5.01967305 -0.83464706 7.30709092 -1.625 9.75 C-1.88539063 10.54921875 -2.14578125 11.3484375 -2.4140625 12.171875 C-2.60742188 12.77515625 -2.80078125 13.3784375 -3 14 C-4.37095624 10.30962722 -3.60010967 8.29116165 -2.0625 4.75 C-1.68222656 3.85796875 -1.30195313 2.9659375 -0.91015625 2.046875 C-0.60980469 1.37140625 -0.30945313 0.6959375 0 0 Z " fill="#DFD0F1" transform="translate(245,169)"/>
<path d="M0 0 C0.99 0.33 1.98 0.66 3 1 C3.33 2.65 3.66 4.3 4 6 C4.99 6.33 5.98 6.66 7 7 C6.01 8.485 6.01 8.485 5 10 C4.15801693 8.90241493 3.32669329 7.79664683 2.5 6.6875 C2.0359375 6.07261719 1.571875 5.45773438 1.09375 4.82421875 C0 3 0 3 0 0 Z " fill="#7E5EB2" transform="translate(351,151)"/>
<path d="M0 0 C-0.66 1.32 -1.32 2.64 -2 4 C-3.9375 3.6875 -3.9375 3.6875 -6 3 C-6.33 2.01 -6.66 1.02 -7 0 C-2.25 -1.125 -2.25 -1.125 0 0 Z " fill="#F7F1F3" transform="translate(438,430)"/>
<path d="M0 0 C5.78461538 3.44615385 5.78461538 3.44615385 6.875 6.25 C6.936875 7.11625 6.936875 7.11625 7 8 C6.360625 7.67 5.72125 7.34 5.0625 7 C3.23205433 5.92728775 3.23205433 5.92728775 2 6 C0 2.25 0 2.25 0 0 Z " fill="#795BAB" transform="translate(457,368)"/>
<path d="M0 0 C4.875 1.75 4.875 1.75 6 4 C5.01 5.32 4.02 6.64 3 8 C0 2.25 0 2.25 0 0 Z " fill="#EADCF8" transform="translate(367,372)"/>
<path d="M0 0 C1.31571603 0.2547514 2.62760376 0.52934141 3.9375 0.8125 C4.66839844 0.96332031 5.39929688 1.11414063 6.15234375 1.26953125 C6.76207031 1.51058594 7.37179687 1.75164062 8 2 C8.33 2.99 8.66 3.98 9 5 C4.68607774 4.5206753 2.83430453 3.2542015 0 0 Z " fill="#775BAA" transform="translate(357,365)"/>
<path d="M0 0 C2.5 2.3125 2.5 2.3125 5 5 C5 5.99 5 6.98 5 8 C4.01 7.67 3.02 7.34 2 7 C0.8125 3.4375 0.8125 3.4375 0 0 Z " fill="#8366B5" transform="translate(153,369)"/>
<path d="M0 0 C0.33 0.66 0.66 1.32 1 2 C1.66 2.33 2.32 2.66 3 3 C0.04335481 4.4783226 -2.74229737 4.06032783 -6 4 C-4.03617993 2.49440461 -2.21736634 1.10868317 0 0 Z " fill="#8667BE" transform="translate(469,460)"/>
<path d="M0 0 C0.99 0.495 0.99 0.495 2 1 C2 1.99 2 2.98 2 4 C4.97 4.495 4.97 4.495 8 5 C8 5.33 8 5.66 8 6 C5.66705225 6.04241723 3.33297433 6.04092937 1 6 C0 5 0 5 -0.0625 2.4375 C-0.041875 1.633125 -0.02125 0.82875 0 0 Z " fill="#7453AC" transform="translate(409,394)"/>
<path d="M0 0 C0.66 0 1.32 0 2 0 C1.34 1.98 0.68 3.96 0 6 C-2.475 5.01 -2.475 5.01 -5 4 C-4.34 3.34 -3.68 2.68 -3 2 C-2.34 2 -1.68 2 -1 2 C-0.67 1.34 -0.34 0.68 0 0 Z " fill="#F4E9FC" transform="translate(368,381)"/>
<path d="M0 0 C1.98 0.66 3.96 1.32 6 2 C5.01 2.99 4.02 3.98 3 5 C1.68 4.34 0.36 3.68 -1 3 C-0.67 2.01 -0.34 1.02 0 0 Z " fill="#F2F1F3" transform="translate(270,244)"/>
<path d="M0 0 C0.66 0 1.32 0 2 0 C1.34 3.63 0.68 7.26 0 11 C-0.33 11 -0.66 11 -1 11 C-1.0270043 9.54176788 -1.04639787 8.08339325 -1.0625 6.625 C-1.07410156 5.81289062 -1.08570313 5.00078125 -1.09765625 4.1640625 C-1 2 -1 2 0 0 Z " fill="#7253A8" transform="translate(241,173)"/>
<path d="M0 0 C0.99 0 1.98 0 3 0 C3 2.64 3 5.28 3 8 C3.66 8.33 4.32 8.66 5 9 C4.01 9.33 3.02 9.66 2 10 C0.95550089 6.86650268 1.06576355 6.01031744 2 3 C1.34 3 0.68 3 0 3 C0 2.01 0 1.02 0 0 Z " fill="#8F74C0" transform="translate(305,151)"/>
<path d="M0 0 C0.66 0.33 1.32 0.66 2 1 C1.34 2.98 0.68 4.96 0 7 C-0.66 7 -1.32 7 -2 7 C-2.125 4.625 -2.125 4.625 -2 2 C-1.34 1.34 -0.68 0.68 0 0 Z " fill="#846AAF" transform="translate(147,425)"/>
<path d="M0 0 C0.99 0.33 1.98 0.66 3 1 C3 1.66 3 2.32 3 3 C2.360625 3.12375 1.72125 3.2475 1.0625 3.375 C0.381875 3.58125 -0.29875 3.7875 -1 4 C-1.33 4.66 -1.66 5.32 -2 6 C-2.66 6 -3.32 6 -4 6 C-2.84826645 3.53199953 -1.95216435 1.95216435 0 0 Z " fill="#7555AE" transform="translate(335,372)"/>
<path d="M0 0 C3.71599191 -0.20086443 4.77208445 -0.1519437 8 2 C7.67 2.99 7.34 3.98 7 5 C3.535 3.02 3.535 3.02 0 1 C0 0.67 0 0.34 0 0 Z " fill="#8368B4" transform="translate(448,373)"/>
<path d="M0 0 C-5 2.5 -5 2.5 -10 5 C-9.67 3.68 -9.34 2.36 -9 1 C-5.92677456 0.08941469 -3.19902639 -0.08886184 0 0 Z " fill="#E6D8F4" transform="translate(440,364)"/>
<path d="M0 0 C2.475 0.495 2.475 0.495 5 1 C5 3.64 5 6.28 5 9 C3.05731159 6.08596738 1.53604696 3.14191424 0 0 Z " fill="#7A60AD" transform="translate(310,200)"/>
<path d="M0 0 C0.66 0.33 1.32 0.66 2 1 C-0.31 2.65 -2.62 4.3 -5 6 C-5.66 5.01 -6.32 4.02 -7 3 C-4.69631264 1.93347808 -2.35981813 0.93578995 0 0 Z " fill="#7A5CAC" transform="translate(269,139)"/>
</svg>
