<?xml version="1.0" encoding="UTF-8"?>
<svg version="1.1" viewBox="0 0 1000 990" width="1280" height="1280" xmlns="http://www.w3.org/2000/svg">
<path transform="translate(0)" d="m0 0h1e3v990h-1e3z" fill="#FEFEFE"/>
<path transform="translate(607,566)" d="m0 0h88l26 78 14 43 4 10 14-42 14-41 16-48h85l-3 9-23 54-23 53-16 38 50 1v48l-71 1-3 7-1 30h74l1 1v47l-1 1h-74v68h-80l-1-1v-67h-74v-49h74l-1-30-3-7-70-1v-48h50l-12-27-54-126z" fill="#545454"/>
<path transform="translate(787,85)" d="m0 0h16l21 2 25 5 21 7 4 2-2 11-12 49-2 1-21-7-20-4-9-1h-16l-17 3-14 5-13 8-10 9-7 8-6 10-6 17-1 3h132v37h-140l-1 25h141v38h-133l5 16 7 14 8 10 8 7 14 8 13 5 15 3 18 1 21-2 20-5 16-6h2l12 55-1 5-15 7-18 6-25 5-9 1h-29l-17-2-21-5-19-7-21-11-12-9-14-12-9-10-12-17-6-10-8-19-5-17-2-10-34-1v-38h29v-24l-29-1v-37l35-1 6-20 8-19 9-15 9-12 12-14 13-12 17-12 15-8 21-8 22-5z" fill="#545454"/>
<path transform="translate(237,56)" d="m0 0h36v35l18 2 16 4 16 7 11 7 9 8 8 11 6 12 4 13 2 12v21h-76l-2-18-4-13-4-6-6-4-7-2h-15l-11 4-6 5-4 8-2 8v14l3 10 6 9 8 7 14 8 27 11 25 10 21 11 14 11 10 11 8 14 5 15 2 12v31l-3 18-6 18-6 11-8 10-8 8-14 9-14 6-19 5-18 2v41h-36v-41l-19-2-21-5-14-6-13-9-10-10-8-13-5-14-2-11v-37h76l1 23 3 13 5 8 6 5 7 3 5 1h13l13-4 8-7 4-6 3-11v-16l-4-12-6-8-11-8-16-8-41-16-17-8-15-10-12-11-8-11-7-14-5-19-1-8v-25l2-14 5-17 8-15 11-13 13-10 17-8 18-5 17-2z" fill="#545454"/>
<path transform="translate(244,566)" d="m0 0h28l19 2 21 5 15 6 14 9 6 5 9 11 8 15 5 16 2 12 1 11v10h-75l-1-20-4-13-6-9-9-5-3-1h-18l-11 4-8 7-4 8-2 9v13l3 14 10 25 11 25 85 1v46h-68l2 7v17l-4 14-8 14-8 10-16 16-11 9-3 1v2l11-4 5-1h18l12 3 17 6 6 1h18l19-5 24-12 8 16 15 33-2 4-15 8-19 7-17 4-17 2h-15l-17-3-39-11-17-3h-20l-18 4-21 9h-3l-18-39-2-5v-3l13-9 13-12 9-9 9-13 8-16 3-11 1-6v-15l-1-10h-54v-46l2-1 31 1-8-16-8-21-4-16-1-7v-22l3-15 5-13 8-13 11-12 14-10 15-7 17-5z" fill="#545454"/>
</svg>
