<?xml version="1.0" encoding="UTF-8"?>
<svg version="1.1" viewBox="0 0 1800 1800" width="1280" height="1280" xmlns="http://www.w3.org/2000/svg">
<path transform="translate(0)" d="m0 0h1800v1800h-1800z" fill="#FCFDFD"/>
<path transform="translate(392,141)" d="m0 0h12l33 9 43 12 50 14 46 13 51 14 39 11 12 4 9 7 14 12 12 11 19 19 7 8 13 15 10 14 4 13 13 50 23 90 14 54 14 55 4 16-1 8-6 31-8 30-10 30-7 17-11 12-17 16-27 27-6 5-39 39-8 7-44 44-8 7-39 39-8 6-16 7-29 9-32 8-34 6h-8l-90-25-111-31-50-14-20-6-8-4-15-13-8-7-16-15-10-10-7-8-11-13-10-12-4-7-10-38-18-70-13-52-9-35-20-77v-14l7-33 9-32 11-32 5-10 11-12 6-6h2v-2l8-7 39-39 8-7 22-22h2l1-3h2l2-4 10-9 35-35h2l2-4 8-7 40-40 9-6 15-6 29-9 24-6 31-6z" fill="#00088F"/>
<path transform="translate(899,951)" d="m0 0h34l19 2 16 5 26 10 18 11 19 13 15 10 14 9 15 10 64 42 33 22 8 7 12 17 10 15 13 20 13 22 10 18 3 8 10 48 15 74 11 53 13 63v11l-4 19-11 33-11 26-8 16-9 17-15 24-12 14-12 10-21 12-23 13-17 10-24 14-28 16-29 17-23 13-24 14-28 16-10 6-16 8-19 4-24 3-13 1h-47l-13-2-13-4-31-11-19-12-42-28-17-11-24-16-52-34-25-17-9-9-9-13-22-33-13-22-9-16-5-11-7-30-19-94-19-92-5-25v-9l5-24 10-29 11-26 12-24 13-22 11-16 15-15 8-6 26-15 21-12 24-14 26-15 23-13 17-10 21-12 24-14 28-16 26-15 8-3 27-4z" fill="#F13528"/>
<path transform="translate(1347,136)" d="m0 0h13l38 9 231 53 18 5 18 11 13 10 11 9 20 18 19 19 13 17 13 20 6 11 1 5 7 128 2 32v33l-10 54-7 33-6 22-9 24-13 32-62 155-8 19-9 8-18 12-15 9-23 12-23 10-22 8-32 9-14 3-9 1-146-34-45-10-30-7-29-7-31-7-12-4-14-8-16-12-10-8-20-18-13-13-9-11-11-14-10-14-8-13-2-6-3-51-6-107-1-14v-17l6-36 9-45 7-30 6-17 15-37 40-100 9-23 5-12 10-25 9-22 4-6 23-14 22-12 19-9 24-8 27-8 22-8z" fill="#20925B"/>
<path transform="translate(826,554)" d="m0 0 2 4 6 24-1 8-6 31-8 30-10 30-7 17-11 12-17 16-27 27-6 5-39 39-8 7-44 44-8 7-39 39-8 6-16 7-29 9-32 8-34 6h-8l-36-10v-1l9 1 3 1v-4l14-9 7-7 11-14 5-6 3-6 2-2 25-5 29-8 8-4 1-7-3-8-2-12v-17l3-3 2-9 6-8 2-4 8-6 7-5 4-4 6-3h2v-2l8-3 1-3 7-6 7-2 3-12 3-4-7-2-2-2v-9l5-1 12 4 19-1 2-3 5-2-17-4-2-1 1-6v-3l9 4 6 1h14l13-3 5 1 4 15 3 9 11-4-1-7-5-16v-6l10-7 6-5 1-2h2l2-4 6-9 7-16 3-12 1-7v-14l-2-13-4-14-7-14-7-8-3-3 5 1 7 8 5 5 5 3 5 10 5 20 3 5 3-1 3-7v-15l1-7 6-4 4-5 7-4 5-2 2-2 5-1 1-4h7l2-6 6-13 5 2 6 12 4 1 3-8 5-3 5 5v2l-4 3 6 9v2h3l-5-20z" fill="#030371"/>
<path transform="translate(380,143)" d="m0 0h10l11 1 3 6 3 2 6 2 4 2v3l-12 4-8 3-18 2-17 7-5 5-5 6-6 8-2 4 2-2h3v-2h2v5l-4 4-2 5-1 1v5l6-1-4 4-12 3-5 5-3 6-6 5-2 6h-2l-2 5-2 3h-5v-2h-10l-1 5-10 7-1 3 7 2 9 3-1 4-10 11-5 1-9-3-5 1-8 7-5 4v2l18 4 2 1-1 5-7 17-2 9v20l3 11 6 10 8 8 6 4v3l5 2 1 2h-4v-2l-4 1 4 2 5 3 3 2 5 6 8 3 2 2 7 2 1 3-7 1-4-2-1-2-7-2-1 1-14 1-9 3-2 5-4 4-4 5-4 2-7-4-10-2v4l5 2v2h2v2h-8l-10 2-2 3-4 2-9-1-10-1-21-4-7-3-14-3-17-5-9-2-22-6-6-4-2-5-3-3-5-14-4-15-2-16-2-5-2-1 46-46 8-7 22-22h2l1-3h2l2-4 10-9 35-35h2l2-4 8-7 40-40 9-6 15-6 29-9 24-6z" fill="#0312A8"/>
<path transform="translate(625,453)" d="m0 0 4 1 2 11 13-4h14l10 3 9 5 5 4v2h2l7 10 4 8-1 5-8 6-9 6h-4l-6-10-6-7-9-4-13-1 6 26 12 45 3 8 11-1h23l15 6 9 8 7 10 5 11 4 16 1 9v14l-3 16-6 15-7 12-4 5h-2l-2 4-9 7-5 3v6l6 19-1 5-11 4-2-2-4-14-2-9-7 1-10 2h-14l-8-2-10-5-11-10-9-14-4-8-1-6 10-7 9-7 4 1 8 15 6 7v2l4 2 12 5h14l-5-20-5-18-8-30-5-18v-2l-11 1h-15l-14-3-8-4-10-9-6-9-4-9-3-12-1-8v-21l3-12 5-12 8-11 9-10 12-9-2-7v-5z" fill="#FBEA0B"/>
<path transform="translate(1506,204)" d="m0 0 7 1 8 3 2 9 13 4 12 5 16 10 11 11 6 9 6 15-1 2-30-1-4-9-6-11-11-8-12-6h-1l-2 61 9 3 16 6 17 9 11 8 9 10 7 13 3 14-1 12-4 9-6 9-8 6-11 5-17 4h-27l1 18-1 2-10-1-7-1-1-1v-20l-12-5-14-5-16-8-12-11-9-10-6-12-3-10v-6l4-2 25 2 3 5 5 13 7 11 7 6 11 7 10 4v-24l1-45-6-1-18-8-18-10-10-8-8-10-5-11-2-7v-16l4-10 9-10 12-7 7-2 9-1h21l7 1v-7z" fill="#FBEA0B"/>
<path transform="translate(1377,565)" d="m0 0h6l9 3 18 4 3 7 8 38 9 39 6 30 4-2 9-9 8-7 11-10 8-7 13-12 11-9 5-5h2v-2l8-7 13-12 8 1 18 5 8 2 1 4-16 13-13 12-11 9-15 13-28 24-13 11-5 5 17 4 30 8 7 3-2 9-4 12-9-1-56-14h-4l-7 17-1 2 16 4 49 13 3 3-6 18-4 1-24-6-39-10h-2l-16 45-2 2-7-1-12-3-9-2-1-5 11-30 5-15-25-6-34-9-7-1-1-1 1-7 5-14 2-1 68 17 2-9 4-11-18-5-47-12-2-1 1-6 5-15 5-1 43 11 9 1-5-18-11-47-12-50z" fill="#FBEA0B"/>
<path transform="translate(885,991)" d="m0 0 4 1 6 5v2l4 2 10 8-1 6-15 32-15 33-11 23-3 5v3l37-7 44-7 40-7 13-2h5l12 11 12 9v3l-25 4-119 18-4 1-1 2 4 2 13 11 14 12 9 8-2 4-12 7-5 4-5-2-5-5-9-8-11-9-5-4-4-4-9-7-3-3-7 1-11 7-3 2 1 3 8 6 11 10 11 9 13 11 5 4-1 4-10 7-5 3h-6l-10-10-11-9-10-8-15-14-6 1-20 12-10 7-11 7-4 1-5-5-15-12 1-4 14-9 15-10 14-9-5-5-16-13-14-12-7-5v-2l-5-2-4-4 1-4 12-7 5-3h5l10 10 11 9 13 11 11 9 3 3 5-1 10-7 5-3v-2l-10-7v-2l-5-2-12-11-7-5-5-5-11-9 1-5 12-6 5-4 6 1 7 7 10 8 11 9 9 8 3-1 13-29 7-15 16-34 11-23z" fill="#FBEA0B"/>
<path transform="translate(1091,1318)" d="m0 0h17l6 2 1 3-1 26-3 1-9-2h-19l-16 4-17 8-11 8-8 7-9 13-6 13-6 21-2 14 9-2 25-9 68-25 3 1v11l-1 10-29 11-58 21-13 5-1 4 1 5v10l9-2 38-13 49-18h4l1 3-1 17-5 3-32 12-33 12-18 7h-2l3 8 9 14 9 9 12 6 11 3h21l16-5 16-7 11-8 6-5 5-7 4 1 4 22v6l-5 5-14 9-8 5-20 8-21 5-9 1h-12l-19-4-12-5-12-9-11-11-9-14-6-14-6 1-13 5h-5v-21l2-2 11-3 3-1-4-18-8 1-7 3h-5v-21l5-3 12-4 1-17 5-23 4-12 8-16 7-10 12-14 12-11 15-10 15-8 24-8z" fill="#FBEA0B"/>
<path transform="translate(158,551)" d="m0 0 27 4 5 3 15 25 10 16 11 17 6 11 12 19 16 26 4 8 2 1 1-8 9-29 15-48 7-20 5-1 26 5 1 4-6 16-21 62-10 29v3l39 7 11 3 3 11 2 13-3 1-53-9h-6l4 23 21 4 40 7 3 3 3 21-12-1-47-8-3-1 9 52-1 5-13-2-11-2-2-2-4-19-6-34-1-2-21-4-33-6-9-2-4-23 11 1 43 7 9 2-4-24-6-2-52-9-5-1-2-5-2-13v-7l10 1 39 6-12-20-8-13-12-19-14-23-8-12-8-13-11-18-9-15z" fill="#FAE90B"/>
<path transform="translate(642,1323)" d="m0 0 7 1 7 6 2 9 5 4 13 9 12 11 7 7 10 15 9 19 2 5v5l-9-1-14-4-5-12-6-12-8-11-7-7-4-1 1 9 3 22 6 39 3 3 26 20 12 12 10 15 8 15 6 19 1 8v16l-3 10-6 8-7 5-11 2-12-1-6-1 2 14v9l-6-1-6-4-2-6-4-21-6-3-11-7-13-12-5-4v-2l-3-1-11-16-5-8-8-20-3-9v-4l10 1 11 3 4 8 8 19 5 9 10 13 11 10 3 1-3-20-7-44-3-18-16-12-10-9-3-2v-2l-4-2-9-11v-2h-2l-8-13-7-19-3-15v-17l4-10 8-7 7-2h13l13 3-3-7z" fill="#FBEA0B"/>
<path transform="translate(414,215)" d="m0 0h19l18 2 19 4 13 5 14 7 11 10 4 4-3 5-13 11-5 3-4-2-7-9-9-6-10-5-13-4-20-3h-13l-18 3-16 5-12 5-15 9-5 5 23 8 37 12 28 10 10 3 1 4-10 8-2 3h-7l-93-31h-5l-10 11v3l93 31v3l-11 9-5 3-13-4-43-14-30-10-5 1-6 17v16l4 10 9 10 11 8 16 6 18 4 8 1h12l9-2 1 2-9 11-10 11h-10l-21-3-18-5-21-9-12-8-10-9-6-8-4-11-1-4v-20l3-11 8-20-20-4v-4l5-4 8-7 5-1 9 3 6-2 9-10 1-3-15-3-2-3 5-5 5-4h2v-2l3-2 7 1 7 3 5-1 15-10 15-9 17-8 11-4 26-5z" fill="#FAE90B"/>
<path transform="translate(475,458)" d="m0 0 5 1 2 2 5 15 3 6 2 11 4 13 2 14 1 6v10l1 7-5 43-4 22-5 5-31 6-16 4h-11l-1-1v-12l-4-2-5-5-4-8-3-5-1-10-3-5v-2h-2l-2-9-5-17-2-7-9-39-2-13-2-4 5-4 10-4 23-6 18-4 19-5z" fill="#030272"/>
<path transform="translate(1182,352)" d="m0 0 6 1 8 6 5 9 4 14 2 12v15l-7 17-4 6h-1l-1-20-3-15-6-12-3-2-6 1-8 6-8 10-5 10 1 6 11 32 7 18 1 6-6 12-3 3-3-3-4-13-5-13-5-14-3-10h-2l-5 14 2 8 7 20 8 24 1 2v6l-7 13-4-3-4-12-9-23-2-10h-3l-4 20-5 24-1 8v27l3 14 5 10 4 3 5 2-1 6-9 21-5 1-7-9-4-10-4-20-1-14v-14l2-20 7-36 7-25 2-6-1-7-3-5 1-6 5-8 8-4 4-10v-7l-2-4 1-7 6-9 3-1 4 1 5-8 8-12 10-11 7-4z" fill="#FBEA0B"/>
<path transform="translate(140,764)" d="m0 0 8 1 5 4 10 6 3 6 6 4 8 3 1 2 6 3 15 8 11 9 6 4 11 3 4 2 15 2 11 3 4 5 5 10 8 7 3 7 3 1 1 3h-2l3 3 11 2 2 3-1 4-10-1-10-2-14-3-7 1v2l5 1 5 2-1 2-40-11-20-6-8-4-15-13-8-7-16-15-10-10-7-8-11-13-10-12-3-5v-2h2l6 9 3 1 1 4h4v2h2l3 8 6 6v2l4 2 2 4 4 1 6 5 3 1-2-5-8-9-6-16-4-5-4-9z" fill="#030471"/>
<path transform="translate(76,375)" d="m0 0 5 3 3 1-1 9-2 4v6l5 5 4 5 1 2 3 26 1 9 3 5-1 18-5 10-9 10-17 17-8 7-6 4-6-23v-14l7-33 9-32 11-32z" fill="#030471"/>
<path transform="translate(301,468)" d="m0 0h8l19 4 27 7 5 2v12l-4 18-3 7-3 10-4 6-3 2h-7l-8-4-7-4-8-5-5-5-4-5-4-6-3-11 1-12-1-10-1-4z" fill="#030272"/>
<path transform="translate(668,595)" d="m0 0h19l9 4 8 9 5 12 2 10v16l-4 13-6 10-9 10-3-1-7-23-9-34-6-21z" fill="#050C70"/>
<path transform="translate(652,214)" d="m0 0 9 1 3 2v2l4 1v2h2l3 11 7 5 4 20v16l-2 10-3 5-7-1 3 6 4 3v2h2l9 11 8 9v6h-2l-1 3-15 12-4-1-1-9 2-10-3-9-8-17v-6h4l-7-9-3-13v-7l-6-11-1-12 1-10-6-7 1-4z" fill="#030272"/>
<path transform="translate(1520,322)" d="m0 0 9 3 17 9 9 8 4 11 1 10-3 9-3 5-10 7-9 3h-16l-1-1v-13z" fill="#20925B"/>
<path transform="translate(623,496)" d="m0 0 3 2 3 9 5 21 7 25 4 14v5h-13l-9-2-6-4-6-7-5-11-2-8v-13l5-16 8-11z" fill="#010F8B"/>
<path transform="translate(677,1466)" d="m0 0 4 1 11 9 9 9 8 13 4 11 2 9v12l-4 8-5 5-3 1h-13l-3-11-7-46-3-15z" fill="#F13529"/>
<path transform="translate(1494,232)" d="m0 0h8l1 1v29l-1 30-5-1-15-8-9-7-6-9-2-5v-12l3-6 7-7 11-4z" fill="#20925B"/>
<path transform="translate(636,1355)" d="m0 0h9l3 3 11 66v4l-5-2-12-11-8-10-5-9-5-14-1-11 3-9 5-5z" fill="#F13529"/>
<path transform="translate(653,601)" d="m0 0 2 4 6 21 9 35 6 21v5l-2 1h-12l-12-5-5-5-6-7-7-13v-2l7 2 5 6 7 2 1 2 2-1 2-3 7-2 1-3-1-6h-2l-2-13-2-4 1-5 1-3-3-7-2-10-1-3z" fill="#06116F"/>
<path transform="translate(258,279)" d="m0 0 4 4v2h3v-2l3-2 3 1-8 7-5 4v2l18 4 2 1-1 5-7 17-2 9v20l3 11 4 8-4-1-1-2v5h2l5 6 3 3 1 3 3 1-1 2h-6l-10-9v-4l-2-5-4-2-3-5 1-5 1-1 1-21 4-19 2-8v-3l-3-1v-3l-8-3-2-3z" fill="#031488"/>
<path transform="translate(668,595)" d="m0 0h19l9 4 8 9 1 2v8l-5 5-1-4-2 5-4-1v8h-3l-2-13-4-1v-2l-6-2-2-5h-3l-1 2-2-5-2-1-1-8z" fill="#000A8E"/>
<path transform="translate(206,585)" d="m0 0 4 2 4 7 1 3 3 1 6 12 6 9 5 9v2h2l3 5v2l5 2 4 5 2 7 1 4 2 1 3 3v2h3l2 3 7 1v-4h2l-5 20-4-2-6-12-16-26-14-22-5-9-12-19z" fill="#071970"/>
<path transform="translate(600,875)" d="m0 0h20l-2 4-15 15-4 3-11 1-1-3 3-3 3-11 5-5z" fill="#010E8C"/>
<path transform="translate(297,783)" d="m0 0 2 1v4l2 1 4 5 1 10 3 5v7l-1 3h-3l2 8-7 2-3 2-9-1-5-5-3-1v-2h-3l1-3 7 2 15 3h3l-1-9-5-30z" fill="#061270"/>
<path transform="translate(286,719)" d="m0 0 11 1 48 8v1l-11 1-16-4h-3v-2l-10 1-8-1-2 5v12l7 3v2l-12-2-2-7-3-17z" fill="#07196E"/>
<path transform="translate(651,528)" d="m0 0 5 5 2 12 3 6 1 8 1 4-1 2 9-1 17-1 6 1v2l-23 1-11 1-4-9-7-26v-3h2z" fill="#081B6D"/>
<path transform="translate(283,256)" d="m0 0h8l-5 4-1 3 7 2 9 3-1 4-10 11-5 1-5-1v-1l5-1v-2l4-3-2-4-2-1v-2l-5-1-1-6 2-3h2z" fill="#031685"/>
<path transform="translate(205,753)" d="m0 0h7l51 9 4 2 1 6-2-1v-4l-3 1-13-3-16-2-5-2-19-2z" fill="#0A256C"/>
<path transform="translate(69,553)" d="m0 0 2 1 2 7 1 5 2 4h-2v2h3l1 8 3 5 3 11-2 3-6-5v-12l-1-3-2-1-2-13-3-1z" fill="#0312A9"/>
<path transform="translate(295,768)" d="m0 0 21 3 35 6h5l1-3 1 6-8 1-25-5-1-1-12-1-1-1-15-3v5h-1z" fill="#09236C"/>
<path transform="translate(664,718)" d="m0 0h11l5 3-2 5-1 1-11-1-9-2v-3z" fill="#000890"/>
<path transform="translate(268,771)" d="m0 0h1l7 39 1 9-2-1v-4h-2l-4-6-1-7 1-6h1l-1-8-2-6z" fill="#081B6D"/>
<path transform="translate(194,702)" d="m0 0 11 2 47 8v1h-20l-4-2-9-2-13-2-11-2z" fill="#0B2E6A"/>
<path transform="translate(206,585)" d="m0 0 4 2 4 7 1 3 3 1 6 12 6 9 5 9v2h2v3l-3-1-8-13-5-9-12-19z" fill="#091F6D"/>
<path transform="translate(641,499)" d="m0 0 7 3 1 2 1 13-1 5v7l-2-4-6-23z" fill="#081D6F"/>
<path transform="translate(297,267)" d="m0 0 4 1-1 4-10 11-5 1-5-1v-1l5-1v-2l7-4 1-6z" fill="#092F92"/>
<path transform="translate(345,382)" d="m0 0 13 1 19 2v-2l12-1 1 4-4-1-7 2h-12l-18-3z" fill="#0D376A"/>
<path transform="translate(380,143)" d="m0 0h6l-4 1v2l2 1h-2l-1 3-2 1h-9l-3-1 2-5z" fill="#02128A"/>
<path transform="translate(258,279)" d="m0 0 4 4v2h3v-2l3-2 3 1-8 7-5 4v3l-3-1 1-7z" fill="#051E83"/>
<path transform="translate(259,722)" d="m0 0h1l2 12v5l-9-1-18-3v-1h11l12 2 2 1-1-7z" fill="#104667"/>
<path transform="translate(295,768)" d="m0 0 21 3 11 2v1h-15l-1-1-15-3v5h-1z" fill="#0D3869"/>
<path transform="translate(312,723)" d="m0 0 9 1 24 4v1l-11 1-16-4h-3v-2z" fill="#0D3669"/>
<path transform="translate(686,478)" d="m0 0 4 2 5 9 4 3v6l-4 2-2-2 1-5-7-13z" fill="#09236D"/>
<path transform="translate(643,564)" d="m0 0 2 3v5h-13l-9-2-4-3 8 1 3 1 13 1z" fill="#114A66"/>
<path transform="translate(364,374)" d="m0 0 4 2 1 3-7 2h-4v-2l-2-1v-2z" fill="#0211A8"/>
<path transform="translate(682,563)" d="m0 0 12 1v2h-27l4-2z" fill="#0E3A68"/>
<path transform="translate(495,232)" d="m0 0h4v2l9 3 1 5 4 2-1 3-7-6-8-7z" fill="#0A286B"/>
<path transform="translate(250,761)" d="m0 0 13 1 4 2 1 6-2-1v-4l-3 1-13-3z" fill="#09236C"/>
<path transform="translate(194,702)" d="m0 0 11 2 17 3v1h-13l-14-3z" fill="#0F3E68"/>
<path transform="translate(324,774)" d="m0 0h9l12 2-3 2h-8l-9-2z" fill="#09216D"/>
<path transform="translate(653,601)" d="m0 0 2 4 5 17v3l-3-1-4-16z" fill="#0F4068"/>
<path transform="translate(295,683)" d="m0 0 1 4v4l2 2 6 2v1l-11-1-1-4z" fill="#0F3F68"/>
<path transform="translate(636,538)" d="m0 0h1l5 20-1 3-4-10-1-4z" fill="#0F3F68"/>
<path transform="translate(301,332)" d="m0 0h1l1 11h2v-2h4l-1 4-3 1-2-1v2h-2z" fill="#0312A9"/>
<path transform="translate(668,595)" d="m0 0h19v1l-12 1-6 1v6l-2-4z" fill="#155D63"/>
<path transform="translate(289,276)" d="m0 0 1 2h3l-2 4-6 2-5-1v-1l5-1v-2z" fill="#08287C"/>
<path transform="translate(275,300)" d="m0 0h3l-1 5-1 2h-4l-2-6z" fill="#082794"/>
<path transform="translate(351,260)" d="m0 0 2 1v2l12 5v2l-11-3-6-3z" fill="#0E3969"/>
<path transform="translate(226,617)" d="m0 0 4 2 5 9v2h2v3l-3-1-8-13z" fill="#0B2E6A"/>
<path transform="translate(195,676)" d="m0 0 11 2v2l-10-1-5-1v6h-1v-7z" fill="#135265"/>
<path transform="translate(711,574)" d="m0 0 5 1 7 8v2l-4-2-5-6z" fill="#0D3469"/>
<path transform="translate(268,771)" d="m0 0h1l3 17-1 3-4-10z" fill="#0E3A68"/>
<path transform="translate(629,455)" d="m0 0 2 3v4l13-1v1l-10 3h-3l-2-5z" fill="#125065"/>
<path transform="translate(323,289)" d="m0 0 1 4v2l7 2 1 2-11-3-1-4z" fill="#104367"/>
<path transform="translate(221,730)" d="m0 0 13 2v2l-12-1-7-1v-1z" fill="#114C66"/>
<path transform="translate(642,599)" d="m0 0h6l-3 2-4 2-13-2v-1z" fill="#135564"/>
<path transform="translate(165,550)" d="m0 0 9 1 2 1v2l-16-2v-1z" fill="#0F3E68"/>
<path transform="translate(619,659)" d="m0 0 3 2-9 6-3-1 3-3h2v-2z" fill="#0A286B"/>
<path transform="translate(824,586)" d="m0 0 2 4-2 3h-2-4v-3l5-2z" fill="#00078E"/>
<path transform="translate(418,148)" d="m0 0h10l1 3h-10z" fill="#0211A8"/>
<path transform="translate(412,144)" d="m0 0 11 2 4 2-10 1z" fill="#08297C"/>
<path transform="translate(676,596)" d="m0 0h14l3 2-6-1v2l-5-1-6-1z" fill="#07176E"/>
<path transform="translate(206,585)" d="m0 0 4 2 4 7 1 3-3-1-6-10z" fill="#0B2E6A"/>
<path transform="translate(390,318)" d="m0 0 9 1 5 2v2l-11-3z" fill="#0F3E68"/>
</svg>
