<svg xmlns="http://www.w3.org/2000/svg" xmlns:xlink="http://www.w3.org/1999/xlink" viewBox="0 0 229.31 80.61"><defs><style>.cls-1{fill:url(#linear-gradient);}.cls-2{fill:url(#linear-gradient-2);}.cls-3{fill:#7ccc4e;}.cls-4{fill:#1e2a39;}</style><linearGradient id="linear-gradient" x1="68.05" y1="60.6" x2="4.45" y2="63.18" gradientTransform="matrix(1, 0, 0, -1, 0, 82)" gradientUnits="userSpaceOnUse"><stop offset="0" stop-color="#c6ebbc"/><stop offset="0.11" stop-color="#afe4b8"/><stop offset="0.35" stop-color="#73d1ae"/><stop offset="0.68" stop-color="#14b49e"/><stop offset="0.75" stop-color="#00ae9b"/></linearGradient><linearGradient id="linear-gradient-2" x1="10.46" y1="68.98" x2="33.2" y2="22.83" gradientTransform="matrix(1, 0, 0, -1, 0, 82)" gradientUnits="userSpaceOnUse"><stop offset="0.3" stop-color="#007266"/><stop offset="1" stop-color="#369e79"/></linearGradient></defs><title>SVG_SmartCube_RBG</title><g id="Layer_2" data-name="Layer 2"><g id="Layer_1-2" data-name="Layer 1"><path class="cls-1" d="M0,11,41.87,40.57,80.29,11,50.06.45Z"/><path class="cls-2" d="M0,11l12.44,42.2L35.86,70.05l6-29.48Z"/><path class="cls-3" d="M74.15,34.23,50.06.45,80.29,11V34.23Z"/><path class="cls-4" d="M12.44,53.21l61.71-19h6.14L35.86,70.05Z"/><path class="cls-3" d="M97.9,29.92a14.27,14.27,0,0,0,9.35,4c4,0,6.22-1.8,6.22-4.59,0-2.95-2.3-3.88-5.58-5.24L103,22c-3.55-1.47-7.21-4.26-7.21-9.51,0-5.68,5-10,12-10a15.82,15.82,0,0,1,11,4.54l-3.28,4A11.55,11.55,0,0,0,107.79,8c-3.39,0-5.58,1.59-5.58,4.21,0,2.79,2.73,3.83,5.68,5l4.81,2c4.26,1.81,7.21,4.48,7.21,9.67,0,5.79-4.81,10.6-12.84,10.6a18.39,18.39,0,0,1-12.84-5.24l3.66-4.32ZM124,12h5.19l.44,3.67h.22c2.24-2.41,4.86-4.32,8.19-4.32,3.94,0,6.18,1.8,7.43,4.81,2.57-2.74,5.25-4.81,8.64-4.81,5.68,0,8.3,3.88,8.3,10.65V38.82H156v-16c0-4.42-1.31-6.06-4.09-6.06-1.7,0-3.55,1.09-5.63,3.33V38.83H140v-16c0-4.43-1.31-6.07-4.16-6.07-1.64,0-3.55,1.1-5.63,3.34V38.83h-6.29V12Zm58.18,9.68c-.06-2.84-1.26-5.25-4.87-5.25-2.67,0-5.19,1.2-7.54,2.62l-2.29-4.2a20.77,20.77,0,0,1,11-3.5c6.73,0,10,4.1,10,11.58v15.9h-5.13l-.49-3h-.16c-2.4,2-5.13,3.61-8.3,3.61-4.7,0-8-3.17-8-7.87,0-5.74,4.81-8.74,15.79-9.94Zm-5.85,12.89c2.18,0,3.88-1.09,5.84-3v-6c-7.27.93-9.67,2.84-9.67,5.52,0,2.4,1.58,3.44,3.82,3.44Zm17-22.57h5.19l.44,4.76h.21c1.91-3.5,4.49-5.41,7.33-5.41a6.88,6.88,0,0,1,3.06.54l-1.1,5.47a8.59,8.59,0,0,0-2.79-.44c-2.13,0-4.43,1.47-6.07,5.52V38.82h-6.29V12Zm22.07,5h-3.83v-4.7l4.15-.28.76-7.32h5.24V12h6.83v5h-6.83V29.75c0,3.17,1.21,4.7,3.77,4.7a7.64,7.64,0,0,0,2.79-.6l1.09,4.65a17.14,17.14,0,0,1-5.46,1c-6.23,0-8.52-3.93-8.52-9.73V17ZM126,1h-2V0h5.25V1h-2V7H126V1Zm5.17-1h1.24V2.8h2.81V0h1.23V7h-1.24V3.88h-2.81V7h-1.23V0ZM139,0h4.19V1h-2.95V2.82h2.5V3.87h-2.51V5.92h3.06V7H139V0Z"/><path class="cls-4" d="M123.68,53.12H130v16c0,4.43,1.26,6.07,4.15,6.07,2.35,0,3.61-1.1,5.63-3.72V53.12H146V80H140.9L140.41,76h-.16c-2.35,2.78-4.64,4.59-8.3,4.59-5.74,0-8.25-3.88-8.25-10.66V53.12Zm27.44-10.76h6.29v9l-.17,4.48A12.23,12.23,0,0,1,165,52.47c6.72,0,10.6,5.35,10.6,13.6,0,9.24-5.52,14.54-11.47,14.54a10.84,10.84,0,0,1-7.33-3.39h-.17L156.08,80h-5V42.36Zm11.7,33.06c3.55,0,6.28-3.17,6.28-9.24,0-5.35-1.74-8.52-5.79-8.52-2,0-3.82,1-5.9,3V73.18a8.38,8.38,0,0,0,5.41,2.24Zm28-23c7.27,0,11.09,5.24,11.09,12.73a13.82,13.82,0,0,1-.27,3H184.56c.54,4.86,3.6,7.59,7.92,7.59a11.28,11.28,0,0,0,6.23-2l2.13,3.93a16.88,16.88,0,0,1-9.18,2.9c-7.43,0-13.23-5.19-13.23-14s6.06-14.09,12.35-14.09Zm5.63,11.69c0-4.26-1.8-6.83-5.47-6.83-3.17,0-5.9,2.35-6.44,6.83ZM109.85,43.52A14,14,0,0,1,120,48.05L116.51,52a9.06,9.06,0,0,0-6.61-3C104.06,49,99.85,54,99.85,62s3.88,13.06,9.84,13.06a9.67,9.67,0,0,0,7.54-3.55l3.5,3.88a14.26,14.26,0,0,1-11.14,5.19c-9.07,0-16.23-6.56-16.23-18.42,0-11.69,7.32-18.63,16.5-18.63Z"/></g></g></svg>